<?xml version="1.0" encoding="UTF-8"?>
<svg id="Layer_23" xmlns="http://www.w3.org/2000/svg" version="1.1" viewBox="0 0 346.6 348.67">
  <!-- Generator: Adobe Illustrator 30.0.0, SVG Export Plug-In . SVG Version: 2.1.1 Build 123)  -->
  <defs>
    <style>
      .st0, .st1, .st2 {
        fill: #eaeaea;
      }

      .st3 {
        fill: #f597a8;
      }

      .st3, .st4, .st5, .st6, .st7, .st8, .st9, .st10, .st11, .st1, .st2 {
        stroke: #000;
        stroke-miterlimit: 10;
      }

      .st3, .st5, .st6, .st8, .st9, .st10, .st11, .st2 {
        stroke-width: .5px;
      }

      .st4, .st12 {
        fill: #ddd;
      }

      .st13 {
        fill: #ccc;
      }

      .st14 {
        fill: #ef869d;
      }

      .st6 {
        fill: #fefad5;
      }

      .st7, .st11 {
        fill: #fff;
      }

      .st8 {
        fill: #fffbde;
      }

      .st9 {
        fill: #efeac5;
      }

      .st10 {
        fill: #b5b5b5;
      }
    </style>
  </defs>
  <g>
    <path class="st4" d="M68.08,108.4c-4.22,2.5-5.83,6.39-6.28,7.63h13.35v-9.64c-1.4.03-4.18.3-7.07,2.01Z"/>
    <polygon class="st13" points="62.54 115.52 63.14 114.26 71.96 114.33 72.24 115.5 62.54 115.52"/>
    <path class="st7" d="M266.5,224.88c-11.46-6.48-31.26-20.32-71.44-36.72-46.59-19.01-69.88-28.52-76.46-47.7-5.19-15.11-4.58-37.65-11.15-44.26-6.78-6.82-16.26-4.81-16.26-4.81-.16,0-.3.01-.4.02-1.99.12-13.25.78-17.91,9.24-3.13,5.68-1.71,12.04-1.24,14.18.98,4.43,3.46,8.29,3.46,8.29,0,0,0,0,0,0,.48.55,1.21,1.48,1.79,2.78,1.29,2.86,1.01,5.57.87,6.76-1.06,9.2-2.78,14.76-3.11,22.16-.28,6.53.55,13.85.59,14.15,0,0,1.99,29.39,22.94,50.28,2.43,2.42,4.29,3.79,5.17,4.67,3.56,3.57,8.41,5.54,13.46,5.52,49.54-.18,99.08-.36,148.62-.54,2.22,0,2.98-2.95,1.05-4.04Z"/>
    <circle class="st5" cx="86.3" cy="105.35" r="3.18"/>
    <path class="st2" d="M141.57,254.19c-.04-.05-.07-.1-.11-.15-.66-.83-1.42-1.29-1.95-1.54,0-.01,0-.02,0-.03v-12.15h-7.48v12.15c-.55.11-1.15.28-1.8.56-1.69.75-2.81,1.89-3.46,2.73-.19.25-.02.61.3.61h12.48c.49-.7,1.13-1.48,2.02-2.17Z"/>
    <path class="st11" d="M155.01,256.96c-.15-.62-.43-1.46-.97-2.29-.66-1.02-1.42-1.59-1.96-1.9v-19.74h0v7.06h-7.53v-7.06h0v19.69c-.55.14-1.16.34-1.81.7-.42.23-.81.49-1.17.77-.89.69-1.53,1.48-2.02,2.17-.1.14-.21.3-.3.43-.19.31-.02.75.3.75h15.09c.25,0,.44-.29.37-.58Z"/>
    <rect class="st10" x="132.04" y="236.56" width="7.48" height="3.76"/>
    <polygon class="st10" points="152.08 240.09 152.08 233.04 152.08 233.04 144.56 233.04 144.56 233.04 144.56 240.09 152.08 240.09"/>
    <path class="st0" d="M78.59,95.5c-1.31.93-4.31,3.33-6.01,7.61-2.22,5.6-.7,10.56-.23,11.92.25,1.06.69,2.67,1.51,4.53.49,1.12.89,1.87,1.95,3.76.6,1.06,1.8,2.13,2.41,4.58.87,5.42-.8,11.3-1.37,15.55-.65,4.81-1.1,6.66-1.41,10.25-.5,5.94-.13,11.18.52,15.47.67,6.53,2.28,15.14,6.22,24.58,6.83,16.34,17.18,26.86,23.57,32.39,1.1.71,2.47,1.48,4.1,2.16,1.52.64,3.64.86,4.85,1.15-21.35-18.55-28.58-36.75-30.88-45.57-3.9-14.96-3.56-26.09-3.56-26.09.48-15.62,5.5-23.29.65-34.35-1.72-3.93-3.62-5.86-4.54-10.9-1.24-6.84.51-12.93,2.22-17.04Z"/>
    <path class="st1" d="M283.94,178.05c-8.38,5.48-26.79,17.08-49.14,28.54-16.55,8.48-35.27,16.88-53.67,22.64h0c-.85.27-1.68.53-2.53.78-6.22,1.87-12.38,3.42-18.4,4.55-13.29,2.52-25.87,3.02-36.71.43-.38-.09-.76-.18-1.16-.29-.39-.1-.8-.21-1.21-.33-1.38-.4-2.86-.89-4.4-1.5-.31-.13-.61-.25-.91-.38-.3-.13-.59-.26-.88-.39-.27-.12-.53-.24-.79-.36-.41-.19-.81-.38-1.2-.58-.46-.23-.91-.46-1.33-.69-.21-.12-.42-.23-.62-.35-2.09-1.2-4.07-2.58-5.93-4.16-2.65-2.26-5.1-4.71-7.82-7.67-.08-.09-.16-.17-.24-.26-.9-.99-1.84-2.04-2.83-3.16-.04-.04-.07-.08-.11-.12-.01-.01-.02-.03-.03-.05-.36-.5-1.11-1.38-2.06-2.58-.05-.05-.09-.11-.14-.17-1.85-2.35-4.44-5.84-6.44-10.09-.03-.04-.04-.07-.06-.11-2.14-4.52-3.63-9.89-2.95-15.63,1.96-16.32,22.34-31.65,48.86-28.8h.01c.33.03.65.07.98.11,6.02.68,12.04,1.37,18.06,2.05,3.91.44,7.82.89,11.73,1.33,9.46,1.08,18.91,2.15,28.36,3.22,3.9.44,7.8.89,11.7,1.33,27.02,3.07,54.03,6.13,81.04,9.2,1.78.2,2.33,2.51.83,3.49Z"/>
    <g>
      <path class="st12" d="M76.42,146.37c1.28.03,2.62.04,4,.03l-4-.03h0Z"/>
      <path class="st12" d="M118.05,140.46c-.54-1.78-1.17-3.66-1.54-5.52-5.49,1.82-12,3.56-20.11,4.6-5.17.66-9.92.9-14.18.89h.15s-.97,5.97-.97,5.97c4.7-.07,9.95-.4,15.63-1.19,8.18-1.13,15.25-2.91,21.02-4.74Z"/>
      <polygon class="st13" points="82.22 140.42 77.26 140.27 76.35 146.37 76.42 146.37 80.41 146.4 81.4 146.41 81.4 146.39 82.37 140.43 82.22 140.42"/>
    </g>
    <path class="st4" d="M150.28,159.48c-2.71,9.75-6.94,21.68-13.73,34.51-8.31,15.7-17.76,27.65-25.57,36.13,1.63.92,3.55,1.87,5.74,2.74,2.47.98,4.76,1.65,6.76,2.12,7.7-8.46,17.31-20.78,25.48-37.26,7.03-14.18,10.82-26.75,13.06-36.96-4.07-.38-7.71-.88-11.74-1.28Z"/>
    <path class="st4" d="M202.07,165.36c-.92,6.9-2.44,14.83-5.02,23.62-1.18,4.01-2.58,8.21-4.24,12.57-4.14,10.82-8.99,20.05-13.74,27.69-.16.26-.32.52-.48.77-6.22,1.87-12.38,3.42-18.4,4.55,1.21-1.65,2.44-3.4,3.69-5.26,5.47-8.15,11.25-18.24,16.22-30.28,2.11-5.12,3.87-10.08,5.33-14.8,2.29-7.38,3.86-14.19,4.94-20.19,3.9.44,7.8.89,11.7,1.33Z"/>
  </g>
  <g>
    <path class="st6" d="M101.1,161.56c6.01-1.49,13.32-3.83,21.25-7.59,7.11-3.38,13-7.09,17.69-10.49.53-.38,1.24-.41,1.79-.04.99.65,2.31,1.76,3.31,3.5,1.35,2.36,1.44,4.69,1.32,6.11-.06.68-.55,1.25-1.22,1.4-5.57,1.28-12.66,3.47-20.34,7.39-7.78,3.96-13.75,8.46-18.02,12.2l-5.78-12.48Z"/>
    <ellipse class="st6" cx="103.99" cy="167.8" rx="4.63" ry="6.88" transform="translate(-60.89 59.24) rotate(-24.85)"/>
    <path class="st8" d="M140.27,143.34c-.42.29-1.02.72-1.75,1.23-2.01,1.39-3.44,2.38-5.22,3.48-.78.48-1.87,1.14-3.21,1.87,0,0-4.08,2.3-7.73,4.05-7.58,3.63-19.23,7.06-19.75,7.21.22.02.52.07.87.17,1.17.32,1.94.93,2.4,1.3.23.19,1.03.85,1.79,2.02,1.06,1.62,1.93,3.23,2.07,4.34,4.56-3.61,10.05-7.7,17.51-11.42,7.1-3.54,14.03-5.38,19.46-6.85-.34-1.73-1.33-3.4-1.78-4.15-.59-.98-2.11-3.31-3.97-3.39-.29-.01-.58.12-.67.16Z"/>
    <ellipse class="st9" cx="103.86" cy="167.91" rx="2.79" ry="4.14" transform="translate(-60.95 59.2) rotate(-24.85)"/>
    <polygon class="st3" points="123.96 161.7 121.71 168.24 124.93 165.84 126.84 168.37 126.08 160.58 123.96 161.7"/>
    <polygon class="st3" points="127.05 159.19 132.79 166.35 128.92 165.32 128.08 168.37 125.92 160.85 127.05 159.19"/>
    <path class="st3" d="M118.77,155.55c.58.3,2.13,1.19,3.16,3.09,1.02,1.89.93,3.66.86,4.31,2.11-1.04,4.23-2.09,6.34-3.13,0-.95-.15-2.78-1.22-4.73-.73-1.34-1.63-2.24-2.27-2.78-2.29,1.08-4.58,2.16-6.87,3.24Z"/>
    <polygon class="st14" points="125.87 161.72 125.91 162.11 123.44 164.02 123.89 162.71 125.87 161.72"/>
    <polygon class="st14" points="126.47 161.81 128.86 161.89 127.92 160.72 126.37 161.49 126.47 161.81"/>
    <path class="st14" d="M128.32,156.75c-.43.81-1.11,1.77-1.94,2.76-1.17,1.39-2.33,2.36-3.3,3,1.94-.91,3.89-1.93,5.79-2.86,0-.52-.03-1.07-.2-1.77-.1-.44-.22-.79-.35-1.13Z"/>
  </g>
</svg>