<?xml version="1.0" encoding="UTF-8"?>
<svg id="_พื้น3" data-name="พื้น3" xmlns="http://www.w3.org/2000/svg" xmlns:xlink="http://www.w3.org/1999/xlink" version="1.1" viewBox="0 0 149.25 132.84">
  <!-- Generator: Adobe Illustrator 30.0.0, SVG Export Plug-In . SVG Version: 2.1.1 Build 123)  -->
  <defs>
    <style>
      .st0 {
        fill: url(#linear-gradient);
      }
    </style>
    <linearGradient id="linear-gradient" x1="74.62" y1="97.25" x2="74.62" y2="35.58" gradientUnits="userSpaceOnUse">
      <stop offset="0" stop-color="#fff" stop-opacity="0"/>
      <stop offset=".11" stop-color="#fff" stop-opacity=".03"/>
      <stop offset=".27" stop-color="#fff" stop-opacity=".12"/>
      <stop offset=".39" stop-color="#fff" stop-opacity=".2"/>
      <stop offset=".4" stop-color="#fff" stop-opacity=".21"/>
      <stop offset=".62" stop-color="#fff" stop-opacity=".54"/>
      <stop offset=".8" stop-color="#fff" stop-opacity=".79"/>
      <stop offset=".93" stop-color="#fff" stop-opacity=".94"/>
      <stop offset="1" stop-color="#fff"/>
    </linearGradient>
  </defs>
  <path class="st0" d="M139.21,77c0,11.18-20.29,20.25-45.32,20.25-9.39,0-18.12-1.28-25.36-3.47-6.02,2.19-13.35,3.47-21.24,3.47-20.58,0-37.26-8.71-37.26-19.45,0-6.67,6.43-12.56,16.22-16.06-.09-.76-.14-1.53-.14-2.31,0-13.17,13.53-23.85,30.21-23.85,7.1,0,13.64,1.94,18.81,5.18,3.01-.79,6.22-1.22,9.57-1.22,14.75,0,27.03,8.35,29.68,19.39,14.73,3.34,24.82,10.18,24.82,18.07Z"/>
</svg>