<?xml version="1.0" encoding="UTF-8"?>
<svg id="_พื้น3" data-name="พื้น3" xmlns="http://www.w3.org/2000/svg" xmlns:xlink="http://www.w3.org/1999/xlink" version="1.1" viewBox="0 0 598.32 211.55">
  <!-- Generator: Adobe Illustrator 30.0.0, SVG Export Plug-In . SVG Version: 2.1.1 Build 123)  -->
  <defs>
    <style>
      .st0 {
        fill: url(#linear-gradient2);
      }

      .st1 {
        fill: url(#linear-gradient1);
      }

      .st2 {
        fill: url(#linear-gradient3);
      }

      .st3 {
        fill: url(#linear-gradient5);
      }

      .st4 {
        fill: url(#linear-gradient4);
      }

      .st5 {
        fill: url(#linear-gradient);
      }
    </style>
    <linearGradient id="linear-gradient" x1="583" y1="189.52" x2="583" y2="59.2" gradientTransform="translate(-126.98)" gradientUnits="userSpaceOnUse">
      <stop offset="0" stop-color="#fff" stop-opacity="0"/>
      <stop offset=".11" stop-color="#fff" stop-opacity=".03"/>
      <stop offset=".27" stop-color="#fff" stop-opacity=".12"/>
      <stop offset=".39" stop-color="#fff" stop-opacity=".2"/>
      <stop offset=".4" stop-color="#fff" stop-opacity=".21"/>
      <stop offset=".62" stop-color="#fff" stop-opacity=".54"/>
      <stop offset=".8" stop-color="#fff" stop-opacity=".79"/>
      <stop offset=".93" stop-color="#fff" stop-opacity=".94"/>
      <stop offset="1" stop-color="#fff"/>
    </linearGradient>
    <linearGradient id="linear-gradient1" x1="-632.79" y1="134.38" x2="-632.79" y2="43.76" gradientTransform="translate(-280.57) rotate(-180) scale(1 -1)" gradientUnits="userSpaceOnUse">
      <stop offset="0" stop-color="#fff" stop-opacity="0"/>
      <stop offset=".05" stop-color="#fff" stop-opacity=".03"/>
      <stop offset=".13" stop-color="#fff" stop-opacity=".12"/>
      <stop offset=".22" stop-color="#fff" stop-opacity=".26"/>
      <stop offset=".32" stop-color="#fff" stop-opacity=".45"/>
      <stop offset=".39" stop-color="#fff" stop-opacity=".6"/>
      <stop offset=".56" stop-color="#fff" stop-opacity=".79"/>
      <stop offset=".72" stop-color="#fff" stop-opacity=".94"/>
      <stop offset=".8" stop-color="#fff"/>
    </linearGradient>
    <linearGradient id="linear-gradient2" x1="996.48" y1="118" x2="996.48" y2="27.39" gradientTransform="translate(-753.35)" gradientUnits="userSpaceOnUse">
      <stop offset="0" stop-color="#fff" stop-opacity="0"/>
      <stop offset=".05" stop-color="#fff" stop-opacity=".03"/>
      <stop offset=".13" stop-color="#fff" stop-opacity=".12"/>
      <stop offset=".22" stop-color="#fff" stop-opacity=".26"/>
      <stop offset=".32" stop-color="#fff" stop-opacity=".45"/>
      <stop offset=".39" stop-color="#fff" stop-opacity=".6"/>
      <stop offset=".47" stop-color="#fff" stop-opacity=".79"/>
      <stop offset=".55" stop-color="#fff" stop-opacity=".94"/>
      <stop offset=".59" stop-color="#fff"/>
    </linearGradient>
    <linearGradient id="linear-gradient3" x1="-1401.27" y1="197.17" x2="-1401.27" y2="51.55" gradientTransform="translate(-1253.04) rotate(-180) scale(1 -1)" gradientUnits="userSpaceOnUse">
      <stop offset="0" stop-color="#fff" stop-opacity="0"/>
      <stop offset=".11" stop-color="#fff" stop-opacity=".03"/>
      <stop offset=".27" stop-color="#fff" stop-opacity=".12"/>
      <stop offset=".39" stop-color="#fff" stop-opacity=".2"/>
      <stop offset=".39" stop-color="#fff" stop-opacity=".21"/>
      <stop offset=".56" stop-color="#fff" stop-opacity=".54"/>
      <stop offset=".7" stop-color="#fff" stop-opacity=".79"/>
      <stop offset=".8" stop-color="#fff" stop-opacity=".94"/>
      <stop offset=".86" stop-color="#fff"/>
    </linearGradient>
    <linearGradient id="linear-gradient4" x1="1299.94" y1="158.07" x2="1299.94" y2="67.45" gradientTransform="translate(-1000.16)" xlink:href="#linear-gradient1"/>
    <linearGradient id="linear-gradient5" x1="1217.65" y1="163.31" x2="1217.65" y2="72.69" gradientTransform="translate(-1000.16)" xlink:href="#linear-gradient1"/>
  </defs>
  <path class="st5" d="M576.48,135.86c0,24.55-27.77,44.71-63.11,46.72-18.7,4.34-42.32,6.94-67.96,6.94-60.68,0-109.86-14.52-109.86-32.43,0-7.32,8.22-14.07,22.08-19.5-3.34-2.51-5.32-5.6-5.32-8.94,0-8.51,12.78-15.4,28.51-15.4h.35c-.11-1.14-.18-2.29-.18-3.46,0-27.95,32.91-50.6,73.49-50.6,30.39,0,56.49,12.7,67.67,30.82,31.05,4.56,54.31,23.35,54.31,45.84Z"/>
  <path class="st1" d="M257.3,104.62c0,16.43,29.82,29.76,66.59,29.76,13.8,0,26.63-1.88,37.26-5.1,8.85,3.22,19.61,5.1,31.22,5.1,30.24,0,54.75-12.8,54.75-28.58,0-9.8-9.45-18.45-23.84-23.6.14-1.12.21-2.25.21-3.39,0-19.36-19.88-35.05-44.39-35.05-10.44,0-20.04,2.85-27.64,7.61-4.42-1.16-9.15-1.79-14.07-1.79-21.68,0-39.73,12.27-43.61,28.49-21.65,4.91-36.48,14.96-36.48,26.55Z"/>
  <path class="st0" d="M338.05,88.24c0,16.43-29.82,29.76-66.59,29.76-13.8,0-26.63-1.88-37.26-5.1-8.85,3.22-19.61,5.1-31.22,5.1-30.24,0-54.75-12.8-54.75-28.58,0-9.8,9.45-18.45,23.84-23.6-.14-1.12-.21-2.25-.21-3.39,0-19.36,19.88-35.05,44.39-35.05,10.44,0,20.04,2.85,27.64,7.61,4.42-1.16,9.15-1.79,14.07-1.79,21.68,0,39.73,12.27,43.61,28.49,21.65,4.91,36.48,14.96,36.48,26.55Z"/>
  <path class="st2" d="M13.63,137.21c0,27.43,31.03,49.96,70.51,52.21,20.9,4.85,47.28,7.75,75.93,7.75,67.8,0,122.75-16.23,122.75-36.23,0-8.18-9.18-15.72-24.67-21.79,3.73-2.8,5.94-6.25,5.94-9.99,0-9.51-14.28-17.2-31.86-17.2h-.4c.13-1.27.2-2.56.2-3.86,0-31.22-36.77-56.54-82.11-56.54-33.96,0-63.11,14.19-75.61,34.44-34.69,5.09-60.68,26.09-60.68,51.22Z"/>
  <path class="st4" d="M394.69,128.31c0,16.43-29.82,29.76-66.59,29.76-13.8,0-26.63-1.88-37.26-5.1-8.85,3.22-19.61,5.1-31.22,5.1-30.24,0-54.75-12.8-54.75-28.58,0-9.8,9.45-18.45,23.84-23.6-.14-1.12-.21-2.25-.21-3.39,0-19.36,19.88-35.05,44.39-35.05,10.44,0,20.04,2.85,27.64,7.61,4.42-1.16,9.15-1.79,14.07-1.79,21.68,0,39.73,12.27,43.61,28.49,21.65,4.91,36.48,14.96,36.48,26.55Z"/>
  <path class="st3" d="M312.41,133.55c0,16.43-29.82,29.76-66.59,29.76-13.8,0-26.63-1.88-37.26-5.1-8.85,3.22-19.61,5.1-31.22,5.1-30.24,0-54.75-12.8-54.75-28.58,0-9.8,9.45-18.45,23.84-23.6-.14-1.12-.21-2.25-.21-3.39,0-19.36,19.88-35.05,44.39-35.05,10.44,0,20.04,2.85,27.64,7.61,4.42-1.16,9.15-1.79,14.07-1.79,21.68,0,39.73,12.27,43.61,28.49,21.65,4.91,36.48,14.96,36.48,26.55Z"/>
</svg>