<?xml version="1.0" encoding="UTF-8"?>
<svg id="_พื้น3" data-name="พื้น3" xmlns="http://www.w3.org/2000/svg" xmlns:xlink="http://www.w3.org/1999/xlink" version="1.1" viewBox="0 0 149.25 132.84">
  <!-- Generator: Adobe Illustrator 30.0.0, SVG Export Plug-In . SVG Version: 2.1.1 Build 123)  -->
  <defs>
    <style>
      .st0 {
        fill: url(#linear-gradient);
      }
    </style>
    <linearGradient id="linear-gradient" x1="-182.78" y1="90.43" x2="-182.78" y2="42.4" gradientTransform="translate(-108.15) rotate(-180) scale(1 -1)" gradientUnits="userSpaceOnUse">
      <stop offset="0" stop-color="#fff" stop-opacity="0"/>
      <stop offset=".11" stop-color="#fff" stop-opacity=".03"/>
      <stop offset=".27" stop-color="#fff" stop-opacity=".12"/>
      <stop offset=".39" stop-color="#fff" stop-opacity=".2"/>
      <stop offset=".4" stop-color="#fff" stop-opacity=".21"/>
      <stop offset=".62" stop-color="#fff" stop-opacity=".54"/>
      <stop offset=".8" stop-color="#fff" stop-opacity=".79"/>
      <stop offset=".93" stop-color="#fff" stop-opacity=".94"/>
      <stop offset="1" stop-color="#fff"/>
    </linearGradient>
  </defs>
  <path class="st0" d="M24.32,74.66c0,8.71,15.8,15.77,35.3,15.77,7.32,0,14.11-1,19.75-2.7,4.69,1.71,10.4,2.7,16.55,2.7,16.03,0,29.02-6.78,29.02-15.15,0-5.2-5.01-9.78-12.64-12.51.07-.59.11-1.19.11-1.8,0-10.26-10.54-18.58-23.53-18.58-5.53,0-10.62,1.51-14.65,4.03-2.34-.62-4.85-.95-7.46-.95-11.49,0-21.06,6.5-23.12,15.1-11.47,2.6-19.34,7.93-19.34,14.07Z"/>
</svg>