<?xml version="1.0" encoding="UTF-8"?>
<svg id="_พื้น3" data-name="พื้น3" xmlns="http://www.w3.org/2000/svg" xmlns:xlink="http://www.w3.org/1999/xlink" version="1.1" viewBox="0 0 169.28 132.84">
  <!-- Generator: Adobe Illustrator 30.0.0, SVG Export Plug-In . SVG Version: 2.1.1 Build 123)  -->
  <defs>
    <style>
      .st0 {
        fill: url(#linear-gradient);
      }
    </style>
    <linearGradient id="linear-gradient" x1="-171.97" y1="101.76" x2="-171.97" y2="31.07" gradientTransform="translate(-86.53) rotate(-180) scale(1 -1)" gradientUnits="userSpaceOnUse">
      <stop offset="0" stop-color="#fff" stop-opacity="0"/>
      <stop offset=".11" stop-color="#fff" stop-opacity=".03"/>
      <stop offset=".27" stop-color="#fff" stop-opacity=".12"/>
      <stop offset=".39" stop-color="#fff" stop-opacity=".2"/>
      <stop offset=".4" stop-color="#fff" stop-opacity=".21"/>
      <stop offset=".62" stop-color="#fff" stop-opacity=".54"/>
      <stop offset=".8" stop-color="#fff" stop-opacity=".79"/>
      <stop offset=".93" stop-color="#fff" stop-opacity=".94"/>
      <stop offset="1" stop-color="#fff"/>
    </linearGradient>
  </defs>
  <path class="st0" d="M11.39,78.55c0,12.82,23.26,23.21,51.95,23.21,10.77,0,20.77-1.47,29.07-3.98,6.91,2.51,15.3,3.98,24.35,3.98,23.59,0,42.71-9.98,42.71-22.29,0-7.65-7.37-14.39-18.6-18.41.11-.87.16-1.76.16-2.65,0-15.1-15.51-27.34-34.63-27.34-8.14,0-15.64,2.22-21.56,5.94-3.45-.91-7.14-1.4-10.97-1.4-16.91,0-30.99,9.57-34.02,22.22-16.89,3.83-28.46,11.67-28.46,20.71Z"/>
</svg>