<?xml version="1.0" encoding="UTF-8"?>
<svg id="_หัวหลับตา" data-name="หัวหลับตา" xmlns="http://www.w3.org/2000/svg" xmlns:xlink="http://www.w3.org/1999/xlink" version="1.1" viewBox="0 0 762 671">
  <!-- Generator: Adobe Illustrator 30.0.0, SVG Export Plug-In . SVG Version: 2.1.1 Build 123)  -->
  <defs>
    <style>
      .st0, .st1, .st2 {
        fill: none;
      }

      .st1 {
        stroke-width: 9px;
      }

      .st1, .st2 {
        stroke-linecap: round;
        stroke-linejoin: round;
      }

      .st1, .st2, .st3 {
        stroke: #000;
      }

      .st4 {
        fill: url(#linear-gradient1);
      }

      .st2 {
        stroke-width: 15px;
      }

      .st5 {
        fill: url(#radial-gradient);
      }

      .st3 {
        stroke-miterlimit: 10;
        stroke-width: 6px;
      }

      .st3, .st6 {
        fill: #fff;
      }

      .st7 {
        fill: url(#linear-gradient);
      }

      .st8 {
        clip-path: url(#clippath-1);
      }

      .st9 {
        fill: url(#radial-gradient1);
      }

      .st10 {
        fill: #fed2ff;
      }

      .st11 {
        clip-path: url(#clippath);
      }
    </style>
    <linearGradient id="linear-gradient" x1="36.64" y1="274.15" x2="296.79" y2="452.41" gradientUnits="userSpaceOnUse">
      <stop offset=".33" stop-color="#fff"/>
      <stop offset=".69" stop-color="#ece1f0"/>
      <stop offset="1" stop-color="#d7fffd"/>
    </linearGradient>
    <clipPath id="clippath">
      <path class="st0" d="M209.3,183.84h452.67c13.17,0,23.86,10.69,23.86,23.86v147.34c0,108.21-87.85,196.06-196.06,196.06h-108.27c-108.21,0-196.06-87.85-196.06-196.06v-147.34c0-13.17,10.69-23.86,23.86-23.86Z"/>
    </clipPath>
    <linearGradient id="linear-gradient1" x1="148.27" y1="550.42" x2="331.25" y2="407.38" gradientUnits="userSpaceOnUse">
      <stop offset=".43" stop-color="#fff"/>
      <stop offset=".55" stop-color="#ebdfef"/>
      <stop offset=".99" stop-color="#d7fffd"/>
    </linearGradient>
    <radialGradient id="radial-gradient" cx="435.62" cy="202.19" fx="435.62" fy="202.19" r="268.2" gradientTransform="translate(0 123.05) scale(1 .39)" gradientUnits="userSpaceOnUse">
      <stop offset=".19" stop-color="#fff"/>
      <stop offset=".8" stop-color="#ebdfef"/>
      <stop offset=".97" stop-color="#fed2ff"/>
    </radialGradient>
    <clipPath id="clippath-1">
      <ellipse class="st0" cx="435.62" cy="202.19" rx="250.19" ry="56.03"/>
    </clipPath>
    <radialGradient id="radial-gradient1" cx="435.62" cy="254.23" fx="435.62" fy="487.45" r="261.22" gradientTransform="translate(0 176.35) scale(1 .31)" gradientUnits="userSpaceOnUse">
      <stop offset=".28" stop-color="#fff"/>
      <stop offset="1" stop-color="#d7fffd"/>
    </radialGradient>
  </defs>
  <g>
    <path class="st3" d="M685.6,204.42c.13-.74.21-1.48.21-2.23,0-30.95-112.01-56.03-250.19-56.03s-250.2,25.08-250.2,56.03c0,.78.09,1.55.23,2.32-.13,1.04-.21,2.1-.21,3.18v49.12c-22.47-8.74-45.5-12.99-67.2-12.21-35.01,1.27-62.65,15.36-77.83,39.66-15.19,24.3-15.74,55.32-1.54,87.34,13.46,30.35,38.83,58.29,71.45,78.67,30.93,19.33,65.12,29.83,96.87,29.83,1.73,0,3.45-.03,5.16-.1,5.87-.21,11.54-.79,16.97-1.72.88,1.09,1.78,2.16,2.68,3.23,1.97,2.32,4,4.6,6.08,6.83,3.21,3.45,6.54,6.79,9.98,10,2.37,2.2,4.79,4.35,7.26,6.44,1.73,1.46,3.48,2.89,5.26,4.29,1.78,1.4,3.58,2.78,5.41,4.12,2.77,2.02,5.59,3.98,8.46,5.87,2.63,1.72,5.29,3.38,8,4.98,16.87,9.95,35.34,17.46,54.91,22.01,14.2,3.3,28.97,5.04,44.14,5.04h108.27c37.06,0,71.81-10.42,101.46-28.49,1.35-.82,2.69-1.65,4.01-2.51,3.98-2.55,7.86-5.25,11.64-8.08,2.52-1.89,4.99-3.83,7.41-5.83,3.64-3.01,7.16-6.14,10.57-9.39,2.28-2.17,4.5-4.39,6.67-6.66,3.25-3.41,6.38-6.94,9.38-10.57,2-2.43,3.95-4.9,5.83-7.42,2.83-3.77,5.53-7.65,8.09-11.63,1.7-2.65,3.35-5.35,4.92-8.09,4.74-8.21,8.9-16.79,12.42-25.68.59-1.49,1.16-2.98,1.71-4.48,7.72-20.99,11.95-43.64,11.95-67.23v-147.34c0-1.11-.09-2.2-.23-3.27ZM123.7,428.86c-57.06-35.65-84.82-94.52-61.88-131.22,11.68-18.7,34.31-28.09,61.24-28.09,19.39,0,41,4.87,62.38,14.64v70.84c0,13.85,1.46,27.37,4.23,40.43.51,2.44,1.08,4.86,1.68,7.26.5,1.95,1.01,3.9,1.56,5.83,1.32,4.64,2.82,9.22,4.47,13.71.56,1.5,1.13,2.99,1.71,4.48,1.77,4.44,3.69,8.81,5.76,13.1,2.07,4.28,4.29,8.48,6.66,12.58.48.84.98,1.67,1.48,2.5-27.13,1.32-59.32-7.33-89.29-26.06Z"/>
    <path class="st6" d="M265.99,513.19c-1.83-1.34-3.63-2.71-5.41-4.12,1.78,1.4,3.58,2.78,5.41,4.12Z"/>
  </g>
  <g id="_หูแก้ว" data-name="หูแก้ว">
    <path class="st7" d="M207.19,480.1c-31.75,0-65.94-10.49-96.87-29.82-32.61-20.38-57.99-48.32-71.45-78.67-14.2-32.02-13.65-63.04,1.53-87.34,15.19-24.3,42.83-38.39,77.83-39.66,33.16-1.19,69.41,9.35,102.03,29.73,32.61,20.38,57.99,48.32,71.45,78.67,14.2,32.02,13.65,63.04-1.53,87.34-15.19,24.3-42.83,38.39-77.83,39.66-1.71.06-3.43.09-5.16.09ZM123.06,269.55c-26.93,0-49.56,9.39-61.24,28.09-22.93,36.7,4.83,95.56,61.88,131.22,57.05,35.65,122.13,34.8,145.07-1.9,22.93-36.7-4.83-95.57-61.88-131.22-27.98-17.49-57.9-26.19-83.82-26.19Z"/>
  </g>
  <g id="_แก้ว" data-name="แก้ว">
    <path class="st6" d="M209.3,183.84h452.67c13.17,0,23.86,10.69,23.86,23.86v147.34c0,108.21-87.85,196.06-196.06,196.06h-108.27c-108.21,0-196.06-87.85-196.06-196.06v-147.34c0-13.17,10.69-23.86,23.86-23.86Z"/>
  </g>
  <g id="_เงาหัว" data-name="เงาหัว">
    <g class="st11">
      <path class="st4" d="M179.22,211.04c13.73-.19-17.89,162.19,81,266,100.96,105.98,270.69,80.3,270,90-.79,11.06-223.55,71-332-58-96.62-114.93-33.55-297.8-19-298Z"/>
    </g>
  </g>
  <g id="_ในแก้ว" data-name="ในแก้ว">
    <ellipse class="st5" cx="435.62" cy="202.19" rx="250.19" ry="56.03"/>
  </g>
  <g id="_น้ำ" data-name="น้ำ">
    <g class="st8">
      <ellipse class="st9" cx="435.62" cy="254.23" rx="250.19" ry="56.03"/>
    </g>
  </g>
  <g id="_แก้ม" data-name="แก้ม">
    <circle id="_ซ้าย" data-name="ซ้าย" class="st10" cx="284.51" cy="416.36" r="47.18"/>
    <circle id="_ขวา" data-name="ขวา" class="st10" cx="591.16" cy="419.36" r="47.18"/>
  </g>
  <g>
    <g id="_ปาก" data-name="ปาก">
      <line class="st1" x1="411.83" y1="429.04" x2="437.83" y2="455.04"/>
      <line class="st1" x1="463.83" y1="429.04" x2="437.83" y2="455.04"/>
    </g>
    <g>
      <path class="st2" d="M372.83,372.74c0,18.5-15,33.5-33.5,33.5h0c-18.5,0-33.5-15-33.5-33.5"/>
      <path class="st2" d="M569.83,372.74c0,18.5-15,33.5-33.5,33.5h0c-18.5,0-33.5-15-33.5-33.5"/>
    </g>
  </g>
</svg>