<?xml version="1.0" encoding="UTF-8"?>
<svg xmlns="http://www.w3.org/2000/svg" xmlns:xlink="http://www.w3.org/1999/xlink" version="1.1" viewBox="0 0 762 671">
  <!-- Generator: Adobe Illustrator 30.0.0, SVG Export Plug-In . SVG Version: 2.1.1 Build 123)  -->
  <defs>
    <style>
      .st0, .st1, .st2 {
        fill: none;
      }

      .st3 {
        fill: url(#linear-gradient1);
      }

      .st4 {
        fill: url(#radial-gradient);
      }

      .st5 {
        fill: url(#linear-gradient);
      }

      .st6 {
        isolation: isolate;
      }

      .st7 {
        fill: #fff;
      }

      .st1 {
        mix-blend-mode: multiply;
      }

      .st1, .st2 {
        stroke: #000;
        stroke-miterlimit: 10;
        stroke-width: 6px;
      }

      .st8 {
        fill: #fed2ff;
      }

      .st9 {
        clip-path: url(#clippath);
      }
    </style>
    <linearGradient id="linear-gradient" x1="-34.28" y1="213.59" x2="360.9" y2="474.68" gradientUnits="userSpaceOnUse">
      <stop offset=".58" stop-color="#fff"/>
      <stop offset=".7" stop-color="#ebdfef"/>
      <stop offset=".84" stop-color="#d7fffd"/>
    </linearGradient>
    <clipPath id="clippath">
      <path class="st0" d="M215.64,168.17h452.67c13.17,0,23.86,10.69,23.86,23.86v147.34c0,108.21-87.85,196.06-196.06,196.06h-108.27c-108.21,0-196.06-87.85-196.06-196.06v-147.34c0-13.17,10.69-23.86,23.86-23.86Z"/>
    </clipPath>
    <linearGradient id="linear-gradient1" x1="442.07" y1="410.62" x2="442.07" y2="664.62" gradientUnits="userSpaceOnUse">
      <stop offset=".22" stop-color="#d7fffd"/>
      <stop offset=".57" stop-color="#fff"/>
    </linearGradient>
    <radialGradient id="radial-gradient" cx="441.97" cy="189.52" fx="441.97" fy="189.52" r="268.2" gradientTransform="translate(0 115.34) scale(1 .39)" gradientUnits="userSpaceOnUse">
      <stop offset=".19" stop-color="#fff"/>
      <stop offset=".8" stop-color="#ebdfef"/>
      <stop offset=".97" stop-color="#fed2ff"/>
    </radialGradient>
  </defs>
  <g class="st6">
    <g id="_น้ำก้นแก้ว" data-name="น้ำก้นแก้ว">
      <g>
        <g>
          <path class="st2" d="M547.73,531.48c.07-.02.13-.04.2-.05-.07.02-.13.04-.2.05Z"/>
          <path class="st2" d="M547.93,531.43c1.25-.34,2.49-.7,3.73-1.07-1.24.37-2.48.72-3.73,1.07Z"/>
          <path class="st2" d="M544.08,532.45c1.22-.31,2.43-.63,3.65-.97-.92.25-1.84.51-2.77.75-.29.07-.58.15-.88.22Z"/>
          <path class="st2" d="M551.65,530.36c1.08-.31,2.14-.64,3.21-.98-.2.06-.41.13-.61.19-.86.27-1.73.53-2.6.79Z"/>
          <path class="st2" d="M571.08,523.44c.72-.29,1.43-.59,2.13-.9-.32.14-.65.28-.97.42-.39.16-.77.32-1.16.48Z"/>
          <path class="st2" d="M610.1,501.63c-.23.17-.46.34-.69.5-.64.45-1.28.91-1.93,1.36.88-.61,1.75-1.23,2.62-1.86Z"/>
          <path class="st2" d="M547.93,531.43c1.25-.34,2.49-.7,3.73-1.07-1.24.37-2.48.72-3.73,1.07Z"/>
          <path class="st2" d="M544.08,532.45c1.22-.31,2.43-.63,3.65-.97-.92.25-1.84.51-2.77.75-.29.07-.58.15-.88.22Z"/>
          <path class="st2" d="M547.73,531.48c.07-.02.13-.04.2-.05-.07.02-.13.04-.2.05Z"/>
          <path class="st2" d="M551.65,530.36c1.08-.31,2.14-.64,3.21-.98-.2.06-.41.13-.61.19-.86.27-1.73.53-2.6.79Z"/>
          <path class="st2" d="M571.08,523.44c.72-.29,1.43-.59,2.13-.9-.32.14-.65.28-.97.42-.39.16-.77.32-1.16.48Z"/>
          <path class="st2" d="M610.1,501.63c-.23.17-.46.34-.69.5-.64.45-1.28.91-1.93,1.36.88-.61,1.75-1.23,2.62-1.86Z"/>
          <path class="st2" d="M691.94,191.75c.13-.74.22-1.48.22-2.23,0-30.94-112.02-56.03-250.2-56.03s-250.19,25.09-250.19,56.03c0,.78.09,1.56.23,2.33-.14,1.04-.22,2.1-.22,3.18v49.11c-22.47-8.74-45.5-12.99-67.2-12.21-35,1.28-62.64,15.36-77.83,39.67-15.19,24.3-15.73,55.32-1.53,87.34,13.45,30.35,38.83,58.29,71.44,78.67,30.94,19.33,65.12,29.82,96.87,29.82,1.73,0,3.45-.03,5.16-.09,5.88-.22,11.54-.8,16.98-1.72,9.65,11.88,20.66,22.62,32.78,31.98,33.13,25.57,74.56,40.83,119.39,40.83h108.27c15.16,0,29.94-1.75,44.14-5.05,1.28-.3,2.56-.61,3.83-.93,2.54-.65,5.07-1.34,7.57-2.09,1.08-.31,2.14-.64,3.21-.98,1.32-.42,2.64-.85,3.96-1.3,1.14-.39,2.27-.78,3.4-1.19.89-.32,1.77-.65,2.66-.99.32-.11.63-.23.95-.36.67-.25,1.35-.52,2.02-.79.52-.19,1.04-.4,1.56-.62.56-.22,1.12-.45,1.67-.69.72-.29,1.43-.59,2.13-.9,1.14-.49,2.27-.99,3.39-1.5.33-.15.67-.3,1-.46.68-.31,1.36-.63,2.04-.95.42-.21.85-.41,1.28-.62.71-.34,1.42-.69,2.13-1.05.7-.35,1.41-.7,2.11-1.07h0c1.41-.72,2.81-1.46,4.19-2.22.03-.02.06-.03.09-.05.66-.36,1.33-.73,1.99-1.1.71-.39,1.42-.8,2.13-1.21.46-.26.92-.53,1.37-.8.88-.51,1.76-1.04,2.63-1.57,1.35-.82,2.69-1.66,4.02-2.51.99-.64,1.98-1.29,2.96-1.95.33-.22.65-.44.98-.66.65-.44,1.31-.88,1.95-1.33.88-.61,1.75-1.23,2.62-1.86,1.05-.75,2.09-1.51,3.12-2.28,1.47-1.1,2.91-2.22,4.34-3.36,1.03-.82,2.06-1.64,3.08-2.48,1.21-1,2.41-2.01,3.59-3.04,1.19-1.03,2.37-2.08,3.53-3.13,1.16-1.06,2.31-2.13,3.45-3.21,2.27-2.17,4.49-4.39,6.66-6.67,1.08-1.13,2.15-2.28,3.21-3.44,1.06-1.17,2.1-2.34,3.13-3.53,1.03-1.19,2.04-2.39,3.04-3.6,3.01-3.63,5.88-7.38,8.62-11.22.92-1.28,1.81-2.58,2.7-3.88.88-1.31,1.75-2.62,2.6-3.95,1.71-2.65,3.35-5.35,4.93-8.08,2.36-4.11,4.59-8.31,6.66-12.59,1.38-2.85,2.7-5.75,3.94-8.68.62-1.46,1.23-2.94,1.81-4.42,1.18-2.96,2.28-5.96,3.31-8.99,1.55-4.55,2.94-9.18,4.15-13.86.81-3.13,1.54-6.29,2.2-9.47,2.62-12.73,4-25.9,4-39.38v-147.34c0-1.11-.08-2.2-.23-3.28ZM130.04,416.2c-57.05-35.66-84.81-94.52-61.88-131.22,11.69-18.7,34.31-28.1,61.24-28.1,19.39,0,41.01,4.88,62.38,14.64v-5.35c.12,1.82.25,3.66.39,5.53l-.39-.18v70.85c0,36.41,10.07,70.58,27.55,99.88-27.13,1.33-59.31-7.32-89.29-26.05Z"/>
          <path class="st2" d="M544.08,532.45c1.22-.31,2.43-.63,3.65-.97-.92.25-1.84.51-2.77.75-.29.07-.58.15-.88.22Z"/>
          <path class="st2" d="M547.73,531.48c.07-.02.13-.04.2-.05-.07.02-.13.04-.2.05Z"/>
          <path class="st2" d="M547.93,531.43c1.25-.34,2.49-.7,3.73-1.07-1.24.37-2.48.72-3.73,1.07Z"/>
          <path class="st2" d="M551.65,530.36c1.08-.31,2.14-.64,3.21-.98-.2.06-.41.13-.61.19-.86.27-1.73.53-2.6.79Z"/>
          <path class="st2" d="M571.08,523.44c.72-.29,1.43-.59,2.13-.9-.32.14-.65.28-.97.42-.39.16-.77.32-1.16.48Z"/>
          <path class="st2" d="M610.1,501.63c-.23.17-.46.34-.69.5-.64.45-1.28.91-1.93,1.36.88-.61,1.75-1.23,2.62-1.86Z"/>
          <path class="st2" d="M192.17,271.7l-.39-.18v-5.35c.12,1.82.25,3.66.39,5.53Z"/>
          <path class="st2" d="M192.17,271.7l-.39-.18v-5.35c.12,1.82.25,3.66.39,5.53Z"/>
          <path class="st1" d="M192.17,271.7l-.39-.18v-5.35c.12,1.82.25,3.66.39,5.53Z"/>
        </g>
        <g id="_หัว2" data-name="หัว">
          <g id="_หูแก้ว" data-name="หูแก้ว">
            <path class="st5" d="M213.54,467.43c-31.75,0-65.94-10.49-96.87-29.82-32.61-20.38-57.99-48.32-71.45-78.67-14.2-32.02-13.65-63.04,1.53-87.34,15.19-24.3,42.83-38.39,77.83-39.66,33.16-1.19,69.41,9.35,102.03,29.73,32.61,20.38,57.99,48.32,71.45,78.67,14.2,32.02,13.65,63.04-1.53,87.34-15.19,24.3-42.83,38.39-77.83,39.66-1.71.06-3.43.09-5.16.09ZM129.41,256.88c-26.93,0-49.56,9.39-61.24,28.09-22.93,36.7,4.83,95.56,61.88,131.22,57.05,35.65,122.13,34.8,145.07-1.9,22.93-36.7-4.83-95.57-61.88-131.22-27.98-17.49-57.9-26.19-83.82-26.19Z"/>
          </g>
          <g id="_แก้ว" data-name="แก้ว">
            <path class="st7" d="M215.64,171.17h452.67c13.17,0,23.86,10.69,23.86,23.86v147.34c0,108.21-87.85,196.06-196.06,196.06h-108.27c-108.21,0-196.06-87.85-196.06-196.06v-147.34c0-13.17,10.69-23.86,23.86-23.86Z"/>
            <g class="st9">
              <path class="st3" d="M597.56,556.96c8.28-9.35,29.91-33.77,23-57-6.65-22.38-37.44-35.75-62-35-19.9.6-21.72,10.05-54,19-8.79,2.44-33.04,8.96-62,7-27.78-1.88-29.43-9.5-71-18-31.5-6.44-47.75-9.55-67-3-4.55,1.55-34.36,11.69-41,35-8.41,29.51,25.7,61.27,34,69,75.41,70.22,234.79,56.64,300-17Z"/>
            </g>
          </g>
          <g id="_ในแก้ว" data-name="ในแก้ว">
            <ellipse class="st4" cx="441.97" cy="189.52" rx="250.19" ry="56.03"/>
          </g>
          <g id="_หน้า1" data-name="หน้า">
            <g id="_แก้ม" data-name="แก้ม">
              <circle id="_ซ้าย" data-name="ซ้าย" class="st8" cx="289.24" cy="403.69" r="47.18"/>
              <circle id="_ขวา" data-name="ขวา" class="st8" cx="595.89" cy="406.69" r="47.18"/>
            </g>
            <g id="_ตา" data-name="ตา">
              <circle id="_ซ้าย1" data-name="ซ้าย" cx="339.56" cy="366.37" r="19"/>
              <circle id="_ขวา1" data-name="ขวา" cx="544.56" cy="366.37" r="19"/>
              <circle class="st7" cx="340.06" cy="357.87" r="8.5"/>
              <circle class="st7" cx="545.06" cy="357.87" r="8.5"/>
            </g>
          </g>
        </g>
      </g>
    </g>
  </g>
</svg>