<?xml version="1.0" encoding="UTF-8"?>
<svg id="Layer_2" xmlns="http://www.w3.org/2000/svg" version="1.1" viewBox="0 0 428.53 340.88">
  <!-- Generator: Adobe Illustrator 30.0.0, SVG Export Plug-In . SVG Version: 2.1.1 Build 123)  -->
  <defs>
    <style>
      .st0 {
        fill: #d6d6d6;
      }

      .st0, .st1 {
        stroke: #000;
        stroke-miterlimit: 10;
      }

      .st1 {
        fill: none;
      }
    </style>
  </defs>
  <path class="st0" d="M66.17,295.22c1.03-2.12,2.52-3.99,4.4-5.44.13-.1.27-.2.4-.31,4.28-3.21,6.55-3.54,10-6.42,2.17-1.82,3.37-3.51,5.02-5.63,1.53-1.95,4.73-6.41,6.05-11.88.93-3.85.45-6.23.27-7-.13-.57-.3-1.09-.47-1.56-.41-1.12-1.02-2.16-1.84-3.03-.18-.19-.37-.38-.59-.57-.82-.73-1.62-1.21-2.22-1.5-1.86-.9-4.59-1.85-7.91-1.83-5.58.05-12.19,4.63-16.68,9.94-4.82,5.71-8.07,13.33-10.08,18.03-.64,1.51-1.3,3.28-2.63,5.29"/>
  <path class="st0" d="M46.95,287.55c-.46.7-.95,1.49-1.47,2.37h0c-2.85,4.84-4.51,9.16-5.46,12.02-.35.8-1.48,3.64-.5,7.07.82,2.87,2.66,4.56,3.39,5.16.45.48,2.16,2.18,4.99,2.52,2.78.34,4.82-.87,5.38-1.22,2.96-1.88,5-4.06,6.32-6.05,2.03-3.05,3.55-6.22,4.7-9.21"/>
  <path class="st0" d="M111.32,290.82c2.02-1.21,3.75-2.86,5.03-4.86.09-.14.18-.28.27-.43,2.82-4.55,2.95-6.84,5.51-10.53,1.62-2.33,3.2-3.66,5.16-5.5,1.81-1.69,5.96-5.28,11.3-7.08,3.75-1.26,6.17-1,6.95-.89.58.08,1.12.2,1.59.33,1.15.31,2.24.83,3.18,1.56.21.16.41.34.62.53.8.75,1.34,1.5,1.69,2.08,1.06,1.77,2.25,4.41,2.52,7.72.45,5.56-3.53,12.56-8.43,17.5-5.26,5.31-12.56,9.22-17.07,11.63-1.45.77-3.15,1.59-5.04,3.08"/>
  <path class="st0" d="M120.66,309.29c-.66.52-1.4,1.08-2.23,1.68h0c-4.57,3.27-8.72,5.3-11.49,6.5-.77.42-3.49,1.79-7,1.12-2.94-.57-4.78-2.25-5.44-2.92-.52-.41-2.36-1.96-2.95-4.75-.58-2.74.44-4.88.74-5.47,1.61-3.11,3.6-5.34,5.46-6.83,2.86-2.29,5.88-4.09,8.76-5.49"/>
  <path class="st0" d="M159.54,216.8c1.38-1.66,3.11-2.99,5.1-3.87.14-.06.28-.12.43-.18,4.5-1.91,6.59-1.71,10.29-3.51,2.33-1.14,3.76-2.38,5.7-3.89,1.78-1.4,5.61-4.65,7.98-9.22,1.67-3.21,1.77-5.43,1.78-6.15,0-.54-.02-1.04-.07-1.48-.12-1.08-.43-2.14-.97-3.09-.12-.21-.25-.42-.39-.64-.56-.83-1.17-1.42-1.64-1.82-1.45-1.2-3.67-2.65-6.62-3.36-4.96-1.18-11.84,1.43-17,5.17-5.54,4.01-10.09,10.06-12.91,13.8-.9,1.2-1.88,2.63-3.49,4.12"/>
  <path class="st0" d="M144.16,205.78c-.56.52-1.17,1.11-1.83,1.78h0c-3.59,3.67-6.01,7.14-7.48,9.48-.49.63-2.11,2.9-1.99,6.17.1,2.73,1.36,4.63,1.88,5.33.29.52,1.44,2.41,3.88,3.33,2.4.91,4.47.29,5.05.1,3.04-1.02,5.33-2.51,6.94-3.98,2.47-2.26,4.52-4.74,6.19-7.15"/>
  <path class="st0" d="M200.39,218.28c2.04-.69,3.9-1.84,5.43-3.39.11-.11.22-.22.32-.33,3.39-3.52,3.95-5.55,6.95-8.36,1.89-1.77,3.56-2.66,5.67-3.93,1.94-1.17,6.34-3.58,11.47-4.17,3.6-.41,5.71.29,6.38.54.51.18.96.39,1.36.6.97.5,1.85,1.17,2.54,2.01.15.18.31.38.46.6.58.82.91,1.6,1.11,2.18.6,1.79,1.17,4.37.78,7.38-.66,5.06-5.56,10.55-10.89,14.03-5.72,3.74-13,5.84-17.5,7.13-1.44.41-3.12.82-5.1,1.79"/>
  <path class="st0" d="M205.2,236.59c-.69.34-1.46.7-2.32,1.07h0c-4.71,2.05-8.81,3.07-11.52,3.61-.77.23-3.46.94-6.47-.34-2.52-1.07-3.84-2.92-4.31-3.66-.38-.46-1.74-2.21-1.73-4.81,0-2.56,1.33-4.28,1.71-4.75,2.04-2.48,4.25-4.09,6.2-5.06,2.99-1.5,6.04-2.53,8.88-3.23"/>
  <path class="st0" d="M252.86,157.9c1.28-1.63,2.92-2.95,4.81-3.84.13-.06.27-.13.4-.19,4.28-1.95,6.3-1.81,9.8-3.63,2.21-1.15,3.55-2.38,5.38-3.88,1.68-1.39,5.28-4.61,7.45-9.07,1.52-3.13,1.56-5.27,1.56-5.96,0-.52-.05-.99-.11-1.43-.15-1.04-.47-2.05-1.01-2.95-.12-.2-.25-.4-.39-.6-.56-.78-1.16-1.34-1.62-1.71-1.43-1.12-3.59-2.46-6.45-3.06-4.8-1.01-11.35,1.67-16.21,5.39-5.22,3.99-9.45,9.92-12.07,13.59-.84,1.17-1.74,2.57-3.26,4.05"/>
  <path class="st0" d="M237.8,147.68c-.53.51-1.1,1.1-1.71,1.76h0c-3.36,3.62-5.6,7.01-6.96,9.3-.45.62-1.96,2.84-1.76,5.98.16,2.62,1.42,4.42,1.94,5.07.3.5,1.45,2.28,3.81,3.11,2.33.81,4.31.17,4.86-.03,2.9-1.05,5.07-2.54,6.57-4,2.32-2.24,4.23-4.67,5.77-7.02"/>
  <path class="st0" d="M295.64,159.4c1.93-.75,3.68-1.92,5.09-3.46.1-.11.2-.22.3-.33,3.13-3.52,3.58-5.49,6.35-8.3,1.75-1.77,3.32-2.7,5.3-4,1.82-1.2,5.96-3.69,10.86-4.45,3.44-.53,5.49.06,6.15.27.49.16.94.34,1.33.52.95.44,1.82,1.05,2.52,1.83.15.17.31.35.46.55.58.77.94,1.5,1.16,2.06.65,1.69,1.29,4.16,1.03,7.07-.44,4.89-4.94,10.35-9.92,13.91-5.35,3.81-12.27,6.11-16.54,7.53-1.37.45-2.97.91-4.83,1.92"/>
  <path class="st0" d="M300.97,176.8c-.65.35-1.37.73-2.19,1.12h0c-4.45,2.15-8.35,3.29-10.93,3.91-.73.25-3.29,1.03-6.23-.08-2.46-.93-3.8-2.66-4.28-3.35-.39-.43-1.75-2.05-1.85-4.56-.09-2.46,1.11-4.17,1.46-4.63,1.86-2.46,3.92-4.09,5.76-5.11,2.82-1.56,5.71-2.66,8.41-3.45"/>
  <path class="st0" d="M336.57,84.63c.09-1.96.63-3.87,1.6-5.6.07-.12.14-.24.21-.37,2.23-3.85,3.86-4.84,5.56-8.17,1.07-2.1,1.43-3.78,2.01-5.94.54-1.99,1.54-6.44.77-11.06-.54-3.25-1.68-4.91-2.07-5.44-.29-.4-.58-.74-.86-1.04-.68-.72-1.48-1.32-2.39-1.72-.2-.09-.41-.17-.63-.25-.86-.3-1.63-.4-2.19-.43-1.71-.08-4.12.07-6.65,1.17-4.25,1.85-7.83,7.51-9.53,13.04-1.83,5.94-1.84,12.82-1.85,17.08,0,1.36.07,2.94-.29,4.91"/>
  <path class="st0" d="M319.37,85.01c-.12.68-.24,1.45-.36,2.29h0c-.61,4.63-.47,8.47-.26,10.98,0,.73.05,3.26,1.92,5.57,1.56,1.93,3.52,2.62,4.27,2.85.5.22,2.36.96,4.64.31,2.24-.65,3.41-2.23,3.72-2.69,1.65-2.4,2.51-4.74,2.87-6.68.56-2.99.69-5.91.6-8.57"/>
  <path class="st0" d="M364.83,56.21c.79-1.8,1.16-3.75,1.06-5.72,0-.14-.02-.28-.02-.42-.28-4.44-1.3-6.05-1.35-9.79-.03-2.36.4-4.02.84-6.22.41-2.02,1.49-6.45,4.24-10.25,1.93-2.67,3.69-3.65,4.28-3.95.43-.23.85-.4,1.24-.55.93-.34,1.92-.52,2.91-.48.22,0,.44.03.68.06.9.12,1.64.37,2.15.59,1.57.69,3.65,1.9,5.43,4.01,2.99,3.55,3.67,10.21,2.74,15.92-1,6.13-4.06,12.3-5.95,16.12-.61,1.22-1.37,2.6-1.93,4.52"/>
  <path class="st0" d="M380.06,64.21c-.19.67-.43,1.4-.7,2.21h0c-1.52,4.42-3.35,7.8-4.65,9.95-.32.65-1.5,2.9-4.2,4.13-2.26,1.03-4.32.78-5.09.65-.54-.03-2.55-.19-4.29-1.79-1.72-1.58-2.06-3.52-2.14-4.06-.41-2.89-.14-5.36.4-7.26.83-2.93,2.01-5.61,3.28-7.94"/>
  <line class="st1" x1="46.95" y1="287.55" x2="64.31" y2="300.64"/>
  <line class="st1" x1="49.92" y1="282.94" x2="66.69" y2="295.14"/>
  <line class="st1" x1="111.7" y1="290.44" x2="125.28" y2="305.96"/>
  <line class="st1" x1="106.01" y1="293.12" x2="120.66" y2="309.86"/>
  <line class="st1" x1="195.39" y1="219.05" x2="205.2" y2="236.89"/>
  <line class="st1" x1="143.56" y1="206.05" x2="157.15" y2="221.23"/>
  <line class="st1" x1="147.72" y1="201.99" x2="160.13" y2="216.8"/>
  <line class="st1" x1="200.39" y1="217.77" x2="209.74" y2="234.8"/>
  <line class="st1" x1="290.97" y1="160.4" x2="300.97" y2="177.3"/>
  <line class="st1" x1="295.64" y1="158.77" x2="305.18" y2="174.87"/>
  <line class="st1" x1="237.42" y1="148.04" x2="250.32" y2="162.44"/>
  <line class="st1" x1="241.15" y1="144.36" x2="252.98" y2="157.58"/>
  <line class="st1" x1="318.95" y1="84.94" x2="337.2" y2="89.32"/>
  <line class="st1" x1="320.03" y1="80.44" x2="336.81" y2="84.47"/>
  <line class="st1" x1="362.11" y1="60.3" x2="380.06" y2="64.61"/>
  <line class="st1" x1="364.52" y1="55.78" x2="381.53" y2="59.86"/>
</svg>