<svg width="223" height="205" viewBox="0 0 223 205" fill="none" xmlns="http://www.w3.org/2000/svg">
<path d="M161.675 1C195.464 1 222 27.4755 222 61.4443C222 82.1747 212.679 101.114 196.093 121.446C179.495 141.792 155.726 163.41 126.995 189.514L126.993 189.515L111.5 203.646L96.0068 189.515L96.0049 189.514L85.4678 179.929C61.4439 158.025 41.4302 139.249 26.9072 121.446C10.3207 101.114 1.00006 82.1747 1 61.4443C1 27.4755 27.5361 1 61.3252 1C80.4231 1.00006 98.7695 9.91309 110.74 23.8877L111.5 24.7744L112.26 23.8877C124.231 9.91309 142.577 1.00006 161.675 1Z" fill="#FF6464" stroke="black" stroke-width="2"/>
</svg>
