<?xml version="1.0" encoding="UTF-8"?>
<svg id="Layer_2" xmlns="http://www.w3.org/2000/svg" version="1.1" viewBox="0 0 61.88 73.15">
  <!-- Generator: Adobe Illustrator 30.0.0, SVG Export Plug-In . SVG Version: 2.1.1 Build 123)  -->
  <defs>
    <style>
      .st0 {
        fill: #555f77;
      }
    </style>
  </defs>
  <path class="st0" d="M41.42,63.79h-20.95l.32-.82c.93-2.36,3.44-4.24,6.71-5.04.74-.18,1.26-.84,1.26-1.62v-2.8c-2.38-.54-4.52-1.99-5.91-4.04-1.5-2.21-2.03-4.86-1.49-7.48l3.13-15.13c.31-1.51.04-3.07-.78-4.38l-3.04-4.89h20.43l-2.66,5.12c-.6,1.15-.81,2.49-.59,3.77l2.72,15.83c.88,5.14-2.44,10.06-7.46,11.19v2.8c0,.77.52,1.44,1.26,1.62,3.27.79,5.78,2.68,6.71,5.04l.32.82ZM22.32,62.59h17.24c-1.01-1.61-2.98-2.89-5.46-3.49-1.28-.31-2.17-1.46-2.17-2.78v-3.8l.5-.09c4.65-.8,7.78-5.25,6.98-9.91l-2.72-15.83c-.26-1.54-.01-3.15.71-4.53l1.75-3.37h-16.3l1.9,3.06c.98,1.57,1.31,3.44.93,5.25l-3.13,15.13c-.48,2.3-.01,4.63,1.31,6.56,1.31,1.92,3.35,3.24,5.62,3.63l.5.09v3.8c0,1.33-.89,2.47-2.17,2.78-2.48.6-4.46,1.88-5.46,3.49Z"/>
  <g>
    <path class="st0" d="M28.91,44.22l4.14-34.3h0c.02-.17.17-.28.34-.26l6.63.8-.07.6-6.03-.73c-.17-.02-.32.1-.34.26l-4.07,33.7-.6-.07Z"/>
    <path class="st0" d="M29.78,44.63l-1.2-.15,4.18-34.6c.04-.33.34-.56.67-.53l6.93.84-.15,1.2-6.33-.76-4.11,34ZM29.25,43.96h0s4.04-33.4,4.04-33.4c.04-.33.34-.57.67-.53l5.73.69h0s-6.33-.77-6.33-.77l-4.11,34.01Z"/>
  </g>
</svg>