<?xml version="1.0" encoding="UTF-8"?>
<svg id="Layer_2" xmlns="http://www.w3.org/2000/svg" version="1.1" viewBox="0 0 44.16 46.69">
  <!-- Generator: Adobe Illustrator 30.0.0, SVG Export Plug-In . SVG Version: 2.1.1 Build 123)  -->
  <defs>
    <style>
      .st0 {
        fill: #555f77;
      }
    </style>
  </defs>
  <path class="st0" d="M21.5,23.32c-.33,0-.65-.12-.9-.34-.49-.42-.96-.82-1.42-1.21-2.78-2.34-4.78-4.03-4.78-6.65s1.86-4.48,4.24-4.48c1.1,0,2.08.42,2.86,1.21.78-.8,1.76-1.21,2.86-1.21,2.38,0,4.24,1.97,4.24,4.48s-2.01,4.3-4.78,6.65c-.45.38-.93.78-1.42,1.21-.25.22-.57.34-.9.34ZM18.64,11.74c-1.79,0-3.14,1.46-3.14,3.39,0,2.1,1.75,3.58,4.39,5.81.46.38.93.79,1.43,1.22.1.09.26.09.37,0,.49-.43.97-.83,1.43-1.22,2.65-2.23,4.39-3.71,4.39-5.81,0-1.93-1.35-3.39-3.14-3.39-.97,0-1.79.43-2.42,1.29l-.44.59-.44-.59c-.64-.85-1.45-1.29-2.42-1.29Z"/>
  <path class="st0" d="M29.82,40.89h-8.87v-5.33c0-2.2.63-4.31,1.83-6.11.14-.21.27-.39.39-.53.69-.8,3.74-3.69,3.87-3.82.46-.43,1.65-.93,2.89.31.22.22.38.44.5.67.33-.55.5-1.17.51-1.82l.05-5.68s-.06-.88.51-1.52c.37-.41.9-.63,1.56-.64.82-.03,1.3.3,1.57.58.61.63.59,1.52.58,1.62v9.19c0,.7-.19,1.38-.54,1.98-2.27,3.82-3.79,6.55-3.97,7.12-.27.85-.33,2.77-.33,3.43v.55h-.55ZM22.05,39.8h7.24c.02-.82.1-2.36.37-3.22.29-.91,2.67-4.99,4.07-7.35.25-.43.39-.92.39-1.42v-9.22s.01-.53-.28-.83c-.17-.17-.4-.24-.76-.24-.35,0-.61.1-.77.27-.26.29-.23.75-.23.75l-.04,5.73c0,1.24-.5,2.41-1.38,3.29l-.44.44c-.15.2-.3.32-.33.34h0s-2.94,2.93-2.94,2.93l-.77-.77,3.22-3.22c.07-.1.13-.23.14-.38.01-.22-.11-.46-.37-.72-.74-.74-1.24-.41-1.38-.29-.02.02-3.13,2.97-3.78,3.73-.09.1-.19.25-.31.42-1.08,1.62-1.65,3.52-1.65,5.5v4.23Z"/>
  <path class="st0" d="M30.24,27.79l-.24-.12c-.25-.13-.39-.41-.55-1.09-.18-.75-1.33-.83-1.35-.83l-.5-.03-.02-.5s-.06-2.42-.06-3.77c0-.49.18-.91.51-1.2.63-.55,1.58-.5,1.81-.48.25,0,.49.03.7.07.85.18,1.47.95,1.47,1.84v2.6c0,1.24-.48,2.41-1.36,3.29l-.19.12-.23.09ZM28.68,24.74c.56.13,1.43.47,1.77,1.34.32-.54.48-1.15.48-1.8v-2.6c0-.37-.25-.7-.6-.77-.15-.03-.31-.05-.5-.05h-.06c-.18-.02-.73-.03-.99.2-.06.05-.14.15-.14.39,0,.98.03,2.52.05,3.28Z"/>
  <path class="st0" d="M22.05,40.89h-9.42v-.55c0-.67-.06-2.58-.33-3.43-.18-.57-1.7-3.3-3.97-7.12-.35-.6-.54-1.28-.54-1.98v-9.22c0-.07-.03-.96.58-1.59.26-.27.72-.61,1.57-.58.67.01,1.19.23,1.56.64.57.64.51,1.48.51,1.57l.05,5.63c0,.65.18,1.28.51,1.82.12-.23.28-.46.5-.67,1.24-1.24,2.43-.75,2.89-.31.13.12,3.18,3.02,3.87,3.82.11.13.25.31.39.53,1.2,1.8,1.83,3.91,1.83,6.11v5.33ZM13.72,39.8h7.24v-4.23c0-1.98-.57-3.89-1.65-5.5-.11-.17-.22-.31-.31-.42-.65-.76-3.76-3.7-3.79-3.73-.13-.11-.63-.45-1.37.29-.26.26-.38.5-.37.72,0,.15.07.28.14.38l3.22,3.22-.77.77-2.94-2.94h0s-.18-.14-.33-.34l-.44-.44c-.88-.88-1.37-2.04-1.38-3.29l-.05-5.68c0-.05.03-.51-.23-.8-.16-.17-.42-.27-.77-.27-.34,0-.59.07-.76.24-.29.3-.28.8-.28.81v9.24c0,.5.14.99.39,1.42,1.4,2.35,3.78,6.44,4.07,7.35.27.86.35,2.4.37,3.22Z"/>
  <path class="st0" d="M12.78,27.79l-.43-.21c-.88-.88-1.36-2.05-1.36-3.29v-2.6c0-.89.62-1.66,1.47-1.84.21-.04.45-.07.7-.07.22-.02,1.18-.08,1.81.48.33.3.51.71.51,1.2,0,1.35-.06,3.77-.06,3.77v.5s-.52.03-.52.03c0,0-1.17.08-1.34.83-.16.68-.3.96-.55,1.09l-.22.12ZM13.42,20.86c-.07,0-.14,0-.18,0h-.06c-.19,0-.35.02-.5.05-.35.07-.61.4-.61.77v2.6c0,.64.17,1.26.48,1.8.33-.88,1.2-1.21,1.77-1.34.02-.76.05-2.3.05-3.28,0-.23-.08-.33-.14-.39-.2-.18-.57-.21-.81-.21Z"/>
  <rect class="st0" x="12.58" y="8.68" width="1.09" height="2.93" transform="translate(-3.36 11.97) rotate(-44.03)"/>
  <rect class="st0" x="20.95" y="6.34" width="1.09" height="2.93"/>
  <rect class="st0" x="28.42" y="9.6" width="2.93" height="1.09" transform="translate(1.82 24.58) rotate(-45.98)"/>
</svg>