<?xml version="1.0" encoding="UTF-8"?>
<svg id="Layer_2" xmlns="http://www.w3.org/2000/svg" version="1.1" viewBox="0 0 78.84 75.94">
  <!-- Generator: Adobe Illustrator 30.0.0, SVG Export Plug-In . SVG Version: 2.1.1 Build 123)  -->
  <defs>
    <style>
      .st0 {
        fill: #555f77;
      }
    </style>
  </defs>
  <path class="st0" d="M64.44,32.39c0-8.32-6.1-15.07-13.63-15.07-5.23,0-9.77,3.26-12.05,8.04-2.29-4.78-6.82-8.04-12.05-8.04-7.53,0-13.63,6.75-13.63,15.07,0,5.01,1.86,9.67,5.26,12.41l20.5,19.91s21.38-21.5,20.72-20.76c2.89-3.21,4.9-6.2,4.9-11.57ZM57.35,41.99c-.67.6-1.63,1.57-3.16,3.1-1.95,1.95-4.54,4.55-7.13,7.15-3.15,3.16-6.3,6.32-8.28,8.31l-18.4-17.87c-.07-.06-.13-.12-.2-.18-2.6-2.1-4.15-5.88-4.15-10.11,0-6.67,4.78-12.1,10.67-12.1,3.91,0,7.51,2.43,9.38,6.35.49,1.03,1.53,1.68,2.67,1.68s2.18-.65,2.67-1.68c1.87-3.92,5.47-6.35,9.38-6.35,5.88,0,10.67,5.43,10.67,12.1,0,4.21-1.39,6.53-4.14,9.59h.02Z"/>
</svg>