<?xml version="1.0" encoding="UTF-8"?>
<svg id="Layer_5" xmlns="http://www.w3.org/2000/svg" version="1.1" viewBox="0 0 57.72 57.93">
  <!-- Generator: Adobe Illustrator 30.0.0, SVG Export Plug-In . SVG Version: 2.1.1 Build 123)  -->
  <defs>
    <style>
      .st0 {
        fill: #555f77;
      }
    </style>
  </defs>
  <path class="st0" d="M23.01,27.3c-1.51,0-3.04-.34-4.47-1.04-3.78-1.85-6.05-5.9-5.65-10.09l1.19.12c-.36,3.69,1.65,7.27,4.98,8.9,3.51,1.71,7.68.97,10.38-1.84l.87.83c-1.96,2.05-4.61,3.13-7.31,3.13Z"/>
  <path class="st0" d="M33.41,17.65l-1.2-.07c.2-3.65-1.79-7.04-5.08-8.65-3.35-1.64-7.43-1.03-10.16,1.51l-.82-.88c3.09-2.88,7.71-3.56,11.51-1.71,3.72,1.82,5.97,5.66,5.75,9.79Z"/>
  <path class="st0" d="M32.8,26.25L9.89,15.05l-.04-.32c-.11-.75-.17-2.26.6-3.85.78-1.63,2.03-2.52,2.71-2.91l.28-.16,22.92,11.2.06.29c.15.77.29,2.32-.51,3.97-.81,1.65-2.11,2.49-2.82,2.85l-.27.13ZM11,14.25l21.79,10.65c.59-.34,1.46-1.01,2.02-2.16.56-1.15.56-2.24.46-2.92L13.48,9.17c-.58.38-1.41,1.08-1.96,2.23-.54,1.12-.58,2.18-.53,2.86Z"/>
  <path class="st0" d="M11.09,47.32l-4.37-2.13,10.33-21.14,4.37,2.13-10.33,21.14ZM8.33,44.64l2.21,1.08,9.28-18.98-2.21-1.08-9.28,18.98Z"/>
  <g>
    <path class="st0" d="M31.49,46.2c-2.53,0-4.54-.56-4.69-.6l-.47-.14.04-.49c.02-.29.64-7.11,5.2-10.27,4.57-3.16,11.16-1.32,11.44-1.24l.47.14-.04.49c-.02.29-.64,7.11-5.2,10.27-2.09,1.45-4.61,1.84-6.75,1.84ZM27.62,44.57c1.57.35,6.51,1.17,9.93-1.2,3.42-2.37,4.4-7.28,4.62-8.87-1.57-.34-6.51-1.17-9.93,1.2-3.42,2.37-4.4,7.28-4.63,8.87Z"/>
    <path class="st0" d="M26.04,53.34l-.76-.45c-.88-.52-1.51-1.13-1.88-1.82-.52-.95-.41-1.81-.34-2.44.05-.45.08-.71-.04-.86-.08-.11-.21-.13-.64-.15-.55-.02-1.31-.06-2.03-.76-.64-.63-1.09-1.63-1.35-3.05l-.16-.88,8.59,1.75-1.39,8.65ZM20.4,44.48c.21.69.47,1.21.8,1.53.39.38.78.4,1.24.42.49.02,1.11.05,1.54.63.42.55.34,1.18.27,1.73-.07.57-.13,1.1.2,1.72.16.29.39.57.7.83l.92-5.69-5.67-1.15Z"/>
    <path class="st0" d="M50.95,36.12l-8.59-1.75,1.39-8.64.76.45c.88.52,1.51,1.13,1.89,1.82.52.95.41,1.81.34,2.43-.05.45-.08.71.04.86.08.11.21.13.64.15.55.02,1.31.06,2.03.76.64.63,1.09,1.63,1.35,3.05l.16.88ZM43.72,33.43l5.67,1.15c-.21-.69-.47-1.21-.8-1.53-.39-.38-.78-.4-1.24-.42-.49-.02-1.11-.05-1.54-.62-.42-.55-.34-1.18-.27-1.73.07-.57.13-1.1-.2-1.72-.16-.29-.39-.57-.7-.83l-.92,5.69Z"/>
  </g>
  <rect class="st0" x="26.93" y="39.52" width="10.97" height="1.2" transform="translate(-10.01 69.44) rotate(-85.71)"/>
  <rect class="st0" x="32.14" y="38.39" width="10.57" height="1.2" transform="translate(-3.05 74.81) rotate(-87.67)"/>
</svg>