<?xml version="1.0" encoding="UTF-8"?>
<svg id="Layer_2" xmlns="http://www.w3.org/2000/svg" version="1.1" viewBox="0 0 44.16 46.69">
  <!-- Generator: Adobe Illustrator 30.0.0, SVG Export Plug-In . SVG Version: 2.1.1 Build 123)  -->
  <defs>
    <style>
      .st0 {
        fill: #555f77;
      }
    </style>
  </defs>
  <path class="st0" d="M26.59,12.16c-4.76,0-8.62,3.86-8.62,8.62s3.86,8.62,8.62,8.62,8.62-3.86,8.62-8.62-3.86-8.62-8.62-8.62ZM26.99,25.49c-.12.1-.26.15-.4.15s-.29-.05-.4-.15c-2.53-2.19-4.46-3.47-4.46-5.52,0-1.6,1.15-2.92,2.74-2.92.84,0,1.58.39,2.12,1.12.55-.73,1.28-1.12,2.12-1.12,1.59,0,2.74,1.32,2.74,2.92,0,2.05-1.93,3.33-4.46,5.52Z"/>
  <rect class="st0" x="12.66" y="25.57" width="4.91" height="14.04" rx="1.28" ry="1.28" transform="translate(27.47 -1.15) rotate(45)"/>
</svg>