<?xml version="1.0" encoding="UTF-8"?>
<svg id="Layer_2" xmlns="http://www.w3.org/2000/svg" version="1.1" viewBox="0 0 30.53 34.14">
  <!-- Generator: Adobe Illustrator 30.0.0, SVG Export Plug-In . SVG Version: 2.1.1 Build 123)  -->
  <defs>
    <style>
      .st0 {
        fill: #555f77;
      }
    </style>
  </defs>
  <g>
    <path class="st0" d="M22.87,30.83H5.76V6.1h17.11v24.73ZM6.46,30.13h15.71V6.79H6.46v23.34Z"/>
    <polygon class="st0" points="24.77 28.99 24.08 28.99 24.08 5.31 8.01 5.31 8.01 4.61 24.77 4.61 24.77 28.99"/>
    <rect class="st0" x="5.79" y="5.32" width="2.59" height=".7" transform="translate(-1.97 5.12) rotate(-35.18)"/>
    <rect class="st0" x="22.26" y="29.33" width="2.57" height=".7" transform="translate(-13.73 22.93) rotate(-41.31)"/>
  </g>
  <path class="st0" d="M14.55,19.52c-.14,0-.28-.05-.39-.15-.19-.17-.38-.32-.55-.47-1.1-.93-1.9-1.6-1.9-2.65s.76-1.82,1.72-1.82c.43,0,.81.15,1.12.45.31-.3.69-.45,1.12-.45.96,0,1.72.8,1.72,1.82s-.79,1.72-1.9,2.65c-.18.15-.36.31-.55.47-.11.09-.25.15-.39.15ZM13.43,14.98c-.67,0-1.17.54-1.17,1.27,0,.8.68,1.37,1.7,2.23.18.15.37.31.56.48.26-.17.45-.33.62-.48,1.02-.86,1.7-1.43,1.7-2.23,0-.72-.5-1.27-1.17-1.27-.36,0-.66.16-.9.48l-.22.29-.22-.29c-.24-.32-.54-.48-.9-.48Z"/>
  <rect class="st0" x="10.68" y="23.62" width="8.26" height=".49"/>
  <rect class="st0" x="23.4" y="23.49" width=".29" height="6.2" transform="translate(-.1 .09) rotate(-.21)"/>
  <rect class="st0" x="12.04" y="25.16" width="5.54" height=".43"/>
  <path class="st0" d="M18.94,12.7c0,.42-.34.76-.76.76.42,0,.76.34.76.76,0-.42.34-.76.76-.76-.42,0-.76-.34-.76-.76Z"/>
  <path class="st0" d="M10.95,19.74h0c0,.42-.34.76-.76.76.42,0,.76.34.76.76h0c0-.42.34-.76.76-.76-.42,0-.76-.34-.76-.76Z"/>
</svg>