<?xml version="1.0" encoding="UTF-8"?>
<svg id="Layer_2" xmlns="http://www.w3.org/2000/svg" version="1.1" viewBox="0 0 50.09 48.43">
  <!-- Generator: Adobe Illustrator 30.0.0, SVG Export Plug-In . SVG Version: 2.1.1 Build 123)  -->
  <defs>
    <style>
      .st0 {
        fill: #555f77;
      }
    </style>
  </defs>
  <g id="CUSTOM-Group">
    <path class="st0" d="M37.34,13.53c-1.42,0-2.58,1.16-2.58,2.58v1.01c-.27-.1-.56-.15-.86-.15-1.42,0-2.58,1.16-2.58,2.58v2.73c-.35.12-.68.33-.96.6l-2.7,2.64s0,0,0,0c-1.04,1.04-1.86,2.27-2.43,3.63,0,0,0,.01,0,.02-.57-1.35-1.4-2.59-2.46-3.65l-2.64-2.64c-.28-.28-.61-.48-.97-.61v-2.73c0-1.42-1.16-2.58-2.58-2.58-.3,0-.59.05-.86.15v-1.01c0-1.42-1.16-2.58-2.58-2.58s-2.58,1.16-2.58,2.58v9.38c0,.78.21,1.55.61,2.22l2.9,4.84c1.1,1.83,1.71,3.97,1.71,6.01,0,.48.39.86.86.86h17.22c.48,0,.86-.39.86-.86,0-2.04.61-4.18,1.71-6.01l2.9-4.84c.4-.67.61-1.44.61-2.22v-9.38c0-1.42-1.16-2.58-2.58-2.58ZM15.7,19.55c0-.47.39-.86.86-.86s.86.39.86.86v2.73c-.36.13-.69.33-.97.61-.21.21-.38.46-.5.71-.16-.16-.25-.38-.25-.61v-3.44ZM24.37,37.7h-6.92c-.15-2.08-.82-4.19-1.92-6.04l-2.9-4.84c-.24-.4-.37-.86-.37-1.33v-9.38c0-.47.39-.86.86-.86s.86.39.86.86v6.89h0s0,0,0,0c0,.69.27,1.34.76,1.82l4.66,4.66c.34.34.88.34,1.22,0,.34-.34.34-.88,0-1.22l-2.94-2.94c-.34-.34-.34-.88,0-1.22.34-.34.88-.34,1.22,0l2.64,2.64c1.8,1.8,2.83,4.24,2.83,6.7v4.24ZM33.04,19.55c0-.47.39-.86.86-.86s.86.39.86.86v3.44c0,.23-.09.45-.25.61h0c-.12-.26-.29-.5-.5-.71-.28-.28-.61-.48-.97-.61v-2.73ZM38.2,25.49h0c0,.47-.13.93-.37,1.33l-2.9,4.84c-1.11,1.84-1.78,3.96-1.92,6.04h-6.92v-4.24c0-2.53.98-4.91,2.77-6.7l2.7-2.64s0,0,0,0c.34-.34.88-.34,1.22,0,.34.34.34.88,0,1.22l-2.94,2.94c-.34.34-.34.88,0,1.22.34.34.88.34,1.22,0l4.66-4.66c.49-.49.76-1.13.76-1.82,0,0,0,0,0,0h0v-6.89c0-.47.39-.86.86-.86s.86.39.86.86v9.38h0Z"/>
    <path class="st0" d="M28.21,10.02c-1.19,0-2.21.54-2.98,1.57-.77-1.03-1.8-1.57-2.98-1.57-2.23,0-3.84,1.85-3.84,4.1,0,2.87,2.71,4.67,6.26,7.75.16.14.36.21.56.21s.4-.07.56-.21c3.55-3.08,6.26-4.88,6.26-7.75,0-2.25-1.61-4.1-3.84-4.1ZM25.23,20.08c-3.13-2.67-5.1-4.1-5.1-5.96,0-1.35.91-2.37,2.12-2.37,1.57,0,2.13,1.88,2.15,1.96.1.37.44.63.83.63s.73-.26.83-.63c.02-.08.58-1.96,2.15-1.96,1.21,0,2.12,1.02,2.12,2.37,0,1.86-1.97,3.29-5.1,5.96Z"/>
  </g>
</svg>