<?xml version="1.0" encoding="UTF-8"?>
<svg id="Layer_2" xmlns="http://www.w3.org/2000/svg" version="1.1" viewBox="0 0 78.84 75.94">
  <!-- Generator: Adobe Illustrator 30.0.0, SVG Export Plug-In . SVG Version: 2.1.1 Build 123)  -->
  <defs>
    <style>
      .st0 {
        fill: #555f77;
        stroke-width: .71px;
      }

      .st0, .st1 {
        stroke: #555f77;
        stroke-miterlimit: 10;
      }

      .st1 {
        fill: #fff;
        stroke-width: 1.42px;
      }
    </style>
  </defs>
  <path class="st1" d="M51.55,68.59h-22.21l.31-.39c1.38-1.72,3.03-3.19,4.91-4.35l3.1-1.92c.73-.45,1.17-1.24,1.17-2.1v-2.21l-.74-.12c-2.89-.46-5.44-1.93-7.18-4.14-2.67-3.39-3.47-7.86-2.14-11.97l4.89-15.1c.44-1.36.17-2.83-.73-3.94l-4.62-5.7h24.27l-4.62,5.7c-.9,1.11-1.17,2.58-.73,3.94l4.89,15.1c1.33,4.1.53,8.58-2.14,11.97-1.74,2.21-4.29,3.68-7.18,4.14l-.74.12v2.21c0,.86.44,1.65,1.17,2.1l3.1,1.92h0c1.88,1.16,3.53,2.62,4.91,4.35l.31.39ZM30.35,68.11h20.17c-1.28-1.51-2.77-2.8-4.46-3.85h0l-3.1-1.92c-.88-.54-1.4-1.48-1.4-2.51v-2.63l1.15-.18c2.77-.44,5.21-1.85,6.88-3.96,2.57-3.26,3.34-7.57,2.06-11.52l-4.89-15.1c-.49-1.51-.19-3.16.82-4.39l3.98-4.91h-22.24l3.98,4.91c1,1.24,1.31,2.88.82,4.39l-4.89,15.1c-1.28,3.95-.51,8.26,2.06,11.52,1.67,2.12,4.11,3.52,6.88,3.96l1.15.18v2.63c0,1.03-.52,1.97-1.4,2.51l-3.1,1.92c-1.68,1.04-3.18,2.33-4.46,3.85Z"/>
  <path class="st0" d="M39.96,48.9l-5.46-42.55-7.03,2.07-.27-.93,7.58-2.23c.14-.04.28-.02.4.06.12.08.2.2.22.34l5.53,43.12-.96.12Z"/>
</svg>