<?xml version="1.0" encoding="UTF-8"?>
<svg id="Layer_5" xmlns="http://www.w3.org/2000/svg" version="1.1" viewBox="0 0 37.73 32.26">
  <!-- Generator: Adobe Illustrator 30.0.0, SVG Export Plug-In . SVG Version: 2.1.1 Build 123)  -->
  <defs>
    <style>
      .st0 {
        fill: #555f77;
      }
    </style>
  </defs>
  <path class="st0" d="M18.86,23.22c-.36,0-.71-.13-.98-.37-.55-.48-1.09-.93-1.6-1.36-3.12-2.63-5.37-4.53-5.37-7.45s2.08-5,4.73-5c1.24,0,2.34.48,3.22,1.39.88-.91,1.98-1.39,3.22-1.39,2.65,0,4.73,2.2,4.73,5s-2.25,4.82-5.37,7.45c-.51.43-1.04.88-1.6,1.36-.27.24-.62.37-.98.37ZM15.64,10.18c-2.04,0-3.58,1.66-3.58,3.86,0,2.39,1.97,4.06,4.96,6.58.51.43,1.05.89,1.61,1.37.17.15.3.15.47,0,.56-.48,1.1-.94,1.61-1.37,2.99-2.52,4.96-4.19,4.96-6.58,0-2.2-1.54-3.86-3.58-3.86-1.09,0-2.05.51-2.77,1.47l-.46.61-.46-.61c-.72-.96-1.67-1.47-2.77-1.47Z"/>
</svg>