<?xml version="1.0" encoding="UTF-8"?>
<svg id="Layer_2" xmlns="http://www.w3.org/2000/svg" version="1.1" viewBox="0 0 50.09 48.43">
  <!-- Generator: Adobe Illustrator 30.0.0, SVG Export Plug-In . SVG Version: 2.1.1 Build 123)  -->
  <defs>
    <style>
      .st0 {
        fill: #555f77;
      }

      .st1 {
        fill: #fff;
      }
    </style>
  </defs>
  <rect class="st0" x="18.25" y="27.6" width="5.9" height="3.14" transform="translate(-14.42 23.54) rotate(-45)"/>
  <path class="st0" d="M20.63,17.22c-3.46,3.46-3.46,9.07,0,12.53,3.46,3.46,9.07,3.46,12.53,0,3.46-3.46,3.46-9.07,0-12.53-3.46-3.46-9.07-3.46-12.53,0Z"/>
  <path class="st1" d="M21.55,18.14c-2.95,2.95-2.95,7.73,0,10.68,2.95,2.95,7.73,2.95,10.68,0,2.95-2.95,2.95-7.73,0-10.68-2.95-2.95-7.73-2.95-10.68,0Z"/>
  <rect class="st0" x="10.87" y="31.75" width="10.8" height="4.7" rx=".7" ry=".7" transform="translate(-19.35 21.49) rotate(-45)"/>
  <path class="st0" d="M22.71,22.62c0-1.23.99-2.22,2.22-2.22.85,0,1.58.47,1.96,1.17.37-.7,1.11-1.17,1.96-1.17,1.23,0,2.22.99,2.22,2.22,0,.61-.25,1.17-.65,1.57h0l-3.53,3.35-3.53-3.35h0c-.4-.4-.65-.96-.65-1.57Z"/>
</svg>