<?xml version="1.0" encoding="UTF-8"?>
<svg id="Layer_2" xmlns="http://www.w3.org/2000/svg" version="1.1" viewBox="0 0 62.57 56.31">
  <!-- Generator: Adobe Illustrator 30.0.0, SVG Export Plug-In . SVG Version: 2.1.1 Build 123)  -->
  <defs>
    <style>
      .st0 {
        fill: #555f77;
      }
    </style>
  </defs>
  <path class="st0" d="M50.61,34.65c2.5-3.06,4.73-6.54,5.74-10.4.87-3.3.51-6.85-.8-9.99-2.56-6.16-8.6-9.73-15.22-9.15-4.12.36-7.65,2.11-10.19,5.4h1.7c-3.16-4.13-7.84-5.98-13.01-5.37-4.44.52-8.35,3.08-10.7,6.88s-2.96,8.71-1.9,13.11,3.57,7.85,6.42,11.03c4.49,5.01,9.8,9.28,14.88,13.68.95.83,2.35-.56,1.39-1.39-4.13-3.58-8.34-7.08-12.23-10.92-2.94-2.9-5.79-6.07-7.52-9.87-3.31-7.3-.86-17.3,7.35-20,4.92-1.62,10.43-.3,13.62,3.86.48.63,1.22.62,1.7,0,4.76-6.17,14.79-5.84,19.71-.09,2.27,2.65,3.42,6.26,3.3,9.73-.16,4.46-2.9,8.76-5.64,12.11-.8.97.59,2.38,1.39,1.39h0Z"/>
  <path class="st0" d="M30.15,10.52l-3.58,2.96c-1.17.96-2.52,1.86-3.57,2.96-2,2.08-.6,5.68,1.83,6.69s3.93-.83,5.41-2.35c1.14-1.18,2.76-3.63,4.47-1.92.69.7,1.31,1.49,1.96,2.23l8.44,9.61,3.6,4.1c.2.23.43.45.61.69,1.24,1.74-.7,4.34-2.48,2.65-.92-.87-2.32.52-1.39,1.39,2.34,2.22,6.11.76,6.29-2.5.09-1.63-.83-2.71-1.81-3.84l-8.07-9.18c-1.92-2.18-3.75-4.49-5.77-6.57-1.07-1.1-2.64-1.53-4.08-.89-.82.36-1.39,1.04-2.01,1.67-1.21,1.24-3.3,4.46-5.14,2.54-2.17-2.28.58-3.78,2.17-5.09,1.51-1.25,3.02-2.49,4.52-3.74.98-.81-.42-2.2-1.39-1.39h0Z"/>
  <path class="st0" d="M32.05,26.16c2.24,2.24,4.48,4.48,6.72,6.72s4.77,4.55,6.98,6.98c1.14,1.25.81,3.3-.85,3.92-1.49.56-2.48-.52-3.43-1.47-.9-.9-2.29.5-1.39,1.39.99.99,1.91,1.93,3.37,2.14,1.79.26,3.62-.64,4.47-2.25.91-1.71.54-3.74-.76-5.13-.22-.24-.46-.46-.69-.69l-9.87-9.87c-1.05-1.05-2.09-2.09-3.14-3.14-.9-.9-2.29.5-1.39,1.39h0Z"/>
  <path class="st0" d="M26.65,30.39c4.5,4.5,9.04,8.97,13.51,13.51.66.67,1.06,1.5.81,2.47-.47,1.8-2.67,2.31-3.99,1.09-.93-.86-2.33.53-1.39,1.39,2.76,2.56,7.57.77,7.43-3.2-.07-1.82-1.23-2.91-2.41-4.09l-9.65-9.65c-.97-.97-1.94-1.94-2.92-2.92-.9-.9-2.29.5-1.39,1.39h0Z"/>
  <path class="st0" d="M20.85,33.63c2.5,2.5,5,5,7.5,7.5l4.74,4.74c1.02,1.02,2.5,2.09,2.08,3.73-.47,1.85-2.71,2.28-4.03,1.05-.76-.71-1.48-1.48-2.21-2.21-.9-.9-2.29.5-1.39,1.39.74.74,1.46,1.5,2.21,2.21,1.33,1.26,3.24,1.69,4.94.91s2.75-2.69,2.47-4.58c-.15-1.07-.7-1.92-1.44-2.67-3.28-3.31-6.59-6.59-9.89-9.89-1.2-1.2-2.39-2.39-3.59-3.59-.9-.9-2.29.5-1.39,1.39h0Z"/>
</svg>