<?xml version="1.0" encoding="UTF-8"?>
<svg id="Layer_2" xmlns="http://www.w3.org/2000/svg" version="1.1" viewBox="0 0 50.09 48.43">
  <!-- Generator: Adobe Illustrator 30.0.0, SVG Export Plug-In . SVG Version: 2.1.1 Build 123)  -->
  <defs>
    <style>
      .st0 {
        fill: none;
        stroke-linecap: round;
        stroke-linejoin: round;
        stroke-width: .8px;
      }

      .st0, .st1 {
        stroke: #555f77;
      }

      .st1 {
        fill: #555f77;
        stroke-miterlimit: 10;
      }
    </style>
  </defs>
  <polyline class="st0" points="33.14 36.47 34.43 35.3 34.63 11.96 17.18 12.06 15.89 13.22"/>
  <polygon class="st0" points="15.89 13.22 15.45 36.31 33.14 36.47 33.35 13.12 15.89 13.22"/>
  <polygon class="st0" points="29.1 17.72 20.35 17.55 20.34 23.54 29.19 23.63 29.1 17.72"/>
  <path class="st1" d="M24.74,19.88s.67-1.32,1.58-.47c1.06,1-1.51,2.77-1.51,2.77,0,0-2.54-1.12-1.77-2.39.68-1.13,1.7.09,1.7.09Z"/>
  <line class="st0" x1="20.68" y1="27.22" x2="29.32" y2="27.58"/>
  <line class="st0" x1="20.49" y1="30.98" x2="29.13" y2="31.34"/>
  <line class="st0" x1="20.59" y1="28.92" x2="29.24" y2="29.28"/>
</svg>