<?xml version="1.0" encoding="UTF-8"?>
<svg id="Layer_2" xmlns="http://www.w3.org/2000/svg" version="1.1" viewBox="0 0 98.71 86.58">
  <!-- Generator: Adobe Illustrator 30.0.0, SVG Export Plug-In . SVG Version: 2.1.1 Build 123)  -->
  <defs>
    <style>
      .st0 {
        fill: none;
        stroke: #555f77;
        stroke-miterlimit: 10;
        stroke-width: 3px;
      }
    </style>
  </defs>
  <path class="st0" d="M56.71,34.91c-1.57,1.23-8.02,6.26-11.15,8.41-.75.52-1.65.79-2.58.79-1.88,0-3.61-1.07-4.39-2.72-.53-1.13-1.05-3.48,1.47-6.56,4.61-5.63,9.67-11.52,16.42-16.06,2.33-1.56,5.52-2.43,9-2.43,7.77,0,14.89,3.93,19.05,10.52,8.81,13.95-.07,27.96-3.88,31.76l-.35.35-23.59-24.07Z"/>
  <path class="st0" d="M79.59,59.67l-22.97-23.44c-2.39,1.87-7.71,5.99-10.51,7.9-.92.63-2.01.96-3.14.96-2.27,0-4.34-1.29-5.29-3.29-.63-1.34-1.27-4.11,1.6-7.61,2.68-3.28,5.53-6.64,8.77-9.78-2.02-1.87-4.17-3.63-6.55-5.23-6.57-4.42-20.44-3.01-27.36,7.94-8.95,14.17,1.35,27.25,5.19,31.15,7.77,7.89,21.98,15.96,27.97,18.53,5.29,2.27,7.55-.7,8.46-2.97-5-3.16-16.03-11.73-16.56-12.14-.22-.17-.26-.48-.09-.69.17-.22.48-.26.7-.09.13.1,12.3,9.56,16.96,12.38,1.69.31,5.79.62,7.49-3.09-5.11-3.43-16.9-13.5-17.46-13.97-.21-.18-.23-.49-.05-.7.18-.21.49-.23.7-.05.14.12,12.58,10.74,17.52,14.01,1.35.01,5.72-.32,6.7-5.03-4.88-3.24-16.36-13.3-16.9-13.77-.21-.18-.23-.49-.05-.7.18-.21.49-.23.7-.05.13.12,12.24,10.73,16.93,13.79,1.49.15,5.66.17,7.43-3.92-.07-.04-.14-.08-.2-.14Z"/>
</svg>