<?xml version="1.0" encoding="UTF-8"?>
<svg id="Layer_2" xmlns="http://www.w3.org/2000/svg" version="1.1" viewBox="0 0 78.84 75.94">
  <!-- Generator: Adobe Illustrator 30.0.0, SVG Export Plug-In . SVG Version: 2.1.1 Build 123)  -->
  <defs>
    <style>
      .st0 {
        stroke-width: 1.78px;
      }

      .st0, .st1 {
        fill: none;
        stroke: #555f77;
        stroke-linecap: round;
        stroke-linejoin: round;
      }

      .st1 {
        stroke-width: 1.58px;
      }
    </style>
  </defs>
  <g>
    <path class="st1" d="M61.26,39.78c-1.41-.41-2.4-.28-3.08-2.07-.32-.83-.04-1.11-.84-1.8-.65-.56-.86-.47-1.7-.69-.51-.13-.82-.12-1.06-.31-1.25,3.53-.99,7.54-.81,9.13-2.23-.33-8.45-.89-11.96,2.46-3.52,3.36-3.23,9.63-3,11.86-1.95-.28-6.99-.67-9.85,2.07-.16.15-.31.31-.45.48.49.57,1.22.88,1.92,1.16.75.29,1.54.59,2.07,1.2.49.55.7,1.29,1.06,1.93.48.84,1.22,1.5,1.95,2.14.61.53,1.21,1.07,1.82,1.6,2.73-2.77,2.57-7.68,2.39-9.62,2.21.33,8.46.91,11.98-2.46,3.58-3.42,3.22-9.84,2.99-11.96,1.77.27,6.06.7,9.72-.65-.05-.12-.09-.24-.14-.36-.67-1.74-1.09-3.54-3.01-4.09Z"/>
    <path class="st1" d="M61.26,39.78c-1.41-.41-2.4-.28-3.08-2.07-.32-.83-.04-1.11-.84-1.8-.65-.56-.86-.47-1.7-.69-.51-.13-.82-.12-1.06-.31-1.25,3.53-.99,7.54-.81,9.13-2.23-.33-8.45-.89-11.96,2.46-3.52,3.36-3.23,9.63-3,11.86-1.95-.28-6.99-.67-9.85,2.07-.16.15-.31.31-.45.48.49.57,1.22.88,1.92,1.16.75.29,1.54.59,2.07,1.2.49.55.7,1.29,1.06,1.93.48.84,1.22,1.5,1.95,2.14.61.53,1.21,1.07,1.82,1.6,2.73-2.77,2.57-7.68,2.39-9.62,2.21.33,8.46.91,11.98-2.46,3.58-3.42,3.22-9.84,2.99-11.96,1.77.27,6.06.7,9.72-.65-.05-.12-.09-.24-.14-.36-.67-1.74-1.09-3.54-3.01-4.09Z"/>
  </g>
  <g>
    <path class="st0" d="M32.13,26.41l-3.09-1.94-14.47,23.08-.12.19c-.13.21.45.82,1.3,1.36s1.65.79,1.79.58l.12-.19,14.47-23.08Z"/>
    <circle class="st0" cx="35.83" cy="17.47" r="10.45" transform="translate(-2.57 6.79) rotate(-10.45)"/>
    <path class="st0" d="M28.21,9.35c-.68.64-1.29,1.37-1.81,2.2-.83,1.33-1.35,2.77-1.57,4.23,5.43,4.27,11.11,7.83,17.33,10.85,1.21-.84,2.28-1.93,3.11-3.25.52-.82.91-1.69,1.19-2.58-5.7-4.54-11.68-8.29-18.25-11.45Z"/>
  </g>
</svg>