<?xml version="1.0" encoding="UTF-8"?>
<svg id="Layer_2" xmlns="http://www.w3.org/2000/svg" version="1.1" viewBox="0 0 380.92 163.14">
  <!-- Generator: Adobe Illustrator 30.0.0, SVG Export Plug-In . SVG Version: 2.1.1 Build 123)  -->
  <defs>
    <style>
      .st0 {
        stroke-width: 1.35px;
      }

      .st0, .st1, .st2, .st3, .st4, .st5 {
        stroke: #000;
        stroke-miterlimit: 10;
      }

      .st1 {
        stroke-width: 2.18px;
      }

      .st1, .st2, .st3, .st4, .st5 {
        fill: none;
      }

      .st2 {
        stroke-width: 2.09px;
      }

      .st3 {
        stroke-width: 2.81px;
      }

      .st4 {
        stroke-width: 3.96px;
      }

      .st5 {
        stroke-width: 2.9px;
      }
    </style>
  </defs>
  <path class="st4" d="M263.99,103.77c-3.27,0-6.12,1.5-8.24,4.34-2.12-2.84-4.96-4.34-8.24-4.34-6.16,0-10.62,5.11-10.62,11.32,0,7.94,7.48,12.9,17.3,21.41.45.39,1,.58,1.56.58s1.11-.19,1.56-.58c9.82-8.51,17.3-13.48,17.3-21.41,0-6.21-4.46-11.32-10.62-11.32Z"/>
  <ellipse class="st3" cx="142.79" cy="44.46" rx="20.15" ry="5.15"/>
  <path class="st5" d="M161.75,45.51h1.12v15.03c0,1.2-.14,2.36-.43,3.49-.25,1.16-.69,2.25-1.23,3.27-2.43,4.61-7.25,7.77-12.83,7.77h-11.24c-8.01,0-14.5-6.5-14.5-14.52v-15.03h1.09"/>
  <path class="st1" d="M168.78,64.96c-2.47,1.56-5.12,2.32-7.51,2.32.54-1.02.98-2.11,1.23-3.27.29-1.13.44-2.29.44-3.49v-10.46c4.61-1.82,9.29-1.09,11.25,2.03,2.36,3.74-.07,9.48-5.41,12.85Z"/>
  <path class="st2" d="M165.17,61.44c-.87.47-1.77.87-2.64,1.12.29-.97.43-1.97.43-3v-5.15c3.04-1.12,5.82-1.06,6.8.28,1.23,1.69-.83,4.71-4.59,6.74Z"/>
  <path class="st0" d="M145.04,24.25c-.9,0-1.68.41-2.26,1.19-.58-.78-1.36-1.19-2.26-1.19-1.69,0-2.91,1.4-2.91,3.1,0,2.18,2.05,3.54,4.74,5.87.12.11.27.16.43.16s.3-.05.43-.16c2.69-2.33,4.74-3.69,4.74-5.87,0-1.7-1.22-3.1-2.91-3.1Z"/>
  <path d="M125.39,69.04s7.46-6.19,14.57-5.11,5.82-2.78,12.71-3.65c6.9-.87,10.19-3.67,10.19-3.67l-.43,7.41-4.68,7.57-9.38,3.47h-15.74l-7.25-6.01Z"/>
  <g>
    <path d="M71.92,75.59c-3.69,0-6.93-.81-9.71-2.43-2.78-1.62-4.94-3.84-6.49-6.67-1.55-2.83-2.32-6.09-2.32-9.78,0-2.85.47-5.44,1.42-7.78.95-2.34,2.26-4.34,3.93-6.01,1.67-1.67,3.61-2.95,5.83-3.85s4.61-1.35,7.18-1.35c2.99,0,5.51.37,7.57,1.11,2.06.74,3.91,1.64,5.57,2.69.24.14.48.37.71.69.23.32.34.72.34,1.21,0,.56-.19,1.06-.58,1.5-.39.44-.93.66-1.64.66-.39,0-.76-.09-1.11-.26-1.55-.91-3.15-1.64-4.8-2.16-1.65-.53-3.5-.79-5.54-.79-2.64,0-5.02.55-7.15,1.66s-3.82,2.73-5.06,4.85c-1.25,2.13-1.87,4.74-1.87,7.83,0,2.71.56,5.14,1.69,7.31,1.13,2.16,2.76,3.88,4.91,5.14,2.14,1.27,4.73,1.9,7.75,1.9,1.86,0,3.57-.22,5.12-.66,1.55-.44,2.92-.99,4.11-1.66v-9.55h-8.7c-.6,0-1.11-.21-1.53-.63-.42-.42-.63-.93-.63-1.53s.21-1.11.63-1.53c.42-.42.93-.63,1.53-.63h10.39c.7,0,1.3.25,1.79.74s.74,1.09.74,1.79v11.97c0,.74-.19,1.4-.55,1.98-.37.58-.85,1.01-1.45,1.29-1.72.88-3.6,1.59-5.62,2.14-2.02.54-4.18.82-6.46.82Z"/>
    <path d="M98.88,75.06c-.91,0-1.7-.33-2.35-.98-.65-.65-.98-1.43-.98-2.35v-31.34c0-.67.23-1.24.69-1.71.46-.47,1.02-.71,1.69-.71s1.24.24,1.71.71c.47.47.71,1.05.71,1.71v29.86h17.25c.67,0,1.24.24,1.71.71s.71,1.05.71,1.71-.24,1.23-.71,1.69c-.47.46-1.05.69-1.71.69h-18.73Z"/>
    <path d="M192.41,75.59c-2.64,0-5-.26-7.09-.76-2.09-.51-3.91-1.1-5.46-1.77-.39-.18-.73-.47-1.03-.87-.3-.4-.45-.84-.45-1.29,0-.6.19-1.12.58-1.56.39-.44.91-.66,1.58-.66.35,0,.69.07,1,.21,1.2.53,2.66,1.02,4.4,1.48,1.74.46,3.74.69,5.99.69,1.76,0,3.33-.19,4.72-.55,1.39-.37,2.49-1,3.3-1.9s1.21-2.1,1.21-3.61c0-1.13-.4-2.03-1.21-2.72s-1.88-1.26-3.22-1.71-2.8-.88-4.4-1.27c-1.6-.39-3.19-.82-4.77-1.29-1.58-.47-3.04-1.1-4.38-1.87-1.34-.77-2.41-1.77-3.22-2.98-.81-1.21-1.21-2.75-1.21-4.62,0-1.97.52-3.77,1.56-5.41s2.58-2.94,4.62-3.93,4.54-1.48,7.49-1.48c2.08,0,3.99.16,5.75.47,1.76.32,3.34.74,4.75,1.27.39.14.73.37,1.03.69.3.32.45.79.45,1.42,0,.53-.19,1.03-.55,1.5-.37.47-.89.71-1.56.71-.14,0-.28-.03-.42-.08-.14-.05-.28-.09-.42-.13-1.2-.42-2.51-.77-3.93-1.03-1.42-.26-2.95-.4-4.56-.4-2.67,0-4.91.51-6.7,1.53-1.8,1.02-2.69,2.51-2.69,4.48,0,1.3.4,2.34,1.21,3.11.81.77,1.88,1.39,3.22,1.85,1.34.46,2.8.87,4.38,1.24,1.58.37,3.17.78,4.75,1.24s3.04,1.06,4.38,1.82c1.34.76,2.41,1.76,3.22,3.01.81,1.25,1.21,2.88,1.21,4.88s-.55,3.74-1.66,5.3-2.67,2.79-4.69,3.67c-2.02.88-4.41,1.32-7.15,1.32Z"/>
    <path d="M224.91,75.59c-2.64,0-5-.26-7.1-.76-2.09-.51-3.91-1.1-5.46-1.77-.39-.18-.73-.47-1.03-.87-.3-.4-.45-.84-.45-1.29,0-.6.19-1.12.58-1.56.39-.44.91-.66,1.58-.66.35,0,.69.07,1,.21,1.19.53,2.66,1.02,4.4,1.48,1.74.46,3.73.69,5.99.69,1.76,0,3.33-.19,4.72-.55,1.39-.37,2.49-1,3.3-1.9.81-.9,1.21-2.1,1.21-3.61,0-1.13-.4-2.03-1.21-2.72-.81-.69-1.88-1.26-3.22-1.71s-2.8-.88-4.4-1.27c-1.6-.39-3.19-.82-4.77-1.29-1.58-.47-3.04-1.1-4.38-1.87-1.34-.77-2.41-1.77-3.22-2.98s-1.21-2.75-1.21-4.62c0-1.97.52-3.77,1.56-5.41,1.04-1.64,2.58-2.94,4.61-3.93,2.04-.99,4.54-1.48,7.49-1.48,2.07,0,3.99.16,5.75.47,1.76.32,3.34.74,4.75,1.27.39.14.73.37,1.03.69.3.32.45.79.45,1.42,0,.53-.18,1.03-.55,1.5s-.89.71-1.56.71c-.14,0-.28-.03-.43-.08-.14-.05-.28-.09-.42-.13-1.19-.42-2.5-.77-3.93-1.03-1.43-.26-2.95-.4-4.56-.4-2.68,0-4.91.51-6.7,1.53-1.79,1.02-2.69,2.51-2.69,4.48,0,1.3.41,2.34,1.21,3.11.81.77,1.88,1.39,3.22,1.85s2.8.87,4.38,1.24c1.58.37,3.17.78,4.75,1.24,1.58.46,3.04,1.06,4.38,1.82,1.34.76,2.41,1.76,3.22,3.01.81,1.25,1.21,2.88,1.21,4.88s-.55,3.74-1.66,5.3-2.67,2.79-4.69,3.67c-2.02.88-4.4,1.32-7.15,1.32Z"/>
    <path d="M275.81,75.59c-3.76,0-7.02-.81-9.76-2.43-2.74-1.62-4.87-3.85-6.38-6.7-1.51-2.85-2.3-6.12-2.37-9.81.07-3.69.86-6.96,2.37-9.81,1.51-2.85,3.64-5.08,6.38-6.7s6-2.43,9.76-2.43,7.02.81,9.76,2.43,4.87,3.85,6.38,6.7c1.51,2.85,2.31,6.12,2.38,9.81-.07,3.69-.86,6.96-2.38,9.81-1.51,2.85-3.64,5.08-6.38,6.7-2.74,1.62-6,2.43-9.76,2.43ZM275.81,71.1c2.92,0,5.4-.64,7.44-1.93,2.04-1.28,3.6-3.02,4.67-5.2,1.07-2.18,1.61-4.63,1.61-7.33s-.54-5.15-1.61-7.33c-1.07-2.18-2.63-3.91-4.67-5.2-2.04-1.28-4.52-1.93-7.44-1.93s-5.4.64-7.44,1.93c-2.04,1.28-3.6,3.02-4.67,5.2-1.08,2.18-1.61,4.63-1.61,7.33s.53,5.15,1.61,7.33c1.07,2.18,2.63,3.91,4.67,5.2,2.04,1.28,4.52,1.93,7.44,1.93Z"/>
    <path d="M304.72,75.32c-.67,0-1.23-.23-1.69-.69s-.69-1.02-.69-1.69v-32.28c0-.67.23-1.24.69-1.71s1.02-.71,1.69-.71h20.52c.63,0,1.17.22,1.61.66.44.44.66.98.66,1.61s-.22,1.16-.66,1.58c-.44.42-.98.63-1.61.63h-18.1v11.66h16.25c.63,0,1.17.22,1.61.66s.66.98.66,1.61-.22,1.16-.66,1.58-.98.63-1.61.63h-16.25v14.08c0,.67-.24,1.23-.71,1.69s-1.05.69-1.71.69Z"/>
    <path d="M69.08,138.36c-.67,0-1.23-.23-1.69-.69s-.69-1.02-.69-1.69v-32.02c0-.67.23-1.24.69-1.71s1.02-.71,1.69-.71h21.15c.63,0,1.17.22,1.61.66s.66.98.66,1.61-.22,1.16-.66,1.58-.98.63-1.61.63h-18.73v11.66h16.83c.63,0,1.17.22,1.61.66.44.44.66.98.66,1.61s-.22,1.16-.66,1.58c-.44.42-.98.63-1.61.63h-16.83v11.71h18.73c.63,0,1.17.22,1.61.66.44.44.66.98.66,1.61s-.22,1.16-.66,1.58-.98.63-1.61.63h-21.15Z"/>
    <path d="M102.73,138.63c-.67,0-1.23-.23-1.69-.69s-.69-1.02-.69-1.69v-31.49c0-.95.33-1.77,1-2.45s1.48-1.03,2.43-1.03h1.74c.7,0,1.35.21,1.95.63.6.42,1.02.95,1.27,1.58l11.97,29.86,11.97-29.86c.28-.63.71-1.16,1.29-1.58.58-.42,1.22-.63,1.93-.63h1.74c.95,0,1.76.34,2.43,1.03s1,1.5,1,2.45v31.49c0,.67-.23,1.23-.69,1.69s-1.02.69-1.69.69-1.24-.23-1.71-.69-.71-1.02-.71-1.69v-29.96l-12.19,30.12c-.28.67-.72,1.2-1.32,1.61-.6.4-1.28.61-2.06.61s-1.46-.2-2.06-.61c-.6-.4-1.04-.94-1.32-1.61l-12.19-30.12v29.96c0,.67-.24,1.23-.71,1.69s-1.05.69-1.71.69Z"/>
    <path d="M167.62,138.89c-3.76,0-7.02-.81-9.76-2.43-2.74-1.62-4.87-3.85-6.38-6.7-1.51-2.85-2.3-6.12-2.37-9.81.07-3.69.86-6.96,2.37-9.81,1.51-2.85,3.64-5.08,6.38-6.7s6-2.43,9.76-2.43,7.02.81,9.76,2.43,4.87,3.85,6.38,6.7c1.51,2.85,2.3,6.12,2.37,9.81-.07,3.69-.86,6.96-2.37,9.81-1.51,2.85-3.64,5.08-6.38,6.7-2.74,1.62-6,2.43-9.76,2.43ZM167.62,134.4c2.92,0,5.4-.64,7.44-1.93,2.04-1.28,3.59-3.02,4.67-5.2,1.07-2.18,1.61-4.63,1.61-7.33s-.54-5.15-1.61-7.33c-1.07-2.18-2.63-3.91-4.67-5.2-2.04-1.28-4.52-1.93-7.44-1.93s-5.4.64-7.44,1.93c-2.04,1.28-3.6,3.02-4.67,5.2-1.07,2.18-1.61,4.63-1.61,7.33s.54,5.15,1.61,7.33c1.07,2.18,2.63,3.91,4.67,5.2,2.04,1.28,4.52,1.93,7.44,1.93Z"/>
    <path d="M203.59,138.63c-.67,0-1.23-.23-1.69-.69s-.69-1.02-.69-1.69v-30.23h-10.76c-.63,0-1.16-.21-1.58-.63s-.63-.95-.63-1.58.21-1.17.63-1.61.95-.66,1.58-.66h26.27c.64,0,1.17.22,1.61.66.44.44.66.98.66,1.61s-.22,1.16-.66,1.58c-.44.42-.97.63-1.61.63h-10.71v30.23c0,.67-.24,1.23-.71,1.69-.47.46-1.05.69-1.71.69Z"/>
    <path d="M227.18,138.63c-.67,0-1.23-.23-1.69-.69s-.69-1.02-.69-1.69v-32.55c0-.67.23-1.24.69-1.71.46-.47,1.02-.71,1.69-.71s1.24.24,1.71.71c.47.47.71,1.05.71,1.71v32.55c0,.67-.24,1.23-.71,1.69s-1.05.69-1.71.69Z"/>
    <path d="M283.36,138.63c-.67,0-1.23-.23-1.69-.69s-.69-1.02-.69-1.69v-31.49c0-.95.33-1.77,1-2.45.67-.69,1.47-1.03,2.42-1.03h.69c.6,0,1.14.14,1.64.42.49.28.91.67,1.27,1.16l20.31,29.33v-28.49c0-.67.23-1.24.69-1.71.46-.47,1.02-.71,1.69-.71s1.24.24,1.72.71c.47.47.71,1.05.71,1.71v31.49c0,.95-.34,1.76-1.03,2.43-.69.67-1.5,1-2.45,1h-.63c-.56,0-1.09-.13-1.58-.4-.49-.26-.9-.61-1.21-1.03l-20.42-29.49v28.54c0,.67-.24,1.23-.71,1.69s-1.05.69-1.71.69Z"/>
  </g>
</svg>