<?xml version="1.0" encoding="UTF-8"?>
<svg id="Layer_25" xmlns="http://www.w3.org/2000/svg" version="1.1" viewBox="0 0 420.2 415.69">
  <!-- Generator: Adobe Illustrator 30.0.0, SVG Export Plug-In . SVG Version: 2.1.1 Build 123)  -->
  <defs>
    <style>
      .st0 {
        fill: #d3d3d3;
      }

      .st0, .st1, .st2, .st3, .st4, .st5, .st6, .st7, .st8, .st9, .st10, .st11, .st12 {
        stroke-miterlimit: 10;
      }

      .st0, .st1, .st2, .st3, .st5, .st6, .st7, .st8, .st9, .st10, .st11, .st12 {
        stroke: #000;
      }

      .st0, .st1, .st5 {
        stroke-width: .75px;
      }

      .st1 {
        fill: #f597a8;
      }

      .st2 {
        fill: #fff;
        font-size: 20.71px;
      }

      .st2, .st3, .st6, .st7, .st8, .st9, .st10, .st11, .st12 {
        stroke-width: .25px;
      }

      .st2, .st13, .st14, .st15, .st16, .st17 {
        font-family: VarelaRound-Regular, 'Varela Round';
      }

      .st3 {
        fill: #ffec64;
      }

      .st4 {
        stroke: #7a7a77;
      }

      .st5 {
        fill: #f9f9ed;
      }

      .st13 {
        font-size: 15.77px;
      }

      .st6 {
        fill: #eaeae8;
      }

      .st7 {
        fill: #ffe340;
      }

      .st8 {
        fill: #fffa97;
      }

      .st9 {
        fill: #fef58c;
      }

      .st10 {
        fill: none;
      }

      .st14 {
        font-size: 2.35px;
      }

      .st15 {
        font-size: 5.42px;
      }

      .st16 {
        font-size: 6.41px;
      }

      .st17 {
        font-size: 4.44px;
      }

      .st11 {
        fill: #fffdb0;
      }

      .st12 {
        fill: #fff276;
      }
    </style>
  </defs>
  <rect class="st1" x="140.03" y="87.88" width="185.43" height="235.28" rx="46.96" ry="46.96" transform="translate(77.72 -63.51) rotate(18.6)"/>
  <text class="st2" transform="translate(150.59 186.87) rotate(18.6)"><tspan x="0" y="0">Glass of Emotion</tspan></text>
  <path class="st9" d="M281.07,179.55h0c1.14-3.37-.68-7.03-4.05-8.17h0c3.37,1.14,7.03-.68,8.17-4.05h0c-1.14,3.37.68,7.03,4.05,8.17h0c-3.37-1.14-7.03.68-8.17,4.05Z"/>
  <path class="st9" d="M278.62,270.64h0c1.14-3.37-.68-7.03-4.05-8.17h0c3.37,1.14,7.03-.68,8.17-4.05h0c-1.14,3.37.68,7.03,4.05,8.17h0c-3.37-1.14-7.03.68-8.17,4.05Z"/>
  <path class="st9" d="M318.11,153.3h0c1.14-3.37-.68-7.03-4.05-8.17h0c3.37,1.14,7.03-.68,8.17-4.05h0c-1.14,3.37.68,7.03,4.05,8.17h0c-3.37-1.14-7.03.68-8.17,4.05Z"/>
  <rect class="st0" x="91.7" y="101.01" width="185.43" height="237.36" rx="44.9" ry="44.9"/>
  <rect class="st5" x="87.04" y="103.44" width="185.43" height="235.28" rx="47.51" ry="47.51"/>
  <text class="st13" transform="translate(154.8 131.2)"><tspan x="0" y="0">MENU</tspan></text>
  <text class="st15" transform="translate(157.82 140.21)"><tspan x="0" y="0">Glass of Emotion</tspan></text>
  <text class="st16" transform="translate(104.72 165.47)"><tspan x="0" y="0">Beverages</tspan></text>
  <text class="st16" transform="translate(224.42 261.78)"><tspan x="0" y="0">Toppings</tspan></text>
  <text class="st17" transform="translate(105.3 179.21)"><tspan x="0" y="0">Hot chocolate</tspan></text>
  <text class="st17" transform="translate(105.26 188.6)"><tspan x="0" y="0">Americano</tspan></text>
  <text class="st17" transform="translate(105.38 198.31)"><tspan x="0" y="0">Lemon Juices</tspan></text>
  <text class="st17" transform="translate(105.25 208.35)"><tspan x="0" y="0">Camomile Tea</tspan></text>
  <text class="st17" transform="translate(105.79 218.34)"><tspan x="0" y="0">Cola</tspan></text>
  <text class="st17" transform="translate(105.85 227.33)"><tspan x="0" y="0">Beer</tspan></text>
  <text class="st17" transform="translate(172.25 179.25)"><tspan x="0" y="0">75</tspan></text>
  <text class="st17" transform="translate(172.25 188.6)"><tspan x="0" y="0">70</tspan></text>
  <text class="st17" transform="translate(172.25 198.31)"><tspan x="0" y="0">60</tspan></text>
  <text class="st17" transform="translate(172.32 208.35)"><tspan x="0" y="0">60</tspan></text>
  <text class="st17" transform="translate(170.74 227.37)"><tspan x="0" y="0">120</tspan></text>
  <line class="st10" x1="105.67" y1="181.19" x2="177.71" y2="181.19"/>
  <line class="st10" x1="105.53" y1="190.32" x2="177.57" y2="190.32"/>
  <line class="st10" x1="105.53" y1="199.69" x2="177.57" y2="199.69"/>
  <line class="st10" x1="105.53" y1="210.03" x2="177.57" y2="210.03"/>
  <line class="st10" x1="105.53" y1="219.69" x2="177.57" y2="219.69"/>
  <line class="st10" x1="106.29" y1="229.55" x2="178.33" y2="229.55"/>
  <rect class="st11" x="128.25" y="324.84" width="20.46" height="3.31"/>
  <rect class="st8" x="148.88" y="324.84" width="20.46" height="3.31"/>
  <rect class="st12" x="169.52" y="324.84" width="20.46" height="3.31"/>
  <rect class="st3" x="190.16" y="324.84" width="20.46" height="3.31"/>
  <rect class="st7" x="210.8" y="324.84" width="20.46" height="3.31"/>
  <text class="st14" transform="translate(136.79 327.25)"><tspan x="0" y="0">0%</tspan></text>
  <text class="st14" transform="translate(156.69 327.25)"><tspan x="0" y="0">25%</tspan></text>
  <text class="st14" transform="translate(177.32 327.29)"><tspan x="0" y="0">50%</tspan></text>
  <text class="st14" transform="translate(197.96 327.25)"><tspan x="0" y="0">75%</tspan></text>
  <text class="st14" transform="translate(217.86 327.33)"><tspan x="0" y="0">100%</tspan></text>
  <text class="st17" transform="translate(169.13 272.54)"><tspan x="0" y="0">Whipping Cream</tspan></text>
  <text class="st17" transform="translate(168.84 283.79)"><tspan x="0" y="0">Caramel</tspan></text>
  <text class="st17" transform="translate(169.21 294.24)"><tspan x="0" y="0">Honey</tspan></text>
  <text class="st17" transform="translate(169.26 305.45)"><tspan x="0" y="0">Jelly</tspan></text>
  <line class="st10" x1="169.68" y1="275.47" x2="252.43" y2="275.47"/>
  <line class="st10" x1="169.68" y1="285.95" x2="252.43" y2="285.95"/>
  <line class="st10" x1="169.68" y1="296.43" x2="252.43" y2="296.43"/>
  <line class="st10" x1="169.68" y1="306.92" x2="252.43" y2="306.92"/>
  <text class="st17" transform="translate(246.58 273.6)"><tspan x="0" y="0">40</tspan></text>
  <text class="st17" transform="translate(246.58 283.84)"><tspan x="0" y="0">30</tspan></text>
  <text class="st17" transform="translate(246.67 294.24)"><tspan x="0" y="0">30</tspan></text>
  <text class="st17" transform="translate(246.93 305.45)"><tspan x="0" y="0">30</tspan></text>
  <text class="st15" transform="translate(105.29 315.36)"><tspan x="0" y="0">Sweetness</tspan></text>
  <line class="st4" x1="105.76" y1="147.19" x2="253.75" y2="147.19"/>
  <text class="st17" transform="translate(172.06 218.42)"><tspan x="0" y="0">50</tspan></text>
  <path class="st6" d="M117.19,290.98c.75.39,1.54.73,2.34,1.02-.15.23-.23.5-.23.78v2.16c0,.8.65,1.46,1.46,1.46h20.62c.8,0,1.46-.65,1.46-1.46v-2.16c0-.29-.08-.56-.23-.78,1.2-.43,2.35-.97,3.42-1.62,2.91-1.75,5.31-4.25,6.94-7.24.9-1.65,1.56-3.44,1.94-5.34.24-1.19.36-2.42.36-3.68v-14.25c0-.1,0-.2-.02-.3.01-.11.02-.23.02-.34,0-.99-.51-1.94-1.43-2.82-1.45-1.39-3.95-2.6-7.16-3.54-4.21-1.23-9.66-1.97-15.61-1.97-4.91,0-9.48.5-13.29,1.37-2.04.46-3.86,1.03-5.41,1.67-3.43,1.44-5.5,3.28-5.5,5.28,0,.11,0,.23.02.34-.01.1-.02.2-.02.3v4.75c-2.17-.84-4.4-1.26-6.5-1.18-3.39.12-6.06,1.49-7.53,3.84-1.47,2.35-1.52,5.35-.15,8.45,1.3,2.94,3.76,5.64,6.91,7.61,2.99,1.87,6.3,2.88,9.37,2.88.17,0,.33,0,.5,0,.57-.02,1.11-.08,1.64-.17.17.22.36.42.55.63,1.56,1.76,3.43,3.23,5.53,4.31ZM100.9,281.26c-5.52-3.45-8.2-9.14-5.99-12.69,1.13-1.81,3.32-2.72,5.92-2.72,1.87,0,3.97.47,6.03,1.42v6.85c0,3.52.97,6.83,2.66,9.66-2.62.13-5.73-.71-8.63-2.52Z"/>
  <path class="st6" d="M205.98,210.48l1.28,8.97v.06s.04.01.05.02l.88,6.19c.39,2.74,2.74,4.78,5.51,4.78h27.68c2.77,0,5.12-2.04,5.51-4.78l.48-3.37.4-2.81s.03-.01.04-.02v-.06s.26-1.78.26-1.78l1.03-7.19.78-5.49,1.59-11.16s-.03.04-.05.06l1.67-11.72c.35-.3.65-.61.91-.92.52-.63.85-1.29.98-1.97v-5.64c-.11-.59-.37-1.17-.78-1.73-.25-.34-.56-.67-.92-1v-2.88c-.1-.55-.35-1.1-.74-1.62-.38-.51-.89-1.01-1.51-1.48-1.49-1.13-3.65-2.13-6.31-2.95-4.56-1.4-10.58-2.26-17.19-2.26-12.05,0-22.17,2.84-25.01,6.69-.44.59-.7,1.21-.77,1.84v2.69c-.34.31-.64.64-.88.97-.47.63-.75,1.29-.82,1.96v5.18c.08.76.43,1.5,1.01,2.2.25.3.54.6.87.89l1.68,11.75s-.03-.04-.05-.06l.19,1.36,1.07,7.49,1.11,7.8Z"/>
</svg>