<?xml version="1.0" encoding="UTF-8"?>
<svg id="Layer_1" xmlns="http://www.w3.org/2000/svg" xmlns:xlink="http://www.w3.org/1999/xlink" version="1.1" viewBox="0 0 288.35 364.46">
  <!-- Generator: Adobe Illustrator 30.0.0, SVG Export Plug-In . SVG Version: 2.1.1 Build 123)  -->
  <defs>
    <style>
      .st0 {
        fill: #fdefc4;
        stroke-width: .75px;
      }

      .st0, .st1, .st2, .st3 {
        stroke: #000;
        stroke-miterlimit: 10;
      }

      .st4 {
        fill: url(#linear-gradient);
      }

      .st1, .st2 {
        stroke-width: .5px;
      }

      .st2 {
        fill: none;
      }

      .st3 {
        fill: #fffbde;
      }
    </style>
    <linearGradient id="linear-gradient" x1="143.71" y1="348.37" x2="143.71" y2="38.49" gradientUnits="userSpaceOnUse">
      <stop offset=".02" stop-color="#fff" stop-opacity="0"/>
      <stop offset=".23" stop-color="#fff" stop-opacity=".2"/>
      <stop offset="1" stop-color="#fff"/>
    </linearGradient>
  </defs>
  <g>
    <path class="st3" d="M275.34,350.93H13.01c7.91-47.57,13.9-104.6,13.7-169.08-.2-61.76-6.03-116.57-13.7-162.65h262.33c-6.8,46.42-11.74,100.07-12.06,159.64-.35,64.69,4.82,122.61,12.06,172.09Z"/>
    <path class="st4" d="M250.31,348.37H37.11c4.5-50.02,7.23-104.73,6.94-163.5-.26-52.23-2.87-101.17-6.94-146.38h213.19c-3.3,45.39-5.35,93.67-5.6,144.55-.28,58.61,1.86,113.86,5.6,165.33Z"/>
    <g>
      <path d="M66.95,122.31c-.36,0-.64-.1-.83-.3s-.28-.46-.28-.79v-6.01h1.04v6.18h1.09v.92h-1.03ZM70.33,122.31c-.36,0-.64-.1-.83-.3-.19-.2-.28-.46-.28-.79v-6.01h1.04v6.18h1.09v.92h-1.03Z"/>
      <path d="M75.83,122.47c-.92,0-1.64-.25-2.17-.75-.53-.5-.79-1.18-.79-2.05v-4.46h1.04v4.35c0,.65.17,1.15.51,1.49.34.34.81.51,1.41.51s1.07-.17,1.41-.51c.34-.34.51-.84.51-1.49v-4.35h1.04v4.46c0,.87-.26,1.55-.79,2.05-.53.5-1.25.75-2.17.75Z"/>
      <path d="M83.84,122.47c-.92,0-1.64-.25-2.17-.75-.53-.5-.79-1.18-.79-2.05v-4.46h1.04v4.35c0,.65.17,1.15.51,1.49.34.34.81.51,1.41.51s1.07-.17,1.41-.51c.34-.34.51-.84.51-1.49v-4.35h1.04v4.46c0,.87-.26,1.55-.79,2.05-.53.5-1.25.75-2.17.75Z"/>
      <path d="M91.02,122.44c-.72,0-1.29-.18-1.72-.53s-.64-.87-.64-1.55.21-1.17.63-1.52c.42-.35.99-.53,1.72-.53h2.26v-.68c0-1.12-.61-1.68-1.83-1.68-.52,0-.96.11-1.31.32-.35.21-.63.5-.85.88l-.66-.58c.23-.42.57-.78,1.04-1.07s1.08-.44,1.83-.44,1.35.16,1.81.47c.04-.45.28-.68.73-.68h1.73v.96h-2.09c.43.43.65,1.02.65,1.77v4.73h-1.04v-3.26h-2.03c-.47,0-.83.1-1.09.3s-.39.48-.39.84v.3c0,.39.12.69.36.89.24.2.56.31.97.31.12,0,.22,0,.31-.01.08,0,.15-.02.2-.03l.09.71c-.05.03-.15.05-.29.06-.14.01-.27.02-.38.02Z"/>
      <path d="M93.81,114.29c-.44,0-.79-.13-1.05-.38-.26-.25-.39-.59-.39-1.02s.13-.77.39-1.02.61-.38,1.05-.38.79.13,1.05.38.39.59.39,1.02-.13.77-.39,1.02c-.26.25-.61.38-1.05.38ZM93.81,113.59c.2,0,.36-.05.47-.15s.17-.24.17-.41v-.26c0-.17-.06-.31-.17-.41s-.27-.15-.47-.15-.36.05-.47.15c-.11.1-.17.24-.17.41v.26c0,.17.06.31.17.41.11.1.27.15.47.15Z"/>
      <path d="M100.01,117.44c0-1-.52-1.5-1.55-1.5-.42,0-.76.09-1.02.27-.26.18-.49.42-.67.73l-.64-.56c.2-.38.49-.7.88-.95s.89-.38,1.51-.38c.81,0,1.44.2,1.87.6.43.4.65.96.65,1.69v4.97h-1.04v-4.88Z"/>
      <path d="M105.62,122.47c-.65,0-1.21-.12-1.66-.35-.46-.23-.84-.56-1.16-.99l.74-.6c.27.36.58.63.93.8.35.17.76.25,1.23.25.52,0,.92-.1,1.19-.3.27-.2.41-.49.41-.88,0-.33-.11-.59-.32-.77-.21-.19-.55-.31-1.02-.38l-.61-.09c-.28-.04-.55-.1-.82-.18-.27-.08-.51-.19-.73-.34-.22-.15-.4-.34-.53-.58-.13-.24-.2-.55-.2-.91,0-.34.06-.64.19-.9.13-.26.3-.48.53-.65.23-.17.5-.31.81-.4.31-.09.65-.14,1.01-.14.62,0,1.13.1,1.54.31.41.2.76.47,1.03.8l-.66.62c-.19-.23-.45-.42-.77-.59-.32-.17-.71-.25-1.17-.25-.49,0-.86.1-1.12.3-.26.2-.39.48-.39.83,0,.38.12.65.38.81.25.16.6.27,1.04.34l.61.09c.32.05.62.12.88.21.27.09.5.21.7.36.19.16.35.35.46.58.11.23.17.51.17.84,0,.68-.24,1.21-.72,1.59-.48.39-1.14.58-1.97.58Z"/>
      <path d="M112.09,122.47c-.34,0-.66-.04-.97-.12-.31-.08-.58-.2-.81-.34l.39-.77c.37.23.83.34,1.36.34.6,0,1.06-.2,1.39-.6.33-.4.49-.96.49-1.67v-1.07c0-.7-.16-1.26-.47-1.66-.32-.41-.79-.61-1.41-.61-.47,0-.85.1-1.16.29-.3.19-.54.47-.7.81l-.84-.43c.22-.47.55-.85,1-1.14.45-.29,1.03-.44,1.73-.44.97,0,1.71.33,2.22.98s.76,1.56.76,2.72-.26,2.07-.78,2.72c-.52.65-1.25.98-2.2.98Z"/>
      <path d="M117.69,119.29h-.79v-.9h1.07c.13,0,.25.03.37.08.12.06.2.15.24.29l.94,2.67h.49c.42,0,.77-.19,1.03-.58.26-.39.39-.93.39-1.62v-1.07c0-.7-.19-1.25-.57-1.63s-.89-.58-1.54-.58c-.62,0-1.12.12-1.52.37-.4.25-.71.57-.94.96l-.68-.6c.11-.22.26-.42.45-.62s.41-.37.68-.52c.26-.15.57-.26.91-.35.34-.09.72-.13,1.14-.13,1.01,0,1.8.32,2.35.96.55.64.83,1.53.83,2.68,0,.56-.06,1.07-.19,1.51-.12.45-.3.83-.53,1.14s-.5.55-.83.71c-.33.17-.69.25-1.09.25h-1.14l-1.05-3.02Z"/>
      <path d="M126.75,122.47c-.75,0-1.34-.24-1.77-.71-.42-.48-.64-1.15-.64-2.02v-4.52h1.04v4.39c0,1.32.56,1.98,1.69,1.98.22,0,.43-.03.65-.09s.41-.15.57-.27c.16-.12.3-.27.4-.46.1-.18.16-.39.16-.64v-4.91h1.04v6.18h.83v.92h-.77c-.35,0-.6-.1-.76-.31s-.25-.47-.28-.79h-.05c-.14.4-.4.71-.77.93-.38.22-.83.33-1.34.33Z"/>
      <path d="M124.59,112.92h4.29v-.95h1.01v1.85h-5.3v-.9Z"/>
      <path d="M127.87,110.48h.98v-.47c0-.4-.23-.6-.69-.6h-.29v-.66h.64c.41,0,.7.08.89.25.19.16.28.38.28.64,0,.15-.04.3-.1.45-.07.16-.18.27-.33.34v.05h2.02v.68h-3.39v-.68Z"/>
      <path d="M133.03,119.29h-.79v-.9h1.07c.13,0,.25.03.37.08.12.06.2.15.24.29l.94,2.67h.49c.42,0,.77-.19,1.03-.58.26-.39.39-.93.39-1.62v-1.07c0-.7-.19-1.25-.57-1.63s-.89-.58-1.54-.58c-.62,0-1.12.12-1.52.37-.4.25-.71.57-.94.96l-.68-.6c.11-.22.26-.42.45-.62s.41-.37.68-.52c.26-.15.57-.26.91-.35.34-.09.72-.13,1.14-.13,1.01,0,1.8.32,2.35.96.55.64.83,1.53.83,2.68,0,.56-.06,1.07-.19,1.51-.12.45-.3.83-.53,1.14s-.5.55-.83.71c-.33.17-.69.25-1.09.25h-1.14l-1.05-3.02Z"/>
      <path d="M140.87,117.67c-.39,0-.68-.1-.86-.29-.18-.19-.27-.44-.27-.75v-.56h1.04v.7h2.25v.9h-2.16ZM140.87,121.01c-.39,0-.68-.1-.86-.29-.18-.19-.27-.44-.27-.75v-.56h1.04v.7h2.25v.9h-2.16Z"/>
      <path d="M147.74,122.47c-.81,0-1.47-.21-1.97-.62-.5-.42-.75-1.05-.75-1.89,0-.25.02-.47.06-.67.04-.19.09-.37.16-.53.06-.16.14-.31.23-.45.09-.14.18-.27.29-.4.18-.24.33-.48.45-.7.12-.23.18-.46.18-.71v-.35h-1.48v-.92h1.52c.32,0,.57.08.73.25.17.17.25.39.25.67v.12c0,.31-.06.6-.17.86-.12.26-.29.57-.51.93-.2.3-.35.58-.44.83-.09.25-.14.52-.14.81v.4c0,.51.14.89.43,1.12.29.24.67.36,1.14.36s.88-.12,1.14-.36c.27-.24.4-.58.4-1.02v-1.13c0-.44-.09-.78-.26-1.02-.17-.24-.41-.36-.72-.36h-.36v-.83h.39c.3,0,.54-.09.72-.27.18-.18.27-.47.27-.86v-.72h1.04v.68c0,.22-.04.41-.12.58-.08.17-.18.31-.3.44-.12.12-.26.22-.42.29-.16.07-.32.12-.49.15v.06c.46.13.8.41,1.03.84.22.43.34.95.34,1.55,0,.89-.23,1.59-.69,2.11s-1.11.77-1.95.77Z"/>
      <path d="M154.5,122.47c-.34,0-.66-.04-.97-.12-.31-.08-.58-.2-.81-.34l.39-.77c.37.23.83.34,1.36.34.6,0,1.06-.2,1.39-.6.33-.4.49-.96.49-1.67v-1.07c0-.7-.16-1.26-.47-1.66-.32-.41-.79-.61-1.41-.61-.47,0-.85.1-1.16.29-.3.19-.54.47-.7.81l-.84-.43c.22-.47.55-.85,1-1.14.45-.29,1.03-.44,1.73-.44.97,0,1.71.33,2.22.98s.76,1.56.76,2.72-.26,2.07-.78,2.72c-.52.65-1.25.98-2.2.98Z"/>
      <path d="M161.71,122.47c-.75,0-1.34-.24-1.77-.71-.42-.48-.64-1.15-.64-2.02v-4.52h1.04v4.39c0,1.32.56,1.98,1.69,1.98.22,0,.43-.03.65-.09s.41-.15.57-.27c.16-.12.3-.27.4-.46.1-.18.16-.39.16-.64v-4.91h1.04v6.18h.83v.92h-.77c-.35,0-.6-.1-.76-.31s-.25-.47-.28-.79h-.05c-.14.4-.4.71-.77.93-.38.22-.83.33-1.34.33Z"/>
      <path d="M167.18,117.86c0-.42.07-.81.21-1.16.14-.35.35-.64.62-.89s.59-.44.97-.57c.38-.13.81-.19,1.29-.19s.89.06,1.27.19c.38.13.71.32.97.57s.48.54.62.89.22.73.22,1.16v4.45h-1.04v-4.34c0-.65-.18-1.15-.54-1.5s-.86-.52-1.51-.52-1.15.17-1.51.52c-.36.35-.54.84-.54,1.5v1.69h.06c.06-.16.14-.32.25-.47.1-.15.23-.29.39-.4.16-.12.34-.21.55-.28.21-.07.46-.1.73-.1h.43v1.04h-.6c-.55,0-1,.11-1.33.33-.33.22-.49.52-.49.9v1.65h-1.04v-4.45Z"/>
      <path d="M172.38,124.61h-.86v-.83h1.1c.26,0,.45.07.57.21s.18.33.18.56v2.24h-.99v-2.17Z"/>
      <path d="M182.27,122.47c-.7,0-1.25-.24-1.64-.71-.39-.47-.59-1.15-.59-2.02v-1.72c0-.68-.17-1.19-.52-1.54-.35-.35-.81-.53-1.39-.53-.51,0-.96.12-1.35.36-.39.24-.64.57-.76,1l.64.26c.19.08.33.17.41.27.08.1.12.25.12.44v3.1h.83v.92h-.75c-.37,0-.65-.1-.84-.3s-.28-.46-.28-.79v-2.96l-1.11-.47c.03-.4.12-.76.29-1.1.17-.33.38-.62.66-.86.27-.24.59-.43.95-.57.36-.13.75-.2,1.18-.2.96,0,1.7.25,2.2.76.51.51.76,1.2.76,2.07v1.72c0,1.32.51,1.98,1.52,1.98.2,0,.4-.03.59-.09.2-.06.37-.15.53-.27.16-.12.28-.27.38-.46.1-.18.14-.39.14-.64v-4.91h1.04v6.18h.83v.92h-.77c-.35,0-.6-.1-.76-.32-.16-.21-.25-.48-.28-.8h-.05c-.07.17-.16.33-.26.48-.1.15-.24.29-.4.41-.16.12-.35.21-.57.28-.22.07-.47.1-.75.1Z"/>
      <path d="M187.6,117.86c0-.42.07-.81.21-1.16.14-.35.35-.64.62-.89s.59-.44.97-.57c.38-.13.81-.19,1.29-.19s.89.06,1.27.19c.38.13.71.32.97.57s.48.54.62.89.22.73.22,1.16v4.45h-1.04v-4.34c0-.65-.18-1.15-.54-1.5s-.86-.52-1.51-.52-1.15.17-1.51.52c-.36.35-.54.84-.54,1.5v1.69h.06c.06-.16.14-.32.25-.47.1-.15.23-.29.39-.4.16-.12.34-.21.55-.28.21-.07.46-.1.73-.1h.43v1.04h-.6c-.55,0-1,.11-1.33.33-.33.22-.49.52-.49.9v1.65h-1.04v-4.45Z"/>
      <path d="M192.78,111.42h1.01v2.41h-1.01v-2.41Z"/>
      <path d="M198.67,122.47c-.42,0-.81-.06-1.17-.18-.36-.12-.68-.3-.95-.53-.27-.23-.48-.5-.64-.82s-.23-.67-.23-1.06v-.66c0-.26.05-.46.16-.6.1-.14.33-.21.66-.21h1.38v.9h-1.14v.53c0,.3.05.57.15.79.1.23.24.41.41.55.17.14.38.25.63.32s.51.1.8.1c.65,0,1.16-.2,1.52-.6.36-.4.55-.96.55-1.68v-1.07c0-.73-.2-1.29-.59-1.7s-.94-.6-1.64-.6c-.54,0-1,.11-1.39.32-.39.22-.7.51-.92.87l-.68-.6c.24-.42.61-.78,1.11-1.07.5-.29,1.14-.43,1.93-.43,1.05,0,1.86.33,2.44.98.58.65.87,1.56.87,2.72,0,.56-.07,1.07-.21,1.53-.14.46-.34.85-.62,1.17-.27.32-.61.57-1.01.74s-.87.26-1.4.26Z"/>
      <path d="M206.37,122.47c-.87,0-1.54-.19-2.02-.56-.48-.37-.72-.9-.72-1.57,0-.43.12-.79.38-1.07.25-.28.57-.47.95-.58v-.06c-.42-.1-.76-.29-1.01-.59-.25-.3-.37-.67-.37-1.12,0-.55.17-1,.51-1.34.34-.34.82-.51,1.42-.51.18,0,.37.02.57.05s.38.09.54.18l-.22.79c-.24-.1-.47-.14-.69-.14-.38,0-.67.1-.87.31-.19.2-.29.47-.29.79,0,.14.02.28.05.42.04.14.1.26.2.37.09.11.23.2.4.27s.39.1.67.1h.75v.74h-.75c-.33,0-.6.1-.83.29s-.33.47-.33.83v.32c0,.39.14.69.43.9s.7.32,1.24.32c.63,0,1.13-.16,1.49-.49.36-.33.54-.8.54-1.41v-4.47h1.04v4.63c0,.4-.07.76-.21,1.09-.14.32-.35.6-.62.83-.27.23-.59.4-.97.53-.38.13-.8.19-1.27.19Z"/>
      <path d="M218.79,116.97c0-.29-.05-.54-.14-.73-.09-.19-.29-.29-.57-.29-.12,0-.23.03-.31.09-.09.06-.16.14-.21.25-.06.1-.1.22-.14.35-.04.13-.06.26-.07.39h-.68c-.02-.13-.04-.26-.07-.39-.03-.13-.06-.25-.12-.35-.05-.1-.12-.19-.2-.25-.08-.06-.18-.09-.31-.09-.27,0-.45.09-.55.27s-.14.41-.14.69v.56c0,.29.07.54.2.74.13.2.37.3.7.3.07,0,.13,0,.18,0,.05,0,.12-.01.22-.03l.1.79c-.12.03-.24.04-.36.05-.12,0-.21.01-.28.01-.6,0-1.05-.19-1.37-.58-.31-.39-.47-.93-.47-1.61s.12-1.18.34-1.54c.23-.36.62-.54,1.16-.54.32,0,.59.09.82.26.23.17.37.44.44.79h.06c.08-.35.23-.62.45-.79.22-.17.5-.26.83-.26.49,0,.86.17,1.11.5s.38.76.38,1.28v7.81h-1.04v-7.68Z"/>
      <path d="M80.92,138.44c-.72,0-1.29-.18-1.72-.53s-.64-.87-.64-1.55.21-1.17.63-1.52c.42-.35.99-.53,1.72-.53h2.26v-.68c0-1.12-.61-1.68-1.83-1.68-.52,0-.96.11-1.31.32-.35.21-.63.5-.85.88l-.66-.58c.23-.42.57-.78,1.04-1.07s1.08-.44,1.83-.44,1.35.16,1.81.47c.04-.45.28-.68.73-.68h1.73v.96h-2.09c.43.43.65,1.02.65,1.77v4.73h-1.04v-3.26h-2.03c-.47,0-.83.1-1.09.3s-.39.48-.39.84v.3c0,.39.12.69.36.89.24.2.56.31.97.31.12,0,.22,0,.31-.01.08,0,.15-.02.2-.03l.09.71c-.05.03-.15.05-.29.06-.14.01-.27.02-.38.02Z"/>
      <path d="M83.71,130.29c-.44,0-.79-.13-1.05-.38-.26-.25-.39-.59-.39-1.02s.13-.77.39-1.02.61-.38,1.05-.38.79.13,1.05.38.39.59.39,1.02-.13.77-.39,1.02c-.26.25-.61.38-1.05.38ZM83.71,129.59c.2,0,.36-.05.47-.15s.17-.24.17-.41v-.26c0-.17-.06-.31-.17-.41s-.27-.15-.47-.15-.36.05-.47.15c-.11.1-.17.24-.17.41v.26c0,.17.06.31.17.41.11.1.27.15.47.15Z"/>
      <path d="M89.91,133.44c0-1-.52-1.5-1.55-1.5-.42,0-.76.09-1.02.27-.26.18-.49.42-.67.73l-.64-.56c.2-.38.49-.7.88-.95s.89-.38,1.51-.38c.81,0,1.44.2,1.87.6.43.4.65.96.65,1.69v4.97h-1.04v-4.88Z"/>
      <path d="M95.52,138.47c-.65,0-1.21-.12-1.66-.35-.46-.23-.84-.56-1.16-.99l.74-.6c.27.36.58.63.93.8.35.17.76.25,1.23.25.52,0,.92-.1,1.19-.3.27-.2.41-.49.41-.88,0-.33-.11-.59-.32-.77-.21-.19-.55-.31-1.02-.38l-.61-.09c-.28-.04-.55-.1-.82-.18-.27-.08-.51-.19-.73-.34-.22-.15-.4-.34-.53-.58-.13-.24-.2-.55-.2-.91,0-.34.06-.64.19-.9.13-.26.3-.48.53-.65.23-.17.5-.31.81-.4.31-.09.65-.14,1.01-.14.62,0,1.13.1,1.54.31.41.2.76.47,1.03.8l-.66.62c-.19-.23-.45-.42-.77-.59-.32-.17-.71-.25-1.17-.25-.49,0-.86.1-1.12.3-.26.2-.39.48-.39.83,0,.38.12.65.38.81.25.16.6.27,1.04.34l.61.09c.32.05.62.12.88.21.27.09.5.21.7.36.19.16.35.35.46.58.11.23.17.51.17.84,0,.68-.24,1.21-.72,1.59-.48.39-1.14.58-1.97.58Z"/>
      <path d="M101.98,138.47c-.34,0-.66-.04-.97-.12-.31-.08-.58-.2-.81-.34l.39-.77c.37.23.83.34,1.36.34.6,0,1.06-.2,1.39-.6.33-.4.49-.96.49-1.67v-1.07c0-.7-.16-1.26-.47-1.66-.32-.41-.79-.61-1.41-.61-.47,0-.85.1-1.16.29-.3.19-.54.47-.7.81l-.84-.43c.22-.47.55-.85,1-1.14.45-.29,1.03-.44,1.73-.44.97,0,1.71.33,2.22.98s.76,1.56.76,2.72-.26,2.07-.78,2.72c-.52.65-1.25.98-2.2.98Z"/>
      <path d="M107.59,135.29h-.79v-.9h1.07c.13,0,.25.03.37.08.12.06.2.15.24.29l.94,2.67h.49c.42,0,.77-.19,1.03-.58.26-.39.39-.93.39-1.62v-1.07c0-.7-.19-1.25-.57-1.63s-.89-.58-1.54-.58c-.62,0-1.12.12-1.52.37-.4.25-.71.57-.94.96l-.68-.6c.11-.22.26-.42.45-.62s.41-.37.68-.52c.26-.15.57-.26.91-.35.34-.09.72-.13,1.14-.13,1.01,0,1.8.32,2.35.96.55.64.83,1.53.83,2.68,0,.56-.06,1.07-.19,1.51-.12.45-.3.83-.53,1.14s-.5.55-.83.71c-.33.17-.69.25-1.09.25h-1.14l-1.05-3.02Z"/>
      <path d="M117.04,138.47c-.42,0-.81-.06-1.17-.18-.36-.12-.68-.3-.95-.53-.27-.23-.48-.5-.64-.82s-.23-.67-.23-1.06v-.66c0-.26.05-.46.16-.6.1-.14.33-.21.66-.21h1.38v.9h-1.14v.53c0,.3.05.57.15.79.1.23.24.41.41.55.17.14.38.25.63.32s.51.1.8.1c.65,0,1.16-.2,1.52-.6.36-.4.55-.96.55-1.68v-1.07c0-.73-.2-1.29-.59-1.7s-.94-.6-1.64-.6c-.54,0-1,.11-1.39.32-.39.22-.7.51-.92.87l-.68-.6c.24-.42.61-.78,1.11-1.07.5-.29,1.14-.43,1.93-.43,1.05,0,1.86.33,2.44.98.58.65.87,1.56.87,2.72,0,.56-.07,1.07-.21,1.53-.14.46-.34.85-.62,1.17-.27.32-.61.57-1.01.74s-.87.26-1.4.26Z"/>
      <path d="M125.12,133.44c0-1-.52-1.5-1.55-1.5-.42,0-.76.09-1.02.27-.26.18-.49.42-.67.73l-.64-.56c.2-.38.49-.7.88-.95s.89-.38,1.51-.38c.81,0,1.44.2,1.87.6.43.4.65.96.65,1.69v4.97h-1.04v-4.88Z"/>
      <path d="M130.74,138.47c-.65,0-1.21-.12-1.66-.35-.46-.23-.84-.56-1.16-.99l.74-.6c.27.36.58.63.93.8.35.17.76.25,1.23.25.52,0,.92-.1,1.19-.3.27-.2.41-.49.41-.88,0-.33-.11-.59-.32-.77-.21-.19-.55-.31-1.02-.38l-.61-.09c-.28-.04-.55-.1-.82-.18-.27-.08-.51-.19-.73-.34-.22-.15-.4-.34-.53-.58-.13-.24-.2-.55-.2-.91,0-.34.06-.64.19-.9.13-.26.3-.48.53-.65.23-.17.5-.31.81-.4.31-.09.65-.14,1.01-.14.62,0,1.13.1,1.54.31.41.2.76.47,1.03.8l-.66.62c-.19-.23-.45-.42-.77-.59-.32-.17-.71-.25-1.17-.25-.49,0-.86.1-1.12.3-.26.2-.39.48-.39.83,0,.38.12.65.38.81.25.16.6.27,1.04.34l.61.09c.32.05.62.12.88.21.27.09.5.21.7.36.19.16.35.35.46.58.11.23.17.51.17.84,0,.68-.24,1.21-.72,1.59-.48.39-1.14.58-1.97.58Z"/>
      <path d="M138.38,138.47c-.3,0-.57-.04-.79-.11-.23-.07-.42-.17-.58-.29-.16-.12-.3-.26-.41-.42-.11-.16-.2-.32-.27-.49h-.07v1.16h-1.04v-7.1h1.04v4.91c0,.24.05.46.16.64.1.18.24.33.41.46.17.12.36.21.57.27.21.06.43.09.66.09.57,0,1-.17,1.29-.5.29-.33.44-.83.44-1.48v-4.39h1.04v4.52c0,.88-.22,1.55-.65,2.02-.43.47-1.03.71-1.79.71Z"/>
      <path d="M149.73,138.47c-.7,0-1.25-.24-1.64-.71-.39-.47-.59-1.15-.59-2.02v-1.72c0-.68-.17-1.19-.52-1.54-.35-.35-.81-.53-1.39-.53-.51,0-.96.12-1.35.36-.39.24-.64.57-.76,1l.64.26c.19.08.33.17.41.27.08.1.12.25.12.44v3.1h.83v.92h-.75c-.37,0-.65-.1-.84-.3s-.28-.46-.28-.79v-2.96l-1.11-.47c.03-.4.12-.76.29-1.1.17-.33.38-.62.66-.86.27-.24.59-.43.95-.57.36-.13.75-.2,1.18-.2.96,0,1.7.25,2.2.76.51.51.76,1.2.76,2.07v1.72c0,1.32.51,1.98,1.52,1.98.2,0,.4-.03.59-.09.2-.06.37-.15.53-.27.16-.12.28-.27.38-.46.1-.18.14-.39.14-.64v-4.91h1.04v6.18h.83v.92h-.77c-.35,0-.6-.1-.76-.32-.16-.21-.25-.48-.28-.8h-.05c-.07.17-.16.33-.26.48-.1.15-.24.29-.4.41-.16.12-.35.21-.57.28-.22.07-.47.1-.75.1Z"/>
      <path d="M150.66,129c0-.31.09-.56.27-.75.18-.19.47-.28.86-.28h2.57v.88h-2.67v.96h-1.04v-.82Z"/>
      <path d="M157.68,138.47c-.4,0-.76-.05-1.09-.16-.33-.1-.61-.26-.85-.47-.24-.21-.42-.47-.55-.78-.13-.32-.2-.69-.2-1.11,0-.25.02-.47.06-.67.04-.19.09-.37.16-.53.06-.16.14-.31.23-.45.09-.14.18-.27.29-.4.18-.24.33-.48.45-.7.12-.23.18-.46.18-.71v-.35h-1.48v-.92h1.52c.32,0,.57.08.73.25.17.17.25.39.25.67v.12c0,.31-.06.6-.17.86-.12.26-.29.57-.51.93-.2.3-.35.58-.44.83-.09.25-.14.52-.14.81v.4c0,.51.14.89.42,1.12.28.24.66.36,1.12.36.5,0,.89-.16,1.17-.47s.42-.75.42-1.33v-4.56h1.04v4.68c0,.79-.22,1.42-.66,1.88-.44.46-1.09.7-1.94.7Z"/>
      <path d="M165.02,138.47c-.42,0-.81-.06-1.17-.18-.36-.12-.68-.3-.95-.53-.27-.23-.48-.5-.64-.82s-.23-.67-.23-1.06v-.66c0-.26.05-.46.16-.6.1-.14.33-.21.66-.21h1.38v.9h-1.14v.53c0,.3.05.57.15.79.1.23.24.41.41.55.17.14.38.25.63.32s.51.1.8.1c.65,0,1.16-.2,1.52-.6.36-.4.55-.96.55-1.68v-1.07c0-.73-.2-1.29-.59-1.7s-.94-.6-1.64-.6c-.54,0-1,.11-1.39.32-.39.22-.7.51-.92.87l-.68-.6c.24-.42.61-.78,1.11-1.07.5-.29,1.14-.43,1.93-.43,1.05,0,1.86.33,2.44.98.58.65.87,1.56.87,2.72,0,.56-.07,1.07-.21,1.53-.14.46-.34.85-.62,1.17-.27.32-.61.57-1.01.74s-.87.26-1.4.26Z"/>
      <path d="M169.45,133.18h1.12l1.88,4.26h.04c.55,0,.97-.19,1.27-.57s.45-.9.45-1.58v-1.07c0-.67-.15-1.19-.45-1.56-.3-.37-.72-.56-1.27-.56h-.42v-.9h.43c.89,0,1.59.31,2.08.94s.74,1.5.74,2.61-.25,1.99-.73,2.61c-.49.62-1.18.94-2.07.94h-.81l-2.26-5.13Z"/>
      <path d="M179.92,138.47c-.99,0-1.74-.33-2.25-.98-.52-.65-.77-1.57-.77-2.75s.17-2.06.52-2.71c.35-.65.89-.97,1.62-.97.33,0,.63.09.89.26.26.17.44.43.53.77h.05c.1-.34.28-.59.54-.77.26-.17.57-.26.9-.26.52,0,.92.16,1.2.49.28.33.42.79.42,1.38v5.38h-1.04v-5.37c0-.34-.07-.59-.21-.75-.14-.16-.34-.24-.6-.24-.16,0-.29.03-.4.08s-.2.13-.27.23-.13.21-.17.34c-.04.13-.07.25-.09.38h-.68c-.02-.13-.04-.26-.08-.38-.04-.12-.09-.23-.16-.33s-.16-.18-.27-.24c-.11-.06-.25-.09-.42-.09-.23,0-.41.06-.56.17-.15.11-.27.27-.36.47-.09.2-.16.44-.2.71-.04.27-.06.57-.06.89v1.04c0,.72.17,1.29.5,1.71s.86.63,1.59.63c.09,0,.2,0,.31-.01.11,0,.21-.02.32-.04l.13.87c-.17.03-.33.06-.49.06-.16,0-.31.01-.45.01Z"/>
      <path d="M182.48,129.82c-.39,0-.68-.1-.86-.29-.18-.19-.27-.44-.27-.75v-.81h1.04v.95h3.31v.9h-3.22Z"/>
      <path d="M187.82,138.47c-.34,0-.66-.04-.97-.12-.31-.08-.58-.2-.81-.34l.39-.77c.37.23.83.34,1.36.34.6,0,1.06-.2,1.39-.6.33-.4.49-.96.49-1.67v-1.07c0-.7-.16-1.26-.47-1.66-.32-.41-.79-.61-1.41-.61-.47,0-.85.1-1.16.29-.3.19-.54.47-.7.81l-.84-.43c.22-.47.55-.85,1-1.14.45-.29,1.03-.44,1.73-.44.97,0,1.71.33,2.22.98s.76,1.56.76,2.72-.26,2.07-.78,2.72c-.52.65-1.25.98-2.2.98Z"/>
      <path d="M194.19,138.31c-.36,0-.64-.1-.83-.3s-.28-.46-.28-.79v-6.01h1.04v6.18h1.09v.92h-1.03Z"/>
      <path d="M199.52,138.47c-.42,0-.81-.06-1.17-.18-.36-.12-.68-.3-.95-.53-.27-.23-.48-.5-.64-.82s-.23-.67-.23-1.06v-.66c0-.26.05-.46.16-.6.1-.14.33-.21.66-.21h1.38v.9h-1.14v.53c0,.3.05.57.15.79.1.23.24.41.41.55.17.14.38.25.63.32s.51.1.8.1c.65,0,1.16-.2,1.52-.6.36-.4.55-.96.55-1.68v-1.07c0-.73-.2-1.29-.59-1.7s-.94-.6-1.64-.6c-.54,0-1,.11-1.39.32-.39.22-.7.51-.92.87l-.68-.6c.24-.42.61-.78,1.11-1.07.5-.29,1.14-.43,1.93-.43,1.05,0,1.86.33,2.44.98.58.65.87,1.56.87,2.72,0,.56-.07,1.07-.21,1.53-.14.46-.34.85-.62,1.17-.27.32-.61.57-1.01.74s-.87.26-1.4.26Z"/>
      <path d="M203.96,133.18h1.12l1.88,4.26h.04c.55,0,.97-.19,1.27-.57s.45-.9.45-1.58v-1.07c0-.67-.15-1.19-.45-1.56-.3-.37-.72-.56-1.27-.56h-.42v-.9h.43c.89,0,1.59.31,2.08.94s.74,1.5.74,2.61-.25,1.99-.73,2.61c-.49.62-1.18.94-2.07.94h-.81l-2.26-5.13Z"/>
    </g>
    <g>
      <path class="st1" d="M123.27,78.79c-.2,0-.37-.07-.51-.21-.14-.14-.21-.31-.21-.51v-9.46c0-.29.1-.53.3-.74.2-.21.44-.31.73-.31h.21c.18,0,.34.04.49.13.15.08.27.2.38.35l6.1,8.81v-8.56c0-.2.07-.37.21-.51.14-.14.31-.21.51-.21s.37.07.51.21.21.31.21.51v9.46c0,.29-.1.53-.31.73-.21.2-.45.3-.74.3h-.19c-.17,0-.33-.04-.47-.12-.15-.08-.27-.18-.36-.31l-6.13-8.86v8.57c0,.2-.07.37-.21.51-.14.14-.31.21-.51.21Z"/>
      <path class="st1" d="M140.17,78.87c-1.13,0-2.11-.24-2.93-.73-.82-.49-1.46-1.16-1.92-2.01s-.69-1.84-.71-2.95c.02-1.11.26-2.09.71-2.95s1.09-1.53,1.92-2.01c.82-.49,1.8-.73,2.93-.73s2.11.24,2.93.73c.82.49,1.46,1.16,1.92,2.01s.69,1.84.71,2.95c-.02,1.11-.26,2.09-.71,2.95s-1.09,1.53-1.92,2.01c-.82.49-1.8.73-2.93.73ZM140.17,77.52c.88,0,1.62-.19,2.23-.58.61-.39,1.08-.91,1.4-1.56.32-.65.48-1.39.48-2.2s-.16-1.55-.48-2.2-.79-1.17-1.4-1.56-1.36-.58-2.23-.58-1.62.19-2.23.58-1.08.91-1.4,1.56-.48,1.39-.48,2.2.16,1.55.48,2.2c.32.66.79,1.18,1.4,1.56.61.39,1.36.58,2.23.58Z"/>
      <path class="st1" d="M150.98,78.79c-.2,0-.37-.07-.51-.21-.14-.14-.21-.31-.21-.51v-9.08h-3.23c-.19,0-.35-.06-.47-.19-.13-.13-.19-.29-.19-.48s.06-.35.19-.48c.13-.13.29-.2.47-.2h7.89c.19,0,.35.07.48.2.13.13.2.29.2.48s-.07.35-.2.48c-.13.13-.29.19-.48.19h-3.22v9.08c0,.2-.07.37-.21.51-.14.14-.31.21-.51.21Z"/>
      <path class="st1" d="M158.06,78.71c-.2,0-.37-.07-.51-.21-.14-.14-.21-.31-.21-.51v-9.62c0-.2.07-.37.21-.51.14-.14.31-.21.51-.21h6.35c.19,0,.35.07.48.2.13.13.2.29.2.48s-.07.35-.2.48c-.13.13-.29.19-.48.19h-5.62v3.5h5.05c.19,0,.35.07.48.2.13.13.2.29.2.48s-.07.35-.2.48c-.13.13-.29.19-.48.19h-5.05v3.52h5.62c.19,0,.35.07.48.2.13.13.2.29.2.48s-.07.35-.2.48c-.13.13-.29.19-.48.19h-6.35Z"/>
    </g>
    <line class="st2" x1="61.91" y1="92.07" x2="228.47" y2="92.07"/>
    <g>
      <path d="M79.17,212.18c-.36,0-.64-.1-.83-.3s-.28-.46-.28-.79v-6.01h1.04v6.17h1.09v.92h-1.03Z"/>
      <path d="M81.47,205.08h1.03l.47,3.35.23,2.61h.05l.66-2.61.96-3.35h.94l.97,3.35.65,2.61h.06l.23-2.61.46-3.35h1.04l-1.04,7.1h-1.18l-1.14-3.94-.51-1.99h-.04l-.51,1.99-1.14,3.94h-1.16l-1.04-7.1Z"/>
      <path d="M83.93,202.79h2.47v-.95h.92v1h.94v-1h.97v1.85h-5.3v-.9Z"/>
      <path d="M88.27,199.09h.96v1.94h-.96v-1.94Z"/>
      <path d="M93.75,212.33c-.42,0-.81-.06-1.17-.18-.36-.12-.68-.3-.95-.53s-.48-.5-.64-.82-.23-.67-.23-1.06v-.66c0-.26.05-.46.16-.6.1-.14.33-.21.66-.21h1.38v.9h-1.14v.53c0,.3.05.57.15.79.1.23.24.41.41.55.17.14.38.25.63.32s.51.1.8.1c.65,0,1.16-.2,1.52-.6.36-.4.55-.96.55-1.68v-1.07c0-.73-.2-1.29-.59-1.7-.39-.4-.94-.6-1.64-.6-.54,0-1,.11-1.39.33-.39.22-.7.51-.92.87l-.68-.6c.24-.42.61-.78,1.11-1.07.5-.29,1.14-.43,1.93-.43,1.05,0,1.86.33,2.44.98.58.65.87,1.56.87,2.72,0,.56-.07,1.07-.21,1.53-.14.46-.34.85-.62,1.17-.27.32-.61.57-1.01.74-.4.17-.87.26-1.4.26Z"/>
      <path d="M98.87,205.08h1.04v1.16h.07c.07-.16.16-.33.27-.49.11-.16.25-.3.42-.42.17-.12.37-.22.6-.29.23-.07.5-.11.8-.11.75,0,1.35.24,1.77.71.43.47.64,1.15.64,2.02v4.52h-1.04v-4.39c0-1.32-.57-1.98-1.72-1.98-.23,0-.45.03-.66.09s-.41.15-.58.27c-.17.12-.31.27-.41.46-.1.18-.16.39-.16.64v4.91h-1.04v-7.1Z"/>
      <path d="M103.95,204.16c-.44,0-.79-.13-1.05-.38-.26-.25-.39-.59-.39-1.02s.13-.77.39-1.02c.26-.25.61-.38,1.05-.38s.79.13,1.05.38c.26.25.39.59.39,1.02s-.13.77-.39,1.02c-.26.25-.61.38-1.05.38ZM103.95,203.45c.2,0,.36-.05.47-.16.11-.1.17-.24.17-.41v-.26c0-.17-.06-.31-.17-.41-.11-.1-.27-.16-.47-.16s-.36.05-.47.16c-.11.1-.17.24-.17.41v.26c0,.17.06.31.17.41.11.1.27.16.47.16Z"/>
      <path d="M109.58,207.3c0-1-.52-1.5-1.55-1.5-.42,0-.76.09-1.02.27-.26.18-.49.42-.67.73l-.64-.56c.2-.38.49-.7.88-.95s.89-.38,1.51-.38c.81,0,1.44.2,1.87.6.43.4.65.96.65,1.69v4.97h-1.04v-4.88Z"/>
      <path d="M112.7,207.73c0-.42.07-.81.21-1.16.14-.35.35-.64.62-.89s.59-.44.97-.57c.38-.13.81-.2,1.29-.2s.89.06,1.27.2c.38.13.71.32.97.57s.48.54.62.89.22.73.22,1.16v4.45h-1.04v-4.34c0-.65-.18-1.15-.54-1.5s-.86-.52-1.51-.52-1.15.17-1.51.52c-.36.35-.54.84-.54,1.5v1.69h.06c.06-.16.14-.32.25-.47.1-.15.23-.29.39-.4s.34-.21.55-.28c.21-.07.46-.1.73-.1h.43v1.04h-.6c-.55,0-1,.11-1.33.33-.33.22-.49.52-.49.9v1.65h-1.04v-4.45Z"/>
      <path d="M123.14,212.33c-.34,0-.66-.04-.97-.12-.31-.08-.58-.2-.81-.34l.39-.77c.37.23.83.34,1.36.34.6,0,1.06-.2,1.39-.6.33-.4.49-.96.49-1.67v-1.07c0-.7-.16-1.26-.47-1.66s-.79-.61-1.41-.61c-.47,0-.85.1-1.16.29-.3.2-.54.47-.7.81l-.84-.43c.22-.47.55-.85,1-1.14.45-.29,1.03-.44,1.73-.44.97,0,1.71.33,2.22.98s.76,1.56.76,2.72-.26,2.07-.78,2.72c-.52.65-1.25.98-2.2.98Z"/>
      <path d="M130.97,207.3c0-1-.52-1.5-1.55-1.5-.42,0-.76.09-1.02.27-.26.18-.49.42-.67.73l-.64-.56c.2-.38.49-.7.88-.95s.89-.38,1.51-.38c.81,0,1.44.2,1.87.6.43.4.65.96.65,1.69v4.97h-1.04v-4.88Z"/>
      <path d="M137.31,212.33c-.3,0-.57-.04-.79-.11-.23-.07-.42-.17-.58-.29-.16-.12-.3-.26-.41-.42s-.2-.32-.27-.49h-.07v1.16h-1.04v-7.1h1.04v4.91c0,.24.05.46.16.64.1.18.24.33.41.46.17.12.36.21.57.27.21.06.43.09.66.09.57,0,1-.17,1.29-.5s.44-.83.44-1.48v-4.39h1.04v4.52c0,.88-.22,1.55-.65,2.02-.43.47-1.03.71-1.79.71Z"/>
      <path d="M143.41,212.18c-.36,0-.64-.1-.83-.3s-.28-.46-.28-.79v-6.01h1.04v6.17h1.09v.92h-1.03Z"/>
      <path d="M148.56,212.33c-.4,0-.76-.05-1.09-.16-.33-.1-.61-.26-.85-.47-.24-.21-.42-.47-.55-.79-.13-.32-.2-.68-.2-1.11,0-.25.02-.47.06-.67.04-.19.09-.37.16-.53.06-.16.14-.31.23-.45.09-.14.18-.27.29-.4.18-.24.33-.47.45-.7.12-.22.18-.46.18-.71v-.35h-1.48v-.92h1.52c.32,0,.57.08.73.25s.25.39.25.67v.12c0,.31-.06.6-.17.86s-.29.57-.51.93c-.2.3-.35.58-.44.83-.09.25-.14.52-.14.81v.4c0,.51.14.89.42,1.12.28.24.66.36,1.12.36.5,0,.89-.16,1.17-.47.28-.31.42-.75.42-1.33v-4.56h1.04v4.68c0,.79-.22,1.42-.66,1.88-.44.46-1.09.7-1.94.7Z"/>
      <path d="M149.11,202.79h.99v-.48c0-.22-.05-.38-.15-.47s-.27-.14-.5-.14h-.34v-.78h.73c.39,0,.69.09.89.26.2.17.31.4.31.69,0,.16-.04.32-.12.49-.08.17-.2.3-.36.38v.05h2.27v.78h-3.72v-.78Z"/>
      <path d="M156.39,207.3c0-1-.52-1.5-1.55-1.5-.42,0-.76.09-1.02.27-.26.18-.49.42-.67.73l-.64-.56c.2-.38.49-.7.88-.95s.89-.38,1.51-.38c.81,0,1.44.2,1.87.6.43.4.65.96.65,1.69v4.97h-1.04v-4.88Z"/>
      <path d="M161.1,212.18c-.37,0-.65-.1-.84-.3s-.28-.46-.28-.79v-5.66c0-.21.03-.39.09-.56.06-.17.14-.31.23-.44.09-.13.19-.25.31-.36.11-.11.22-.22.33-.33.15-.15.28-.3.39-.47.11-.17.17-.37.17-.6,0-.32-.09-.56-.29-.72-.19-.16-.44-.24-.74-.24-.68,0-1.11.36-1.31,1.08l-.81-.47c.17-.47.44-.83.8-1.09.36-.26.83-.39,1.41-.39.32,0,.6.04.84.13.24.09.45.21.61.36.16.16.29.34.38.55.09.21.13.44.13.68,0,.19-.02.36-.07.51-.05.15-.11.29-.19.42-.08.13-.17.25-.26.35-.1.1-.19.21-.29.31-.17.17-.33.36-.47.55-.14.19-.21.42-.21.69v5.87h1.09v.92h-1.01Z"/>
      <path d="M164.43,209.16h-.79v-.9h1.07c.13,0,.25.03.37.08.12.06.2.15.24.29l.94,2.67h.49c.42,0,.77-.2,1.03-.58.26-.39.39-.93.39-1.62v-1.07c0-.7-.19-1.25-.57-1.63s-.89-.58-1.54-.58c-.62,0-1.12.12-1.52.37-.4.25-.71.57-.94.96l-.68-.6c.11-.22.26-.42.45-.62s.41-.37.68-.52c.26-.15.57-.26.91-.35.34-.09.72-.13,1.14-.13,1.01,0,1.8.32,2.35.96s.83,1.53.83,2.68c0,.56-.06,1.07-.19,1.51-.12.45-.3.83-.53,1.14-.23.31-.5.55-.83.71-.33.17-.69.25-1.09.25h-1.14l-1.05-3.02Z"/>
      <path d="M173.88,212.33c-.42,0-.81-.06-1.17-.18-.36-.12-.68-.3-.95-.53s-.48-.5-.64-.82-.23-.67-.23-1.06v-.66c0-.26.05-.46.16-.6.1-.14.33-.21.66-.21h1.38v.9h-1.14v.53c0,.3.05.57.15.79.1.23.24.41.41.55.17.14.38.25.63.32s.51.1.8.1c.65,0,1.16-.2,1.52-.6.36-.4.55-.96.55-1.68v-1.07c0-.73-.2-1.29-.59-1.7-.39-.4-.94-.6-1.64-.6-.54,0-1,.11-1.39.33-.39.22-.7.51-.92.87l-.68-.6c.24-.42.61-.78,1.11-1.07.5-.29,1.14-.43,1.93-.43,1.05,0,1.86.33,2.44.98.58.65.87,1.56.87,2.72,0,.56-.07,1.07-.21,1.53-.14.46-.34.85-.62,1.17-.27.32-.61.57-1.01.74-.4.17-.87.26-1.4.26Z"/>
      <path d="M181.97,207.3c0-1-.52-1.5-1.55-1.5-.42,0-.76.09-1.02.27-.26.18-.49.42-.67.73l-.64-.56c.2-.38.49-.7.88-.95s.89-.38,1.51-.38c.81,0,1.44.2,1.87.6.43.4.65.96.65,1.69v4.97h-1.04v-4.88Z"/>
      <path d="M187.58,212.33c-.65,0-1.21-.12-1.66-.35-.46-.23-.84-.56-1.16-.99l.74-.6c.27.36.58.63.93.8.35.17.76.25,1.23.25.52,0,.92-.1,1.19-.3.27-.2.41-.49.41-.88,0-.33-.11-.59-.32-.77-.21-.19-.55-.31-1.02-.38l-.61-.09c-.28-.04-.55-.1-.82-.18-.27-.08-.51-.19-.73-.34-.22-.15-.4-.34-.53-.58-.13-.24-.2-.55-.2-.91,0-.34.06-.64.19-.9.13-.26.3-.48.53-.65.23-.17.5-.31.81-.4.31-.09.65-.14,1.01-.14.62,0,1.13.1,1.54.31.41.2.76.47,1.03.8l-.66.62c-.19-.22-.45-.42-.77-.59s-.71-.25-1.17-.25c-.49,0-.86.1-1.12.3-.26.2-.39.48-.39.83,0,.38.12.65.38.81.25.16.6.27,1.04.34l.61.09c.32.05.62.12.88.21.27.09.5.21.7.36.19.16.35.35.46.58.11.23.17.51.17.84,0,.68-.24,1.21-.72,1.59-.48.39-1.14.58-1.97.58Z"/>
      <path d="M195.22,212.33c-.3,0-.57-.04-.79-.11-.23-.07-.42-.17-.58-.29-.16-.12-.3-.26-.41-.42s-.2-.32-.27-.49h-.07v1.16h-1.04v-7.1h1.04v4.91c0,.24.05.46.16.64.1.18.24.33.41.46.17.12.36.21.57.27.21.06.43.09.66.09.57,0,1-.17,1.29-.5s.44-.83.44-1.48v-4.39h1.04v4.52c0,.88-.22,1.55-.65,2.02-.43.47-1.03.71-1.79.71Z"/>
      <path d="M206.57,212.33c-.7,0-1.25-.24-1.64-.71-.39-.47-.59-1.15-.59-2.02v-1.72c0-.68-.17-1.19-.52-1.54-.35-.35-.81-.53-1.39-.53-.51,0-.96.12-1.35.36s-.64.57-.76,1l.64.26c.19.08.33.17.41.27.08.1.12.25.12.44v3.1h.83v.92h-.75c-.37,0-.65-.1-.84-.3s-.28-.46-.28-.79v-2.96l-1.11-.47c.03-.4.12-.76.29-1.1.17-.33.38-.62.66-.87.27-.24.59-.43.95-.57.36-.13.75-.2,1.18-.2.96,0,1.7.25,2.2.76.51.51.76,1.2.76,2.07v1.72c0,1.32.51,1.98,1.52,1.98.2,0,.4-.03.59-.09.2-.06.37-.15.53-.27.16-.12.28-.27.38-.46.1-.18.14-.39.14-.64v-4.91h1.04v6.17h.83v.92h-.77c-.35,0-.6-.11-.76-.32-.16-.21-.25-.48-.28-.8h-.05c-.07.17-.16.33-.26.48-.1.15-.24.29-.4.41s-.35.21-.57.28c-.22.07-.47.11-.75.11Z"/>
      <path d="M207.5,202.87c0-.31.09-.56.27-.75.18-.19.47-.28.86-.28h2.57v.88h-2.67v.96h-1.04v-.82Z"/>
      <path d="M52.19,228.33c-.4,0-.76-.05-1.09-.16-.33-.1-.61-.26-.85-.47-.24-.21-.42-.47-.55-.79-.13-.32-.2-.68-.2-1.11,0-.25.02-.47.06-.67.04-.19.09-.37.16-.53.06-.16.14-.31.23-.45.09-.14.18-.27.29-.4.18-.24.33-.47.45-.7.12-.22.18-.46.18-.71v-.35h-1.48v-.92h1.52c.32,0,.57.08.73.25s.25.39.25.67v.12c0,.31-.06.6-.17.86s-.29.57-.51.93c-.2.3-.35.58-.44.83-.09.25-.14.52-.14.81v.4c0,.51.14.89.42,1.12.28.24.66.36,1.12.36.5,0,.89-.16,1.17-.47.28-.31.42-.75.42-1.33v-4.56h1.04v4.68c0,.79-.22,1.42-.66,1.88-.44.46-1.09.7-1.94.7Z"/>
      <path d="M59.54,228.33c-.42,0-.81-.06-1.17-.18-.36-.12-.68-.3-.95-.53s-.48-.5-.64-.82-.23-.67-.23-1.06v-.66c0-.26.05-.46.16-.6.1-.14.33-.21.66-.21h1.38v.9h-1.14v.53c0,.3.05.57.15.79.1.23.24.41.41.55.17.14.38.25.63.32s.51.1.8.1c.65,0,1.16-.2,1.52-.6.36-.4.55-.96.55-1.68v-1.07c0-.73-.2-1.29-.59-1.7-.39-.4-.94-.6-1.64-.6-.54,0-1,.11-1.39.33-.39.22-.7.51-.92.87l-.68-.6c.24-.42.61-.78,1.11-1.07.5-.29,1.14-.43,1.93-.43,1.05,0,1.86.33,2.44.98.58.65.87,1.56.87,2.72,0,.56-.07,1.07-.21,1.53-.14.46-.34.85-.62,1.17-.27.32-.61.57-1.01.74-.4.17-.87.26-1.4.26Z"/>
      <path d="M63.97,223.04h1.12l1.88,4.26h.04c.55,0,.97-.19,1.27-.57s.45-.9.45-1.58v-1.07c0-.67-.15-1.19-.45-1.56-.3-.37-.72-.56-1.27-.56h-.42v-.9h.43c.89,0,1.59.31,2.08.94s.74,1.5.74,2.61-.25,1.99-.73,2.61c-.49.62-1.18.94-2.07.94h-.81l-2.26-5.13Z"/>
      <path d="M74.43,228.33c-.99,0-1.74-.33-2.25-.98s-.77-1.57-.77-2.75.17-2.06.52-2.71.89-.97,1.62-.97c.33,0,.63.09.89.26.26.17.44.43.53.77h.05c.1-.34.28-.59.54-.77.26-.17.57-.26.9-.26.52,0,.92.17,1.2.49.28.33.42.79.42,1.38v5.38h-1.04v-5.37c0-.34-.07-.59-.21-.75-.14-.16-.34-.24-.6-.24-.16,0-.29.03-.4.08-.11.06-.2.13-.27.23s-.13.21-.17.34c-.04.12-.07.25-.09.38h-.68c-.02-.13-.04-.25-.08-.38-.04-.12-.09-.23-.16-.33s-.16-.18-.27-.24c-.11-.06-.25-.09-.42-.09-.23,0-.41.06-.56.17-.15.11-.27.27-.36.47s-.16.44-.2.71c-.04.27-.06.57-.06.89v1.04c0,.72.17,1.29.5,1.71.33.42.86.63,1.59.63.09,0,.2,0,.31-.01.11,0,.21-.02.32-.04l.13.87c-.17.03-.33.06-.49.06-.16,0-.31.01-.45.01Z"/>
      <path d="M77,219.69c-.39,0-.68-.09-.86-.29-.18-.19-.27-.44-.27-.75v-.81h1.04v.95h3.31v.9h-3.22Z"/>
      <path d="M82.34,228.33c-.34,0-.66-.04-.97-.12-.31-.08-.58-.2-.81-.34l.39-.77c.37.23.83.34,1.36.34.6,0,1.06-.2,1.39-.6.33-.4.49-.96.49-1.67v-1.07c0-.7-.16-1.26-.47-1.66s-.79-.61-1.41-.61c-.47,0-.85.1-1.16.29-.3.2-.54.47-.7.81l-.84-.43c.22-.47.55-.85,1-1.14.45-.29,1.03-.44,1.73-.44.97,0,1.71.33,2.22.98s.76,1.56.76,2.72-.26,2.07-.78,2.72c-.52.65-1.25.98-2.2.98Z"/>
      <path d="M88.71,228.18c-.36,0-.64-.1-.83-.3s-.28-.46-.28-.79v-6.01h1.04v6.17h1.09v.92h-1.03Z"/>
      <path d="M94.04,228.33c-.42,0-.81-.06-1.17-.18-.36-.12-.68-.3-.95-.53s-.48-.5-.64-.82-.23-.67-.23-1.06v-.66c0-.26.05-.46.16-.6.1-.14.33-.21.66-.21h1.38v.9h-1.14v.53c0,.3.05.57.15.79.1.23.24.41.41.55.17.14.38.25.63.32s.51.1.8.1c.65,0,1.16-.2,1.52-.6.36-.4.55-.96.55-1.68v-1.07c0-.73-.2-1.29-.59-1.7-.39-.4-.94-.6-1.64-.6-.54,0-1,.11-1.39.33-.39.22-.7.51-.92.87l-.68-.6c.24-.42.61-.78,1.11-1.07.5-.29,1.14-.43,1.93-.43,1.05,0,1.86.33,2.44.98.58.65.87,1.56.87,2.72,0,.56-.07,1.07-.21,1.53-.14.46-.34.85-.62,1.17-.27.32-.61.57-1.01.74-.4.17-.87.26-1.4.26Z"/>
      <path d="M98.47,223.04h1.12l1.88,4.26h.04c.55,0,.97-.19,1.27-.57s.45-.9.45-1.58v-1.07c0-.67-.15-1.19-.45-1.56-.3-.37-.72-.56-1.27-.56h-.42v-.9h.43c.89,0,1.59.31,2.08.94s.74,1.5.74,2.61-.25,1.99-.73,2.61c-.49.62-1.18.94-2.07.94h-.81l-2.26-5.13Z"/>
      <path d="M107.75,228.18c-.37,0-.65-.1-.84-.3s-.28-.46-.28-.79v-5.66c0-.21.03-.39.09-.56.06-.17.14-.31.23-.44.09-.13.19-.25.31-.36.11-.11.22-.22.33-.33.15-.15.28-.3.39-.47.11-.17.17-.37.17-.6,0-.32-.09-.56-.29-.72-.19-.16-.44-.24-.74-.24-.68,0-1.11.36-1.31,1.08l-.81-.47c.17-.47.44-.83.8-1.09.36-.26.83-.39,1.41-.39.32,0,.6.04.84.13.24.09.45.21.61.36.16.16.29.34.38.55.09.21.13.44.13.68,0,.19-.02.36-.07.51-.05.15-.11.29-.19.42-.08.13-.17.25-.26.35-.1.1-.19.21-.29.31-.17.17-.33.36-.47.55-.14.19-.21.42-.21.69v5.87h1.09v.92h-1.01Z"/>
      <path d="M110.34,221.08h1.04v2.27l1.94-.29c.38-.06.69-.17.94-.32.24-.15.39-.42.43-.8l.1-.87h1.09l-.1.9c-.04.41-.2.73-.46.98-.26.24-.59.39-1,.45v.07c.86.23,1.34.9,1.44,1.99l.26,2.72h-1.09l-.25-2.78c-.03-.22-.07-.42-.14-.61-.07-.19-.17-.35-.31-.49-.14-.13-.31-.23-.53-.29-.21-.06-.47-.06-.77-.02l-1.55.22v3.96h-1.04v-7.1Z"/>
      <path d="M113.84,218.79h.99v-.48c0-.22-.05-.38-.15-.47s-.27-.14-.5-.14h-.34v-.78h.73c.39,0,.69.09.89.26.2.17.31.4.31.69,0,.16-.04.32-.12.49-.08.17-.2.3-.36.38v.05h2.27v.78h-3.72v-.78Z"/>
      <path d="M120.09,228.31c-.72,0-1.29-.18-1.72-.53-.42-.35-.64-.87-.64-1.55s.21-1.17.63-1.52c.42-.36.99-.53,1.72-.53h2.26v-.68c0-1.12-.61-1.68-1.83-1.68-.52,0-.96.11-1.31.32-.35.21-.63.5-.85.88l-.66-.58c.23-.42.57-.78,1.04-1.07s1.08-.44,1.83-.44c.9,0,1.6.22,2.09.67.49.45.73,1.06.73,1.85v4.73h-1.04v-3.26h-2.03c-.47,0-.83.1-1.09.3s-.39.48-.39.84v.3c0,.39.12.69.36.89.24.2.56.31.97.31.12,0,.22,0,.31-.01s.15-.02.2-.03l.09.71c-.05.03-.15.05-.29.06-.14.01-.27.02-.38.02Z"/>
      <path d="M118.1,218.79h3.5c-.03-.1-.04-.21-.04-.33,0-.36.12-.65.35-.87.23-.22.55-.33.95-.33s.7.11.94.33.36.51.36.87-.12.67-.36.89-.55.33-.94.33h-4.76v-.9ZM122.86,219.06c.4,0,.6-.18.6-.53v-.13c0-.35-.2-.53-.6-.53s-.6.18-.6.53v.13c0,.36.2.53.6.53Z"/>
      <path d="M126.18,224.12l-1.11-.47c.03-.4.12-.76.29-1.1.17-.33.39-.62.67-.87.28-.24.6-.43.97-.57.37-.13.77-.2,1.2-.2,1.01,0,1.79.25,2.33.76.54.51.81,1.19.81,2.06v4.43h-1.04v-4.3c0-.68-.19-1.19-.57-1.53s-.87-.52-1.49-.52c-.27,0-.52.03-.76.1-.24.07-.45.16-.64.27-.19.12-.36.26-.49.43s-.24.36-.3.57l.65.26c.18.07.31.16.4.27.08.11.12.26.12.45v4.02h-1.04v-4.06Z"/>
      <path d="M136.03,228.33c-.4,0-.76-.05-1.09-.16-.33-.1-.61-.26-.85-.47-.24-.21-.42-.47-.55-.79-.13-.32-.2-.68-.2-1.11,0-.25.02-.47.06-.67.04-.19.09-.37.16-.53.06-.16.14-.31.23-.45.09-.14.18-.27.29-.4.18-.24.33-.47.45-.7.12-.22.18-.46.18-.71v-.35h-1.48v-.92h1.52c.32,0,.57.08.73.25s.25.39.25.67v.12c0,.31-.06.6-.17.86s-.29.57-.51.93c-.2.3-.35.58-.44.83-.09.25-.14.52-.14.81v.4c0,.51.14.89.42,1.12.28.24.66.36,1.12.36.5,0,.89-.16,1.17-.47.28-.31.42-.75.42-1.33v-4.56h1.04v4.68c0,.79-.22,1.42-.66,1.88-.44.46-1.09.7-1.94.7Z"/>
      <path d="M133.34,218.79h3.5c-.03-.1-.04-.21-.04-.33,0-.36.12-.65.35-.87.23-.22.55-.33.95-.33s.7.11.94.33.36.51.36.87-.12.67-.36.89-.55.33-.94.33h-4.76v-.9ZM138.1,219.06c.4,0,.6-.18.6-.53v-.13c0-.35-.2-.53-.6-.53s-.6.18-.6.53v.13c0,.36.2.53.6.53Z"/>
      <path d="M136.56,215.83h.98v-.47c0-.4-.23-.6-.69-.6h-.29v-.66h.64c.41,0,.7.08.89.25.19.16.28.38.28.64,0,.15-.04.3-.1.46-.07.16-.18.27-.33.34v.05h2.02v.68h-3.39v-.68Z"/>
      <path d="M143.11,228.33c-.75,0-1.34-.24-1.77-.71s-.64-1.15-.64-2.02v-4.52h1.04v4.39c0,1.32.56,1.98,1.69,1.98.22,0,.43-.03.65-.09.22-.06.41-.15.57-.27.16-.12.3-.27.4-.46.1-.18.16-.39.16-.64v-4.91h1.04v6.17h.83v.92h-.77c-.35,0-.6-.1-.76-.31s-.25-.47-.28-.79h-.05c-.14.4-.4.71-.77.93-.38.22-.83.33-1.34.33Z"/>
      <path d="M150.16,228.18c-.36,0-.64-.1-.83-.3s-.28-.46-.28-.79v-6.01h1.04v6.17h1.09v.92h-1.03ZM153.54,228.18c-.36,0-.64-.1-.83-.3-.19-.2-.28-.46-.28-.79v-6.01h1.04v6.17h1.09v.92h-1.03Z"/>
      <path d="M158.22,228.31c-.72,0-1.29-.18-1.72-.53-.42-.35-.64-.87-.64-1.55s.21-1.17.63-1.52c.42-.36.99-.53,1.72-.53h2.26v-.68c0-1.12-.61-1.68-1.83-1.68-.52,0-.96.11-1.31.32-.35.21-.63.5-.85.88l-.66-.58c.23-.42.57-.78,1.04-1.07s1.08-.44,1.83-.44c.9,0,1.6.22,2.09.67.49.45.73,1.06.73,1.85v4.73h-1.04v-3.26h-2.03c-.47,0-.83.1-1.09.3s-.39.48-.39.84v.3c0,.39.12.69.36.89.24.2.56.31.97.31.12,0,.22,0,.31-.01s.15-.02.2-.03l.09.71c-.05.03-.15.05-.29.06-.14.01-.27.02-.38.02Z"/>
      <path d="M164.79,223.54c-.39,0-.68-.1-.86-.29-.18-.19-.27-.44-.27-.75v-.56h1.04v.7h2.25v.9h-2.16ZM164.79,226.88c-.39,0-.68-.1-.86-.29-.18-.19-.27-.44-.27-.75v-.56h1.04v.7h2.25v.9h-2.16Z"/>
      <path d="M170.6,228.18c-.36,0-.64-.1-.83-.3s-.28-.46-.28-.79v-6.01h1.04v6.17h1.09v.92h-1.03Z"/>
      <path d="M175.63,228.33c-.65,0-1.21-.12-1.66-.35-.46-.23-.84-.56-1.16-.99l.74-.6c.27.36.58.63.93.8.35.17.76.25,1.23.25.52,0,.92-.1,1.19-.3.27-.2.41-.49.41-.88,0-.33-.11-.59-.32-.77-.21-.19-.55-.31-1.02-.38l-.61-.09c-.28-.04-.55-.1-.82-.18-.27-.08-.51-.19-.73-.34-.22-.15-.4-.34-.53-.58-.13-.24-.2-.55-.2-.91,0-.34.06-.64.19-.9.13-.26.3-.48.53-.65.23-.17.5-.31.81-.4.31-.09.65-.14,1.01-.14.62,0,1.13.1,1.54.31.41.2.76.47,1.03.8l-.66.62c-.19-.22-.45-.42-.77-.59s-.71-.25-1.17-.25c-.49,0-.86.1-1.12.3-.26.2-.39.48-.39.83,0,.38.12.65.38.81.25.16.6.27,1.04.34l.61.09c.32.05.62.12.88.21.27.09.5.21.7.36.19.16.35.35.46.58.11.23.17.51.17.84,0,.68-.24,1.21-.72,1.59-.48.39-1.14.58-1.97.58Z"/>
      <path d="M173.01,218.79h4.29v-.95h1.01v1.85h-5.3v-.9Z"/>
      <path d="M182.7,228.33c-.87,0-1.54-.19-2.02-.56-.48-.37-.72-.9-.72-1.57,0-.43.12-.79.38-1.07.25-.28.57-.47.95-.58v-.07c-.42-.09-.76-.29-1.01-.59s-.37-.67-.37-1.12c0-.55.17-1,.51-1.34.34-.34.82-.51,1.42-.51.18,0,.37.02.57.04.2.03.38.09.54.18l-.22.79c-.24-.09-.47-.14-.69-.14-.38,0-.67.1-.87.31-.19.2-.29.47-.29.79,0,.14.02.28.05.42.04.14.1.26.2.37.09.11.23.2.4.27s.39.1.67.1h.75v.74h-.75c-.33,0-.6.09-.83.29-.22.19-.33.47-.33.83v.33c0,.39.14.69.43.9.29.21.7.32,1.24.32.63,0,1.13-.16,1.49-.49.36-.32.54-.79.54-1.41v-4.47h1.04v4.63c0,.4-.07.76-.21,1.08-.14.33-.35.6-.62.83-.27.22-.59.4-.97.53-.38.12-.8.19-1.27.19Z"/>
      <path d="M190.25,228.33c-.75,0-1.34-.24-1.77-.71s-.64-1.15-.64-2.02v-4.52h1.04v4.39c0,1.32.56,1.98,1.69,1.98.22,0,.43-.03.65-.09.22-.06.41-.15.57-.27.16-.12.3-.27.4-.46.1-.18.16-.39.16-.64v-4.91h1.04v6.17h.83v.92h-.77c-.35,0-.6-.1-.76-.31s-.25-.47-.28-.79h-.05c-.14.4-.4.71-.77.93-.38.22-.83.33-1.34.33Z"/>
      <path d="M198.22,228.33c-.65,0-1.21-.12-1.66-.35-.46-.23-.84-.56-1.16-.99l.74-.6c.27.36.58.63.93.8.35.17.76.25,1.23.25.52,0,.92-.1,1.19-.3.27-.2.41-.49.41-.88,0-.33-.11-.59-.32-.77-.21-.19-.55-.31-1.02-.38l-.61-.09c-.28-.04-.55-.1-.82-.18-.27-.08-.51-.19-.73-.34-.22-.15-.4-.34-.53-.58-.13-.24-.2-.55-.2-.91,0-.34.06-.64.19-.9.13-.26.3-.48.53-.65.23-.17.5-.31.81-.4.31-.09.65-.14,1.01-.14.62,0,1.13.1,1.54.31.41.2.76.47,1.03.8l-.66.62c-.19-.22-.45-.42-.77-.59s-.71-.25-1.17-.25c-.49,0-.86.1-1.12.3-.26.2-.39.48-.39.83,0,.38.12.65.38.81.25.16.6.27,1.04.34l.61.09c.32.05.62.12.88.21.27.09.5.21.7.36.19.16.35.35.46.58.11.23.17.51.17.84,0,.68-.24,1.21-.72,1.59-.48.39-1.14.58-1.97.58Z"/>
      <path d="M199.13,232.73c-.56,0-.99-.15-1.29-.44-.29-.29-.44-.66-.44-1.11v-.7h-.86v-.83h1.07c.26,0,.45.06.57.18.12.12.18.28.18.48v.65c0,.29.06.53.17.7.11.17.32.26.61.26s.51-.09.62-.26c.11-.17.17-.41.17-.7v-1.31h.99v1.47c0,.46-.15.84-.45,1.15s-.74.46-1.33.46Z"/>
      <path d="M198.87,218.79h.99v-.48c0-.22-.05-.38-.15-.47s-.27-.14-.5-.14h-.34v-.78h.73c.39,0,.69.09.89.26.2.17.31.4.31.69,0,.16-.04.32-.12.49-.08.17-.2.3-.36.38v.05h2.27v.78h-3.72v-.78Z"/>
      <path d="M204.68,228.33c-.34,0-.66-.04-.97-.12-.31-.08-.58-.2-.81-.34l.39-.77c.37.23.83.34,1.36.34.6,0,1.06-.2,1.39-.6.33-.4.49-.96.49-1.67v-1.07c0-.7-.16-1.26-.47-1.66s-.79-.61-1.41-.61c-.47,0-.85.1-1.16.29-.3.2-.54.47-.7.81l-.84-.43c.22-.47.55-.85,1-1.14.45-.29,1.03-.44,1.73-.44.97,0,1.71.33,2.22.98s.76,1.56.76,2.72-.26,2.07-.78,2.72c-.52.65-1.25.98-2.2.98Z"/>
      <path d="M202.07,218.79h5.3v.9h-5.3v-.9Z"/>
      <path d="M209.35,225.59h.96v1.72h3.52v-1.44c0-.22-.02-.41-.05-.57-.03-.17-.11-.31-.22-.42-.11-.12-.28-.21-.49-.29-.22-.07-.51-.13-.87-.16l-2.98-.26v-.77c0-.78.25-1.39.77-1.82.51-.43,1.23-.65,2.16-.65.65,0,1.18.1,1.61.31.42.2.77.47,1.05.8l-.66.62c-.18-.22-.43-.42-.75-.6-.32-.17-.75-.26-1.27-.26-.58,0-1.03.12-1.36.37s-.49.62-.49,1.11v.16l2.13.2c.4.03.75.09,1.06.18.31.08.57.2.78.36.21.16.37.36.48.6.11.24.16.54.16.9v1.43c0,.33-.09.59-.28.79s-.46.3-.83.3h-4.42v-2.59Z"/>
      <path d="M209.57,218.79h4.29v-.95h1.01v1.85h-5.3v-.9Z"/>
      <path d="M219.39,228.33c-.49,0-.92-.09-1.29-.26-.38-.17-.7-.42-.96-.74-.26-.32-.46-.7-.59-1.16s-.2-.97-.2-1.55.08-1.06.23-1.52c.16-.46.38-.85.67-1.17.29-.32.64-.57,1.06-.75s.88-.27,1.4-.27c.47,0,.89.07,1.28.21s.71.34.99.59c.27.25.48.56.63.92s.22.76.22,1.2v4.33h-1.04v-4.19c0-.68-.19-1.22-.57-1.6-.38-.38-.89-.57-1.55-.57-.69,0-1.24.21-1.62.63-.39.42-.58.99-.58,1.71v.94c0,.76.17,1.34.52,1.74s.88.6,1.6.6c.1,0,.19,0,.29,0,.1,0,.2-.02.31-.05l.13.87c-.15.04-.3.07-.47.07-.17,0-.32,0-.46,0Z"/>
      <path d="M221.05,232.73c-.56,0-.99-.15-1.29-.44-.29-.29-.44-.66-.44-1.11v-.7h-.86v-.83h1.07c.26,0,.45.06.57.18.12.12.18.28.18.48v.65c0,.29.06.53.17.7.11.17.32.26.61.26s.51-.09.62-.26c.11-.17.17-.41.17-.7v-1.31h.99v1.47c0,.46-.15.84-.45,1.15s-.74.46-1.33.46Z"/>
      <path d="M226.48,228.18c-.36,0-.64-.1-.83-.3s-.28-.46-.28-.79v-6.01h1.04v6.17h1.09v.92h-1.03ZM229.86,228.18c-.36,0-.64-.1-.83-.3-.19-.2-.28-.46-.28-.79v-6.01h1.04v6.17h1.09v.92h-1.03Z"/>
      <path d="M234.54,228.31c-.72,0-1.29-.18-1.72-.53-.42-.35-.64-.87-.64-1.55s.21-1.17.63-1.52c.42-.36.99-.53,1.72-.53h2.26v-.68c0-1.12-.61-1.68-1.83-1.68-.52,0-.96.11-1.31.32-.35.21-.63.5-.85.88l-.66-.58c.23-.42.57-.78,1.04-1.07s1.08-.44,1.83-.44c.9,0,1.6.22,2.09.67.49.45.73,1.06.73,1.85v4.73h-1.04v-3.26h-2.03c-.47,0-.83.1-1.09.3s-.39.48-.39.84v.3c0,.39.12.69.36.89.24.2.56.31.97.31.12,0,.22,0,.31-.01s.15-.02.2-.03l.09.71c-.05.03-.15.05-.29.06-.14.01-.27.02-.38.02Z"/>
      <path d="M95.53,237.08h1.04v2.27l1.94-.29c.38-.06.69-.17.94-.32.24-.15.39-.42.43-.8l.1-.87h1.09l-.1.9c-.04.41-.2.73-.46.98-.26.24-.59.39-1,.45v.07c.86.23,1.34.9,1.44,1.99l.26,2.72h-1.09l-.25-2.78c-.03-.22-.07-.42-.14-.61-.07-.19-.17-.35-.31-.49-.14-.13-.31-.23-.53-.29-.21-.06-.47-.06-.77-.02l-1.55.22v3.96h-1.04v-7.1Z"/>
      <path d="M99.97,235.69c-.39,0-.68-.09-.86-.29-.18-.19-.27-.44-.27-.75v-.81h1.04v.95h3.31v.9h-3.22Z"/>
      <path d="M105.3,244.33c-.34,0-.66-.04-.97-.12-.31-.08-.58-.2-.81-.34l.39-.77c.37.23.83.34,1.36.34.6,0,1.06-.2,1.39-.6.33-.4.49-.96.49-1.67v-1.07c0-.7-.16-1.26-.47-1.66s-.79-.61-1.41-.61c-.47,0-.85.1-1.16.29-.3.2-.54.47-.7.81l-.84-.43c.22-.47.55-.85,1-1.14.45-.29,1.03-.44,1.73-.44.97,0,1.71.33,2.22.98s.76,1.56.76,2.72-.26,2.07-.78,2.72c-.52.65-1.25.98-2.2.98Z"/>
      <path d="M111.69,244.18c-.37,0-.65-.1-.84-.3s-.28-.46-.28-.79v-5.66c0-.21.03-.39.09-.56.06-.17.14-.31.23-.44.09-.13.19-.25.31-.36.11-.11.22-.22.33-.33.15-.15.28-.3.39-.47.11-.17.17-.37.17-.6,0-.32-.09-.56-.29-.72-.19-.16-.44-.24-.74-.24-.68,0-1.11.36-1.31,1.08l-.81-.47c.17-.47.44-.83.8-1.09.36-.26.83-.39,1.41-.39.32,0,.6.04.84.13.24.09.45.21.61.36.16.16.29.34.38.55.09.21.13.44.13.68,0,.19-.02.36-.07.51-.05.15-.11.29-.19.42-.08.13-.17.25-.26.35-.1.1-.19.21-.29.31-.17.17-.33.36-.47.55-.14.19-.21.42-.21.69v5.87h1.09v.92h-1.01Z"/>
      <path d="M115.01,241.16h-.79v-.9h1.07c.13,0,.25.03.37.08.12.06.2.15.24.29l.94,2.67h.49c.42,0,.77-.2,1.03-.58.26-.39.39-.93.39-1.62v-1.07c0-.7-.19-1.25-.57-1.63s-.89-.58-1.54-.58c-.62,0-1.12.12-1.52.37-.4.25-.71.57-.94.96l-.68-.6c.11-.22.26-.42.45-.62s.41-.37.68-.52c.26-.15.57-.26.91-.35.34-.09.72-.13,1.14-.13,1.01,0,1.8.32,2.35.96s.83,1.53.83,2.68c0,.56-.06,1.07-.19,1.51-.12.45-.3.83-.53,1.14-.23.31-.5.55-.83.71-.33.17-.69.25-1.09.25h-1.14l-1.05-3.02Z"/>
      <path d="M124.47,244.33c-.42,0-.81-.06-1.17-.18-.36-.12-.68-.3-.95-.53s-.48-.5-.64-.82-.23-.67-.23-1.06v-.66c0-.26.05-.46.16-.6.1-.14.33-.21.66-.21h1.38v.9h-1.14v.53c0,.3.05.57.15.79.1.23.24.41.41.55.17.14.38.25.63.32s.51.1.8.1c.65,0,1.16-.2,1.52-.6.36-.4.55-.96.55-1.68v-1.07c0-.73-.2-1.29-.59-1.7-.39-.4-.94-.6-1.64-.6-.54,0-1,.11-1.39.33-.39.22-.7.51-.92.87l-.68-.6c.24-.42.61-.78,1.11-1.07.5-.29,1.14-.43,1.93-.43,1.05,0,1.86.33,2.44.98.58.65.87,1.56.87,2.72,0,.56-.07,1.07-.21,1.53-.14.46-.34.85-.62,1.17-.27.32-.61.57-1.01.74-.4.17-.87.26-1.4.26Z"/>
      <path d="M132.18,244.33c-.87,0-1.54-.19-2.02-.56-.48-.37-.72-.9-.72-1.57,0-.43.12-.79.38-1.07.25-.28.57-.47.95-.58v-.07c-.42-.09-.76-.29-1.01-.59s-.37-.67-.37-1.12c0-.55.17-1,.51-1.34.34-.34.82-.51,1.42-.51.18,0,.37.02.57.04.2.03.38.09.54.18l-.22.79c-.24-.09-.47-.14-.69-.14-.38,0-.67.1-.87.31-.19.2-.29.47-.29.79,0,.14.02.28.05.42.04.14.1.26.2.37.09.11.23.2.4.27s.39.1.67.1h.75v.74h-.75c-.33,0-.6.09-.83.29-.22.19-.33.47-.33.83v.33c0,.39.14.69.43.9.29.21.7.32,1.24.32.63,0,1.13-.16,1.49-.49.36-.32.54-.79.54-1.41v-4.47h1.04v4.63c0,.4-.07.76-.21,1.08-.14.33-.35.6-.62.83-.27.22-.59.4-.97.53-.38.12-.8.19-1.27.19Z"/>
      <path d="M134.23,233.28h1.01v2.4h-1.01v-2.4Z"/>
      <path d="M140.48,239.3c0-1-.52-1.5-1.55-1.5-.42,0-.76.09-1.02.27-.26.18-.49.42-.67.73l-.64-.56c.2-.38.49-.7.88-.95s.89-.38,1.51-.38c.81,0,1.44.2,1.87.6.43.4.65.96.65,1.69v4.97h-1.04v-4.88Z"/>
      <path d="M142.98,239.04h1.12l1.88,4.26h.04c.55,0,.97-.19,1.27-.57s.45-.9.45-1.58v-1.07c0-.67-.15-1.19-.45-1.56-.3-.37-.72-.56-1.27-.56h-.42v-.9h.43c.89,0,1.59.31,2.08.94s.74,1.5.74,2.61-.25,1.99-.73,2.61c-.49.62-1.18.94-2.07.94h-.81l-2.26-5.13Z"/>
      <path d="M153.47,244.33c-.42,0-.81-.06-1.17-.18-.36-.12-.68-.3-.95-.53s-.48-.5-.64-.82-.23-.67-.23-1.06v-.66c0-.26.05-.46.16-.6.1-.14.33-.21.66-.21h1.38v.9h-1.14v.53c0,.3.05.57.15.79.1.23.24.41.41.55.17.14.38.25.63.32s.51.1.8.1c.65,0,1.16-.2,1.52-.6.36-.4.55-.96.55-1.68v-1.07c0-.73-.2-1.29-.59-1.7-.39-.4-.94-.6-1.64-.6-.54,0-1,.11-1.39.33-.39.22-.7.51-.92.87l-.68-.6c.24-.42.61-.78,1.11-1.07.5-.29,1.14-.43,1.93-.43,1.05,0,1.86.33,2.44.98.58.65.87,1.56.87,2.72,0,.56-.07,1.07-.21,1.53-.14.46-.34.85-.62,1.17-.27.32-.61.57-1.01.74-.4.17-.87.26-1.4.26Z"/>
      <path d="M155.21,233.28h1.01v2.4h-1.01v-2.4Z"/>
      <path d="M161.32,244.33c-.42,0-.81-.06-1.17-.18-.36-.12-.68-.3-.95-.53s-.48-.5-.64-.82-.23-.67-.23-1.06v-.66c0-.26.05-.46.16-.6.1-.14.33-.21.66-.21h1.38v.9h-1.14v.53c0,.3.05.57.15.79.1.23.24.41.41.55.17.14.38.25.63.32s.51.1.8.1c.65,0,1.16-.2,1.52-.6.36-.4.55-.96.55-1.68v-1.07c0-.73-.2-1.29-.59-1.7-.39-.4-.94-.6-1.64-.6-.54,0-1,.11-1.39.33-.39.22-.7.51-.92.87l-.68-.6c.24-.42.61-.78,1.11-1.07.5-.29,1.14-.43,1.93-.43,1.05,0,1.86.33,2.44.98.58.65.87,1.56.87,2.72,0,.56-.07,1.07-.21,1.53-.14.46-.34.85-.62,1.17-.27.32-.61.57-1.01.74-.4.17-.87.26-1.4.26Z"/>
      <path d="M168.78,244.33c-.75,0-1.34-.24-1.77-.71s-.64-1.15-.64-2.02v-4.52h1.04v4.39c0,1.32.56,1.98,1.69,1.98.22,0,.43-.03.65-.09.22-.06.41-.15.57-.27.16-.12.3-.27.4-.46.1-.18.16-.39.16-.64v-4.91h1.04v6.17h.83v.92h-.77c-.35,0-.6-.1-.76-.31s-.25-.47-.28-.79h-.05c-.14.4-.4.71-.77.93-.38.22-.83.33-1.34.33Z"/>
      <path d="M175.84,244.18c-.37,0-.65-.1-.84-.3s-.28-.46-.28-.79v-7.12l-1.61-.7v-.18c0-.35.06-.66.17-.94s.28-.51.49-.71c.21-.2.46-.34.75-.45.29-.1.61-.16.97-.16.51,0,.93.08,1.26.23.33.16.61.36.83.62l-.66.62c-.14-.16-.32-.31-.54-.43-.22-.12-.5-.18-.83-.18-.39,0-.73.09-1.02.26-.29.17-.45.45-.49.83l1.2.49c.19.08.32.18.4.29.08.12.12.29.12.53v7.15h1.09v.92h-1.01Z"/>
      <path d="M181.02,244.33c-.87,0-1.54-.19-2.02-.56-.48-.37-.72-.9-.72-1.57,0-.43.12-.79.38-1.07.25-.28.57-.47.95-.58v-.07c-.42-.09-.76-.29-1.01-.59s-.37-.67-.37-1.12c0-.55.17-1,.51-1.34.34-.34.82-.51,1.42-.51.18,0,.37.02.57.04.2.03.38.09.54.18l-.22.79c-.24-.09-.47-.14-.69-.14-.38,0-.67.1-.87.31-.19.2-.29.47-.29.79,0,.14.02.28.05.42.04.14.1.26.2.37.09.11.23.2.4.27s.39.1.67.1h.75v.74h-.75c-.33,0-.6.09-.83.29-.22.19-.33.47-.33.83v.33c0,.39.14.69.43.9.29.21.7.32,1.24.32.63,0,1.13-.16,1.49-.49.36-.32.54-.79.54-1.41v-4.47h1.04v4.63c0,.4-.07.76-.21,1.08-.14.33-.35.6-.62.83-.27.22-.59.4-.97.53-.38.12-.8.19-1.27.19Z"/>
      <path d="M188.57,244.33c-.75,0-1.34-.24-1.77-.71s-.64-1.15-.64-2.02v-4.52h1.04v4.39c0,1.32.56,1.98,1.69,1.98.22,0,.43-.03.65-.09.22-.06.41-.15.57-.27.16-.12.3-.27.4-.46.1-.18.16-.39.16-.64v-4.91h1.04v6.17h.83v.92h-.77c-.35,0-.6-.1-.76-.31s-.25-.47-.28-.79h-.05c-.14.4-.4.71-.77.93-.38.22-.83.33-1.34.33Z"/>
    </g>
    <path class="st0" d="M145.19,185.07h0c0-7.42-6.01-13.43-13.43-13.43h0c7.42,0,13.43-6.01,13.43-13.43h0c0,7.42,6.01,13.43,13.43,13.43h0c-7.42,0-13.43,6.01-13.43,13.43Z"/>
  </g>
  <g>
    <path d="M66.28,293.1c-.36,0-.64-.1-.83-.3s-.28-.46-.28-.79v-6.01h1.04v6.18h1.09v.92h-1.03ZM69.66,293.1c-.36,0-.64-.1-.83-.3-.19-.2-.28-.46-.28-.79v-6.01h1.04v6.18h1.09v.92h-1.03Z"/>
    <path d="M74.34,293.23c-.72,0-1.29-.18-1.72-.53s-.64-.87-.64-1.55.21-1.17.63-1.52c.42-.35.99-.53,1.72-.53h2.26v-.68c0-1.12-.61-1.68-1.83-1.68-.52,0-.96.11-1.31.32-.35.21-.63.5-.85.88l-.66-.58c.23-.42.57-.78,1.04-1.07s1.08-.44,1.83-.44c.9,0,1.6.22,2.09.67.49.45.73,1.06.73,1.85v4.73h-1.04v-3.26h-2.03c-.47,0-.83.1-1.09.3s-.39.48-.39.84v.3c0,.39.12.69.36.89.24.2.56.31.97.31.12,0,.22,0,.31-.01.08,0,.15-.02.2-.03l.09.71c-.05.03-.15.05-.29.06-.14.01-.27.02-.38.02Z"/>
    <path d="M80.9,288.46c-.39,0-.68-.1-.86-.29-.18-.19-.27-.44-.27-.75v-.56h1.04v.7h2.25v.9h-2.16ZM80.9,291.8c-.39,0-.68-.1-.86-.29-.18-.19-.27-.44-.27-.75v-.56h1.04v.7h2.25v.9h-2.16Z"/>
    <path d="M86.71,293.1c-.36,0-.64-.1-.83-.3s-.28-.46-.28-.79v-6.01h1.04v6.18h1.09v.92h-1.03ZM90.09,293.1c-.36,0-.64-.1-.83-.3-.19-.2-.28-.46-.28-.79v-6.01h1.04v6.18h1.09v.92h-1.03Z"/>
    <path d="M95.03,293.25c-.75,0-1.34-.24-1.77-.71-.42-.48-.64-1.15-.64-2.02v-4.52h1.04v4.39c0,1.32.56,1.98,1.69,1.98.22,0,.43-.03.65-.09s.41-.15.57-.27c.16-.12.3-.27.4-.46.1-.18.16-.39.16-.64v-4.91h1.04v6.18h.83v.92h-.77c-.35,0-.6-.1-.76-.31s-.25-.47-.28-.79h-.05c-.14.4-.4.71-.77.93-.38.22-.83.33-1.34.33Z"/>
    <path d="M101.69,288.46c-.39,0-.68-.1-.86-.29-.18-.19-.27-.44-.27-.75v-.56h1.04v.7h2.25v.9h-2.16ZM101.69,291.8c-.39,0-.68-.1-.86-.29-.18-.19-.27-.44-.27-.75v-.56h1.04v.7h2.25v.9h-2.16Z"/>
    <path d="M108.33,293.25c-.75,0-1.34-.24-1.77-.71-.42-.48-.64-1.15-.64-2.02v-4.52h1.04v4.39c0,1.32.56,1.98,1.69,1.98.22,0,.43-.03.65-.09s.41-.15.57-.27c.16-.12.3-.27.4-.46.1-.18.16-.39.16-.64v-4.91h1.04v6.18h.83v.92h-.77c-.35,0-.6-.1-.76-.31s-.25-.47-.28-.79h-.05c-.14.4-.4.71-.77.93-.38.22-.83.33-1.34.33Z"/>
    <path d="M110.96,285.08c-.44,0-.79-.13-1.05-.38-.26-.25-.39-.59-.39-1.02s.13-.77.39-1.02.61-.38,1.05-.38.79.13,1.05.38.39.59.39,1.02-.13.77-.39,1.02c-.26.25-.61.38-1.05.38ZM110.96,284.38c.2,0,.36-.05.47-.15s.17-.24.17-.41v-.26c0-.17-.06-.31-.17-.41s-.27-.15-.47-.15-.36.05-.47.15c-.11.1-.17.24-.17.41v.26c0,.17.06.31.17.41.11.1.27.15.47.15Z"/>
    <path d="M116.72,288.22c0-1-.52-1.5-1.55-1.5-.42,0-.76.09-1.02.27-.26.18-.49.42-.67.73l-.64-.56c.2-.38.49-.7.88-.95s.89-.38,1.51-.38c.81,0,1.44.2,1.87.6.43.4.65.96.65,1.69v4.97h-1.04v-4.88Z"/>
    <path d="M121.41,293.1c-.36,0-.64-.1-.83-.3s-.28-.46-.28-.79v-6.01h1.04v6.18h1.09v.92h-1.03Z"/>
    <path d="M123.94,288.65c0-.42.07-.81.21-1.16.14-.35.35-.64.62-.89s.59-.44.97-.57c.38-.13.81-.19,1.29-.19s.89.06,1.27.19c.38.13.71.32.97.57s.48.54.62.89.22.73.22,1.16v4.45h-1.04v-4.34c0-.65-.18-1.15-.54-1.5s-.86-.52-1.51-.52-1.15.17-1.51.52c-.36.35-.54.84-.54,1.5v1.69h.06c.06-.16.14-.32.25-.47.1-.15.23-.29.39-.4.16-.12.34-.21.55-.28.21-.07.46-.1.73-.1h.43v1.04h-.6c-.55,0-1,.11-1.33.33-.33.22-.49.52-.49.9v1.65h-1.04v-4.45Z"/>
    <path d="M134.71,293.25c-.65,0-1.21-.12-1.66-.35-.46-.23-.84-.56-1.16-.99l.74-.6c.27.36.58.63.93.8.35.17.76.25,1.23.25.52,0,.92-.1,1.19-.3.27-.2.41-.49.41-.88,0-.33-.11-.59-.32-.77-.21-.19-.55-.31-1.02-.38l-.61-.09c-.28-.04-.55-.1-.82-.18-.27-.08-.51-.19-.73-.34-.22-.15-.4-.34-.53-.58-.13-.24-.2-.55-.2-.91,0-.34.06-.64.19-.9.13-.26.3-.48.53-.65.23-.17.5-.31.81-.4.31-.09.65-.14,1.01-.14.62,0,1.13.1,1.54.31.41.2.76.47,1.03.8l-.66.62c-.19-.23-.45-.42-.77-.59-.32-.17-.71-.25-1.17-.25-.49,0-.86.1-1.12.3-.26.2-.39.48-.39.83,0,.38.12.65.38.81.25.16.6.27,1.04.34l.61.09c.32.05.62.12.88.21.27.09.5.21.7.36.19.16.35.35.46.58.11.23.17.51.17.84,0,.68-.24,1.21-.72,1.59-.48.39-1.14.58-1.97.58Z"/>
    <path d="M132.1,283.71h2.47v-.95h.92v1h.94v-1h.97v1.85h-5.3v-.9Z"/>
    <path d="M136.44,280.01h.96v1.94h-.96v-1.94Z"/>
    <path d="M141.92,293.25c-.42,0-.81-.06-1.17-.18-.36-.12-.68-.3-.95-.53-.27-.23-.48-.5-.64-.82s-.23-.67-.23-1.06v-.66c0-.26.05-.46.16-.6.1-.14.33-.21.66-.21h1.38v.9h-1.14v.53c0,.3.05.57.15.79.1.23.24.41.41.55.17.14.38.25.63.32s.51.1.8.1c.65,0,1.16-.2,1.52-.6.36-.4.55-.96.55-1.68v-1.07c0-.73-.2-1.29-.59-1.7s-.94-.6-1.64-.6c-.54,0-1,.11-1.39.32-.39.22-.7.51-.92.87l-.68-.6c.24-.42.61-.78,1.11-1.07.5-.29,1.14-.43,1.93-.43,1.05,0,1.86.33,2.44.98.58.65.87,1.56.87,2.72,0,.56-.07,1.07-.21,1.53-.14.46-.34.85-.62,1.17-.27.32-.61.57-1.01.74s-.87.26-1.4.26Z"/>
    <path d="M146.36,287.96h1.12l1.88,4.26h.04c.55,0,.97-.19,1.27-.57s.45-.9.45-1.58v-1.07c0-.67-.15-1.19-.45-1.56-.3-.37-.72-.56-1.27-.56h-.42v-.9h.43c.89,0,1.59.31,2.08.94s.74,1.5.74,2.61-.25,1.99-.73,2.61c-.49.62-1.18.94-2.07.94h-.81l-2.26-5.13Z"/>
    <path d="M156.83,293.25c-.49,0-.92-.09-1.29-.26s-.7-.42-.96-.73-.46-.7-.59-1.16-.2-.98-.2-1.55.08-1.06.23-1.52c.16-.46.38-.85.67-1.17.29-.32.64-.57,1.06-.75s.88-.27,1.4-.27c.47,0,.89.07,1.28.21s.71.34.99.59c.27.26.48.56.63.92.15.36.22.76.22,1.2v4.33h-1.04v-4.19c0-.68-.19-1.22-.57-1.6-.38-.38-.89-.57-1.55-.57-.69,0-1.24.21-1.62.63-.39.42-.58.99-.58,1.71v.94c0,.76.17,1.34.52,1.74s.88.6,1.6.6c.1,0,.19,0,.29,0s.2-.02.31-.05l.13.87c-.15.04-.3.07-.47.07-.17,0-.32,0-.46,0Z"/>
    <path d="M154.98,283.71h2.47v-.95h.92v1h.94v-1h.97v1.85h-5.3v-.9Z"/>
    <path d="M159.32,280.01h.96v1.94h-.96v-1.94Z"/>
    <path d="M165.58,293.25c-.3,0-.57-.04-.79-.11-.23-.07-.42-.17-.58-.29-.16-.12-.3-.26-.41-.42-.11-.16-.2-.32-.27-.49h-.07v1.16h-1.04v-7.1h1.04v4.91c0,.24.05.46.16.64.1.18.24.33.41.46.17.12.36.21.57.27.21.06.43.09.66.09.57,0,1-.17,1.29-.5.29-.33.44-.83.44-1.48v-4.39h1.04v4.52c0,.88-.22,1.55-.65,2.02-.43.47-1.03.71-1.79.71Z"/>
    <path d="M170.17,286h1.04v1.16h.07c.07-.16.16-.33.27-.49.11-.16.25-.3.42-.42.17-.12.37-.22.6-.29.23-.07.5-.11.8-.11.75,0,1.35.24,1.77.71s.64,1.15.64,2.02v4.52h-1.04v-4.39c0-1.32-.57-1.98-1.72-1.98-.23,0-.45.03-.66.09s-.41.15-.58.27c-.17.12-.31.27-.41.46-.1.18-.16.39-.16.64v4.91h-1.04v-7.1Z"/>
    <path d="M170.47,283.71h4.29v-.95h1.01v1.85h-5.3v-.9Z"/>
    <path d="M174.81,280.01h.96v1.94h-.96v-1.94Z"/>
    <path d="M179.43,293.1c-.36,0-.64-.1-.83-.3s-.28-.46-.28-.79v-6.01h1.04v6.18h1.09v.92h-1.03Z"/>
    <path d="M182.03,286h1.04v2.27l1.94-.29c.38-.06.69-.17.94-.32.24-.15.39-.42.43-.8l.1-.87h1.09l-.1.9c-.04.41-.2.73-.46.98s-.59.39-1,.46v.06c.86.23,1.34.9,1.44,1.99l.26,2.72h-1.09l-.25-2.78c-.03-.22-.07-.42-.14-.61-.07-.19-.17-.35-.31-.49s-.31-.23-.53-.29c-.21-.06-.47-.06-.77-.02l-1.55.22v3.96h-1.04v-7.1Z"/>
    <path d="M192.86,293.25c-.3,0-.57-.04-.79-.11-.23-.07-.42-.17-.58-.29-.16-.12-.3-.26-.41-.42-.11-.16-.2-.32-.27-.49h-.07v1.16h-1.04v-7.1h1.04v4.91c0,.24.05.46.16.64.1.18.24.33.41.46.17.12.36.21.57.27.21.06.43.09.66.09.57,0,1-.17,1.29-.5.29-.33.44-.83.44-1.48v-4.39h1.04v4.52c0,.88-.22,1.55-.65,2.02-.43.47-1.03.71-1.79.71Z"/>
    <path d="M200.54,288.22c0-1-.52-1.5-1.55-1.5-.42,0-.76.09-1.02.27-.26.18-.49.42-.67.73l-.64-.56c.2-.38.49-.7.88-.95s.89-.38,1.51-.38c.81,0,1.44.2,1.87.6.43.4.65.96.65,1.69v4.97h-1.04v-4.88Z"/>
    <path d="M204.84,288.46c-.39,0-.68-.1-.86-.29-.18-.19-.27-.44-.27-.75v-.56h1.04v.7h2.25v.9h-2.16ZM204.84,291.8c-.39,0-.68-.1-.86-.29-.18-.19-.27-.44-.27-.75v-.56h1.04v.7h2.25v.9h-2.16Z"/>
    <path d="M211.23,293.23c-.72,0-1.29-.18-1.72-.53s-.64-.87-.64-1.55.21-1.17.63-1.52c.42-.35.99-.53,1.72-.53h2.26v-.68c0-1.12-.61-1.68-1.83-1.68-.52,0-.96.11-1.31.32-.35.21-.63.5-.85.88l-.66-.58c.23-.42.57-.78,1.04-1.07s1.08-.44,1.83-.44,1.35.16,1.81.47c.04-.45.28-.68.73-.68h1.73v.96h-2.09c.43.43.65,1.02.65,1.77v4.73h-1.04v-3.26h-2.03c-.47,0-.83.1-1.09.3s-.39.48-.39.84v.3c0,.39.12.69.36.89.24.2.56.31.97.31.12,0,.22,0,.31-.01.08,0,.15-.02.2-.03l.09.71c-.05.03-.15.05-.29.06-.14.01-.27.02-.38.02Z"/>
    <path d="M220.27,293.25c-.3,0-.57-.04-.79-.11-.23-.07-.42-.17-.58-.29-.16-.12-.3-.26-.41-.42-.11-.16-.2-.32-.27-.49h-.07v1.16h-1.04v-7.1h1.04v4.91c0,.24.05.46.16.64.1.18.24.33.41.46.17.12.36.21.57.27.21.06.43.09.66.09.57,0,1-.17,1.29-.5.29-.33.44-.83.44-1.48v-4.39h1.04v4.52c0,.88-.22,1.55-.65,2.02-.43.47-1.03.71-1.79.71Z"/>
    <path d="M56.6,305.04l-1.11-.47c.03-.4.12-.76.29-1.1.17-.33.39-.62.67-.86s.6-.43.97-.57c.37-.13.77-.2,1.2-.2,1.01,0,1.79.25,2.33.76.54.51.81,1.19.81,2.06v4.43h-1.04v-4.3c0-.68-.19-1.19-.57-1.53s-.87-.52-1.49-.52c-.27,0-.52.03-.76.1-.24.06-.45.16-.64.27-.19.12-.36.26-.49.43s-.24.36-.3.57l.65.26c.18.07.31.16.4.27.08.11.12.26.12.45v4.02h-1.04v-4.06Z"/>
    <path d="M60.67,300.61c-.39,0-.68-.1-.86-.29-.18-.19-.27-.44-.27-.75v-.81h1.04v.95h3.31v.9h-3.22Z"/>
    <path d="M66.81,309.25c-.92,0-1.64-.25-2.17-.75-.53-.5-.79-1.18-.79-2.05v-4.46h1.04v4.35c0,.65.17,1.15.51,1.49.34.34.81.51,1.41.51s1.07-.17,1.41-.51c.34-.34.51-.84.51-1.49v-4.35h1.04v4.46c0,.87-.26,1.55-.79,2.05-.53.5-1.25.75-2.17.75Z"/>
    <path d="M74,309.23c-.72,0-1.29-.18-1.72-.53s-.64-.87-.64-1.55.21-1.17.63-1.52c.42-.35.99-.53,1.72-.53h2.26v-.68c0-1.12-.61-1.68-1.83-1.68-.52,0-.96.11-1.31.32-.35.21-.63.5-.85.88l-.66-.58c.23-.42.57-.78,1.04-1.07s1.08-.44,1.83-.44,1.35.16,1.81.47c.04-.45.28-.68.73-.68h1.73v.96h-2.09c.43.43.65,1.02.65,1.77v4.73h-1.04v-3.26h-2.03c-.47,0-.83.1-1.09.3s-.39.48-.39.84v.3c0,.39.12.69.36.89.24.2.56.31.97.31.12,0,.22,0,.31-.01.08,0,.15-.02.2-.03l.09.71c-.05.03-.15.05-.29.06-.14.01-.27.02-.38.02Z"/>
    <path d="M79.74,308.18h.83v-3.13l-1.1-.47c.03-.4.12-.76.29-1.1.17-.33.39-.62.66-.86s.59-.43.96-.57c.37-.13.77-.2,1.2-.2,1,0,1.76.25,2.28.76.52.51.79,1.19.79,2.06v4.43h-1.04v-4.3c0-.68-.18-1.19-.55-1.53s-.85-.52-1.45-.52c-.53,0-.99.12-1.39.36-.4.24-.66.57-.78,1l.64.26c.19.08.33.17.41.27.08.1.12.25.12.44v2.93c0,.33-.09.59-.27.79-.18.2-.45.3-.82.3h-.78v-.92Z"/>
    <path d="M90.77,304.22c0-1-.52-1.5-1.55-1.5-.42,0-.76.09-1.02.27-.26.18-.49.42-.67.73l-.64-.56c.2-.38.49-.7.88-.95s.89-.38,1.51-.38c.81,0,1.44.2,1.87.6.43.4.65.96.65,1.69v4.97h-1.04v-4.88Z"/>
    <path d="M96.06,309.25c-.34,0-.66-.04-.97-.12-.31-.08-.58-.2-.81-.34l.39-.77c.37.23.83.34,1.36.34.6,0,1.06-.2,1.39-.6.33-.4.49-.96.49-1.67v-1.07c0-.7-.16-1.26-.47-1.66-.32-.41-.79-.61-1.41-.61-.47,0-.85.1-1.16.29-.3.19-.54.47-.7.81l-.84-.43c.22-.47.55-.85,1-1.14.45-.29,1.03-.44,1.73-.44.97,0,1.71.33,2.22.98s.76,1.56.76,2.72-.26,2.07-.78,2.72c-.52.65-1.25.98-2.2.98Z"/>
    <path d="M102.04,304.46c-.39,0-.68-.1-.86-.29-.18-.19-.27-.44-.27-.75v-.56h1.04v.7h2.25v.9h-2.16ZM102.04,307.8c-.39,0-.68-.1-.86-.29-.18-.19-.27-.44-.27-.75v-.56h1.04v.7h2.25v.9h-2.16Z"/>
    <path d="M109.07,309.25c-.42,0-.81-.06-1.17-.18-.36-.12-.68-.3-.95-.53-.27-.23-.48-.5-.64-.82s-.23-.67-.23-1.06v-.66c0-.26.05-.46.16-.6.1-.14.33-.21.66-.21h1.38v.9h-1.14v.53c0,.3.05.57.15.79.1.23.24.41.41.55.17.14.38.25.63.32s.51.1.8.1c.65,0,1.16-.2,1.52-.6.36-.4.55-.96.55-1.68v-1.07c0-.73-.2-1.29-.59-1.7s-.94-.6-1.64-.6c-.54,0-1,.11-1.39.32-.39.22-.7.51-.92.87l-.68-.6c.24-.42.61-.78,1.11-1.07.5-.29,1.14-.43,1.93-.43,1.05,0,1.86.33,2.44.98.58.65.87,1.56.87,2.72,0,.56-.07,1.07-.21,1.53-.14.46-.34.85-.62,1.17-.27.32-.61.57-1.01.74s-.87.26-1.4.26Z"/>
    <path d="M117.16,304.22c0-1-.52-1.5-1.55-1.5-.42,0-.76.09-1.02.27-.26.18-.49.42-.67.73l-.64-.56c.2-.38.49-.7.88-.95s.89-.38,1.51-.38c.81,0,1.44.2,1.87.6.43.4.65.96.65,1.69v4.97h-1.04v-4.88Z"/>
    <path d="M122.77,309.25c-.65,0-1.21-.12-1.66-.35-.46-.23-.84-.56-1.16-.99l.74-.6c.27.36.58.63.93.8.35.17.76.25,1.23.25.52,0,.92-.1,1.19-.3.27-.2.41-.49.41-.88,0-.33-.11-.59-.32-.77-.21-.19-.55-.31-1.02-.38l-.61-.09c-.28-.04-.55-.1-.82-.18-.27-.08-.51-.19-.73-.34-.22-.15-.4-.34-.53-.58-.13-.24-.2-.55-.2-.91,0-.34.06-.64.19-.9.13-.26.3-.48.53-.65.23-.17.5-.31.81-.4.31-.09.65-.14,1.01-.14.62,0,1.13.1,1.54.31.41.2.76.47,1.03.8l-.66.62c-.19-.23-.45-.42-.77-.59-.32-.17-.71-.25-1.17-.25-.49,0-.86.1-1.12.3-.26.2-.39.48-.39.83,0,.38.12.65.38.81.25.16.6.27,1.04.34l.61.09c.32.05.62.12.88.21.27.09.5.21.7.36.19.16.35.35.46.58.11.23.17.51.17.84,0,.68-.24,1.21-.72,1.59-.48.39-1.14.58-1.97.58Z"/>
    <path d="M130.42,309.25c-.3,0-.57-.04-.79-.11-.23-.07-.42-.17-.58-.29-.16-.12-.3-.26-.41-.42-.11-.16-.2-.32-.27-.49h-.07v1.16h-1.04v-7.1h1.04v4.91c0,.24.05.46.16.64.1.18.24.33.41.46.17.12.36.21.57.27.21.06.43.09.66.09.57,0,1-.17,1.29-.5.29-.33.44-.83.44-1.48v-4.39h1.04v4.52c0,.88-.22,1.55-.65,2.02-.43.47-1.03.71-1.79.71Z"/>
    <path d="M141.77,309.25c-.7,0-1.25-.24-1.64-.71-.39-.47-.59-1.15-.59-2.02v-1.72c0-.68-.17-1.19-.52-1.54-.35-.35-.81-.53-1.39-.53-.51,0-.96.12-1.35.36-.39.24-.64.57-.76,1l.64.26c.19.08.33.17.41.27.08.1.12.25.12.44v3.1h.83v.92h-.75c-.37,0-.65-.1-.84-.3s-.28-.46-.28-.79v-2.96l-1.11-.47c.03-.4.12-.76.29-1.1.17-.33.38-.62.66-.86.27-.24.59-.43.95-.57.36-.13.75-.2,1.18-.2.96,0,1.7.25,2.2.76.51.51.76,1.2.76,2.07v1.72c0,1.32.51,1.98,1.52,1.98.2,0,.4-.03.59-.09.2-.06.37-.15.53-.27.16-.12.28-.27.38-.46.1-.18.14-.39.14-.64v-4.91h1.04v6.18h.83v.92h-.77c-.35,0-.6-.1-.76-.32-.16-.21-.25-.48-.28-.8h-.05c-.07.17-.16.33-.26.48-.1.15-.24.29-.4.41-.16.12-.35.21-.57.28-.22.07-.47.1-.75.1Z"/>
    <path d="M142.69,299.79c0-.31.09-.56.27-.75.18-.19.47-.28.86-.28h2.57v.88h-2.67v.96h-1.04v-.82Z"/>
    <path d="M149.71,309.25c-.4,0-.76-.05-1.09-.16-.33-.1-.61-.26-.85-.47-.24-.21-.42-.47-.55-.78-.13-.32-.2-.69-.2-1.11,0-.25.02-.47.06-.67.04-.19.09-.37.16-.53.06-.16.14-.31.23-.45.09-.14.18-.27.29-.4.18-.24.33-.48.45-.7.12-.23.18-.46.18-.71v-.35h-1.48v-.92h1.52c.32,0,.57.08.73.25.17.17.25.39.25.67v.12c0,.31-.06.6-.17.86-.12.26-.29.57-.51.93-.2.3-.35.58-.44.83-.09.25-.14.52-.14.81v.4c0,.51.14.89.42,1.12.28.24.66.36,1.12.36.5,0,.89-.16,1.17-.47s.42-.75.42-1.33v-4.56h1.04v4.68c0,.79-.22,1.42-.66,1.88-.44.46-1.09.7-1.94.7Z"/>
    <path d="M157.06,309.25c-.42,0-.81-.06-1.17-.18-.36-.12-.68-.3-.95-.53-.27-.23-.48-.5-.64-.82s-.23-.67-.23-1.06v-.66c0-.26.05-.46.16-.6.1-.14.33-.21.66-.21h1.38v.9h-1.14v.53c0,.3.05.57.15.79.1.23.24.41.41.55.17.14.38.25.63.32s.51.1.8.1c.65,0,1.16-.2,1.52-.6.36-.4.55-.96.55-1.68v-1.07c0-.73-.2-1.29-.59-1.7s-.94-.6-1.64-.6c-.54,0-1,.11-1.39.32-.39.22-.7.51-.92.87l-.68-.6c.24-.42.61-.78,1.11-1.07.5-.29,1.14-.43,1.93-.43,1.05,0,1.86.33,2.44.98.58.65.87,1.56.87,2.72,0,.56-.07,1.07-.21,1.53-.14.46-.34.85-.62,1.17-.27.32-.61.57-1.01.74s-.87.26-1.4.26Z"/>
    <path d="M161.49,303.96h1.12l1.88,4.26h.04c.55,0,.97-.19,1.27-.57s.45-.9.45-1.58v-1.07c0-.67-.15-1.19-.45-1.56-.3-.37-.72-.56-1.27-.56h-.42v-.9h.43c.89,0,1.59.31,2.08.94s.74,1.5.74,2.61-.25,1.99-.73,2.61c-.49.62-1.18.94-2.07.94h-.81l-2.26-5.13Z"/>
    <path d="M169.18,304.65c0-.42.07-.81.21-1.16.14-.35.35-.64.62-.89s.59-.44.97-.57c.38-.13.81-.19,1.29-.19s.89.06,1.27.19c.38.13.71.32.97.57s.48.54.62.89.22.73.22,1.16v4.45h-1.04v-4.34c0-.65-.18-1.15-.54-1.5s-.86-.52-1.51-.52-1.15.17-1.51.52c-.36.35-.54.84-.54,1.5v1.69h.06c.06-.16.14-.32.25-.47.1-.15.23-.29.39-.4.16-.12.34-.21.55-.28.21-.07.46-.1.73-.1h.43v1.04h-.6c-.55,0-1,.11-1.33.33-.33.22-.49.52-.49.9v1.65h-1.04v-4.45Z"/>
    <path d="M174.38,311.4h-.86v-.83h1.1c.26,0,.45.07.57.21s.18.33.18.56v2.24h-.99v-2.17Z"/>
    <path d="M184.28,309.25c-.7,0-1.25-.24-1.64-.71-.39-.47-.59-1.15-.59-2.02v-1.72c0-.68-.17-1.19-.52-1.54-.35-.35-.81-.53-1.39-.53-.51,0-.96.12-1.35.36-.39.24-.64.57-.76,1l.64.26c.19.08.33.17.41.27.08.1.12.25.12.44v3.1h.83v.92h-.75c-.37,0-.65-.1-.84-.3s-.28-.46-.28-.79v-2.96l-1.11-.47c.03-.4.12-.76.29-1.1.17-.33.38-.62.66-.86.27-.24.59-.43.95-.57.36-.13.75-.2,1.18-.2.96,0,1.7.25,2.2.76.51.51.76,1.2.76,2.07v1.72c0,1.32.51,1.98,1.52,1.98.2,0,.4-.03.59-.09.2-.06.37-.15.53-.27.16-.12.28-.27.38-.46.1-.18.14-.39.14-.64v-4.91h1.04v6.18h.83v.92h-.77c-.35,0-.6-.1-.76-.32-.16-.21-.25-.48-.28-.8h-.05c-.07.17-.16.33-.26.48-.1.15-.24.29-.4.41-.16.12-.35.21-.57.28-.22.07-.47.1-.75.1Z"/>
    <path d="M191.09,309.1c-.37,0-.65-.1-.84-.3-.19-.2-.28-.46-.28-.79v-5.66c0-.21.03-.39.09-.56s.14-.31.23-.44c.09-.13.19-.25.31-.36.11-.11.22-.22.33-.33.15-.15.28-.31.39-.47.11-.17.17-.37.17-.6,0-.32-.09-.56-.29-.72-.19-.16-.44-.24-.74-.24-.68,0-1.11.36-1.31,1.08l-.81-.47c.17-.47.44-.83.8-1.09.36-.26.83-.39,1.41-.39.32,0,.6.04.84.13.24.09.45.21.61.36.16.16.29.34.38.55.09.21.13.44.13.68,0,.19-.02.36-.07.51-.05.15-.11.29-.19.42s-.17.25-.26.35c-.1.1-.19.21-.29.31-.17.17-.33.35-.47.55-.14.19-.21.42-.21.69v5.87h1.09v.92h-1.01Z"/>
    <path d="M196.02,309.25c-.75,0-1.34-.24-1.77-.71-.42-.48-.64-1.15-.64-2.02v-4.52h1.04v4.39c0,1.32.56,1.98,1.69,1.98.22,0,.43-.03.65-.09s.41-.15.57-.27c.16-.12.3-.27.4-.46.1-.18.16-.39.16-.64v-4.91h1.04v6.18h.83v.92h-.77c-.35,0-.6-.1-.76-.31s-.25-.47-.28-.79h-.05c-.14.4-.4.71-.77.93-.38.22-.83.33-1.34.33Z"/>
    <path d="M204.26,309.25c-.99,0-1.74-.33-2.25-.98-.52-.65-.77-1.57-.77-2.75s.17-2.06.52-2.71c.35-.65.89-.97,1.62-.97.33,0,.63.09.89.26.26.17.44.43.53.77h.05c.1-.34.28-.59.54-.77.26-.17.57-.26.9-.26.52,0,.92.16,1.2.49.28.33.42.79.42,1.38v5.38h-1.04v-5.37c0-.34-.07-.59-.21-.75-.14-.16-.34-.24-.6-.24-.16,0-.29.03-.4.08s-.2.13-.27.23-.13.21-.17.34c-.04.13-.07.25-.09.38h-.68c-.02-.13-.04-.26-.08-.38-.04-.12-.09-.23-.16-.33s-.16-.18-.27-.24c-.11-.06-.25-.09-.42-.09-.23,0-.41.06-.56.17-.15.11-.27.27-.36.47-.09.2-.16.44-.2.71-.04.27-.06.57-.06.89v1.04c0,.72.17,1.29.5,1.71s.86.63,1.59.63c.09,0,.2,0,.31-.01.11,0,.21-.02.32-.04l.13.87c-.17.03-.33.06-.49.06-.16,0-.31.01-.45.01Z"/>
    <path d="M212.79,309.25c-.42,0-.81-.06-1.17-.18-.36-.12-.68-.3-.95-.53-.27-.23-.48-.5-.64-.82s-.23-.67-.23-1.06v-.66c0-.26.05-.46.16-.6.1-.14.33-.21.66-.21h1.38v.9h-1.14v.53c0,.3.05.57.15.79.1.23.24.41.41.55.17.14.38.25.63.32s.51.1.8.1c.65,0,1.16-.2,1.52-.6.36-.4.55-.96.55-1.68v-1.07c0-.73-.2-1.29-.59-1.7s-.94-.6-1.64-.6c-.54,0-1,.11-1.39.32-.39.22-.7.51-.92.87l-.68-.6c.24-.42.61-.78,1.11-1.07.5-.29,1.14-.43,1.93-.43,1.05,0,1.86.33,2.44.98.58.65.87,1.56.87,2.72,0,.56-.07,1.07-.21,1.53-.14.46-.34.85-.62,1.17-.27.32-.61.57-1.01.74s-.87.26-1.4.26Z"/>
    <path d="M220.25,309.25c-.75,0-1.34-.24-1.77-.71-.42-.48-.64-1.15-.64-2.02v-4.52h1.04v4.39c0,1.32.56,1.98,1.69,1.98.22,0,.43-.03.65-.09s.41-.15.57-.27c.16-.12.3-.27.4-.46.1-.18.16-.39.16-.64v-4.91h1.04v6.18h.83v.92h-.77c-.35,0-.6-.1-.76-.31s-.25-.47-.28-.79h-.05c-.14.4-.4.71-.77.93-.38.22-.83.33-1.34.33Z"/>
    <path d="M228.13,309.25c-.75,0-1.34-.24-1.77-.71-.42-.48-.64-1.15-.64-2.02v-4.52h1.04v4.39c0,1.32.56,1.98,1.69,1.98.22,0,.43-.03.65-.09s.41-.15.57-.27c.16-.12.3-.27.4-.46.1-.18.16-.39.16-.64v-4.91h1.04v6.18h.83v.92h-.77c-.35,0-.6-.1-.76-.31s-.25-.47-.28-.79h-.05c-.14.4-.4.71-.77.93-.38.22-.83.33-1.34.33Z"/>
    <path d="M225.97,299.71h4.29v-.95h1.01v1.85h-5.3v-.9Z"/>
    <path d="M229.24,297.27h.98v-.47c0-.4-.23-.6-.69-.6h-.29v-.66h.64c.41,0,.7.08.89.25.19.16.28.38.28.64,0,.15-.04.3-.1.45-.07.16-.18.27-.33.34v.05h2.02v.68h-3.39v-.68Z"/>
  </g>
</svg>