<?xml version="1.0" encoding="UTF-8"?>
<svg id="Layer_1" xmlns="http://www.w3.org/2000/svg" xmlns:xlink="http://www.w3.org/1999/xlink" version="1.1" viewBox="0 0 288.35 364.46">
  <!-- Generator: Adobe Illustrator 30.0.0, SVG Export Plug-In . SVG Version: 2.1.1 Build 123)  -->
  <defs>
    <style>
      .st0 {
        fill: #fdefc4;
        stroke-width: .75px;
      }

      .st0, .st1, .st2, .st3 {
        stroke: #000;
        stroke-miterlimit: 10;
      }

      .st4 {
        fill: url(#linear-gradient);
      }

      .st1, .st2 {
        stroke-width: .5px;
      }

      .st2 {
        fill: none;
      }

      .st3 {
        fill: #fffbde;
      }
    </style>
    <linearGradient id="linear-gradient" x1="142.26" y1="348.37" x2="142.26" y2="38.49" gradientUnits="userSpaceOnUse">
      <stop offset=".02" stop-color="#fff" stop-opacity="0"/>
      <stop offset=".23" stop-color="#fff" stop-opacity=".2"/>
      <stop offset="1" stop-color="#fff"/>
    </linearGradient>
  </defs>
  <path class="st3" d="M273.89,350.93H11.56c7.91-47.57,13.9-104.6,13.7-169.08-.2-61.76-6.03-116.57-13.7-162.65h262.33c-6.8,46.42-11.74,100.07-12.06,159.64-.35,64.69,4.82,122.61,12.06,172.09Z"/>
  <path class="st4" d="M248.86,348.37H35.67c4.5-50.02,7.23-104.73,6.94-163.5-.26-52.23-2.87-101.17-6.94-146.38h213.19c-3.3,45.39-5.35,93.67-5.6,144.55-.28,58.61,1.86,113.86,5.6,165.33Z"/>
  <g>
    <path d="M118.83,119.35c0-.45.08-.86.23-1.22.15-.37.37-.68.65-.94.28-.26.63-.46,1.03-.6.4-.14.86-.21,1.36-.21s.94.07,1.35.21c.4.14.75.34,1.03.6.28.26.5.57.66.94.16.37.23.77.23,1.22v4.7h-1.1v-4.59c0-.69-.19-1.21-.57-1.58s-.91-.55-1.6-.55-1.22.18-1.6.55-.57.89-.57,1.58v1.78h.07c.06-.17.15-.34.26-.5.11-.16.25-.3.41-.43s.36-.22.58-.29c.22-.07.48-.11.78-.11h.45v1.1h-.63c-.59,0-1.05.11-1.4.34-.35.23-.52.54-.52.95v1.74h-1.1v-4.7Z"/>
    <path d="M124.32,126.47h-.91v-.88h1.17c.27,0,.47.07.6.22.12.15.19.34.19.59v2.36h-1.04v-2.29Z"/>
    <path d="M134.77,124.21c-.74,0-1.32-.25-1.74-.75-.42-.5-.62-1.21-.62-2.14v-1.81c0-.71-.18-1.26-.55-1.63s-.86-.56-1.47-.56c-.54,0-1.01.13-1.42.38s-.67.61-.8,1.05l.67.27c.2.08.35.18.43.29.09.11.13.26.13.47v3.27h.88v.98h-.8c-.39,0-.69-.1-.89-.32-.2-.21-.29-.49-.29-.84v-3.13l-1.17-.49c.03-.42.13-.81.3-1.16s.41-.66.69-.91c.29-.26.62-.46,1-.6.38-.14.79-.21,1.24-.21,1.02,0,1.79.27,2.33.8.54.54.8,1.27.8,2.19v1.81c0,1.39.54,2.09,1.61,2.09.21,0,.42-.03.62-.1.21-.06.39-.16.56-.29.17-.13.3-.29.4-.48.1-.19.15-.42.15-.67v-5.19h1.1v6.52h.88v.98h-.81c-.37,0-.63-.11-.8-.33-.17-.22-.27-.5-.29-.85h-.05c-.07.18-.17.34-.27.51-.11.16-.25.31-.42.43-.17.12-.37.22-.6.3s-.49.11-.8.11Z"/>
    <path d="M143.03,124.21c-.69,0-1.27-.12-1.76-.37-.49-.25-.89-.59-1.22-1.04l.78-.63c.28.38.61.67.98.84.37.18.8.27,1.3.27.55,0,.97-.1,1.26-.32.29-.21.43-.52.43-.93,0-.35-.11-.62-.34-.82-.22-.2-.58-.33-1.08-.41l-.65-.1c-.29-.05-.58-.11-.87-.19-.28-.08-.54-.2-.78-.36s-.42-.36-.56-.62c-.14-.26-.21-.58-.21-.96,0-.36.07-.67.2-.95.13-.27.32-.5.56-.69.24-.18.53-.32.86-.42.33-.1.69-.14,1.07-.14.65,0,1.19.11,1.63.32.43.22.8.5,1.09.84l-.7.66c-.2-.24-.47-.45-.81-.62-.34-.18-.75-.27-1.24-.27-.51,0-.91.11-1.18.32s-.41.5-.41.88c0,.4.13.69.4.85.27.16.63.28,1.1.36l.65.1c.34.05.65.13.93.22.28.09.53.22.73.38.21.17.37.37.49.61.12.24.18.54.18.89,0,.71-.25,1.27-.76,1.68-.51.41-1.2.61-2.08.61Z"/>
    <path d="M144,128.85c-.59,0-1.05-.16-1.36-.47s-.47-.7-.47-1.17v-.74h-.91v-.88h1.13c.27,0,.47.06.6.19.12.13.19.3.19.51v.69c0,.31.06.56.18.74s.33.27.65.27.54-.09.66-.27.18-.43.18-.74v-1.39h1.04v1.55c0,.49-.16.89-.47,1.22-.32.32-.79.49-1.41.49Z"/>
    <path d="M143.72,114.13h1.04v-.51c0-.24-.05-.4-.16-.5-.1-.1-.28-.14-.53-.14h-.36v-.82h.77c.41,0,.73.09.94.27s.32.43.32.73c0,.17-.04.34-.12.52s-.21.32-.38.4v.06h2.4v.82h-3.93v-.82Z"/>
    <path d="M150.75,124.04c-.39,0-.69-.1-.89-.32-.2-.21-.29-.49-.29-.84v-7.79c0-.29.04-.55.11-.77.07-.22.17-.41.29-.56.12-.16.26-.29.41-.39.16-.1.32-.19.49-.25v-.06h-2.99v-.91h4.27v.91h-.14c-.44,0-.77.12-1,.37-.23.25-.34.59-.34,1.04v8.58h1.15v.98h-1.07Z"/>
    <path d="M153.48,116.55h1.1v2.4l2.05-.3c.4-.06.73-.18.99-.34.26-.16.41-.44.45-.84l.11-.92h1.15l-.11.95c-.05.43-.21.77-.48,1.03-.27.26-.63.42-1.06.48v.07c.91.25,1.41.95,1.52,2.1l.28,2.87h-1.15l-.26-2.94c-.03-.23-.08-.44-.15-.65-.07-.2-.18-.37-.33-.51s-.33-.24-.56-.3c-.22-.06-.5-.07-.82-.02l-1.63.23v4.19h-1.1v-7.5Z"/>
    <path d="M164.92,124.21c-.32,0-.6-.04-.84-.12s-.44-.18-.62-.31c-.17-.13-.32-.27-.43-.44-.12-.17-.21-.34-.28-.52h-.07v1.22h-1.1v-7.5h1.1v5.19c0,.26.05.48.17.67.11.19.25.35.43.48.18.13.38.22.6.29.22.06.46.1.69.1.6,0,1.06-.18,1.37-.53.31-.35.46-.87.46-1.56v-4.64h1.1v4.78c0,.92-.23,1.64-.69,2.14s-1.09.75-1.89.75Z"/>
    <path d="M81.59,163.87c-.36,0-.62-.1-.8-.29-.18-.19-.27-.45-.27-.77v-5.86h1.01v6.02h1.06v.9h-1Z"/>
    <path d="M84.06,159.53c0-.41.07-.79.21-1.13.14-.34.34-.63.6-.87s.58-.42.95-.55c.37-.13.79-.19,1.25-.19s.87.06,1.24.19.69.31.95.55c.26.24.46.53.61.87.14.34.21.71.21,1.13v4.33h-1.01v-4.23c0-.63-.18-1.12-.53-1.46s-.84-.51-1.48-.51-1.13.17-1.48.51-.53.82-.53,1.46v1.65h.06c.06-.16.14-.31.24-.46.1-.15.23-.28.38-.39.15-.11.33-.2.54-.27.21-.07.45-.1.72-.1h.42v1.01h-.58c-.54,0-.97.11-1.29.32-.32.21-.48.5-.48.87v1.61h-1.01v-4.33Z"/>
    <path d="M94.56,164.02c-.63,0-1.17-.11-1.62-.34-.45-.23-.82-.55-1.13-.96l.72-.58c.26.35.56.61.91.78.34.17.74.25,1.2.25.51,0,.89-.1,1.16-.29.27-.19.4-.48.4-.86,0-.32-.1-.57-.31-.75-.21-.18-.54-.31-1-.37l-.6-.09c-.27-.04-.54-.1-.8-.18s-.5-.19-.72-.33c-.22-.14-.39-.33-.52-.57-.13-.24-.2-.53-.2-.89,0-.33.06-.62.18-.87.12-.25.29-.46.52-.63.22-.17.49-.3.79-.39.3-.09.63-.13.99-.13.6,0,1.1.1,1.5.3.4.2.74.46,1.01.78l-.65.61c-.19-.22-.44-.41-.75-.58-.31-.17-.69-.25-1.14-.25-.47,0-.84.1-1.09.29-.25.19-.38.46-.38.81,0,.37.12.63.37.79.25.15.58.26,1.01.33l.6.09c.31.05.6.12.86.2.26.08.49.2.68.35.19.15.34.34.45.56.11.22.17.5.17.82,0,.66-.23,1.18-.7,1.55-.47.38-1.11.56-1.92.56Z"/>
    <path d="M92.01,154.72h2.41v-.93h.9v.98h.91v-.98h.95v1.8h-5.17v-.87Z"/>
    <path d="M96.24,151.1h.94v1.89h-.94v-1.89Z"/>
    <path d="M101.59,164.02c-.41,0-.79-.06-1.14-.18-.36-.12-.66-.29-.93-.51s-.47-.49-.62-.8c-.15-.31-.23-.65-.23-1.03v-.65c0-.25.05-.45.15-.59.1-.14.32-.21.65-.21h1.34v.87h-1.12v.52c0,.3.05.55.15.77.1.22.23.4.4.54.17.14.37.24.61.31.24.07.5.1.78.1.63,0,1.13-.19,1.48-.58.36-.39.53-.93.53-1.63v-1.04c0-.71-.19-1.26-.58-1.65-.38-.39-.92-.59-1.6-.59-.52,0-.98.11-1.36.32-.38.21-.68.49-.9.85l-.66-.58c.24-.41.6-.76,1.08-1.04.49-.28,1.11-.42,1.88-.42,1.02,0,1.81.32,2.38.96.56.64.84,1.52.84,2.66,0,.55-.07,1.05-.2,1.5-.14.45-.34.83-.6,1.14-.27.31-.6.55-.99.72s-.85.25-1.36.25Z"/>
    <path d="M105.91,158.86h1.09l1.84,4.16h.04c.53,0,.94-.18,1.24-.55.29-.37.44-.88.44-1.54v-1.04c0-.65-.15-1.16-.44-1.52-.29-.36-.7-.54-1.24-.54h-.41v-.87h.42c.87,0,1.55.3,2.03.91s.72,1.46.72,2.55-.24,1.94-.72,2.55c-.48.61-1.15.91-2.02.91h-.79l-2.21-5.01Z"/>
    <path d="M116.13,164.02c-.47,0-.89-.08-1.26-.25-.37-.17-.68-.41-.93-.72-.25-.31-.45-.69-.58-1.13-.13-.45-.2-.95-.2-1.51s.08-1.04.23-1.48c.15-.45.37-.83.65-1.14.28-.31.63-.56,1.03-.73.41-.17.86-.26,1.37-.26.46,0,.87.07,1.25.2s.7.33.96.58c.27.25.47.55.62.9.14.35.21.74.21,1.17v4.22h-1.01v-4.08c0-.67-.18-1.19-.55-1.56-.37-.37-.87-.56-1.51-.56-.68,0-1.2.2-1.58.61-.38.41-.57.97-.57,1.67v.91c0,.74.17,1.31.51,1.7.34.39.86.58,1.56.58.09,0,.19,0,.29,0,.1,0,.2-.02.3-.04l.13.85c-.14.04-.3.07-.46.07-.16,0-.31,0-.44,0Z"/>
    <path d="M114.32,154.72h2.41v-.93h.9v.98h.91v-.98h.95v1.8h-5.17v-.87Z"/>
    <path d="M118.55,151.1h.94v1.89h-.94v-1.89Z"/>
    <path d="M124.66,164.02c-.3,0-.55-.04-.77-.11s-.41-.17-.57-.29c-.16-.12-.29-.25-.4-.41-.11-.15-.19-.31-.26-.48h-.06v1.13h-1.01v-6.92h1.01v4.79c0,.24.05.44.15.62s.23.33.4.44c.17.12.35.21.56.27s.42.09.64.09c.56,0,.98-.16,1.26-.49s.42-.8.42-1.44v-4.28h1.01v4.41c0,.85-.21,1.51-.63,1.97s-1.01.69-1.75.69Z"/>
    <path d="M130.6,163.87c-.36,0-.62-.1-.8-.29-.18-.19-.27-.45-.27-.77v-5.86h1.01v6.02h1.06v.9h-1ZM133.9,163.87c-.35,0-.62-.1-.8-.29s-.27-.45-.27-.77v-5.86h1.01v6.02h1.07v.9h-1Z"/>
    <path d="M139.07,164.02c-.96,0-1.7-.32-2.2-.96-.5-.64-.75-1.53-.75-2.68s.17-2.01.51-2.64c.34-.63.87-.94,1.58-.94.32,0,.61.08.87.25s.43.42.51.75h.05c.09-.33.27-.58.53-.75s.55-.25.88-.25c.51,0,.9.16,1.17.48.27.32.41.77.41,1.34v5.25h-1.01v-5.23c0-.33-.07-.57-.21-.73-.14-.16-.34-.23-.59-.23-.15,0-.28.03-.39.08s-.2.13-.27.23-.12.21-.17.33-.07.25-.09.37h-.66c-.02-.13-.04-.25-.08-.37-.03-.12-.08-.23-.15-.32s-.16-.18-.27-.23c-.11-.06-.25-.09-.41-.09-.22,0-.4.05-.54.16s-.26.26-.35.46-.15.42-.19.69-.06.56-.06.87v1.01c0,.7.16,1.26.49,1.67.33.41.84.61,1.55.61.09,0,.19,0,.3-.01.11,0,.21-.02.31-.04l.13.85c-.16.03-.32.05-.47.06-.16,0-.3.01-.44.01Z"/>
    <path d="M141.64,153.25h.99v2.35h-.99v-2.35Z"/>
    <path d="M146.75,163.99c-.7,0-1.26-.17-1.67-.52-.41-.35-.62-.85-.62-1.51s.2-1.14.61-1.48c.41-.35.97-.52,1.68-.52h2.21v-.66c0-1.09-.6-1.63-1.79-1.63-.51,0-.93.1-1.27.31-.34.21-.62.49-.83.86l-.65-.57c.22-.41.56-.76,1.01-1.05.46-.28,1.05-.42,1.79-.42.88,0,1.56.22,2.03.65.48.44.72,1.04.72,1.81v4.61h-1.01v-3.18h-1.98c-.46,0-.81.1-1.06.29-.25.19-.38.47-.38.82v.29c0,.38.12.67.35.87.23.2.55.3.94.3.12,0,.22,0,.3-.01.08,0,.15-.02.2-.03l.09.7c-.05.03-.15.04-.29.06-.14.01-.26.02-.37.02Z"/>
    <path d="M153.15,159.34c-.38,0-.66-.09-.84-.28-.18-.19-.27-.43-.27-.74v-.54h1.01v.68h2.19v.87h-2.1ZM153.15,162.6c-.38,0-.66-.09-.84-.28-.18-.19-.27-.43-.27-.73v-.55h1.01v.68h2.19v.87h-2.1Z"/>
    <path d="M159.86,164.02c-.79,0-1.43-.2-1.92-.61-.49-.4-.73-1.02-.73-1.85,0-.24.02-.46.06-.65.04-.19.09-.36.15-.52.06-.16.14-.3.22-.44.08-.13.18-.27.28-.39.18-.24.33-.46.44-.68.12-.22.18-.45.18-.7v-.34h-1.44v-.9h1.48c.31,0,.55.08.72.25.17.17.25.38.25.65v.11c0,.3-.06.58-.17.84-.11.26-.28.56-.5.91-.19.3-.34.56-.43.8s-.14.5-.14.79v.39c0,.5.14.86.42,1.1.28.23.65.35,1.12.35s.85-.12,1.12-.35.39-.56.39-1v-1.1c0-.43-.08-.76-.25-1s-.4-.35-.7-.35h-.35v-.81h.38c.3,0,.53-.09.7-.26.17-.17.26-.45.26-.84v-.7h1.01v.66c0,.21-.04.4-.11.56-.08.16-.17.31-.29.42-.12.12-.25.21-.41.29-.16.07-.32.12-.48.15v.06c.45.13.78.4,1,.82s.33.93.33,1.51c0,.87-.22,1.55-.67,2.05-.45.5-1.08.75-1.9.75Z"/>
    <path d="M166.68,164.02c-.73,0-1.31-.23-1.72-.7s-.62-1.12-.62-1.96v-4.41h1.01v4.28c0,1.28.55,1.93,1.65,1.93.21,0,.42-.03.63-.09.21-.06.4-.15.56-.27.16-.12.29-.27.39-.44s.15-.38.15-.62v-4.79h1.01v6.02h.81v.9h-.75c-.34,0-.58-.1-.74-.3s-.25-.46-.27-.77h-.05c-.14.39-.39.69-.75.91-.37.22-.8.32-1.31.32Z"/>
    <path d="M164.57,154.72h5.17v.87h-5.17v-.87Z"/>
    <path d="M174.73,164.02c-.47,0-.89-.08-1.26-.25-.37-.17-.68-.41-.93-.72-.25-.31-.45-.69-.58-1.13-.13-.45-.2-.95-.2-1.51s.08-1.04.23-1.48c.15-.45.37-.83.65-1.14.28-.31.63-.56,1.03-.73.41-.17.86-.26,1.37-.26.46,0,.87.07,1.25.2s.7.33.96.58c.27.25.47.55.62.9.14.35.21.74.21,1.17v4.22h-1.01v-4.08c0-.67-.18-1.19-.55-1.56-.37-.37-.87-.56-1.51-.56-.68,0-1.2.2-1.58.61-.38.41-.57.97-.57,1.67v.91c0,.74.17,1.31.51,1.7.34.39.86.58,1.56.58.09,0,.19,0,.29,0,.1,0,.2-.02.3-.04l.13.85c-.14.04-.3.07-.46.07-.16,0-.31,0-.44,0Z"/>
    <path d="M183.26,164.02c-.3,0-.55-.04-.77-.11s-.41-.17-.57-.29c-.16-.12-.29-.25-.4-.41-.11-.15-.19-.31-.26-.48h-.06v1.13h-1.01v-6.92h1.01v4.79c0,.24.05.44.15.62s.23.33.4.44c.17.12.35.21.56.27s.42.09.64.09c.56,0,.98-.16,1.26-.49s.42-.8.42-1.44v-4.28h1.01v4.41c0,.85-.21,1.51-.63,1.97s-1.01.69-1.75.69Z"/>
    <path d="M180.47,154.72h4.18v-.93h.99v1.8h-5.17v-.87Z"/>
    <path d="M189.76,163.99c-.7,0-1.26-.17-1.67-.52-.41-.35-.62-.85-.62-1.51s.2-1.14.61-1.48c.41-.35.97-.52,1.68-.52h2.21v-.66c0-1.09-.6-1.63-1.79-1.63-.51,0-.93.1-1.27.31-.34.21-.62.49-.83.86l-.65-.57c.22-.41.56-.76,1.01-1.05.46-.28,1.05-.42,1.79-.42s1.31.15,1.76.46c.03-.44.27-.66.71-.66h1.69v.94h-2.04c.42.42.63,1,.63,1.72v4.61h-1.01v-3.18h-1.98c-.46,0-.81.1-1.06.29-.25.19-.38.47-.38.82v.29c0,.38.12.67.35.87.23.2.55.3.94.3.12,0,.22,0,.3-.01.08,0,.15-.02.2-.03l.09.7c-.05.03-.15.04-.29.06-.14.01-.26.02-.37.02Z"/>
    <path d="M198.52,159.12c0-.97-.5-1.46-1.51-1.46-.41,0-.74.09-1,.27-.26.18-.48.41-.65.71l-.62-.54c.19-.37.48-.68.86-.93.38-.24.87-.37,1.48-.37.79,0,1.4.19,1.83.58.42.39.63.94.63,1.65v4.84h-1.01v-4.75Z"/>
    <path d="M203.99,164.02c-.63,0-1.17-.11-1.62-.34-.45-.23-.82-.55-1.13-.96l.72-.58c.26.35.56.61.91.78.34.17.74.25,1.2.25.51,0,.89-.1,1.16-.29.27-.19.4-.48.4-.86,0-.32-.1-.57-.31-.75-.21-.18-.54-.31-1-.37l-.6-.09c-.27-.04-.54-.1-.8-.18s-.5-.19-.72-.33c-.22-.14-.39-.33-.52-.57-.13-.24-.2-.53-.2-.89,0-.33.06-.62.18-.87.12-.25.29-.46.52-.63.22-.17.49-.3.79-.39.3-.09.63-.13.99-.13.6,0,1.1.1,1.5.3.4.2.74.46,1.01.78l-.65.61c-.19-.22-.44-.41-.75-.58-.31-.17-.69-.25-1.14-.25-.47,0-.84.1-1.09.29-.25.19-.38.46-.38.81,0,.37.12.63.37.79.25.15.58.26,1.01.33l.6.09c.31.05.6.12.86.2.26.08.49.2.68.35.19.15.34.34.45.56.11.22.17.5.17.82,0,.66-.23,1.18-.7,1.55-.47.38-1.11.56-1.92.56Z"/>
    <path d="M49.13,183.78c-.36,0-.62-.1-.8-.29-.18-.19-.27-.45-.27-.77v-5.86h1.01v6.02h1.06v.9h-1ZM52.42,183.78c-.35,0-.62-.1-.8-.29s-.27-.45-.27-.77v-5.86h1.01v6.02h1.07v.9h-1Z"/>
    <path d="M56.98,183.91c-.7,0-1.26-.17-1.67-.52-.41-.35-.62-.85-.62-1.51s.2-1.14.61-1.48c.41-.35.97-.52,1.68-.52h2.21v-.66c0-1.09-.6-1.63-1.79-1.63-.51,0-.93.1-1.27.31-.34.21-.62.49-.83.86l-.65-.57c.22-.41.56-.76,1.01-1.05.46-.28,1.05-.42,1.79-.42.88,0,1.56.22,2.03.65.48.44.72,1.04.72,1.81v4.61h-1.01v-3.18h-1.98c-.46,0-.81.1-1.06.29-.25.19-.38.47-.38.82v.29c0,.38.12.67.35.87.23.2.55.3.94.3.12,0,.22,0,.3-.01.08,0,.15-.02.2-.03l.09.7c-.05.03-.15.04-.29.06-.14.01-.26.02-.37.02Z"/>
    <path d="M63.39,179.26c-.38,0-.66-.09-.84-.28-.18-.19-.27-.43-.27-.74v-.54h1.01v.68h2.19v.87h-2.1ZM63.39,182.51c-.38,0-.66-.09-.84-.28-.18-.19-.27-.43-.27-.73v-.55h1.01v.68h2.19v.87h-2.1Z"/>
    <path d="M67.52,179.45c0-.41.07-.79.21-1.13.14-.34.34-.63.6-.87s.58-.42.95-.55c.37-.13.79-.19,1.25-.19s.87.06,1.24.19.69.31.95.55c.26.24.46.53.61.87.14.34.21.71.21,1.13v4.33h-1.01v-4.23c0-.63-.18-1.12-.53-1.46s-.84-.51-1.48-.51-1.13.17-1.48.51-.53.82-.53,1.46v1.65h.06c.06-.16.14-.31.24-.46.1-.15.23-.28.38-.39.15-.11.33-.2.54-.27.21-.07.45-.1.72-.1h.42v1.01h-.58c-.54,0-.97.11-1.29.32-.32.21-.48.5-.48.87v1.61h-1.01v-4.33Z"/>
    <path d="M72.59,186.02h-.84v-.81h1.08c.25,0,.44.07.55.2.11.13.17.32.17.54v2.18h-.96v-2.12Z"/>
    <path d="M82.23,183.93c-.68,0-1.22-.23-1.6-.69-.38-.46-.58-1.12-.58-1.97v-1.67c0-.66-.17-1.16-.51-1.5s-.79-.51-1.36-.51c-.5,0-.94.12-1.31.35-.38.24-.62.56-.74.97l.62.25c.19.08.32.16.4.27.08.1.12.24.12.43v3.02h.81v.9h-.74c-.36,0-.64-.1-.82-.29s-.27-.45-.27-.77v-2.89l-1.08-.46c.03-.39.12-.75.28-1.07.16-.33.37-.61.64-.84.27-.24.57-.42.92-.55s.73-.2,1.15-.2c.94,0,1.65.25,2.15.74s.74,1.17.74,2.02v1.67c0,1.28.49,1.93,1.48,1.93.19,0,.39-.03.58-.09.19-.06.36-.15.51-.27.15-.12.27-.27.37-.44s.14-.38.14-.62v-4.79h1.01v6.02h.81v.9h-.75c-.34,0-.58-.1-.74-.31s-.25-.47-.27-.78h-.05c-.07.16-.15.32-.25.47-.1.15-.23.28-.39.4-.16.12-.34.21-.55.28-.21.07-.46.1-.74.1Z"/>
    <path d="M89.52,183.91c-.7,0-1.26-.17-1.67-.52-.41-.35-.62-.85-.62-1.51s.2-1.14.61-1.48c.41-.35.97-.52,1.68-.52h2.21v-.66c0-1.09-.6-1.63-1.79-1.63-.51,0-.93.1-1.27.31-.34.21-.62.49-.83.86l-.65-.57c.22-.41.56-.76,1.01-1.05.46-.28,1.05-.42,1.79-.42s1.31.15,1.76.46c.03-.44.27-.66.71-.66h1.69v.94h-2.04c.42.42.63,1,.63,1.72v4.61h-1.01v-3.18h-1.98c-.46,0-.81.1-1.06.29-.25.19-.38.47-.38.82v.29c0,.38.12.67.35.87.23.2.55.3.94.3.12,0,.22,0,.3-.01.08,0,.15-.02.2-.03l.09.7c-.05.03-.15.04-.29.06-.14.01-.26.02-.37.02Z"/>
    <path d="M98.34,183.93c-.3,0-.55-.04-.77-.11s-.41-.17-.57-.29c-.16-.12-.29-.25-.4-.41-.11-.15-.19-.31-.26-.48h-.06v1.13h-1.01v-6.92h1.01v4.79c0,.24.05.44.15.62s.23.33.4.44c.17.12.35.21.56.27s.42.09.64.09c.56,0,.98-.16,1.26-.49s.42-.8.42-1.44v-4.28h1.01v4.41c0,.85-.21,1.51-.63,1.97s-1.01.69-1.75.69Z"/>
    <path d="M105.64,183.93c-.9,0-1.6-.24-2.12-.73s-.77-1.15-.77-2v-4.35h1.01v4.25c0,.63.17,1.12.5,1.45.33.33.79.5,1.38.5s1.04-.17,1.38-.5c.33-.33.5-.82.5-1.45v-4.25h1.01v4.35c0,.84-.26,1.51-.77,2s-1.22.73-2.12.73Z"/>
    <path d="M107.47,175.5c-.38,0-.66-.09-.84-.28-.18-.19-.27-.43-.27-.74v-.79h1.01v.93h3.23v.87h-3.14Z"/>
    <path d="M113.26,183.93c-.96,0-1.7-.32-2.2-.96-.5-.64-.75-1.53-.75-2.68s.17-2.01.51-2.64c.34-.63.87-.94,1.58-.94.32,0,.61.08.87.25s.43.42.51.75h.05c.09-.33.27-.58.53-.75s.55-.25.88-.25c.51,0,.9.16,1.17.48.27.32.41.77.41,1.34v5.25h-1.01v-5.23c0-.33-.07-.57-.21-.73-.14-.16-.34-.23-.59-.23-.15,0-.28.03-.39.08s-.2.13-.27.23-.12.21-.17.33-.07.25-.09.37h-.66c-.02-.13-.04-.25-.08-.37-.03-.12-.08-.23-.15-.32s-.16-.18-.27-.23c-.11-.06-.25-.09-.41-.09-.22,0-.4.05-.54.16s-.26.26-.35.46-.15.42-.19.69-.06.56-.06.87v1.01c0,.7.16,1.26.49,1.67.33.41.84.61,1.55.61.09,0,.19,0,.3-.01.11,0,.21-.02.31-.04l.13.85c-.16.03-.32.05-.47.06-.16,0-.3.01-.44.01Z"/>
    <path d="M111.65,174.63h5.17v.87h-5.17v-.87Z"/>
    <path d="M118.91,176.86h1.01v1.13h.06c.07-.16.15-.32.26-.48.11-.16.24-.29.41-.41.17-.12.36-.21.58-.29.22-.07.48-.11.78-.11.74,0,1.31.23,1.73.69.42.46.63,1.12.63,1.97v4.41h-1.01v-4.28c0-1.28-.56-1.93-1.67-1.93-.22,0-.44.03-.65.09-.21.06-.4.15-.56.27-.17.12-.3.27-.4.44s-.15.38-.15.62v4.79h-1.01v-6.92Z"/>
    <path d="M119.21,174.63h4.18v-.93h.99v1.8h-5.17v-.87Z"/>
    <path d="M123.44,171.02h.94v1.89h-.94v-1.89Z"/>
    <path d="M128.98,183.93c-.79,0-1.43-.2-1.92-.61-.49-.4-.73-1.02-.73-1.85,0-.24.02-.46.06-.65.04-.19.09-.36.15-.52.06-.16.14-.3.22-.44.08-.13.18-.27.28-.39.18-.24.33-.46.44-.68.12-.22.18-.45.18-.7v-.34h-1.44v-.9h1.48c.31,0,.55.08.72.25.17.17.25.38.25.65v.11c0,.3-.06.58-.17.84-.11.26-.28.56-.5.91-.19.3-.34.56-.43.8s-.14.5-.14.79v.39c0,.5.14.86.42,1.1.28.23.65.35,1.12.35s.85-.12,1.12-.35.39-.56.39-1v-1.1c0-.43-.08-.76-.25-1s-.4-.35-.7-.35h-.35v-.81h.38c.3,0,.53-.09.7-.26.17-.17.26-.45.26-.84v-.7h1.01v.66c0,.21-.04.4-.11.56-.08.16-.17.31-.29.42-.12.12-.25.21-.41.29-.16.07-.32.12-.48.15v.06c.45.13.78.4,1,.82s.33.93.33,1.51c0,.87-.22,1.55-.67,2.05-.45.5-1.08.75-1.9.75Z"/>
    <path d="M130.52,173.16h.99v2.35h-.99v-2.35Z"/>
    <path d="M135.57,183.93c-.33,0-.65-.04-.95-.12-.3-.08-.57-.19-.79-.34l.38-.75c.36.22.81.33,1.33.33.58,0,1.04-.2,1.36-.59.32-.39.48-.94.48-1.63v-1.04c0-.68-.15-1.23-.46-1.62-.31-.4-.77-.6-1.38-.6-.46,0-.83.09-1.13.29-.3.19-.52.45-.68.79l-.82-.42c.21-.46.54-.83.98-1.11.44-.28,1-.42,1.69-.42.95,0,1.67.32,2.16.96.49.64.74,1.52.74,2.66s-.25,2.02-.76,2.66c-.51.64-1.22.96-2.14.96Z"/>
    <path d="M142.83,183.93c-.84,0-1.5-.18-1.97-.54-.47-.36-.7-.87-.7-1.53,0-.42.12-.77.37-1.05s.55-.46.92-.56v-.06c-.41-.09-.74-.29-.98-.58-.24-.29-.36-.66-.36-1.1,0-.54.17-.98.5-1.31s.8-.49,1.39-.49c.18,0,.36.01.55.04.19.03.37.09.53.17l-.22.77c-.24-.09-.46-.14-.67-.14-.37,0-.65.1-.84.3s-.29.45-.29.77c0,.14.02.27.05.41.03.14.1.26.19.36.09.11.22.19.39.26.17.07.38.1.65.1h.74v.72h-.74c-.32,0-.59.09-.8.28-.22.19-.32.46-.32.81v.32c0,.38.14.67.42.88.28.21.68.31,1.2.31.62,0,1.1-.16,1.45-.48s.53-.78.53-1.38v-4.36h1.01v4.51c0,.39-.07.74-.21,1.06-.14.32-.34.58-.6.8s-.58.39-.94.51c-.37.12-.78.18-1.24.18Z"/>
    <path d="M150.74,183.93c-.9,0-1.6-.24-2.12-.73s-.77-1.15-.77-2v-4.35h1.01v4.25c0,.63.17,1.12.5,1.45.33.33.79.5,1.38.5s1.04-.17,1.38-.5c.33-.33.5-.82.5-1.45v-6.48h1.01v6.58c0,.84-.26,1.51-.77,2s-1.22.73-2.12.73Z"/>
    <path d="M158.09,183.93c-.63,0-1.17-.11-1.62-.34-.45-.23-.82-.55-1.13-.96l.72-.58c.26.35.56.61.91.78.34.17.74.25,1.2.25.51,0,.89-.1,1.16-.29.27-.19.4-.48.4-.86,0-.32-.1-.57-.31-.75-.21-.18-.54-.31-1-.37l-.6-.09c-.27-.04-.54-.1-.8-.18s-.5-.19-.72-.33c-.22-.14-.39-.33-.52-.57-.13-.24-.2-.53-.2-.89,0-.33.06-.62.18-.87.12-.25.29-.46.52-.63.22-.17.49-.3.79-.39.3-.09.63-.13.99-.13.6,0,1.1.1,1.5.3.4.2.74.46,1.01.78l-.65.61c-.19-.22-.44-.41-.75-.58-.31-.17-.69-.25-1.14-.25-.47,0-.84.1-1.09.29-.25.19-.38.46-.38.81,0,.37.12.63.37.79.25.15.58.26,1.01.33l.6.09c.31.05.6.12.86.2.26.08.49.2.68.35.19.15.34.34.45.56.11.22.17.5.17.82,0,.66-.23,1.18-.7,1.55-.47.38-1.11.56-1.92.56Z"/>
    <path d="M159.65,175.5c-.38,0-.66-.09-.84-.28-.18-.19-.27-.43-.27-.74v-.79h1.01v.93h3.23v.87h-3.14Z"/>
    <path d="M165.29,183.93c-.9,0-1.6-.24-2.12-.73s-.77-1.15-.77-2v-4.35h1.01v4.25c0,.63.17,1.12.5,1.45.33.33.79.5,1.38.5s1.04-.17,1.38-.5c.33-.33.5-.82.5-1.45v-4.25h1.01v4.35c0,.84-.26,1.51-.77,2s-1.22.73-2.12.73Z"/>
    <path d="M172.3,183.91c-.7,0-1.26-.17-1.67-.52-.41-.35-.62-.85-.62-1.51s.2-1.14.61-1.48c.41-.35.97-.52,1.68-.52h2.21v-.66c0-1.09-.6-1.63-1.79-1.63-.51,0-.93.1-1.27.31-.34.21-.62.49-.83.86l-.65-.57c.22-.41.56-.76,1.01-1.05.46-.28,1.05-.42,1.79-.42s1.31.15,1.76.46c.03-.44.27-.66.71-.66h1.69v.94h-2.04c.42.42.63,1,.63,1.72v4.61h-1.01v-3.18h-1.98c-.46,0-.81.1-1.06.29-.25.19-.38.47-.38.82v.29c0,.38.12.67.35.87.23.2.55.3.94.3.12,0,.22,0,.3-.01.08,0,.15-.02.2-.03l.09.7c-.05.03-.15.04-.29.06-.14.01-.26.02-.37.02Z"/>
    <path d="M181.12,183.93c-.3,0-.55-.04-.77-.11s-.41-.17-.57-.29c-.16-.12-.29-.25-.4-.41-.11-.15-.19-.31-.26-.48h-.06v1.13h-1.01v-6.92h1.01v4.79c0,.24.05.44.15.62s.23.33.4.44c.17.12.35.21.56.27s.42.09.64.09c.56,0,.98-.16,1.26-.49s.42-.8.42-1.44v-4.28h1.01v4.41c0,.85-.21,1.51-.63,1.97s-1.01.69-1.75.69Z"/>
    <path d="M188.24,183.93c-.47,0-.89-.08-1.26-.25-.37-.17-.68-.41-.93-.72-.25-.31-.45-.69-.58-1.13-.13-.45-.2-.95-.2-1.51s.08-1.04.23-1.48c.15-.45.37-.83.65-1.14.28-.31.63-.56,1.03-.73.41-.17.86-.26,1.37-.26.46,0,.87.07,1.25.2s.7.33.96.58c.27.25.47.55.62.9.14.35.21.74.21,1.17v4.22h-1.01v-4.08c0-.67-.18-1.19-.55-1.56-.37-.37-.87-.56-1.51-.56-.68,0-1.2.2-1.58.61-.38.41-.57.97-.57,1.67v.91c0,.74.17,1.31.51,1.7.34.39.86.58,1.56.58.09,0,.19,0,.29,0,.1,0,.2-.02.3-.04l.13.85c-.14.04-.3.07-.46.07-.16,0-.31,0-.44,0Z"/>
    <path d="M190.64,186.02h-.84v-.81h1.08c.25,0,.44.07.55.2.11.13.17.32.17.54v2.18h-.96v-2.12Z"/>
    <path d="M195.72,183.91c-.7,0-1.26-.17-1.67-.52-.41-.35-.62-.85-.62-1.51s.2-1.14.61-1.48c.41-.35.97-.52,1.68-.52h2.21v-.66c0-1.09-.6-1.63-1.79-1.63-.51,0-.93.1-1.27.31-.34.21-.62.49-.83.86l-.65-.57c.22-.41.56-.76,1.01-1.05.46-.28,1.05-.42,1.79-.42.88,0,1.56.22,2.03.65.48.44.72,1.04.72,1.81v4.61h-1.01v-3.18h-1.98c-.46,0-.81.1-1.06.29-.25.19-.38.47-.38.82v.29c0,.38.12.67.35.87.23.2.55.3.94.3.12,0,.22,0,.3-.01.08,0,.15-.02.2-.03l.09.7c-.05.03-.15.04-.29.06-.14.01-.26.02-.37.02Z"/>
    <path d="M203.69,183.93c-.41,0-.79-.06-1.14-.18-.36-.12-.66-.29-.93-.51s-.47-.49-.62-.8c-.15-.31-.23-.65-.23-1.03v-.65c0-.25.05-.45.15-.59.1-.14.32-.21.65-.21h1.34v.87h-1.12v.52c0,.3.05.55.15.77.1.22.23.4.4.54.17.14.37.24.61.31.24.07.5.1.78.1.63,0,1.13-.19,1.48-.58.36-.39.53-.93.53-1.63v-1.04c0-.71-.19-1.26-.58-1.65-.38-.39-.92-.59-1.6-.59-.52,0-.98.11-1.36.32-.38.21-.68.49-.9.85l-.66-.58c.24-.41.6-.76,1.08-1.04.49-.28,1.11-.42,1.88-.42,1.02,0,1.81.32,2.38.96.56.64.84,1.52.84,2.66,0,.55-.07,1.05-.2,1.5-.14.45-.34.83-.6,1.14-.27.31-.6.55-.99.72s-.85.25-1.36.25Z"/>
    <path d="M211.58,179.03c0-.97-.5-1.46-1.51-1.46-.41,0-.74.09-1,.27-.26.18-.48.41-.65.71l-.62-.54c.19-.37.48-.68.86-.93.38-.24.87-.37,1.48-.37.79,0,1.4.19,1.83.58.42.39.63.94.63,1.65v4.84h-1.01v-4.75Z"/>
    <path d="M217.05,183.93c-.63,0-1.17-.11-1.62-.34-.45-.23-.82-.55-1.13-.96l.72-.58c.26.35.56.61.91.78.34.17.74.25,1.2.25.51,0,.89-.1,1.16-.29.27-.19.4-.48.4-.86,0-.32-.1-.57-.31-.75-.21-.18-.54-.31-1-.37l-.6-.09c-.27-.04-.54-.1-.8-.18s-.5-.19-.72-.33c-.22-.14-.39-.33-.52-.57-.13-.24-.2-.53-.2-.89,0-.33.06-.62.18-.87.12-.25.29-.46.52-.63.22-.17.49-.3.79-.39.3-.09.63-.13.99-.13.6,0,1.1.1,1.5.3.4.2.74.46,1.01.78l-.65.61c-.19-.22-.44-.41-.75-.58-.31-.17-.69-.25-1.14-.25-.47,0-.84.1-1.09.29-.25.19-.38.46-.38.81,0,.37.12.63.37.79.25.15.58.26,1.01.33l.6.09c.31.05.6.12.86.2.26.08.49.2.68.35.19.15.34.34.45.56.11.22.17.5.17.82,0,.66-.23,1.18-.7,1.55-.47.38-1.11.56-1.92.56Z"/>
    <path d="M224.51,183.93c-.3,0-.55-.04-.77-.11s-.41-.17-.57-.29c-.16-.12-.29-.25-.4-.41-.11-.15-.19-.31-.26-.48h-.06v1.13h-1.01v-6.92h1.01v4.79c0,.24.05.44.15.62s.23.33.4.44c.17.12.35.21.56.27s.42.09.64.09c.56,0,.98-.16,1.26-.49s.42-.8.42-1.44v-4.28h1.01v4.41c0,.85-.21,1.51-.63,1.97s-1.01.69-1.75.69Z"/>
    <path d="M235.57,183.93c-.68,0-1.22-.23-1.6-.69-.38-.46-.58-1.12-.58-1.97v-1.67c0-.66-.17-1.16-.51-1.5s-.79-.51-1.36-.51c-.5,0-.94.12-1.31.35-.38.24-.62.56-.74.97l.62.25c.19.08.32.16.4.27.08.1.12.24.12.43v3.02h.81v.9h-.74c-.36,0-.64-.1-.82-.29s-.27-.45-.27-.77v-2.89l-1.08-.46c.03-.39.12-.75.28-1.07.16-.33.37-.61.64-.84.27-.24.57-.42.92-.55s.73-.2,1.15-.2c.94,0,1.65.25,2.15.74s.74,1.17.74,2.02v1.67c0,1.28.49,1.93,1.48,1.93.19,0,.39-.03.58-.09.19-.06.36-.15.51-.27.15-.12.27-.27.37-.44s.14-.38.14-.62v-4.79h1.01v6.02h.81v.9h-.75c-.34,0-.58-.1-.74-.31s-.25-.47-.27-.78h-.05c-.07.16-.15.32-.25.47-.1.15-.23.28-.39.4-.16.12-.34.21-.55.28-.21.07-.46.1-.74.1Z"/>
    <path d="M236.47,174.7c0-.3.09-.55.27-.73s.46-.27.84-.27h2.51v.86h-2.6v.94h-1.01v-.8Z"/>
    <path d="M109.84,203.69c-.36,0-.62-.1-.8-.29-.18-.19-.27-.45-.27-.77v-5.86h1.01v6.02h1.06v.9h-1ZM113.13,203.69c-.35,0-.62-.1-.8-.29-.18-.19-.27-.45-.27-.77v-5.86h1.01v6.02h1.07v.9h-1Z"/>
    <path d="M118.3,203.85c-.96,0-1.7-.32-2.2-.96s-.75-1.53-.75-2.68.17-2.01.51-2.64c.34-.63.87-.94,1.58-.94.32,0,.61.08.87.25.26.17.43.42.51.75h.05c.09-.33.27-.58.53-.75.26-.17.55-.25.88-.25.51,0,.9.16,1.17.48s.41.77.41,1.34v5.25h-1.01v-5.23c0-.33-.07-.57-.21-.73-.14-.16-.34-.23-.59-.23-.15,0-.28.03-.39.08-.11.05-.2.13-.27.23-.07.1-.12.21-.17.33-.04.12-.07.25-.09.37h-.66c-.02-.13-.04-.25-.08-.37-.03-.12-.08-.23-.15-.32-.07-.1-.16-.17-.27-.23-.11-.06-.25-.09-.41-.09-.22,0-.4.06-.54.17-.14.11-.26.26-.35.46s-.15.42-.19.69c-.04.27-.06.56-.06.87v1.01c0,.7.16,1.26.49,1.67.33.41.84.61,1.55.61.09,0,.19,0,.3-.01.11,0,.21-.02.31-.04l.13.85c-.16.03-.32.05-.47.06-.16,0-.3.01-.44.01Z"/>
    <path d="M124.58,199.74l-1.08-.46c.03-.39.12-.75.29-1.07s.38-.61.65-.84c.27-.24.58-.42.94-.55s.75-.2,1.17-.2c.99,0,1.74.25,2.27.74.52.49.79,1.16.79,2.01v4.32h-1.01v-4.2c0-.66-.18-1.16-.55-1.5-.37-.34-.85-.51-1.45-.51-.26,0-.51.03-.74.1-.23.06-.44.15-.63.27s-.35.25-.48.42c-.14.16-.23.35-.29.55l.63.25c.18.07.31.15.39.26s.12.25.12.44v3.92h-1.01v-3.95Z"/>
    <path d="M134.34,203.85c-.96,0-1.7-.32-2.2-.96s-.75-1.53-.75-2.68.17-2.01.51-2.64c.34-.63.87-.94,1.58-.94.32,0,.61.08.87.25.26.17.43.42.51.75h.05c.09-.33.27-.58.53-.75.26-.17.55-.25.88-.25.51,0,.9.16,1.17.48s.41.77.41,1.34v5.25h-1.01v-5.23c0-.33-.07-.57-.21-.73-.14-.16-.34-.23-.59-.23-.15,0-.28.03-.39.08-.11.05-.2.13-.27.23-.07.1-.12.21-.17.33-.04.12-.07.25-.09.37h-.66c-.02-.13-.04-.25-.08-.37-.03-.12-.08-.23-.15-.32-.07-.1-.16-.17-.27-.23-.11-.06-.25-.09-.41-.09-.22,0-.4.06-.54.17-.14.11-.26.26-.35.46s-.15.42-.19.69c-.04.27-.06.56-.06.87v1.01c0,.7.16,1.26.49,1.67.33.41.84.61,1.55.61.09,0,.19,0,.3-.01.11,0,.21-.02.31-.04l.13.85c-.16.03-.32.05-.47.06-.16,0-.3.01-.44.01Z"/>
    <path d="M136.91,193.07h.99v2.35h-.99v-2.35Z"/>
    <path d="M142.88,198.94c0-.97-.5-1.46-1.51-1.46-.41,0-.74.09-1,.27s-.48.41-.65.71l-.62-.54c.19-.37.48-.68.86-.93.38-.25.87-.37,1.48-.37.79,0,1.4.19,1.83.58.42.39.63.94.63,1.65v4.84h-1.01v-4.75Z"/>
    <path d="M145.31,198.69h1.09l1.84,4.16h.04c.53,0,.94-.18,1.24-.55.29-.37.44-.88.44-1.54v-1.04c0-.65-.15-1.16-.44-1.52-.29-.36-.7-.54-1.24-.54h-.41v-.87h.42c.87,0,1.55.3,2.03.91s.72,1.46.72,2.55-.24,1.94-.72,2.55c-.48.61-1.15.91-2.02.91h-.79l-2.21-5.01Z"/>
    <path d="M153.5,199.74l-1.08-.46c.03-.39.12-.75.29-1.07s.38-.61.65-.84c.27-.24.58-.42.94-.55s.75-.2,1.17-.2c.99,0,1.74.25,2.27.74.52.49.79,1.16.79,2.01v4.32h-1.01v-4.2c0-.66-.18-1.16-.55-1.5-.37-.34-.85-.51-1.45-.51-.26,0-.51.03-.74.1-.23.06-.44.15-.63.27s-.35.25-.48.42c-.14.16-.23.35-.29.55l.63.25c.18.07.31.15.39.26s.12.25.12.44v3.92h-1.01v-3.95Z"/>
    <path d="M157.47,195.42c-.38,0-.66-.09-.84-.28-.18-.19-.27-.43-.27-.74v-.79h1.01v.93h3.23v.87h-3.14Z"/>
    <path d="M162.91,203.85c-.73,0-1.31-.23-1.72-.7s-.62-1.12-.62-1.96v-4.41h1.01v4.28c0,1.29.55,1.93,1.65,1.93.21,0,.42-.03.63-.09.21-.06.4-.15.56-.27.16-.12.29-.27.39-.44.1-.18.15-.38.15-.62v-4.79h1.01v6.02h.81v.9h-.75c-.34,0-.58-.1-.74-.3-.16-.2-.25-.46-.27-.77h-.05c-.14.39-.39.69-.75.91-.37.21-.8.32-1.31.32Z"/>
    <path d="M169.79,203.69c-.36,0-.64-.1-.82-.29-.18-.19-.27-.45-.27-.77v-7.19c0-.27.03-.51.1-.71.07-.2.16-.38.27-.52.11-.14.24-.26.38-.36s.3-.18.46-.23v-.05h-2.76v-.84h3.94v.84h-.13c-.41,0-.71.11-.93.34-.21.23-.32.55-.32.96v7.92h1.06v.9h-.99Z"/>
    <path d="M175.14,203.85c-.9,0-1.6-.24-2.12-.73-.52-.49-.77-1.15-.77-2v-4.35h1.01v4.25c0,.63.17,1.12.5,1.45.33.33.79.5,1.38.5s1.04-.17,1.38-.5c.33-.33.5-.82.5-1.45v-6.48h1.01v6.58c0,.85-.26,1.51-.77,2-.52.49-1.22.73-2.12.73Z"/>
  </g>
  <g>
    <path class="st1" d="M121.82,78.79c-.2,0-.37-.07-.51-.21-.14-.14-.21-.31-.21-.51v-9.46c0-.29.1-.53.3-.74.2-.21.44-.31.73-.31h.21c.18,0,.34.04.49.13.15.08.27.2.38.35l6.1,8.81v-8.56c0-.2.07-.37.21-.51.14-.14.31-.21.51-.21s.37.07.51.21.21.31.21.51v9.46c0,.29-.1.53-.31.73-.21.2-.45.3-.74.3h-.19c-.17,0-.33-.04-.47-.12-.15-.08-.27-.18-.36-.31l-6.13-8.86v8.57c0,.2-.07.37-.21.51-.14.14-.31.21-.51.21Z"/>
    <path class="st1" d="M138.72,78.87c-1.13,0-2.11-.24-2.93-.73-.82-.49-1.46-1.16-1.92-2.01s-.69-1.84-.71-2.95c.02-1.11.26-2.09.71-2.95s1.09-1.53,1.92-2.01c.82-.49,1.8-.73,2.93-.73s2.11.24,2.93.73c.82.49,1.46,1.16,1.92,2.01s.69,1.84.71,2.95c-.02,1.11-.26,2.09-.71,2.95s-1.09,1.53-1.92,2.01c-.82.49-1.8.73-2.93.73ZM138.72,77.52c.88,0,1.62-.19,2.23-.58.61-.39,1.08-.91,1.4-1.56.32-.65.48-1.39.48-2.2s-.16-1.55-.48-2.2-.79-1.17-1.4-1.56-1.36-.58-2.23-.58-1.62.19-2.23.58-1.08.91-1.4,1.56-.48,1.39-.48,2.2.16,1.55.48,2.2c.32.66.79,1.18,1.4,1.56.61.39,1.36.58,2.23.58Z"/>
    <path class="st1" d="M149.53,78.79c-.2,0-.37-.07-.51-.21-.14-.14-.21-.31-.21-.51v-9.08h-3.23c-.19,0-.35-.06-.47-.19-.13-.13-.19-.29-.19-.48s.06-.35.19-.48c.13-.13.29-.2.47-.2h7.89c.19,0,.35.07.48.2.13.13.2.29.2.48s-.07.35-.2.48c-.13.13-.29.19-.48.19h-3.22v9.08c0,.2-.07.37-.21.51-.14.14-.31.21-.51.21Z"/>
    <path class="st1" d="M156.61,78.71c-.2,0-.37-.07-.51-.21-.14-.14-.21-.31-.21-.51v-9.62c0-.2.07-.37.21-.51.14-.14.31-.21.51-.21h6.35c.19,0,.35.07.48.2.13.13.2.29.2.48s-.07.35-.2.48c-.13.13-.29.19-.48.19h-5.62v3.5h5.05c.19,0,.35.07.48.2.13.13.2.29.2.48s-.07.35-.2.48c-.13.13-.29.19-.48.19h-5.05v3.52h5.62c.19,0,.35.07.48.2.13.13.2.29.2.48s-.07.35-.2.48c-.13.13-.29.19-.48.19h-6.35Z"/>
  </g>
  <line class="st2" x1="60.46" y1="92.07" x2="227.02" y2="92.07"/>
  <g>
    <path d="M72.55,276.49c-.86,0-1.55-.22-2.08-.66s-.79-1.11-.79-2c0-.27.02-.5.06-.71.04-.21.1-.39.17-.56.07-.17.15-.33.24-.47s.19-.29.3-.43c.2-.26.37-.51.51-.73.14-.22.21-.47.21-.73,0-.25-.07-.43-.2-.54-.13-.12-.29-.17-.49-.17-.28,0-.48.1-.62.29-.14.19-.23.48-.27.85h-.82v-1.91h.92v.95h.08c.09-.31.24-.55.45-.73.21-.17.46-.26.78-.26.38,0,.67.12.89.37s.33.56.33.95c0,.32-.06.62-.19.89-.13.27-.31.59-.54.95-.21.32-.37.61-.47.87s-.15.55-.15.86v.43c0,.54.15.94.45,1.19.3.25.71.38,1.21.38s.92-.13,1.21-.38c.28-.25.43-.61.43-1.08v-1.19c0-.47-.09-.83-.27-1.08-.18-.25-.44-.38-.76-.38h-.38v-.88h.41c.32,0,.58-.09.76-.28.19-.19.28-.49.28-.91v-.75h1.1v.71c0,.23-.04.43-.12.61-.08.18-.19.33-.32.46s-.28.23-.45.31c-.17.08-.34.13-.51.16v.07c.48.14.85.44,1.08.89.24.46.36,1,.36,1.63,0,.94-.24,1.68-.73,2.22s-1.17.81-2.06.81Z"/>
    <path d="M69.71,266.41h3.69c-.03-.11-.04-.22-.04-.34,0-.38.12-.69.37-.92s.58-.34,1-.34.74.12,1,.34.38.54.38.92-.13.71-.38.94-.58.35-1,.35h-5.03v-.95ZM74.74,266.7c.42,0,.63-.19.63-.56v-.14c0-.38-.21-.56-.63-.56s-.63.19-.63.56v.14c0,.38.21.56.63.56Z"/>
    <path d="M74.24,261.95h1.02v2.05h-1.02v-2.05Z"/>
    <path d="M76.63,270.9h1.18l1.99,4.5h.04c.58,0,1.02-.2,1.34-.6.32-.4.47-.95.47-1.67v-1.13c0-.71-.16-1.25-.47-1.65s-.76-.59-1.34-.59h-.44v-.95h.45c.94,0,1.68.33,2.2.99s.78,1.58.78,2.76-.26,2.1-.78,2.76c-.52.66-1.25.99-2.19.99h-.85l-2.39-5.42Z"/>
    <path d="M87.03,276.46c-.76,0-1.36-.19-1.81-.56-.45-.38-.67-.92-.67-1.63s.22-1.23.67-1.61c.44-.38,1.05-.56,1.82-.56h2.39v-.71c0-1.18-.65-1.77-1.94-1.77-.55,0-1.01.11-1.38.34-.37.22-.67.53-.9.93l-.7-.62c.24-.45.6-.83,1.1-1.13.49-.31,1.14-.46,1.94-.46s1.42.17,1.91.49c.04-.48.29-.71.77-.71h1.83v1.02h-2.21c.46.46.69,1.08.69,1.87v5h-1.1v-3.45h-2.14c-.49,0-.88.11-1.15.32-.27.21-.41.51-.41.89v.32c0,.41.13.73.38.94.25.21.59.32,1.02.32.13,0,.24,0,.32-.01.09,0,.16-.02.21-.03l.1.75c-.05.03-.16.05-.31.06-.15.01-.29.02-.41.02Z"/>
    <path d="M96.51,271.18c0-1.05-.54-1.58-1.63-1.58-.44,0-.8.1-1.08.29-.28.19-.52.45-.71.77l-.67-.59c.21-.4.52-.74.93-1,.41-.27.94-.4,1.6-.4.86,0,1.52.21,1.98.63.46.42.69,1.02.69,1.79v5.25h-1.1v-5.15Z"/>
    <path d="M103.22,276.49c-.32,0-.6-.04-.84-.12-.24-.08-.44-.18-.62-.31s-.32-.27-.43-.44c-.12-.17-.21-.34-.28-.52h-.07v1.22h-1.1v-7.5h1.1v5.19c0,.26.05.48.17.67.11.19.25.35.43.48.18.13.38.22.6.29.22.06.46.1.69.1.6,0,1.06-.18,1.37-.53.31-.35.46-.87.46-1.56v-4.64h1.1v4.78c0,.92-.23,1.64-.69,2.13-.46.5-1.09.75-1.89.75Z"/>
    <path d="M111.33,271.18c0-1.05-.54-1.58-1.63-1.58-.44,0-.8.1-1.08.29-.28.19-.52.45-.71.77l-.67-.59c.21-.4.52-.74.93-1,.41-.27.94-.4,1.6-.4.86,0,1.52.21,1.98.63.46.42.69,1.02.69,1.79v5.25h-1.1v-5.15Z"/>
    <path d="M117.26,276.49c-.69,0-1.27-.12-1.76-.37-.49-.25-.89-.59-1.22-1.04l.78-.63c.28.38.61.67.98.84.37.18.8.27,1.3.27.55,0,.97-.11,1.26-.32.29-.21.43-.52.43-.93,0-.35-.11-.62-.34-.82-.22-.2-.58-.33-1.08-.41l-.65-.1c-.29-.04-.58-.11-.87-.19-.28-.08-.54-.2-.78-.36s-.42-.36-.56-.62c-.14-.26-.21-.58-.21-.96,0-.36.07-.67.2-.95s.32-.5.56-.69c.24-.18.53-.32.86-.42.33-.1.69-.14,1.07-.14.65,0,1.19.11,1.63.32.43.21.8.5,1.09.84l-.7.66c-.2-.24-.47-.45-.81-.62-.34-.18-.75-.27-1.24-.27-.51,0-.91.11-1.18.32s-.41.5-.41.88c0,.4.13.69.4.85.27.17.63.28,1.1.36l.65.1c.34.06.65.13.93.22.28.09.53.22.73.38s.37.37.49.61c.12.24.18.54.18.89,0,.71-.25,1.27-.76,1.68-.51.41-1.2.61-2.08.61Z"/>
    <path d="M123.85,276.32c-.39,0-.69-.11-.89-.32-.2-.21-.29-.49-.29-.84v-3.13l-1.17-.49c.03-.42.13-.81.31-1.16.18-.35.41-.66.71-.91s.64-.46,1.03-.6c.39-.14.82-.21,1.28-.21,1.08,0,1.91.27,2.48.8.57.54.86,1.26.86,2.18v4.68h-1.1v-4.54c0-.71-.2-1.25-.6-1.62-.4-.37-.93-.55-1.59-.55-.28,0-.55.04-.8.1s-.48.16-.69.29-.38.27-.53.45c-.15.18-.25.38-.32.59l.67.27c.2.08.35.18.43.29.09.11.13.27.13.47v3.28h.88v.97h-.8Z"/>
    <path d="M133.15,276.49c-.86,0-1.55-.22-2.08-.66s-.79-1.11-.79-2c0-.26.02-.5.06-.71.04-.21.1-.39.16-.56.07-.17.15-.33.24-.47.09-.15.19-.29.3-.42.19-.26.35-.5.48-.74s.19-.49.19-.75v-.37h-1.57v-.97h1.61c.34,0,.6.09.78.27.18.18.27.41.27.71v.12c0,.33-.06.63-.19.91-.12.28-.3.61-.54.98-.21.32-.37.61-.47.87s-.15.55-.15.86v.43c0,.54.15.94.45,1.19.3.25.7.38,1.21.38s.92-.13,1.21-.38c.28-.25.43-.61.43-1.08v-1.19c0-.47-.09-.83-.27-1.08-.18-.25-.43-.38-.75-.38h-.38v-.88h.41c.32,0,.57-.09.76-.28.19-.19.28-.49.28-.91v-.75h1.1v.71c0,.23-.04.43-.12.61-.08.18-.19.33-.32.46s-.28.23-.45.31c-.17.08-.34.13-.51.16v.07c.49.14.85.44,1.08.89.24.46.36,1,.36,1.63,0,.94-.24,1.68-.73,2.22s-1.17.81-2.06.81Z"/>
    <path d="M134.82,264.82h1.07v2.54h-1.07v-2.54Z"/>
    <path d="M140.29,276.49c-.36,0-.7-.04-1.03-.13-.33-.09-.61-.21-.85-.36l.41-.81c.39.24.87.36,1.44.36.63,0,1.12-.21,1.47-.64s.52-1.01.52-1.76v-1.13c0-.74-.17-1.33-.5-1.76-.33-.43-.83-.65-1.49-.65-.49,0-.9.1-1.22.31s-.57.49-.74.86l-.89-.45c.23-.5.58-.9,1.06-1.2.48-.31,1.08-.46,1.83-.46,1.03,0,1.81.35,2.34,1.04.54.69.8,1.65.8,2.88s-.27,2.19-.82,2.88c-.55.69-1.32,1.04-2.32,1.04Z"/>
    <path d="M148.16,276.49c-.92,0-1.63-.2-2.13-.59s-.76-.95-.76-1.66c0-.46.13-.83.4-1.13s.6-.5,1-.61v-.07c-.45-.1-.8-.31-1.06-.62s-.39-.71-.39-1.19c0-.59.18-1.06.54-1.41.36-.36.86-.54,1.5-.54.19,0,.39.02.6.05.21.03.4.09.57.19l-.23.84c-.26-.1-.5-.15-.73-.15-.4,0-.71.11-.91.32s-.31.49-.31.83c0,.15.02.29.05.44.04.15.11.28.21.39s.24.21.42.28c.18.07.41.11.71.11h.8v.78h-.8c-.35,0-.64.1-.87.3-.23.2-.35.49-.35.88v.34c0,.41.15.73.45.95.3.22.74.34,1.3.34.67,0,1.19-.17,1.57-.52.38-.34.57-.84.57-1.49v-4.72h1.1v4.89c0,.42-.08.8-.23,1.15-.15.34-.37.63-.65.87-.28.24-.62.42-1.02.56s-.84.2-1.34.2Z"/>
    <path d="M155.86,276.46c-.76,0-1.36-.19-1.81-.56-.45-.38-.67-.92-.67-1.63s.22-1.23.67-1.61c.44-.38,1.05-.56,1.82-.56h2.39v-.71c0-1.18-.65-1.77-1.94-1.77-.55,0-1.01.11-1.38.34-.37.22-.67.53-.9.93l-.7-.62c.24-.45.6-.83,1.1-1.13.49-.31,1.14-.46,1.94-.46s1.42.17,1.91.49c.04-.48.29-.71.77-.71h1.83v1.02h-2.21c.46.46.69,1.08.69,1.87v5h-1.1v-3.45h-2.14c-.49,0-.88.11-1.15.32-.27.21-.41.51-.41.89v.32c0,.41.13.73.38.94.25.21.59.32,1.02.32.13,0,.24,0,.32-.01.09,0,.16-.02.21-.03l.1.75c-.05.03-.16.05-.31.06-.15.01-.29.02-.41.02Z"/>
    <path d="M158.28,264.82h1.07v2.54h-1.07v-2.54Z"/>
    <path d="M161.24,270.9h1.18l1.99,4.5h.04c.58,0,1.02-.2,1.34-.6.32-.4.47-.95.47-1.67v-1.13c0-.71-.16-1.25-.47-1.65s-.76-.59-1.34-.59h-.44v-.95h.45c.94,0,1.68.33,2.2.99s.78,1.58.78,2.76-.26,2.1-.78,2.76c-.52.66-1.25.99-2.19.99h-.85l-2.39-5.42Z"/>
    <path d="M171.03,276.32c-.38,0-.67-.11-.87-.32-.2-.21-.29-.49-.29-.84v-6.34h1.1v6.52h1.15v.97h-1.08Z"/>
    <path d="M175.97,276.46c-.76,0-1.36-.19-1.81-.56-.45-.38-.67-.92-.67-1.63s.22-1.23.67-1.61c.44-.38,1.05-.56,1.82-.56h2.39v-.71c0-1.18-.65-1.77-1.94-1.77-.55,0-1.01.11-1.38.34-.37.22-.67.53-.9.93l-.7-.62c.24-.45.6-.83,1.1-1.13.49-.31,1.14-.46,1.94-.46s1.42.17,1.91.49c.04-.48.29-.71.77-.71h1.83v1.02h-2.21c.46.46.69,1.08.69,1.87v5h-1.1v-3.45h-2.14c-.49,0-.88.11-1.15.32-.27.21-.41.51-.41.89v.32c0,.41.13.73.38.94.25.21.59.32,1.02.32.13,0,.24,0,.32-.01.09,0,.16-.02.21-.03l.1.75c-.05.03-.16.05-.31.06-.15.01-.29.02-.41.02Z"/>
    <path d="M184.71,276.49c-.69,0-1.27-.12-1.76-.37-.49-.25-.89-.59-1.22-1.04l.78-.63c.28.38.61.67.98.84.37.18.8.27,1.3.27.55,0,.97-.11,1.26-.32.29-.21.43-.52.43-.93,0-.35-.11-.62-.34-.82-.22-.2-.58-.33-1.08-.41l-.65-.1c-.29-.04-.58-.11-.87-.19-.28-.08-.54-.2-.78-.36s-.42-.36-.56-.62c-.14-.26-.21-.58-.21-.96,0-.36.07-.67.2-.95s.32-.5.56-.69c.24-.18.53-.32.86-.42.33-.1.69-.14,1.07-.14.65,0,1.19.11,1.63.32.43.21.8.5,1.09.84l-.7.66c-.2-.24-.47-.45-.81-.62-.34-.18-.75-.27-1.24-.27-.51,0-.91.11-1.18.32s-.41.5-.41.88c0,.4.13.69.4.85.27.17.63.28,1.1.36l.65.1c.34.06.65.13.93.22.28.09.53.22.73.38s.37.37.49.61c.12.24.18.54.18.89,0,.71-.25,1.27-.76,1.68-.51.41-1.2.61-2.08.61Z"/>
    <path d="M181.95,266.41h5.6v.95h-5.6v-.95Z"/>
    <path d="M192.78,276.49c-.32,0-.6-.04-.84-.12-.24-.08-.44-.18-.62-.31s-.32-.27-.43-.44c-.12-.17-.21-.34-.28-.52h-.07v1.22h-1.1v-7.5h1.1v5.19c0,.26.05.48.17.67.11.19.25.35.43.48.18.13.38.22.6.29.22.06.46.1.69.1.6,0,1.06-.18,1.37-.53.31-.35.46-.87.46-1.56v-4.64h1.1v4.78c0,.92-.23,1.64-.69,2.13-.46.5-1.09.75-1.89.75Z"/>
    <path d="M199.22,276.32c-.38,0-.67-.11-.87-.32-.2-.21-.29-.49-.29-.84v-6.34h1.1v6.52h1.15v.97h-1.08ZM202.79,276.32c-.38,0-.68-.11-.87-.32-.2-.21-.29-.49-.29-.84v-6.34h1.1v6.52h1.15v.97h-1.08Z"/>
    <path d="M207.73,276.46c-.76,0-1.36-.19-1.81-.56-.45-.38-.67-.92-.67-1.63s.22-1.23.67-1.61c.44-.38,1.05-.56,1.82-.56h2.39v-.71c0-1.18-.65-1.77-1.94-1.77-.55,0-1.01.11-1.38.34-.37.22-.67.53-.9.93l-.7-.62c.24-.45.6-.83,1.1-1.13.49-.31,1.14-.46,1.94-.46.95,0,1.69.24,2.2.71.52.47.78,1.12.78,1.96v5h-1.1v-3.45h-2.14c-.49,0-.88.11-1.15.32-.27.21-.41.51-.41.89v.32c0,.41.13.73.38.94.25.21.59.32,1.02.32.13,0,.24,0,.32-.01.09,0,.16-.02.21-.03l.1.75c-.05.03-.16.05-.31.06-.15.01-.29.02-.41.02Z"/>
    <path d="M214.67,271.42c-.41,0-.71-.1-.91-.3-.19-.2-.29-.47-.29-.8v-.59h1.1v.74h2.38v.95h-2.28ZM214.67,274.95c-.41,0-.71-.1-.91-.3-.19-.2-.29-.47-.29-.8v-.59h1.1v.74h2.38v.95h-2.28Z"/>
    <path d="M64.91,296.4c-.79,0-1.34-.34-1.66-1.01s-.48-1.63-.48-2.88.24-2.19.71-2.82c.48-.64,1.14-.95,1.99-.95h.36v.95h-.3c-.51,0-.91.17-1.18.52-.27.35-.41.92-.41,1.7v1.29c0,.34.01.65.04.93s.08.52.17.71.2.35.34.45.34.16.58.16c.3,0,.55-.12.74-.34s.29-.59.29-1.08v-1.29h1.08v1.29c0,.49.09.86.27,1.08.18.23.42.34.74.34.29,0,.52-.1.69-.3.17-.2.25-.49.25-.87v-5.55h1.1v5.66c0,.61-.16,1.1-.48,1.46-.32.36-.76.54-1.32.54-.52,0-.93-.15-1.24-.45-.3-.3-.48-.67-.52-1.11h-.07c-.05.44-.22.81-.51,1.11-.29.3-.69.45-1.18.45Z"/>
    <path d="M69.15,284.73h1.07v2.54h-1.07v-2.54Z"/>
    <path d="M75.23,296.4c-.44,0-.85-.06-1.24-.19-.38-.13-.72-.31-1-.56-.28-.24-.51-.53-.67-.86s-.25-.71-.25-1.12v-.7c0-.28.05-.49.17-.64.11-.15.34-.23.7-.23h1.46v.95h-1.21v.56c0,.32.05.6.16.84.1.24.25.43.43.58.18.15.41.26.67.34.26.07.54.11.84.11.69,0,1.22-.21,1.61-.63s.58-1.01.58-1.77v-1.13c0-.77-.21-1.37-.62-1.79-.42-.43-1-.64-1.74-.64-.57,0-1.06.12-1.47.34s-.74.54-.97.92l-.71-.63c.26-.45.65-.82,1.17-1.13.53-.3,1.21-.45,2.04-.45,1.11,0,1.96.35,2.57,1.04.61.69.91,1.65.91,2.88,0,.6-.07,1.14-.22,1.62s-.36.9-.65,1.24-.65.6-1.07.78c-.43.18-.92.27-1.48.27Z"/>
    <path d="M83.11,296.4c-.8,0-1.42-.25-1.87-.76-.45-.5-.67-1.21-.67-2.13v-4.78h1.1v4.64c0,1.39.59,2.09,1.79,2.09.23,0,.46-.03.69-.1.23-.06.43-.16.6-.29s.32-.29.43-.48c.11-.19.17-.42.17-.67v-5.19h1.1v6.52h.88v.97h-.81c-.37,0-.63-.11-.8-.33-.17-.22-.27-.5-.29-.84h-.05c-.15.42-.42.75-.82.98-.4.23-.87.35-1.42.35Z"/>
    <path d="M88.89,291.54c0-.45.08-.86.23-1.22.15-.37.37-.68.65-.94.28-.26.63-.46,1.03-.6.4-.14.86-.21,1.36-.21s.94.07,1.35.21c.4.14.75.34,1.03.6.28.26.5.57.66.94.16.37.23.77.23,1.22v4.7h-1.1v-4.59c0-.69-.19-1.21-.57-1.58s-.91-.55-1.6-.55-1.22.18-1.6.55-.57.89-.57,1.58v1.79h.07c.06-.17.15-.34.26-.5.11-.16.25-.3.41-.42.17-.12.36-.22.58-.3.22-.07.48-.11.78-.11h.45v1.1h-.63c-.59,0-1.05.11-1.4.34-.35.23-.52.54-.52.95v1.74h-1.1v-4.7Z"/>
    <path d="M99.89,296.38c-.76,0-1.36-.19-1.81-.56-.45-.38-.67-.92-.67-1.63s.22-1.23.67-1.61c.44-.38,1.05-.56,1.82-.56h2.39v-.71c0-1.18-.65-1.77-1.94-1.77-.55,0-1.01.11-1.38.34-.37.22-.67.53-.9.93l-.7-.62c.24-.45.6-.83,1.1-1.13.49-.31,1.14-.46,1.94-.46.95,0,1.69.24,2.2.71.52.47.78,1.12.78,1.96v5h-1.1v-3.45h-2.14c-.49,0-.88.11-1.15.32-.27.21-.41.51-.41.89v.32c0,.41.13.73.38.94.25.21.59.32,1.02.32.13,0,.24,0,.32-.01.09,0,.16-.02.21-.03l.1.75c-.05.03-.16.05-.31.06-.15.01-.29.02-.41.02Z"/>
    <path d="M108.78,291.09c0-1.05-.54-1.58-1.63-1.58-.44,0-.8.1-1.08.29-.28.19-.52.45-.71.77l-.67-.59c.21-.4.52-.74.93-1,.41-.27.94-.4,1.6-.4.86,0,1.52.21,1.98.63.46.42.69,1.02.69,1.79v5.25h-1.1v-5.15Z"/>
    <path d="M114.87,296.4c-.92,0-1.63-.2-2.13-.59s-.76-.95-.76-1.66c0-.46.13-.83.4-1.13s.6-.5,1-.61v-.07c-.45-.1-.8-.31-1.06-.62s-.39-.71-.39-1.19c0-.59.18-1.06.54-1.41.36-.36.86-.54,1.5-.54.19,0,.39.02.6.05.21.03.4.09.57.19l-.23.84c-.26-.1-.5-.15-.73-.15-.4,0-.71.11-.91.32s-.31.49-.31.83c0,.15.02.29.05.44.04.15.11.28.21.39s.24.21.42.28c.18.07.41.11.71.11h.8v.78h-.8c-.35,0-.64.1-.87.3-.23.2-.35.49-.35.88v.34c0,.41.15.73.45.95.3.22.74.34,1.3.34.67,0,1.19-.17,1.57-.52.38-.34.57-.84.57-1.49v-4.72h1.1v4.89c0,.42-.08.8-.23,1.15-.15.34-.37.63-.65.87-.28.24-.62.42-1.02.56s-.84.2-1.34.2Z"/>
    <path d="M120.31,291.54c0-.45.08-.86.23-1.22.15-.37.37-.68.65-.94.28-.26.63-.46,1.03-.6.4-.14.86-.21,1.36-.21s.94.07,1.35.21c.4.14.75.34,1.03.6.28.26.5.57.66.94.16.37.23.77.23,1.22v4.7h-1.1v-4.59c0-.69-.19-1.21-.57-1.58s-.91-.55-1.6-.55-1.22.18-1.6.55-.57.89-.57,1.58v1.79h.07c.06-.17.15-.34.26-.5.11-.16.25-.3.41-.42.17-.12.36-.22.58-.3.22-.07.48-.11.78-.11h.45v1.1h-.63c-.59,0-1.05.11-1.4.34-.35.23-.52.54-.52.95v1.74h-1.1v-4.7Z"/>
    <path d="M131.34,296.4c-.36,0-.7-.04-1.03-.13-.33-.09-.61-.21-.85-.36l.41-.81c.39.24.87.36,1.44.36.63,0,1.12-.21,1.47-.64s.52-1.01.52-1.76v-1.13c0-.74-.17-1.33-.5-1.76-.33-.43-.83-.65-1.49-.65-.49,0-.9.1-1.22.31s-.57.49-.74.86l-.89-.45c.23-.5.58-.9,1.06-1.2.48-.31,1.08-.46,1.83-.46,1.03,0,1.81.35,2.34,1.04.54.69.8,1.65.8,2.88s-.27,2.19-.82,2.88c-.55.69-1.32,1.04-2.32,1.04Z"/>
    <path d="M139.6,291.09c0-1.05-.54-1.58-1.63-1.58-.44,0-.8.1-1.08.29-.28.19-.52.45-.71.77l-.67-.59c.21-.4.52-.74.93-1,.41-.27.94-.4,1.6-.4.86,0,1.52.21,1.98.63.46.42.69,1.02.69,1.79v5.25h-1.1v-5.15Z"/>
    <path d="M146.3,296.4c-.32,0-.6-.04-.84-.12-.24-.08-.44-.18-.62-.31s-.32-.27-.43-.44c-.12-.17-.21-.34-.28-.52h-.07v1.22h-1.1v-7.5h1.1v5.19c0,.26.05.48.17.67.11.19.25.35.43.48.18.13.38.22.6.29.22.06.46.1.69.1.6,0,1.06-.18,1.37-.53.31-.35.46-.87.46-1.56v-4.64h1.1v4.78c0,.92-.23,1.64-.69,2.13-.46.5-1.09.75-1.89.75Z"/>
    <path d="M153.72,296.4c-.69,0-1.27-.12-1.76-.37-.49-.25-.89-.59-1.22-1.04l.78-.63c.28.38.61.67.98.84.37.18.8.27,1.3.27.55,0,.97-.11,1.26-.32.29-.21.43-.52.43-.93,0-.35-.11-.62-.34-.82-.22-.2-.58-.33-1.08-.41l-.65-.1c-.29-.04-.58-.11-.87-.19-.28-.08-.54-.2-.78-.36s-.42-.36-.56-.62c-.14-.26-.21-.58-.21-.96,0-.36.07-.67.2-.95s.32-.5.56-.69c.24-.18.53-.32.86-.42.33-.1.69-.14,1.07-.14.65,0,1.19.11,1.63.32.43.21.8.5,1.09.84l-.7.66c-.2-.24-.47-.45-.81-.62-.34-.18-.75-.27-1.24-.27-.51,0-.91.11-1.18.32s-.41.5-.41.88c0,.4.13.69.4.85.27.17.63.28,1.1.36l.65.1c.34.06.65.13.93.22.28.09.53.22.73.38s.37.37.49.61c.12.24.18.54.18.89,0,.71-.25,1.27-.76,1.68-.51.41-1.2.61-2.08.61Z"/>
    <path d="M154.68,301.04c-.59,0-1.05-.16-1.36-.47s-.47-.7-.47-1.17v-.74h-.91v-.88h1.13c.27,0,.47.06.6.19.12.13.19.3.19.51v.69c0,.31.06.56.18.74.12.18.33.27.65.27s.54-.09.66-.27c.12-.18.18-.43.18-.74v-1.39h1.04v1.55c0,.48-.16.89-.47,1.21s-.79.49-1.41.49Z"/>
    <path d="M154.4,286.32h1.04v-.51c0-.24-.05-.41-.16-.5-.1-.1-.28-.14-.53-.14h-.36v-.82h.77c.41,0,.73.09.94.27.21.18.32.43.32.73,0,.17-.04.34-.12.52-.08.18-.21.32-.38.4v.05h2.4v.82h-3.93v-.82Z"/>
    <path d="M160.65,296.38c-.76,0-1.36-.19-1.81-.56-.45-.38-.67-.92-.67-1.63s.22-1.23.67-1.61c.44-.38,1.05-.56,1.82-.56h2.39v-.71c0-1.18-.65-1.77-1.94-1.77-.55,0-1.01.11-1.38.34-.37.22-.67.53-.9.93l-.7-.62c.24-.45.6-.83,1.1-1.13.49-.31,1.14-.46,1.94-.46s1.42.17,1.91.49c.04-.48.29-.71.77-.71h1.83v1.02h-2.21c.46.46.69,1.08.69,1.87v5h-1.1v-3.45h-2.14c-.49,0-.88.11-1.15.32-.27.21-.41.51-.41.89v.32c0,.41.13.73.38.94.25.21.59.32,1.02.32.13,0,.24,0,.32-.01.09,0,.16-.02.21-.03l.1.75c-.05.03-.16.05-.31.06-.15.01-.29.02-.41.02Z"/>
    <path d="M158.55,286.32h3.69c-.03-.11-.04-.22-.04-.34,0-.38.12-.69.37-.92s.58-.34,1-.34.74.12,1,.34.38.54.38.92-.13.71-.38.94-.58.35-1,.35h-5.03v-.95ZM163.58,286.61c.42,0,.63-.19.63-.56v-.14c0-.38-.21-.56-.63-.56s-.63.19-.63.56v.14c0,.38.21.56.63.56Z"/>
    <path d="M167.54,291.95l-1.17-.49c.03-.42.13-.81.31-1.16.18-.35.41-.66.71-.91s.63-.46,1.02-.6c.39-.14.81-.21,1.27-.21,1.07,0,1.89.27,2.46.8.57.54.85,1.26.85,2.18v4.68h-1.1v-4.54c0-.71-.2-1.25-.6-1.62-.4-.37-.92-.55-1.57-.55-.28,0-.55.04-.8.1s-.48.17-.68.29c-.2.12-.38.27-.52.45s-.25.38-.32.6l.69.27c.19.07.33.17.42.28.09.12.13.27.13.47v4.24h-1.1v-4.28Z"/>
    <path d="M178.12,296.4c-1.04,0-1.84-.35-2.38-1.04-.54-.69-.82-1.66-.82-2.9s.18-2.18.55-2.86.94-1.02,1.72-1.02c.35,0,.66.09.94.27.28.18.46.45.56.81h.05c.1-.36.29-.63.57-.81.28-.18.6-.27.95-.27.55,0,.97.17,1.27.52.3.35.45.83.45,1.46v5.68h-1.1v-5.67c0-.36-.08-.62-.23-.79-.15-.17-.36-.25-.64-.25-.17,0-.31.03-.43.09s-.21.14-.29.25-.13.22-.18.36c-.05.13-.08.27-.1.41h-.71c-.02-.14-.05-.27-.08-.4-.04-.13-.09-.25-.17-.35s-.17-.19-.29-.25-.27-.1-.44-.1c-.24,0-.43.06-.59.18-.16.12-.28.28-.38.49-.1.21-.17.46-.21.75-.04.29-.06.6-.06.94v1.1c0,.76.18,1.36.53,1.81.35.44.91.67,1.68.67.1,0,.21,0,.32-.01.11,0,.23-.02.34-.04l.14.92c-.17.04-.35.06-.51.07-.17,0-.33.01-.47.01Z"/>
    <path d="M180.9,284.73h1.07v2.54h-1.07v-2.54Z"/>
    <path d="M187.37,291.09c0-1.05-.54-1.58-1.63-1.58-.44,0-.8.1-1.08.29-.28.19-.52.45-.71.77l-.67-.59c.21-.4.52-.74.93-1,.41-.27.94-.4,1.6-.4.86,0,1.52.21,1.98.63.46.42.69,1.02.69,1.79v5.25h-1.1v-5.15Z"/>
    <path d="M190.01,290.81h1.18l1.99,4.5h.04c.58,0,1.02-.2,1.34-.6.32-.4.47-.95.47-1.67v-1.13c0-.71-.16-1.25-.47-1.65s-.76-.59-1.34-.59h-.44v-.95h.45c.94,0,1.68.33,2.2.99s.78,1.58.78,2.76-.26,2.1-.78,2.76c-.52.66-1.25.99-2.19.99h-.85l-2.39-5.42Z"/>
    <path d="M205.81,290.59c0-.31-.05-.57-.15-.77-.1-.2-.3-.3-.6-.3-.13,0-.24.03-.33.1-.09.06-.17.15-.23.26-.06.11-.11.23-.14.37-.04.14-.06.27-.07.41h-.71c-.02-.14-.04-.27-.07-.41-.03-.14-.07-.26-.12-.37-.06-.11-.13-.2-.21-.26s-.2-.1-.32-.1c-.28,0-.48.1-.58.29s-.15.43-.15.73v.59c0,.31.07.57.21.78s.39.32.73.32c.07,0,.14,0,.19,0,.05,0,.13-.02.23-.03l.11.84c-.13.03-.25.05-.38.05-.12,0-.22.01-.29.01-.63,0-1.11-.21-1.44-.62-.33-.41-.49-.98-.49-1.7s.12-1.25.36-1.63c.24-.38.65-.57,1.23-.57.34,0,.63.09.87.27.24.18.39.46.47.84h.07c.08-.38.24-.65.47-.84.23-.18.52-.27.87-.27.51,0,.9.18,1.17.53.27.35.41.8.41,1.35v8.25h-1.1v-8.12Z"/>
    <path d="M214.11,296.24c-.39,0-.69-.11-.89-.32-.2-.21-.29-.49-.29-.84v-7.79c0-.29.04-.55.11-.77s.17-.41.29-.56c.12-.16.26-.29.41-.39.16-.11.32-.19.49-.25v-.05h-2.99v-.91h4.27v.91h-.14c-.44,0-.77.12-1,.37-.23.25-.34.59-.34,1.04v8.58h1.15v.97h-1.07Z"/>
    <path d="M219.71,296.4c-.51,0-.97-.09-1.37-.27-.4-.18-.73-.44-1.01-.78-.27-.33-.48-.74-.62-1.23-.14-.49-.21-1.03-.21-1.63s.08-1.12.25-1.61c.16-.48.4-.9.71-1.24s.68-.6,1.12-.79c.44-.19.93-.28,1.48-.28.49,0,.95.07,1.35.22s.76.36,1.04.62c.29.27.51.59.67.97.16.38.23.8.23,1.27v4.57h-1.1v-4.42c0-.72-.2-1.29-.6-1.69-.4-.4-.95-.6-1.64-.6-.73,0-1.3.22-1.72.67-.41.44-.62,1.05-.62,1.81v.99c0,.81.18,1.42.55,1.84s.93.63,1.69.63c.1,0,.2,0,.31,0,.11,0,.21-.02.32-.05l.14.92c-.16.05-.32.07-.49.08-.17,0-.33,0-.48,0Z"/>
    <path d="M221.19,286.32h1.04v-.51c0-.24-.05-.41-.16-.5-.1-.1-.28-.14-.53-.14h-.36v-.82h.77c.41,0,.73.09.94.27.21.18.32.43.32.73,0,.17-.04.34-.12.52-.08.18-.21.32-.38.4v.05h2.4v.82h-3.93v-.82Z"/>
  </g>
  <path class="st0" d="M143.17,245.79h0c0-7.42-6.01-13.43-13.43-13.43h0c7.42,0,13.43-6.01,13.43-13.43h0c0,7.42,6.01,13.43,13.43,13.43h0c-7.42,0-13.43,6.01-13.43,13.43Z"/>
</svg>