<?xml version="1.0" encoding="UTF-8"?>
<svg id="_ปุ่มเสียง" data-name="ปุ่มเสียง" xmlns="http://www.w3.org/2000/svg" version="1.1" viewBox="0 0 402.56 401.25">
  <!-- Generator: Adobe Illustrator 30.0.0, SVG Export Plug-In . SVG Version: 2.1.1 Build 123)  -->
  <defs>
    <style>
      .st0 {
        fill: #efeac5;
      }

      .st0, .st1, .st2, .st3, .st4 {
        stroke: #000;
        stroke-miterlimit: 10;
      }

      .st5 {
        fill: #ef869d;
      }

      .st1 {
        fill: #f597a8;
      }

      .st2 {
        fill: none;
        stroke-width: .75px;
      }

      .st3 {
        fill: #fefad5;
      }

      .st4 {
        fill: #fffbde;
      }
    </style>
  </defs>
  <g>
    <path class="st3" d="M85.06,215.64c32.22-7.98,71.39-20.49,113.86-40.68,38.09-18.1,69.66-38.01,94.76-56.19,2.84-2.06,6.66-2.17,9.58-.24,5.28,3.49,12.35,9.41,17.71,18.78,7.24,12.64,7.7,25.14,7.07,32.76-.3,3.65-2.95,6.68-6.52,7.5-29.82,6.85-67.81,18.61-108.96,39.59-41.66,21.24-73.66,45.34-96.52,65.34l-30.97-66.86Z"/>
    <ellipse class="st3" cx="100.54" cy="249.07" rx="24.81" ry="36.84" transform="translate(-95.37 65.32) rotate(-24.85)"/>
    <path class="st4" d="M294.89,118.02c-2.24,1.58-5.48,3.86-9.4,6.58-10.78,7.47-18.43,12.77-27.95,18.65-4.19,2.59-10.03,6.09-17.21,10.03,0,0-21.87,12.32-41.41,21.69-40.59,19.47-103.01,37.81-105.79,38.62,1.15.13,2.76.38,4.64.89,6.26,1.71,10.38,4.96,12.85,6.96,1.25,1.01,5.5,4.56,9.59,10.8,5.69,8.69,10.33,17.3,11.07,23.25,24.42-19.36,53.86-41.26,93.81-61.2,38.04-18.98,75.17-28.82,104.26-36.69-1.84-9.27-7.13-18.2-9.56-22.25-3.14-5.23-11.29-17.76-21.29-18.19-1.54-.07-3.11.66-3.6.86Z"/>
    <ellipse class="st0" cx="99.82" cy="249.65" rx="14.92" ry="22.16" transform="translate(-95.68 65.07) rotate(-24.85)"/>
    <polygon class="st1" points="207.55 216.38 195.49 251.42 212.71 238.6 222.97 252.15 218.86 210.42 207.55 216.38"/>
    <polygon class="st1" points="224.1 202.98 254.85 241.34 234.12 235.77 229.58 252.15 218.01 211.85 224.1 202.98"/>
    <path class="st1" d="M179.73,183.48c3.11,1.6,11.4,6.38,16.9,16.56,5.46,10.11,4.96,19.6,4.6,23.09,11.33-5.59,22.66-11.18,33.99-16.77-.03-5.08-.8-14.9-6.52-25.33-3.92-7.15-8.74-11.99-12.17-14.91-12.27,5.79-24.54,11.58-36.81,17.37Z"/>
    <polygon class="st5" points="218.45 215.19 219.07 217.35 203.54 229.7 206.43 221.22 218.45 215.19"/>
    <polygon class="st5" points="220.01 216.77 234.87 217.26 229.04 209.99 219.42 214.74 220.01 216.77"/>
    <path class="st5" d="M231.38,187.65c-2.45,4.9-5.88,10.7-10.68,16.7-6.75,8.42-13.42,14.08-18.99,17.98,11.14-5.52,21.87-10.84,33.01-16.37-.02-3.15-.32-6.98-1.26-11.24-.58-2.65-1.32-5.01-2.08-7.07Z"/>
  </g>
  <path class="st2" d="M91.01,241.4c5.05-3.63,12.15-2.09,15.86,3.44,2.97,4.42,2.1,10.36-1.94,13.26-3.23,2.32-7.78,1.33-10.15-2.2-1.9-2.83-1.34-6.63,1.24-8.49,2.07-1.49,4.98-.85,6.5,1.41,1.22,1.81.86,4.24-.8,5.43-1.32.95-3.19.55-4.16-.9-.78-1.16-.55-2.72.51-3.48.85-.61,2.04-.35,2.66.58.5.74.35,1.74-.33,2.22"/>
</svg>