<?xml version="1.0" encoding="UTF-8"?>
<svg id="Layer_23" xmlns="http://www.w3.org/2000/svg" version="1.1" viewBox="0 0 219.52 308.89">
  <!-- Generator: Adobe Illustrator 30.0.0, SVG Export Plug-In . SVG Version: 2.1.1 Build 123)  -->
  <defs>
    <style>
      .st0 {
        fill: #9af484;
      }

      .st1 {
        fill: #fbff4d;
      }

      .st1, .st2, .st3, .st4, .st5 {
        stroke-miterlimit: 10;
      }

      .st1, .st3, .st4, .st5 {
        stroke: #000;
      }

      .st1, .st4 {
        stroke-width: .25px;
      }

      .st6 {
        fill: #fffad1;
      }

      .st2 {
        fill: #fff;
        stroke: #b5b5b5;
      }

      .st3 {
        fill: none;
      }

      .st3, .st5 {
        stroke-width: .5px;
      }

      .st4, .st5 {
        fill: #ffe652;
      }
    </style>
  </defs>
  <rect class="st2" x="7.09" y="5.26" width="205.34" height="298.37" rx="12" ry="12"/>
  <g>
    <path d="M43.25,220.92c-.36,0-.64-.1-.83-.3s-.28-.46-.28-.79v-6.01h1.04v6.17h1.09v.92h-1.03Z"/>
    <path d="M45.85,213.82h1.04v2.27l1.94-.29c.38-.06.69-.17.94-.32.24-.15.38-.42.43-.8l.1-.87h1.09l-.1.9c-.04.41-.19.73-.46.98-.26.24-.59.39-1,.45v.07c.86.23,1.34.9,1.44,1.99l.26,2.72h-1.09l-.25-2.78c-.03-.22-.07-.42-.14-.61-.07-.19-.17-.35-.31-.49-.14-.13-.31-.23-.53-.29-.21-.06-.47-.06-.77-.02l-1.55.22v3.96h-1.04v-7.1Z"/>
    <path d="M56.68,221.07c-.3,0-.57-.04-.79-.11-.23-.07-.42-.17-.58-.29-.17-.12-.3-.26-.41-.42s-.2-.32-.27-.49h-.06v1.16h-1.04v-7.1h1.04v4.91c0,.24.05.46.16.64.1.18.24.33.41.46s.36.21.57.27c.21.06.43.09.66.09.57,0,1-.17,1.29-.5.29-.33.44-.83.44-1.48v-4.39h1.04v4.52c0,.88-.22,1.55-.65,2.02-.43.47-1.03.71-1.79.71Z"/>
    <path d="M53.82,211.53h2.47v-.95h.92v1h.94v-1h.97v1.85h-5.3v-.9Z"/>
    <path d="M63.86,221.07c-.42,0-.81-.06-1.17-.18-.36-.12-.68-.3-.95-.53s-.48-.5-.64-.82-.23-.67-.23-1.06v-.66c0-.26.05-.46.16-.6.1-.14.33-.21.66-.21h1.38v.9h-1.14v.53c0,.3.05.57.15.79.1.23.24.41.41.55.17.14.38.25.63.32s.51.1.8.1c.65,0,1.16-.2,1.52-.6.36-.4.55-.96.55-1.68v-1.07c0-.73-.2-1.29-.59-1.7-.39-.4-.94-.6-1.64-.6-.54,0-1,.11-1.39.33-.39.22-.7.51-.92.87l-.68-.6c.24-.42.61-.78,1.11-1.07.5-.29,1.14-.43,1.93-.43,1.05,0,1.86.33,2.44.98.58.65.86,1.56.86,2.72,0,.56-.07,1.07-.21,1.53-.14.46-.34.85-.62,1.17-.27.32-.61.57-1.01.74-.4.17-.87.26-1.4.26Z"/>
    <path d="M71.33,221.07c-.75,0-1.34-.24-1.77-.71s-.64-1.15-.64-2.02v-4.52h1.04v4.39c0,1.32.56,1.98,1.69,1.98.22,0,.43-.03.65-.09.22-.06.41-.15.57-.27.16-.12.3-.27.4-.46.1-.18.16-.39.16-.64v-4.91h1.04v6.17h.83v.92h-.77c-.35,0-.6-.1-.76-.31-.16-.21-.25-.47-.28-.79h-.05c-.14.4-.4.71-.77.93-.38.22-.83.33-1.35.33Z"/>
    <path d="M79.58,221.07c-.49,0-.92-.09-1.29-.26-.38-.17-.7-.42-.96-.74-.26-.32-.46-.7-.59-1.16-.13-.46-.2-.97-.2-1.55s.08-1.06.23-1.52c.16-.46.38-.85.67-1.17.29-.32.64-.57,1.06-.75s.88-.27,1.4-.27c.47,0,.9.07,1.28.21.38.14.71.34.99.59.27.25.48.56.63.92s.22.76.22,1.2v4.33h-1.04v-4.19c0-.68-.19-1.22-.57-1.6-.38-.38-.89-.57-1.55-.57-.69,0-1.23.21-1.62.63-.39.42-.58.99-.58,1.71v.94c0,.76.17,1.34.52,1.74s.88.6,1.6.6c.1,0,.19,0,.29,0,.1,0,.2-.02.31-.05l.13.87c-.15.04-.3.07-.47.07-.16,0-.32,0-.46,0Z"/>
    <path d="M87.9,221.07c-.42,0-.81-.06-1.17-.18-.36-.12-.68-.3-.95-.53s-.48-.5-.64-.82-.23-.67-.23-1.06v-.66c0-.26.05-.46.16-.6.1-.14.33-.21.66-.21h1.38v.9h-1.14v.53c0,.3.05.57.15.79.1.23.24.41.41.55.17.14.38.25.63.32s.51.1.8.1c.65,0,1.16-.2,1.52-.6.36-.4.55-.96.55-1.68v-1.07c0-.73-.2-1.29-.59-1.7-.39-.4-.94-.6-1.64-.6-.54,0-1,.11-1.39.33-.39.22-.7.51-.92.87l-.68-.6c.24-.42.61-.78,1.11-1.07.5-.29,1.14-.43,1.93-.43,1.05,0,1.86.33,2.44.98.58.65.86,1.56.86,2.72,0,.56-.07,1.07-.21,1.53-.14.46-.34.85-.62,1.17-.27.32-.61.57-1.01.74-.4.17-.87.26-1.4.26Z"/>
    <path d="M93.66,216.86l-1.11-.47c.03-.4.12-.76.29-1.1.17-.33.39-.62.67-.87.28-.24.6-.43.97-.57.37-.13.77-.2,1.2-.2,1.01,0,1.79.25,2.33.76.54.51.81,1.19.81,2.06v4.43h-1.04v-4.3c0-.68-.19-1.19-.57-1.53s-.87-.52-1.49-.52c-.27,0-.52.03-.76.1-.24.07-.45.16-.64.27-.19.12-.36.26-.49.43-.14.17-.24.36-.3.57l.65.26c.18.07.31.16.4.27s.12.26.12.45v4.02h-1.04v-4.06Z"/>
    <path d="M102.49,220.92c-.37,0-.65-.1-.84-.3-.19-.2-.28-.46-.28-.79v-7.37c0-.28.04-.52.1-.73s.16-.38.27-.53c.11-.15.24-.27.39-.37s.3-.18.47-.24v-.05h-2.83v-.86h4.04v.86h-.13c-.42,0-.73.12-.95.35s-.33.56-.33.99v8.13h1.09v.92h-1.01Z"/>
    <path d="M108.23,221.07c-.3,0-.57-.04-.79-.11-.23-.07-.42-.17-.58-.29-.17-.12-.3-.26-.41-.42s-.2-.32-.27-.49h-.07v1.16h-1.04v-7.1h1.04v4.91c0,.24.05.46.16.64.1.18.24.33.41.46s.36.21.57.27c.21.06.43.09.66.09.57,0,1-.17,1.29-.5.29-.33.44-.83.44-1.48v-4.39h1.04v4.52c0,.88-.22,1.55-.65,2.02-.43.47-1.03.71-1.79.71Z"/>
    <path d="M108.64,211.53h.99v-.48c0-.22-.05-.38-.15-.47-.1-.09-.27-.14-.5-.14h-.34v-.78h.73c.39,0,.69.09.89.26.2.17.31.4.31.69,0,.16-.04.32-.12.49-.08.17-.2.3-.36.38v.05h2.28v.78h-3.72v-.78Z"/>
    <path d="M115.72,221.07c-.92,0-1.64-.25-2.17-.75-.53-.5-.79-1.18-.79-2.05v-4.46h1.04v4.35c0,.65.17,1.15.51,1.49s.81.51,1.41.51,1.07-.17,1.41-.51c.34-.34.51-.84.51-1.49v-4.35h1.04v4.46c0,.87-.26,1.55-.79,2.05-.53.5-1.25.75-2.17.75Z"/>
    <path d="M123.92,216.04c0-1-.52-1.5-1.55-1.5-.42,0-.76.09-1.02.27-.26.18-.49.42-.67.73l-.64-.56c.2-.38.49-.7.88-.95s.89-.38,1.51-.38c.81,0,1.44.2,1.87.6.43.4.65.96.65,1.69v4.97h-1.04v-4.88Z"/>
    <path d="M129.45,221.07c-.75,0-1.34-.24-1.77-.71s-.64-1.15-.64-2.02v-4.52h1.04v4.39c0,1.32.56,1.98,1.69,1.98.22,0,.43-.03.65-.09.22-.06.41-.15.57-.27.16-.12.3-.27.4-.46.1-.18.16-.39.16-.64v-4.91h1.04v6.17h.83v.92h-.77c-.35,0-.6-.1-.76-.31-.16-.21-.25-.47-.28-.79h-.05c-.14.4-.4.71-.77.93-.38.22-.83.33-1.35.33Z"/>
    <path d="M135.63,216.86l-1.11-.47c.03-.4.12-.76.29-1.1.17-.33.39-.62.67-.87.28-.24.6-.43.97-.57.37-.13.77-.2,1.2-.2,1.01,0,1.79.25,2.33.76.54.51.81,1.19.81,2.06v4.43h-1.04v-4.3c0-.68-.19-1.19-.57-1.53s-.87-.52-1.49-.52c-.27,0-.52.03-.76.1-.24.07-.45.16-.64.27-.19.12-.36.26-.49.43-.14.17-.24.36-.3.57l.65.26c.18.07.31.16.4.27s.12.26.12.45v4.02h-1.04v-4.06Z"/>
    <path d="M145.01,221.05c-.72,0-1.29-.18-1.72-.53-.42-.35-.64-.87-.64-1.55s.21-1.17.63-1.52c.42-.36.99-.53,1.72-.53h2.26v-.68c0-1.12-.61-1.68-1.83-1.68-.52,0-.96.11-1.31.32-.35.21-.63.5-.85.88l-.66-.58c.23-.42.57-.78,1.04-1.07s1.08-.44,1.83-.44c.9,0,1.6.22,2.09.67.49.45.73,1.06.73,1.85v4.73h-1.04v-3.26h-2.03c-.47,0-.83.1-1.09.3s-.39.48-.39.84v.3c0,.39.12.69.36.89.24.2.56.31.97.31.12,0,.22,0,.3-.01.08,0,.15-.02.2-.03l.09.71c-.05.03-.15.05-.29.06-.14.01-.27.02-.38.02Z"/>
    <path d="M153.42,216.04c0-1-.52-1.5-1.55-1.5-.42,0-.76.09-1.02.27-.26.18-.49.42-.67.73l-.64-.56c.2-.38.49-.7.88-.95s.89-.38,1.51-.38c.81,0,1.44.2,1.87.6.43.4.65.96.65,1.69v4.97h-1.04v-4.88Z"/>
    <path d="M155.92,215.78h1.12l1.88,4.26h.04c.55,0,.97-.19,1.27-.57.3-.38.45-.9.45-1.58v-1.07c0-.67-.15-1.19-.45-1.56-.3-.37-.72-.56-1.27-.56h-.42v-.9h.43c.89,0,1.59.31,2.08.94s.74,1.5.74,2.61-.25,1.99-.73,2.61c-.49.62-1.18.94-2.07.94h-.81l-2.26-5.13Z"/>
    <path d="M163.61,216.47c0-.42.07-.81.21-1.16.14-.35.35-.64.62-.89s.59-.44.98-.57c.38-.13.81-.2,1.29-.2s.89.06,1.27.2c.38.13.71.32.97.57s.48.54.62.89.22.73.22,1.16v4.45h-1.04v-4.34c0-.65-.18-1.15-.54-1.5s-.86-.52-1.51-.52-1.15.17-1.51.52c-.36.35-.54.84-.54,1.5v1.69h.07c.06-.16.14-.32.25-.47.1-.15.23-.29.39-.4s.34-.21.55-.28c.21-.07.46-.1.73-.1h.43v1.04h-.6c-.55,0-1,.11-1.33.33s-.49.52-.49.9v1.65h-1.04v-4.45Z"/>
    <path d="M164.5,211.53h2.47v-.95h.92v1h.94v-1h.98v1.85h-5.3v-.9Z"/>
    <path d="M174.29,221.07c-.75,0-1.34-.24-1.77-.71s-.64-1.15-.64-2.02v-4.52h1.04v4.39c0,1.32.56,1.98,1.69,1.98.22,0,.43-.03.65-.09.22-.06.41-.15.57-.27.16-.12.3-.27.4-.46.1-.18.16-.39.16-.64v-4.91h1.04v6.17h.83v.92h-.77c-.35,0-.6-.1-.76-.31-.16-.21-.25-.47-.28-.79h-.05c-.14.4-.4.71-.77.93-.38.22-.83.33-1.35.33Z"/>
    <path d="M60.69,229.42h1.04v1.16h.06c.07-.16.16-.33.27-.49.11-.16.25-.3.42-.42.17-.12.37-.22.6-.29.23-.07.5-.11.8-.11.75,0,1.35.24,1.77.71.43.47.64,1.15.64,2.02v4.52h-1.04v-4.39c0-1.32-.57-1.98-1.72-1.98-.23,0-.45.03-.66.09s-.41.15-.58.27-.31.27-.41.46c-.1.18-.16.39-.16.64v4.91h-1.04v-7.1Z"/>
    <path d="M60.98,227.13h4.29v-.95h1.01v1.85h-5.3v-.9Z"/>
    <path d="M65.33,223.42h.96v1.94h-.96v-1.94Z"/>
    <path d="M70.34,236.52c-.37,0-.65-.1-.84-.3s-.28-.46-.28-.79v-7.37c0-.28.03-.52.1-.73s.16-.38.27-.53.24-.27.39-.37.3-.18.47-.24v-.05h-2.83v-.86h4.04v.86h-.13c-.42,0-.73.12-.95.35-.22.23-.33.56-.33.99v8.13h1.09v.92h-1.01Z"/>
    <path d="M76.09,236.67c-.3,0-.57-.04-.79-.11-.23-.07-.42-.17-.58-.29-.17-.12-.3-.26-.41-.42s-.2-.32-.27-.49h-.06v1.16h-1.04v-7.1h1.04v4.91c0,.24.05.46.16.64.1.18.24.33.41.46s.36.21.57.27c.21.06.43.09.66.09.57,0,1-.17,1.29-.5.29-.33.44-.83.44-1.48v-4.39h1.04v4.52c0,.88-.22,1.55-.65,2.02-.43.47-1.03.71-1.79.71Z"/>
    <path d="M77.52,225.62h1.01v2.4h-1.01v-2.4Z"/>
    <path d="M82.19,236.52c-.36,0-.64-.1-.83-.3-.19-.2-.28-.46-.28-.79v-6.01h1.04v6.17h1.09v.92h-1.03Z"/>
    <path d="M84.72,232.07c0-.42.07-.81.21-1.16.14-.35.35-.64.62-.89.27-.25.59-.44.97-.57.38-.13.81-.2,1.29-.2s.89.06,1.27.2c.38.13.71.32.97.57s.48.54.62.89.22.73.22,1.16v4.45h-1.04v-4.34c0-.65-.18-1.15-.54-1.5-.36-.35-.86-.52-1.51-.52s-1.16.17-1.51.52-.54.84-.54,1.5v1.69h.06c.06-.16.14-.32.25-.47.1-.15.23-.29.39-.4.16-.12.34-.21.55-.28.21-.07.46-.1.73-.1h.43v1.04h-.6c-.55,0-1,.11-1.33.33-.33.22-.49.52-.49.9v1.65h-1.04v-4.45Z"/>
    <path d="M95.64,236.67c-.87,0-1.54-.19-2.02-.56-.48-.37-.72-.9-.72-1.57,0-.43.13-.79.38-1.07.25-.28.57-.47.95-.58v-.07c-.42-.09-.76-.29-1.01-.59s-.37-.67-.37-1.12c0-.55.17-1,.51-1.34.34-.34.82-.51,1.42-.51.18,0,.37.02.57.04.2.03.38.09.54.18l-.22.79c-.24-.09-.47-.14-.69-.14-.38,0-.67.1-.86.31-.2.2-.29.47-.29.79,0,.14.02.28.05.42.04.14.1.26.2.37.1.11.23.2.4.27s.39.1.67.1h.75v.74h-.75c-.33,0-.6.09-.83.29-.22.19-.33.47-.33.83v.33c0,.39.14.69.43.9.29.21.7.32,1.24.32.63,0,1.13-.16,1.49-.49.36-.32.54-.79.54-1.41v-4.47h1.04v4.63c0,.4-.07.76-.21,1.08-.14.33-.35.6-.62.83-.27.22-.59.4-.97.53-.38.12-.8.19-1.27.19Z"/>
    <path d="M102.36,236.52c-.36,0-.64-.1-.83-.3-.19-.2-.28-.46-.28-.79v-6.01h1.04v6.17h1.09v.92h-1.03Z"/>
    <path d="M104.96,229.42h1.04v2.27l1.94-.29c.38-.06.69-.17.94-.32.24-.15.39-.42.43-.8l.1-.87h1.09l-.1.9c-.04.41-.2.73-.46.98-.26.24-.59.39-1,.45v.07c.86.23,1.34.9,1.44,1.99l.26,2.72h-1.09l-.25-2.78c-.03-.22-.07-.42-.14-.61-.07-.19-.17-.35-.31-.49-.14-.13-.31-.23-.53-.29-.21-.06-.47-.06-.77-.02l-1.55.22v3.96h-1.04v-7.1Z"/>
    <path d="M106.72,228.12c-.4,0-.72-.14-.97-.41-.25-.27-.38-.64-.38-1.1,0-.49.15-.89.45-1.2.3-.3.72-.46,1.25-.46h3.43v.78h-3.47c-.25,0-.44.07-.58.22-.13.15-.2.35-.2.61,0,.52.23.78.68.78.12,0,.22-.03.31-.08.08-.06.15-.13.19-.21.05-.08.08-.17.11-.27.03-.1.04-.19.05-.28h.7c0,.1.03.19.06.29.03.09.07.19.12.27.05.09.12.16.21.21s.19.08.31.08c.17,0,.32-.06.45-.18.13-.12.19-.31.19-.56v-.3h.87v.4c0,.44-.12.79-.36,1.03s-.57.37-1,.37c-.25,0-.49-.07-.71-.21-.23-.14-.38-.37-.47-.67h-.05c-.08.3-.22.53-.44.67-.21.14-.47.21-.76.21Z"/>
    <path d="M114.97,236.67c-.75,0-1.34-.24-1.77-.71-.42-.48-.64-1.15-.64-2.02v-4.52h1.04v4.39c0,1.32.56,1.98,1.69,1.98.22,0,.43-.03.65-.09.22-.06.41-.15.57-.27s.3-.27.4-.46c.1-.18.16-.39.16-.64v-4.91h1.04v6.17h.83v.92h-.77c-.35,0-.6-.1-.76-.31s-.25-.47-.28-.79h-.05c-.14.4-.4.71-.77.93-.38.22-.83.33-1.35.33Z"/>
    <path d="M123.67,236.67c-.3,0-.57-.04-.79-.11-.23-.07-.42-.17-.58-.29-.17-.12-.3-.26-.41-.42s-.2-.32-.27-.49h-.06v1.16h-1.04v-7.1h1.04v4.91c0,.24.05.46.16.64.1.18.24.33.41.46s.36.21.57.27c.21.06.43.09.66.09.57,0,1-.17,1.29-.5.29-.33.44-.83.44-1.48v-4.39h1.04v4.52c0,.88-.22,1.55-.65,2.02-.43.47-1.03.71-1.79.71Z"/>
    <path d="M131.35,231.64c0-1-.52-1.5-1.55-1.5-.42,0-.76.09-1.02.27-.26.18-.49.42-.67.73l-.64-.56c.2-.38.49-.7.88-.95.38-.25.89-.38,1.51-.38.82,0,1.44.2,1.87.6.43.4.65.96.65,1.69v4.97h-1.04v-4.88Z"/>
    <path d="M135.18,232.46l-1.11-.47c.03-.4.12-.76.29-1.1.17-.33.39-.62.67-.87.28-.24.6-.43.97-.57.37-.13.77-.2,1.2-.2,1.01,0,1.79.25,2.33.76.54.51.81,1.19.81,2.06v4.43h-1.04v-4.3c0-.68-.19-1.19-.57-1.53s-.87-.52-1.49-.52c-.27,0-.52.03-.76.1-.24.07-.45.16-.64.27-.19.12-.36.26-.49.43-.14.17-.24.36-.3.57l.65.26c.18.07.31.16.4.27s.12.26.12.45v4.02h-1.04v-4.06Z"/>
    <path d="M139.32,225.62h1.01v2.4h-1.01v-2.4Z"/>
    <path d="M145.21,236.67c-.42,0-.81-.06-1.17-.18-.36-.12-.68-.3-.95-.53s-.48-.5-.64-.82-.23-.67-.23-1.06v-.66c0-.26.05-.46.16-.6.1-.14.33-.21.66-.21h1.38v.9h-1.14v.53c0,.3.05.57.15.79.1.23.24.41.41.55.17.14.38.25.63.32s.51.1.8.1c.65,0,1.16-.2,1.52-.6.36-.4.55-.96.55-1.68v-1.07c0-.73-.2-1.29-.59-1.7-.39-.4-.94-.6-1.64-.6-.54,0-1,.11-1.39.33-.39.22-.7.51-.92.87l-.68-.6c.24-.42.61-.78,1.11-1.07.5-.29,1.14-.43,1.93-.43,1.05,0,1.86.33,2.44.98.58.65.86,1.56.86,2.72,0,.56-.07,1.07-.21,1.53-.14.46-.34.85-.62,1.17-.27.32-.61.57-1.01.74-.4.17-.87.26-1.4.26Z"/>
    <path d="M152.67,236.67c-.75,0-1.34-.24-1.77-.71s-.64-1.15-.64-2.02v-4.52h1.04v4.39c0,1.32.56,1.98,1.69,1.98.22,0,.43-.03.65-.09.22-.06.41-.15.57-.27.16-.12.3-.27.4-.46.1-.18.16-.39.16-.64v-4.91h1.04v6.17h.83v.92h-.77c-.35,0-.6-.1-.76-.31-.16-.21-.25-.47-.28-.79h-.05c-.14.4-.4.71-.77.93-.38.22-.83.33-1.35.33Z"/>
  </g>
  <path class="st0" d="M128.03,98.61c-8.91,14.7-14.46,31.28-16.34,48.36-.56,5.07-.77,10.17-.68,15.26.03,1.93,3.03,1.93,3,0-.29-16.95,3-33.91,9.93-49.41,1.95-4.37,4.19-8.6,6.67-12.7,1-1.66-1.59-3.17-2.59-1.51h0Z"/>
  <path class="st0" d="M117.54,161.83c-5.51-16.17-12.81-32-24.59-44.62-1.32-1.41-3.44.71-2.12,2.12,11.41,12.23,18.47,27.62,23.81,43.3.62,1.82,3.52,1.04,2.89-.8h0Z"/>
  <g>
    <path class="st6" d="M140.65,89.71c39.26,0,16.53,39.36-3.1,5.37,19.63,34-25.83,34-6.2,0-19.63,34-42.35-5.37-3.1-5.37-39.26,0-16.53-39.36,3.1-5.37-19.63-34,25.83-34,6.2,0,19.63-34,42.35,5.37,3.1,5.37Z"/>
    <path class="st3" d="M140.65,89.71c39.26,0,16.53,39.36-3.1,5.37,19.63,34-25.83,34-6.2,0-19.63,34-42.35-5.37-3.1-5.37-39.26,0-16.53-39.36,3.1-5.37-19.63-34,25.83-34,6.2,0,19.63-34,42.35,5.37,3.1,5.37Z"/>
  </g>
  <circle class="st5" cx="134.56" cy="90.04" r="5.29"/>
  <g>
    <path class="st6" d="M96.95,115.83c30.37,0,12.65,30.69-2.53,4.38,15.19,26.3-20.25,26.3-5.06,0-15.19,26.3-32.9-4.38-2.53-4.38-30.37,0-12.65-30.69,2.53-4.38-15.19-26.3,20.25-26.3,5.06,0,15.19-26.3,32.9,4.38,2.53,4.38Z"/>
    <path class="st3" d="M96.95,115.83c30.37,0,12.65,30.69-2.53,4.38,15.19,26.3-20.25,26.3-5.06,0-15.19,26.3-32.9-4.38-2.53-4.38-30.37,0-12.65-30.69,2.53-4.38-15.19-26.3,20.25-26.3,5.06,0,15.19-26.3,32.9,4.38,2.53,4.38Z"/>
  </g>
  <circle class="st5" cx="91.89" cy="115.83" r="5.29"/>
  <polygon class="st4" points="82.02 58.04 80 56.77 78.17 58.3 78.76 55.99 76.74 54.71 79.12 54.56 79.7 52.24 80.59 54.46 82.97 54.3 81.14 55.83 82.02 58.04"/>
  <polygon class="st4" points="84.05 51.42 83.04 50.79 82.13 51.55 82.42 50.4 81.42 49.76 82.6 49.68 82.89 48.53 83.34 49.64 84.52 49.56 83.61 50.32 84.05 51.42"/>
  <path class="st5" d="M77.27,65.51c-3.66-4.13-5.05-9.49-4.26-14.54-5.56,5.04-6.05,13.62-1.06,19.25,4.99,5.63,13.57,6.17,19.24,1.25-5.11.18-10.27-1.84-13.93-5.96Z"/>
  <path class="st1" d="M161.13,79.74h0c0-2.71-2.2-4.91-4.91-4.91h0c2.71,0,4.91-2.2,4.91-4.91h0c0,2.71,2.2,4.91,4.91,4.91h0c-2.71,0-4.91,2.2-4.91,4.91Z"/>
  <path class="st1" d="M79.85,145.16h0c0-2.71-2.2-4.91-4.91-4.91h0c2.71,0,4.91-2.2,4.91-4.91h0c0,2.71,2.2,4.91,4.91,4.91h0c-2.71,0-4.91,2.2-4.91,4.91Z"/>
  <path class="st1" d="M100.42,91.58h0c0-2.71-2.2-4.91-4.91-4.91h0c2.71,0,4.91-2.2,4.91-4.91h0c0,2.71,2.2,4.91,4.91,4.91h0c-2.71,0-4.91,2.2-4.91,4.91Z"/>
  <path class="st1" d="M150.47,63.2h0c0-2.71-2.2-4.91-4.91-4.91h0c2.71,0,4.91-2.2,4.91-4.91h0c0,2.71,2.2,4.91,4.91,4.91h0c-2.71,0-4.91,2.2-4.91,4.91Z"/>
  <path class="st3" d="M111.51,146.61c.41-3.7,1.03-7.76,1.98-12.09,1.19-5.39,2.65-10.2,4.16-14.39.51-1.53,1.07-3.11,1.71-4.73,1.59-4.03,3.35-7.62,5.13-10.78,1.61-2.11,3.22-4.22,4.83-6.33-.6,1.19-1.2,2.53-1.73,4.01h0c-.37,1.03-.71,2.11-1,3.26-.23.91-.42,1.78-.57,2.62-1.25,2.41-2.66,5.37-4.05,8.82-1.71,4.23-2.72,7.55-3,8.5-1.41,4.71-2.09,8.37-2.88,12.7-.63,3.4-1.05,6.25-1.32,8.28-.15,2.41-.3,4.81-.45,7.22"/>
  <path class="st3" d="M111.31,153.08c-.1,3.05-.2,6.1-.29,9.15-.03.85.68,1.54,1.47,1.49.73-.04,1.34-.7,1.3-1.49.05-.77.1-1.54.14-2.31h0"/>
  <line class="st3" x1="114.13" y1="156.72" x2="114.13" y2="156.71"/>
  <path class="st3" d="M102.4,129.38c.24.15.44.34.58.58.89,1.53,3.97,6.91,5.65,10.29.54,1.08,1.01,2.09,1.01,2.09.69,1.46,1.31,2.89,1.88,4.27,2.01,5.06,4.01,10.12,6.02,15.19.32.81-.11,1.47-.52,1.73-.28.19-.64.18-.97.11-.56-.13-1.01-.55-1.19-1.1-1.97-5.86-4.01-10.75-5.74-14.54-2.2-4.83-4.1-8.3-4.64-9.28-2.07-3.75-4.19-7.14-6.25-10.17-.08-.12-.15-.25-.19-.39-.53-1.57-1.06-3.13-1.6-4.7.68,1.07,1.68,2.42,3.13,3.76,1,.92,1.99,1.63,2.85,2.15Z"/>
</svg>