<?xml version="1.0" encoding="UTF-8"?>
<svg id="Layer_23" xmlns="http://www.w3.org/2000/svg" version="1.1" viewBox="0 0 219.52 308.89">
  <!-- Generator: Adobe Illustrator 30.0.0, SVG Export Plug-In . SVG Version: 2.1.1 Build 123)  -->
  <defs>
    <style>
      .st0 {
        fill: #c2f1ff;
      }

      .st0, .st1, .st2, .st3, .st4 {
        stroke-miterlimit: 10;
      }

      .st0, .st1, .st3, .st4 {
        stroke: #000;
        stroke-width: .5px;
      }

      .st1 {
        fill: #6d6d6d;
      }

      .st2 {
        fill: #fff;
        stroke: #b5b5b5;
      }

      .st3 {
        fill: #f25f5f;
      }

      .st4 {
        fill: #ffc8b5;
      }

      .st5 {
        fill: #b2b2b2;
      }
    </style>
  </defs>
  <rect class="st2" x="7.09" y="6.34" width="205.34" height="298.37" rx="12" ry="12"/>
  <g>
    <path d="M20.85,224.21c-.36,0-.64-.1-.83-.3s-.28-.46-.28-.79v-6.01h1.04v6.17h1.09v.92h-1.03Z"/>
    <path d="M23.45,217.11h1.04v2.27l1.94-.29c.38-.06.69-.17.94-.32.24-.15.38-.42.43-.8l.1-.87h1.09l-.1.9c-.04.41-.19.73-.46.98-.26.24-.59.39-1,.45v.07c.86.23,1.34.9,1.44,1.99l.26,2.72h-1.09l-.25-2.78c-.03-.22-.07-.42-.14-.61-.07-.19-.17-.35-.31-.49-.14-.13-.31-.23-.53-.29-.21-.06-.47-.06-.77-.02l-1.55.22v3.96h-1.04v-7.1Z"/>
    <path d="M34.28,224.36c-.3,0-.57-.04-.79-.11-.23-.07-.42-.17-.58-.29-.17-.12-.3-.26-.41-.42s-.2-.32-.27-.49h-.06v1.16h-1.04v-7.1h1.04v4.91c0,.24.05.46.16.64.1.18.24.33.41.46s.36.21.57.27c.21.06.43.09.66.09.57,0,1-.17,1.29-.5.29-.33.44-.83.44-1.48v-4.39h1.04v4.52c0,.88-.22,1.55-.65,2.02-.43.47-1.03.71-1.79.71Z"/>
    <path d="M31.42,214.82h2.47v-.95h.92v1h.94v-1h.97v1.85h-5.3v-.9Z"/>
    <path d="M41.46,224.36c-.42,0-.81-.06-1.17-.18-.36-.12-.68-.3-.95-.53s-.48-.5-.64-.82-.23-.67-.23-1.06v-.66c0-.26.05-.46.16-.6.1-.14.33-.21.66-.21h1.38v.9h-1.14v.53c0,.3.05.57.15.79.1.23.24.41.41.55.17.14.38.25.63.32s.51.1.8.1c.65,0,1.16-.2,1.52-.6.36-.4.55-.96.55-1.68v-1.07c0-.73-.2-1.29-.59-1.7-.39-.4-.94-.6-1.64-.6-.54,0-1,.11-1.39.33-.39.22-.7.51-.92.87l-.68-.6c.24-.42.61-.78,1.11-1.07.5-.29,1.14-.43,1.93-.43,1.05,0,1.86.33,2.44.98.58.65.86,1.56.86,2.72,0,.56-.07,1.07-.21,1.53-.14.46-.34.85-.62,1.17-.27.32-.61.57-1.01.74-.4.17-.87.26-1.4.26Z"/>
    <path d="M48.93,224.36c-.75,0-1.34-.24-1.77-.71s-.64-1.15-.64-2.02v-4.52h1.04v4.39c0,1.32.56,1.98,1.69,1.98.22,0,.43-.03.65-.09.22-.06.41-.15.57-.27.16-.12.3-.27.4-.46.1-.18.16-.39.16-.64v-4.91h1.04v6.17h.83v.92h-.77c-.35,0-.6-.1-.76-.31-.16-.21-.25-.47-.28-.79h-.05c-.14.4-.4.71-.77.93-.38.22-.83.33-1.35.33Z"/>
    <path d="M56.8,224.36c-.75,0-1.34-.24-1.77-.71s-.64-1.15-.64-2.02v-4.52h1.04v4.39c0,1.32.56,1.98,1.69,1.98.22,0,.43-.03.65-.09.22-.06.41-.15.57-.27.16-.12.3-.27.4-.46.1-.18.16-.39.16-.64v-4.91h1.04v6.17h.83v.92h-.77c-.35,0-.6-.1-.76-.31-.16-.21-.25-.47-.28-.79h-.05c-.14.4-.4.71-.77.93-.38.22-.83.33-1.35.33Z"/>
    <path d="M59.43,216.19c-.44,0-.79-.13-1.05-.38-.26-.25-.39-.59-.39-1.02s.13-.77.39-1.02c.26-.25.61-.38,1.05-.38s.79.13,1.05.38c.26.25.39.59.39,1.02s-.13.77-.39,1.02c-.26.25-.61.38-1.05.38ZM59.43,215.49c.2,0,.36-.05.47-.16.11-.1.17-.24.17-.41v-.26c0-.17-.06-.31-.17-.41-.11-.1-.27-.16-.47-.16s-.36.05-.47.16c-.11.1-.17.24-.17.41v.26c0,.17.06.31.17.41.11.1.27.16.47.16Z"/>
    <path d="M57.88,211.86h.97v-.47c0-.4-.23-.6-.69-.6h-.29v-.66h.64c.41,0,.71.08.89.25.19.16.28.38.28.64,0,.15-.03.3-.1.46-.07.16-.18.27-.33.34v.05h2.02v.68h-3.39v-.68Z"/>
    <path d="M65.19,219.33c0-1-.52-1.5-1.55-1.5-.42,0-.76.09-1.02.27-.26.18-.49.42-.67.73l-.64-.56c.2-.38.49-.7.88-.95s.89-.38,1.51-.38c.81,0,1.44.2,1.87.6.43.4.65.96.65,1.69v4.97h-1.04v-4.88Z"/>
    <path d="M69.9,224.21c-.37,0-.65-.1-.84-.3s-.28-.46-.28-.79v-5.66c0-.21.03-.39.09-.56.06-.17.14-.31.23-.44s.19-.25.31-.36c.11-.11.22-.22.33-.33.15-.15.28-.3.39-.47s.17-.37.17-.6c0-.32-.1-.56-.29-.72s-.44-.24-.74-.24c-.68,0-1.11.36-1.31,1.08l-.81-.47c.17-.47.44-.83.8-1.09s.83-.39,1.41-.39c.32,0,.6.04.84.13.24.09.45.21.61.36.16.16.29.34.38.55.09.21.13.44.13.68,0,.19-.02.36-.07.51-.05.15-.11.29-.19.42-.08.13-.17.25-.26.35-.09.1-.19.21-.29.31-.17.17-.33.36-.47.55-.14.19-.21.42-.21.69v5.87h1.09v.92h-1.01Z"/>
    <path d="M74.82,224.36c-.75,0-1.34-.24-1.77-.71-.42-.48-.64-1.15-.64-2.02v-4.52h1.04v4.39c0,1.32.56,1.98,1.69,1.98.22,0,.43-.03.65-.09.22-.06.41-.15.57-.27s.3-.27.4-.46c.1-.18.16-.39.16-.64v-4.91h1.04v6.17h.83v.92h-.77c-.35,0-.6-.1-.76-.31s-.25-.47-.28-.79h-.05c-.14.4-.4.71-.77.93-.38.22-.83.33-1.35.33Z"/>
    <path d="M80.36,217.11h1.04v2.27l1.94-.29c.38-.06.69-.17.94-.32.24-.15.38-.42.43-.8l.1-.87h1.09l-.1.9c-.04.41-.19.73-.46.98-.26.24-.59.39-1,.45v.07c.86.23,1.34.9,1.44,1.99l.26,2.72h-1.09l-.25-2.78c-.03-.22-.07-.42-.14-.61-.07-.19-.17-.35-.31-.49-.14-.13-.31-.23-.53-.29-.21-.06-.47-.06-.77-.02l-1.55.22v3.96h-1.04v-7.1Z"/>
    <path d="M91.19,224.36c-.3,0-.57-.04-.79-.11-.23-.07-.42-.17-.58-.29-.17-.12-.3-.26-.41-.42s-.2-.32-.27-.49h-.06v1.16h-1.04v-7.1h1.04v4.91c0,.24.05.46.16.64.1.18.24.33.41.46s.36.21.57.27c.21.06.43.09.66.09.57,0,1-.17,1.29-.5.29-.33.44-.83.44-1.48v-4.39h1.04v4.52c0,.88-.22,1.55-.65,2.02-.43.47-1.03.71-1.79.71Z"/>
    <path d="M91.59,214.82h.99v-.48c0-.22-.05-.38-.15-.47s-.27-.14-.5-.14h-.34v-.78h.73c.39,0,.69.09.89.26.2.17.3.4.3.69,0,.16-.04.32-.12.49-.08.17-.2.3-.36.38v.05h2.27v.78h-3.72v-.78Z"/>
    <path d="M98.38,224.36c-.42,0-.81-.06-1.17-.18-.36-.12-.68-.3-.95-.53s-.48-.5-.64-.82-.23-.67-.23-1.06v-.66c0-.26.05-.46.16-.6.1-.14.33-.21.66-.21h1.38v.9h-1.14v.53c0,.3.05.57.15.79.1.23.24.41.41.55.17.14.38.25.63.32s.51.1.8.1c.65,0,1.16-.2,1.52-.6.36-.4.55-.96.55-1.68v-1.07c0-.73-.2-1.29-.59-1.7-.39-.4-.94-.6-1.64-.6-.54,0-1,.11-1.39.33-.39.22-.7.51-.92.87l-.68-.6c.24-.42.61-.78,1.11-1.07.5-.29,1.14-.43,1.93-.43,1.05,0,1.86.33,2.44.98.58.65.86,1.56.86,2.72,0,.56-.07,1.07-.21,1.53-.14.46-.34.85-.62,1.17-.27.32-.61.57-1.01.74-.4.17-.87.26-1.4.26Z"/>
    <path d="M103.5,217.11h1.04v1.16h.07c.07-.16.16-.33.27-.49.11-.16.25-.3.42-.42.17-.12.37-.22.6-.29.23-.07.5-.11.8-.11.75,0,1.35.24,1.77.71.43.47.64,1.15.64,2.02v4.52h-1.04v-4.39c0-1.32-.57-1.98-1.72-1.98-.23,0-.45.03-.66.09-.22.06-.41.15-.58.27s-.31.27-.41.46c-.1.18-.16.39-.16.64v4.91h-1.04v-7.1Z"/>
    <path d="M103.8,214.82h4.29v-.95h1.01v1.85h-5.3v-.9Z"/>
    <path d="M108.14,211.12h.96v1.94h-.96v-1.94Z"/>
    <path d="M111.89,220.15l-1.11-.47c.03-.4.12-.76.29-1.1.17-.33.39-.62.67-.87.28-.24.6-.43.97-.57.37-.13.77-.2,1.2-.2,1.01,0,1.79.25,2.33.76.54.51.81,1.19.81,2.06v4.43h-1.04v-4.3c0-.68-.19-1.19-.57-1.53s-.87-.52-1.49-.52c-.27,0-.52.03-.76.1-.24.07-.45.16-.64.27-.19.12-.36.26-.49.43-.14.17-.24.36-.3.57l.65.26c.18.07.31.16.4.27s.12.26.12.45v4.02h-1.04v-4.06Z"/>
    <path d="M116.53,216.19c-.44,0-.79-.13-1.05-.38-.26-.25-.39-.59-.39-1.02s.13-.77.39-1.02c.26-.25.61-.38,1.05-.38s.79.13,1.05.38c.26.25.39.59.39,1.02s-.13.77-.39,1.02c-.26.25-.61.38-1.05.38ZM116.53,215.49c.2,0,.36-.05.47-.16.11-.1.17-.24.17-.41v-.26c0-.17-.06-.31-.17-.41-.11-.1-.27-.16-.47-.16s-.36.05-.47.16c-.11.1-.17.24-.17.41v.26c0,.17.06.31.17.41.11.1.27.16.47.16Z"/>
    <path d="M122.16,219.33c0-1-.52-1.5-1.55-1.5-.42,0-.76.09-1.02.27-.26.18-.49.42-.67.73l-.64-.56c.2-.38.49-.7.88-.95.38-.25.89-.38,1.51-.38.82,0,1.44.2,1.87.6.43.4.65.96.65,1.69v4.97h-1.04v-4.88Z"/>
    <path d="M127.42,224.34c-.72,0-1.29-.18-1.72-.53-.42-.35-.64-.87-.64-1.55s.21-1.17.63-1.52c.42-.36,1-.53,1.72-.53h2.26v-.68c0-1.12-.61-1.68-1.83-1.68-.52,0-.96.11-1.31.32-.35.21-.64.5-.85.88l-.66-.58c.22-.42.57-.78,1.04-1.07s1.08-.44,1.83-.44c.9,0,1.6.22,2.09.67.49.45.73,1.06.73,1.85v4.73h-1.04v-3.26h-2.03c-.47,0-.83.1-1.09.3-.26.2-.39.48-.39.84v.3c0,.39.12.69.36.89.24.2.56.31.97.31.12,0,.22,0,.31-.01.08,0,.15-.02.2-.03l.09.71c-.05.03-.15.05-.29.06-.14.01-.27.02-.38.02Z"/>
    <path d="M129.63,215.72c-.39,0-.68-.09-.86-.29-.18-.19-.27-.44-.27-.75v-.81h1.04v.95h3.31v.9h-3.22Z"/>
    <path d="M132.18,219.07h1.12l1.88,4.26h.04c.55,0,.97-.19,1.27-.57s.45-.9.45-1.58v-1.07c0-.67-.15-1.19-.45-1.56-.3-.37-.72-.56-1.27-.56h-.42v-.9h.43c.89,0,1.59.31,2.08.94.49.62.74,1.5.74,2.61s-.25,1.99-.73,2.61-1.18.94-2.07.94h-.81l-2.26-5.13Z"/>
    <path d="M141.45,224.21c-.36,0-.64-.1-.83-.3-.19-.2-.28-.46-.28-.79v-6.01h1.04v6.17h1.09v.92h-1.03Z"/>
    <path d="M146.76,224.36c-.49,0-.92-.09-1.29-.26-.38-.17-.7-.42-.96-.74-.26-.32-.46-.7-.59-1.16-.13-.46-.2-.97-.2-1.55s.08-1.06.23-1.52c.16-.46.38-.85.67-1.17.29-.32.64-.57,1.06-.75s.88-.27,1.4-.27c.47,0,.9.07,1.28.21.38.14.71.34.99.59.27.25.48.56.63.92s.22.76.22,1.2v4.33h-1.04v-4.19c0-.68-.19-1.22-.57-1.6-.38-.38-.89-.57-1.55-.57-.69,0-1.23.21-1.62.63-.39.42-.58.99-.58,1.71v.94c0,.76.17,1.34.52,1.74s.88.6,1.6.6c.1,0,.19,0,.29,0,.1,0,.2-.02.31-.05l.13.87c-.15.04-.3.07-.47.07-.16,0-.32,0-.46,0Z"/>
    <path d="M144.91,214.82h2.47v-.95h.92v1h.94v-1h.97v1.85h-5.3v-.9Z"/>
    <path d="M155.09,224.36c-.42,0-.81-.06-1.17-.18-.36-.12-.68-.3-.95-.53s-.48-.5-.64-.82-.23-.67-.23-1.06v-.66c0-.26.05-.46.16-.6.1-.14.33-.21.66-.21h1.38v.9h-1.14v.53c0,.3.05.57.15.79.1.23.24.41.41.55.17.14.38.25.63.32s.51.1.8.1c.65,0,1.16-.2,1.52-.6.36-.4.55-.96.55-1.68v-1.07c0-.73-.2-1.29-.59-1.7-.39-.4-.94-.6-1.64-.6-.54,0-1,.11-1.39.33-.39.22-.7.51-.92.87l-.68-.6c.24-.42.61-.78,1.11-1.07.5-.29,1.14-.43,1.93-.43,1.05,0,1.86.33,2.44.98.58.65.86,1.56.86,2.72,0,.56-.07,1.07-.21,1.53-.14.46-.34.85-.62,1.17-.27.32-.61.57-1.01.74-.4.17-.87.26-1.4.26Z"/>
    <path d="M162.92,224.36c-.49,0-.92-.09-1.29-.26-.38-.17-.7-.42-.96-.74-.26-.32-.46-.7-.59-1.16-.13-.46-.2-.97-.2-1.55s.08-1.06.23-1.52c.16-.46.38-.85.67-1.17.29-.32.64-.57,1.06-.75s.88-.27,1.4-.27c.47,0,.9.07,1.28.21.38.14.71.34.99.59.27.25.48.56.63.92s.22.76.22,1.2v4.33h-1.04v-4.19c0-.68-.19-1.22-.57-1.6-.38-.38-.89-.57-1.55-.57-.69,0-1.23.21-1.62.63-.39.42-.58.99-.58,1.71v.94c0,.76.17,1.34.52,1.74s.88.6,1.6.6c.1,0,.19,0,.29,0,.1,0,.2-.02.31-.05l.13.87c-.15.04-.3.07-.47.07-.16,0-.32,0-.46,0Z"/>
    <path d="M168.09,217.11h1.03l.47,3.35.23,2.61h.05l.66-2.61.96-3.35h.94l.98,3.35.65,2.61h.07l.23-2.61.46-3.35h1.04l-1.04,7.1h-1.18l-1.14-3.94-.51-1.99h-.04l-.51,1.99-1.14,3.94h-1.16l-1.04-7.1Z"/>
    <path d="M179.68,224.34c-.72,0-1.29-.18-1.72-.53-.42-.35-.64-.87-.64-1.55s.21-1.17.63-1.52c.42-.36.99-.53,1.72-.53h2.26v-.68c0-1.12-.61-1.68-1.83-1.68-.52,0-.96.11-1.31.32-.35.21-.63.5-.85.88l-.66-.58c.23-.42.57-.78,1.04-1.07s1.08-.44,1.83-.44c.9,0,1.6.22,2.09.67.49.45.73,1.06.73,1.85v4.73h-1.04v-3.26h-2.03c-.47,0-.83.1-1.09.3s-.39.48-.39.84v.3c0,.39.12.69.36.89.24.2.56.31.97.31.12,0,.22,0,.3-.01.08,0,.15-.02.2-.03l.09.71c-.05.03-.15.05-.29.06-.14.01-.27.02-.38.02Z"/>
    <path d="M181.97,213.31h1.01v2.4h-1.01v-2.4Z"/>
    <path d="M188.09,219.33c0-1-.52-1.5-1.55-1.5-.42,0-.76.09-1.02.27-.26.18-.49.42-.67.73l-.64-.56c.2-.38.49-.7.88-.95s.89-.38,1.51-.38c.81,0,1.44.2,1.87.6.43.4.65.96.65,1.69v4.97h-1.04v-4.88Z"/>
    <path d="M193.62,224.36c-.75,0-1.34-.24-1.77-.71-.42-.48-.64-1.15-.64-2.02v-4.52h1.04v4.39c0,1.32.56,1.98,1.69,1.98.22,0,.43-.03.65-.09.22-.06.41-.15.57-.27s.3-.27.4-.46c.1-.18.16-.39.16-.64v-4.91h1.04v6.17h.83v.92h-.77c-.35,0-.6-.1-.76-.31s-.25-.47-.28-.79h-.05c-.14.4-.4.71-.77.93-.38.22-.83.33-1.35.33Z"/>
    <path d="M33.59,232.71h1.03l.47,3.35.23,2.61h.05l.66-2.61.96-3.35h.94l.98,3.35.65,2.61h.07l.23-2.61.46-3.35h1.04l-1.04,7.1h-1.18l-1.14-3.94-.51-1.99h-.04l-.51,1.99-1.14,3.94h-1.16l-1.04-7.1Z"/>
    <path d="M45.57,239.96c-.65,0-1.21-.12-1.66-.35-.46-.23-.85-.56-1.16-.99l.74-.6c.27.36.58.63.93.8.35.17.76.25,1.23.25.52,0,.92-.1,1.19-.3.27-.2.41-.49.41-.88,0-.33-.11-.59-.32-.77-.21-.19-.55-.31-1.02-.38l-.61-.09c-.28-.04-.55-.1-.82-.18s-.51-.19-.73-.34c-.22-.15-.4-.34-.53-.58-.13-.24-.2-.55-.2-.91,0-.34.06-.64.19-.9.13-.26.3-.48.53-.65.23-.17.5-.31.81-.4.31-.09.65-.14,1.01-.14.62,0,1.13.1,1.54.31.41.2.76.47,1.03.8l-.66.62c-.19-.22-.45-.42-.77-.59-.32-.17-.71-.25-1.17-.25-.49,0-.86.1-1.12.3-.26.2-.39.48-.39.83,0,.38.13.65.38.81.25.16.6.27,1.04.34l.61.09c.32.05.62.12.88.21s.5.21.7.36c.19.16.35.35.46.58s.17.51.17.84c0,.68-.24,1.21-.72,1.59-.48.39-1.14.58-1.97.58Z"/>
    <path d="M46.22,230.42h.99v-.48c0-.22-.05-.38-.15-.47s-.27-.14-.5-.14h-.34v-.78h.73c.39,0,.69.09.89.26.2.17.3.4.3.69,0,.16-.04.32-.12.49-.08.17-.2.3-.36.38v.05h2.27v.78h-3.72v-.78Z"/>
    <path d="M52.78,239.96c-.42,0-.81-.06-1.17-.18-.36-.12-.68-.3-.95-.53s-.48-.5-.64-.82c-.16-.32-.23-.67-.23-1.06v-.66c0-.26.05-.46.16-.6.1-.14.33-.21.66-.21h1.38v.9h-1.14v.53c0,.3.05.57.15.79.1.23.24.41.41.55.17.14.38.25.63.32s.51.1.8.1c.65,0,1.16-.2,1.52-.6.36-.4.55-.96.55-1.68v-1.07c0-.73-.2-1.29-.59-1.7-.39-.4-.94-.6-1.64-.6-.54,0-1,.11-1.39.33-.39.22-.7.51-.92.87l-.68-.6c.24-.42.61-.78,1.11-1.07.5-.29,1.14-.43,1.93-.43,1.05,0,1.86.33,2.44.98s.86,1.56.86,2.72c0,.56-.07,1.07-.21,1.53-.14.46-.34.85-.62,1.17-.27.32-.61.57-1.01.74-.4.17-.87.26-1.4.26Z"/>
    <path d="M61.06,239.96c-.3,0-.57-.04-.79-.11-.23-.07-.42-.17-.58-.29-.17-.12-.3-.26-.41-.42s-.2-.32-.27-.49h-.06v1.16h-1.04v-7.1h1.04v4.91c0,.24.05.46.16.64.1.18.24.33.41.46s.36.21.57.27c.21.06.43.09.66.09.57,0,1-.17,1.29-.5.29-.33.44-.83.44-1.48v-4.39h1.04v4.52c0,.88-.22,1.55-.65,2.02-.43.47-1.03.71-1.79.71Z"/>
    <path d="M66.39,236.79h-.79v-.9h1.07c.13,0,.25.03.37.08.12.06.2.15.24.29l.94,2.67h.49c.42,0,.77-.2,1.03-.58s.39-.93.39-1.62v-1.07c0-.7-.19-1.25-.57-1.63-.38-.39-.89-.58-1.54-.58-.62,0-1.12.12-1.52.37-.4.25-.71.57-.94.96l-.68-.6c.11-.22.26-.42.45-.62s.41-.37.68-.52c.26-.15.57-.26.91-.35.34-.09.72-.13,1.14-.13,1.01,0,1.8.32,2.35.96.55.64.83,1.53.83,2.68,0,.56-.06,1.07-.19,1.51s-.3.83-.53,1.14c-.23.31-.5.55-.83.71-.33.17-.69.25-1.09.25h-1.14l-1.05-3.02Z"/>
    <path d="M74.23,235.17c-.39,0-.68-.1-.86-.29s-.27-.44-.27-.75v-.56h1.04v.7h2.25v.9h-2.16ZM74.23,238.51c-.39,0-.68-.1-.86-.29s-.27-.44-.27-.75v-.56h1.04v.7h2.25v.9h-2.16Z"/>
    <path d="M80.61,239.94c-.72,0-1.29-.18-1.72-.53-.42-.35-.64-.87-.64-1.55s.21-1.17.63-1.52c.42-.36.99-.53,1.72-.53h2.26v-.68c0-1.12-.61-1.68-1.83-1.68-.52,0-.96.11-1.31.32-.35.21-.63.5-.85.88l-.66-.58c.23-.42.57-.78,1.04-1.07s1.08-.44,1.83-.44c.9,0,1.6.22,2.09.67.49.45.73,1.06.73,1.85v4.73h-1.04v-3.26h-2.03c-.47,0-.83.1-1.09.3s-.39.48-.39.84v.3c0,.39.12.69.36.89.24.2.56.31.97.31.12,0,.22,0,.3-.01.08,0,.15-.02.2-.03l.09.71c-.05.03-.15.05-.29.06-.14.01-.27.02-.38.02Z"/>
    <path d="M81.88,230.42h.99v-.48c0-.22-.05-.38-.15-.47-.1-.09-.27-.14-.5-.14h-.34v-.78h.73c.39,0,.69.09.89.26.2.17.31.4.31.69,0,.16-.04.32-.12.49-.08.17-.2.3-.36.38v.05h2.28v.78h-3.72v-.78Z"/>
    <path d="M88.4,239.96c-.75,0-1.34-.24-1.77-.71s-.64-1.15-.64-2.02v-4.52h1.04v4.39c0,1.32.56,1.98,1.69,1.98.22,0,.43-.03.65-.09.22-.06.41-.15.57-.27.16-.12.3-.27.4-.46.1-.18.16-.39.16-.64v-4.91h1.04v6.17h.83v.92h-.77c-.35,0-.6-.1-.76-.31-.16-.21-.25-.47-.28-.79h-.05c-.14.4-.4.71-.77.93-.38.22-.83.33-1.35.33Z"/>
    <path d="M96.67,239.96c-.42,0-.81-.06-1.17-.18-.36-.12-.68-.3-.95-.53s-.48-.5-.64-.82c-.16-.32-.23-.67-.23-1.06v-.66c0-.26.05-.46.16-.6.1-.14.33-.21.66-.21h1.38v.9h-1.14v.53c0,.3.05.57.15.79.1.23.24.41.41.55.17.14.38.25.63.32s.51.1.8.1c.65,0,1.16-.2,1.52-.6.36-.4.55-.96.55-1.68v-1.07c0-.73-.2-1.29-.59-1.7-.39-.4-.94-.6-1.64-.6-.54,0-1,.11-1.39.33-.39.22-.7.51-.92.87l-.68-.6c.24-.42.61-.78,1.11-1.07.5-.29,1.14-.43,1.93-.43,1.05,0,1.86.33,2.44.98s.86,1.56.86,2.72c0,.56-.07,1.07-.21,1.53-.14.46-.34.85-.62,1.17-.27.32-.61.57-1.01.74-.4.17-.87.26-1.4.26Z"/>
    <path d="M104.52,239.96c-.42,0-.81-.06-1.17-.18-.36-.12-.68-.3-.95-.53s-.48-.5-.64-.82-.23-.67-.23-1.06v-.66c0-.26.05-.46.16-.6.1-.14.33-.21.66-.21h1.38v.9h-1.14v.53c0,.3.05.57.15.79.1.23.24.41.41.55.17.14.38.25.63.32s.51.1.8.1c.65,0,1.16-.2,1.52-.6.36-.4.55-.96.55-1.68v-1.07c0-.73-.2-1.29-.59-1.7-.39-.4-.94-.6-1.64-.6-.54,0-1,.11-1.39.33-.39.22-.7.51-.92.87l-.68-.6c.24-.42.61-.78,1.11-1.07.5-.29,1.14-.43,1.93-.43,1.05,0,1.86.33,2.44.98.58.65.86,1.56.86,2.72,0,.56-.07,1.07-.21,1.53-.14.46-.34.85-.62,1.17-.27.32-.61.57-1.01.74-.4.17-.87.26-1.4.26Z"/>
    <path d="M110.28,235.75l-1.11-.47c.03-.4.12-.76.29-1.1.17-.33.39-.62.67-.87.28-.24.6-.43.97-.57.37-.13.77-.2,1.2-.2,1.01,0,1.79.25,2.33.76.54.51.81,1.19.81,2.06v4.43h-1.04v-4.3c0-.68-.19-1.19-.57-1.53s-.87-.52-1.49-.52c-.27,0-.52.03-.76.1-.24.07-.45.16-.64.27-.19.12-.36.26-.49.43-.14.17-.24.36-.3.57l.65.26c.18.07.31.16.4.27s.12.26.12.45v4.02h-1.04v-4.06Z"/>
    <path d="M120.75,239.96c-.3,0-.57-.04-.79-.11-.23-.07-.42-.17-.58-.29-.17-.12-.3-.26-.41-.42s-.2-.32-.27-.49h-.06v1.16h-1.04v-7.1h1.04v4.91c0,.24.05.46.16.64.1.18.24.33.41.46s.36.21.57.27c.21.06.43.09.66.09.57,0,1-.17,1.29-.5.29-.33.44-.83.44-1.48v-4.39h1.04v4.52c0,.88-.22,1.55-.65,2.02-.43.47-1.03.71-1.79.71Z"/>
    <path d="M128.43,234.93c0-1-.52-1.5-1.55-1.5-.42,0-.76.09-1.02.27-.26.18-.49.42-.67.73l-.64-.56c.2-.38.49-.7.88-.95.38-.25.89-.38,1.51-.38.82,0,1.44.2,1.87.6.43.4.65.96.65,1.69v4.97h-1.04v-4.88Z"/>
    <path d="M133.13,239.81c-.37,0-.65-.1-.84-.3-.19-.2-.28-.46-.28-.79v-5.66c0-.21.03-.39.09-.56.06-.17.14-.31.23-.44.09-.13.19-.25.3-.36l.33-.33c.15-.15.28-.3.39-.47.11-.17.17-.37.17-.6,0-.32-.1-.56-.29-.72-.19-.16-.44-.24-.74-.24-.68,0-1.11.36-1.31,1.08l-.81-.47c.17-.47.44-.83.8-1.09.36-.26.83-.39,1.41-.39.32,0,.6.04.84.13.24.09.45.21.61.36.17.16.29.34.38.55.09.21.13.44.13.68,0,.19-.02.36-.07.51s-.11.29-.19.42c-.08.13-.17.25-.26.35-.1.1-.19.21-.29.31-.17.17-.33.36-.47.55s-.21.42-.21.69v5.87h1.09v.92h-1.01Z"/>
    <path d="M138.06,239.96c-.75,0-1.34-.24-1.77-.71s-.64-1.15-.64-2.02v-4.52h1.04v4.39c0,1.32.56,1.98,1.69,1.98.22,0,.43-.03.65-.09.22-.06.41-.15.57-.27.16-.12.3-.27.4-.46.1-.18.16-.39.16-.64v-4.91h1.04v6.17h.83v.92h-.77c-.35,0-.6-.1-.76-.31-.16-.21-.25-.47-.28-.79h-.05c-.14.4-.4.71-.77.93-.38.22-.83.33-1.35.33Z"/>
    <path d="M143.6,232.71h1.04v1.16h.07c.07-.16.16-.33.27-.49.11-.16.25-.3.42-.42.17-.12.37-.22.6-.29.23-.07.5-.11.8-.11.75,0,1.35.24,1.77.71.43.47.64,1.15.64,2.02v4.52h-1.04v-4.39c0-1.32-.57-1.98-1.72-1.98-.23,0-.45.03-.66.09-.22.06-.41.15-.58.27s-.31.27-.41.46c-.1.18-.16.39-.16.64v4.91h-1.04v-7.1Z"/>
    <path d="M148.21,242.11h-.86v-.83h1.11c.26,0,.45.07.57.21s.18.33.18.56v2.24h-.99v-2.17Z"/>
    <path d="M151.98,235.75l-1.11-.47c.03-.4.12-.76.29-1.1.17-.33.39-.62.67-.87.28-.24.6-.43.97-.57.37-.13.77-.2,1.2-.2,1.01,0,1.79.25,2.33.76.54.51.81,1.19.81,2.06v4.43h-1.04v-4.3c0-.68-.19-1.19-.57-1.53s-.87-.52-1.49-.52c-.27,0-.52.03-.76.1-.24.07-.45.16-.64.27-.19.12-.36.26-.49.43-.14.17-.24.36-.3.57l.65.26c.18.07.31.16.4.27s.12.26.12.45v4.02h-1.04v-4.06Z"/>
    <path d="M160.8,239.81c-.36,0-.64-.1-.83-.3-.19-.2-.28-.46-.28-.79v-6.01h1.04v6.17h1.09v.92h-1.03Z"/>
    <path d="M166.56,239.96c-.3,0-.57-.04-.79-.11-.23-.07-.42-.17-.58-.29-.17-.12-.3-.26-.41-.42s-.2-.32-.27-.49h-.07v1.16h-1.04v-7.1h1.04v4.91c0,.24.05.46.16.64.1.18.24.33.41.46s.36.21.57.27c.21.06.43.09.66.09.57,0,1-.17,1.29-.5.29-.33.44-.83.44-1.48v-4.39h1.04v4.52c0,.88-.22,1.55-.65,2.02-.43.47-1.03.71-1.79.71Z"/>
    <path d="M163.7,230.42h2.47v-.95h.92v1h.94v-1h.98v1.85h-5.3v-.9Z"/>
    <path d="M168.04,226.72h.96v1.94h-.96v-1.94Z"/>
    <path d="M173.75,239.96c-.42,0-.81-.06-1.17-.18-.36-.12-.68-.3-.95-.53s-.48-.5-.64-.82c-.16-.32-.23-.67-.23-1.06v-.66c0-.26.05-.46.16-.6.1-.14.33-.21.66-.21h1.38v.9h-1.14v.53c0,.3.05.57.15.79.1.23.24.41.41.55.17.14.38.25.63.32s.51.1.8.1c.65,0,1.16-.2,1.52-.6.36-.4.55-.96.55-1.68v-1.07c0-.73-.2-1.29-.59-1.7-.39-.4-.94-.6-1.64-.6-.54,0-1,.11-1.39.33-.39.22-.7.51-.92.87l-.68-.6c.24-.42.61-.78,1.11-1.07.5-.29,1.14-.43,1.93-.43,1.05,0,1.86.33,2.44.98s.86,1.56.86,2.72c0,.56-.07,1.07-.21,1.53-.14.46-.34.85-.62,1.17-.27.32-.61.57-1.01.74-.4.17-.87.26-1.4.26Z"/>
  </g>
  <g>
    <ellipse class="st0" cx="110.25" cy="76.83" rx="14.94" ry="14.47"/>
    <path class="st0" d="M98.65,67.72c-1.02-.21-2.08-.32-3.17-.32-6.04,0-11.23,3.35-13.52,8.16-.8,1.69-1.25,3.55-1.25,5.51,0,4.48,2.32,8.45,5.9,10.94,2.47,1.72,5.54,2.74,8.87,2.74,3.67,0,7.03-1.24,9.62-3.31"/>
    <path class="st0" d="M121.79,67.64c.89-.16,1.8-.24,2.74-.24,5.93,0,11.05,3.24,13.39,7.91.89,1.75,1.38,3.7,1.38,5.76,0,4.63-2.48,8.72-6.28,11.18-2.4,1.58-5.33,2.5-8.49,2.5-3.61,0-6.91-1.2-9.47-3.19"/>
    <path class="st0" d="M103.65,92.46c1.86.93,3.93,1.44,6.11,1.44,2.29,0,4.46-.57,6.39-1.57"/>
    <path class="st0" d="M137.92,75.31c2.4-1.58,5.33-2.5,8.5-2.5,8.16,0,14.77,6.12,14.77,13.68s-6.61,13.68-14.77,13.68c-5.93,0-11.05-3.24-13.4-7.92"/>
    <path class="st0" d="M81.96,75.56c-2.47-1.73-5.54-2.75-8.86-2.75-8.16,0-14.77,6.12-14.77,13.68s6.61,13.68,14.77,13.68c6.03,0,11.22-3.35,13.51-8.16"/>
    <circle class="st0" cx="70.72" cy="54" r="5.09"/>
    <circle class="st0" cx="59.31" cy="68.82" r="3.49"/>
    <circle class="st0" cx="165.72" cy="76.83" r="4.52"/>
    <circle class="st0" cx="154.13" cy="61.76" r="4.05"/>
    <path class="st1" d="M58.33,89.97h102.87v59.79c0,8.99-7.3,16.28-16.28,16.28h-70.3c-8.99,0-16.28-7.3-16.28-16.28v-59.79h0Z"/>
    <path class="st3" d="M92.3,178.76h0c-5.19,0-8.57-5.47-6.25-10.11l6.25-12.5h0l6.25,12.5c2.32,4.65-1.06,10.11-6.25,10.11Z"/>
    <path class="st4" d="M92.3,175.21h0c-2.6,0-4.29-2.73-3.12-5.06l3.13-6.25h0l3.12,6.25c1.16,2.32-.53,5.05-3.12,5.05Z"/>
    <path class="st3" d="M109.76,178.76h0c-5.19,0-8.57-5.47-6.25-10.11l6.25-12.5h0l6.25,12.5c2.32,4.65-1.06,10.11-6.25,10.11Z"/>
    <path class="st3" d="M127.21,178.76h0c-5.19,0-8.57-5.47-6.25-10.11l6.25-12.5h0l6.25,12.5c2.32,4.65-1.06,10.11-6.25,10.11Z"/>
    <path class="st1" d="M58.33,94.45v2.63c-4.71,0-8.52,2.87-8.52,6.4s3.82,6.4,8.52,6.4v2.63c-6.64,0-12.02-4.04-12.02-9.03,0-4.99,5.38-9.03,12.02-9.03Z"/>
    <path class="st1" d="M161.19,94.45v2.63c4.71,0,8.52,2.87,8.52,6.4s-3.82,6.4-8.52,6.4v2.63c6.64,0,12.02-4.04,12.02-9.03,0-4.99-5.38-9.03-12.02-9.03Z"/>
    <path class="st5" d="M94.06,42.74c-2.32,1.45-1.62,3.92-.2,5.82,1.17,1.62,1.79,4.5-.09,5.94-.57.44-1.2.7-1.85.81l-.09-.23c4.67-3.05-.78-5.83-.52-9.57.01-1.48,1.26-2.75,2.64-2.99,0,0,.1.23.1.23h0Z"/>
    <path class="st5" d="M111.2,37.03c-2.32,1.45-1.62,3.92-.2,5.82,1.17,1.62,1.79,4.5-.09,5.94-.57.44-1.2.7-1.85.81,0,0-.09-.23-.09-.23,4.67-3.05-.78-5.83-.52-9.57.01-1.48,1.26-2.75,2.64-2.99,0,0,.1.23.1.23h0Z"/>
    <path class="st5" d="M127.36,42.74c-2.32,1.45-1.62,3.92-.2,5.82,1.17,1.62,1.79,4.5-.09,5.94-.57.44-1.2.7-1.85.81l-.09-.23c4.67-3.05-.78-5.83-.52-9.57.01-1.48,1.26-2.75,2.64-2.99,0,0,.1.23.1.23h0Z"/>
    <path class="st4" d="M109.76,175.21h0c-2.6,0-4.29-2.73-3.12-5.06l3.13-6.25h0l3.12,6.25c1.16,2.32-.53,5.05-3.12,5.05Z"/>
    <path class="st4" d="M127.21,175.21h0c-2.6,0-4.29-2.73-3.12-5.06l3.13-6.25h0l3.12,6.25c1.16,2.32-.53,5.05-3.12,5.05Z"/>
  </g>
</svg>