<?xml version="1.0" encoding="UTF-8"?>
<svg id="Layer_23" xmlns="http://www.w3.org/2000/svg" version="1.1" viewBox="0 0 219.52 308.89">
  <!-- Generator: Adobe Illustrator 30.0.0, SVG Export Plug-In . SVG Version: 2.1.1 Build 123)  -->
  <defs>
    <style>
      .st0 {
        fill: #d6d6d2;
      }

      .st0, .st1, .st2, .st3 {
        stroke-miterlimit: 10;
      }

      .st0, .st2, .st3 {
        stroke: #000;
        stroke-width: .5px;
      }

      .st1 {
        fill: #fff;
        stroke: #b5b5b5;
      }

      .st2 {
        fill: none;
      }

      .st3 {
        fill: #ececec;
      }
    </style>
  </defs>
  <rect class="st1" x="7.41" y="6.19" width="205.34" height="298.37" rx="12" ry="12"/>
  <g>
    <path d="M16.92,218.49c-.34,0-.59-.09-.76-.28-.17-.18-.26-.43-.26-.73v-5.54h.96v5.7h1.01v.85h-.95Z"/>
    <path d="M19.33,211.94h.96v2.1l1.79-.26c.35-.06.64-.15.86-.29.22-.14.36-.39.4-.74l.1-.8h1.01l-.1.83c-.04.38-.18.68-.42.9-.24.22-.55.36-.92.42v.06c.79.22,1.24.83,1.33,1.84l.24,2.51h-1.01l-.23-2.57c-.02-.2-.07-.39-.13-.56-.06-.18-.16-.33-.29-.45s-.29-.21-.49-.26-.43-.06-.71-.02l-1.43.2v3.66h-.96v-6.55Z"/>
    <path d="M29.32,218.64c-.28,0-.52-.03-.73-.1-.21-.07-.39-.16-.54-.27-.15-.11-.28-.24-.38-.38-.1-.14-.18-.3-.25-.46h-.06v1.07h-.96v-6.55h.96v4.54c0,.22.05.42.14.59.1.17.22.31.38.42.16.11.33.2.53.25s.4.08.61.08c.53,0,.93-.15,1.19-.46.27-.31.4-.76.4-1.36v-4.06h.96v4.18c0,.81-.2,1.43-.6,1.87-.4.44-.95.65-1.66.65Z"/>
    <path d="M26.68,209.83h2.28v-.88h.85v.92h.86v-.92h.9v1.7h-4.9v-.83Z"/>
    <path d="M35.96,218.64c-.38,0-.74-.06-1.08-.17-.34-.11-.63-.27-.88-.49s-.44-.46-.59-.76c-.14-.29-.22-.62-.22-.98v-.61c0-.24.05-.43.14-.56s.3-.2.61-.2h1.27v.83h-1.06v.49c0,.28.05.52.14.73s.22.38.38.51.35.23.58.29c.23.06.47.1.74.1.6,0,1.07-.18,1.4-.55.34-.37.5-.88.5-1.55v-.98c0-.67-.18-1.19-.55-1.57-.36-.37-.87-.56-1.52-.56-.5,0-.92.1-1.28.3-.36.2-.64.47-.85.8l-.62-.55c.22-.39.57-.72,1.03-.98.46-.26,1.05-.4,1.78-.4.97,0,1.72.3,2.25.91.53.6.8,1.44.8,2.51,0,.52-.06.99-.19,1.42-.13.42-.32.78-.57,1.08s-.56.52-.94.68c-.37.16-.8.24-1.29.24Z"/>
    <path d="M42.84,218.64c-.7,0-1.24-.22-1.63-.66-.39-.44-.59-1.06-.59-1.86v-4.18h.96v4.06c0,1.22.52,1.82,1.56,1.82.2,0,.4-.03.6-.08.2-.06.38-.14.53-.25.15-.11.28-.25.37-.42.1-.17.14-.36.14-.59v-4.54h.96v5.7h.77v.85h-.71c-.32,0-.55-.1-.7-.29-.15-.19-.23-.44-.26-.73h-.05c-.13.37-.37.65-.71.86s-.76.31-1.24.31Z"/>
    <path d="M47.96,211.94h.96v2.1l1.79-.26c.35-.06.64-.15.86-.29.22-.14.36-.39.4-.74l.1-.8h1.01l-.1.83c-.04.38-.18.68-.42.9-.24.22-.55.36-.92.42v.06c.79.22,1.24.83,1.33,1.84l.24,2.51h-1.01l-.23-2.57c-.02-.2-.07-.39-.13-.56-.06-.18-.16-.33-.29-.45s-.29-.21-.49-.26-.43-.06-.71-.02l-1.43.2v3.66h-.96v-6.55Z"/>
    <path d="M57.95,218.64c-.28,0-.52-.03-.73-.1-.21-.07-.39-.16-.54-.27-.15-.11-.28-.24-.38-.38-.1-.14-.18-.3-.25-.46h-.06v1.07h-.96v-6.55h.96v4.54c0,.22.05.42.14.59.1.17.22.31.38.42.16.11.33.2.53.25s.4.08.61.08c.53,0,.93-.15,1.19-.46.27-.31.4-.76.4-1.36v-4.06h.96v4.18c0,.81-.2,1.43-.6,1.87-.4.44-.95.65-1.66.65Z"/>
    <path d="M64.59,218.64c-.38,0-.74-.06-1.08-.17-.34-.11-.63-.27-.88-.49s-.44-.46-.59-.76c-.14-.29-.22-.62-.22-.98v-.61c0-.24.05-.43.14-.56.1-.13.3-.2.61-.2h1.27v.83h-1.06v.49c0,.28.05.52.14.73.09.21.22.38.38.51.16.13.35.23.58.29.23.06.47.1.74.1.6,0,1.07-.18,1.4-.55s.5-.88.5-1.55v-.98c0-.67-.18-1.19-.55-1.57-.36-.37-.87-.56-1.52-.56-.5,0-.92.1-1.28.3-.36.2-.64.47-.85.8l-.62-.55c.22-.39.57-.72,1.03-.98.46-.26,1.05-.4,1.78-.4.97,0,1.72.3,2.25.91.53.6.8,1.44.8,2.51,0,.52-.06.99-.19,1.42-.13.42-.32.78-.57,1.08s-.56.52-.94.68c-.37.16-.8.24-1.29.24Z"/>
    <path d="M69.91,214.75l-1.02-.43c.02-.37.11-.71.27-1.01.16-.31.36-.57.62-.8.26-.22.55-.4.89-.52s.71-.19,1.11-.19c.94,0,1.65.23,2.15.7s.74,1.1.74,1.9v4.09h-.96v-3.97c0-.62-.17-1.1-.52-1.42-.35-.32-.81-.48-1.37-.48-.25,0-.48.03-.7.09-.22.06-.42.14-.59.25-.18.11-.33.24-.46.4-.13.16-.22.33-.28.52l.6.24c.17.06.29.15.37.25.08.1.11.24.11.41v3.71h-.96v-3.74Z"/>
    <path d="M76.65,211.94h.96v2.1l1.79-.26c.35-.06.64-.15.86-.29.22-.14.36-.39.4-.74l.1-.8h1.01l-.1.83c-.04.38-.18.68-.42.9-.24.22-.55.36-.92.42v.06c.79.22,1.24.83,1.33,1.84l.24,2.51h-1.01l-.23-2.57c-.02-.2-.07-.39-.13-.56-.06-.18-.16-.33-.29-.45s-.29-.21-.49-.26-.43-.06-.71-.02l-1.43.2v3.66h-.96v-6.55Z"/>
    <path d="M85.89,218.64c-.7,0-1.24-.22-1.63-.66-.39-.44-.59-1.06-.59-1.86v-4.18h.96v4.06c0,1.22.52,1.82,1.56,1.82.2,0,.4-.03.6-.08.2-.06.38-.14.53-.25.15-.11.28-.25.37-.42.1-.17.14-.36.14-.59v-4.54h.96v5.7h.77v.85h-.71c-.32,0-.55-.1-.7-.29-.15-.19-.23-.44-.26-.73h-.05c-.13.37-.37.65-.71.86s-.76.31-1.24.31Z"/>
    <path d="M93.63,213.99c0-.92-.48-1.38-1.43-1.38-.38,0-.7.08-.94.25s-.45.39-.62.67l-.59-.52c.18-.35.45-.64.81-.88.36-.23.82-.35,1.4-.35.75,0,1.33.18,1.73.55.4.37.6.89.6,1.56v4.58h-.96v-4.5Z"/>
    <path d="M96.57,211.94h.96v1.07h.06c.06-.15.15-.3.25-.45.1-.15.23-.28.38-.39.16-.11.34-.2.55-.27.21-.07.46-.1.74-.1.7,0,1.24.22,1.64.65.4.44.59,1.06.59,1.87v4.18h-.96v-4.06c0-1.22-.53-1.82-1.58-1.82-.21,0-.41.03-.61.08s-.38.14-.53.25c-.16.11-.28.25-.38.42-.1.17-.14.36-.14.59v4.54h-.96v-6.55Z"/>
    <path d="M96.86,209.83h3.23c-.02-.1-.04-.2-.04-.3,0-.34.11-.6.32-.8.22-.2.51-.3.88-.3s.65.1.87.3c.22.2.33.47.33.8s-.11.62-.33.82c-.22.2-.51.31-.87.31h-4.39v-.83ZM101.25,210.08c.37,0,.55-.16.55-.49v-.12c0-.33-.18-.49-.55-.49s-.55.16-.55.49v.12c0,.33.18.49.55.49Z"/>
    <path d="M106.4,218.64c-.85,0-1.52-.23-2-.69-.49-.46-.73-1.09-.73-1.89v-4.12h.96v4.02c0,.6.16,1.06.47,1.37.32.32.75.47,1.3.47s.99-.16,1.3-.47.47-.77.47-1.37v-4.02h.96v4.12c0,.8-.24,1.43-.73,1.89-.49.46-1.16.69-2,.69Z"/>
    <path d="M111.11,211.94h.96v1.07h.06c.06-.15.15-.3.25-.45.1-.15.23-.28.38-.39.16-.11.34-.2.55-.27.21-.07.46-.1.74-.1.7,0,1.24.22,1.64.65.4.44.59,1.06.59,1.87v4.18h-.96v-4.06c0-1.22-.53-1.82-1.58-1.82-.21,0-.41.03-.61.08s-.38.14-.53.25-.28.25-.38.42-.14.36-.14.59v4.54h-.96v-6.55Z"/>
    <path d="M111.39,209.83h3.96v-.88h.94v1.7h-4.9v-.83Z"/>
    <path d="M115.4,206.41h.89v1.79h-.89v-1.79Z"/>
    <path d="M120.94,218.64c-.85,0-1.52-.23-2-.69-.49-.46-.73-1.09-.73-1.89v-4.12h.96v4.02c0,.6.16,1.06.47,1.37s.75.47,1.3.47.99-.16,1.3-.47.47-.77.47-1.37v-6.13h.96v6.23c0,.8-.24,1.43-.73,1.89-.49.46-1.16.69-2,.69Z"/>
    <path d="M126.25,214.75l-1.02-.43c.02-.37.11-.71.27-1.01.16-.31.36-.57.62-.8.26-.22.55-.4.89-.52s.71-.19,1.11-.19c.94,0,1.65.23,2.15.7s.74,1.1.74,1.9v4.09h-.96v-3.97c0-.62-.17-1.1-.52-1.42-.35-.32-.81-.48-1.37-.48-.25,0-.48.03-.7.09-.22.06-.42.14-.59.25-.18.11-.33.24-.46.4s-.22.33-.28.52l.6.24c.17.06.29.15.37.25.08.1.11.24.11.41v3.71h-.96v-3.74Z"/>
    <path d="M132.93,214.39c0-.39.07-.75.2-1.07s.32-.59.57-.82c.25-.23.55-.4.9-.52.35-.12.75-.18,1.19-.18s.82.06,1.18.18c.35.12.65.29.9.52.25.23.44.5.58.82s.2.68.2,1.07v4.1h-.96v-4.01c0-.6-.17-1.06-.5-1.38-.33-.32-.8-.48-1.4-.48s-1.07.16-1.4.48c-.33.32-.5.78-.5,1.38v1.56h.06c.06-.15.13-.3.23-.44s.22-.26.36-.37c.14-.11.31-.19.51-.26.2-.06.42-.1.68-.1h.4v.96h-.55c-.51,0-.92.1-1.22.3-.3.2-.46.48-.46.83v1.52h-.96v-4.1Z"/>
    <path d="M142.54,218.61c-.67,0-1.19-.16-1.58-.49-.39-.33-.59-.8-.59-1.43s.19-1.08.58-1.4c.39-.33.92-.49,1.59-.49h2.09v-.62c0-1.03-.56-1.55-1.69-1.55-.48,0-.88.1-1.21.29-.32.2-.59.47-.79.81l-.61-.54c.21-.39.53-.72.96-.99.43-.27,1-.4,1.69-.4.83,0,1.47.21,1.93.62.45.41.68.98.68,1.71v4.37h-.96v-3.01h-1.87c-.43,0-.77.09-1.01.28-.24.18-.36.44-.36.78v.28c0,.36.11.63.33.82.22.19.52.28.89.28.11,0,.21,0,.28-.01s.14-.02.19-.02l.08.66s-.14.04-.27.05c-.13.01-.25.02-.35.02Z"/>
    <path d="M144.68,220.62h-.79v-.77h1.02c.24,0,.41.06.52.19.11.13.16.3.16.52v2.06h-.91v-2Z"/>
    <path d="M150.48,218.64c-.28,0-.52-.03-.73-.1-.21-.07-.39-.16-.54-.27-.15-.11-.28-.24-.38-.38-.1-.14-.18-.3-.25-.46h-.06v1.07h-.96v-6.55h.96v4.54c0,.22.05.42.14.59s.22.31.38.42.33.2.53.25c.2.06.4.08.61.08.53,0,.93-.15,1.19-.46.27-.31.4-.76.4-1.36v-4.06h.96v4.18c0,.81-.2,1.43-.6,1.87-.4.44-.95.65-1.66.65Z"/>
    <path d="M156.13,218.49c-.34,0-.6-.09-.77-.28-.17-.18-.26-.43-.26-.73v-6.8c0-.26.03-.48.1-.67.06-.19.15-.36.25-.49.1-.14.22-.25.36-.34.14-.09.28-.17.43-.22v-.05h-2.62v-.79h3.73v.79h-.12c-.38,0-.68.11-.88.32-.2.22-.3.52-.3.91v7.5h1.01v.85h-.94Z"/>
    <path d="M161.19,218.64c-.85,0-1.52-.23-2-.69-.49-.46-.73-1.09-.73-1.89v-4.12h.96v4.02c0,.6.16,1.06.47,1.37s.75.47,1.3.47.99-.16,1.3-.47.47-.77.47-1.37v-6.13h.96v6.23c0,.8-.24,1.43-.73,1.89-.49.46-1.16.69-2,.69Z"/>
    <path d="M165.9,211.94h.96v1.07h.06c.06-.15.15-.3.25-.45.1-.15.23-.28.38-.39.16-.11.34-.2.55-.27.21-.07.46-.1.74-.1.7,0,1.24.22,1.64.65.4.44.59,1.06.59,1.87v4.18h-.96v-4.06c0-1.22-.53-1.82-1.58-1.82-.21,0-.41.03-.61.08s-.38.14-.53.25-.28.25-.38.42-.14.36-.14.59v4.54h-.96v-6.55Z"/>
    <path d="M170.07,210.66c-.36,0-.62-.09-.79-.26s-.25-.41-.25-.7v-.74h.96v.88h3.06v.83h-2.98Z"/>
    <path d="M170.19,206.41h.89v1.79h-.89v-1.79Z"/>
    <path d="M175,218.64c-.31,0-.61-.04-.9-.11-.29-.08-.54-.18-.74-.32l.36-.71c.34.21.76.31,1.26.31.55,0,.98-.19,1.28-.56.3-.37.46-.89.46-1.54v-.98c0-.65-.15-1.16-.44-1.54s-.73-.56-1.3-.56c-.43,0-.79.09-1.07.27-.28.18-.5.43-.65.75l-.78-.4c.2-.43.51-.78.92-1.05.42-.27.95-.4,1.6-.4.9,0,1.58.3,2.05.91.47.6.7,1.44.7,2.51s-.24,1.91-.72,2.51c-.48.6-1.16.91-2.03.91Z"/>
    <path d="M179.49,211.94h.96v1.07h.06c.06-.15.15-.3.25-.45.1-.15.23-.28.38-.39.16-.11.34-.2.55-.27.21-.07.46-.1.74-.1.7,0,1.24.22,1.64.65.4.44.59,1.06.59,1.87v4.18h-.96v-4.06c0-1.22-.53-1.82-1.58-1.82-.21,0-.41.03-.61.08s-.38.14-.53.25-.28.25-.38.42-.14.36-.14.59v4.54h-.96v-6.55Z"/>
    <path d="M183.65,210.66c-.36,0-.62-.09-.79-.26s-.25-.41-.25-.7v-.74h.96v.88h3.06v.83h-2.98Z"/>
    <path d="M182.79,207.57h.9v-.43c0-.37-.21-.55-.64-.55h-.26v-.61h.59c.38,0,.65.08.82.23.17.15.26.35.26.59,0,.14-.03.28-.1.42-.06.14-.16.25-.3.31v.05h1.86v.62h-3.13v-.62Z"/>
    <path d="M186,213.75h1.03l1.74,3.94h.04c.5,0,.89-.17,1.17-.52.28-.35.41-.83.41-1.46v-.98c0-.62-.14-1.1-.41-1.44-.28-.34-.67-.52-1.17-.52h-.38v-.83h.4c.82,0,1.46.29,1.92.86.46.58.68,1.38.68,2.41s-.23,1.84-.68,2.41-1.09.86-1.91.86h-.74l-2.09-4.74Z"/>
    <path d="M194.57,218.49c-.34,0-.6-.09-.77-.28-.17-.18-.26-.43-.26-.73v-5.22c0-.19.03-.36.08-.52.06-.15.13-.29.21-.41s.18-.23.28-.34l.3-.3c.14-.14.26-.28.36-.44s.16-.34.16-.56c0-.3-.09-.52-.26-.67-.18-.15-.4-.22-.68-.22-.62,0-1.03.33-1.21,1l-.74-.43c.16-.43.41-.77.74-1.01s.77-.36,1.3-.36c.3,0,.56.04.78.12.22.08.41.19.56.34.15.14.27.31.35.51.08.2.12.41.12.63,0,.18-.02.33-.07.47-.04.14-.1.27-.17.39-.07.12-.15.23-.24.32-.09.1-.18.19-.26.29-.16.16-.31.33-.44.5s-.2.39-.2.63v5.41h1.01v.85h-.94Z"/>
    <path d="M197.64,215.71h-.73v-.83h.98c.12,0,.23.03.34.08.11.05.18.14.22.27l.86,2.46h.46c.39,0,.71-.18.95-.54.24-.36.36-.86.36-1.5v-.98c0-.65-.17-1.15-.52-1.51-.35-.36-.82-.53-1.42-.53-.57,0-1.04.11-1.4.34-.37.23-.66.52-.86.88l-.62-.55c.1-.2.24-.39.41-.58.17-.18.38-.34.62-.48s.52-.24.84-.32c.32-.08.67-.12,1.05-.12.94,0,1.66.3,2.17.89.51.59.76,1.42.76,2.47,0,.52-.06.99-.17,1.4-.12.41-.28.76-.49,1.05s-.46.51-.77.66c-.3.15-.64.23-1.01.23h-1.06l-.97-2.78Z"/>
    <path d="M65.53,233.04c-.28,0-.52-.03-.73-.1-.21-.07-.39-.16-.54-.27-.15-.11-.28-.24-.38-.38-.1-.14-.18-.3-.25-.46h-.06v1.07h-.96v-6.55h.96v4.54c0,.22.05.42.14.59.1.17.22.31.38.42.16.11.33.2.53.25s.4.08.61.08c.53,0,.93-.15,1.19-.46.27-.31.4-.76.4-1.36v-4.06h.96v4.18c0,.81-.2,1.43-.6,1.87-.4.44-.95.65-1.66.65Z"/>
    <path d="M72.16,233.04c-.38,0-.74-.06-1.08-.17-.34-.11-.63-.27-.88-.49s-.44-.46-.59-.76c-.14-.29-.22-.62-.22-.98v-.61c0-.24.05-.43.14-.56.1-.13.3-.2.61-.2h1.27v.83h-1.06v.49c0,.28.05.52.14.73.09.21.22.38.38.51.16.13.35.23.58.29.23.06.47.1.74.1.6,0,1.07-.18,1.4-.55s.5-.88.5-1.55v-.98c0-.67-.18-1.19-.55-1.57-.36-.37-.87-.56-1.52-.56-.5,0-.92.1-1.28.3-.36.2-.64.47-.85.8l-.62-.55c.22-.39.57-.72,1.03-.98.46-.26,1.05-.4,1.78-.4.97,0,1.72.3,2.25.91.53.6.8,1.44.8,2.51,0,.52-.06.99-.19,1.42-.13.42-.32.78-.57,1.08s-.56.52-.94.68c-.37.16-.8.24-1.29.24Z"/>
    <path d="M76.25,228.15h1.03l1.74,3.94h.04c.5,0,.89-.17,1.17-.52.28-.35.41-.83.41-1.46v-.98c0-.62-.14-1.1-.41-1.44-.28-.34-.67-.52-1.17-.52h-.38v-.83h.4c.82,0,1.46.29,1.92.86.46.58.68,1.38.68,2.41s-.23,1.84-.68,2.41-1.09.86-1.91.86h-.74l-2.09-4.74Z"/>
    <path d="M85.94,233.04c-.38,0-.74-.06-1.08-.17-.34-.11-.63-.27-.88-.49s-.44-.46-.59-.76c-.14-.29-.22-.62-.22-.98v-.61c0-.24.05-.43.14-.56s.3-.2.61-.2h1.27v.83h-1.06v.49c0,.28.05.52.14.73s.22.38.38.51.35.23.58.29c.23.06.47.1.74.1.6,0,1.07-.18,1.4-.55.34-.37.5-.88.5-1.55v-.98c0-.67-.18-1.19-.55-1.57-.36-.37-.87-.56-1.52-.56-.5,0-.92.1-1.28.3-.36.2-.64.47-.85.8l-.62-.55c.22-.39.57-.72,1.03-.98.46-.26,1.05-.4,1.78-.4.97,0,1.72.3,2.25.91.53.6.8,1.44.8,2.51,0,.52-.06.99-.19,1.42-.13.42-.32.78-.57,1.08s-.56.52-.94.68c-.37.16-.8.24-1.29.24Z"/>
    <path d="M91.7,228.61c-.36,0-.62-.09-.79-.26s-.25-.41-.25-.7v-.52h.96v.65h2.08v.83h-1.99ZM91.7,231.69c-.36,0-.62-.09-.79-.26s-.25-.41-.25-.7v-.52h.96v.65h2.08v.83h-1.99Z"/>
    <path d="M97.07,232.89c-.34,0-.6-.09-.77-.28-.17-.18-.26-.43-.26-.73v-6.8c0-.26.03-.48.1-.67.06-.19.15-.36.25-.49.1-.14.22-.25.36-.34.14-.09.28-.17.43-.22v-.05h-2.62v-.79h3.73v.79h-.12c-.38,0-.68.11-.88.32-.2.22-.3.52-.3.91v7.5h1.01v.85h-.94Z"/>
    <path d="M101.71,233.04c-.6,0-1.11-.11-1.54-.32-.42-.22-.78-.52-1.07-.91l.68-.55c.25.34.53.58.86.74.32.16.7.23,1.13.23.48,0,.85-.09,1.1-.28.25-.18.38-.46.38-.82,0-.3-.1-.54-.29-.71-.2-.17-.51-.29-.94-.35l-.56-.08c-.26-.04-.51-.1-.76-.17s-.47-.18-.68-.31c-.2-.14-.37-.32-.49-.54-.12-.22-.19-.5-.19-.84,0-.31.06-.59.17-.83.12-.24.28-.44.49-.6s.46-.28.75-.37.6-.13.94-.13c.57,0,1.04.09,1.42.28.38.19.7.43.95.74l-.61.58c-.18-.21-.41-.39-.71-.55-.3-.16-.66-.23-1.08-.23-.45,0-.79.09-1.03.28-.24.18-.36.44-.36.77,0,.35.12.6.35.74.23.14.55.25.96.31l.56.08c.3.05.57.11.82.19s.46.19.64.34c.18.14.32.32.43.53.1.21.16.47.16.77,0,.62-.22,1.11-.67,1.47-.44.36-1.05.53-1.82.53Z"/>
    <path d="M106.43,229.15l-1.02-.43c.02-.37.11-.71.27-1.01.16-.31.36-.57.62-.8.26-.22.55-.4.89-.52.34-.12.71-.19,1.11-.19.94,0,1.65.23,2.15.7s.74,1.1.74,1.9v4.09h-.96v-3.97c0-.62-.17-1.1-.52-1.42-.35-.32-.81-.48-1.37-.48-.25,0-.48.03-.7.09-.22.06-.42.14-.59.25-.18.11-.33.24-.46.4s-.22.33-.28.52l.6.24c.17.06.29.15.37.25.08.1.11.24.11.41v3.71h-.96v-3.74Z"/>
    <path d="M107.71,225.14c-.37,0-.67-.13-.9-.38s-.35-.59-.35-1.01c0-.46.14-.82.41-1.1.28-.28.66-.42,1.16-.42h3.17v.72h-3.2c-.23,0-.41.07-.53.2-.12.14-.19.32-.19.56,0,.48.21.72.62.72.11,0,.21-.03.28-.08s.14-.12.18-.19c.04-.08.08-.16.1-.25.02-.09.04-.18.05-.26h.65c0,.09.03.18.05.26.03.09.07.17.11.25s.11.14.19.19.18.07.29.07c.16,0,.3-.06.41-.17s.17-.28.17-.52v-.28h.8v.37c0,.41-.11.73-.33.95-.22.23-.53.34-.92.34-.23,0-.45-.07-.66-.2-.21-.13-.35-.34-.43-.62h-.05c-.07.28-.21.49-.4.62-.2.13-.43.2-.7.2Z"/>
    <path d="M114.94,232.89c-.34,0-.6-.09-.77-.28-.17-.18-.26-.43-.26-.73v-6.8c0-.26.03-.48.1-.67.06-.19.15-.36.25-.49.1-.14.22-.25.36-.34.14-.09.28-.17.43-.22v-.05h-2.62v-.79h3.73v.79h-.12c-.38,0-.68.11-.88.32-.2.22-.3.52-.3.91v7.5h1.01v.85h-.94Z"/>
    <path d="M120.24,233.04c-.28,0-.52-.03-.73-.1-.21-.07-.39-.16-.54-.27-.15-.11-.28-.24-.38-.38-.1-.14-.18-.3-.25-.46h-.06v1.07h-.96v-6.55h.96v4.54c0,.22.05.42.14.59s.22.31.38.42.33.2.53.25c.2.06.4.08.61.08.53,0,.93-.15,1.19-.46.27-.31.4-.76.4-1.36v-4.06h.96v4.18c0,.81-.2,1.43-.6,1.87-.4.44-.95.65-1.66.65Z"/>
    <path d="M121.57,222.84h.94v2.22h-.94v-2.22Z"/>
    <path d="M126.86,233.04c-.75,0-1.36-.19-1.82-.57s-.69-.97-.69-1.75c0-.23.02-.44.05-.62.04-.18.08-.34.14-.49.06-.15.13-.29.21-.41s.17-.25.26-.37c.17-.22.31-.44.42-.65.11-.21.17-.43.17-.66v-.32h-1.37v-.85h1.4c.3,0,.52.08.68.23.16.16.23.36.23.62v.11c0,.29-.05.55-.16.8-.11.24-.27.53-.47.86-.18.28-.32.53-.41.76-.09.23-.13.48-.13.75v.37c0,.47.13.82.4,1.04.26.22.62.33,1.06.33s.81-.11,1.06-.33c.25-.22.37-.53.37-.94v-1.04c0-.41-.08-.72-.24-.94-.16-.22-.38-.33-.66-.33h-.34v-.77h.36c.28,0,.5-.08.67-.25s.25-.43.25-.8v-.66h.96v.62c0,.2-.04.38-.11.53-.07.16-.16.29-.28.4-.11.11-.24.2-.39.27-.15.07-.3.11-.45.14v.06c.42.12.74.38.95.78.21.4.31.88.31,1.43,0,.82-.21,1.47-.64,1.94-.42.47-1.02.71-1.8.71Z"/>
    <path d="M128.25,225.06c-.36,0-.62-.09-.79-.26s-.25-.41-.25-.7v-.74h.96v.88h3.06v.83h-2.98Z"/>
    <path d="M133.66,233.04c-.45,0-.85-.08-1.19-.24-.35-.16-.64-.39-.88-.68-.24-.29-.42-.65-.55-1.07s-.19-.9-.19-1.43.07-.98.22-1.4c.14-.42.35-.78.62-1.08.27-.3.59-.53.98-.69s.82-.25,1.3-.25c.43,0,.83.06,1.18.19.36.13.66.31.91.55s.45.52.58.85c.14.33.2.7.2,1.11v4h-.96v-3.86c0-.63-.17-1.12-.52-1.48-.35-.35-.83-.53-1.43-.53-.64,0-1.14.19-1.5.58-.36.39-.54.91-.54,1.58v.86c0,.7.16,1.24.48,1.61.32.37.81.55,1.48.55.09,0,.18,0,.27,0,.09,0,.19-.02.28-.04l.12.8c-.14.04-.28.06-.43.07-.15,0-.29,0-.42,0Z"/>
    <path d="M140.21,232.89c-.34,0-.59-.09-.76-.28-.17-.18-.26-.43-.26-.73v-5.54h.96v5.7h1.01v.85h-.95Z"/>
    <path d="M143.3,230.11h-.73v-.83h.98c.12,0,.23.03.34.08.11.05.18.14.22.27l.86,2.46h.46c.39,0,.71-.18.95-.54.24-.36.36-.86.36-1.5v-.98c0-.65-.17-1.15-.52-1.51-.35-.36-.82-.53-1.42-.53-.57,0-1.04.11-1.4.34-.37.23-.66.52-.86.88l-.62-.55c.1-.2.24-.39.41-.58.17-.18.38-.34.62-.48s.52-.24.84-.32c.32-.08.67-.12,1.05-.12.94,0,1.66.3,2.17.89.51.59.76,1.42.76,2.47,0,.52-.06.99-.17,1.4-.12.41-.28.76-.49,1.05s-.46.51-.77.66c-.3.15-.64.23-1.01.23h-1.06l-.97-2.78Z"/>
    <path d="M151.66,233.04c-.7,0-1.24-.22-1.63-.66-.39-.44-.59-1.06-.59-1.86v-4.18h.96v4.06c0,1.22.52,1.82,1.56,1.82.2,0,.4-.03.6-.08s.38-.14.53-.25c.15-.11.28-.25.37-.42.1-.17.14-.36.14-.59v-4.54h.96v5.7h.77v.85h-.71c-.32,0-.55-.1-.7-.29-.15-.19-.23-.44-.26-.73h-.05c-.13.37-.37.65-.71.86s-.76.31-1.24.31Z"/>
  </g>
  <g>
    <ellipse class="st0" cx="98.19" cy="86.41" rx="36.04" ry="28.28"/>
    <path class="st0" d="M110.3,59.76c6.47-5.71,15.58-9.27,25.68-9.27,19.63,0,35.54,13.43,35.54,30,0,.91-.05,1.82-.14,2.71-1.62,15.3-16.85,27.29-35.4,27.29h-.14c-.44,0-.88-.01-1.31-.03-4.59-.15-8.96-1.04-12.94-2.54h0c-5.63-2.11-10.48-5.41-14.12-9.53-.71-.81-1.38-1.65-1.99-2.53"/>
    <path class="st0" d="M84.27,86.44c-7.95.18-15.41,1.22-21.93,2.93-2.54.66-4.94,1.42-7.17,2.28h0c-1.94.73-3.74,1.54-5.4,2.41-.43.21-.85.44-1.25.67-6.84,3.84-10.93,8.73-10.93,14.06,0,12.35,22.03,22.37,49.2,22.37,8.48,0,16.45-.98,23.41-2.69,14.33-3.53,24.36-10.2,25.65-17.98.06-.36.1-.72.11-1.08"/>
    <line class="st2" x1="101.12" y1="86.3" x2="101.12" y2="86.29"/>
    <path class="st0" d="M110.19,128.47c3.94,1.34,8.23,2.42,12.8,3.19h0c1.81.3,3.66.56,5.54.76,3.6.39,7.33.6,11.15.6,6.02,0,11.8-.51,17.2-1.45h.01c1.91-.33,3.77-.72,5.58-1.16,1.7-.41,3.35-.87,4.95-1.36,2.88-.9,5.59-1.94,8.08-3.09,10.92-5.05,17.79-12.37,17.79-20.52,0-9.13-8.63-17.22-21.92-22.24"/>
    <ellipse class="st3" cx="40.5" cy="82.86" rx="19.95" ry="12.96"/>
    <path class="st3" d="M59.25,82.06c.39-.04.77-.1,1.14-.16.8-.14,1.57-.31,2.31-.51,6.32-1.72,10.79-5.89,10.84-10.62,0-.15,0-.29-.01-.43-.06-1.31-.45-2.55-1.12-3.69-2.48-4.21-8.77-7.02-16-6.7-8.21.37-14.85,4.65-15.98,9.95"/>
    <path class="st3" d="M71.59,70.77c8.38,1.13,14.42,4.44,15.12,8.98.36,2.29-.7,4.59-2.81,6.69-4.1,4.06-12.17,7.4-21.8,8.53-.53.06-1.06.12-1.57.17h-.01c-5.82.52-11.26.14-15.7-.95h-.01c-.17-.05-.33-.09-.5-.13"/>
    <ellipse class="st3" cx="147.69" cy="128.25" rx="19.78" ry="16.61"/>
    <path class="st3" d="M140.15,140.36c-.46.6-.7,1.23-.7,1.88,0,.41.1.82.29,1.22,1.07,2.23,5.03,4.18,10.69,5.5h.01c4.72,1.09,10.62,1.73,17.02,1.73,15.47,0,28.01-3.78,28.01-8.45,0-3.26-6.1-6.08-15.03-7.49-3.88-.62-8.29-.96-12.98-.96-.38,0-.76,0-1.13.01h-.08"/>
    <path class="st3" d="M128.06,130.25c-1.83.38-3.53.85-5.06,1.41h0c-5.37,1.9-8.76,4.68-8.76,7.78,0,5.74,11.57,10.39,25.84,10.39,3.68,0,7.19-.31,10.36-.87h.01"/>
    <path class="st3" d="M176.16,141.16c.01-.24.01-.48.01-.73,0-5.04-2.88-9.43-7.11-11.68-1.9-1.02-4.09-1.58-6.4-1.58-1.97,0-3.84.41-5.53,1.16"/>
  </g>
</svg>