<?xml version="1.0" encoding="UTF-8"?>
<svg id="Layer_25" xmlns="http://www.w3.org/2000/svg" xmlns:xlink="http://www.w3.org/1999/xlink" version="1.1" viewBox="0 0 127.06 126.34">
  <!-- Generator: Adobe Illustrator 30.0.0, SVG Export Plug-In . SVG Version: 2.1.1 Build 123)  -->
  <defs>
    <style>
      .st0, .st1, .st2 {
        fill: none;
      }

      .st3 {
        fill: url(#linear-gradient2);
      }

      .st4 {
        fill: url(#linear-gradient3);
      }

      .st5 {
        fill: url(#linear-gradient);
        stroke: url(#linear-gradient1);
        stroke-width: 2.34px;
      }

      .st5, .st6 {
        stroke-miterlimit: 10;
      }

      .st7 {
        fill: url(#radial-gradient);
      }

      .st8 {
        clip-path: url(#clippath-1);
      }

      .st9 {
        clip-path: url(#clippath-2);
      }

      .st10, .st6 {
        fill: #fff;
      }

      .st6 {
        stroke-width: .82px;
      }

      .st6, .st1 {
        stroke: #000;
      }

      .st1, .st2 {
        stroke-linecap: round;
        stroke-linejoin: round;
        stroke-width: .68px;
      }

      .st11 {
        fill: #f6d3fb;
      }

      .st12 {
        fill: #fdf675;
      }

      .st13 {
        fill: url(#radial-gradient1);
      }

      .st2 {
        stroke: #ee89e2;
      }

      .st14 {
        clip-path: url(#clippath);
      }
    </style>
    <linearGradient id="linear-gradient" x1="112.01" y1="110.35" x2="16.62" y2="14.96" gradientUnits="userSpaceOnUse">
      <stop offset="0" stop-color="#fff" stop-opacity="0"/>
      <stop offset="1" stop-color="#fff" stop-opacity=".6"/>
    </linearGradient>
    <linearGradient id="linear-gradient1" x1="64.31" y1="117.48" x2="64.31" y2="7.84" gradientUnits="userSpaceOnUse">
      <stop offset="0" stop-color="#f1f1f1"/>
      <stop offset=".2" stop-color="#f1f1f1" stop-opacity=".99"/>
      <stop offset=".37" stop-color="#f2f2f2" stop-opacity=".94"/>
      <stop offset=".53" stop-color="#f4f4f4" stop-opacity=".87"/>
      <stop offset=".67" stop-color="#f6f6f6" stop-opacity=".76"/>
      <stop offset=".82" stop-color="#f9f9f9" stop-opacity=".62"/>
      <stop offset=".96" stop-color="#fdfdfd" stop-opacity=".46"/>
      <stop offset="1" stop-color="#fff" stop-opacity=".4"/>
    </linearGradient>
    <linearGradient id="linear-gradient2" x1="2110.79" y1="48.3" x2="2146.13" y2="72.52" gradientTransform="translate(2224.35) rotate(-180) scale(1 -1)" gradientUnits="userSpaceOnUse">
      <stop offset=".33" stop-color="#fff"/>
      <stop offset=".69" stop-color="#e9e0ee"/>
      <stop offset="1" stop-color="#defdfc"/>
    </linearGradient>
    <clipPath id="clippath">
      <path class="st0" d="M52,36.03h14.71c14.7,0,26.64,11.94,26.64,26.64v20.02c0,1.79-1.45,3.24-3.24,3.24H28.61c-1.79,0-3.24-1.45-3.24-3.24v-20.02c0-14.7,11.94-26.64,26.64-26.64Z" transform="translate(118.71 121.96) rotate(-180)"/>
    </clipPath>
    <linearGradient id="linear-gradient3" x1="2125.96" y1="85.84" x2="2150.82" y2="66.4" gradientTransform="translate(2224.35) rotate(-180) scale(1 -1)" gradientUnits="userSpaceOnUse">
      <stop offset=".43" stop-color="#fff"/>
      <stop offset=".55" stop-color="#e8deed"/>
      <stop offset=".99" stop-color="#defdfc"/>
    </linearGradient>
    <radialGradient id="radial-gradient" cx="2164.99" cy="38.53" fx="2164.99" fy="38.53" r="36.44" gradientTransform="translate(2224.35 23.45) rotate(-180) scale(1 -.39)" gradientUnits="userSpaceOnUse">
      <stop offset=".19" stop-color="#fff"/>
      <stop offset=".8" stop-color="#e8deed"/>
      <stop offset=".97" stop-color="#f6d3fb"/>
    </radialGradient>
    <clipPath id="clippath-1">
      <ellipse class="st0" cx="59.36" cy="38.53" rx="33.99" ry="7.61"/>
    </clipPath>
    <radialGradient id="radial-gradient1" cx="2164.99" cy="45.6" fx="2164.99" fy="77.28" r="35.49" gradientTransform="translate(2224.35 31.63) rotate(-180) scale(1 -.31)" gradientUnits="userSpaceOnUse">
      <stop offset=".28" stop-color="#fff"/>
      <stop offset="1" stop-color="#defdfc"/>
    </radialGradient>
    <clipPath id="clippath-2">
      <ellipse class="st0" cx="59.48" cy="72.34" rx="6.45" ry="6.39"/>
    </clipPath>
  </defs>
  <rect class="st5" x="8.17" y="9.01" width="112.3" height="107.3" rx="24.6" ry="24.6"/>
  <g>
    <path d="M35.68,105.06c-.92,0-1.64-.25-2.17-.75-.53-.5-.79-1.18-.79-2.05v-4.46h1.04v4.35c0,.65.17,1.15.51,1.49.34.34.81.51,1.41.51s1.07-.17,1.41-.51c.34-.34.51-.84.51-1.49v-6.64h1.04v6.75c0,.87-.26,1.55-.79,2.05-.53.5-1.25.75-2.17.75Z"/>
    <path d="M43.22,105.06c-.65,0-1.21-.12-1.66-.35-.46-.23-.85-.56-1.16-.99l.74-.6c.27.36.58.63.93.8.35.17.76.25,1.23.25.52,0,.92-.1,1.19-.3.27-.2.41-.49.41-.88,0-.33-.11-.59-.32-.77-.21-.19-.55-.31-1.02-.38l-.61-.09c-.28-.04-.55-.1-.82-.18-.27-.08-.51-.19-.73-.34-.22-.15-.4-.34-.53-.58-.13-.24-.2-.55-.2-.91,0-.34.06-.64.19-.9.13-.26.3-.48.53-.65.23-.17.5-.31.81-.4.31-.09.65-.14,1.01-.14.62,0,1.13.1,1.54.31.41.2.76.47,1.03.8l-.66.62c-.19-.23-.45-.42-.77-.59-.32-.17-.71-.25-1.17-.25-.49,0-.86.1-1.12.3-.26.2-.39.48-.39.83,0,.38.13.65.38.81.25.16.6.27,1.04.34l.61.09c.32.05.62.12.88.21s.5.21.7.36c.19.16.35.35.46.58.11.23.17.51.17.84,0,.68-.24,1.21-.72,1.59-.48.39-1.14.58-1.97.58Z"/>
    <path d="M48.82,100.27c-.39,0-.68-.1-.86-.29-.18-.19-.27-.44-.27-.75v-.56h1.04v.7h2.25v.9h-2.16ZM48.82,103.61c-.39,0-.68-.1-.86-.29-.18-.19-.27-.44-.27-.75v-.56h1.04v.7h2.25v.9h-2.16Z"/>
    <path d="M53.13,97.81h1.04v2.27l1.94-.29c.38-.06.69-.17.94-.32.24-.15.38-.42.43-.8l.1-.87h1.09l-.1.9c-.04.41-.19.73-.46.98-.26.24-.59.39-1,.46v.06c.86.23,1.34.9,1.44,1.99l.26,2.72h-1.09l-.25-2.78c-.03-.22-.07-.42-.14-.61-.07-.19-.17-.35-.31-.49s-.31-.23-.53-.29c-.21-.06-.47-.06-.77-.02l-1.55.22v3.96h-1.04v-7.1Z"/>
    <path d="M62.88,105.04c-.72,0-1.29-.18-1.72-.53-.42-.36-.64-.87-.64-1.55s.21-1.17.63-1.52c.42-.35.99-.53,1.72-.53h2.26v-.68c0-1.12-.61-1.68-1.83-1.68-.52,0-.96.11-1.31.32-.35.21-.63.5-.85.88l-.66-.58c.23-.42.57-.78,1.04-1.07s1.08-.44,1.83-.44c.9,0,1.6.22,2.09.67.49.45.73,1.06.73,1.85v4.73h-1.04v-3.26h-2.03c-.47,0-.83.1-1.09.3s-.39.48-.39.84v.3c0,.39.12.69.36.89.24.2.56.31.97.31.12,0,.22,0,.3-.01.08,0,.15-.02.2-.03l.09.71c-.05.03-.15.05-.29.06-.14.01-.27.02-.38.02Z"/>
    <path d="M71.29,100.03c0-1-.52-1.5-1.55-1.5-.42,0-.76.09-1.02.27-.26.18-.49.42-.67.73l-.64-.56c.2-.38.49-.7.88-.95s.89-.38,1.51-.38c.81,0,1.44.2,1.87.6.43.4.65.96.65,1.69v4.97h-1.04v-4.88Z"/>
    <path d="M77.19,105.06c-.49,0-.92-.09-1.29-.26s-.7-.42-.96-.73-.46-.7-.59-1.16c-.13-.46-.2-.98-.2-1.55s.08-1.06.23-1.52c.16-.46.38-.85.67-1.17.29-.32.64-.57,1.06-.75s.88-.27,1.4-.27c.47,0,.89.07,1.28.21s.71.34.99.59c.27.26.48.56.63.92.15.36.22.76.22,1.2v4.33h-1.04v-4.19c0-.68-.19-1.22-.57-1.6-.38-.38-.9-.57-1.55-.57-.69,0-1.24.21-1.62.63-.39.42-.58.99-.58,1.71v.94c0,.76.17,1.34.52,1.74s.88.6,1.6.6c.09,0,.19,0,.29,0s.2-.02.31-.05l.13.87c-.15.04-.3.07-.47.07-.17,0-.32,0-.46,0Z"/>
    <path d="M84.3,104.91c-.37,0-.65-.1-.84-.3-.19-.2-.28-.46-.28-.79v-5.66c0-.21.03-.39.09-.56s.14-.31.23-.44c.09-.13.19-.25.31-.36.11-.11.22-.22.33-.33.15-.15.28-.31.39-.47.11-.17.17-.37.17-.6,0-.32-.1-.56-.29-.72s-.44-.24-.74-.24c-.68,0-1.11.36-1.31,1.08l-.81-.47c.17-.47.44-.83.8-1.09.36-.26.83-.39,1.41-.39.32,0,.6.04.84.13.24.09.45.21.61.36.16.16.29.34.38.55.09.21.13.44.13.68,0,.19-.02.36-.07.51-.05.15-.11.29-.19.42-.08.13-.17.25-.26.35-.09.1-.19.21-.29.31-.17.17-.33.35-.47.55-.14.19-.21.42-.21.69v5.87h1.09v.92h-1.01Z"/>
    <path d="M87.63,101.89h-.79v-.9h1.07c.13,0,.25.03.37.08.12.06.2.15.24.29l.94,2.67h.49c.42,0,.77-.19,1.03-.58.26-.39.39-.93.39-1.62v-1.07c0-.7-.19-1.25-.57-1.63s-.89-.58-1.54-.58-1.12.12-1.52.37-.71.57-.94.96l-.68-.6c.11-.22.26-.42.45-.62.19-.2.41-.37.68-.52.26-.15.57-.26.91-.35.34-.09.72-.13,1.14-.13,1.01,0,1.8.32,2.35.96.55.64.83,1.53.83,2.68,0,.56-.06,1.07-.19,1.51-.13.45-.3.83-.53,1.14-.22.31-.5.55-.83.71-.33.17-.69.25-1.09.25h-1.14l-1.05-3.02Z"/>
  </g>
  <g>
    <path class="st6" d="M113.05,49.68c-2.06-3.3-5.82-5.22-10.57-5.39-2.95-.11-6.08.47-9.13,1.66v-6.67c0-.15-.01-.29-.03-.43.02-.1.03-.21.03-.32,0-4.2-15.22-7.61-33.99-7.61s-33.99,3.41-33.99,7.61c0,.1.01.2.03.3-.02.15-.03.29-.03.44v20.02c0,14.65,11.99,26.64,26.64,26.64h14.71c2.29,0,4.51-.29,6.64-.84.42-.11.85-.23,1.26-.36.21-.07.42-.13.62-.2.62-.21,1.23-.44,1.82-.7.2-.08.4-.17.59-.26.39-.18.78-.37,1.16-.56.19-.1.38-.2.57-.3.75-.41,1.49-.86,2.2-1.34.18-.12.35-.24.53-.37.7-.5,1.37-1.03,2.01-1.58.16-.14.32-.28.48-.43.63-.57,1.24-1.18,1.81-1.81.14-.16.29-.32.43-.48.19-.22.37-.44.55-.66,0,0,0,0,0,0,.74.13,1.51.2,2.31.23.23,0,.47.01.7.01,4.31,0,8.96-1.43,13.16-4.05,4.43-2.77,7.88-6.56,9.71-10.69,1.93-4.35,1.85-8.56-.21-11.87ZM101.74,69.32c-4.07,2.54-8.44,3.72-12.13,3.54.07-.11.14-.22.2-.34,1.18-2.05,2.1-4.26,2.7-6.59.11-.42.21-.85.3-1.29.36-1.73.54-3.52.54-5.35v-9.62c2.9-1.33,5.84-1.99,8.47-1.99,3.66,0,6.73,1.28,8.32,3.82,3.12,4.99-.66,12.98-8.41,17.83Z"/>
    <g>
      <g id="_หัว" data-name="หัว">
        <g id="_หูแก้ว" data-name="หูแก้ว">
          <path class="st3" d="M89.69,76.27c-4.76-.17-8.51-2.09-10.57-5.39-2.06-3.3-2.14-7.52-.21-11.87,1.83-4.12,5.28-7.92,9.71-10.69,4.43-2.77,9.36-4.2,13.86-4.04,4.76.17,8.51,2.09,10.57,5.39,2.06,3.3,2.14,7.52.21,11.87-1.83,4.12-5.28,7.92-9.71,10.69-4.2,2.63-8.85,4.05-13.16,4.05-.23,0-.47,0-.7-.01ZM90.43,51.24c-7.75,4.84-11.52,12.84-8.41,17.83,3.12,4.99,11.96,5.1,19.71.26,7.75-4.84,11.52-12.84,8.41-17.83-1.59-2.54-4.66-3.82-8.32-3.82s-7.59,1.18-11.39,3.56Z"/>
        </g>
        <g id="_แก้ว" data-name="แก้ว">
          <path class="st10" d="M52,36.03h14.71c14.7,0,26.64,11.94,26.64,26.64v20.02c0,1.79-1.45,3.24-3.24,3.24H28.61c-1.79,0-3.24-1.45-3.24-3.24v-20.02c0-14.7,11.94-26.64,26.64-26.64Z" transform="translate(118.71 121.96) rotate(-180)"/>
        </g>
        <g id="_เงาหัว" data-name="เงาหัว">
          <g class="st14">
            <path class="st4" d="M94.19,39.73c-1.87-.03,2.43,22.03-11,36.14-13.72,14.4-36.78,10.91-36.68,12.23.11,1.5,30.37,9.65,45.1-7.88,13.13-15.61,4.56-40.46,2.58-40.49Z"/>
          </g>
        </g>
        <g id="_ในแก้ว" data-name="ในแก้ว">
          <ellipse class="st7" cx="59.36" cy="38.53" rx="33.99" ry="7.61"/>
        </g>
        <g id="_น้ำ" data-name="น้ำ">
          <g class="st8">
            <ellipse class="st13" cx="59.36" cy="45.6" rx="33.99" ry="7.61"/>
          </g>
        </g>
      </g>
      <g id="_ปาก" data-name="ปาก">
        <g id="_แก้ม" data-name="แก้ม">
          <g id="_แก้ม1" data-name="แก้ม">
            <circle id="_ซ้าย" data-name="ซ้าย" class="st11" cx="79.75" cy="67.62" r="6.41"/>
            <circle id="_ขวา" data-name="ขวา" class="st11" cx="38.09" cy="68.03" r="6.41"/>
          </g>
          <g>
            <line class="st2" x1="36.71" y1="66.11" x2="32.73" y2="70.09"/>
            <line class="st2" x1="40.05" y1="66.11" x2="36.07" y2="70.09"/>
            <line class="st2" x1="43.39" y1="66.11" x2="39.41" y2="70.09"/>
          </g>
          <g>
            <line class="st2" x1="78.42" y1="66.11" x2="74.44" y2="70.09"/>
            <line class="st2" x1="81.76" y1="66.11" x2="77.78" y2="70.09"/>
            <line class="st2" x1="85.09" y1="66.11" x2="81.11" y2="70.09"/>
          </g>
        </g>
        <g id="_ตา" data-name="ตา">
          <g id="_ตา1" data-name="ตา">
            <circle id="_ขวา1" data-name="ขวา" cx="42.68" cy="62.8" r="3.72"/>
            <g id="_วิ้งๆ" data-name="วิ้งๆ">
              <path class="st12" d="M42.68,66.6h0c0-2.1-1.7-3.8-3.8-3.8h0c2.1,0,3.8-1.7,3.8-3.8h0c0,2.1,1.7,3.8,3.8,3.8h0c-2.1,0-3.8,1.7-3.8,3.8Z"/>
              <rect class="st12" x="44.15" y="63.3" width="1.77" height="1.77" rx=".88" ry=".88"/>
              <rect class="st12" x="43.61" y="64.8" width=".95" height=".95" rx=".48" ry=".48"/>
              <circle class="st10" cx="40.96" cy="60.65" r=".75"/>
            </g>
          </g>
          <g id="_ตา2" data-name="ตา">
            <circle id="_ขวา2" data-name="ขวา" cx="75.42" cy="62.8" r="3.72"/>
            <g id="_วิ้งๆ1" data-name="วิ้งๆ">
              <path class="st12" d="M75.42,66.6h0c0-2.1-1.7-3.8-3.8-3.8h0c2.1,0,3.8-1.7,3.8-3.8h0c0,2.1,1.7,3.8,3.8,3.8h0c-2.1,0-3.8,1.7-3.8,3.8Z"/>
              <rect class="st12" x="76.89" y="63.3" width="1.77" height="1.77" rx=".88" ry=".88"/>
              <rect class="st12" x="76.35" y="64.8" width=".95" height=".95" rx=".48" ry=".48"/>
              <circle class="st10" cx="73.7" cy="60.65" r=".75"/>
            </g>
          </g>
        </g>
        <g id="_ปาก1" data-name="ปาก">
          <ellipse cx="59.48" cy="72.34" rx="6.45" ry="6.39"/>
          <g class="st9">
            <ellipse class="st11" cx="59.48" cy="76.49" rx="6.45" ry="5.21"/>
          </g>
        </g>
        <path id="_คิ้ว" data-name="คิ้ว" class="st1" d="M75.02,51.15c3-.17,5.56,2.12,5.73,5.12"/>
      </g>
    </g>
  </g>
</svg>