<?xml version="1.0" encoding="UTF-8"?>
<svg id="_พื้นชื่นชม1" data-name="พื้นชื่นชม1" xmlns="http://www.w3.org/2000/svg" version="1.1" viewBox="0 0 375.21 395.41">
  <!-- Generator: Adobe Illustrator 30.0.0, SVG Export Plug-In . SVG Version: 2.1.1 Build 123)  -->
  <defs>
    <style>
      .st0 {
        fill: #fff42c;
      }

      .st1 {
        fill: #fff57b;
      }

      .st2 {
        fill: #ffe10b;
      }

      .st3 {
        fill: #fff039;
      }

      .st4 {
        fill: #ffe600;
      }

      .st5 {
        fill: #fff;
        stroke-width: .5px;
      }

      .st5, .st6 {
        stroke: #000;
        stroke-miterlimit: 10;
      }

      .st6 {
        fill: none;
        stroke-width: .75px;
      }

      .st7 {
        fill: #efc700;
      }

      .st8 {
        fill: #f9d500;
      }

      .st9 {
        fill: #ffe315;
      }
    </style>
  </defs>
  <rect class="st1" x="114.49" y="302.27" width="160.22" height="93.03"/>
  <rect class="st3" x="114.49" y="302.27" width="160.22" height="20.83"/>
  <rect class="st0" x="274.71" y="338.21" width="100.67" height="57.1"/>
  <rect class="st2" x="274.71" y="338.21" width="100.5" height="15.8"/>
  <rect class="st3" x=".3" y="324.83" width="114.19" height="70.47"/>
  <rect class="st9" x=".3" y="324.83" width="114.19" height="18.33"/>
  <rect class="st4" x="114.49" y="323.11" width="160.22" height="5.14"/>
  <rect class="st8" x=".3" y="343.54" width="114.19" height="5.25"/>
  <rect class="st7" x="274.71" y="354" width="100.67" height="5.25"/>
  <polygon class="st5" points="205.13 374.32 194.7 366.88 184.39 374.49 188.25 362.27 177.82 354.82 190.64 354.72 194.5 342.49 198.56 354.65 211.38 354.55 201.07 362.17 205.13 374.32"/>
  <polygon class="st5" points="76.44 382.76 69.03 377.46 61.7 382.88 64.44 374.19 57.03 368.9 66.14 368.82 68.88 360.14 71.77 368.78 80.88 368.7 73.55 374.12 76.44 382.76"/>
  <polygon class="st5" points="167.71 369.86 161.15 365.11 154.61 369.88 157.1 362.18 150.54 357.43 158.63 357.42 161.12 349.71 163.63 357.41 171.73 357.39 165.19 362.16 167.71 369.86"/>
  <polygon class="st5" points="234.64 369.83 228.08 365.09 221.54 369.86 224.02 362.16 217.47 357.41 225.56 357.4 228.05 349.69 230.56 357.39 238.66 357.37 232.12 362.14 234.64 369.83"/>
  <polygon class="st5" points="332.25 385.9 325.8 381.23 319.36 385.93 321.8 378.34 315.35 373.67 323.32 373.65 325.76 366.07 328.24 373.64 336.21 373.63 329.77 378.32 332.25 385.9"/>
  <line class="st6" x1="114.49" y1="324.83" x2=".3" y2="324.83"/>
  <line class="st6" x1="114.49" y1="343.16" x2=".3" y2="343.16"/>
  <line class="st6" x1="114.49" y1="348.79" x2=".3" y2="348.79"/>
  <line class="st6" x1="274.71" y1="302.56" x2="114.64" y2="302.56"/>
  <line class="st6" x1="274.63" y1="322.53" x2="114.56" y2="322.53"/>
  <line class="st6" x1="274.71" y1="328.24" x2="114.64" y2="328.25"/>
  <line class="st6" x1="114.64" y1="395.31" x2="114.64" y2="302.06"/>
  <line class="st6" x1="274.63" y1="395.41" x2="274.63" y2="302.17"/>
  <line class="st6" x1="375.37" y1="338.21" x2="274.56" y2="338.21"/>
  <line class="st6" x1="375.36" y1="354" x2="274.55" y2="354"/>
  <line class="st6" x1="375.36" y1="359.26" x2="274.55" y2="359.26"/>
</svg>