<?xml version="1.0" encoding="UTF-8"?>
<svg id="_พื้นชื่นชม4" data-name="พื้นชื่นชม4" xmlns="http://www.w3.org/2000/svg" version="1.1" viewBox="0 0 375.21 395.41">
  <!-- Generator: Adobe Illustrator 30.0.0, SVG Export Plug-In . SVG Version: 2.1.1 Build 123)  -->
  <defs>
    <style>
      .st0 {
        fill: #fff42c;
      }

      .st1 {
        fill: #fff57b;
      }

      .st2 {
        fill: #ffe10b;
      }

      .st3 {
        fill: #fff039;
      }

      .st4 {
        fill: #ffe600;
      }

      .st5 {
        fill: #fff;
        stroke-width: .5px;
      }

      .st5, .st6 {
        stroke: #000;
        stroke-miterlimit: 10;
      }

      .st6 {
        fill: none;
        stroke-width: .75px;
      }

      .st7 {
        fill: #efc700;
      }

      .st8 {
        fill: #f9d500;
      }

      .st9 {
        fill: #ffe315;
      }
    </style>
  </defs>
  <rect class="st1" x="114.4" y="302.27" width="160.22" height="93.03"/>
  <rect class="st3" x="114.4" y="302.27" width="160.22" height="20.83"/>
  <rect class="st0" x="274.62" y="338.21" width="100.67" height="57.1"/>
  <rect class="st2" x="274.62" y="338.21" width="100.5" height="15.8"/>
  <rect class="st3" x=".22" y="324.83" width="114.19" height="70.47"/>
  <rect class="st9" x=".22" y="324.83" width="114.19" height="18.33"/>
  <rect class="st4" x="114.4" y="323.11" width="160.22" height="5.14"/>
  <rect class="st8" x=".22" y="343.54" width="114.19" height="5.25"/>
  <rect class="st7" x="274.62" y="354" width="100.67" height="5.25"/>
  <polygon class="st5" points="205.04 374.32 194.61 366.88 184.3 374.49 188.16 362.27 177.73 354.82 190.55 354.72 194.41 342.49 198.47 354.65 211.29 354.55 200.98 362.17 205.04 374.32"/>
  <polygon class="st5" points="47.44 382.76 40.03 377.46 32.71 382.88 35.45 374.19 28.04 368.9 37.15 368.82 39.89 360.14 42.77 368.78 51.88 368.7 44.56 374.12 47.44 382.76"/>
  <polygon class="st5" points="76.35 382.76 68.94 377.46 61.61 382.88 64.36 374.19 56.94 368.9 66.05 368.82 68.8 360.14 71.68 368.78 80.79 368.7 73.47 374.12 76.35 382.76"/>
  <polygon class="st5" points="167.62 369.86 161.06 365.11 154.52 369.88 157.01 362.18 150.45 357.43 158.54 357.42 161.03 349.71 163.55 357.41 171.64 357.39 165.1 362.16 167.62 369.86"/>
  <polygon class="st5" points="234.55 369.83 227.99 365.09 221.45 369.86 223.94 362.16 217.38 357.41 225.47 357.4 227.96 349.69 230.48 357.39 238.57 357.37 232.03 362.14 234.55 369.83"/>
  <polygon class="st5" points="332.17 385.9 325.71 381.23 319.27 385.93 321.72 378.34 315.26 373.67 323.23 373.65 325.68 366.07 328.16 373.64 336.13 373.63 329.69 378.32 332.17 385.9"/>
  <line class="st6" x1="274.62" y1="395.41" x2="274.62" y2="302.17"/>
  <line class="st6" x1="114.4" y1="395.41" x2="114.4" y2="302.17"/>
  <line class="st6" x1="274.59" y1="302.27" x2="114.52" y2="302.28"/>
  <line class="st6" x1="274.59" y1="323.1" x2="114.52" y2="323.11"/>
  <line class="st6" x1="274.59" y1="328.24" x2="114.52" y2="328.25"/>
  <line class="st6" x1="375.36" y1="338.21" x2="274.55" y2="338.21"/>
  <line class="st6" x1="375.28" y1="354" x2="274.46" y2="354"/>
  <line class="st6" x1="375.28" y1="359.26" x2="274.46" y2="359.26"/>
  <line class="st6" x1="114.28" y1="324.83" x2=".1" y2="324.83"/>
  <line class="st6" x1="114.4" y1="343.16" x2=".22" y2="343.16"/>
  <line class="st6" x1="114.04" y1="348.79" x2="-.15" y2="348.79"/>
</svg>