<?xml version="1.0" encoding="UTF-8"?>
<svg id="Layer_19" xmlns="http://www.w3.org/2000/svg" xmlns:xlink="http://www.w3.org/1999/xlink" version="1.1" viewBox="0 0 267.9 284.53">
  <!-- Generator: Adobe Illustrator 30.0.0, SVG Export Plug-In . SVG Version: 2.1.1 Build 123)  -->
  <defs>
    <style>
      .st0, .st1, .st2 {
        fill: none;
      }

      .st1 {
        stroke-width: 4.08px;
      }

      .st1, .st2 {
        stroke: #000;
        stroke-linecap: round;
        stroke-linejoin: round;
      }

      .st3 {
        fill: url(#linear-gradient1);
      }

      .st4 {
        fill: url(#linear-gradient3);
      }

      .st5 {
        fill: url(#linear-gradient2);
        opacity: .62;
      }

      .st6 {
        fill: url(#linear-gradient);
      }

      .st7 {
        fill: #442e21;
      }

      .st8 {
        clip-path: url(#clippath-1);
      }

      .st9 {
        fill: #fff;
      }

      .st10 {
        fill: #edb78e;
      }

      .st2 {
        stroke-width: 1.5px;
      }

      .st11 {
        clip-path: url(#clippath);
      }
    </style>
    <linearGradient id="linear-gradient" x1="130.83" y1="31.75" x2="130.83" y2="252.5" gradientUnits="userSpaceOnUse">
      <stop offset=".17" stop-color="#c49976"/>
      <stop offset=".59" stop-color="#96590f"/>
    </linearGradient>
    <clipPath id="clippath">
      <path class="st0" d="M130.83,233.23h0c-12.06,0-22.36-8.68-24.42-20.55l-24.47-141.16h97.78l-24.47,141.16c-2.06,11.88-12.37,20.55-24.42,20.55Z"/>
    </clipPath>
    <linearGradient id="linear-gradient1" x1="131.56" y1="175.37" x2="131.56" y2="263.89" gradientUnits="userSpaceOnUse">
      <stop offset=".34" stop-color="#cc8246"/>
      <stop offset=".39" stop-color="#bf783f"/>
      <stop offset=".62" stop-color="#864c20"/>
      <stop offset=".73" stop-color="#703b14"/>
    </linearGradient>
    <linearGradient id="linear-gradient2" x1="-284.95" y1="-431.12" x2="-240.97" y2="-431.12" gradientTransform="translate(312.94 633.92) rotate(14.18)" gradientUnits="userSpaceOnUse">
      <stop offset="0" stop-color="#fff" stop-opacity="0"/>
      <stop offset="1" stop-color="#fff"/>
    </linearGradient>
    <linearGradient id="linear-gradient3" x1="130.83" y1="20.72" x2="130.83" y2="90.12" gradientUnits="userSpaceOnUse">
      <stop offset=".4" stop-color="#fff"/>
      <stop offset=".77" stop-color="#edb78e"/>
    </linearGradient>
    <clipPath id="clippath-1">
      <path id="_ครีม1" data-name="ครีม" class="st0" d="M122.14,31.56h17.39c22.18,0,40.19,18.01,40.19,40.19h-97.78c0-22.18,18.01-40.19,40.19-40.19Z"/>
    </clipPath>
  </defs>
  <path d="M105.06,255.4c-4.37,0-7.92-3.55-7.92-7.92v-8.59h2.43c.1,0,.21,0,.31,0,2.14-.08,4.07-1.06,5.44-2.76,1.41-1.74,1.99-4,1.61-6.2l-27-155.76h-.43v-2.45l-.47-2.63h.56c.17-2.7.58-5.36,1.25-7.95.69-2.69,1.65-5.33,2.85-7.84,4.8-10,13.16-17.63,23.54-21.51,2.6-.97,5.31-1.69,8.05-2.13,2.26-.36,4.56-.55,6.84-.55h17.39c.78,0,1.59.02,2.41.07,5.83.32,11.42,1.81,16.63,4.41,1.21.6,2.4,1.27,3.55,1.99,4.15,2.59,7.79,5.85,10.83,9.69.8,1,1.56,2.06,2.27,3.15,2.84,4.34,4.84,9.11,5.95,14.16.33,1.5.58,3.03.74,4.55.07.64.12,1.29.16,1.94h.56l-.47,2.64v2.45h-.43l-27,155.76c-.38,2.2.21,4.46,1.61,6.2,1.37,1.69,3.31,2.67,5.45,2.76.1,0,.2,0,.31,0h2.43v8.59c0,4.37-3.55,7.92-7.92,7.92h-51.54Z"/>
  <path class="st9" d="M179.73,71.52h0c0-1.39-.09-2.75-.23-4.1-.16-1.46-.39-2.89-.7-4.29-1.06-4.83-2.98-9.34-5.61-13.35-.67-1.02-1.38-2.02-2.14-2.97-2.85-3.6-6.31-6.7-10.22-9.14-1.08-.68-2.2-1.3-3.34-1.88-4.76-2.38-10.07-3.84-15.68-4.16-.75-.04-1.51-.07-2.27-.07h-17.39c-2.2,0-4.35.18-6.45.52-2.62.42-5.16,1.1-7.59,2.01-9.76,3.64-17.72,10.96-22.2,20.28-1.13,2.35-2.03,4.82-2.69,7.39-.8,3.12-1.23,6.39-1.25,9.76h0v.02c0,.07,0,.15,0,.22h0s.04,0,.04,0l.7,4.04,2.21,12.76,1.19,6.87,16.64,96.02,3.15,18.19.53,3.03,2.92,16.84c1.03,5.94-3.34,11.56-9.36,11.79-.13,0-.27,0-.4,0v6.17c0,3.03,2.46,5.49,5.49,5.49h51.54c3.03,0,5.49-2.46,5.49-5.49v-6.17c-.13,0-.27,0-.4,0-6.02-.23-10.38-5.86-9.36-11.79l2.92-16.84.53-3.03,3.15-18.19,17.12-98.75,3.17-18.31.46-2.64h.04c0-.07,0-.15,0-.22v-.02Z"/>
  <path id="_ฐาน" data-name="ฐาน" class="st9" d="M152.34,229.52l27.39-158h-97.78l27.39,158c1.03,5.94-3.34,11.56-9.36,11.79-.13,0-.27,0-.4,0v6.17c0,3.03,2.46,5.49,5.49,5.49h51.54c3.03,0,5.49-2.46,5.49-5.49v-6.17c-.13,0-.27,0-.4,0-6.02-.23-10.38-5.86-9.36-11.79Z"/>
  <polyline id="_หลอด" data-name="หลอด" class="st1" points="132.41 143.05 190.05 33.44 225.1 50.12"/>
  <path id="_น้ำ" data-name="น้ำ" class="st6" d="M130.83,233.23h0c-12.06,0-22.36-8.68-24.42-20.55l-24.47-141.16h97.78l-24.47,141.16c-2.06,11.88-12.37,20.55-24.42,20.55Z"/>
  <g id="_ข้างในน้ำ" data-name="ข้างในน้ำ">
    <g class="st11">
      <rect class="st3" x="79.15" y="191.45" width="104.82" height="63.81"/>
      <rect class="st10" x="79.15" y="73.29" width="104.82" height="19.41"/>
      <path class="st5" d="M196.16,70.38c-4.67-.36-9.03-1.68-13.53-2.76-6.19-1.48-13.33-2.57-18.52-7.01l-28.5,154.03c-2.24,12.1-.91,21.56,3.04,22.56l6.17,1.56c3.95,1,9.61-6.69,13.38-18.41l48.34-149.94c-3.48.17-6.94.23-10.38-.04Z"/>
      <path class="st7" d="M87.62,63.29c-2.25.09-4.57.22-6.59,1.22s-3.67,3.09-3.43,5.33c.43,3.99,5.87,5.32,7.73,8.88,1.17,2.25.7,4.97.11,7.43s-1.28,5.08-.47,7.48,3.84,4.21,5.94,2.8c1.7-1.14,1.83-3.65,1.17-5.59s-1.92-3.65-2.43-5.63c-1.19-4.54,2.13-9.49,6.6-10.95,4.47-1.45,9.53.14,13.08,3.21,1.22,1.06,2.47,2.36,4.08,2.43,1.97.09,3.46-1.67,4.77-3.14s3.29-2.94,5.09-2.14c1.69.75,2.04,3.09,1.42,4.84-.61,1.75-1.89,3.18-2.66,4.86s-.88,3.95.55,5.13c1.9,1.56,4.94-.14,5.81-2.44.87-2.3.39-4.85.42-7.31s.87-5.28,3.16-6.17c3.63-1.41,6.97,3.05,10.84,3.34,3.01.22,5.53-2.07,8.13-3.61s6.64-2.02,8.05.65c1.74,3.32-2.69,7.18-1.65,10.78.47,1.63,2.15,2.81,3.84,2.71s3.21-1.49,3.48-3.16c.5-3.11-2.75-6.77-.56-9.03,1.25-1.29,3.6-.82,4.76.56,1.16,1.38,1.38,3.32,1.29,5.12-.17,3.38-1.26,6.71-3.12,9.54-1.58,2.39-3.73,4.48-4.64,7.19-.91,2.72.11,6.43,2.91,7.03,1.8.39,3.65-.68,4.74-2.17s1.56-3.31,2.01-5.09c1.49-5.89,2.98-11.77,4.47-17.66.48-1.9,1.03-3.92,2.52-5.2,1.74-1.5,4.35-1.59,6.19-2.97,2.66-1.99,2.61-6.63-.09-8.56-1.91-1.37-4.46-1.32-6.8-1.21-14.3.64-77.28.94-90.71,1.5Z"/>
    </g>
  </g>
  <path id="_ครีม" data-name="ครีม" class="st4" d="M122.14,31.56h17.39c22.18,0,40.19,18.01,40.19,40.19h-97.78c0-22.18,18.01-40.19,40.19-40.19Z"/>
  <g id="_ซอสราด" data-name="ซอสราด">
    <g class="st8">
      <g>
        <path class="st7" d="M89.88,79.38c-.18.18-5.44.06-5.26.25s5.91-5.05,6.08-4.85-5.56,5.43-5.38,5.62,5.91-5.04,6.08-4.85-5.56,5.43-5.38,5.62,5.91-5.04,6.08-4.85-.23,6.15-.03,5.99c4.39-3.65-.89-9.7,3.33-13.55,4.22-3.85,9.45,1.88,13.67-1.97,4.22-3.85-1.02-9.58,3.2-13.44,4.22-3.85,9.45,1.88,13.67-1.97,4.22-3.85-1.02-9.58,3.2-13.44,4.22-3.85,9.46,1.88,13.68-1.98,4.22-3.85-.97-9.28,3.07-13.32.18-.18,5.44-.06,5.26-.25s-5.91,5.05-6.08,4.85,5.56-5.43,5.38-5.62-5.91,5.04-6.08,4.85,5.56-5.43,5.38-5.62-5.91,5.04-6.08,4.85.23-6.15.03-5.99c-4.39,3.65.89,9.7-3.33,13.55-4.22,3.85-9.45-1.88-13.67,1.97-4.22,3.85,1.02,9.58-3.2,13.44s-9.45-1.88-13.67,1.97c-4.22,3.85,1.02,9.58-3.2,13.44s-10.89-2.06-14.22,2.59c-3.5,4.89,1.51,8.67-2.53,12.71Z"/>
        <path class="st7" d="M72.03,72.28c-.18.18-5.44.06-5.26.25s5.91-5.05,6.08-4.85-5.56,5.43-5.38,5.62,5.91-5.04,6.08-4.85-5.56,5.43-5.38,5.62,5.91-5.04,6.08-4.85-.23,6.15-.03,5.99c4.39-3.65-.89-9.7,3.33-13.55s9.45,1.88,13.67-1.97c4.22-3.85-1.02-9.58,3.2-13.44,4.22-3.85,9.45,1.88,13.67-1.97s-1.02-9.58,3.2-13.44,9.46,1.88,13.68-1.98c4.22-3.85-.97-9.28,3.07-13.32.18-.18,5.44-.06,5.26-.25s-5.91,5.05-6.08,4.85,5.56-5.43,5.38-5.62-5.91,5.04-6.08,4.85,5.56-5.43,5.38-5.62-5.91,5.04-6.08,4.85.23-6.15.03-5.99c-4.39,3.65.89,9.7-3.33,13.55-4.22,3.85-9.45-1.88-13.67,1.97s1.02,9.58-3.2,13.44-9.45-1.88-13.67,1.97c-4.22,3.85,1.02,9.58-3.2,13.44-4.22,3.85-10.89-2.06-14.22,2.59-3.5,4.89,1.51,8.67-2.53,12.71Z"/>
        <path class="st7" d="M107.73,86.48c-.18.18-5.44.06-5.26.25s5.91-5.05,6.08-4.85-5.56,5.43-5.38,5.62,5.91-5.04,6.08-4.85-5.56,5.43-5.38,5.62,5.91-5.04,6.08-4.85-.23,6.15-.03,5.99c4.39-3.65-.89-9.7,3.33-13.55,4.22-3.85,9.45,1.88,13.67-1.97,4.22-3.85-1.02-9.58,3.2-13.44,4.22-3.85,9.45,1.88,13.67-1.97s-1.02-9.58,3.2-13.44c4.22-3.85,9.46,1.88,13.68-1.98,4.22-3.85-.97-9.28,3.07-13.32.18-.18,5.44-.06,5.26-.25s-5.91,5.05-6.08,4.85,5.56-5.43,5.38-5.62-5.91,5.04-6.08,4.85,5.56-5.43,5.38-5.62-5.91,5.04-6.08,4.85.23-6.15.03-5.99c-4.39,3.65.89,9.7-3.33,13.55s-9.45-1.88-13.67,1.97c-4.22,3.85,1.02,9.58-3.2,13.44s-9.45-1.88-13.67,1.97c-4.22,3.85,1.02,9.58-3.2,13.44-4.22,3.85-10.89-2.06-14.22,2.59-3.5,4.89,1.51,8.67-2.53,12.71Z"/>
        <path class="st7" d="M125.58,93.58c-.18.18-5.44.06-5.26.25s5.91-5.05,6.08-4.85-5.56,5.43-5.38,5.62,5.91-5.04,6.08-4.85-5.56,5.43-5.38,5.62,5.91-5.04,6.08-4.85-.23,6.15-.03,5.99c4.39-3.65-.89-9.7,3.33-13.55,4.22-3.85,9.45,1.88,13.67-1.97,4.22-3.85-1.02-9.58,3.2-13.44,4.22-3.85,9.45,1.88,13.67-1.97,4.22-3.85-1.02-9.58,3.2-13.44s9.46,1.88,13.68-1.98c4.22-3.85-.97-9.28,3.07-13.32.18-.18,5.44-.06,5.26-.25s-5.91,5.05-6.08,4.85,5.56-5.43,5.38-5.62-5.91,5.04-6.08,4.85,5.56-5.43,5.38-5.62-5.91,5.04-6.08,4.85.23-6.15.03-5.99c-4.39,3.65.89,9.7-3.33,13.55-4.22,3.85-9.45-1.88-13.67,1.97-4.22,3.85,1.02,9.58-3.2,13.44s-9.45-1.88-13.67,1.97c-4.22,3.85,1.02,9.58-3.2,13.44-4.22,3.85-10.89-2.06-14.22,2.59-3.5,4.89,1.51,8.67-2.53,12.71Z"/>
        <path class="st7" d="M143.43,100.68c-.18.18-5.44.06-5.26.25s5.91-5.05,6.08-4.85-5.56,5.43-5.38,5.62,5.91-5.04,6.08-4.85-5.56,5.43-5.38,5.62,5.91-5.04,6.08-4.85-.23,6.15-.03,5.99c4.39-3.65-.89-9.7,3.33-13.55,4.22-3.85,9.45,1.88,13.67-1.97,4.22-3.85-1.02-9.58,3.2-13.44,4.22-3.85,9.45,1.88,13.67-1.97s-1.02-9.58,3.2-13.44,9.46,1.88,13.68-1.98c4.22-3.85-.97-9.28,3.07-13.32.18-.18,5.44-.06,5.26-.25s-5.91,5.05-6.08,4.85,5.56-5.43,5.38-5.62-5.91,5.04-6.08,4.85,5.56-5.43,5.38-5.62-5.91,5.04-6.08,4.85.23-6.15.03-5.99c-4.39,3.65.89,9.7-3.33,13.55-4.22,3.85-9.45-1.88-13.67,1.97-4.22,3.85,1.02,9.58-3.2,13.44-4.22,3.85-9.45-1.88-13.67,1.97-4.22,3.85,1.02,9.58-3.2,13.44-4.22,3.85-10.89-2.06-14.22,2.59-3.5,4.89,1.51,8.67-2.53,12.71Z"/>
      </g>
    </g>
  </g>
  <g id="_หน้า" data-name="หน้า">
    <g id="_ปาก" data-name="ปาก">
      <line class="st2" x1="125.82" y1="126.94" x2="130.17" y2="131.28"/>
      <line class="st2" x1="134.51" y1="126.94" x2="130.17" y2="131.28"/>
    </g>
    <g id="_แก้ม" data-name="แก้ม">
      <g>
        <g id="_ซ้าย" data-name="ซ้าย">
          <circle class="st10" cx="105.22" cy="124.82" r="7.88"/>
        </g>
        <g id="_ขวา" data-name="ขวา">
          <circle class="st10" cx="156.45" cy="125.32" r="7.88"/>
        </g>
      </g>
    </g>
    <g id="_ตา" data-name="ตา">
      <circle id="_ซ้าย1" data-name="ซ้าย" cx="113.62" cy="118.59" r="3.17"/>
      <circle id="_ขวา1" data-name="ขวา" cx="147.88" cy="118.59" r="3.17"/>
      <circle class="st9" cx="113.71" cy="117.16" r="1.42"/>
      <circle class="st9" cx="147.96" cy="117.16" r="1.42"/>
    </g>
  </g>
</svg>