<?xml version="1.0" encoding="UTF-8"?>
<svg id="Layer_41" xmlns="http://www.w3.org/2000/svg" xmlns:xlink="http://www.w3.org/1999/xlink" version="1.1" viewBox="0 0 242.86 266.42">
  <!-- Generator: Adobe Illustrator 30.0.0, SVG Export Plug-In . SVG Version: 2.1.1 Build 123)  -->
  <defs>
    <style>
      .st0, .st1, .st2 {
        fill: none;
      }

      .st3 {
        fill: #f3ffc2;
      }

      .st4 {
        fill: url(#linear-gradient);
      }

      .st5 {
        fill: #f8fa1a;
      }

      .st6 {
        filter: url(#outer-glow-2);
      }

      .st6, .st7, .st8, .st9, .st10, .st11 {
        fill: #fff;
      }

      .st6, .st1, .st2 {
        stroke-linecap: round;
        stroke-linejoin: round;
      }

      .st6, .st8 {
        stroke: #ffbb61;
        stroke-width: 1.92px;
      }

      .st7, .st12 {
        opacity: .8;
      }

      .st13 {
        fill: #d7ffa4;
      }

      .st1 {
        stroke: #000;
        stroke-width: 1.87px;
      }

      .st8 {
        filter: url(#outer-glow-4);
        stroke-miterlimit: 10;
      }

      .st14 {
        fill: #f7f919;
      }

      .st15 {
        opacity: .7;
      }

      .st2 {
        stroke: #b8fff6;
        stroke-width: 16.78px;
      }

      .st16 {
        fill: #b8fff6;
      }

      .st17 {
        fill: #b9f91c;
      }

      .st18 {
        fill: #7fe02b;
      }

      .st10 {
        filter: url(#outer-glow-1);
      }

      .st11 {
        filter: url(#outer-glow-3);
      }

      .st19 {
        fill: #fcfad6;
      }

      .st20 {
        fill: #4cc121;
      }

      .st21 {
        clip-path: url(#clippath);
      }
    </style>
    <linearGradient id="linear-gradient" x1="112.9" y1="129.05" x2="112.9" y2="246.55" gradientUnits="userSpaceOnUse">
      <stop offset="0" stop-color="#fff92c"/>
      <stop offset=".32" stop-color="#fffda4"/>
      <stop offset=".76" stop-color="#fff"/>
    </linearGradient>
    <clipPath id="clippath">
      <path id="_แก้ว2" data-name="แก้ว" class="st0" d="M155.2,68.43h-84.6c-7.93,7.93-12.38,12.38-20.32,20.32h0v121.62h0c7.93,7.93,12.38,12.38,20.32,20.32h84.6c7.93-7.93,12.38-12.38,20.32-20.32h0v-121.62h0c-7.93-7.93-12.38-12.38-20.32-20.32Z"/>
    </clipPath>
    <filter id="outer-glow-1" x="78.67" y="157.33" width="107.76" height="89.04" filterUnits="userSpaceOnUse">
      <feOffset dx="0" dy="0"/>
      <feGaussianBlur result="blur" stdDeviation="7.19"/>
      <feFlood flood-color="#fff" flood-opacity="1"/>
      <feComposite in2="blur" operator="in"/>
      <feComposite in="SourceGraphic"/>
    </filter>
    <filter id="outer-glow-2" x="77.71" y="156.37" width="109.68" height="90.96" filterUnits="userSpaceOnUse">
      <feOffset dx="0" dy="0"/>
      <feGaussianBlur result="blur1" stdDeviation="7.19"/>
      <feFlood flood-color="#fff" flood-opacity="1"/>
      <feComposite in2="blur1" operator="in"/>
      <feComposite in="SourceGraphic"/>
    </filter>
    <filter id="outer-glow-3" x="47.17" y="136.39" width="92.64" height="75.12" filterUnits="userSpaceOnUse">
      <feOffset dx="0" dy="0"/>
      <feGaussianBlur result="blur2" stdDeviation="6.73"/>
      <feFlood flood-color="#fff" flood-opacity="1"/>
      <feComposite in2="blur2" operator="in"/>
      <feComposite in="SourceGraphic"/>
    </filter>
    <filter id="outer-glow-4" x="45.97" y="135.43" width="94.8" height="77.28" filterUnits="userSpaceOnUse">
      <feOffset dx="0" dy="0"/>
      <feGaussianBlur result="blur3" stdDeviation="6.73"/>
      <feFlood flood-color="#fff" flood-opacity="1"/>
      <feComposite in2="blur3" operator="in"/>
      <feComposite in="SourceGraphic"/>
    </filter>
  </defs>
  <g id="_เส้นมะนาว" data-name="เส้นมะนาว">
    <path d="M69.52,96.47c-22.24,0-40.33-18.09-40.33-40.33S47.28,15.82,69.52,15.82s40.33,18.09,40.33,40.33-18.09,40.33-40.33,40.33Z"/>
    <circle class="st9" cx="69.52" cy="56.15" r="37.93"/>
  </g>
  <g id="_มะนาวเต็ม" data-name="มะนาวเต็ม">
    <circle class="st14" cx="69.52" cy="56.15" r="37.93"/>
    <circle class="st19" cx="69.52" cy="56.15" r="34.5"/>
    <g>
      <g id="_x3C_Radial_Repeat_x3E_">
        <path class="st5" d="M67.85,58.74l-17.06,21.82c-.65.83-.56,1.93.21,2.2l16.45,5.75c.77.27,1.52-.53,1.53-1.59l.24-27.7c0-.62-.98-.97-1.37-.48Z"/>
      </g>
      <g id="_x3C_Radial_Repeat_x3E_1" data-name="_x3C_Radial_Repeat_x3E_">
        <path class="st5" d="M66.57,57.06l-27.1,5.74c-1.03.22-1.67,1.12-1.25,1.82l8.91,14.98c.41.7,1.51.57,2.19-.23l17.99-21.06c.41-.47-.13-1.37-.74-1.24Z"/>
      </g>
      <g id="_x3C_Radial_Repeat_x3E_2" data-name="_x3C_Radial_Repeat_x3E_">
        <path class="st5" d="M66.68,54.95l-24.45-13.02c-.93-.5-2-.21-2.13.59l-2.81,17.2c-.13.8.79,1.41,1.83,1.23l27.32-4.57c.62-.1.78-1.14.23-1.43Z"/>
      </g>
      <g id="_x3C_Radial_Repeat_x3E_3" data-name="_x3C_Radial_Repeat_x3E_">
        <path class="st5" d="M68.11,53.4l-10.36-25.69c-.4-.98-1.39-1.45-2.01-.92l-13.21,11.37c-.61.53-.3,1.58.61,2.12l23.86,14.06c.54.32,1.33-.37,1.1-.94Z"/>
      </g>
      <g id="_x3C_Radial_Repeat_x3E_4" data-name="_x3C_Radial_Repeat_x3E_">
        <path class="st5" d="M70.21,53.14l8.57-26.34c.33-1-.14-2-.95-1.99l-17.43.22c-.81.01-1.25,1.02-.9,2.02l9.24,26.11c.21.59,1.25.58,1.45-.02Z"/>
      </g>
      <g id="_x3C_Radial_Repeat_x3E_5" data-name="_x3C_Radial_Repeat_x3E_">
        <path class="st5" d="M71.98,54.28l23.5-14.66c.9-.56,1.18-1.62.56-2.13l-13.49-11.03c-.63-.51-1.61-.02-1.98.97l-9.7,25.94c-.22.59.59,1.25,1.12.92Z"/>
      </g>
      <g id="_x3C_Radial_Repeat_x3E_6" data-name="_x3C_Radial_Repeat_x3E_">
        <path class="st5" d="M72.6,56.3l27.43,3.87c1.05.15,1.95-.48,1.8-1.28l-3.25-17.12c-.15-.8-1.22-1.05-2.14-.53l-24.11,13.64c-.54.31-.35,1.34.27,1.42Z"/>
      </g>
      <g id="_x3C_Radial_Repeat_x3E_7" data-name="_x3C_Radial_Repeat_x3E_">
        <path class="st5" d="M71.78,58.24l18.52,20.59c.71.79,1.8.88,2.2.18l8.52-15.2c.4-.71-.26-1.59-1.3-1.78l-27.23-5.05c-.61-.11-1.13.8-.71,1.26Z"/>
      </g>
      <g id="_x3C_Radial_Repeat_x3E_8" data-name="_x3C_Radial_Repeat_x3E_">
        <path class="st5" d="M69.91,59.21l.95,27.68c.04,1.06.81,1.84,1.57,1.55l16.3-6.17c.76-.29.82-1.39.15-2.2l-17.62-21.37c-.4-.48-1.38-.11-1.35.51Z"/>
      </g>
    </g>
  </g>
  <path d="M67.52,250.6c-3.31,0-6-2.69-6-6v-10.89c0-2.36,1.37-4.4,3.35-5.38l-16.99-16.99v-123.6l16.99-16.99c-1.77-.87-3.05-2.59-3.3-4.63-1.1-.84-1.79-2.16-1.79-3.62,0-.98.31-1.89.85-2.64-.54-.75-.85-1.67-.85-2.64,0-1.47.7-2.8,1.82-3.64.44-2.88,2.93-5.09,5.93-5.09h70.65l6.81-22.76c.82-2.73,3.38-4.64,6.23-4.64.63,0,1.26.09,1.87.27l7.99,2.39c3.43,1.03,5.39,4.66,4.36,8.09l-5.09,17c2.03.74,3.54,2.54,3.88,4.73,1.11.84,1.82,2.17,1.82,3.64,0,.98-.31,1.89-.85,2.64.54.75.85,1.67.85,2.64,0,1.46-.69,2.78-1.79,3.62-.26,2.03-1.53,3.76-3.3,4.63l16.99,16.99v5.85h24.96c5.95,0,10.79,4.84,10.79,10.79v90.31c0,5.95-4.84,10.79-10.79,10.79h-24.96v5.86l-16.99,16.99c1.98.98,3.35,3.02,3.35,5.38v10.89c0,3.31-2.69,6-6,6h-90.76ZM192.09,183.91v-68.73h-14.18v68.73h14.18Z"/>
  <path class="st9" d="M202.88,96h-27.36v-7.26h0c-7.75-7.75-12.17-12.17-19.76-19.76h2.52c1.99,0,3.6-1.61,3.6-3.6v-.75c1-.19,1.75-1.07,1.75-2.12s-.75-1.93-1.75-2.12v-1.05c1-.19,1.75-1.07,1.75-2.12s-.75-1.93-1.75-2.12v-.61c0-1.99-1.61-3.6-3.6-3.6h-1.06l3.15-10.54,2.75-9.19c.65-2.17-.58-4.46-2.75-5.11l-7.99-2.39c-2.17-.65-4.46.58-5.11,2.75l-4.99,16.66-2.34,7.81h-72.43c-1.99,0-3.6,1.61-3.6,3.6v.61c-1,.19-1.75,1.07-1.75,2.12s.75,1.93,1.75,2.12v1.05c-1,.19-1.75,1.07-1.75,2.12s.75,1.93,1.75,2.12v.75c0,1.99,1.61,3.6,3.6,3.6h2.52c-7.59,7.59-12.01,12.01-19.76,19.76h0v121.62c.5.5.98.98,1.45,1.45.71.71,1.38,1.38,2.04,2.04l.65.65,6.82,6.82c2.69,2.69,5.43,5.43,8.8,8.8h-2.52c-1.99,0-3.6,1.61-3.6,3.6v10.89c0,1.99,1.61,3.6,3.6,3.6h90.76c1.99,0,3.6-1.61,3.6-3.6v-10.89c0-1.99-1.61-3.6-3.6-3.6h-2.52c2.85-2.85,5.26-5.26,7.56-7.56.06-.06.11-.11.17-.17.47-.47.94-.94,1.4-1.4s.89-.89,1.34-1.34c.48-.48.97-.97,1.46-1.46,1.18-1.18,2.39-2.39,3.68-3.68.43-.43.87-.87,1.32-1.32.45-.45.91-.91,1.38-1.38.47-.47.95-.95,1.45-1.45v-7.27h27.36c4.63,0,8.39-3.76,8.39-8.39v-90.31c0-4.63-3.76-8.39-8.39-8.39ZM194.49,186.31h-18.97v-73.52h18.97v73.52Z"/>
  <rect id="_หูแก้ว" data-name="หูแก้ว" class="st2" x="155.43" y="104.39" width="47.45" height="90.31"/>
  <rect id="_ฐาน" data-name="ฐาน" class="st16" x="63.92" y="230.12" width="97.96" height="18.09" rx="3.6" ry="3.6"/>
  <path id="_แก้ว" data-name="แก้ว" class="st16" d="M155.2,68.43h-84.6c-7.93,7.93-12.38,12.38-20.32,20.32h0v121.62h0c7.93,7.93,12.38,12.38,20.32,20.32h84.6c7.93-7.93,12.38-12.38,20.32-20.32h0v-121.62h0c-7.93-7.93-12.38-12.38-20.32-20.32Z"/>
  <g id="_หลอด" data-name="หลอด">
    <g>
      <path class="st3" d="M163.12,31.17l-2.75,9.19-18.09,2.73,4.99-16.66c.65-2.17,2.94-3.4,5.11-2.75l7.99,2.39c2.17.65,3.4,2.94,2.75,5.11Z"/>
      <polygon class="st3" points="155.89 55.34 151.18 71.08 133.09 73.8 137.8 58.07 155.89 55.34"/>
      <polygon class="st3" points="146.69 86.06 141.98 101.8 123.9 104.52 128.61 88.79 146.69 86.06"/>
      <polygon class="st3" points="137.5 116.78 132.79 132.52 114.7 135.24 119.41 119.51 137.5 116.78"/>
      <polygon class="st3" points="128.31 147.5 123.6 163.24 105.51 165.96 110.22 150.23 128.31 147.5"/>
      <path class="st3" d="M119.11,178.22l-4.99,16.66c-.65,2.17-2.94,3.4-5.11,2.75l-7.99-2.39c-2.17-.65-3.4-2.94-2.75-5.11l2.75-9.19,18.09-2.73Z"/>
    </g>
    <g>
      <polygon class="st17" points="160.37 40.36 155.89 55.34 137.8 58.07 142.29 43.08 160.37 40.36"/>
      <polygon class="st17" points="151.18 71.08 146.69 86.06 128.61 88.79 133.09 73.8 151.18 71.08"/>
      <polygon class="st17" points="141.98 101.8 137.5 116.78 119.41 119.51 123.9 104.52 141.98 101.8"/>
      <polygon class="st17" points="132.79 132.52 128.31 147.5 110.22 150.23 114.7 135.24 132.79 132.52"/>
      <polygon class="st17" points="123.6 163.24 119.11 178.22 101.03 180.95 105.51 165.96 123.6 163.24"/>
    </g>
  </g>
  <path id="_แก้ว1" data-name="แก้ว" class="st7" d="M155.2,68.43h-84.6c-7.93,7.93-12.38,12.38-20.32,20.32h0v121.62h0c7.93,7.93,12.38,12.38,20.32,20.32h84.6c7.93-7.93,12.38-12.38,20.32-20.32h0v-121.62h0c-7.93-7.93-12.38-12.38-20.32-20.32Z"/>
  <path id="_น้ำ" data-name="น้ำ" class="st4" d="M50.28,146.79v63.56h0c7.93,7.93,12.38,12.38,20.32,20.32h84.6c7.93-7.93,12.38-12.38,20.32-20.32h0v-63.56H50.28Z"/>
  <g id="_ข้างในแก้ว" data-name="ข้างในแก้ว">
    <g class="st21">
      <g class="st15">
        <path class="st18" d="M70.72,217.99c9.77-12.93,17.62-28.77,21.09-44.79,4.95,1.84,8.38,5.48,8.38,5.48-2-.49-3.89-.85-5.69-1.08,5.72,3.84,7.92,11.09,7.92,11.09-1.67-1.41-3.3-2.63-4.89-3.69,4.79,6.8,1.93,16.31,1.93,16.31-.85-2.96-1.87-5.57-2.96-7.87,1.4,8.45-5.85,15.81-5.85,15.81.19-.94.36-1.85.5-2.74-2.88,6.23-9.64,9.55-9.64,9.55.31-.52.61-1.04.9-1.56-4.56,3.08-10.17,3.45-11.6,3.49-.03,0-.05,0-.07,0Z"/>
        <path class="st20" d="M80.46,179.22c-1.24.09-2.59.29-4.07.63,0,0,5.22-4.71,9.69-5.08-.82-.65-1.74-1.26-2.78-1.8,0,0,3.65-1.33,6.65-.36.06.02.12.03.17.05.37.1.74.21,1.09.33.09.03.18.06.27.09-.01.05-.03.1-.04.16-.11.44-.35,1.36-.48,1.8-4.29,15.34-11.45,29.81-20.4,42.96-.01,0-.03,0-.04,0-.01,0-.03,0-.04,0,0,0,0,0-.01-.02-.03-.04-.09-.11-.15-.21-.59-.86-2.3-3.71-2.14-8.09-.2.54-.41,1.09-.61,1.66,0,0-.5-5.8,2.2-12.08-.49.77-.98,1.58-1.48,2.41,0,0,1.76-9.23,7.42-15.27-1.81,1.31-3.77,2.91-5.89,4.85,0,0,4.71-8.88,10.62-12.02Z"/>
        <path class="st18" d="M70.56,217.99c8.95-13.15,16.12-27.62,20.4-42.96.13-.43.37-1.35.48-1.8.01-.05.03-.1.04-.16.11.04.22.08.32.12-3.47,16.02-11.32,31.86-21.09,44.79-.06,0-.12,0-.16,0Z"/>
        <g>
          <path class="st13" d="M71.53,216.96c10.6-15.27,18.01-32.74,21.53-50.99-2.5,18.45-10.09,36.31-21.53,50.99h0Z"/>
          <path class="st13" d="M70.02,211.95c1.61-1.59,4.1-3.98,6.56-3.05,1.32.68,1.28,2.39.8,3.57-.43,1.19-1.1,2.25-1.89,3.2.85-1.55,1.85-3.25,1.71-5.04-.9-3.5-5.56.1-7.19,1.32h0Z"/>
          <path class="st13" d="M84.94,211.48c1.85-4.1.83-8.75-3.76-10.27-3.99-1.77-8.64-.14-11,3.48,2.11-3.98,7.03-5.75,11.18-3.95,4.81,1.72,5.9,6.5,3.58,10.73h0Z"/>
          <path class="st13" d="M92.83,202.36c.86-8.63-4.73-14.35-13.38-11.86-2.32.74-4.47,2.06-6.26,3.77,1.65-1.84,3.77-3.31,6.14-4.14,8.8-2.82,15.04,3.36,13.5,12.23h0Z"/>
          <path class="st13" d="M96.84,190.87c-.96-7.79-9.92-11.02-16.55-7.98-.94.4-1.84.91-2.67,1.53,6.33-5.93,18.79-3.05,19.21,6.45h0Z"/>
          <path class="st13" d="M93.16,179.26c-.46-3.33-4.48-3.21-6.98-2.27.61-.43,1.31-.72,2.05-.89,2.14-.66,5.3.54,4.93,3.17h0Z"/>
        </g>
      </g>
      <g id="_มะนาว2" data-name="มะนาว2" class="st15">
        <g>
          <path class="st10" d="M162.31,178.93l-2.81,1.12-2.21.88-23.68,9.41-4.59,1.82-23.64,9.4-2.33.92-2.81,1.12c6.83,17.1,26.22,25.45,43.34,18.64,17.12-6.8,25.49-26.19,18.72-43.31Z"/>
          <path class="st6" d="M162.31,178.93l-2.81,1.12-2.21.88-23.68,9.41-4.59,1.82-23.64,9.4-2.33.92-2.81,1.12c6.83,17.1,26.22,25.45,43.34,18.64,17.12-6.8,25.49-26.19,18.72-43.31Z"/>
        </g>
        <g id="_ครึ่งมะนาว" data-name="ครึ่งมะนาว">
          <path class="st14" d="M162.31,178.93c6.77,17.12-1.6,36.5-18.72,43.31-17.12,6.8-36.51-1.54-43.34-18.64l2.81-1.12c6.21,15.55,23.85,23.14,39.42,16.95,15.57-6.19,23.18-23.81,17.03-39.39l2.81-1.12Z"/>
          <path class="st19" d="M157.3,180.92l1.29,2.03c.38.6-.15,1.41-1.06,1.63l-23.69,5.75c-.07.02-.15.02-.22,0l-4.59,1.82c-.04.1-.11.18-.21.24l-20.86,12.62c-.8.48-1.74.28-1.9-.41l-.67-3.05-2.33.92c6.21,15.55,23.85,23.14,39.42,16.95,15.57-6.19,23.18-23.81,17.03-39.39l-2.21.88ZM120.57,217.67l-12.16-9.36c-.57-.44-.34-1.38.43-1.89l20.3-13.51c.46-.31,1.19.26,1.01.78l-7.87,23.08c-.3.88-1.15,1.34-1.72.9ZM140.82,216.55c.34.87-.02,1.77-.74,1.8l-15.33.65c-.71.03-1.15-.84-.88-1.73l6.87-23.4c.15-.53,1.07-.57,1.27-.05l8.81,22.74ZM155.47,206.33l-11.33,10.35c-.53.48-1.42.1-1.79-.76l-9.78-22.34c-.22-.5.46-1.12.94-.86l21.36,11.76c.81.45,1.12,1.37.59,1.85ZM159.53,187.23l-2.03,15.21c-.09.71-1.02.98-1.86.57l-21.85-10.82c-.49-.24-.37-1.16.17-1.26l23.92-4.73c.91-.18,1.74.33,1.64,1.04Z"/>
          <g>
            <g id="_x3C_Radial_Repeat_x3E_9" data-name="_x3C_Radial_Repeat_x3E_">
              <path class="st5" d="M132.01,193.82l8.81,22.74c.34.87-.02,1.77-.74,1.8l-15.33.65c-.71.03-1.15-.84-.88-1.73l6.87-23.4c.15-.53,1.07-.57,1.27-.05Z"/>
            </g>
            <g id="_x3C_Radial_Repeat_x3E_10" data-name="_x3C_Radial_Repeat_x3E_">
              <path class="st5" d="M130.16,193.69l-7.87,23.08c-.3.88-1.15,1.34-1.72.9l-12.16-9.36c-.57-.44-.34-1.38.43-1.89l20.3-13.51c.46-.31,1.19.26,1.01.78Z"/>
            </g>
            <path class="st5" d="M129.02,192.16c-.04.1-.11.18-.21.24l-20.86,12.62c-.8.48-1.74.28-1.9-.41l-.67-3.05,23.64-9.4Z"/>
            <path class="st5" d="M157.53,184.58l-23.69,5.75c-.07.02-.15.02-.22,0l23.68-9.41,1.29,2.03c.38.6-.15,1.41-1.06,1.63Z"/>
            <g id="_x3C_Radial_Repeat_x3E_11" data-name="_x3C_Radial_Repeat_x3E_">
              <path class="st5" d="M159.53,187.23l-2.03,15.21c-.09.71-1.02.98-1.86.57l-21.85-10.82c-.49-.24-.37-1.16.17-1.26l23.92-4.73c.91-.18,1.74.33,1.64,1.04Z"/>
            </g>
            <g id="_x3C_Radial_Repeat_x3E_12" data-name="_x3C_Radial_Repeat_x3E_">
              <path class="st5" d="M155.47,206.33l-11.33,10.35c-.53.48-1.42.1-1.79-.76l-9.78-22.34c-.22-.5.46-1.12.94-.86l21.36,11.76c.81.45,1.12,1.37.59,1.85Z"/>
            </g>
          </g>
        </g>
      </g>
      <g class="st15">
        <path class="st18" d="M128.96,159.98c6.09,14.18,15.51,28.14,27.13,38.55-3.86,3.23-8.48,4.35-8.48,4.35,1.35-1.42,2.54-2.82,3.58-4.2-5.87,2.92-12.91,1.33-12.91,1.33,1.95-.71,3.73-1.49,5.36-2.31-7.88.76-14.41-6.09-14.41-6.09,2.85.69,5.49,1.08,7.91,1.25-7.66-2.82-10.33-12.29-10.33-12.29.68.6,1.36,1.17,2.04,1.7-3.79-5.32-3.36-12.48-3.36-12.48.29.51.58,1,.87,1.48-.4-5.22,1.94-10.04,2.58-11.25.01-.02.02-.04.03-.06Z"/>
        <path class="st20" d="M156.45,186.3c.51-1.07.98-2.28,1.39-3.66,0,0,1.44,6.54-.36,10.41.92-.37,1.86-.84,2.8-1.45,0,0-.61,3.65-2.83,5.68-.04.04-.08.08-.12.12-.26.26-.52.51-.79.75-.07.06-.13.12-.2.18-.04-.04-.07-.07-.11-.11-.32-.3-.96-.93-1.26-1.24-10.67-10.78-19.27-23.52-25.94-37.13,0-.01.01-.02.02-.03,0-.01.01-.02.02-.03,0,0,0,0,.02,0,.05,0,.13-.02.24-.03.99-.09,4.16-.15,7.7,2.04-.35-.43-.71-.85-1.09-1.29,0,0,5.03,2.32,8.96,7.52-.41-.77-.84-1.56-1.29-2.36,0,0,6.81,5.81,9.14,13.33-.23-2.11-.63-4.49-1.24-7.16,0,0,5.13,8.08,4.95,14.46Z"/>
        <path class="st18" d="M129.03,159.84c6.66,13.6,15.27,26.35,25.94,37.13.3.31.94.94,1.26,1.24.04.04.07.07.11.11-.08.07-.17.15-.25.21-11.62-10.42-21.04-24.38-27.13-38.55.03-.05.06-.1.07-.13Z"/>
        <g>
          <path class="st13" d="M129.42,161.12c7.64,15.97,18.6,30.33,32.05,41.85-14.09-10.77-25.29-25.45-32.05-41.85h0Z"/>
          <path class="st13" d="M134.29,162.24c.56,2.11,1.36,5.22-.57,6.87-1.19.76-2.58-.07-3.33-1.02-.78-.92-1.34-1.97-1.76-3.07.59,1.01,1.23,2,2.03,2.82.72.75,1.81,1.51,2.8.87.44-.26.69-.78.85-1.3.43-1.67.2-3.45-.02-5.16h0Z"/>
          <path class="st13" d="M127.64,174.81c1.24,1.58,2.89,2.95,4.83,3.36,3.91.76,7.8-2.85,8.58-6.53.41-1.95.03-4.03-.83-5.85,1.04,1.74,1.54,3.86,1.2,5.92-.51,3.08-3.02,5.71-5.92,6.7-3.08,1.11-6.3-1.05-7.85-3.6h0Z"/>
          <path class="st13" d="M131.47,185.63c6.71,4.78,14.12,2.83,16.12-5.48.48-2.27.4-4.67-.17-6.95.74,2.24.96,4.67.53,7.03-1.81,8.61-9.87,10.87-16.48,5.41h0Z"/>
          <path class="st13" d="M139.09,194.37c5.81,2.41,11.9-1.42,13.76-7.1.64-1.83.86-3.81.63-5.76.43,1.92.31,3.97-.28,5.88-1.69,5.9-8.33,10.02-14.11,6.98h0Z"/>
          <path class="st13" d="M150.43,196.8c2.09.93,3.92-.84,4.6-2.71.26-.63.44-1.3.57-1.99.07.71-.03,1.42-.23,2.12-.5,2.08-2.91,4.14-4.94,2.59h0Z"/>
        </g>
      </g>
      <g id="_มะนาว1" data-name="มะนาว1" class="st15">
        <g>
          <path class="st11" d="M100.72,157.99c-13.95-4.34-28.77,3.43-33.14,17.36l2.29.71,1.8.56,19.29,6.01,3.74,1.16,19.26,6,1.9.59,2.29.71c4.32-13.95-3.47-28.76-17.42-33.11Z"/>
          <path class="st8" d="M100.72,157.99c-13.95-4.34-28.77,3.43-33.14,17.36l2.29.71,1.8.56,19.29,6.01,3.74,1.16,19.26,6,1.9.59,2.29.71c4.32-13.95-3.47-28.76-17.42-33.11Z"/>
        </g>
        <g id="_ครึ่งมะนาว1" data-name="ครึ่งมะนาว">
          <path class="st5" d="M67.59,175.35c4.37-13.93,19.19-21.7,33.14-17.36,13.95,4.34,21.74,19.16,17.42,33.11l-2.29-.71c3.92-12.68-3.16-26.16-15.84-30.11-12.68-3.95-26.17,3.12-30.14,15.79l-2.29-.71Z"/>
          <path class="st19" d="M71.67,176.62l.22-1.89c.06-.56.8-.79,1.46-.48l17.47,8.27c.05.03.1.06.14.11l3.74,1.16c.07-.04.16-.06.25-.04l19.15,2.62c.73.1,1.22.69.96,1.2l-1.11,2.22,1.9.59c3.92-12.68-3.16-26.16-15.84-30.11-12.68-3.95-26.17,3.12-30.14,15.79l1.8.56ZM112.64,172.29l2.83,11.83c.13.55-.48,1.02-1.21.95l-19.25-1.8c-.43-.04-.6-.75-.24-.98l16.36-10.3c.62-.39,1.38-.25,1.51.3ZM99.6,162.88c.23-.7.9-1.08,1.35-.74l9.77,7.25c.45.34.29,1.09-.32,1.51l-15.9,11c-.36.25-.95-.19-.81-.6l5.91-18.41ZM85.47,161.87l12.14-.73c.57-.03.92.65.73,1.36l-5.11,18.65c-.11.42-.84.46-1.01.06l-7.3-17.9c-.28-.68,0-1.4.56-1.44ZM73.45,171.62l8.83-8.36c.41-.39,1.12-.1,1.43.57l8.07,17.57c.18.4-.35.9-.73.69l-17.1-9.02c-.65-.34-.91-1.07-.5-1.46Z"/>
          <g>
            <g id="_x3C_Radial_Repeat_x3E_13" data-name="_x3C_Radial_Repeat_x3E_">
              <path class="st5" d="M93.69,181.29l5.91-18.41c.23-.7.9-1.08,1.35-.74l9.77,7.25c.45.34.29,1.09-.32,1.51l-15.9,11c-.36.25-.95-.19-.81-.6Z"/>
            </g>
            <g id="_x3C_Radial_Repeat_x3E_14" data-name="_x3C_Radial_Repeat_x3E_">
              <path class="st5" d="M94.77,182.29l16.36-10.3c.62-.39,1.38-.25,1.51.3l2.83,11.83c.13.55-.48,1.02-1.21.95l-19.25-1.8c-.43-.04-.6-.75-.24-.98Z"/>
            </g>
            <path class="st5" d="M94.7,183.8c.07-.04.16-.06.25-.04l19.15,2.62c.73.1,1.22.69.96,1.2l-1.11,2.22-19.26-6Z"/>
            <path class="st5" d="M73.35,174.26l17.47,8.27c.05.03.1.06.14.11l-19.29-6.01.22-1.89c.06-.56.8-.79,1.46-.48Z"/>
            <g id="_x3C_Radial_Repeat_x3E_15" data-name="_x3C_Radial_Repeat_x3E_">
              <path class="st5" d="M73.45,171.62l8.83-8.36c.41-.39,1.12-.1,1.43.57l8.07,17.57c.18.4-.35.9-.73.69l-17.1-9.02c-.65-.34-.91-1.07-.5-1.46Z"/>
            </g>
            <g id="_x3C_Radial_Repeat_x3E_16" data-name="_x3C_Radial_Repeat_x3E_">
              <path class="st5" d="M85.47,161.87l12.14-.73c.57-.03.92.65.73,1.36l-5.11,18.65c-.11.42-.84.46-1.01.06l-7.3-17.9c-.28-.68,0-1.4.56-1.44Z"/>
            </g>
          </g>
        </g>
      </g>
      <g id="_ฟอง" data-name="ฟอง" class="st15">
        <g id="_ฟอง1" data-name="ฟอง" class="st12">
          <path class="st7" d="M112.3,148.21c.01,3.22,2.63,5.81,5.85,5.8,3.22-.01,5.81-2.63,5.8-5.85-.01-3.22-2.63-5.81-5.85-5.8s-5.81,2.63-5.8,5.85Z"/>
          <path class="st7" d="M78.73,140.58c0,1.08.88,1.95,1.96,1.94,1.08,0,1.95-.88,1.94-1.96,0-1.08-.88-1.95-1.96-1.94-1.08,0-1.95.88-1.94,1.96Z"/>
          <path class="st7" d="M91.39,169.53c0,1.19.98,2.15,2.17,2.15,1.19,0,2.15-.98,2.15-2.17,0-1.19-.98-2.15-2.17-2.15-1.19,0-2.15.98-2.15,2.17Z"/>
          <path class="st7" d="M58.06,173.42c0,2.06,1.69,3.73,3.75,3.72,2.06,0,3.73-1.69,3.72-3.75,0-2.06-1.69-3.73-3.75-3.72-2.06,0-3.73,1.69-3.72,3.75Z"/>
          <path class="st7" d="M52.11,145.57c0,1.61,1.32,2.91,2.93,2.9,1.61,0,2.91-1.32,2.9-2.93,0-1.61-1.32-2.91-2.93-2.9-1.61,0-2.91,1.32-2.9,2.93Z"/>
          <path class="st7" d="M78.99,199.17c0,1.08.88,1.95,1.96,1.94,1.08,0,1.95-.88,1.94-1.96,0-1.08-.88-1.95-1.96-1.94-1.08,0-1.95.88-1.94,1.96Z"/>
          <path class="st7" d="M107.12,185.44c0,1.48,1.21,2.67,2.68,2.66,1.48,0,2.67-1.21,2.66-2.68,0-1.48-1.21-2.67-2.68-2.66-1.48,0-2.67,1.21-2.66,2.68Z"/>
          <path class="st7" d="M98.05,219.06c.01,3.28,2.69,5.93,5.97,5.92s5.93-2.69,5.92-5.97c-.01-3.28-2.69-5.93-5.97-5.92-3.28.01-5.93,2.69-5.92,5.97Z"/>
          <path class="st7" d="M61.92,201.12c0,1.03.85,1.87,1.88,1.86,1.03,0,1.87-.85,1.86-1.88,0-1.03-.85-1.87-1.88-1.86-1.03,0-1.87.85-1.86,1.88Z"/>
          <path class="st7" d="M74.58,156.31c0,1.16.95,2.1,2.12,2.1,1.16,0,2.1-.95,2.1-2.12,0-1.16-.95-2.1-2.12-2.1-1.16,0-2.1.95-2.1,2.12Z"/>
        </g>
        <g id="_ฟอง2" data-name="ฟอง" class="st12">
          <path class="st7" d="M187.82,168.59c.01,3.22,2.63,5.81,5.85,5.8s5.81-2.63,5.8-5.85c-.01-3.22-2.63-5.81-5.85-5.8s-5.81,2.63-5.8,5.85Z"/>
          <path class="st7" d="M154.25,160.96c0,1.08.88,1.95,1.96,1.94,1.08,0,1.95-.88,1.94-1.96,0-1.08-.88-1.95-1.96-1.94-1.08,0-1.95.88-1.94,1.96Z"/>
          <path class="st7" d="M166.91,189.91c0,1.19.98,2.15,2.17,2.15,1.19,0,2.15-.98,2.15-2.17,0-1.19-.98-2.15-2.17-2.15-1.19,0-2.15.98-2.15,2.17Z"/>
          <path class="st7" d="M133.58,193.8c0,2.06,1.69,3.73,3.75,3.72,2.06,0,3.73-1.69,3.72-3.75,0-2.06-1.69-3.73-3.75-3.72-2.06,0-3.73,1.69-3.72,3.75Z"/>
          <path class="st7" d="M127.63,165.94c0,1.61,1.32,2.91,2.93,2.9,1.61,0,2.91-1.32,2.9-2.93,0-1.61-1.32-2.91-2.93-2.9-1.61,0-2.91,1.32-2.9,2.93Z"/>
          <path class="st7" d="M154.51,219.55c0,1.08.88,1.95,1.96,1.94,1.08,0,1.95-.88,1.94-1.96,0-1.08-.88-1.95-1.96-1.94-1.08,0-1.95.88-1.94,1.96Z"/>
          <path class="st7" d="M182.64,205.82c0,1.48,1.21,2.67,2.68,2.66,1.48,0,2.67-1.21,2.66-2.68,0-1.48-1.21-2.67-2.68-2.66-1.48,0-2.67,1.21-2.66,2.68Z"/>
          <path class="st7" d="M173.57,239.44c.01,3.28,2.69,5.93,5.97,5.92s5.93-2.69,5.92-5.97c-.01-3.28-2.69-5.93-5.97-5.92-3.28.01-5.93,2.69-5.92,5.97Z"/>
          <path class="st7" d="M137.44,221.5c0,1.03.85,1.87,1.88,1.86,1.03,0,1.87-.85,1.86-1.88,0-1.03-.85-1.87-1.88-1.86-1.03,0-1.87.85-1.86,1.88Z"/>
          <path class="st7" d="M150.1,176.69c0,1.16.95,2.1,2.12,2.1,1.16,0,2.1-.95,2.1-2.12,0-1.16-.95-2.1-2.12-2.1-1.16,0-2.1.95-2.1,2.12Z"/>
        </g>
      </g>
    </g>
  </g>
  <path id="_ฝา" data-name="ฝา" class="st16" d="M161.88,60.4v-1.05c1-.19,1.75-1.07,1.75-2.12s-.75-1.93-1.75-2.12v-.61c0-1.99-1.61-3.6-3.6-3.6h-90.76c-1.99,0-3.6,1.61-3.6,3.6v.61c-1,.19-1.75,1.07-1.75,2.12s.75,1.93,1.75,2.12v1.05c-1,.19-1.75,1.07-1.75,2.12s.75,1.93,1.75,2.12v.75c0,1.99,1.61,3.6,3.6,3.6h90.76c1.99,0,3.6-1.61,3.6-3.6v-.75c1-.19,1.75-1.07,1.75-2.12s-.75-1.93-1.75-2.12Z"/>
  <g id="_หน้า" data-name="หน้า">
    <g id="_ปาก" data-name="ปาก">
      <line class="st1" x1="106.67" y1="150.7" x2="112.07" y2="156.1"/>
      <line class="st1" x1="117.47" y1="150.7" x2="112.07" y2="156.1"/>
    </g>
    <g id="_แก้ม" data-name="แก้ม">
      <circle id="_ซ้าย" data-name="ซ้าย" class="st17" cx="81.05" cy="148.07" r="9.8"/>
      <circle id="_ขวา" data-name="ขวา" class="st17" cx="144.75" cy="148.69" r="9.8"/>
    </g>
    <g id="_ตา" data-name="ตา">
      <circle id="_ซ้าย1" data-name="ซ้าย" cx="91.5" cy="140.31" r="3.95"/>
      <circle id="_ขวา1" data-name="ขวา" cx="134.09" cy="140.31" r="3.95"/>
      <circle class="st9" cx="91.61" cy="138.55" r="1.77"/>
      <circle class="st9" cx="134.19" cy="138.55" r="1.77"/>
    </g>
  </g>
</svg>