<?xml version="1.0" encoding="UTF-8"?>
<svg id="Layer_41" xmlns="http://www.w3.org/2000/svg" xmlns:xlink="http://www.w3.org/1999/xlink" version="1.1" viewBox="0 0 190.3 266.42">
  <!-- Generator: Adobe Illustrator 30.0.0, SVG Export Plug-In . SVG Version: 2.1.1 Build 123)  -->
  <defs>
    <style>
      .st0, .st1, .st2 {
        fill: none;
      }

      .st1 {
        stroke-width: 3.99px;
      }

      .st1, .st2 {
        stroke: #000;
        stroke-linecap: round;
        stroke-linejoin: round;
      }

      .st3 {
        fill: url(#linear-gradient1);
      }

      .st4 {
        fill: url(#linear-gradient3);
      }

      .st5 {
        fill: url(#linear-gradient2);
        opacity: .62;
      }

      .st6 {
        fill: url(#linear-gradient);
      }

      .st7 {
        fill: #ffa42c;
      }

      .st8 {
        clip-path: url(#clippath-1);
      }

      .st9 {
        fill: #fff;
      }

      .st10 {
        fill: #ffeddc;
      }

      .st2 {
        stroke-width: 1.47px;
      }

      .st11 {
        clip-path: url(#clippath);
      }
    </style>
    <linearGradient id="linear-gradient" x1="89.36" y1="28.69" x2="89.36" y2="244.15" gradientUnits="userSpaceOnUse">
      <stop offset=".17" stop-color="#ffeddc"/>
      <stop offset=".59" stop-color="#c98020"/>
    </linearGradient>
    <clipPath id="clippath">
      <path class="st0" d="M89.36,225.34h0c-11.77,0-21.83-8.47-23.84-20.06l-23.88-137.77h95.43l-23.88,137.77c-2.01,11.59-12.07,20.06-23.84,20.06Z"/>
    </clipPath>
    <linearGradient id="linear-gradient1" x1="90.07" y1="168.87" x2="90.07" y2="255.26" gradientUnits="userSpaceOnUse">
      <stop offset=".34" stop-color="#e8a970"/>
      <stop offset=".34" stop-color="#e6a76e"/>
      <stop offset=".6" stop-color="#ae6e38"/>
      <stop offset=".73" stop-color="#995823"/>
    </linearGradient>
    <linearGradient id="linear-gradient2" x1="-325.98" y1="-439.5" x2="-283.06" y2="-439.5" gradientTransform="translate(308.93 646.29) rotate(14.18)" gradientUnits="userSpaceOnUse">
      <stop offset="0" stop-color="#fff" stop-opacity="0"/>
      <stop offset="1" stop-color="#fff"/>
    </linearGradient>
    <linearGradient id="linear-gradient3" x1="89.36" y1="17.93" x2="89.36" y2="85.66" gradientUnits="userSpaceOnUse">
      <stop offset=".4" stop-color="#fff"/>
      <stop offset=".77" stop-color="#ffeddc"/>
    </linearGradient>
    <clipPath id="clippath-1">
      <path id="_ครีม1" data-name="ครีม" class="st0" d="M80.87,28.5h16.98c21.65,0,39.23,17.58,39.23,39.23H41.64c0-21.65,17.58-39.23,39.23-39.23Z"/>
    </clipPath>
  </defs>
  <path d="M64.21,246.98c-4.26,0-7.73-3.47-7.73-7.73v-8.39h2.37c.1,0,.2,0,.3,0,2.09-.08,3.98-1.04,5.32-2.69,1.37-1.7,1.95-3.9,1.57-6.05l-26.35-152.02h-.41v-2.39l-.46-2.56h.54c.16-2.63.57-5.23,1.22-7.76.67-2.63,1.61-5.2,2.79-7.65,4.69-9.76,12.85-17.21,22.98-20.99,2.54-.95,5.18-1.65,7.86-2.08,2.2-.36,4.45-.54,6.68-.54h16.98c.76,0,1.55.02,2.35.07,5.69.32,11.15,1.76,16.23,4.3,1.18.59,2.34,1.24,3.46,1.94,4.05,2.53,7.61,5.71,10.57,9.46.78.98,1.52,2.02,2.22,3.08,2.77,4.24,4.73,8.89,5.81,13.82.32,1.46.56,2.96.72,4.44.07.63.12,1.26.16,1.89h.54l-.46,2.58v2.39h-.41l-26.35,152.02c-.37,2.15.2,4.35,1.57,6.05,1.34,1.65,3.23,2.61,5.32,2.69.1,0,.2,0,.3,0h2.37v8.39c0,4.26-3.47,7.73-7.73,7.73h-50.31Z"/>
  <path class="st9" d="M137.08,67.5h0c0-1.35-.08-2.69-.23-4-.15-1.42-.38-2.82-.68-4.19-1.03-4.72-2.91-9.12-5.48-13.03-.65-1-1.35-1.97-2.09-2.9-2.79-3.51-6.16-6.54-9.97-8.92-1.05-.66-2.14-1.27-3.26-1.83-4.65-2.32-9.82-3.75-15.3-4.06-.73-.04-1.47-.06-2.22-.06h-16.98c-2.14,0-4.25.17-6.3.51-2.56.41-5.04,1.07-7.41,1.96-9.53,3.55-17.3,10.7-21.67,19.8-1.1,2.29-1.98,4.7-2.63,7.21-.78,3.05-1.2,6.24-1.22,9.53h0v.02c0,.07,0,.14,0,.21h0s.04,0,.04,0l.68,3.95,2.16,12.46,1.16,6.71,16.24,93.72,2.97,17.12.62,3.59,2.85,16.44c1,5.79-3.26,11.28-9.13,11.51-.13,0-.26,0-.39,0v6.02c0,2.96,2.4,5.36,5.36,5.36h50.31c2.96,0,5.36-2.4,5.36-5.36v-6.02c-.13,0-.26,0-.39,0-5.88-.23-10.14-5.72-9.13-11.51l2.85-16.44.62-3.59,2.97-17.12,16.71-96.38,3.1-17.87.45-2.57h.04c0-.07,0-.14,0-.21v-.02Z"/>
  <path id="_ฐาน" data-name="ฐาน" class="st9" d="M110.35,221.71l26.73-154.21H41.64l26.73,154.21c1,5.79-3.26,11.28-9.13,11.51-.13,0-.26,0-.39,0v6.02c0,2.96,2.4,5.36,5.36,5.36h50.31c2.96,0,5.36-2.4,5.36-5.36v-6.02c-.13,0-.26,0-.39,0-5.88-.23-10.14-5.72-9.13-11.51Z"/>
  <polyline id="_หลอด" data-name="หลอด" class="st1" points="90.9 137.32 147.16 30.34 181.36 46.62"/>
  <path id="_น้ำ" data-name="น้ำ" class="st6" d="M89.36,225.34h0c-11.77,0-21.83-8.47-23.84-20.06l-23.88-137.77h95.43l-23.88,137.77c-2.01,11.59-12.07,20.06-23.84,20.06Z"/>
  <g id="_ข้างในน้ำ" data-name="ข้างในน้ำ">
    <g class="st11">
      <rect class="st3" x="38.92" y="184.56" width="102.3" height="62.28"/>
      <rect class="st10" x="38.92" y="69.23" width="102.3" height="18.94"/>
      <path class="st5" d="M153.12,66.4c-4.56-.35-8.81-1.64-13.21-2.69-6.04-1.44-13.01-2.51-18.08-6.84l-27.82,150.34c-2.19,11.81-.88,21.04,2.97,22.01l6.02,1.52c3.85.97,9.38-6.53,13.06-17.97l47.18-146.34c-3.39.17-6.78.22-10.13-.04Z"/>
      <path class="st7" d="M143.9,73.7c-2.53-.61-5.27-1.08-7.68-.09-2.91,1.19-4.65,4.33-5.01,7.45s.44,6.25,1.35,9.26c.57,1.9,1.2,3.91.71,5.83-.51,2-2.29,3.61-4.33,3.91s-4.21-.73-5.27-2.5c-.75-1.25-.94-2.76-.94-4.22.01-2.53.59-5.05,1.68-7.33,1-2.09,2.45-4.09,2.51-6.4.1-3.89-4.1-6.84-7.99-6.66-.29.01-.6.05-.85.2-.35.23-.51.66-.58,1.08-.53,3.06,2.09,6.66.13,9.04-1,1.21-2.73,1.47-4.12.76-2.33-1.2-2.96-3.89-2.67-6.29.17-1.37.59-2.81.04-4.07-1-2.32-4.4-2.27-6.66-1.14s-4.32,2.97-6.85,3.06c-1.76.06-3.37-.75-4.98-1.57-3.08-1.56-6.62,1.06-6.03,4.46.19,1.12.58,2.21,1.15,3.19.62,1.06,1.47,2.1,1.42,3.32-.07,1.98-2.44,3.08-4.42,3.03-1.54-.04-3.12-.52-4.23-1.6s-1.64-2.8-1.05-4.23c.52-1.29,1.85-2.22,2.02-3.6.27-2.21-2.41-3.48-4.57-4.03-1.52-.39-3.1-.78-4.63-.44-1.43.32-2.68,1.25-4.12,1.46-3.05.44-5.58-2.36-8.59-3.05-3.93-.9-8.19,2.76-7.9,6.77.16,2.21,1.42,4.16,2.31,6.19.89,2.03,1.37,4.54.09,6.35-1.26,1.78-3.94,2.16-5.87,1.16s-3.11-3.11-3.44-5.27.1-4.35.72-6.43c.63-2.08,1.38-4.57-.02-6.23-.96-1.13-16.04.68-16.77-.61-.06-.1-1.07-20.48-1.07-20.48l118.08,10.22-1.61,9.52Z"/>
    </g>
  </g>
  <path id="_ครีม" data-name="ครีม" class="st4" d="M80.87,28.5h16.98c21.65,0,39.23,17.58,39.23,39.23H41.64c0-21.65,17.58-39.23,39.23-39.23Z"/>
  <g id="_ซอสราด" data-name="ซอสราด">
    <g class="st8">
      <g>
        <path class="st7" d="M47.34,73.14c-.18.18-1.13.16-.96.34s1.5-1.02,1.67-.84-1.15,1.4-.98,1.58,1.49-1.03,1.66-.84-1.15,1.4-.98,1.59,1.5-1.02,1.67-.83.06,1.84.26,1.67c4.28-3.57,2.93-5.11,7.05-8.87s5.32-2.43,9.44-6.19,2.9-5.08,7.02-8.84,5.33-2.44,9.44-6.2,2.9-5.08,7.02-8.84,5.33-2.44,9.45-6.2,3.05-4.88,7-8.82c.18-.18,1.13-.16.96-.34s-1.5,1.02-1.67.84,1.15-1.4.98-1.58-1.49,1.03-1.66.84,1.15-1.4.98-1.59-1.5,1.02-1.67.83-.06-1.84-.26-1.67c-4.28,3.57-2.93,5.11-7.05,8.87s-5.32,2.43-9.44,6.19-2.9,5.08-7.02,8.84-5.33,2.44-9.44,6.2-2.9,5.08-7.02,8.84-5.5,2.3-9.47,6.22-3.03,4.85-6.97,8.8Z"/>
        <path class="st7" d="M29.92,66.21c-.18.18-1.13.16-.96.34s1.5-1.02,1.67-.84-1.15,1.4-.98,1.58,1.49-1.03,1.66-.84-1.15,1.4-.98,1.59,1.5-1.02,1.67-.83.06,1.84.26,1.67c4.28-3.57,2.93-5.11,7.05-8.87s5.32-2.43,9.44-6.19,2.9-5.08,7.02-8.84,5.33-2.44,9.44-6.2,2.9-5.08,7.02-8.84,5.33-2.44,9.45-6.2,3.05-4.88,7-8.82c.18-.18,1.13-.16.96-.34s-1.5,1.02-1.67.84,1.15-1.4.98-1.58-1.49,1.03-1.66.84,1.15-1.4.98-1.59-1.5,1.02-1.67.83-.06-1.84-.26-1.67c-4.28,3.57-2.93,5.11-7.05,8.87s-5.32,2.43-9.44,6.19-2.9,5.08-7.02,8.84-5.33,2.44-9.44,6.2-2.9,5.08-7.02,8.84-5.5,2.3-9.47,6.22-3.03,4.85-6.97,8.8Z"/>
        <path class="st7" d="M64.77,80.06c-.18.18-1.13.16-.96.34s1.5-1.02,1.67-.84-1.15,1.4-.98,1.58,1.49-1.03,1.66-.84-1.15,1.4-.98,1.59,1.5-1.02,1.67-.83.06,1.84.26,1.67c4.28-3.57,2.93-5.11,7.05-8.87s5.32-2.43,9.44-6.19,2.9-5.08,7.02-8.84,5.33-2.44,9.44-6.2,2.9-5.08,7.02-8.84,5.33-2.44,9.45-6.2,3.05-4.88,7-8.82c.18-.18,1.13-.16.96-.34s-1.5,1.02-1.67.84,1.15-1.4.98-1.58-1.49,1.03-1.66.84,1.15-1.4.98-1.59-1.5,1.02-1.67.83-.06-1.84-.26-1.67c-4.28,3.57-2.93,5.11-7.05,8.87-4.11,3.76-5.32,2.43-9.44,6.19s-2.9,5.08-7.02,8.84-5.33,2.44-9.44,6.2-2.9,5.08-7.02,8.84-5.5,2.3-9.47,6.22-3.03,4.85-6.97,8.8Z"/>
        <path class="st7" d="M82.19,86.99c-.18.18-1.13.16-.96.34s1.5-1.02,1.67-.84-1.15,1.4-.98,1.58,1.49-1.03,1.66-.84-1.15,1.4-.98,1.59,1.5-1.02,1.67-.83.06,1.84.26,1.67c4.28-3.57,2.93-5.11,7.05-8.87s5.32-2.43,9.44-6.19,2.9-5.08,7.02-8.84,5.33-2.44,9.44-6.2,2.9-5.08,7.02-8.84,5.33-2.44,9.45-6.2,3.05-4.88,7-8.82c.18-.18,1.13-.16.96-.34s-1.5,1.02-1.67.84,1.15-1.4.98-1.58-1.49,1.03-1.66.84,1.15-1.4.98-1.59-1.5,1.02-1.67.83-.06-1.84-.26-1.67c-4.28,3.57-2.93,5.11-7.05,8.87s-5.32,2.43-9.44,6.19-2.9,5.08-7.02,8.84-5.33,2.44-9.44,6.2-2.9,5.08-7.02,8.84-5.5,2.3-9.47,6.22-3.03,4.85-6.97,8.8Z"/>
        <path class="st7" d="M99.61,93.92c-.18.18-1.13.16-.96.34s1.5-1.02,1.67-.84-1.15,1.4-.98,1.58,1.49-1.03,1.66-.84-1.15,1.4-.98,1.59,1.5-1.02,1.67-.83.06,1.84.26,1.67c4.28-3.57,2.93-5.11,7.05-8.87s5.32-2.43,9.44-6.19,2.9-5.08,7.02-8.84,5.33-2.44,9.44-6.2,2.9-5.08,7.02-8.84,5.33-2.44,9.45-6.2,3.05-4.88,7-8.82c.18-.18,1.13-.16.96-.34s-1.5,1.02-1.67.84,1.15-1.4.98-1.58-1.49,1.03-1.66.84,1.15-1.4.98-1.59-1.5,1.02-1.67.83-.06-1.84-.26-1.67c-4.28,3.57-2.93,5.11-7.05,8.87s-5.32,2.43-9.44,6.19-2.9,5.08-7.02,8.84-5.33,2.44-9.44,6.2-2.9,5.08-7.02,8.84-5.5,2.3-9.47,6.22-3.03,4.85-6.97,8.8Z"/>
      </g>
    </g>
  </g>
  <g id="_หน้า" data-name="หน้า">
    <g id="_ปาก" data-name="ปาก">
      <line class="st2" x1="84.47" y1="121.6" x2="88.71" y2="125.84"/>
      <line class="st2" x1="92.95" y1="121.6" x2="88.71" y2="125.84"/>
    </g>
    <g id="_แก้ม" data-name="แก้ม">
      <circle id="_ซ้าย" data-name="ซ้าย" class="st10" cx="64.36" cy="119.53" r="7.69"/>
      <circle id="_ขวา" data-name="ขวา" class="st10" cx="114.37" cy="120.02" r="7.69"/>
    </g>
    <g id="_ตา" data-name="ตา">
      <circle id="_ซ้าย1" data-name="ซ้าย" cx="72.56" cy="113.44" r="3.1"/>
      <circle id="_ขวา1" data-name="ขวา" cx="106" cy="113.44" r="3.1"/>
      <circle class="st9" cx="72.65" cy="112.06" r="1.39"/>
      <circle class="st9" cx="106.08" cy="112.06" r="1.39"/>
    </g>
  </g>
</svg>