<?xml version="1.0" encoding="UTF-8"?>
<svg id="Layer_41" xmlns="http://www.w3.org/2000/svg" xmlns:xlink="http://www.w3.org/1999/xlink" version="1.1" viewBox="0 0 243.18 284.53">
  <!-- Generator: Adobe Illustrator 30.0.0, SVG Export Plug-In . SVG Version: 2.1.1 Build 123)  -->
  <defs>
    <style>
      .st0, .st1, .st2, .st3, .st4 {
        fill: none;
      }

      .st5 {
        mask: url(#mask);
      }

      .st6 {
        fill: url(#linear-gradient2);
      }

      .st7 {
        fill: url(#linear-gradient1);
      }

      .st8 {
        fill: url(#linear-gradient3);
      }

      .st9 {
        fill: url(#linear-gradient4);
      }

      .st1 {
        stroke: #fff;
        stroke-miterlimit: 10;
        stroke-width: 18.84px;
      }

      .st10 {
        fill: #5b1e0a;
      }

      .st11 {
        fill: url(#linear-gradient);
      }

      .st2 {
        stroke: #999;
      }

      .st2, .st3, .st4 {
        stroke-linecap: round;
        stroke-linejoin: round;
      }

      .st2, .st4 {
        stroke-width: .94px;
      }

      .st12 {
        mask: url(#mask-2);
      }

      .st13 {
        mask: url(#mask-3);
      }

      .st14 {
        mask: url(#mask-1);
      }

      .st3 {
        stroke: #000;
        stroke-width: 1.84px;
      }

      .st15 {
        fill: #7e1a0a;
      }

      .st16 {
        fill: #fff;
      }

      .st4 {
        stroke: #ccc;
      }

      .st17 {
        clip-path: url(#clippath);
      }

      .st18 {
        fill: #963d26;
      }
    </style>
    <linearGradient id="linear-gradient" x1="117" y1="29.78" x2="117" y2="276.93" gradientUnits="userSpaceOnUse">
      <stop offset="0" stop-color="#5b1e0a"/>
      <stop offset=".57" stop-color="#fff"/>
    </linearGradient>
    <clipPath id="clippath">
      <path id="_น้ำ" data-name="น้ำ" class="st0" d="M55.76,132.77h122.48v129.27c0,5.22-4.24,9.46-9.46,9.46h-103.56c-5.22,0-9.46-4.24-9.46-9.46v-129.27h0Z"/>
    </clipPath>
    <linearGradient id="linear-gradient1" x1="30.41" y1="202.13" x2="210.48" y2="202.13" gradientUnits="userSpaceOnUse">
      <stop offset=".06" stop-color="#fff"/>
      <stop offset=".26" stop-color="#000"/>
    </linearGradient>
    <mask id="mask" x="55.76" y="132.77" width="122.48" height="138.73" maskUnits="userSpaceOnUse">
      <path id="_น้ำ1" data-name="น้ำ" class="st7" d="M55.76,132.77h122.48v129.27c0,5.22-4.24,9.46-9.46,9.46h-103.56c-5.22,0-9.46-4.24-9.46-9.46v-129.27h0Z"/>
    </mask>
    <linearGradient id="linear-gradient2" x1="30.41" y1="202.13" x2="210.48" y2="202.13" gradientUnits="userSpaceOnUse">
      <stop offset=".7" stop-color="#000"/>
      <stop offset=".92" stop-color="#fff"/>
    </linearGradient>
    <mask id="mask-1" x="55.76" y="132.77" width="122.48" height="138.73" maskUnits="userSpaceOnUse">
      <path id="_น้ำ3" data-name="น้ำ" class="st6" d="M55.76,132.77h122.48v129.27c0,5.22-4.24,9.46-9.46,9.46h-103.56c-5.22,0-9.46-4.24-9.46-9.46v-129.27h0Z"/>
    </mask>
    <linearGradient id="linear-gradient3" x1="117" y1="110.1" x2="117" y2="296.68" gradientUnits="userSpaceOnUse">
      <stop offset=".78" stop-color="#000"/>
      <stop offset=".92" stop-color="#fff"/>
    </linearGradient>
    <mask id="mask-2" x="55.76" y="132.77" width="122.48" height="138.73" maskUnits="userSpaceOnUse">
      <path id="_น้ำ5" data-name="น้ำ" class="st8" d="M55.76,132.77h122.48v129.27c0,5.22-4.24,9.46-9.46,9.46h-103.56c-5.22,0-9.46-4.24-9.46-9.46v-129.27h0Z"/>
    </mask>
    <linearGradient id="linear-gradient4" x1="117" y1="110.1" x2="117" y2="296.68" gradientUnits="userSpaceOnUse">
      <stop offset=".07" stop-color="#fff"/>
      <stop offset=".23" stop-color="#000"/>
    </linearGradient>
    <mask id="mask-3" x="55.76" y="132.77" width="122.48" height="138.73" maskUnits="userSpaceOnUse">
      <path id="_น้ำ7" data-name="น้ำ" class="st9" d="M55.76,132.77h122.48v129.27c0,5.22-4.24,9.46-9.46,9.46h-103.56c-5.22,0-9.46-4.24-9.46-9.46v-129.27h0Z"/>
    </mask>
  </defs>
  <path d="M65.22,273.85c-6.51,0-11.82-5.3-11.82-11.82v-131.63h127.19v22.19c26.37,1.17,47.46,22.99,47.46,49.65s-21.09,48.47-47.46,49.65v10.14c0,6.51-5.3,11.82-11.82,11.82h-103.56ZM180.59,228.3c13.38-1.15,23.91-12.39,23.91-26.05s-10.53-24.91-23.91-26.05v52.1Z"/>
  <path class="st16" d="M178.36,154.91s-.08,0-.12,0v-22.14H55.76v129.27c0,5.22,4.24,9.46,9.46,9.46h103.56c5.22,0,9.46-4.24,9.46-9.46v-12.45s.08,0,.12,0c26.1,0,47.34-21.24,47.34-47.34s-21.24-47.34-47.34-47.34ZM178.36,230.75s-.08,0-.12,0v-57s.08,0,.12,0c15.71,0,28.5,12.78,28.5,28.5s-12.78,28.5-28.5,28.5Z"/>
  <circle id="_หูแก้ว" data-name="หูแก้ว" class="st1" cx="178.36" cy="202.25" r="37.92"/>
  <path id="_แก้ว" data-name="แก้ว" class="st11" d="M55.76,132.77h122.48v129.27c0,5.22-4.24,9.46-9.46,9.46h-103.56c-5.22,0-9.46-4.24-9.46-9.46v-129.27h0Z"/>
  <g id="_ลายแก้ว" data-name="ลายแก้ว">
    <g class="st17">
      <rect class="st10" x="39.98" y="239.23" width="154.04" height="19.08"/>
      <rect class="st10" x="39.98" y="230.16" width="154.04" height="4.71"/>
      <rect class="st10" x="39.98" y="262.66" width="154.04" height="4.71"/>
    </g>
  </g>
  <g id="_ขอบขาว" data-name="ขอบขาว">
    <g class="st5">
      <path id="_น้ำ2" data-name="น้ำ" class="st16" d="M55.76,132.77h122.48v129.27c0,5.22-4.24,9.46-9.46,9.46h-103.56c-5.22,0-9.46-4.24-9.46-9.46v-129.27h0Z"/>
    </g>
    <g class="st14">
      <path id="_น้ำ4" data-name="น้ำ" class="st16" d="M55.76,132.77h122.48v129.27c0,5.22-4.24,9.46-9.46,9.46h-103.56c-5.22,0-9.46-4.24-9.46-9.46v-129.27h0Z"/>
    </g>
    <g class="st12">
      <path id="_น้ำ6" data-name="น้ำ" class="st16" d="M55.76,132.77h122.48v129.27c0,5.22-4.24,9.46-9.46,9.46h-103.56c-5.22,0-9.46-4.24-9.46-9.46v-129.27h0Z"/>
    </g>
    <g class="st13">
      <path id="_น้ำ8" data-name="น้ำ" class="st16" d="M55.76,132.77h122.48v129.27c0,5.22-4.24,9.46-9.46,9.46h-103.56c-5.22,0-9.46-4.24-9.46-9.46v-129.27h0Z"/>
    </g>
  </g>
  <g id="_หน้า" data-name="หน้า">
    <g id="_ปาก" data-name="ปาก">
      <line class="st3" x1="110.88" y1="199.46" x2="116.18" y2="204.76"/>
      <line class="st3" x1="121.49" y1="199.46" x2="116.18" y2="204.76"/>
    </g>
    <g id="_แก้ม" data-name="แก้ม">
      <circle id="_ซ้าย" data-name="ซ้าย" class="st18" cx="85.71" cy="196.87" r="9.63"/>
      <circle id="_ขวา" data-name="ขวา" class="st18" cx="148.29" cy="197.48" r="9.63"/>
    </g>
    <g id="_ตา" data-name="ตา">
      <circle id="_ซ้าย1" data-name="ซ้าย" cx="95.98" cy="189.25" r="3.88"/>
      <circle id="_ขวา1" data-name="ขวา" cx="137.81" cy="189.25" r="3.88"/>
      <circle class="st16" cx="96.08" cy="187.52" r="1.73"/>
      <circle class="st16" cx="137.92" cy="187.52" r="1.73"/>
    </g>
  </g>
  <path d="M140.69,171.7c-9.73,0-20.76-8.62-24.48-11.77-3.19,1.47-7.91,2.27-13.56,2.27-8.99,0-19.03-2-27.54-5.49-10.51-4.31-18.48-10.73-23.03-18.55-7.24-12.44-6.23-23.37-4.1-30.35,1.85-6.09,4.82-10.27,6-11.76,1.14-8.92,6.58-17.26,15.77-24.17,4.86-3.65,9.55-6.01,12.05-7.14-.46-4.11.22-11.74,2.82-19.59,3.05-9.23,9.69-21.8,23.99-29.27,6.33-3.3,12.14-4.98,17.27-4.98,7.28,0,11.87,3.34,14.44,6.15,2.77,3.02,3.83,6.09,3.87,6.22l.81,2.4-2.45.64c-10.14,2.64-10.25,7.8-10.25,7.85v.23s-.03.23-.03.23c-1.08,6.48,11.62,12.66,16.15,14.31,11.92,4.29,19.51,11.23,23.78,16.29,4.67,5.53,6.5,10.07,6.57,10.26l.04.11.03.11c2.57,9.05,2.99,16.47,1.25,22.04-.54,1.72-1.22,3.03-1.87,4.01,3.43,2.55,9.78,8.09,13.02,16.15,2.1,5.21,1.07,10.29-2.98,14.71-1.76,1.93-3.74,3.3-5.03,4.09.28,9.43-3.22,13.78-3.94,14.57-2.66,3.25-5.74,4.9-9.14,4.9h0c-3.02,0-5.66-1.36-7.57-2.73-1.43,4.83-3.43,8.61-6.07,11.49-3.61,3.93-8.3,6.12-14.35,6.69-.49.05-.99.07-1.5.07Z"/>
  <path class="st16" d="M141.97,24.03s-6.59-19.46-32.27-6.06c-25.67,13.4-26.85,44.99-25.2,48.18,0,0-26.14,10.03-28.26,30.86,0,0-15.31,17.32-2.12,39.97,13.19,22.65,52.76,26.48,62.42,20.1,0,0,14.37,13.26,25.44,12.22,11.07-1.05,16.72-8.07,19.31-20.19,0,0,8.48,10.21,16.25.64,0,0,4-4.15,3.3-14.36,0,0,12.48-6.06,8.24-16.59-4.24-10.53-14.37-16.59-14.37-16.59,0,0,7.77-5.1,1.88-25.84,0,0-6.83-17.23-28.97-25.21,0,0-19.31-7.02-17.67-16.91,0,0-.24-7.02,12.01-10.21Z"/>
  <path class="st2" d="M117.94,54.92c0,.24,12.72,22.14,25.91,28.03,13.19,5.89,30.62,18.14,30.62,18.14"/>
  <path class="st2" d="M117.94,54.92s12.95,17.67,24.97,19.31c12.01,1.65,17.19,4.24,17.19,4.24,0,0,12.72,6.83,15.07,19.08"/>
  <path class="st2" d="M138.87,18.95s-12.45-9.49-26.58,3.7c-14.13,13.19-11.07,34.62-11.07,34.62,0,0,.94,18.97,18.13,28.09l16.02,1.12s-21.67-5.89-27.56-20.96c-5.89-15.07.47-30.62.47-30.62,0,0,9.58-24.83,30.58-15.95Z"/>
  <path class="st2" d="M177.53,149.74s-4.48-19.91-29.91-21.8c0,0-10.87-.47-19.45,4.83-8.58,5.3-20.38,0-20.38,0,0,0,13.42,11.6,28.39,10.81s20.27-1.01,19.39,6.16c-.88,7.17-7.6,14.95-14.84,14.59s-13.84-.35-16.9-4.59c-3.06-4.24-9.51-14.12-22.89-17.54s-23.73-4.98-35.51-20.93c0,0,4.66,13.08,22.82,21.54,0,0,21.92,3.36,28.28,14.27"/>
  <path class="st4" d="M185.33,112.15s-10.86-10.82-30.18-17.89c-19.31-7.07-52.76,1.65-52.76,1.65,0,0,13.9,10.6,24.97,12.48,11.07,1.88,23.79.94,33.68,6.36s21.53,19.61,21.53,19.61"/>
  <g>
    <g>
      <polygon class="st15" points="108.75 78.13 112.59 71.92 115.84 73.4 112.3 79.6 108.75 78.13"/>
      <polygon class="st15" points="66.81 127.74 70.65 121.54 73.9 123.02 70.36 129.22 66.81 127.74"/>
      <polygon class="st15" points="148.33 100.28 152.17 94.07 155.42 95.55 151.87 101.75 148.33 100.28"/>
      <polygon class="st15" points="103.44 120.36 107.28 114.16 110.52 115.64 106.98 121.84 103.44 120.36"/>
      <polygon class="st15" points="126.93 85 123.51 81.28 125.13 79.53 128.61 83.05 126.93 85"/>
      <polygon class="st15" points="167.39 95.04 163.97 91.32 165.6 89.57 169.07 93.1 167.39 95.04"/>
      <polygon class="st15" points="184.23 116.89 180.81 113.18 182.43 111.42 185.91 114.95 184.23 116.89"/>
      <polygon class="st15" points="99.6 73.1 101.96 73.1 102.26 76.06 99.3 76.65 99.6 73.1"/>
      <polygon class="st15" points="99.89 83.44 101.66 80.19 103.44 81.08 101.07 84.62 99.89 83.44"/>
      <polygon class="st15" points="157.49 110.61 159.26 107.37 161.03 108.25 158.67 111.8 157.49 110.61"/>
      <polygon class="st15" points="147.03 123.06 150.7 123.56 150.5 125.53 146.34 124.58 147.03 123.06"/>
      <polygon class="st15" points="135.49 116.82 134.83 113.18 136.76 112.75 137.16 116.99 135.49 116.82"/>
      <polygon class="st15" points="122.04 93.78 121.94 91.6 123.69 90.82 123.56 93.59 122.04 93.78"/>
      <polygon class="st15" points="168.37 99.28 168.27 97.11 170.02 96.32 169.89 99.1 168.37 99.28"/>
      <polygon class="st15" points="170.88 106.55 173.05 106.43 173.84 108.17 171.07 108.06 170.88 106.55"/>
      <polygon class="st15" points="133.88 78.58 135.78 79.64 135.51 81.54 133.23 79.96 133.88 78.58"/>
      <polygon class="st15" points="54.72 115.2 56.62 116.27 56.36 118.16 54.08 116.58 54.72 115.2"/>
      <polygon class="st15" points="78.14 112.49 78.74 114.58 77.22 115.74 76.71 113.02 78.14 112.49"/>
      <polygon class="st15" points="113.77 85.21 116.43 88.17 118.79 85.8 115.55 83.74 113.77 85.21"/>
      <polygon class="st15" points="84.83 83.15 90.44 85.8 91.62 82.85 85.72 80.19 84.83 83.15"/>
      <polygon class="st15" points="127.36 70.45 132.97 73.1 134.15 70.15 128.25 67.49 127.36 70.45"/>
      <polygon class="st15" points="158.96 101.46 164.57 104.12 165.76 101.16 159.85 98.5 158.96 101.46"/>
      <polygon class="st15" points="170.48 115.64 176.09 118.29 177.27 115.34 171.37 112.68 170.48 115.64"/>
      <polygon class="st15" points="119.09 128.04 124.7 130.7 125.88 127.74 119.98 125.09 119.09 128.04"/>
      <polygon class="st15" points="131.2 85.21 132.38 87.58 135.33 86.4 132.68 84.33 131.2 85.21"/>
      <polygon class="st15" points="71.54 96.73 74.49 100.57 76.56 99.69 74.2 95.26 71.54 96.73"/>
      <polygon class="st15" points="93.69 122.13 96.64 125.97 98.71 125.09 96.35 120.66 93.69 122.13"/>
      <polygon class="st15" points="79.51 108.25 83.35 103.82 86.31 106.18 82.47 110.61 79.51 108.25"/>
      <polygon class="st15" points="67.99 104.71 69.77 104.12 71.54 107.96 68.59 108.25 67.99 104.71"/>
      <polygon class="st15" points="54.41 106.48 58.54 108.55 57.95 110.91 52.93 108.55 54.41 106.48"/>
    </g>
    <g>
      <path class="st10" d="M112.19,77.76c-1.06.68-2.05.27-3.01-.33l-.43.7,3.54,1.48,2.29-4.01c-.72.84-1.51,1.6-2.4,2.17Z"/>
      <path class="st10" d="M68.58,128.48l1.77.74,3.54-6.2-.26-.12c-1.44,2.1-3.06,4.13-5.06,5.58Z"/>
      <path class="st10" d="M151.09,100.4c-.18.27-.35.54-.53.81l1.31.55,3.54-6.2-.6-.27c-1.41,1.58-2.57,3.35-3.72,5.13Z"/>
      <path class="st10" d="M106.75,118.65c-.55-.32-1.11-.63-1.65-.97l-1.66,2.69,3.54,1.48,1.31-2.29c-.51-.31-1.02-.61-1.54-.91Z"/>
      <path class="st10" d="M123.99,81.81l2.93,3.19.94-1.08c-1.35-.61-2.72-1.23-3.87-2.11Z"/>
      <path class="st10" d="M165.88,93.4l1.51,1.64,1.68-1.94-.31-.32c-.96.21-1.92.41-2.88.62Z"/>
      <path class="st10" d="M181.6,112.33l-.79.85,3.42,3.72.72-.83c-1.09-1.27-2.21-2.51-3.35-3.74Z"/>
      <path class="st10" d="M99.45,74.86l-.15,1.79,2.95-.59-.18-1.75c-.87.2-1.75.39-2.63.55Z"/>
      <path class="st10" d="M100.73,81.91l-.84,1.53,1.18,1.18,1.42-2.13c-.58-.23-1.17-.44-1.77-.58Z"/>
      <path class="st10" d="M158.46,108.83l-.97,1.78,1.18,1.18,1.27-1.91c-.48-.37-.97-.73-1.48-1.05Z"/>
      <path class="st10" d="M150.43,123.65c-1.27.22-2.55.3-3.83.36l-.26.57,4.15.95.2-1.97h-.08c-.06.04-.13.08-.18.09Z"/>
      <path class="st10" d="M135.18,115.09l.32,1.72,1.66.17-.16-1.73c-.61-.04-1.21-.09-1.82-.17Z"/>
      <path class="st10" d="M122.01,93.15l.03.63,1.52-.19.05-1.16c-.54.21-1.08.44-1.6.71Z"/>
      <polygon class="st10" points="168.31 98.07 168.37 99.28 169.89 99.1 169.94 98.07 168.31 98.07"/>
      <polygon class="st10" points="170.97 107.26 171.07 108.06 173.84 108.17 173.43 107.26 170.97 107.26"/>
      <path class="st10" d="M133.7,80.28l1.81,1.26.1-.71c-.66-.13-1.31-.29-1.91-.54Z"/>
      <path class="st10" d="M54.33,116.04l-.25.54,2.28,1.58.2-1.44c-.73-.29-1.47-.53-2.23-.68Z"/>
      <polyline class="st10" points="76.99 114.5 77.22 115.74 78.74 114.58"/>
      <path class="st10" d="M114.02,85.01l-.24.2,2.66,2.95.81-.81c-1.08-.77-2.15-1.56-3.23-2.34Z"/>
      <path class="st10" d="M88.89,83.56c-1.25.2-2.61-.41-3.9-.95l-.16.54,5.61,2.66,1.18-2.95-.8-.36c-.53.52-1.13.94-1.93,1.07Z"/>
      <path class="st10" d="M128.25,67.49l-.57,1.9c1.89.93,3.78,1.85,5.7,2.71l.78-1.94"/>
      <path class="st10" d="M127.58,69.73l-.22.72,5.61,2.66.28-.7c-1.91-.85-3.8-1.76-5.67-2.68Z"/>
      <path class="st10" d="M159.18,100.73l-.22.73,5.61,2.66.3-.74c-1.91-.84-3.8-1.75-5.69-2.64Z"/>
      <path class="st10" d="M170.76,114.7l-.28.94,5.61,2.66.36-.91c-1.94-.77-3.8-1.78-5.69-2.69Z"/>
      <path class="st10" d="M119.27,127.43l-.18.61,5.61,2.66.41-1.01c-1.95-.75-3.88-1.53-5.83-2.25Z"/>
      <path class="st10" d="M131.98,86.77l.4.81,2.95-1.18-.62-.48c-.91.3-1.82.59-2.73.86Z"/>
      <path class="st10" d="M72.38,96.26l-.84.47,2.95,3.84,1.66-.71c-1.26-1.19-2.54-2.37-3.77-3.6Z"/>
      <path class="st10" d="M95.62,124.64l1.03,1.33,2.07-.89-.92-1.73c-.7.47-1.43.89-2.17,1.28Z"/>
      <path class="st10" d="M81.17,109.57l1.3,1.04,3.84-4.43-.81-.65c-1.16,1.55-2.7,2.9-4.33,4.04Z"/>
      <path class="st10" d="M68.32,106.66l.26,1.59,2.95-.3-.88-1.9c-.77.23-1.55.43-2.34.6Z"/>
      <path class="st10" d="M53.61,107.6l-.68.95,5.02,2.36.17-.67c-1.46-.96-2.94-1.89-4.51-2.64Z"/>
    </g>
  </g>
</svg>