<?xml version="1.0" encoding="UTF-8"?>
<svg id="Layer_41" xmlns="http://www.w3.org/2000/svg" xmlns:xlink="http://www.w3.org/1999/xlink" version="1.1" viewBox="0 0 248.55 211.8">
  <!-- Generator: Adobe Illustrator 30.0.0, SVG Export Plug-In . SVG Version: 2.1.1 Build 123)  -->
  <defs>
    <style>
      .st0, .st1 {
        fill: none;
      }

      .st2 {
        fill: url(#linear-gradient2);
      }

      .st3 {
        fill: url(#linear-gradient1);
      }

      .st4 {
        fill: url(#linear-gradient3);
      }

      .st5 {
        fill: url(#linear-gradient6);
      }

      .st6 {
        fill: url(#linear-gradient7);
      }

      .st7 {
        fill: url(#linear-gradient5);
      }

      .st8 {
        fill: url(#linear-gradient4);
      }

      .st9 {
        fill: url(#linear-gradient8);
      }

      .st9, .st10 {
        opacity: .8;
      }

      .st11 {
        fill: #211f1c;
      }

      .st12 {
        fill: #f0e1d9;
      }

      .st13 {
        fill: url(#linear-gradient);
      }

      .st14 {
        fill: #ffbc15;
      }

      .st15 {
        fill: #ddd4c5;
      }

      .st16 {
        fill: #cbe000;
      }

      .st1 {
        stroke: #000;
        stroke-linecap: round;
        stroke-linejoin: round;
        stroke-width: 1.93px;
      }

      .st17 {
        fill: #f2e9df;
      }

      .st18 {
        fill: #fff;
      }

      .st19 {
        fill: #fff3b9;
      }

      .st20 {
        fill: #ffed03;
      }

      .st21 {
        fill: #fac45e;
      }

      .st22 {
        fill: #351b08;
      }

      .st23 {
        fill: #ffe133;
      }

      .st24 {
        fill: #fcfad6;
      }

      .st25 {
        clip-path: url(#clippath);
      }
    </style>
    <linearGradient id="linear-gradient" x1="-353.9" y1="3923.9" x2="-353.9" y2="4097.44" gradientTransform="translate(422.99 -3911.04)" gradientUnits="userSpaceOnUse">
      <stop offset=".29" stop-color="#e5a251"/>
      <stop offset=".6" stop-color="#c98a45"/>
    </linearGradient>
    <linearGradient id="linear-gradient1" x1="-353.9" y1="4085.91" x2="-353.9" y2="4031.18" gradientTransform="translate(454.29 -3922.07)" gradientUnits="userSpaceOnUse">
      <stop offset=".15" stop-color="#e5a251"/>
      <stop offset=".77" stop-color="#c98a45"/>
    </linearGradient>
    <linearGradient id="linear-gradient2" x1="-308.41" y1="4069.2" x2="-392.58" y2="4069.2" gradientTransform="translate(-2169.32 -3246.59) rotate(-38.84)" gradientUnits="userSpaceOnUse">
      <stop offset=".39" stop-color="#e5a251"/>
      <stop offset=".6" stop-color="#f4b664"/>
    </linearGradient>
    <linearGradient id="linear-gradient3" y1="4061.94" x2="-392.58" y2="4061.94" xlink:href="#linear-gradient2"/>
    <linearGradient id="linear-gradient4" x1="-308.41" y1="4054.69" x2="-392.58" y2="4054.69" xlink:href="#linear-gradient2"/>
    <linearGradient id="linear-gradient5" y1="4047.44" x2="-392.58" y2="4047.44" xlink:href="#linear-gradient2"/>
    <linearGradient id="linear-gradient6" y1="4040.29" x2="-392.58" y2="4040.29" xlink:href="#linear-gradient2"/>
    <linearGradient id="linear-gradient7" x1="-308.41" y1="4076.34" x2="-392.58" y2="4076.34" xlink:href="#linear-gradient2"/>
    <clipPath id="clippath">
      <ellipse class="st0" cx="53.24" cy="55.39" rx="11.19" ry="14.88" transform="translate(-23.41 50.21) rotate(-42.27)"/>
    </clipPath>
    <linearGradient id="linear-gradient8" x1="123.14" y1="42.94" x2="123.14" y2="201.8" gradientUnits="userSpaceOnUse">
      <stop offset=".57" stop-color="#fdffab"/>
      <stop offset=".86" stop-color="#ffed03"/>
    </linearGradient>
  </defs>
  <path id="_เส้นจาน" data-name="เส้นจาน" d="M123.14,190.28c-26.71,0-51.85-2.33-70.78-6.56-20.59-4.6-31.04-10.7-31.04-18.12s10.44-13.52,31.04-18.12c18.93-4.23,44.07-6.56,70.78-6.56s51.85,2.33,70.78,6.56c20.59,4.6,31.04,10.7,31.04,18.12s-10.44,13.52-31.04,18.12c-18.93,4.23-44.07,6.56-70.78,6.56Z"/>
  <ellipse id="_จาน" data-name="จาน" class="st18" cx="123.14" cy="165.6" rx="99.34" ry="22.2"/>
  <g id="_เงาจาน" data-name="เงาจาน">
    <ellipse class="st17" cx="123.14" cy="165.93" rx="59.03" ry="13.19"/>
    <g>
      <path class="st17" d="M38.07,158.78c-.56-.86-10.25,2.26-10.42,6.2-.29,6.73,27.3,12.36,27.28,12.4-.01.04-22.14-4.38-22.32-11.41-.09-3.7,5.92-6.49,5.46-7.19Z"/>
      <path class="st17" d="M204,172.91c.15.33,14.24-2.96,14.39-8.19.17-5.72-16.54-9.62-16.62-9.43-.08.18,13.91,3.89,13.89,9.18-.02,4.84-11.79,8.13-11.66,8.43Z"/>
      <circle class="st17" cx="40.3" cy="157.29" r=".99"/>
      <circle class="st17" cx="201.27" cy="174.15" r=".99"/>
    </g>
  </g>
  <g>
    <g id="_x3C_Radial_Repeat_x3E_">
      <path class="st18" d="M91.18,80.6c.15,0,.26.22.26.49l-.25,9.23c0,.27-.13.48-.28.48s-.26-.22-.26-.49l.25-9.23c0-.27.13-.48.28-.48Z"/>
      <circle class="st18" cx="91.03" cy="91.89" r=".43"/>
    </g>
    <g id="_x3C_Radial_Repeat_x3E_1" data-name="_x3C_Radial_Repeat_x3E_">
      <path class="st18" d="M90.12,80.49c.14.05.17.3.07.55l-3.39,8.59c-.1.25-.29.41-.43.35s-.17-.3-.07-.55l3.39-8.59c.1-.25.29-.41.43-.35Z"/>
      <circle class="st18" cx="86.13" cy="91.06" r=".43"/>
    </g>
    <g id="_x3C_Radial_Repeat_x3E_2" data-name="_x3C_Radial_Repeat_x3E_">
      <path class="st18" d="M89.17,80.03c.11.1.06.34-.12.54l-6.12,6.91c-.18.2-.41.28-.52.19s-.06-.34.12-.54l6.12-6.91c.18-.2.41-.28.52-.19Z"/>
      <circle class="st18" cx="81.8" cy="88.59" r=".43"/>
    </g>
    <g id="_x3C_Radial_Repeat_x3E_3" data-name="_x3C_Radial_Repeat_x3E_">
      <path class="st18" d="M88.43,79.28c.07.13-.06.34-.3.47l-8.12,4.4c-.24.13-.48.13-.56,0s.06-.34.3-.47l8.12-4.4c.24-.13.48-.13.56,0Z"/>
      <circle class="st18" cx="78.58" cy="84.8" r=".43"/>
    </g>
    <g id="_x3C_Radial_Repeat_x3E_4" data-name="_x3C_Radial_Repeat_x3E_">
      <path class="st18" d="M88,78.31c.02.15-.18.3-.44.34l-9.13,1.36c-.27.04-.5-.05-.52-.19s.18-.3.44-.34l9.13-1.36c.27-.04.5.05.52.19Z"/>
      <circle class="st18" cx="76.85" cy="80.13" r=".43"/>
    </g>
    <g id="_x3C_Radial_Repeat_x3E_5" data-name="_x3C_Radial_Repeat_x3E_">
      <path class="st18" d="M87.92,77.26c-.03.15-.27.22-.53.17l-9.05-1.84c-.26-.05-.45-.22-.42-.36s.27-.22.53-.17l9.05,1.84c.26.05.45.22.42.36Z"/>
      <circle class="st18" cx="76.82" cy="75.16" r=".43"/>
    </g>
    <g id="_x3C_Radial_Repeat_x3E_6" data-name="_x3C_Radial_Repeat_x3E_">
      <path class="st18" d="M88.21,76.24c-.08.13-.33.12-.56-.02l-7.87-4.83c-.23-.14-.35-.36-.27-.48s.33-.12.56.02l7.87,4.83c.23.14.35.36.27.48Z"/>
      <path class="st18" d="M78.93,70.47c0,.24-.19.43-.43.43s-.43-.19-.43-.43.19-.43.43-.43.43.19.43.43Z"/>
    </g>
    <g id="_x3C_Radial_Repeat_x3E_7" data-name="_x3C_Radial_Repeat_x3E_">
      <path class="st18" d="M88.82,75.38c-.12.09-.35,0-.51-.21l-5.75-7.23c-.17-.21-.21-.46-.09-.55s.35,0,.51.21l5.75,7.23c.17.21.21.46.09.55Z"/>
      <circle class="st18" cx="81.68" cy="66.64" r=".43"/>
    </g>
    <g id="_x3C_Radial_Repeat_x3E_8" data-name="_x3C_Radial_Repeat_x3E_">
      <path class="st18" d="M89.7,74.79c-.14.05-.32-.12-.41-.38l-2.93-8.76c-.09-.25-.04-.5.1-.55s.32.12.41.38l2.93,8.76c.09.25.04.5-.1.55Z"/>
      <circle class="st18" cx="85.97" cy="64.13" r=".43"/>
    </g>
    <g id="_x3C_Radial_Repeat_x3E_9" data-name="_x3C_Radial_Repeat_x3E_">
      <path class="st18" d="M90.72,74.53c-.15,0-.26-.22-.26-.49l.25-9.23c0-.27.13-.48.28-.48s.26.22.26.49l-.25,9.23c0,.27-.13.48-.28.48Z"/>
      <circle class="st18" cx="90.87" cy="63.24" r=".43"/>
    </g>
    <g id="_x3C_Radial_Repeat_x3E_10" data-name="_x3C_Radial_Repeat_x3E_">
      <path class="st18" d="M91.77,74.63c-.14-.05-.17-.3-.07-.55l3.39-8.59c.1-.25.29-.41.43-.35s.17.3.07.55l-3.39,8.59c-.1.25-.29.41-.43.35Z"/>
      <circle class="st18" cx="95.77" cy="64.07" r=".43"/>
    </g>
    <g id="_x3C_Radial_Repeat_x3E_11" data-name="_x3C_Radial_Repeat_x3E_">
      <path class="st18" d="M92.73,75.09c-.11-.1-.06-.34.12-.54l6.12-6.91c.18-.2.41-.28.52-.19s.06.34-.12.54l-6.12,6.91c-.18.2-.41.28-.52.19Z"/>
      <circle class="st18" cx="100.09" cy="66.54" r=".43"/>
    </g>
    <g id="_x3C_Radial_Repeat_x3E_12" data-name="_x3C_Radial_Repeat_x3E_">
      <path class="st18" d="M93.46,75.85c-.07-.13.06-.34.3-.47l8.12-4.4c.24-.13.48-.13.56,0s-.06.34-.3.47l-8.12,4.4c-.24.13-.48.13-.56,0Z"/>
      <circle class="st18" cx="103.32" cy="70.33" r=".43"/>
    </g>
    <g id="_x3C_Radial_Repeat_x3E_13" data-name="_x3C_Radial_Repeat_x3E_">
      <path class="st18" d="M93.9,76.81c-.02-.15.18-.3.44-.34l9.13-1.36c.27-.04.5.05.52.19s-.18.3-.44.34l-9.13,1.36c-.27.04-.5-.05-.52-.19Z"/>
      <circle class="st18" cx="105.04" cy="74.99" r=".43"/>
    </g>
    <g id="_x3C_Radial_Repeat_x3E_14" data-name="_x3C_Radial_Repeat_x3E_">
      <path class="st18" d="M93.98,77.87c.03-.15.27-.22.53-.17l9.05,1.84c.26.05.45.22.42.36s-.27.22-.53.17l-9.05-1.84c-.26-.05-.45-.22-.42-.36Z"/>
      <circle class="st18" cx="105.07" cy="79.97" r=".43"/>
    </g>
    <g id="_x3C_Radial_Repeat_x3E_15" data-name="_x3C_Radial_Repeat_x3E_">
      <path class="st18" d="M93.69,78.88c.08-.13.33-.12.56.02l7.87,4.83c.23.14.35.36.27.48s-.33.12-.56-.02l-7.87-4.83c-.23-.14-.35-.36-.27-.48Z"/>
      <path class="st18" d="M102.97,84.66c0-.24.19-.43.43-.43s.43.19.43.43-.19.43-.43.43-.43-.19-.43-.43Z"/>
    </g>
    <g id="_x3C_Radial_Repeat_x3E_16" data-name="_x3C_Radial_Repeat_x3E_">
      <path class="st18" d="M93.07,79.74c.12-.09.35,0,.51.21l5.75,7.23c.17.21.21.46.09.55s-.35,0-.51-.21l-5.75-7.23c-.17-.21-.21-.46-.09-.55Z"/>
      <circle class="st18" cx="100.22" cy="88.49" r=".43"/>
    </g>
    <g id="_x3C_Radial_Repeat_x3E_17" data-name="_x3C_Radial_Repeat_x3E_">
      <path class="st18" d="M92.2,80.34c.14-.05.32.12.41.38l2.93,8.76c.09.25.04.5-.1.55s-.32-.12-.41-.38l-2.93-8.76c-.09-.25-.04-.5.1-.55Z"/>
      <circle class="st18" cx="95.93" cy="91" r=".43"/>
    </g>
  </g>
  <path d="M109.68,173.66c-15.26,0-29.76-4.86-41.94-14.05-12.18-9.19-20.83-21.81-25.01-36.49l-12.67-44.46h15.67l-21.64-26.88c-1.89-2.34-1.52-5.79.83-7.67l1.54-1.24c.97-.78,2.18-1.21,3.42-1.21,1.66,0,3.21.74,4.25,2.03l3.98,4.94c.53-2.39,1.7-4.5,3.45-6.09,1.56-1.42,3.47-2.35,5.61-2.75-.59-1.23-.35-2.74.7-3.69.57-.52,1.31-.8,2.09-.8.24,0,.48.03.72.08.43-.22.91-.33,1.4-.33.9,0,1.76.39,2.37,1.06.52.57.8,1.27.84,1.99.44.9.67,1.85.67,2.81.37.15.73.32,1.09.5,1.64-.89,3.51-1.51,5.5-1.81.88-.13,1.77-.2,2.65-.2,5.88,0,10.44,2.99,11.09,7.27,0,.06.02.11.02.17.74.97,1.22,2.08,1.39,3.24.39,2.55-.71,5.2-3.01,7.26-1.61,1.44-3.71,2.53-6.06,3.16-.16,1.67-.61,3.23-1.34,4.63l2.09,4.69c.52-.83,1.24-1.5,2.09-1.96-.25-1.48.12-3.01,1.03-4.22.92-1.23,2.26-2,3.76-2.17.31-1.47,1.2-2.76,2.48-3.56.88-.55,1.89-.84,2.92-.84.47,0,.92.06,1.36.17.82-1.26,2.12-2.14,3.6-2.43.34-.07.69-.1,1.04-.1,1.18,0,2.29.38,3.2,1.03.91-.67,2.03-1.06,3.24-1.06.33,0,.67.03,1,.09,1.48.27,2.79,1.14,3.62,2.4.45-.12.93-.18,1.41-.18,1.02,0,2.01.28,2.89.82,1.29.79,2.19,2.07,2.51,3.54,1.5.17,2.85.93,3.77,2.14.91,1.2,1.3,2.73,1.06,4.21,1.3.69,2.32,1.88,2.75,3.36.42,1.45.22,3.01-.53,4.31.81.92,1.28,2.1,1.36,3.31h32.68l5.19-5.84-3.74-11.27,9.95-11.2,11.99,2.47,7.76-8.74,14.68,3.02,3.68,11.09,11.89,2.44,4.73,14.22-3.38,3.8h6.84l-2.32,8.15c3.5.19,6.86.82,10.02,1.89,8.6,2.91,14.73,8.68,17.26,16.25,2.53,7.57,1.09,15.87-4.04,23.36-4.84,7.07-12.49,12.63-21.52,15.64-4.73,1.58-9.54,2.38-14.32,2.38-2.98,0-5.89-.32-8.68-.95-13.1,17.73-33.9,28.27-56.01,28.27h-26.93ZM198.26,136.37c1,.1,2.02.15,3.05.15,3.71,0,7.47-.63,11.19-1.87,6.9-2.3,12.71-6.43,16.37-11.62,3.49-4.96,4.55-10.27,2.99-14.96-2.33-6.98-10.26-11.5-20.21-11.5-.18,0-.35,0-.53,0l-7.56,26.55c-1.31,4.59-3.08,9.03-5.29,13.25ZM68.02,78.66c.1-1.15.56-2.25,1.32-3.13-.21-.35-.37-.72-.5-1.1l-7.26-4.1c-1.45.59-3.04.88-4.74.88-.19,0-.37,0-.56-.01l6.01,7.47h5.72Z"/>
  <path class="st18" d="M238.82,105.74c-2.28-6.82-7.85-12.03-15.7-14.69-3.9-1.32-8.14-1.92-12.5-1.81l2.31-8.1h-9.08l6.1-6.86-3.82-11.5-11.87-2.44h-.01s-3.69-11.09-3.69-11.09l-11.87-2.44-7.84,8.83-.04-.12-11.87-2.44-8.05,9.06,3.74,11.27-6.88,7.74h-37.16c.49-.49.82-1.14.88-1.88.16-1.81-1.29-3.35-3.1-3.31l-2.51.06,2.48-.43c1.79-.31,2.91-2.1,2.41-3.85-.5-1.74-2.41-2.66-4.09-1.97l-2.32.96,2.16-1.29c1.56-.93,1.96-3.01.86-4.46s-3.21-1.61-4.52-.36l-1.82,1.74,1.54-1.98c1.12-1.43.74-3.52-.81-4.47-1.55-.95-3.58-.34-4.35,1.3l-1.07,2.28.72-2.41c.52-1.74-.58-3.55-2.37-3.87-1.79-.33-3.46.97-3.58,2.78l-.17,2.51-.2-2.51c-.14-1.81-1.82-3.09-3.61-2.75-1.78.34-2.87,2.16-2.34,3.89l.74,2.4-1.09-2.27c-.79-1.64-2.82-2.23-4.36-1.27h0c-1.54.96-1.9,3.05-.77,4.47l1.56,1.97-1.83-1.72c-1.32-1.24-3.43-1.06-4.52.39h0c-1.09,1.45-.67,3.53.89,4.45l2.17,1.28-2.33-.94c-1.68-.68-3.58.25-4.07,2h0c-.49,1.75.65,3.53,2.44,3.83l2.48.41-2.51-.04c-1.82-.03-3.25,1.53-3.08,3.34.06.67.34,1.25.74,1.72h-10.13l-11.8-14.65c1.73,1.04,3.55,1.72,5.33,2.04,2.55.45,5.01.14,7.04-1l5.33,3.01-2.49-5.59c1.26-1.81,1.81-4.07,1.7-6.49.03,0,.07,0,.1-.01,5.49-.83,9.49-4.42,8.95-8-.15-.99-.64-1.88-1.37-2.63,0-.26,0-.51-.05-.77-.54-3.59-5.43-5.82-10.92-4.99-2.25.34-4.25,1.15-5.79,2.22-1.3-.77-2.64-1.35-3.98-1.72.38-.91.63-2.36-.43-3.96.15-.25.11-.58-.11-.82-.26-.29-.69-.33-.96-.09s-.27.67,0,.96c.19.21.47.29.71.22.97,1.47.71,2.78.36,3.57-.5-.12-.99-.21-1.48-.28.22-.88.2-2.05-.64-3.32.15-.25.11-.58-.11-.82-.26-.29-.69-.33-.96-.09-.27.24-.27.67,0,.96.19.21.47.29.71.22.76,1.15.77,2.21.56,2.99-2.87-.28-5.57.45-7.57,2.27-3.01,2.73-3.7,7.26-2.25,11.77l-8.78-10.9c-1.03-1.28-2.91-1.48-4.19-.45l-1.54,1.24c-1.28,1.03-1.48,2.91-.45,4.19l24.89,30.91h-17.57l11.77,41.3c8.22,28.84,34.57,48.74,64.56,48.74h26.93c22.34,0,42.67-11.04,54.98-28.6,3.09.85,6.36,1.28,9.71,1.28,4.45,0,9.04-.75,13.53-2.25,8.53-2.85,15.72-8.06,20.26-14.69,4.68-6.84,6.01-14.36,3.73-21.17ZM213.29,137c-6.42,2.14-13.02,2.56-18.92,1.26,2.89-4.88,5.19-10.17,6.8-15.82l8.05-28.27c.82-.06,1.63-.08,2.43-.08,10.7,0,19.8,4.91,22.56,13.19,3.76,11.28-5.62,24.61-20.92,29.72Z"/>
  <g id="_หูแก้ว" data-name="หูแก้ว">
    <path class="st18" d="M201.29,143.86c-4,0-7.89-.61-11.49-1.82-7.85-2.65-13.43-7.87-15.7-14.69-2.28-6.82-.95-14.34,3.73-21.17,4.54-6.63,11.74-11.85,20.26-14.69,8.53-2.85,17.41-3,25.03-.43,7.85,2.65,13.43,7.87,15.7,14.69h0c2.28,6.82.95,14.34-3.73,21.17-4.54,6.63-11.74,11.85-20.26,14.69-4.49,1.5-9.08,2.25-13.53,2.25ZM211.65,94.09c-3.87,0-7.95.64-12.02,2-15.3,5.11-24.69,18.44-20.92,29.72,1.78,5.34,6.28,9.47,12.65,11.62,6.61,2.23,14.4,2.08,21.93-.43,15.3-5.11,24.69-18.44,20.92-29.72h0c-2.76-8.28-11.87-13.19-22.56-13.19Z"/>
  </g>
  <path id="_พื้นหลังน้ำ" data-name="พื้นหลังน้ำ" class="st18" d="M136.6,171.18h-26.93c-29.99,0-56.34-19.89-64.56-48.74l-11.77-41.3h179.58l-11.77,41.3c-8.22,28.84-34.57,48.74-64.56,48.74Z"/>
  <g id="_ไม้คน" data-name="ไม้คน">
    <rect class="st13" x="65.13" y="30.66" width="7.94" height="133.44" rx="2.98" ry="2.98" transform="translate(-45.8 64.87) rotate(-38.84)"/>
    <ellipse class="st3" cx="100.39" cy="136.25" rx="15.09" ry="19.4" transform="translate(-63.25 93.09) rotate(-38.84)"/>
    <g>
      <path class="st2" d="M120.39,137c-.3-1.56-.77-3.12-1.38-4.67l-26.41,21.27c1.38.94,2.82,1.72,4.27,2.35l23.53-18.95Z"/>
      <path class="st4" d="M87.07,148.73c1.02,1.16,2.11,2.22,3.25,3.17l27.5-22.14c-.68-1.31-1.49-2.61-2.4-3.85l-28.35,22.83Z"/>
      <path class="st8" d="M82.95,142.74c.68,1.31,1.49,2.61,2.4,3.85l28.35-22.83c-1.02-1.16-2.11-2.22-3.25-3.17l-27.5,22.14Z"/>
      <path class="st7" d="M80.39,135.49c.3,1.56.77,3.12,1.38,4.67l26.41-21.27c-1.38-.94-2.82-1.72-4.27-2.35l-23.53,18.95Z"/>
      <path class="st5" d="M94.96,114.71l-14.45,11.64c-.46,1.88-.64,3.88-.52,5.95l20.89-16.82c-1.99-.55-3.99-.81-5.92-.76Z"/>
      <path class="st6" d="M105.82,157.78l14.45-11.64c.46-1.88.64-3.88.52-5.95l-20.89,16.82c1.99.55,3.99.81,5.92.76Z"/>
    </g>
  </g>
  <g>
    <polygon class="st22" points="67.01 70.54 63.72 63.15 59.97 66.56 67.01 70.54"/>
    <ellipse class="st15" cx="63.91" cy="48.54" rx="10.05" ry="6.57" transform="translate(-6.56 10.13) rotate(-8.62)"/>
    <path class="st22" d="M50.6,38.85c.15-.25.11-.58-.11-.82-.26-.29-.69-.33-.96-.09s-.27.67,0,.96c.19.21.47.29.71.22,1.55,2.35-.04,4.27-.11,4.36-.07.09-.07.22,0,.3,0,0,.01.01.02.02.09.08.24.07.32-.02.02-.02,1.9-2.28.13-4.93Z"/>
    <ellipse class="st23" cx="53.24" cy="55.39" rx="11.19" ry="14.88" transform="translate(-23.41 50.21) rotate(-42.27)"/>
    <g class="st25">
      <rect class="st22" x="49.14" y="38.62" width="5.2" height="29.97" transform="translate(56.61 -20.74) rotate(47.73)"/>
      <rect class="st22" x="56.13" y="46.31" width="5.2" height="29.97" transform="translate(64.59 -23.39) rotate(47.73)"/>
    </g>
    <circle class="st14" cx="47.25" cy="48.1" r="1.98"/>
    <g>
      <ellipse class="st11" cx="47.4" cy="45.06" rx="1.9" ry="1.89" transform="translate(-17.99 43.6) rotate(-42.27)"/>
      <ellipse class="st18" cx="47.43" cy="44.45" rx=".88" ry=".87" transform="translate(-17.56 43.46) rotate(-42.27)"/>
    </g>
    <path class="st22" d="M52.72,38.6c.15-.25.11-.58-.11-.82-.26-.29-.69-.33-.96-.09s-.27.67,0,.96c.19.21.47.29.71.22,1.55,2.35-.04,4.27-.11,4.36-.07.09-.07.22,0,.3,0,0,.01.01.02.02.09.08.24.07.32-.02.02-.02,1.9-2.28.13-4.93Z"/>
    <ellipse class="st18" cx="65.33" cy="51.95" rx="10.05" ry="6.57" transform="translate(-7.05 10.38) rotate(-8.62)"/>
  </g>
  <g>
    <g>
      <g id="_กรอบ" data-name="กรอบ">
        <polygon class="st19" points="182.28 89.53 170.4 87.09 162.35 96.15 166.18 107.65 178.05 110.09 186.1 101.03 182.28 89.53"/>
      </g>
      <g id="_ใน" data-name="ใน">
        <polygon class="st20" points="181.34 90.58 170.85 88.42 163.73 96.43 167.11 106.6 177.6 108.76 184.72 100.75 181.34 90.58"/>
      </g>
      <g id="_สะท้อน" data-name="สะท้อน">
        <g>
          <ellipse class="st24" cx="175.21" cy="97.71" rx="6.47" ry="8.43" transform="translate(-25.32 91.94) rotate(-27.5)"/>
          <ellipse class="st24" cx="167.42" cy="101.79" rx="1.08" ry="2.87" transform="translate(-28.08 88.8) rotate(-27.5)"/>
        </g>
      </g>
      <g id="_วิ้งๆ" data-name="วิ้งๆ">
        <rect class="st18" x="179.06" y="91.62" width="2.43" height="6.46" rx="1.22" ry="1.22" transform="translate(-20.71 61.69) rotate(-18.38)"/>
        <rect class="st18" x="180.63" y="98.5" width="2.39" height="2.43" rx="1.19" ry="1.19" transform="translate(-22.17 62.42) rotate(-18.38)"/>
      </g>
    </g>
    <g>
      <g id="_กรอบ1" data-name="กรอบ">
        <polygon class="st19" points="190.56 49.25 178.69 46.8 170.64 55.87 174.46 67.37 186.33 69.81 194.38 60.75 190.56 49.25"/>
      </g>
      <g id="_ใน1" data-name="ใน">
        <polygon class="st20" points="189.63 50.3 179.13 48.14 172.01 56.15 175.39 66.32 185.89 68.48 193 60.46 189.63 50.3"/>
      </g>
      <g id="_สะท้อน1" data-name="สะท้อน">
        <g>
          <ellipse class="st24" cx="183.49" cy="57.43" rx="6.47" ry="8.43" transform="translate(-5.79 91.21) rotate(-27.5)"/>
          <ellipse class="st24" cx="175.7" cy="61.51" rx="1.08" ry="2.87" transform="translate(-8.55 88.08) rotate(-27.5)"/>
        </g>
      </g>
      <g id="_วิ้งๆ1" data-name="วิ้งๆ">
        <rect class="st18" x="187.34" y="51.34" width="2.43" height="6.46" rx="1.22" ry="1.22" transform="translate(-7.59 62.24) rotate(-18.38)"/>
        <rect class="st18" x="188.92" y="58.22" width="2.39" height="2.43" rx="1.19" ry="1.19" transform="translate(-9.04 62.98) rotate(-18.38)"/>
      </g>
    </g>
    <g>
      <g id="_กรอบ2" data-name="กรอบ">
        <polygon class="st19" points="186.5 68.96 174.63 66.52 166.58 75.58 170.4 87.09 182.28 89.53 190.33 80.47 186.5 68.96"/>
      </g>
      <g id="_ใน2" data-name="ใน">
        <polygon class="st20" points="185.57 70.01 175.07 67.86 167.96 75.87 171.34 86.04 181.83 88.19 188.95 80.18 185.57 70.01"/>
      </g>
      <g id="_สะท้อน2" data-name="สะท้อน">
        <g>
          <ellipse class="st24" cx="179.43" cy="77.15" rx="6.47" ry="8.43" transform="translate(-15.35 91.57) rotate(-27.5)"/>
          <ellipse class="st24" cx="171.64" cy="81.22" rx="1.08" ry="2.87" transform="translate(-18.11 88.43) rotate(-27.5)"/>
        </g>
      </g>
      <g id="_วิ้งๆ2" data-name="วิ้งๆ">
        <rect class="st18" x="183.29" y="71.06" width="2.43" height="6.46" rx="1.22" ry="1.22" transform="translate(-14.01 61.97) rotate(-18.38)"/>
        <rect class="st18" x="184.86" y="77.94" width="2.39" height="2.43" rx="1.19" ry="1.19" transform="translate(-15.47 62.71) rotate(-18.38)"/>
      </g>
    </g>
    <g>
      <g id="_กรอบ3" data-name="กรอบ">
        <polygon class="st19" points="201.99 82.92 190.12 80.48 182.07 89.54 185.89 101.04 197.76 103.48 205.81 94.42 201.99 82.92"/>
      </g>
      <g id="_ใน3" data-name="ใน">
        <polygon class="st20" points="201.06 83.97 190.56 81.81 183.44 89.82 186.82 99.99 197.32 102.15 204.43 94.14 201.06 83.97"/>
      </g>
      <g id="_สะท้อน3" data-name="สะท้อน">
        <g>
          <ellipse class="st24" cx="194.92" cy="91.1" rx="6.47" ry="8.43" transform="translate(-20.04 100.3) rotate(-27.5)"/>
          <ellipse class="st24" cx="187.13" cy="95.18" rx="1.08" ry="2.87" transform="translate(-22.81 97.16) rotate(-27.5)"/>
        </g>
      </g>
      <g id="_วิ้งๆ3" data-name="วิ้งๆ">
        <rect class="st18" x="198.77" y="85.02" width="2.43" height="6.46" rx="1.22" ry="1.22" transform="translate(-17.62 67.57) rotate(-18.38)"/>
        <rect class="st18" x="200.35" y="91.89" width="2.39" height="2.43" rx="1.19" ry="1.19" transform="translate(-19.08 68.3) rotate(-18.38)"/>
      </g>
    </g>
    <g>
      <g id="_กรอบ4" data-name="กรอบ">
        <polygon class="st19" points="166.66 75.66 154.79 73.21 146.74 82.28 150.56 93.78 162.44 96.22 170.49 87.16 166.66 75.66"/>
      </g>
      <g id="_ใน4" data-name="ใน">
        <polygon class="st20" points="165.73 76.71 155.23 74.55 148.12 82.56 151.5 92.73 161.99 94.89 169.11 86.87 165.73 76.71"/>
      </g>
      <g id="_สะท้อน4" data-name="สะท้อน">
        <g>
          <ellipse class="st24" cx="159.59" cy="83.84" rx="6.47" ry="8.43" transform="translate(-20.68 83.17) rotate(-27.5)"/>
          <ellipse class="st24" cx="151.8" cy="87.92" rx="1.08" ry="2.87" transform="translate(-23.44 80.03) rotate(-27.5)"/>
        </g>
      </g>
      <g id="_วิ้งๆ4" data-name="วิ้งๆ">
        <rect class="st18" x="163.45" y="77.75" width="2.43" height="6.46" rx="1.22" ry="1.22" transform="translate(-17.14 56.06) rotate(-18.38)"/>
        <rect class="st18" x="165.02" y="84.63" width="2.39" height="2.43" rx="1.19" ry="1.19" transform="translate(-18.59 56.79) rotate(-18.38)"/>
      </g>
    </g>
    <g>
      <g id="_กรอบ5" data-name="กรอบ">
        <polygon class="st19" points="206.13 62.78 194.26 60.34 186.21 69.4 190.03 80.9 201.9 83.34 209.95 74.28 206.13 62.78"/>
      </g>
      <g id="_ใน5" data-name="ใน">
        <polygon class="st20" points="205.2 63.83 194.7 61.67 187.58 69.68 190.96 79.85 201.46 82.01 208.58 74 205.2 63.83"/>
      </g>
      <g id="_สะท้อน5" data-name="สะท้อน">
        <g>
          <ellipse class="st24" cx="199.06" cy="70.96" rx="6.47" ry="8.43" transform="translate(-10.28 99.93) rotate(-27.5)"/>
          <ellipse class="st24" cx="191.27" cy="75.04" rx="1.08" ry="2.87" transform="translate(-13.04 96.8) rotate(-27.5)"/>
        </g>
      </g>
      <g id="_วิ้งๆ5" data-name="วิ้งๆ">
        <rect class="st18" x="202.92" y="64.88" width="2.43" height="6.46" rx="1.22" ry="1.22" transform="translate(-11.06 67.84) rotate(-18.38)"/>
        <rect class="st18" x="204.49" y="71.75" width="2.39" height="2.43" rx="1.19" ry="1.19" transform="translate(-12.51 68.58) rotate(-18.38)"/>
      </g>
    </g>
    <g>
      <g id="_กรอบ6" data-name="กรอบ">
        <polygon class="st19" points="170.8 55.52 158.93 53.07 150.88 62.13 154.71 73.64 166.58 76.08 174.63 67.02 170.8 55.52"/>
      </g>
      <g id="_ใน6" data-name="ใน">
        <polygon class="st20" points="169.87 56.56 159.38 54.41 152.26 62.42 155.64 72.59 166.13 74.74 173.25 66.73 169.87 56.56"/>
      </g>
      <g id="_สะท้อน6" data-name="สะท้อน">
        <g>
          <ellipse class="st24" cx="163.74" cy="63.7" rx="6.47" ry="8.43" transform="translate(-10.91 82.8) rotate(-27.5)"/>
          <ellipse class="st24" cx="155.94" cy="67.78" rx="1.08" ry="2.87" transform="translate(-13.68 79.67) rotate(-27.5)"/>
        </g>
      </g>
      <g id="_วิ้งๆ6" data-name="วิ้งๆ">
        <rect class="st18" x="167.59" y="57.61" width="2.43" height="6.46" rx="1.22" ry="1.22" transform="translate(-10.57 56.33) rotate(-18.38)"/>
        <rect class="st18" x="169.16" y="64.49" width="2.39" height="2.43" rx="1.19" ry="1.19" transform="translate(-12.03 57.07) rotate(-18.38)"/>
      </g>
    </g>
  </g>
  <g id="_ดอกใหญ่" data-name="ดอกใหญ่">
    <path class="st18" d="M108.37,75.94l-2.51.06,2.48-.43c1.79-.31,2.91-2.1,2.41-3.85s-2.41-2.66-4.09-1.97l-2.32.96,2.16-1.29c1.56-.93,1.96-3.01.86-4.46-1.1-1.44-3.21-1.61-4.52-.36l-1.82,1.74,1.54-1.98c1.12-1.43.74-3.52-.81-4.47-1.55-.95-3.58-.34-4.35,1.3l-1.07,2.28.72-2.41c.52-1.74-.58-3.55-2.37-3.87-1.79-.33-3.46.97-3.58,2.78l-.17,2.51-.2-2.51c-.14-1.81-1.82-3.09-3.61-2.75-1.78.34-2.87,2.16-2.34,3.89l.74,2.4-1.09-2.27c-.79-1.64-2.82-2.23-4.36-1.26h0c-1.54.96-1.9,3.05-.77,4.47l1.56,1.97-1.83-1.72c-1.32-1.24-3.43-1.06-4.52.39h0c-1.09,1.45-.67,3.53.89,4.45l2.17,1.28-2.33-.94c-1.68-.68-3.58.25-4.07,2h0c-.49,1.75.65,3.53,2.44,3.83l2.48.41-2.51-.04c-1.82-.03-3.25,1.53-3.08,3.34.17,1.81,1.88,3.06,3.66,2.69l2.46-.52-2.36.87c-1.7.63-2.48,2.6-1.66,4.22h0c.82,1.62,2.86,2.17,4.38,1.18l2.11-1.37-1.88,1.67c-1.36,1.2-1.37,3.32-.02,4.54,1.35,1.22,3.45.99,4.51-.48l1.47-2.04-1.15,2.23c-.83,1.61-.08,3.59,1.62,4.24s3.58-.32,4.04-2.08l.63-2.43-.27,2.5c-.19,1.8,1.22,3.38,3.04,3.37,1.82,0,3.22-1.59,3.01-3.39l-.29-2.5.65,2.43c.47,1.75,2.36,2.71,4.05,2.04,1.69-.66,2.43-2.65,1.58-4.25l-1.17-2.23,1.49,2.03c1.07,1.46,3.18,1.67,4.52.44h0c1.34-1.23,1.31-3.35-.06-4.54l-1.9-1.65,2.12,1.36c1.53.98,3.57.41,4.37-1.22.8-1.63.01-3.59-1.7-4.21l-2.37-.85,2.46.5c1.78.36,3.48-.91,3.64-2.72.16-1.81-1.29-3.35-3.1-3.31Z"/>
    <g>
      <g id="_x3C_Radial_Repeat_x3E_18" data-name="_x3C_Radial_Repeat_x3E_">
        <path class="st12" d="M91.18,80.6c.15,0,.26.22.26.49l-.25,9.23c0,.27-.13.48-.28.48s-.26-.22-.26-.49l.25-9.23c0-.27.13-.48.28-.48Z"/>
        <circle class="st12" cx="91.03" cy="91.89" r=".43"/>
      </g>
      <g id="_x3C_Radial_Repeat_x3E_19" data-name="_x3C_Radial_Repeat_x3E_">
        <path class="st12" d="M90.12,80.49c.14.05.17.3.07.55l-3.39,8.59c-.1.25-.29.41-.43.35s-.17-.3-.07-.55l3.39-8.59c.1-.25.29-.41.43-.35Z"/>
        <circle class="st12" cx="86.13" cy="91.06" r=".43"/>
      </g>
      <g id="_x3C_Radial_Repeat_x3E_20" data-name="_x3C_Radial_Repeat_x3E_">
        <path class="st12" d="M89.17,80.03c.11.1.06.34-.12.54l-6.12,6.91c-.18.2-.41.28-.52.19s-.06-.34.12-.54l6.12-6.91c.18-.2.41-.28.52-.19Z"/>
        <circle class="st12" cx="81.8" cy="88.59" r=".43"/>
      </g>
      <g id="_x3C_Radial_Repeat_x3E_21" data-name="_x3C_Radial_Repeat_x3E_">
        <path class="st12" d="M88.43,79.28c.07.13-.06.34-.3.47l-8.12,4.4c-.24.13-.48.13-.56,0s.06-.34.3-.47l8.12-4.4c.24-.13.48-.13.56,0Z"/>
        <circle class="st12" cx="78.58" cy="84.8" r=".43"/>
      </g>
      <g id="_x3C_Radial_Repeat_x3E_22" data-name="_x3C_Radial_Repeat_x3E_">
        <path class="st12" d="M88,78.31c.02.15-.18.3-.44.34l-9.13,1.36c-.27.04-.5-.05-.52-.19s.18-.3.44-.34l9.13-1.36c.27-.04.5.05.52.19Z"/>
        <circle class="st12" cx="76.85" cy="80.13" r=".43"/>
      </g>
      <g id="_x3C_Radial_Repeat_x3E_23" data-name="_x3C_Radial_Repeat_x3E_">
        <path class="st12" d="M87.92,77.26c-.03.15-.27.22-.53.17l-9.05-1.84c-.26-.05-.45-.22-.42-.36s.27-.22.53-.17l9.05,1.84c.26.05.45.22.42.36Z"/>
        <circle class="st12" cx="76.82" cy="75.16" r=".43"/>
      </g>
      <g id="_x3C_Radial_Repeat_x3E_24" data-name="_x3C_Radial_Repeat_x3E_">
        <path class="st12" d="M88.21,76.24c-.08.13-.33.12-.56-.02l-7.87-4.83c-.23-.14-.35-.36-.27-.48s.33-.12.56.02l7.87,4.83c.23.14.35.36.27.48Z"/>
        <path class="st12" d="M78.93,70.47c0,.24-.19.43-.43.43s-.43-.19-.43-.43.19-.43.43-.43.43.19.43.43Z"/>
      </g>
      <g id="_x3C_Radial_Repeat_x3E_25" data-name="_x3C_Radial_Repeat_x3E_">
        <path class="st12" d="M88.82,75.38c-.12.09-.35,0-.51-.21l-5.75-7.23c-.17-.21-.21-.46-.09-.55s.35,0,.51.21l5.75,7.23c.17.21.21.46.09.55Z"/>
        <circle class="st12" cx="81.68" cy="66.64" r=".43"/>
      </g>
      <g id="_x3C_Radial_Repeat_x3E_26" data-name="_x3C_Radial_Repeat_x3E_">
        <path class="st12" d="M89.7,74.79c-.14.05-.32-.12-.41-.38l-2.93-8.76c-.09-.25-.04-.5.1-.55s.32.12.41.38l2.93,8.76c.09.25.04.5-.1.55Z"/>
        <circle class="st12" cx="85.97" cy="64.13" r=".43"/>
      </g>
      <g id="_x3C_Radial_Repeat_x3E_27" data-name="_x3C_Radial_Repeat_x3E_">
        <path class="st12" d="M90.72,74.53c-.15,0-.26-.22-.26-.49l.25-9.23c0-.27.13-.48.28-.48s.26.22.26.49l-.25,9.23c0,.27-.13.48-.28.48Z"/>
        <circle class="st12" cx="90.87" cy="63.24" r=".43"/>
      </g>
      <g id="_x3C_Radial_Repeat_x3E_28" data-name="_x3C_Radial_Repeat_x3E_">
        <path class="st12" d="M91.77,74.63c-.14-.05-.17-.3-.07-.55l3.39-8.59c.1-.25.29-.41.43-.35s.17.3.07.55l-3.39,8.59c-.1.25-.29.41-.43.35Z"/>
        <circle class="st12" cx="95.77" cy="64.07" r=".43"/>
      </g>
      <g id="_x3C_Radial_Repeat_x3E_29" data-name="_x3C_Radial_Repeat_x3E_">
        <path class="st12" d="M92.73,75.09c-.11-.1-.06-.34.12-.54l6.12-6.91c.18-.2.41-.28.52-.19s.06.34-.12.54l-6.12,6.91c-.18.2-.41.28-.52.19Z"/>
        <circle class="st12" cx="100.09" cy="66.54" r=".43"/>
      </g>
      <g id="_x3C_Radial_Repeat_x3E_30" data-name="_x3C_Radial_Repeat_x3E_">
        <path class="st12" d="M93.46,75.85c-.07-.13.06-.34.3-.47l8.12-4.4c.24-.13.48-.13.56,0s-.06.34-.3.47l-8.12,4.4c-.24.13-.48.13-.56,0Z"/>
        <circle class="st12" cx="103.32" cy="70.33" r=".43"/>
      </g>
      <g id="_x3C_Radial_Repeat_x3E_31" data-name="_x3C_Radial_Repeat_x3E_">
        <path class="st12" d="M93.9,76.81c-.02-.15.18-.3.44-.34l9.13-1.36c.27-.04.5.05.52.19s-.18.3-.44.34l-9.13,1.36c-.27.04-.5-.05-.52-.19Z"/>
        <circle class="st12" cx="105.04" cy="74.99" r=".43"/>
      </g>
      <g id="_x3C_Radial_Repeat_x3E_32" data-name="_x3C_Radial_Repeat_x3E_">
        <path class="st12" d="M93.98,77.87c.03-.15.27-.22.53-.17l9.05,1.84c.26.05.45.22.42.36s-.27.22-.53.17l-9.05-1.84c-.26-.05-.45-.22-.42-.36Z"/>
        <circle class="st12" cx="105.07" cy="79.97" r=".43"/>
      </g>
      <g id="_x3C_Radial_Repeat_x3E_33" data-name="_x3C_Radial_Repeat_x3E_">
        <path class="st12" d="M93.69,78.88c.08-.13.33-.12.56.02l7.87,4.83c.23.14.35.36.27.48s-.33.12-.56-.02l-7.87-4.83c-.23-.14-.35-.36-.27-.48Z"/>
        <path class="st12" d="M102.97,84.66c0-.24.19-.43.43-.43s.43.19.43.43-.19.43-.43.43-.43-.19-.43-.43Z"/>
      </g>
      <g id="_x3C_Radial_Repeat_x3E_34" data-name="_x3C_Radial_Repeat_x3E_">
        <path class="st12" d="M93.07,79.74c.12-.09.35,0,.51.21l5.75,7.23c.17.21.21.46.09.55s-.35,0-.51-.21l-5.75-7.23c-.17-.21-.21-.46-.09-.55Z"/>
        <circle class="st12" cx="100.22" cy="88.49" r=".43"/>
      </g>
      <g id="_x3C_Radial_Repeat_x3E_35" data-name="_x3C_Radial_Repeat_x3E_">
        <path class="st12" d="M92.2,80.34c.14-.05.32.12.41.38l2.93,8.76c.09.25.04.5-.1.55s-.32-.12-.41-.38l-2.93-8.76c-.09-.25-.04-.5.1-.55Z"/>
        <circle class="st12" cx="95.93" cy="91" r=".43"/>
      </g>
    </g>
    <circle class="st21" cx="90.95" cy="77.56" r="4.76"/>
  </g>
  <path id="_น้ำ" data-name="น้ำ" class="st9" d="M136.6,171.18h-26.93c-29.99,0-56.34-19.89-64.56-48.74l-11.77-41.3h179.58l-11.77,41.3c-8.22,28.84-34.57,48.74-64.56,48.74Z"/>
  <g id="_ดอกใหญ่1" data-name="ดอกใหญ่">
    <path class="st18" d="M113.03,97.3l-1.2.03,1.18-.2c.85-.15,1.39-1,1.15-1.84s-1.15-1.27-1.95-.94l-1.11.46,1.03-.62c.74-.45.93-1.44.41-2.13-.52-.69-1.53-.77-2.16-.17l-.87.83.74-.95c.53-.68.35-1.68-.39-2.13-.74-.45-1.71-.16-2.07.62l-.51,1.09.35-1.15c.25-.83-.28-1.69-1.13-1.85-.85-.16-1.65.46-1.71,1.33l-.08,1.2-.09-1.2c-.07-.86-.87-1.48-1.72-1.31-.85.16-1.37,1.03-1.12,1.86l.35,1.15-.52-1.08c-.37-.78-1.35-1.06-2.08-.6h0c-.73.46-.91,1.45-.37,2.13l.74.94-.87-.82c-.63-.59-1.64-.5-2.16.19h0c-.52.69-.32,1.68.43,2.12l1.03.61-1.11-.45c-.8-.32-1.71.12-1.94.96h0c-.23.83.31,1.69,1.16,1.83l1.18.19-1.2-.02c-.87-.01-1.55.73-1.47,1.59.08.86.9,1.46,1.75,1.28l1.17-.25-1.13.42c-.81.3-1.18,1.24-.79,2.02h0c.39.77,1.36,1.04,2.09.56l1.01-.65-.9.79c-.65.57-.65,1.58-.01,2.17.64.58,1.65.47,2.15-.23l.7-.97-.55,1.07c-.4.77-.04,1.71.77,2.02s1.71-.15,1.93-.99l.3-1.16-.13,1.19c-.09.86.58,1.61,1.45,1.61.87,0,1.54-.76,1.44-1.62l-.14-1.19.31,1.16c.22.84,1.13,1.29,1.93.98.81-.32,1.16-1.26.75-2.03l-.56-1.06.71.97c.51.7,1.52.8,2.16.21h0c.64-.59.62-1.6-.03-2.17l-.9-.79,1.01.65c.73.47,1.7.2,2.09-.58.38-.78,0-1.71-.81-2.01l-1.13-.41,1.18.24c.85.17,1.66-.43,1.74-1.3.08-.86-.61-1.6-1.48-1.58Z"/>
    <g>
      <g id="_x3C_Radial_Repeat_x3E_36" data-name="_x3C_Radial_Repeat_x3E_">
        <path class="st12" d="M104.82,99.52c.07,0,.13.11.12.24l-.12,4.4c0,.13-.06.23-.13.23s-.13-.11-.12-.24l.12-4.4c0-.13.06-.23.13-.23Z"/>
        <circle class="st12" cx="104.76" cy="104.91" r=".21"/>
      </g>
      <g id="_x3C_Radial_Repeat_x3E_37" data-name="_x3C_Radial_Repeat_x3E_">
        <path class="st12" d="M104.32,99.47c.07.03.08.14.03.26l-1.62,4.1c-.05.12-.14.19-.2.17s-.08-.14-.03-.26l1.62-4.1c.05-.12.14-.19.2-.17Z"/>
        <circle class="st12" cx="102.41" cy="104.51" r=".21"/>
      </g>
      <g id="_x3C_Radial_Repeat_x3E_38" data-name="_x3C_Radial_Repeat_x3E_">
        <path class="st12" d="M103.87,99.25c.05.05.03.16-.06.26l-2.92,3.3c-.08.1-.2.14-.25.09s-.03-.16.06-.26l2.92-3.3c.08-.1.2-.14.25-.09Z"/>
        <circle class="st12" cx="100.35" cy="103.34" r=".21"/>
      </g>
      <g id="_x3C_Radial_Repeat_x3E_39" data-name="_x3C_Radial_Repeat_x3E_">
        <path class="st12" d="M103.52,98.89c.03.06-.03.16-.14.22l-3.87,2.1c-.11.06-.23.06-.27,0s.03-.16.14-.22l3.87-2.1c.11-.06.23-.06.27,0Z"/>
        <circle class="st12" cx="98.81" cy="101.53" r=".21"/>
      </g>
      <g id="_x3C_Radial_Repeat_x3E_40" data-name="_x3C_Radial_Repeat_x3E_">
        <path class="st12" d="M103.31,98.43c.01.07-.08.14-.21.16l-4.36.65c-.13.02-.24-.02-.25-.09s.08-.14.21-.16l4.36-.65c.13-.02.24.02.25.09Z"/>
        <circle class="st12" cx="97.99" cy="99.3" r=".21"/>
      </g>
      <g id="_x3C_Radial_Repeat_x3E_41" data-name="_x3C_Radial_Repeat_x3E_">
        <path class="st12" d="M103.27,97.93c-.01.07-.13.11-.25.08l-4.32-.88c-.13-.03-.22-.1-.2-.17s.13-.11.25-.08l4.32.88c.13.03.22.1.2.17Z"/>
        <circle class="st12" cx="97.98" cy="96.93" r=".21"/>
      </g>
      <g id="_x3C_Radial_Repeat_x3E_42" data-name="_x3C_Radial_Repeat_x3E_">
        <path class="st12" d="M103.41,97.44c-.04.06-.16.06-.26-.01l-3.76-2.3c-.11-.07-.17-.17-.13-.23s.16-.06.26.01l3.76,2.3c.11.07.17.17.13.23Z"/>
        <circle class="st12" cx="98.78" cy="94.69" r=".21"/>
      </g>
      <g id="_x3C_Radial_Repeat_x3E_43" data-name="_x3C_Radial_Repeat_x3E_">
        <path class="st12" d="M103.7,97.04c-.06.04-.17,0-.24-.1l-2.74-3.45c-.08-.1-.1-.22-.04-.26s.17,0,.24.1l2.74,3.45c.08.1.1.22.04.26Z"/>
        <circle class="st12" cx="100.29" cy="92.86" r=".21"/>
      </g>
      <g id="_x3C_Radial_Repeat_x3E_44" data-name="_x3C_Radial_Repeat_x3E_">
        <path class="st12" d="M104.12,96.75c-.07.02-.15-.06-.2-.18l-1.4-4.18c-.04-.12-.02-.24.05-.26s.15.06.2.18l1.4,4.18c.04.12.02.24-.05.26Z"/>
        <circle class="st12" cx="102.34" cy="91.66" r=".21"/>
      </g>
      <g id="_x3C_Radial_Repeat_x3E_45" data-name="_x3C_Radial_Repeat_x3E_">
        <path class="st12" d="M104.61,96.63c-.07,0-.13-.11-.12-.24l.12-4.4c0-.13.06-.23.13-.23s.13.11.12.24l-.12,4.4c0,.13-.06.23-.13.23Z"/>
        <circle class="st12" cx="104.68" cy="91.24" r=".21"/>
      </g>
      <g id="_x3C_Radial_Repeat_x3E_46" data-name="_x3C_Radial_Repeat_x3E_">
        <path class="st12" d="M105.11,96.68c-.07-.03-.08-.14-.03-.26l1.62-4.1c.05-.12.14-.19.2-.17s.08.14.03.26l-1.62,4.1c-.05.12-.14.19-.2.17Z"/>
        <circle class="st12" cx="107.02" cy="91.64" r=".21"/>
      </g>
      <g id="_x3C_Radial_Repeat_x3E_47" data-name="_x3C_Radial_Repeat_x3E_">
        <path class="st12" d="M105.56,96.9c-.05-.05-.03-.16.06-.26l2.92-3.3c.08-.1.2-.14.25-.09s.03.16-.06.26l-2.92,3.3c-.08.1-.2.14-.25.09Z"/>
        <circle class="st12" cx="109.08" cy="92.81" r=".21"/>
      </g>
      <g id="_x3C_Radial_Repeat_x3E_48" data-name="_x3C_Radial_Repeat_x3E_">
        <path class="st12" d="M105.92,97.26c-.03-.06.03-.16.14-.22l3.87-2.1c.11-.06.23-.06.27,0s-.03.16-.14.22l-3.87,2.1c-.11.06-.23.06-.27,0Z"/>
        <circle class="st12" cx="110.62" cy="94.62" r=".21"/>
      </g>
      <g id="_x3C_Radial_Repeat_x3E_49" data-name="_x3C_Radial_Repeat_x3E_">
        <path class="st12" d="M106.12,97.72c-.01-.07.08-.14.21-.16l4.36-.65c.13-.02.24.02.25.09s-.08.14-.21.16l-4.36.65c-.13.02-.24-.02-.25-.09Z"/>
        <circle class="st12" cx="111.44" cy="96.85" r=".21"/>
      </g>
      <g id="_x3C_Radial_Repeat_x3E_50" data-name="_x3C_Radial_Repeat_x3E_">
        <path class="st12" d="M106.16,98.22c.01-.07.13-.11.25-.08l4.32.88c.13.03.22.1.2.17s-.13.11-.25.08l-4.32-.88c-.13-.03-.22-.1-.2-.17Z"/>
        <circle class="st12" cx="111.46" cy="99.22" r=".21"/>
      </g>
      <g id="_x3C_Radial_Repeat_x3E_51" data-name="_x3C_Radial_Repeat_x3E_">
        <path class="st12" d="M106.02,98.71c.04-.06.16-.06.26.01l3.76,2.3c.11.07.17.17.13.23s-.16.06-.26-.01l-3.76-2.3c-.11-.07-.17-.17-.13-.23Z"/>
        <circle class="st12" cx="110.66" cy="101.46" r=".21"/>
      </g>
      <g id="_x3C_Radial_Repeat_x3E_52" data-name="_x3C_Radial_Repeat_x3E_">
        <path class="st12" d="M105.73,99.11c.06-.04.17,0,.24.1l2.74,3.45c.08.1.1.22.04.26s-.17,0-.24-.1l-2.74-3.45c-.08-.1-.1-.22-.04-.26Z"/>
        <circle class="st12" cx="109.14" cy="103.29" r=".21"/>
      </g>
      <g id="_x3C_Radial_Repeat_x3E_53" data-name="_x3C_Radial_Repeat_x3E_">
        <path class="st12" d="M105.31,99.4c.07-.02.15.06.2.18l1.4,4.18c.04.12.02.24-.05.26s-.15-.06-.2-.18l-1.4-4.18c-.04-.12-.02-.24.05-.26Z"/>
        <circle class="st12" cx="107.09" cy="104.49" r=".21"/>
      </g>
    </g>
    <circle class="st21" cx="104.72" cy="98.07" r="2.27"/>
  </g>
  <g id="_ดอกใหญ่2" data-name="ดอกใหญ่">
    <path class="st18" d="M83.76,131.28l-1.2.03,1.18-.2c.85-.15,1.39-1,1.15-1.84s-1.15-1.27-1.95-.94l-1.11.46,1.03-.62c.74-.45.93-1.44.41-2.13-.52-.69-1.53-.77-2.16-.17l-.87.83.74-.95c.53-.68.35-1.68-.39-2.13-.74-.45-1.71-.16-2.07.62l-.51,1.09.35-1.15c.25-.83-.28-1.69-1.13-1.85-.85-.16-1.65.46-1.71,1.33l-.08,1.2-.09-1.2c-.07-.86-.87-1.48-1.72-1.31-.85.16-1.37,1.03-1.12,1.86l.35,1.15-.52-1.08c-.37-.78-1.35-1.06-2.08-.6h0c-.73.46-.91,1.45-.37,2.13l.74.94-.87-.82c-.63-.59-1.64-.5-2.16.19h0c-.52.69-.32,1.68.43,2.12l1.03.61-1.11-.45c-.8-.32-1.71.12-1.94.96h0c-.23.83.31,1.69,1.16,1.83l1.18.19-1.2-.02c-.87-.01-1.55.73-1.47,1.59.08.86.9,1.46,1.75,1.28l1.17-.25-1.13.42c-.81.3-1.18,1.24-.79,2.02h0c.39.77,1.36,1.04,2.09.56l1.01-.65-.9.79c-.65.57-.65,1.58-.01,2.17.64.58,1.65.47,2.15-.23l.7-.97-.55,1.07c-.4.77-.04,1.71.77,2.02s1.71-.15,1.93-.99l.3-1.16-.13,1.19c-.09.86.58,1.61,1.45,1.61.87,0,1.54-.76,1.44-1.62l-.14-1.19.31,1.16c.22.84,1.13,1.29,1.93.98.81-.32,1.16-1.26.75-2.03l-.56-1.06.71.97c.51.7,1.52.8,2.16.21h0c.64-.59.62-1.6-.03-2.17l-.9-.79,1.01.65c.73.47,1.7.2,2.09-.58.38-.78,0-1.71-.81-2.01l-1.13-.41,1.18.24c.85.17,1.66-.43,1.74-1.3.08-.86-.61-1.6-1.48-1.58Z"/>
    <g>
      <g id="_x3C_Radial_Repeat_x3E_54" data-name="_x3C_Radial_Repeat_x3E_">
        <path class="st12" d="M75.56,133.5c.07,0,.13.11.12.24l-.12,4.4c0,.13-.06.23-.13.23s-.13-.11-.12-.24l.12-4.4c0-.13.06-.23.13-.23Z"/>
        <circle class="st12" cx="75.49" cy="138.89" r=".21"/>
      </g>
      <g id="_x3C_Radial_Repeat_x3E_55" data-name="_x3C_Radial_Repeat_x3E_">
        <path class="st12" d="M75.05,133.45c.07.03.08.14.03.26l-1.62,4.1c-.05.12-.14.19-.2.17s-.08-.14-.03-.26l1.62-4.1c.05-.12.14-.19.2-.17Z"/>
        <circle class="st12" cx="73.15" cy="138.49" r=".21"/>
      </g>
      <g id="_x3C_Radial_Repeat_x3E_56" data-name="_x3C_Radial_Repeat_x3E_">
        <path class="st12" d="M74.6,133.23c.05.05.03.16-.06.26l-2.92,3.3c-.08.1-.2.14-.25.09s-.03-.16.06-.26l2.92-3.3c.08-.1.2-.14.25-.09Z"/>
        <circle class="st12" cx="71.08" cy="137.32" r=".21"/>
      </g>
      <g id="_x3C_Radial_Repeat_x3E_57" data-name="_x3C_Radial_Repeat_x3E_">
        <path class="st12" d="M74.25,132.87c.03.06-.03.16-.14.22l-3.87,2.1c-.11.06-.23.06-.27,0s.03-.16.14-.22l3.87-2.1c.11-.06.23-.06.27,0Z"/>
        <circle class="st12" cx="69.55" cy="135.51" r=".21"/>
      </g>
      <g id="_x3C_Radial_Repeat_x3E_58" data-name="_x3C_Radial_Repeat_x3E_">
        <path class="st12" d="M74.04,132.41c.01.07-.08.14-.21.16l-4.36.65c-.13.02-.24-.02-.25-.09s.08-.14.21-.16l4.36-.65c.13-.02.24.02.25.09Z"/>
        <circle class="st12" cx="68.72" cy="133.28" r=".21"/>
      </g>
      <g id="_x3C_Radial_Repeat_x3E_59" data-name="_x3C_Radial_Repeat_x3E_">
        <path class="st12" d="M74,131.91c-.01.07-.13.11-.25.08l-4.32-.88c-.13-.03-.22-.1-.2-.17s.13-.11.25-.08l4.32.88c.13.03.22.1.2.17Z"/>
        <circle class="st12" cx="68.71" cy="130.91" r=".21"/>
      </g>
      <g id="_x3C_Radial_Repeat_x3E_60" data-name="_x3C_Radial_Repeat_x3E_">
        <path class="st12" d="M74.14,131.43c-.04.06-.16.06-.26-.01l-3.76-2.3c-.11-.07-.17-.17-.13-.23s.16-.06.26.01l3.76,2.3c.11.07.17.17.13.23Z"/>
        <circle class="st12" cx="69.51" cy="128.67" r=".21"/>
      </g>
      <g id="_x3C_Radial_Repeat_x3E_61" data-name="_x3C_Radial_Repeat_x3E_">
        <path class="st12" d="M74.43,131.02c-.06.04-.17,0-.24-.1l-2.74-3.45c-.08-.1-.1-.22-.04-.26s.17,0,.24.1l2.74,3.45c.08.1.1.22.04.26Z"/>
        <circle class="st12" cx="71.02" cy="126.84" r=".21"/>
      </g>
      <g id="_x3C_Radial_Repeat_x3E_62" data-name="_x3C_Radial_Repeat_x3E_">
        <path class="st12" d="M74.85,130.73c-.07.02-.15-.06-.2-.18l-1.4-4.18c-.04-.12-.02-.24.05-.26s.15.06.2.18l1.4,4.18c.04.12.02.24-.05.26Z"/>
        <circle class="st12" cx="73.07" cy="125.64" r=".21"/>
      </g>
      <g id="_x3C_Radial_Repeat_x3E_63" data-name="_x3C_Radial_Repeat_x3E_">
        <path class="st12" d="M75.34,130.61c-.07,0-.13-.11-.12-.24l.12-4.4c0-.13.06-.23.13-.23s.13.11.12.24l-.12,4.4c0,.13-.06.23-.13.23Z"/>
        <circle class="st12" cx="75.41" cy="125.22" r=".21"/>
      </g>
      <g id="_x3C_Radial_Repeat_x3E_64" data-name="_x3C_Radial_Repeat_x3E_">
        <path class="st12" d="M75.84,130.66c-.07-.03-.08-.14-.03-.26l1.62-4.1c.05-.12.14-.19.2-.17s.08.14.03.26l-1.62,4.1c-.05.12-.14.19-.2.17Z"/>
        <circle class="st12" cx="77.75" cy="125.62" r=".21"/>
      </g>
      <g id="_x3C_Radial_Repeat_x3E_65" data-name="_x3C_Radial_Repeat_x3E_">
        <path class="st12" d="M76.3,130.88c-.05-.05-.03-.16.06-.26l2.92-3.3c.08-.1.2-.14.25-.09s.03.16-.06.26l-2.92,3.3c-.08.1-.2.14-.25.09Z"/>
        <circle class="st12" cx="79.81" cy="126.79" r=".21"/>
      </g>
      <g id="_x3C_Radial_Repeat_x3E_66" data-name="_x3C_Radial_Repeat_x3E_">
        <path class="st12" d="M76.65,131.24c-.03-.06.03-.16.14-.22l3.87-2.1c.11-.06.23-.06.27,0s-.03.16-.14.22l-3.87,2.1c-.11.06-.23.06-.27,0Z"/>
        <circle class="st12" cx="81.35" cy="128.6" r=".21"/>
      </g>
      <g id="_x3C_Radial_Repeat_x3E_67" data-name="_x3C_Radial_Repeat_x3E_">
        <path class="st12" d="M76.85,131.7c-.01-.07.08-.14.21-.16l4.36-.65c.13-.02.24.02.25.09s-.08.14-.21.16l-4.36.65c-.13.02-.24-.02-.25-.09Z"/>
        <circle class="st12" cx="82.17" cy="130.83" r=".21"/>
      </g>
      <g id="_x3C_Radial_Repeat_x3E_68" data-name="_x3C_Radial_Repeat_x3E_">
        <path class="st12" d="M76.89,132.2c.01-.07.13-.11.25-.08l4.32.88c.13.03.22.1.2.17s-.13.11-.25.08l-4.32-.88c-.13-.03-.22-.1-.2-.17Z"/>
        <circle class="st12" cx="82.19" cy="133.2" r=".21"/>
      </g>
      <g id="_x3C_Radial_Repeat_x3E_69" data-name="_x3C_Radial_Repeat_x3E_">
        <path class="st12" d="M76.76,132.69c.04-.06.16-.06.26.01l3.76,2.3c.11.07.17.17.13.23s-.16.06-.26-.01l-3.76-2.3c-.11-.07-.17-.17-.13-.23Z"/>
        <circle class="st12" cx="81.39" cy="135.44" r=".21"/>
      </g>
      <g id="_x3C_Radial_Repeat_x3E_70" data-name="_x3C_Radial_Repeat_x3E_">
        <path class="st12" d="M76.46,133.1c.06-.04.17,0,.24.1l2.74,3.45c.08.1.1.22.04.26s-.17,0-.24-.1l-2.74-3.45c-.08-.1-.1-.22-.04-.26Z"/>
        <circle class="st12" cx="79.87" cy="137.27" r=".21"/>
      </g>
      <g id="_x3C_Radial_Repeat_x3E_71" data-name="_x3C_Radial_Repeat_x3E_">
        <path class="st12" d="M76.04,133.38c.07-.02.15.06.2.18l1.4,4.18c.04.12.02.24-.05.26s-.15-.06-.2-.18l-1.4-4.18c-.04-.12-.02-.24.05-.26Z"/>
        <circle class="st12" cx="77.82" cy="138.47" r=".21"/>
      </g>
    </g>
    <circle class="st21" cx="75.45" cy="132.06" r="2.27"/>
  </g>
  <g id="_ดอกใหญ่3" data-name="ดอกใหญ่">
    <path class="st18" d="M146.26,149.39l-1.2.03,1.18-.2c.85-.15,1.39-1,1.15-1.84s-1.15-1.27-1.95-.94l-1.11.46,1.03-.62c.74-.45.93-1.44.41-2.13-.52-.69-1.53-.77-2.16-.17l-.87.83.74-.95c.53-.68.35-1.68-.39-2.13-.74-.45-1.71-.16-2.07.62l-.51,1.09.35-1.15c.25-.83-.28-1.69-1.13-1.85-.85-.16-1.65.46-1.71,1.33l-.08,1.2-.09-1.2c-.07-.86-.87-1.48-1.72-1.31-.85.16-1.37,1.03-1.12,1.86l.35,1.15-.52-1.08c-.37-.78-1.35-1.06-2.08-.6h0c-.73.46-.91,1.45-.37,2.13l.74.94-.87-.82c-.63-.59-1.64-.5-2.16.19h0c-.52.69-.32,1.68.43,2.12l1.03.61-1.11-.45c-.8-.32-1.71.12-1.94.96h0c-.23.83.31,1.69,1.16,1.83l1.18.19-1.2-.02c-.87-.01-1.55.73-1.47,1.59.08.86.9,1.46,1.75,1.28l1.17-.25-1.13.42c-.81.3-1.18,1.24-.79,2.02h0c.39.77,1.36,1.04,2.09.56l1.01-.65-.9.79c-.65.57-.65,1.58-.01,2.17.64.58,1.65.47,2.15-.23l.7-.97-.55,1.07c-.4.77-.04,1.71.77,2.02s1.71-.15,1.93-.99l.3-1.16-.13,1.19c-.09.86.58,1.61,1.45,1.61.87,0,1.54-.76,1.44-1.62l-.14-1.19.31,1.16c.22.84,1.13,1.29,1.93.98.81-.32,1.16-1.26.75-2.03l-.56-1.06.71.97c.51.7,1.52.8,2.16.21h0c.64-.59.62-1.6-.03-2.17l-.9-.79,1.01.65c.73.47,1.7.2,2.09-.58.38-.78,0-1.71-.81-2.01l-1.13-.41,1.18.24c.85.17,1.66-.43,1.74-1.3.08-.86-.61-1.6-1.48-1.58Z"/>
    <g>
      <g id="_x3C_Radial_Repeat_x3E_72" data-name="_x3C_Radial_Repeat_x3E_">
        <path class="st12" d="M138.06,151.61c.07,0,.13.11.12.24l-.12,4.4c0,.13-.06.23-.13.23s-.13-.11-.12-.24l.12-4.4c0-.13.06-.23.13-.23Z"/>
        <circle class="st12" cx="137.99" cy="157" r=".21"/>
      </g>
      <g id="_x3C_Radial_Repeat_x3E_73" data-name="_x3C_Radial_Repeat_x3E_">
        <path class="st12" d="M137.56,151.56c.07.03.08.14.03.26l-1.62,4.1c-.05.12-.14.19-.2.17s-.08-.14-.03-.26l1.62-4.1c.05-.12.14-.19.2-.17Z"/>
        <circle class="st12" cx="135.65" cy="156.6" r=".21"/>
      </g>
      <g id="_x3C_Radial_Repeat_x3E_74" data-name="_x3C_Radial_Repeat_x3E_">
        <path class="st12" d="M137.1,151.34c.05.05.03.16-.06.26l-2.92,3.3c-.08.1-.2.14-.25.09s-.03-.16.06-.26l2.92-3.3c.08-.1.2-.14.25-.09Z"/>
        <circle class="st12" cx="133.59" cy="155.43" r=".21"/>
      </g>
      <g id="_x3C_Radial_Repeat_x3E_75" data-name="_x3C_Radial_Repeat_x3E_">
        <path class="st12" d="M136.75,150.98c.03.06-.03.16-.14.22l-3.87,2.1c-.11.06-.23.06-.27,0s.03-.16.14-.22l3.87-2.1c.11-.06.23-.06.27,0Z"/>
        <circle class="st12" cx="132.05" cy="153.62" r=".21"/>
      </g>
      <g id="_x3C_Radial_Repeat_x3E_76" data-name="_x3C_Radial_Repeat_x3E_">
        <path class="st12" d="M136.55,150.52c.01.07-.08.14-.21.16l-4.36.65c-.13.02-.24-.02-.25-.09s.08-.14.21-.16l4.36-.65c.13-.02.24.02.25.09Z"/>
        <circle class="st12" cx="131.23" cy="151.39" r=".21"/>
      </g>
      <g id="_x3C_Radial_Repeat_x3E_77" data-name="_x3C_Radial_Repeat_x3E_">
        <path class="st12" d="M136.51,150.02c-.01.07-.13.11-.25.08l-4.32-.88c-.13-.03-.22-.1-.2-.17s.13-.11.25-.08l4.32.88c.13.03.22.1.2.17Z"/>
        <circle class="st12" cx="131.21" cy="149.01" r=".21"/>
      </g>
      <g id="_x3C_Radial_Repeat_x3E_78" data-name="_x3C_Radial_Repeat_x3E_">
        <path class="st12" d="M136.64,149.53c-.04.06-.16.06-.26-.01l-3.76-2.3c-.11-.07-.17-.17-.13-.23s.16-.06.26.01l3.76,2.3c.11.07.17.17.13.23Z"/>
        <circle class="st12" cx="132.01" cy="146.78" r=".21"/>
      </g>
      <g id="_x3C_Radial_Repeat_x3E_79" data-name="_x3C_Radial_Repeat_x3E_">
        <path class="st12" d="M136.94,149.12c-.06.04-.17,0-.24-.1l-2.74-3.45c-.08-.1-.1-.22-.04-.26s.17,0,.24.1l2.74,3.45c.08.1.1.22.04.26Z"/>
        <circle class="st12" cx="133.53" cy="144.95" r=".21"/>
      </g>
      <g id="_x3C_Radial_Repeat_x3E_80" data-name="_x3C_Radial_Repeat_x3E_">
        <path class="st12" d="M137.36,148.84c-.07.02-.15-.06-.2-.18l-1.4-4.18c-.04-.12-.02-.24.05-.26s.15.06.2.18l1.4,4.18c.04.12.02.24-.05.26Z"/>
        <circle class="st12" cx="135.58" cy="143.75" r=".21"/>
      </g>
      <g id="_x3C_Radial_Repeat_x3E_81" data-name="_x3C_Radial_Repeat_x3E_">
        <path class="st12" d="M137.84,148.71c-.07,0-.13-.11-.12-.24l.12-4.4c0-.13.06-.23.13-.23s.13.11.12.24l-.12,4.4c0,.13-.06.23-.13.23Z"/>
        <circle class="st12" cx="137.91" cy="143.33" r=".21"/>
      </g>
      <g id="_x3C_Radial_Repeat_x3E_82" data-name="_x3C_Radial_Repeat_x3E_">
        <path class="st12" d="M138.35,148.76c-.07-.03-.08-.14-.03-.26l1.62-4.1c.05-.12.14-.19.2-.17s.08.14.03.26l-1.62,4.1c-.05.12-.14.19-.2.17Z"/>
        <circle class="st12" cx="140.25" cy="143.72" r=".21"/>
      </g>
      <g id="_x3C_Radial_Repeat_x3E_83" data-name="_x3C_Radial_Repeat_x3E_">
        <path class="st12" d="M138.8,148.98c-.05-.05-.03-.16.06-.26l2.92-3.3c.08-.1.2-.14.25-.09s.03.16-.06.26l-2.92,3.3c-.08.1-.2.14-.25.09Z"/>
        <circle class="st12" cx="142.32" cy="144.9" r=".21"/>
      </g>
      <g id="_x3C_Radial_Repeat_x3E_84" data-name="_x3C_Radial_Repeat_x3E_">
        <path class="st12" d="M139.15,149.34c-.03-.06.03-.16.14-.22l3.87-2.1c.11-.06.23-.06.27,0s-.03.16-.14.22l-3.87,2.1c-.11.06-.23.06-.27,0Z"/>
        <circle class="st12" cx="143.85" cy="146.71" r=".21"/>
      </g>
      <g id="_x3C_Radial_Repeat_x3E_85" data-name="_x3C_Radial_Repeat_x3E_">
        <path class="st12" d="M139.36,149.8c-.01-.07.08-.14.21-.16l4.36-.65c.13-.02.24.02.25.09s-.08.14-.21.16l-4.36.65c-.13.02-.24-.02-.25-.09Z"/>
        <circle class="st12" cx="144.68" cy="148.94" r=".21"/>
      </g>
      <g id="_x3C_Radial_Repeat_x3E_86" data-name="_x3C_Radial_Repeat_x3E_">
        <path class="st12" d="M139.4,150.31c.01-.07.13-.11.25-.08l4.32.88c.13.03.22.1.2.17s-.13.11-.25.08l-4.32-.88c-.13-.03-.22-.1-.2-.17Z"/>
        <circle class="st12" cx="144.69" cy="151.31" r=".21"/>
      </g>
      <g id="_x3C_Radial_Repeat_x3E_87" data-name="_x3C_Radial_Repeat_x3E_">
        <path class="st12" d="M139.26,150.79c.04-.06.16-.06.26.01l3.76,2.3c.11.07.17.17.13.23s-.16.06-.26-.01l-3.76-2.3c-.11-.07-.17-.17-.13-.23Z"/>
        <path class="st12" d="M143.69,153.55c0-.11.09-.21.21-.21s.21.09.21.21-.09.21-.21.21-.21-.09-.21-.21Z"/>
      </g>
      <g id="_x3C_Radial_Repeat_x3E_88" data-name="_x3C_Radial_Repeat_x3E_">
        <path class="st12" d="M138.97,151.2c.06-.04.17,0,.24.1l2.74,3.45c.08.1.1.22.04.26s-.17,0-.24-.1l-2.74-3.45c-.08-.1-.1-.22-.04-.26Z"/>
        <circle class="st12" cx="142.38" cy="155.37" r=".21"/>
      </g>
      <g id="_x3C_Radial_Repeat_x3E_89" data-name="_x3C_Radial_Repeat_x3E_">
        <path class="st12" d="M138.55,151.49c.07-.02.15.06.2.18l1.4,4.18c.04.12.02.24-.05.26s-.15-.06-.2-.18l-1.4-4.18c-.04-.12-.02-.24.05-.26Z"/>
        <circle class="st12" cx="140.33" cy="156.57" r=".21"/>
      </g>
    </g>
    <circle class="st21" cx="137.95" cy="150.16" r="2.27"/>
  </g>
  <g id="_ดอกใหญ่4" data-name="ดอกใหญ่">
    <path class="st18" d="M194.38,104.25l-1.2.03,1.18-.2c.85-.15,1.39-1,1.15-1.84s-1.15-1.27-1.95-.94l-1.11.46,1.03-.62c.74-.45.93-1.44.41-2.13-.52-.69-1.53-.77-2.16-.17l-.87.83.74-.95c.53-.68.35-1.68-.39-2.13-.74-.45-1.71-.16-2.07.62l-.51,1.09.35-1.15c.25-.83-.28-1.69-1.13-1.85-.85-.16-1.65.46-1.71,1.33l-.08,1.2-.09-1.2c-.07-.86-.87-1.48-1.72-1.31-.85.16-1.37,1.03-1.12,1.86l.35,1.15-.52-1.08c-.37-.78-1.35-1.06-2.08-.6h0c-.73.46-.91,1.45-.37,2.13l.74.94-.87-.82c-.63-.59-1.64-.5-2.16.19h0c-.52.69-.32,1.68.43,2.12l1.03.61-1.11-.45c-.8-.32-1.71.12-1.94.96h0c-.23.83.31,1.69,1.16,1.83l1.18.19-1.2-.02c-.87-.01-1.55.73-1.47,1.59.08.86.9,1.46,1.75,1.28l1.17-.25-1.13.42c-.81.3-1.18,1.24-.79,2.02h0c.39.77,1.36,1.04,2.09.56l1.01-.65-.9.79c-.65.57-.65,1.58-.01,2.17.64.58,1.65.47,2.15-.23l.7-.97-.55,1.07c-.4.77-.04,1.71.77,2.02s1.71-.15,1.93-.99l.3-1.16-.13,1.19c-.09.86.58,1.61,1.45,1.61.87,0,1.54-.76,1.44-1.62l-.14-1.19.31,1.16c.22.84,1.13,1.29,1.93.98.81-.32,1.16-1.26.75-2.03l-.56-1.06.71.97c.51.7,1.52.8,2.16.21h0c.64-.59.62-1.6-.03-2.17l-.9-.79,1.01.65c.73.47,1.7.2,2.09-.58.38-.78,0-1.71-.81-2.01l-1.13-.41,1.18.24c.85.17,1.66-.43,1.74-1.3.08-.86-.61-1.6-1.48-1.58Z"/>
    <g>
      <g id="_x3C_Radial_Repeat_x3E_90" data-name="_x3C_Radial_Repeat_x3E_">
        <path class="st12" d="M186.18,106.47c.07,0,.13.11.12.24l-.12,4.4c0,.13-.06.23-.13.23s-.13-.11-.12-.24l.12-4.4c0-.13.06-.23.13-.23Z"/>
        <circle class="st12" cx="186.11" cy="111.86" r=".21"/>
      </g>
      <g id="_x3C_Radial_Repeat_x3E_91" data-name="_x3C_Radial_Repeat_x3E_">
        <path class="st12" d="M185.68,106.42c.07.03.08.14.03.26l-1.62,4.1c-.05.12-.14.19-.2.17s-.08-.14-.03-.26l1.62-4.1c.05-.12.14-.19.2-.17Z"/>
        <circle class="st12" cx="183.77" cy="111.46" r=".21"/>
      </g>
      <g id="_x3C_Radial_Repeat_x3E_92" data-name="_x3C_Radial_Repeat_x3E_">
        <path class="st12" d="M185.22,106.2c.05.05.03.16-.06.26l-2.92,3.3c-.08.1-.2.14-.25.09s-.03-.16.06-.26l2.92-3.3c.08-.1.2-.14.25-.09Z"/>
        <circle class="st12" cx="181.71" cy="110.28" r=".21"/>
      </g>
      <g id="_x3C_Radial_Repeat_x3E_93" data-name="_x3C_Radial_Repeat_x3E_">
        <path class="st12" d="M184.87,105.84c.03.06-.03.16-.14.22l-3.87,2.1c-.11.06-.23.06-.27,0s.03-.16.14-.22l3.87-2.1c.11-.06.23-.06.27,0Z"/>
        <circle class="st12" cx="180.17" cy="108.47" r=".21"/>
      </g>
      <g id="_x3C_Radial_Repeat_x3E_94" data-name="_x3C_Radial_Repeat_x3E_">
        <path class="st12" d="M184.66,105.38c.01.07-.08.14-.21.16l-4.36.65c-.13.02-.24-.02-.25-.09s.08-.14.21-.16l4.36-.65c.13-.02.24.02.25.09Z"/>
        <circle class="st12" cx="179.35" cy="106.25" r=".21"/>
      </g>
      <g id="_x3C_Radial_Repeat_x3E_95" data-name="_x3C_Radial_Repeat_x3E_">
        <path class="st12" d="M184.63,104.88c-.01.07-.13.11-.25.08l-4.32-.88c-.13-.03-.22-.1-.2-.17s.13-.11.25-.08l4.32.88c.13.03.22.1.2.17Z"/>
        <circle class="st12" cx="179.33" cy="103.87" r=".21"/>
      </g>
      <g id="_x3C_Radial_Repeat_x3E_96" data-name="_x3C_Radial_Repeat_x3E_">
        <path class="st12" d="M184.76,104.39c-.04.06-.16.06-.26-.01l-3.76-2.3c-.11-.07-.17-.17-.13-.23s.16-.06.26.01l3.76,2.3c.11.07.17.17.13.23Z"/>
        <circle class="st12" cx="180.13" cy="101.64" r=".21"/>
      </g>
      <g id="_x3C_Radial_Repeat_x3E_97" data-name="_x3C_Radial_Repeat_x3E_">
        <path class="st12" d="M185.06,103.98c-.06.04-.17,0-.24-.1l-2.74-3.45c-.08-.1-.1-.22-.04-.26s.17,0,.24.1l2.74,3.45c.08.1.1.22.04.26Z"/>
        <circle class="st12" cx="181.65" cy="99.81" r=".21"/>
      </g>
      <g id="_x3C_Radial_Repeat_x3E_98" data-name="_x3C_Radial_Repeat_x3E_">
        <path class="st12" d="M185.47,103.7c-.07.02-.15-.06-.2-.18l-1.4-4.18c-.04-.12-.02-.24.05-.26s.15.06.2.18l1.4,4.18c.04.12.02.24-.05.26Z"/>
        <circle class="st12" cx="183.7" cy="98.61" r=".21"/>
      </g>
      <g id="_x3C_Radial_Repeat_x3E_99" data-name="_x3C_Radial_Repeat_x3E_">
        <path class="st12" d="M185.96,103.57c-.07,0-.13-.11-.12-.24l.12-4.4c0-.13.06-.23.13-.23s.13.11.12.24l-.12,4.4c0,.13-.06.23-.13.23Z"/>
        <circle class="st12" cx="186.03" cy="98.18" r=".21"/>
      </g>
      <g id="_x3C_Radial_Repeat_x3E_100" data-name="_x3C_Radial_Repeat_x3E_">
        <path class="st12" d="M186.47,103.62c-.07-.03-.08-.14-.03-.26l1.62-4.1c.05-.12.14-.19.2-.17s.08.14.03.26l-1.62,4.1c-.05.12-.14.19-.2.17Z"/>
        <circle class="st12" cx="188.37" cy="98.58" r=".21"/>
      </g>
      <g id="_x3C_Radial_Repeat_x3E_101" data-name="_x3C_Radial_Repeat_x3E_">
        <path class="st12" d="M186.92,103.84c-.05-.05-.03-.16.06-.26l2.92-3.3c.08-.1.2-.14.25-.09s.03.16-.06.26l-2.92,3.3c-.08.1-.2.14-.25.09Z"/>
        <circle class="st12" cx="190.44" cy="99.76" r=".21"/>
      </g>
      <g id="_x3C_Radial_Repeat_x3E_102" data-name="_x3C_Radial_Repeat_x3E_">
        <path class="st12" d="M187.27,104.2c-.03-.06.03-.16.14-.22l3.87-2.1c.11-.06.23-.06.27,0s-.03.16-.14.22l-3.87,2.1c-.11.06-.23.06-.27,0Z"/>
        <circle class="st12" cx="191.97" cy="101.57" r=".21"/>
      </g>
      <g id="_x3C_Radial_Repeat_x3E_103" data-name="_x3C_Radial_Repeat_x3E_">
        <path class="st12" d="M187.48,104.66c-.01-.07.08-.14.21-.16l4.36-.65c.13-.02.24.02.25.09s-.08.14-.21.16l-4.36.65c-.13.02-.24-.02-.25-.09Z"/>
        <circle class="st12" cx="192.8" cy="103.79" r=".21"/>
      </g>
      <g id="_x3C_Radial_Repeat_x3E_104" data-name="_x3C_Radial_Repeat_x3E_">
        <path class="st12" d="M187.52,105.16c.01-.07.13-.11.25-.08l4.32.88c.13.03.22.1.2.17s-.13.11-.25.08l-4.32-.88c-.13-.03-.22-.1-.2-.17Z"/>
        <circle class="st12" cx="192.81" cy="106.17" r=".21"/>
      </g>
      <g id="_x3C_Radial_Repeat_x3E_105" data-name="_x3C_Radial_Repeat_x3E_">
        <path class="st12" d="M187.38,105.65c.04-.06.16-.06.26.01l3.76,2.3c.11.07.17.17.13.23s-.16.06-.26-.01l-3.76-2.3c-.11-.07-.17-.17-.13-.23Z"/>
        <circle class="st12" cx="192.01" cy="108.4" r=".21"/>
      </g>
      <g id="_x3C_Radial_Repeat_x3E_106" data-name="_x3C_Radial_Repeat_x3E_">
        <path class="st12" d="M187.09,106.06c.06-.04.17,0,.24.1l2.74,3.45c.08.1.1.22.04.26s-.17,0-.24-.1l-2.74-3.45c-.08-.1-.1-.22-.04-.26Z"/>
        <circle class="st12" cx="190.5" cy="110.23" r=".21"/>
      </g>
      <g id="_x3C_Radial_Repeat_x3E_107" data-name="_x3C_Radial_Repeat_x3E_">
        <path class="st12" d="M186.67,106.34c.07-.02.15.06.2.18l1.4,4.18c.04.12.02.24-.05.26s-.15-.06-.2-.18l-1.4-4.18c-.04-.12-.02-.24.05-.26Z"/>
        <circle class="st12" cx="188.45" cy="111.43" r=".21"/>
      </g>
    </g>
    <circle class="st21" cx="186.07" cy="105.02" r="2.27"/>
  </g>
  <g>
    <g id="_ปาก" data-name="ปาก">
      <line class="st1" x1="116.69" y1="126.13" x2="122.28" y2="131.72"/>
      <line class="st1" x1="127.87" y1="126.13" x2="122.28" y2="131.72"/>
    </g>
    <g id="_แก้ม" data-name="แก้ม" class="st10">
      <circle id="_ซ้าย" data-name="ซ้าย" class="st20" cx="90.19" cy="123.41" r="10.14"/>
      <circle id="_ขวา" data-name="ขวา" class="st20" cx="156.09" cy="124.05" r="10.14"/>
    </g>
    <g id="_ตา" data-name="ตา">
      <circle id="_ซ้าย1" data-name="ซ้าย" cx="101.01" cy="115.39" r="4.08"/>
      <circle id="_ขวา1" data-name="ขวา" cx="145.06" cy="115.39" r="4.08"/>
      <circle class="st18" cx="101.12" cy="113.56" r="1.83"/>
      <circle class="st18" cx="145.17" cy="113.56" r="1.83"/>
    </g>
  </g>
  <g id="_ถุงชา" data-name="ถุงชา">
    <path class="st16" d="M70.47,106.41l-3.27-2.92c-.51-.46-1.18-.71-1.86-.71s-1.35.25-1.86.71l-3.27,2.92c-.6.53-.94,1.29-.94,2.09v13.55c0,1.55,1.25,2.8,2.8,2.8h6.55c1.55,0,2.8-1.25,2.8-2.8v-13.55c0-.8-.34-1.56-.94-2.09ZM65.33,108.67c-1.1,0-1.98-.89-1.98-1.98s.89-1.98,1.98-1.98,1.98.89,1.98,1.98-.89,1.98-1.98,1.98Z"/>
    <path d="M65.33,106.69c-.27,0-.5-.22-.5-.5v-24.56c0-.27.22-.5.5-.5s.5.22.5.5v24.56c0,.27-.22.5-.5.5Z"/>
  </g>
</svg>