<?xml version="1.0" encoding="UTF-8"?>
<svg id="Layer_41" xmlns="http://www.w3.org/2000/svg" xmlns:xlink="http://www.w3.org/1999/xlink" version="1.1" viewBox="0 0 267.9 284.53">
  <!-- Generator: Adobe Illustrator 30.0.0, SVG Export Plug-In . SVG Version: 2.1.1 Build 123)  -->
  <defs>
    <style>
      .st0 {
        fill: #b22828;
      }

      .st1 {
        fill: #ff6c6c;
      }

      .st2 {
        fill: #744740;
      }

      .st3 {
        opacity: .43;
      }

      .st3, .st4 {
        fill: #fff;
      }

      .st5 {
        fill: none;
        stroke: #000;
        stroke-linecap: round;
        stroke-linejoin: round;
        stroke-width: 1.89px;
      }

      .st6 {
        fill: url(#linear-gradient);
      }

      .st6, .st7 {
        opacity: .8;
      }

      .st8 {
        fill: #c0edff;
      }

      .st9 {
        fill: #c42a2a;
      }

      .st10 {
        fill: #7ce517;
      }

      .st11 {
        fill: #ffad01;
      }

      .st12 {
        fill: #9bff4d;
      }

      .st13 {
        fill: #ff4a4a;
      }
    </style>
    <linearGradient id="linear-gradient" x1="131.12" y1="67.37" x2="131.12" y2="227.29" gradientUnits="userSpaceOnUse">
      <stop offset=".12" stop-color="#ffeb88"/>
      <stop offset=".8" stop-color="#ff737a"/>
      <stop offset="1" stop-color="#ff4545"/>
    </linearGradient>
  </defs>
  <g id="_ฟองบน" data-name="ฟองบน">
    <circle class="st3" cx="124.44" cy="79.03" r="4.06"/>
    <path class="st3" d="M148.84,66.09c0,1.91-1.55,3.46-3.46,3.46s-3.46-1.55-3.46-3.46,1.55-3.46,3.46-3.46,3.46,1.55,3.46,3.46Z"/>
    <circle class="st3" cx="69.94" cy="69.55" r="3.46"/>
    <path class="st4" d="M160.47,78.74c0,.88-.71,1.59-1.59,1.59s-1.59-.71-1.59-1.59.71-1.59,1.59-1.59,1.59.71,1.59,1.59Z"/>
    <circle class="st4" cx="94.46" cy="61.71" r="1.59"/>
    <path class="st3" d="M195.75,76.85c0,1.04-.84,1.89-1.89,1.89s-1.89-.84-1.89-1.89.84-1.89,1.89-1.89,1.89.84,1.89,1.89Z"/>
    <path class="st4" d="M111.66,69.55c0,.72-.58,1.3-1.3,1.3s-1.3-.58-1.3-1.3.58-1.3,1.3-1.3,1.3.58,1.3,1.3Z"/>
    <path class="st4" d="M83.18,83.09c0,.72-.58,1.3-1.3,1.3s-1.3-.58-1.3-1.3.58-1.3,1.3-1.3,1.3.58,1.3,1.3Z"/>
    <path class="st4" d="M176.18,68.25c0,.72-.58,1.3-1.3,1.3s-1.3-.58-1.3-1.3.58-1.3,1.3-1.3,1.3.58,1.3,1.3Z"/>
  </g>
  <path d="M88.47,239.61c-5.75,0-10.69-4.11-11.74-9.76l-26.65-143.82h46.01c.23-.05.46-.07.69-.07s.46.02.69.07h69.6c1.65-2.68,3.92-4.93,6.64-6.56,3.06-1.83,6.55-2.8,10.09-2.8,2.68,0,5.33.55,7.79,1.6l1.4-1.97c-4.09-2.7-6.53-3.85-6.56-3.87l-.44-.22-.3-.31c-4.78-5.08-13.92-11.01-14.01-11.07l-.27-.17-.21-.24c-2.96-3.26-6.41-6.25-9.19-8.65-.59-.51-1.15-1-1.68-1.46l-4.36-3.83,5.79-.42c.23-.02,5.81-.41,13.84-.41,10.42,0,25.06.68,36.82,3.85l3.08-3.6c.53-.62,1.32-.98,2.16-.98.64,0,1.28.21,1.82.59,1.29.92,1.69,2.59.93,3.88l-2.4,4.09c11.92,17.59,19.45,45.56,19.77,46.77l1.49,5.61-5.04-2.88c-.61-.35-1.25-.72-1.93-1.11-2.91-1.69-6.48-3.76-10.17-5.42l-.35.17-1.2-.93c-.06-.05-4.33-3.37-9.05-6.33l-26.04,140.49c-1.05,5.66-5.99,9.76-11.74,9.76h-85.31ZM197.73,82.41c.64.64,1.24,1.33,1.79,2.05.93-.23,1.87-.35,2.81-.35.34,0,.69.02,1.02.05-.96-.86-2.4-2.08-4.33-3.57l-1.29,1.82Z"/>
  <path class="st4" d="M235.45,100.88s-7.98-29.98-20.3-47.29l3.18-5.43c.12-.2.01-.5-.25-.68-.26-.18-.57-.19-.72,0l-4.09,4.78c-20.39-6-51.33-3.77-51.33-3.77,3.08,2.7,7.39,6.25,11.07,10.31,0,0,0,0,0,0,0,0,9.41,6.08,14.46,11.44h0s3.39,1.58,8.95,5.45l-4.04,5.67c-5.24-2.98-11.88-3.13-17.41.19-2.87,1.72-5.05,4.14-6.47,6.91h-71.34c-.12-.04-.24-.07-.37-.07s-.26.03-.37.07h-43.41l22.36,120.67h0l3.76,20.28c.84,4.51,4.77,7.78,9.35,7.78h85.31c4.58,0,8.52-3.27,9.35-7.78l26.12-140.95h-1.75c-1.96-1.83-5.35-2.64-8.94-1.12-1.1-1.8-2.49-3.33-4.06-4.56l4-5.61c5.47,4,8.07,6.68,8.07,6.68h0c6.71,3.02,15.53,9.93,15.53,9.93,0,0,0,0,0,0,0,0,0,0,0,0,5.04,2.15,9.8,5.07,13.36,7.1ZM204.49,88.46h-5.31s-.04-.09-.07-.13c.75-.26,1.65-.46,2.66-.48,1.05-.02,1.96.24,2.72.61Z"/>
  <path id="_ฐานแก้ว" data-name="ฐานแก้ว" class="st4" d="M173.77,237.18h-85.31c-4.58,0-8.52-3.27-9.35-7.78l-26.12-140.95h156.26l-26.12,140.95c-.84,4.51-4.77,7.78-9.35,7.78Z"/>
  <g id="_เงาฐานแก้ว" data-name="เงาฐานแก้ว">
    <path class="st8" d="M87.84,228.04l-1.24-11.66h-3.78l1.34,11.66c.21,1.82,1.11,3.14,2.13,3.14h3.52c-.95,0-1.78-1.32-1.97-3.14Z"/>
    <path class="st8" d="M101.08,228.04l-.88-11.66h-9.09l1.12,11.66c.18,1.82.93,3.14,1.79,3.14h8.48c-.68,0-1.27-1.32-1.41-3.14Z"/>
    <path class="st8" d="M175.61,228.04l1.12-11.66h-9.09l-.88,11.66c-.14,1.82-.73,3.14-1.41,3.14h8.48c.86,0,1.61-1.32,1.79-3.14Z"/>
    <path class="st8" d="M156.91,228.04l.62-11.66h-12.06l-.3,11.66c-.05,1.82-.25,3.14-.48,3.14h11.24c.47,0,.89-1.32.99-3.14Z"/>
    <path class="st8" d="M122.67,228.04l-.3-11.66h-12.06l.62,11.66c.1,1.82.51,3.14.99,3.14h11.24c-.23,0-.43-1.32-.48-3.14Z"/>
  </g>
  <polygon id="_พื้นหลังน้ำ" data-name="พื้นหลังน้ำ" class="st4" points="186.88 209.13 75.35 209.13 52.99 88.46 209.25 88.46 186.88 209.13"/>
  <g id="_ร่ม" data-name="ร่ม">
    <g>
      <path class="st11" d="M217.36,47.48l-7.94,9.28,2.73,1.94,6.19-10.54c.12-.2.01-.5-.25-.68h0c-.26-.18-.57-.19-.72,0Z"/>
      <rect class="st11" x="181.52" y="64" width="2.54" height="66.01" transform="translate(90.26 -88.09) rotate(35.48)"/>
      <g>
        <g>
          <path class="st12" d="M214.44,52.61l-26.96,17.63c-5.05-5.36-14.46-11.44-14.46-11.44,16.84-5,41.42-6.19,41.42-6.19Z"/>
          <path class="st12" d="M214.44,52.61l-7.87,31.24c6.71,3.02,15.53,9.93,15.53,9.93-.77-17.55-7.66-41.17-7.66-41.17Z"/>
        </g>
        <g>
          <path class="st10" d="M214.44,52.61c-20.35-6.44-52.49-4.12-52.49-4.12,3.08,2.7,7.39,6.25,11.07,10.31,16.41-4.04,41.42-6.19,41.42-6.19Z"/>
          <path class="st10" d="M214.44,52.61s-16.81,9.75-26.96,17.63c0,0,3.81,1.77,9.99,6.18,6.18,4.41,9.1,7.43,9.1,7.43,4.14-12.17,7.87-31.24,7.87-31.24Z"/>
          <path class="st10" d="M214.44,52.61c12.73,17.13,21.02,48.27,21.02,48.27-3.56-2.03-8.31-4.95-13.36-7.1-1.53-16.83-7.66-41.17-7.66-41.17Z"/>
        </g>
      </g>
    </g>
    <g>
      <path class="st13" d="M192.71,111.17c-8.18,4.9-18.78,2.24-23.68-5.94-4.9-8.18-2.24-18.78,5.94-23.68,8.18-4.9,18.78-2.24,23.68,5.94,4.9,8.18,2.24,18.78-5.94,23.68Z"/>
      <path class="st1" d="M188.6,94.38c-3.14,1.88-7.21.86-9.09-2.28-1.88-3.14-.86-7.21,2.28-9.09,3.14-1.88,7.21-.86,9.09,2.28,1.88,3.14.86,7.21-2.28,9.09Z"/>
      <path class="st0" d="M197.76,91.83c-.69.41-1.96-.44-2.84-1.91-.88-1.47-1.03-2.99-.34-3.4.69-.41,1.96.44,2.84,1.91.88,1.47,1.03,2.99.34,3.4Z"/>
      <path class="st2" d="M208.31,89.39c-2.09-2.97-7.34-4.34-12.43-.5,0,.19.02.38.1.52h0c.13.22.36.28.58.3.52-.42,2.41-1.8,5.19-1.86,3.17-.07,5.14,2.51,5.14,2.51.66.38,1.75-.45,1.4-.96Z"/>
    </g>
  </g>
  <polygon id="_น้ำ" data-name="น้ำ" class="st6" points="186.88 209.13 75.35 209.13 52.99 88.46 209.25 88.46 186.88 209.13"/>
  <g id="_พริกเกลือ" data-name="พริกเกลือ">
    <g>
      <g>
        <path class="st9" d="M103.82,94.83c0,1.19-.96,2.15-2.15,2.15s-2.15-.96-2.15-2.15.96-2.15,2.15-2.15,2.15.96,2.15,2.15Z"/>
        <path class="st9" d="M109.79,92.68c0,1.19-.96,2.15-2.15,2.15s-2.15-.96-2.15-2.15.96-2.15,2.15-2.15,2.15.96,2.15,2.15Z"/>
        <path class="st9" d="M114.08,94.83c0,1.19-.96,2.15-2.15,2.15s-2.15-.96-2.15-2.15.96-2.15,2.15-2.15,2.15.96,2.15,2.15Z"/>
        <path class="st9" d="M107.64,98.05c0,.59-.48,1.07-1.07,1.07s-1.07-.48-1.07-1.07.48-1.07,1.07-1.07,1.07.48,1.07,1.07Z"/>
        <path class="st9" d="M113.01,90.53c0,.59-.48,1.07-1.07,1.07s-1.07-.48-1.07-1.07.48-1.07,1.07-1.07,1.07.48,1.07,1.07Z"/>
      </g>
      <g>
        <path class="st13" d="M155.3,94.39c0,1.19-.96,2.15-2.15,2.15s-2.15-.96-2.15-2.15.96-2.15,2.15-2.15,2.15.96,2.15,2.15Z"/>
        <path class="st13" d="M161.27,92.25c0,1.19-.96,2.15-2.15,2.15s-2.15-.96-2.15-2.15.96-2.15,2.15-2.15,2.15.96,2.15,2.15Z"/>
        <path class="st13" d="M165.56,94.39c0,1.19-.96,2.15-2.15,2.15s-2.15-.96-2.15-2.15.96-2.15,2.15-2.15,2.15.96,2.15,2.15Z"/>
        <path class="st13" d="M159.12,97.61c0,.59-.48,1.07-1.07,1.07s-1.07-.48-1.07-1.07.48-1.07,1.07-1.07,1.07.48,1.07,1.07Z"/>
        <path class="st13" d="M164.49,90.1c0,.59-.48,1.07-1.07,1.07s-1.07-.48-1.07-1.07.48-1.07,1.07-1.07,1.07.48,1.07,1.07Z"/>
      </g>
      <g>
        <path class="st13" d="M120.69,94.29c0-1.19-.96-2.15-2.15-2.15s-2.15.96-2.15,2.15.96,2.15,2.15,2.15,2.15-.96,2.15-2.15Z"/>
        <path class="st13" d="M126.66,96.44c0-1.19-.96-2.15-2.15-2.15s-2.15.96-2.15,2.15.96,2.15,2.15,2.15,2.15-.96,2.15-2.15Z"/>
        <path class="st13" d="M130.95,94.29c0-1.19-.96-2.15-2.15-2.15s-2.15.96-2.15,2.15.96,2.15,2.15,2.15,2.15-.96,2.15-2.15Z"/>
        <path class="st13" d="M124.51,91.07c0-.59-.48-1.07-1.07-1.07s-1.07.48-1.07,1.07.48,1.07,1.07,1.07,1.07-.48,1.07-1.07Z"/>
        <path class="st13" d="M129.88,98.58c0-.59-.48-1.07-1.07-1.07s-1.07.48-1.07,1.07.48,1.07,1.07,1.07,1.07-.48,1.07-1.07Z"/>
      </g>
      <g>
        <path class="st9" d="M143.98,93.32c0-1.19.96-2.15,2.15-2.15s2.15.96,2.15,2.15-.96,2.15-2.15,2.15-2.15-.96-2.15-2.15Z"/>
        <path class="st9" d="M138.01,95.47c0-1.19.96-2.15,2.15-2.15s2.15.96,2.15,2.15-.96,2.15-2.15,2.15-2.15-.96-2.15-2.15Z"/>
        <path class="st9" d="M133.72,93.32c0-1.19.96-2.15,2.15-2.15s2.15.96,2.15,2.15-.96,2.15-2.15,2.15-2.15-.96-2.15-2.15Z"/>
        <path class="st9" d="M140.16,90.1c0-.59.48-1.07,1.07-1.07s1.07.48,1.07,1.07-.48,1.07-1.07,1.07-1.07-.48-1.07-1.07Z"/>
        <path class="st9" d="M134.79,97.61c0-.59.48-1.07,1.07-1.07s1.07.48,1.07,1.07-.48,1.07-1.07,1.07-1.07-.48-1.07-1.07Z"/>
      </g>
      <g>
        <path class="st13" d="M59.36,94.19c0,1.19-.96,2.15-2.15,2.15s-2.15-.96-2.15-2.15.96-2.15,2.15-2.15,2.15.96,2.15,2.15Z"/>
        <path class="st13" d="M65.33,92.04c0,1.19-.96,2.15-2.15,2.15s-2.15-.96-2.15-2.15.96-2.15,2.15-2.15,2.15.96,2.15,2.15Z"/>
        <path class="st13" d="M69.63,94.19c0,1.19-.96,2.15-2.15,2.15s-2.15-.96-2.15-2.15.96-2.15,2.15-2.15,2.15.96,2.15,2.15Z"/>
        <path class="st13" d="M63.19,97.41c0,.59-.48,1.07-1.07,1.07s-1.07-.48-1.07-1.07.48-1.07,1.07-1.07,1.07.48,1.07,1.07Z"/>
        <path class="st13" d="M68.55,89.89c0,.59-.48,1.07-1.07,1.07s-1.07-.48-1.07-1.07.48-1.07,1.07-1.07,1.07.48,1.07,1.07Z"/>
      </g>
      <g>
        <circle class="st9" cx="74.09" cy="93.65" r="2.15"/>
        <path class="st9" d="M82.2,95.8c0-1.19-.96-2.15-2.15-2.15s-2.15.96-2.15,2.15.96,2.15,2.15,2.15,2.15-.96,2.15-2.15Z"/>
        <path class="st9" d="M86.5,93.65c0-1.19-.96-2.15-2.15-2.15s-2.15.96-2.15,2.15.96,2.15,2.15,2.15,2.15-.96,2.15-2.15Z"/>
        <circle class="st9" cx="78.98" cy="90.43" r="1.07"/>
        <path class="st9" d="M85.42,97.94c0-.59-.48-1.07-1.07-1.07s-1.07.48-1.07,1.07.48,1.07,1.07,1.07,1.07-.48,1.07-1.07Z"/>
      </g>
      <g>
        <path class="st13" d="M99.53,92.68c0-1.19.96-2.15,2.15-2.15s2.15.96,2.15,2.15-.96,2.15-2.15,2.15-2.15-.96-2.15-2.15Z"/>
        <path class="st13" d="M93.56,94.83c0-1.19.96-2.15,2.15-2.15s2.15.96,2.15,2.15-.96,2.15-2.15,2.15-2.15-.96-2.15-2.15Z"/>
        <path class="st13" d="M89.26,92.68c0-1.19.96-2.15,2.15-2.15s2.15.96,2.15,2.15-.96,2.15-2.15,2.15-2.15-.96-2.15-2.15Z"/>
        <path class="st13" d="M95.7,89.46c0-.59.48-1.07,1.07-1.07s1.07.48,1.07,1.07-.48,1.07-1.07,1.07-1.07-.48-1.07-1.07Z"/>
        <path class="st13" d="M90.34,96.97c0-.59.48-1.07,1.07-1.07s1.07.48,1.07,1.07-.48,1.07-1.07,1.07-1.07-.48-1.07-1.07Z"/>
      </g>
      <g>
        <path class="st13" d="M190.47,94.39c0,1.19-.96,2.15-2.15,2.15s-2.15-.96-2.15-2.15.96-2.15,2.15-2.15,2.15.96,2.15,2.15Z"/>
        <path class="st13" d="M196.44,92.25c0,1.19-.96,2.15-2.15,2.15s-2.15-.96-2.15-2.15.96-2.15,2.15-2.15,2.15.96,2.15,2.15Z"/>
        <path class="st13" d="M207.17,93.86c0,1.19-.96,2.15-2.15,2.15s-2.15-.96-2.15-2.15.96-2.15,2.15-2.15,2.15.96,2.15,2.15Z"/>
        <path class="st13" d="M200.73,94.39c0,1.19-.96,2.15-2.15,2.15s-2.15-.96-2.15-2.15.96-2.15,2.15-2.15,2.15.96,2.15,2.15Z"/>
        <path class="st13" d="M194.29,97.61c0,.59-.48,1.07-1.07,1.07s-1.07-.48-1.07-1.07.48-1.07,1.07-1.07,1.07.48,1.07,1.07Z"/>
        <path class="st13" d="M199.66,90.1c0,.59-.48,1.07-1.07,1.07s-1.07-.48-1.07-1.07.48-1.07,1.07-1.07,1.07.48,1.07,1.07Z"/>
      </g>
      <g>
        <path class="st9" d="M179.15,93.32c0-1.19.96-2.15,2.15-2.15s2.15.96,2.15,2.15-.96,2.15-2.15,2.15-2.15-.96-2.15-2.15Z"/>
        <path class="st9" d="M173.18,95.47c0-1.19.96-2.15,2.15-2.15s2.15.96,2.15,2.15-.96,2.15-2.15,2.15-2.15-.96-2.15-2.15Z"/>
        <path class="st9" d="M168.89,93.32c0-1.19.96-2.15,2.15-2.15s2.15.96,2.15,2.15-.96,2.15-2.15,2.15-2.15-.96-2.15-2.15Z"/>
        <path class="st9" d="M175.33,90.1c0-.59.48-1.07,1.07-1.07s1.07.48,1.07,1.07-.48,1.07-1.07,1.07-1.07-.48-1.07-1.07Z"/>
        <path class="st9" d="M169.96,97.61c0-.59.48-1.07,1.07-1.07s1.07.48,1.07,1.07-.48,1.07-1.07,1.07-1.07-.48-1.07-1.07Z"/>
      </g>
    </g>
  </g>
  <g id="_ฟองล่าง" data-name="ฟองล่าง" class="st7">
    <path class="st4" d="M179.99,131.93c0,1.34-1.08,2.42-2.42,2.42s-2.42-1.08-2.42-2.42,1.08-2.42,2.42-2.42,2.42,1.08,2.42,2.42Z"/>
    <path class="st4" d="M186.65,120.75c0,1.82-1.48,3.3-3.3,3.3s-3.3-1.48-3.3-3.3c0-1.82,1.48-3.3,3.3-3.3s3.3,1.48,3.3,3.3Z"/>
    <circle class="st4" cx="141.93" cy="127.29" r="2.77"/>
    <circle class="st4" cx="128.74" cy="115.5" r="2.03"/>
    <path class="st4" d="M193.19,137.01c0,1.53-1.24,2.77-2.77,2.77s-2.77-1.24-2.77-2.77,1.24-2.77,2.77-2.77,2.77,1.24,2.77,2.77Z"/>
    <path class="st4" d="M113,180.91c0,.9-.73,1.63-1.63,1.63s-1.63-.73-1.63-1.63c0-.9.73-1.63,1.63-1.63s1.63.73,1.63,1.63Z"/>
    <circle class="st4" cx="165.4" cy="194.57" r="3.17"/>
    <path class="st4" d="M157.1,180.84c0,1.43-1.16,2.59-2.59,2.59s-2.59-1.16-2.59-2.59,1.16-2.59,2.59-2.59,2.59,1.16,2.59,2.59Z"/>
    <path class="st4" d="M175.76,173.94c0,.95-.77,1.73-1.73,1.73s-1.73-.77-1.73-1.73.77-1.73,1.73-1.73,1.73.77,1.73,1.73Z"/>
    <path class="st4" d="M77.27,144.05c0,1.53-1.24,2.78-2.78,2.78s-2.78-1.24-2.78-2.78c0-1.53,1.24-2.78,2.78-2.78s2.78,1.24,2.78,2.78Z"/>
    <path class="st4" d="M94.98,191.31c0,2.1-1.7,3.8-3.8,3.8s-3.8-1.7-3.8-3.8c0-2.1,1.7-3.8,3.8-3.8s3.8,1.7,3.8,3.8Z"/>
    <circle class="st4" cx="99.41" cy="175.74" r="1.75"/>
    <path class="st4" d="M89.9,121.23c0,1.82-1.48,3.3-3.3,3.3s-3.3-1.48-3.3-3.3c0-1.82,1.48-3.3,3.3-3.3s3.3,1.48,3.3,3.3Z"/>
    <path class="st4" d="M73.47,109.43c0,.97-.78,1.75-1.75,1.75s-1.75-.78-1.75-1.75.78-1.75,1.75-1.75,1.75.78,1.75,1.75Z"/>
  </g>
  <g id="_หน้า" data-name="หน้า">
    <g id="_ปาก" data-name="ปาก">
      <line class="st5" x1="124.81" y1="155.39" x2="130.28" y2="160.86"/>
      <line class="st5" x1="135.74" y1="155.39" x2="130.28" y2="160.86"/>
    </g>
    <g id="_แก้ม" data-name="แก้ม">
      <circle id="_ซ้าย" data-name="ซ้าย" class="st13" cx="98.89" cy="152.73" r="9.92"/>
      <circle id="_ขวา" data-name="ขวา" class="st13" cx="163.35" cy="153.36" r="9.92"/>
    </g>
    <g id="_ตา" data-name="ตา">
      <circle id="_ซ้าย1" data-name="ซ้าย" cx="109.47" cy="144.88" r="3.99"/>
      <circle id="_ขวา1" data-name="ขวา" cx="152.56" cy="144.88" r="3.99"/>
      <circle class="st4" cx="109.57" cy="143.09" r="1.79"/>
      <circle class="st4" cx="152.66" cy="143.09" r="1.79"/>
    </g>
  </g>
</svg>