<?xml version="1.0" encoding="UTF-8"?>
<svg id="Layer_41" xmlns="http://www.w3.org/2000/svg" xmlns:xlink="http://www.w3.org/1999/xlink" version="1.1" viewBox="0 0 242.86 266.42">
  <!-- Generator: Adobe Illustrator 30.0.0, SVG Export Plug-In . SVG Version: 2.1.1 Build 123)  -->
  <defs>
    <style>
      .st0, .st1, .st2 {
        fill: none;
      }

      .st3 {
        fill: #67d300;
      }

      .st4 {
        fill: #fff7c0;
      }

      .st5 {
        stroke-width: 2.65px;
      }

      .st5, .st6 {
        fill: #fff4b3;
        stroke: #ffd385;
        stroke-miterlimit: 10;
      }

      .st6 {
        stroke-width: 3px;
      }

      .st7 {
        fill: url(#linear-gradient);
      }

      .st8, .st9, .st10, .st11, .st12, .st13 {
        fill: #fff;
      }

      .st8, .st14 {
        opacity: .8;
      }

      .st15 {
        fill: #f7bd03;
      }

      .st1 {
        stroke: #000;
        stroke-width: 1.9px;
      }

      .st1, .st2 {
        stroke-linecap: round;
        stroke-linejoin: round;
      }

      .st16 {
        fill: #e9f9d7;
      }

      .st17 {
        fill: #ffe45c;
      }

      .st18 {
        opacity: .7;
      }

      .st19 {
        fill: #b9f91c;
      }

      .st20 {
        fill: #d5ff92;
      }

      .st10 {
        filter: url(#outer-glow-1);
      }

      .st11 {
        filter: url(#outer-glow-4);
      }

      .st12 {
        filter: url(#outer-glow-2);
      }

      .st13 {
        filter: url(#outer-glow-3);
      }

      .st2 {
        stroke: #d5ff92;
        stroke-width: 17.1px;
      }

      .st21 {
        clip-path: url(#clippath);
      }
    </style>
    <linearGradient id="linear-gradient" x1="118.87" y1="128.98" x2="118.87" y2="248.7" gradientUnits="userSpaceOnUse">
      <stop offset=".15" stop-color="#fffdae"/>
      <stop offset=".46" stop-color="#f8fa1a"/>
      <stop offset=".92" stop-color="#ffd204"/>
    </linearGradient>
    <clipPath id="clippath">
      <path id="_แก้ว2" data-name="แก้ว" class="st0" d="M161.97,67.19h-86.21c-8.08,8.08-12.62,12.62-20.7,20.7h0v123.93h0c8.08,8.08,12.62,12.62,20.7,20.7h86.21c8.08-8.08,12.62-12.62,20.7-20.7h0v-123.93h0c-8.08-8.08-12.62-12.62-20.7-20.7Z"/>
    </clipPath>
    <filter id="outer-glow-1" x="83.95" y="157.79" width="109.92" height="90.96" filterUnits="userSpaceOnUse">
      <feOffset dx="0" dy="0"/>
      <feGaussianBlur result="blur" stdDeviation="7.33"/>
      <feFlood flood-color="#fff" flood-opacity="1"/>
      <feComposite in2="blur" operator="in"/>
      <feComposite in="SourceGraphic"/>
    </filter>
    <filter id="outer-glow-2" x="83.95" y="157.79" width="109.92" height="90.96" filterUnits="userSpaceOnUse">
      <feOffset dx="0" dy="0"/>
      <feGaussianBlur result="blur1" stdDeviation="7.33"/>
      <feFlood flood-color="#fff" flood-opacity="1"/>
      <feComposite in2="blur1" operator="in"/>
      <feComposite in="SourceGraphic"/>
    </filter>
    <filter id="outer-glow-3" x="51.99" y="136.64" width="94.32" height="76.32" filterUnits="userSpaceOnUse">
      <feOffset dx="0" dy="0"/>
      <feGaussianBlur result="blur2" stdDeviation="6.86"/>
      <feFlood flood-color="#fff" flood-opacity="1"/>
      <feComposite in2="blur2" operator="in"/>
      <feComposite in="SourceGraphic"/>
    </filter>
    <filter id="outer-glow-4" x="51.99" y="136.64" width="94.32" height="76.32" filterUnits="userSpaceOnUse">
      <feOffset dx="0" dy="0"/>
      <feGaussianBlur result="blur3" stdDeviation="6.86"/>
      <feFlood flood-color="#fff" flood-opacity="1"/>
      <feComposite in2="blur3" operator="in"/>
      <feComposite in="SourceGraphic"/>
    </filter>
  </defs>
  <g id="_เส้นมะนาว" data-name="เส้นมะนาว">
    <path d="M74.66,95.77c-22.66,0-41.09-18.43-41.09-41.09S52,13.58,74.66,13.58s41.09,18.43,41.09,41.09-18.43,41.09-41.09,41.09Z"/>
    <circle class="st9" cx="74.66" cy="54.68" r="38.65"/>
  </g>
  <g id="_มะนาวเต็ม" data-name="มะนาวเต็ม">
    <circle class="st3" cx="74.66" cy="54.68" r="38.65"/>
    <circle class="st16" cx="74.66" cy="54.68" r="35.16"/>
    <g>
      <g id="_x3C_Radial_Repeat_x3E_">
        <path class="st19" d="M72.96,57.32l-17.39,22.23c-.66.85-.57,1.97.21,2.24l16.76,5.86c.78.27,1.55-.54,1.56-1.62l.25-28.22c0-.64-1-.99-1.39-.49Z"/>
      </g>
      <g id="_x3C_Radial_Repeat_x3E_1" data-name="_x3C_Radial_Repeat_x3E_">
        <path class="st19" d="M71.66,55.61l-27.61,5.85c-1.05.22-1.7,1.14-1.28,1.85l9.08,15.26c.42.71,1.54.58,2.24-.24l18.33-21.46c.41-.48-.13-1.4-.75-1.27Z"/>
      </g>
      <g id="_x3C_Radial_Repeat_x3E_2" data-name="_x3C_Radial_Repeat_x3E_">
        <path class="st19" d="M71.76,53.46l-24.91-13.26c-.95-.51-2.03-.22-2.17.6l-2.86,17.53c-.13.82.8,1.43,1.87,1.26l27.84-4.66c.63-.11.8-1.16.24-1.46Z"/>
      </g>
      <g id="_x3C_Radial_Repeat_x3E_3" data-name="_x3C_Radial_Repeat_x3E_">
        <path class="st19" d="M73.23,51.88l-10.56-26.18c-.4-1-1.42-1.47-2.04-.94l-13.46,11.59c-.63.54-.31,1.61.62,2.16l24.32,14.33c.55.32,1.36-.37,1.12-.96Z"/>
      </g>
      <g id="_x3C_Radial_Repeat_x3E_4" data-name="_x3C_Radial_Repeat_x3E_">
        <path class="st19" d="M75.36,51.61l8.74-26.84c.33-1.02-.14-2.04-.96-2.03l-17.76.23c-.83.01-1.27,1.04-.91,2.05l9.42,26.61c.21.6,1.28.59,1.48-.02Z"/>
      </g>
      <g id="_x3C_Radial_Repeat_x3E_5" data-name="_x3C_Radial_Repeat_x3E_">
        <path class="st19" d="M77.17,52.78l23.94-14.94c.91-.57,1.21-1.65.57-2.18l-13.75-11.24c-.64-.52-1.64-.02-2.02.99l-9.89,26.44c-.22.6.6,1.27,1.14.93Z"/>
      </g>
      <g id="_x3C_Radial_Repeat_x3E_6" data-name="_x3C_Radial_Repeat_x3E_">
        <path class="st19" d="M77.8,54.83l27.95,3.94c1.07.15,1.99-.49,1.83-1.3l-3.31-17.45c-.15-.81-1.24-1.07-2.18-.54l-24.57,13.9c-.55.31-.36,1.36.27,1.45Z"/>
      </g>
      <g id="_x3C_Radial_Repeat_x3E_7" data-name="_x3C_Radial_Repeat_x3E_">
        <path class="st19" d="M76.97,56.82l18.87,20.99c.72.8,1.84.9,2.24.18l8.68-15.49c.4-.72-.26-1.62-1.32-1.82l-27.75-5.14c-.63-.12-1.15.81-.72,1.29Z"/>
      </g>
      <g id="_x3C_Radial_Repeat_x3E_8" data-name="_x3C_Radial_Repeat_x3E_">
        <path class="st19" d="M75.06,57.8l.97,28.21c.04,1.08.83,1.87,1.6,1.58l16.61-6.29c.77-.29.84-1.41.15-2.24l-17.95-21.78c-.4-.49-1.4-.11-1.38.52Z"/>
      </g>
    </g>
  </g>
  <path d="M72.62,252.84c-3.37,0-6.11-2.74-6.11-6.11v-11.1c0-2.4,1.39-4.48,3.41-5.48l-17.31-17.31v-125.95l17.31-17.31c-1.8-.89-3.1-2.64-3.36-4.72-1.12-.86-1.83-2.21-1.83-3.69,0-.99.32-1.93.86-2.69-.55-.77-.86-1.7-.86-2.69,0-1.5.72-2.85,1.85-3.71.45-2.93,2.99-5.19,6.04-5.19h71.99l6.94-23.19c.83-2.78,3.44-4.73,6.34-4.73.64,0,1.28.09,1.9.28l8.14,2.44c3.5,1.05,5.49,4.75,4.45,8.24l-5.19,17.33c2.06.75,3.61,2.59,3.95,4.82,1.13.86,1.85,2.21,1.85,3.71,0,.99-.32,1.93-.86,2.69.55.77.86,1.7.86,2.69,0,1.49-.71,2.83-1.83,3.69-.26,2.07-1.56,3.83-3.36,4.72l17.31,17.31v5.97h25.44c6.06,0,10.99,4.93,10.99,10.99v92.03c0,6.06-4.93,10.99-10.99,10.99h-25.44v5.98l-17.31,17.31c2.02,1,3.41,3.08,3.41,5.48v11.1c0,3.37-2.74,6.11-6.11,6.11h-92.49ZM199.56,184.87v-70.04h-14.45v70.04h14.45Z"/>
  <path class="st9" d="M210.56,95.29h-27.88v-7.4h0c-.51-.51-1-1-1.48-1.48-.48-.48-.95-.95-1.4-1.4-.46-.46-.9-.9-1.34-1.34-1.09-1.09-2.13-2.13-3.15-3.15-.2-.2-.4-.4-.6-.6-1.2-1.2-2.38-2.38-3.56-3.56l-.6-.6c-1-1-2.01-2.01-3.06-3.06h0c-1.53-1.53-3.15-3.15-4.94-4.94h2.57c2.03,0,3.67-1.64,3.67-3.67v-.77c1.01-.19,1.78-1.09,1.78-2.16s-.77-1.96-1.78-2.16v-1.07c1.01-.19,1.78-1.09,1.78-2.16s-.77-1.96-1.78-2.16v-.63c0-2.03-1.64-3.67-3.67-3.67h-1.08l3.21-10.74,2.8-9.36c.66-2.21-.59-4.54-2.81-5.2l-8.14-2.44c-2.21-.66-4.54.59-5.2,2.81l-5.08,16.98-2.38,7.96h-73.81c-2.03,0-3.67,1.64-3.67,3.67v.63c-1.01.19-1.78,1.09-1.78,2.16s.77,1.96,1.78,2.16v1.07c-1.01.19-1.78,1.09-1.78,2.16s.77,1.96,1.78,2.16v.77c0,2.03,1.64,3.67,3.67,3.67h2.57c-1.79,1.79-3.41,3.41-4.94,4.94h0c-1.06,1.06-2.07,2.07-3.06,3.06l-.6.6c-1.39,1.39-2.75,2.75-4.17,4.17h0c-1.01,1.01-2.05,2.05-3.15,3.15-.22.22-.44.44-.66.66-.67.67-1.36,1.36-2.08,2.08-.48.48-.97.97-1.48,1.48h0v123.93h0c.51.51,1,1,1.48,1.48.72.72,1.41,1.41,2.08,2.08.22.22.44.44.66.66,1.73,1.73,3.32,3.32,4.88,4.88,3.44,3.44,6.74,6.74,11.03,11.03h-2.57c-2.03,0-3.67,1.64-3.67,3.67v11.1c0,2.03,1.64,3.67,3.67,3.67h92.49c2.03,0,3.67-1.64,3.67-3.67v-11.1c0-2.03-1.64-3.67-3.67-3.67h-2.57c3.25-3.25,5.92-5.92,8.52-8.52.24-.24.49-.49.73-.73.47-.47.95-.95,1.42-1.42.49-.49.99-.99,1.49-1.49,1.2-1.2,2.44-2.44,3.75-3.75.44-.44.88-.88,1.34-1.34.46-.46.92-.92,1.4-1.4.48-.48.97-.97,1.48-1.48h0v-7.41h27.88c4.72,0,8.55-3.83,8.55-8.55v-92.03c0-4.72-3.83-8.55-8.55-8.55ZM202.01,187.32h-19.33v-74.92h19.33v74.92Z"/>
  <rect id="_หูแก้ว" data-name="หูแก้ว" class="st2" x="162.21" y="103.84" width="48.35" height="92.03"/>
  <rect id="_ฐาน" data-name="ฐาน" class="st20" x="68.96" y="231.96" width="99.82" height="18.43" rx="3.67" ry="3.67"/>
  <path id="_แก้ว" data-name="แก้ว" class="st20" d="M161.97,67.19h-86.21c-8.08,8.08-12.62,12.62-20.7,20.7h0v123.93h0c8.08,8.08,12.62,12.62,20.7,20.7h86.21c8.08-8.08,12.62-12.62,20.7-20.7h0v-123.93h0c-8.08-8.08-12.62-12.62-20.7-20.7Z"/>
  <g id="_หลอด" data-name="หลอด">
    <g>
      <path class="st4" d="M170.05,29.22l-2.8,9.36-18.43,2.78,5.08-16.98c.66-2.21,2.99-3.47,5.2-2.81l8.14,2.44c2.21.66,3.47,2.99,2.81,5.2Z"/>
      <polygon class="st4" points="162.67 53.86 157.88 69.89 139.45 72.67 144.25 56.64 162.67 53.86"/>
      <polygon class="st4" points="153.31 85.16 148.51 101.2 130.08 103.98 134.88 87.94 153.31 85.16"/>
      <polygon class="st4" points="143.94 116.46 139.14 132.5 120.71 135.28 125.51 119.24 143.94 116.46"/>
      <polygon class="st4" points="134.57 147.77 129.77 163.81 111.34 166.59 116.14 150.55 134.57 147.77"/>
      <path class="st4" d="M125.2,179.07l-5.08,16.98c-.66,2.21-2.99,3.47-5.2,2.81l-8.14-2.44c-2.21-.66-3.47-2.99-2.81-5.2l2.8-9.36,18.43-2.78Z"/>
    </g>
    <g>
      <polygon class="st15" points="167.24 38.59 162.67 53.86 144.25 56.64 148.81 41.37 167.24 38.59"/>
      <polygon class="st15" points="157.88 69.89 153.31 85.16 134.88 87.94 139.45 72.67 157.88 69.89"/>
      <polygon class="st15" points="148.51 101.2 143.94 116.46 125.51 119.24 130.08 103.98 148.51 101.2"/>
      <polygon class="st15" points="139.14 132.5 134.57 147.77 116.14 150.55 120.71 135.28 139.14 132.5"/>
      <polygon class="st15" points="129.77 163.81 125.2 179.07 106.77 181.85 111.34 166.59 129.77 163.81"/>
    </g>
  </g>
  <path id="_แก้ว1" data-name="แก้ว" class="st8" d="M161.97,67.19h-86.21c-8.08,8.08-12.62,12.62-20.7,20.7h0v123.93h0c8.08,8.08,12.62,12.62,20.7,20.7h86.21c8.08-8.08,12.62-12.62,20.7-20.7h0v-123.93h0c-8.08-8.08-12.62-12.62-20.7-20.7Z"/>
  <path id="_น้ำ" data-name="น้ำ" class="st7" d="M55.06,147.05v64.77h0c8.08,8.08,12.62,12.62,20.7,20.7h86.21c8.08-8.08,12.62-12.62,20.7-20.7h0v-64.77H55.06Z"/>
  <g id="_ข้างในแก้ว" data-name="ข้างในแก้ว">
    <g class="st21">
      <g id="_ขิง2" data-name="ขิง2" class="st14">
        <circle class="st6" cx="158.82" cy="176.64" r="20.88"/>
        <circle class="st17" cx="158.82" cy="176.64" r="11.21"/>
      </g>
      <g id="_มะนาว2" data-name="มะนาว2" class="st18">
        <g>
          <path class="st10" d="M169.22,179.8l-2.86,1.14-2.25.89-24.13,9.59-4.68,1.86-24.09,9.57-2.37.94-2.86,1.14c6.96,17.43,26.72,25.93,44.17,19,17.44-6.93,25.97-26.68,19.07-44.13Z"/>
          <path class="st12" d="M169.22,179.8l-2.86,1.14-2.25.89-24.13,9.59-4.68,1.86-24.09,9.57-2.37.94-2.86,1.14c6.96,17.43,26.72,25.93,44.17,19,17.44-6.93,25.97-26.68,19.07-44.13Z"/>
        </g>
        <g id="_ครึ่งมะนาว" data-name="ครึ่งมะนาว">
          <path class="st3" d="M169.22,179.8c6.9,17.45-1.63,37.2-19.07,44.13-17.44,6.93-37.2-1.57-44.17-19l2.86-1.14c6.33,15.85,24.31,23.58,40.17,17.27,15.86-6.31,23.62-24.27,17.35-40.14l2.86-1.14Z"/>
          <path class="st16" d="M164.11,181.83l1.31,2.06c.39.61-.15,1.44-1.08,1.66l-24.14,5.86c-.08.02-.15.02-.22,0l-4.68,1.86c-.04.1-.11.18-.21.24l-21.26,12.86c-.81.49-1.78.29-1.93-.42l-.68-3.11-2.37.94c6.33,15.85,24.31,23.58,40.17,17.27,15.86-6.31,23.62-24.27,17.35-40.14l-2.25.89ZM126.68,219.28l-12.39-9.54c-.58-.44-.35-1.4.44-1.93l20.68-13.77c.47-.31,1.21.26,1.03.79l-8.02,23.52c-.31.9-1.17,1.36-1.75.92ZM147.32,218.14c.34.88-.02,1.8-.75,1.83l-15.62.66c-.73.03-1.17-.85-.9-1.76l7-23.84c.16-.54,1.09-.58,1.3-.05l8.98,23.17ZM162.24,207.72l-11.54,10.54c-.54.49-1.44.1-1.82-.77l-9.97-22.76c-.23-.51.47-1.15.96-.88l21.77,11.98c.83.46,1.14,1.39.6,1.88ZM166.38,188.26l-2.06,15.5c-.1.72-1.04,1-1.89.58l-22.26-11.03c-.5-.25-.38-1.18.17-1.29l24.38-4.82c.93-.18,1.77.33,1.67,1.06Z"/>
          <g>
            <g id="_x3C_Radial_Repeat_x3E_9" data-name="_x3C_Radial_Repeat_x3E_">
              <path class="st19" d="M138.34,194.97l8.98,23.17c.34.88-.02,1.8-.75,1.83l-15.62.66c-.73.03-1.17-.85-.9-1.76l7-23.84c.16-.54,1.09-.58,1.3-.05Z"/>
            </g>
            <g id="_x3C_Radial_Repeat_x3E_10" data-name="_x3C_Radial_Repeat_x3E_">
              <path class="st19" d="M136.45,194.84l-8.02,23.52c-.31.9-1.17,1.36-1.75.92l-12.39-9.54c-.58-.44-.35-1.4.44-1.93l20.68-13.77c.47-.31,1.21.26,1.03.79Z"/>
            </g>
            <path class="st19" d="M135.3,193.28c-.04.1-.11.18-.21.24l-21.26,12.86c-.81.49-1.78.29-1.93-.42l-.68-3.11,24.09-9.57Z"/>
            <path class="st19" d="M164.34,185.55l-24.14,5.86c-.08.02-.15.02-.22,0l24.13-9.59,1.31,2.06c.39.61-.15,1.44-1.08,1.66Z"/>
            <g id="_x3C_Radial_Repeat_x3E_11" data-name="_x3C_Radial_Repeat_x3E_">
              <path class="st19" d="M166.38,188.26l-2.06,15.5c-.1.72-1.04,1-1.89.58l-22.26-11.03c-.5-.25-.38-1.18.17-1.29l24.38-4.82c.93-.18,1.77.33,1.67,1.06Z"/>
            </g>
            <g id="_x3C_Radial_Repeat_x3E_12" data-name="_x3C_Radial_Repeat_x3E_">
              <path class="st19" d="M162.24,207.72l-11.54,10.54c-.54.49-1.44.1-1.82-.77l-9.97-22.76c-.23-.51.47-1.15.96-.88l21.77,11.98c.83.46,1.14,1.39.6,1.88Z"/>
            </g>
          </g>
        </g>
      </g>
      <g id="_มะนาว1" data-name="มะนาว1" class="st18">
        <g>
          <path class="st13" d="M106.46,158.46c-14.21-4.43-29.32,3.49-33.77,17.69l2.33.73,1.83.57,19.66,6.12,3.81,1.19,19.62,6.11,1.93.6,2.33.73c4.4-14.21-3.54-29.31-17.75-33.74Z"/>
          <path class="st11" d="M106.46,158.46c-14.21-4.43-29.32,3.49-33.77,17.69l2.33.73,1.83.57,19.66,6.12,3.81,1.19,19.62,6.11,1.93.6,2.33.73c4.4-14.21-3.54-29.31-17.75-33.74Z"/>
        </g>
        <g id="_ครึ่งมะนาว1" data-name="ครึ่งมะนาว">
          <path class="st3" d="M72.69,176.15c4.45-14.2,19.56-22.12,33.77-17.69,14.21,4.43,22.15,19.52,17.75,33.74l-2.33-.73c4-12.93-3.22-26.66-16.15-30.68-12.92-4.03-26.66,3.18-30.71,16.09l-2.33-.73Z"/>
          <path class="st16" d="M76.86,177.45l.22-1.93c.07-.57.81-.81,1.49-.49l17.81,8.43c.06.03.1.06.14.11l3.81,1.19c.08-.04.16-.06.25-.04l19.52,2.67c.74.1,1.24.71.98,1.22l-1.13,2.26,1.93.6c4-12.93-3.22-26.66-16.15-30.68-12.92-4.03-26.66,3.18-30.71,16.09l1.83.57ZM118.6,173.03l2.88,12.06c.13.56-.49,1.04-1.24.97l-19.62-1.83c-.44-.04-.61-.76-.24-1l16.67-10.5c.64-.4,1.4-.26,1.54.31ZM105.32,163.44c.23-.72.91-1.1,1.38-.75l9.96,7.39c.46.34.29,1.11-.32,1.53l-16.2,11.21c-.36.25-.96-.19-.83-.61l6.02-18.76ZM90.92,162.42l12.37-.74c.58-.03.94.66.74,1.38l-5.21,19c-.12.43-.86.47-1.03.06l-7.44-18.24c-.28-.7,0-1.43.57-1.46ZM78.66,172.35l9-8.52c.42-.4,1.14-.1,1.46.59l8.22,17.9c.19.4-.35.91-.75.71l-17.43-9.19c-.67-.35-.92-1.09-.51-1.49Z"/>
          <g>
            <g id="_x3C_Radial_Repeat_x3E_13" data-name="_x3C_Radial_Repeat_x3E_">
              <path class="st19" d="M99.29,182.2l6.02-18.76c.23-.72.91-1.1,1.38-.75l9.96,7.39c.46.34.29,1.11-.32,1.53l-16.2,11.21c-.36.25-.96-.19-.83-.61Z"/>
            </g>
            <g id="_x3C_Radial_Repeat_x3E_14" data-name="_x3C_Radial_Repeat_x3E_">
              <path class="st19" d="M100.39,183.22l16.67-10.5c.64-.4,1.4-.26,1.54.31l2.88,12.06c.13.56-.49,1.04-1.24.97l-19.62-1.83c-.44-.04-.61-.76-.24-1Z"/>
            </g>
            <path class="st19" d="M100.33,184.76c.08-.04.16-.06.25-.04l19.52,2.67c.74.1,1.24.71.98,1.22l-1.13,2.26-19.62-6.11Z"/>
            <path class="st19" d="M78.57,175.04l17.81,8.43c.06.03.1.06.14.11l-19.66-6.12.22-1.93c.07-.57.81-.81,1.49-.49Z"/>
            <g id="_x3C_Radial_Repeat_x3E_15" data-name="_x3C_Radial_Repeat_x3E_">
              <path class="st19" d="M78.66,172.35l9-8.52c.42-.4,1.14-.1,1.46.59l8.22,17.9c.19.4-.35.91-.75.71l-17.43-9.19c-.67-.35-.92-1.09-.51-1.49Z"/>
            </g>
            <g id="_x3C_Radial_Repeat_x3E_16" data-name="_x3C_Radial_Repeat_x3E_">
              <path class="st19" d="M90.92,162.42l12.37-.74c.58-.03.94.66.74,1.38l-5.21,19c-.12.43-.86.47-1.03.06l-7.44-18.24c-.28-.7,0-1.43.57-1.46Z"/>
            </g>
          </g>
        </g>
      </g>
      <g id="_ขิง1" data-name="ขิง1" class="st14">
        <circle class="st5" cx="81.62" cy="202.04" r="18.44"/>
        <circle class="st17" cx="81.62" cy="202.04" r="9.9"/>
      </g>
      <g id="_ฟอง" data-name="ฟอง" class="st18">
        <g id="_ฟอง1" data-name="ฟอง" class="st14">
          <path class="st8" d="M118.26,148.5c.01,3.28,2.68,5.92,5.96,5.91s5.92-2.68,5.91-5.96c-.01-3.28-2.68-5.92-5.96-5.91-3.28.01-5.92,2.68-5.91,5.96Z"/>
          <path class="st8" d="M84.05,140.72c0,1.1.9,1.99,2,1.98,1.1,0,1.99-.9,1.98-2,0-1.1-.9-1.99-2-1.98-1.1,0-1.99.9-1.98,2Z"/>
          <path class="st8" d="M96.95,170.22c0,1.21.99,2.19,2.21,2.19,1.21,0,2.19-.99,2.19-2.21,0-1.21-.99-2.19-2.21-2.19-1.21,0-2.19.99-2.19,2.21Z"/>
          <path class="st8" d="M62.99,174.18c0,2.1,1.72,3.8,3.83,3.79,2.1,0,3.8-1.72,3.79-3.83,0-2.1-1.72-3.8-3.83-3.79-2.1,0-3.8,1.72-3.79,3.83Z"/>
          <path class="st8" d="M56.93,145.8c0,1.64,1.34,2.96,2.98,2.95,1.64,0,2.96-1.34,2.96-2.98,0-1.64-1.34-2.96-2.98-2.96-1.64,0-2.96,1.34-2.96,2.98Z"/>
          <path class="st8" d="M84.31,200.43c0,1.1.9,1.99,2,1.98,1.1,0,1.99-.9,1.98-2,0-1.1-.9-1.99-2-1.98-1.1,0-1.99.9-1.98,2Z"/>
          <path class="st8" d="M112.98,186.43c0,1.5,1.23,2.72,2.74,2.71,1.5,0,2.72-1.23,2.71-2.74,0-1.5-1.23-2.72-2.74-2.71-1.5,0-2.72,1.23-2.71,2.74Z"/>
          <path class="st8" d="M103.74,220.69c.01,3.34,2.74,6.04,6.08,6.03s6.04-2.74,6.03-6.08c-.01-3.34-2.74-6.04-6.08-6.03-3.34.01-6.04,2.74-6.03,6.08Z"/>
          <path class="st8" d="M66.92,202.41c0,1.05.86,1.9,1.91,1.9,1.05,0,1.9-.86,1.9-1.91,0-1.05-.86-1.9-1.91-1.9-1.05,0-1.9.86-1.9,1.91Z"/>
          <path class="st8" d="M79.82,156.75c0,1.19.97,2.14,2.16,2.14,1.19,0,2.14-.97,2.14-2.16,0-1.19-.97-2.14-2.16-2.14-1.19,0-2.14.97-2.14,2.16Z"/>
        </g>
        <g id="_ฟอง2" data-name="ฟอง" class="st14">
          <path class="st8" d="M195.21,169.27c.01,3.28,2.68,5.92,5.96,5.91s5.92-2.68,5.91-5.96c-.01-3.28-2.68-5.92-5.96-5.91s-5.92,2.68-5.91,5.96Z"/>
          <path class="st8" d="M161,161.49c0,1.1.9,1.99,2,1.98,1.1,0,1.99-.9,1.98-2,0-1.1-.9-1.99-2-1.98-1.1,0-1.99.9-1.98,2Z"/>
          <path class="st8" d="M173.91,190.99c0,1.21.99,2.19,2.21,2.19,1.21,0,2.19-.99,2.19-2.21,0-1.21-.99-2.19-2.21-2.19-1.21,0-2.19.99-2.19,2.21Z"/>
          <path class="st8" d="M139.95,194.95c0,2.1,1.72,3.8,3.83,3.79,2.1,0,3.8-1.72,3.79-3.83,0-2.1-1.72-3.8-3.83-3.79-2.1,0-3.8,1.72-3.79,3.83Z"/>
          <path class="st8" d="M133.88,166.57c0,1.64,1.34,2.96,2.98,2.95,1.64,0,2.96-1.34,2.96-2.98,0-1.64-1.34-2.96-2.98-2.96-1.64,0-2.96,1.34-2.96,2.98Z"/>
          <path class="st8" d="M161.27,221.19c0,1.1.9,1.99,2,1.98,1.1,0,1.99-.9,1.98-2,0-1.1-.9-1.99-2-1.98-1.1,0-1.99.9-1.98,2Z"/>
          <path class="st8" d="M189.93,207.2c0,1.5,1.23,2.72,2.74,2.71,1.5,0,2.72-1.23,2.71-2.74,0-1.5-1.23-2.72-2.74-2.71-1.5,0-2.72,1.23-2.71,2.74Z"/>
          <path class="st8" d="M180.7,241.46c.01,3.34,2.74,6.04,6.08,6.03s6.04-2.74,6.03-6.08c-.01-3.34-2.74-6.04-6.08-6.03-3.34.01-6.04,2.74-6.03,6.08Z"/>
          <path class="st8" d="M143.88,223.17c0,1.05.86,1.9,1.91,1.9,1.05,0,1.9-.86,1.9-1.91,0-1.05-.86-1.9-1.91-1.9-1.05,0-1.9.86-1.9,1.91Z"/>
          <path class="st8" d="M156.78,177.52c0,1.19.97,2.14,2.16,2.14,1.19,0,2.14-.97,2.14-2.16,0-1.19-.97-2.14-2.16-2.14-1.19,0-2.14.97-2.14,2.16Z"/>
        </g>
      </g>
    </g>
  </g>
  <path id="_ฝา" data-name="ฝา" class="st20" d="M168.78,59.01v-1.07c1.01-.19,1.78-1.09,1.78-2.16s-.77-1.96-1.78-2.16v-.63c0-2.03-1.64-3.67-3.67-3.67h-92.49c-2.03,0-3.67,1.64-3.67,3.67v.63c-1.01.19-1.78,1.09-1.78,2.16s.77,1.96,1.78,2.16v1.07c-1.01.19-1.78,1.09-1.78,2.16s.77,1.96,1.78,2.16v.77c0,2.03,1.64,3.67,3.67,3.67h92.49c2.03,0,3.67-1.64,3.67-3.67v-.77c1.01-.19,1.78-1.09,1.78-2.16s-.77-1.96-1.78-2.16Z"/>
  <g id="_หน้า" data-name="หน้า">
    <g id="_ปาก" data-name="ปาก">
      <line class="st1" x1="112.52" y1="151.03" x2="118.02" y2="156.54"/>
      <line class="st1" x1="123.52" y1="151.03" x2="118.02" y2="156.54"/>
    </g>
    <g id="_แก้ม" data-name="แก้ม">
      <g>
        <g id="_ซ้าย" data-name="ซ้าย">
          <circle class="st15" cx="86.41" cy="148.35" r="9.99"/>
        </g>
        <g id="_ขวา" data-name="ขวา">
          <circle class="st15" cx="151.32" cy="148.98" r="9.99"/>
        </g>
      </g>
    </g>
    <g id="_ตา" data-name="ตา">
      <circle id="_ซ้าย1" data-name="ซ้าย" cx="97.07" cy="140.45" r="4.02"/>
      <circle id="_ขวา1" data-name="ขวา" cx="140.46" cy="140.45" r="4.02"/>
      <circle class="st9" cx="97.17" cy="138.65" r="1.8"/>
      <circle class="st9" cx="140.56" cy="138.65" r="1.8"/>
    </g>
  </g>
</svg>