<?xml version="1.0" encoding="UTF-8"?>
<svg id="Layer_19" xmlns="http://www.w3.org/2000/svg" xmlns:xlink="http://www.w3.org/1999/xlink" version="1.1" viewBox="0 0 267.9 284.53">
  <!-- Generator: Adobe Illustrator 30.0.0, SVG Export Plug-In . SVG Version: 2.1.1 Build 123)  -->
  <defs>
    <style>
      .st0, .st1, .st2 {
        fill: none;
      }

      .st3 {
        fill: #f3ffc2;
      }

      .st4 {
        fill: url(#linear-gradient);
      }

      .st5 {
        fill: #f8fa1a;
      }

      .st6, .st7, .st8, .st9, .st10, .st11 {
        fill: #fff;
      }

      .st6, .st12 {
        opacity: .8;
      }

      .st7 {
        filter: url(#outer-glow-2);
      }

      .st7, .st1, .st2 {
        stroke-linecap: round;
        stroke-linejoin: round;
      }

      .st7, .st8 {
        stroke: #ffbb61;
        stroke-width: 1.94px;
      }

      .st13 {
        fill: #d7ffa4;
      }

      .st1 {
        stroke: #000;
        stroke-width: 1.89px;
      }

      .st8 {
        filter: url(#outer-glow-4);
        stroke-miterlimit: 10;
      }

      .st14 {
        fill: #f7f919;
      }

      .st15 {
        opacity: .7;
      }

      .st2 {
        stroke: #b8fff6;
        stroke-width: 16.98px;
      }

      .st16 {
        fill: #b8fff6;
      }

      .st17 {
        fill: #b9f91c;
      }

      .st18 {
        fill: #7fe02b;
      }

      .st10 {
        filter: url(#outer-glow-1);
      }

      .st11 {
        filter: url(#outer-glow-3);
      }

      .st19 {
        fill: #fcfad6;
      }

      .st20 {
        fill: #4cc121;
      }

      .st21 {
        clip-path: url(#clippath);
      }
    </style>
    <linearGradient id="linear-gradient" x1="125.32" y1="138.06" x2="125.32" y2="256.97" gradientUnits="userSpaceOnUse">
      <stop offset="0" stop-color="#fff92c"/>
      <stop offset=".32" stop-color="#fffda4"/>
      <stop offset=".76" stop-color="#fff"/>
    </linearGradient>
    <clipPath id="clippath">
      <path id="_แก้ว2" data-name="แก้ว" class="st0" d="M168.13,76.7h-85.62c-8.03,8.03-12.53,12.53-20.56,20.56h0v123.08h0c8.03,8.03,12.53,12.53,20.56,20.56h85.62c8.03-8.03,12.53-12.53,20.56-20.56h0v-123.08h0c-8.03-8.03-12.53-12.53-20.56-20.56Z"/>
    </clipPath>
    <filter id="outer-glow-1" x="90.5" y="166.49" width="109.2" height="90.24" filterUnits="userSpaceOnUse">
      <feOffset dx="0" dy="0"/>
      <feGaussianBlur result="blur" stdDeviation="7.28"/>
      <feFlood flood-color="#fff" flood-opacity="1"/>
      <feComposite in2="blur" operator="in"/>
      <feComposite in="SourceGraphic"/>
    </filter>
    <filter id="outer-glow-2" x="89.54" y="165.53" width="111.12" height="92.16" filterUnits="userSpaceOnUse">
      <feOffset dx="0" dy="0"/>
      <feGaussianBlur result="blur1" stdDeviation="7.28"/>
      <feFlood flood-color="#fff" flood-opacity="1"/>
      <feComposite in2="blur1" operator="in"/>
      <feComposite in="SourceGraphic"/>
    </filter>
    <filter id="outer-glow-3" x="58.78" y="145.56" width="93.84" height="76.08" filterUnits="userSpaceOnUse">
      <feOffset dx="0" dy="0"/>
      <feGaussianBlur result="blur2" stdDeviation="6.81"/>
      <feFlood flood-color="#fff" flood-opacity="1"/>
      <feComposite in2="blur2" operator="in"/>
      <feComposite in="SourceGraphic"/>
    </filter>
    <filter id="outer-glow-4" x="57.58" y="144.6" width="96" height="78.24" filterUnits="userSpaceOnUse">
      <feOffset dx="0" dy="0"/>
      <feGaussianBlur result="blur3" stdDeviation="6.81"/>
      <feFlood flood-color="#fff" flood-opacity="1"/>
      <feComposite in2="blur3" operator="in"/>
      <feComposite in="SourceGraphic"/>
    </filter>
  </defs>
  <g id="_เส้นมะนาว" data-name="เส้นมะนาว">
    <path d="M81.42,105.09c-22.5,0-40.81-18.31-40.81-40.81s18.31-40.81,40.81-40.81,40.81,18.31,40.81,40.81-18.31,40.81-40.81,40.81Z"/>
    <circle class="st9" cx="81.42" cy="64.27" r="38.39"/>
  </g>
  <g id="_มะนาวเต็ม" data-name="มะนาวเต็ม">
    <circle class="st14" cx="81.42" cy="64.27" r="38.39"/>
    <circle class="st19" cx="81.42" cy="64.27" r="34.91"/>
    <g>
      <g id="_x3C_Radial_Repeat_x3E_">
        <path class="st5" d="M79.72,66.9l-17.27,22.08c-.66.84-.56,1.95.21,2.22l16.65,5.82c.77.27,1.54-.54,1.55-1.61l.25-28.03c0-.63-.99-.98-1.38-.48Z"/>
      </g>
      <g id="_x3C_Radial_Repeat_x3E_1" data-name="_x3C_Radial_Repeat_x3E_">
        <path class="st5" d="M78.43,65.2l-27.42,5.81c-1.05.22-1.69,1.13-1.27,1.84l9.01,15.16c.42.71,1.53.58,2.22-.24l18.21-21.31c.41-.48-.13-1.39-.75-1.26Z"/>
      </g>
      <g id="_x3C_Radial_Repeat_x3E_2" data-name="_x3C_Radial_Repeat_x3E_">
        <path class="st5" d="M78.54,63.06l-24.74-13.17c-.94-.5-2.02-.22-2.15.59l-2.84,17.41c-.13.81.8,1.42,1.85,1.25l27.65-4.63c.62-.1.79-1.15.24-1.45Z"/>
      </g>
      <g id="_x3C_Radial_Repeat_x3E_3" data-name="_x3C_Radial_Repeat_x3E_">
        <path class="st5" d="M79.99,61.49l-10.49-26c-.4-.99-1.41-1.46-2.03-.93l-13.36,11.51c-.62.54-.3,1.6.62,2.15l24.15,14.23c.54.32,1.35-.37,1.11-.96Z"/>
      </g>
      <g id="_x3C_Radial_Repeat_x3E_4" data-name="_x3C_Radial_Repeat_x3E_">
        <path class="st5" d="M82.11,61.23l8.68-26.65c.33-1.02-.14-2.03-.96-2.02l-17.63.23c-.82.01-1.26,1.03-.91,2.04l9.36,26.42c.21.6,1.27.58,1.47-.02Z"/>
      </g>
      <g id="_x3C_Radial_Repeat_x3E_5" data-name="_x3C_Radial_Repeat_x3E_">
        <path class="st5" d="M83.91,62.39l23.78-14.84c.91-.57,1.2-1.64.56-2.16l-13.65-11.16c-.64-.52-1.63-.02-2.01.98l-9.82,26.26c-.22.59.6,1.26,1.13.93Z"/>
      </g>
      <g id="_x3C_Radial_Repeat_x3E_6" data-name="_x3C_Radial_Repeat_x3E_">
        <path class="st5" d="M84.54,64.43l27.76,3.92c1.06.15,1.97-.49,1.82-1.29l-3.28-17.33c-.15-.81-1.24-1.06-2.17-.54l-24.4,13.8c-.55.31-.35,1.35.27,1.44Z"/>
      </g>
      <g id="_x3C_Radial_Repeat_x3E_7" data-name="_x3C_Radial_Repeat_x3E_">
        <path class="st5" d="M83.71,66.4l18.75,20.84c.72.8,1.82.89,2.23.18l8.62-15.39c.4-.72-.26-1.61-1.31-1.8l-27.56-5.11c-.62-.12-1.14.81-.72,1.28Z"/>
      </g>
      <g id="_x3C_Radial_Repeat_x3E_8" data-name="_x3C_Radial_Repeat_x3E_">
        <path class="st5" d="M81.81,67.37l.96,28.01c.04,1.07.82,1.86,1.59,1.57l16.49-6.24c.77-.29.83-1.4.15-2.23l-17.83-21.63c-.4-.49-1.39-.11-1.37.52Z"/>
      </g>
    </g>
  </g>
  <g id="_เส้นแก้ว" data-name="เส้นแก้ว">
    <path d="M79.39,261.07c-3.35,0-6.07-2.72-6.07-6.07v-11.02c0-2.39,1.38-4.45,3.39-5.45l-17.19-17.19v-125.09l17.19-17.19c-1.79-.88-3.08-2.63-3.34-4.69-1.11-.85-1.82-2.19-1.82-3.67,0-.99.32-1.92.86-2.68-.54-.76-.86-1.69-.86-2.68,0-1.48.71-2.83,1.84-3.68.44-2.91,2.97-5.15,6-5.15h74.35l5.85-24.52,1.24-.44c1.1-.39,2.37-.59,3.78-.59,5.12,0,10.92,2.63,11.16,2.74l1.82.84-5.4,22.05c2.6.41,4.66,2.47,5.06,5.08,1.13.85,1.84,2.2,1.84,3.68,0,.99-.32,1.92-.86,2.68.54.76.86,1.69.86,2.68,0,1.48-.7,2.81-1.82,3.67-.26,2.06-1.55,3.8-3.34,4.69l17.19,17.19v5.92h25.27c6.02,0,10.92,4.9,10.92,10.92v91.39c0,6.02-4.9,10.92-10.92,10.92h-25.27v5.93l-17.19,17.19c2.01.99,3.39,3.06,3.39,5.45v11.02c0,3.35-2.72,6.07-6.07,6.07h-91.85ZM205.46,193.58v-69.56h-14.35v69.56h14.35Z"/>
    <path class="st9" d="M216.38,104.61h-27.69v-7.35h0c-7.84-7.84-12.32-12.32-20-20h2.55c2.01,0,3.64-1.63,3.64-3.64v-.76c1.01-.19,1.77-1.08,1.77-2.14s-.76-1.95-1.77-2.14v-1.07c1.01-.19,1.77-1.08,1.77-2.14s-.76-1.95-1.77-2.14v-.62c0-2.01-1.63-3.64-3.64-3.64h-2.13l2.99-12.19,2.66-10.84s-8.28-3.8-13.12-2.07l-3.78,15.85-2.21,9.25h-76.26c-2.01,0-3.64,1.63-3.64,3.64v.62c-1.01.19-1.77,1.08-1.77,2.14s.76,1.95,1.77,2.14v1.07c-1.01.19-1.77,1.08-1.77,2.14s.76,1.95,1.77,2.14v.76c0,2.01,1.63,3.64,3.64,3.64h2.55c-7.68,7.68-12.16,12.16-20,20h0v123.08h0c7.84,7.84,12.32,12.32,20,20h-2.55c-2.01,0-3.64,1.63-3.64,3.64v11.02c0,2.01,1.63,3.64,3.64,3.64h91.85c2.01,0,3.64-1.63,3.64-3.64v-11.02c0-2.01-1.63-3.64-3.64-3.64h-2.55c7.68-7.68,12.16-12.16,20-20h0v-7.36h27.69c4.69,0,8.49-3.8,8.49-8.49v-91.39c0-4.69-3.8-8.49-8.49-8.49ZM207.89,196h-19.2v-74.41h19.2v74.41Z"/>
  </g>
  <rect id="_หูแก้ว" data-name="หูแก้ว" class="st2" x="168.36" y="113.1" width="48.02" height="91.39"/>
  <rect id="_ฐาน" data-name="ฐาน" class="st16" x="75.75" y="240.34" width="99.14" height="18.31" rx="3.64" ry="3.64"/>
  <path id="_แก้ว" data-name="แก้ว" class="st16" d="M168.13,76.7h-85.62c-8.03,8.03-12.53,12.53-20.56,20.56h0v123.08h0c8.03,8.03,12.53,12.53,20.56,20.56h85.62c8.03-8.03,12.53-12.53,20.56-20.56h0v-123.08h0c-8.03-8.03-12.53-12.53-20.56-20.56Z"/>
  <g id="_หลอด" data-name="หลอด">
    <g>
      <path class="st3" d="M172.1,46.77l2.66-10.84s-8.28-3.8-13.12-2.07l-3.78,15.85c4.86.35,9.79-.79,14.24-2.94Z"/>
      <path class="st3" d="M162.75,80.8h.99s.02-.01.03-.02l4.66-19.02c-4.52,2.13-9.42,3.63-14.32,3.69l-4.26,17.87c4.41.07,8.79-.77,12.9-2.53Z"/>
      <path class="st3" d="M155.59,114.13l4.46-18.19c-4.3,2.24-9.21,3.35-13.97,3.16l-4.3,18.01c4.74.16,9.41-1.09,13.81-2.97Z"/>
      <path class="st3" d="M147.16,148.53l4.17-17.01c-4.4,1.33-8.84,2.14-13.43,1.86l-4.21,17.65c4.69.75,9.26-.45,13.48-2.5Z"/>
      <path class="st3" d="M120.23,207.46s4.49,5.87,11.73,3.11l2.4-9.79c-4.11,2.7-8.76,4.45-13.64,4.63l-.49,2.05Z"/>
      <path class="st3" d="M129.25,169.64l-4.56,19.13c4.98-.1,9.57-1.77,13.68-4.33l4.26-17.4c-4.23,1.88-8.76,3.08-13.38,2.6Z"/>
    </g>
    <g>
      <path class="st17" d="M172.1,46.77c-4.45,2.15-9.38,3.29-14.24,2.94l-3.76,15.75c4.91-.07,9.81-1.56,14.32-3.69l3.67-14.99Z"/>
      <path class="st17" d="M142.63,167.04l4.53-18.5c-4.22,2.05-8.78,3.26-13.48,2.5l-4.44,18.6c4.61.47,9.15-.72,13.38-2.6Z"/>
      <path class="st17" d="M124.69,188.76l-3.97,16.64c4.88-.18,9.54-1.93,13.64-4.63l4-16.34c-4.11,2.56-8.7,4.23-13.68,4.33Z"/>
      <path class="st17" d="M141.78,117.11l-3.88,16.28c4.59.28,9.03-.53,13.43-1.86l4.26-17.39c-4.4,1.88-9.07,3.13-13.81,2.97Z"/>
      <path class="st17" d="M163.73,80.8h-.99c-4.12,1.76-8.5,2.61-12.9,2.53l-3.76,15.77c4.76.19,9.67-.91,13.97-3.16l3.71-15.16s-.02.01-.03.02Z"/>
    </g>
  </g>
  <path id="_แก้ว1" data-name="แก้ว" class="st6" d="M168.13,76.7h-85.62c-8.03,8.03-12.53,12.53-20.56,20.56h0v123.08h0c8.03,8.03,12.53,12.53,20.56,20.56h85.62c8.03-8.03,12.53-12.53,20.56-20.56h0v-123.08h0c-8.03-8.03-12.53-12.53-20.56-20.56Z"/>
  <path id="_น้ำ" data-name="น้ำ" class="st4" d="M61.95,156.01v64.33h0c8.03,8.03,12.53,12.53,20.56,20.56h85.62c8.03-8.03,12.53-12.53,20.56-20.56h0v-64.33H61.95Z"/>
  <g id="_ข้างในแก้ว" data-name="ข้างในแก้ว">
    <g class="st21">
      <g class="st15">
        <path class="st18" d="M166.41,188.45c-.53-1.85-1.14-3.91-2.16-4.49-.27.11-.43.37-.54.65-.61-1.03-1.3-2.16-2.07-3.2-.77-1.06-1.63-2.01-2.64-2.64-.24.14-.33.4-.43.66-.93-1.07-2.01-2.25-3.08-3.33-1.07-1.08-2.16-2.05-3.16-2.64-.23.22-.19.66-.15,1.09-2.08-2.06-3.94-3.47-5.35-4.02-.16.2-.15.48-.11.78-1.13-1.13-2.75-2.49-4.25-3.12-1.05,1.26-1.65,3.43-1.82,5.15-.15-.29-.32-.55-.57-.64-.79,1.37-1.34,3.92-1.11,7.4-.31-.42-.62-.85-.95-.88-.24,1.32-.15,3.1.19,5.03.34,1.92.95,3.98,1.69,5.83-.31-.11-.62-.23-.86-.1.24,1.6,1.02,3.38,2.12,5.14,1.11,1.76,2.55,3.47,4.02,4.96-.37-.01-.69.02-.82.32.24.45.64.94,1.13,1.44.49.5,1.13,1,1.8,1.49.69.49,1.47.95,2.26,1.38.41.21.82.41,1.24.6.41.19.82.37,1.24.53-.28.25-.48.52-.41.86,1.51,1.17,5.22,1.75,9,1.24.02.41.02.83.52,1.23.31.02.8-.07,1.36-.26.57-.2,1.2-.48,1.8-.81.3-.16.59-.34.86-.51.28-.18.54-.37.77-.56.46-.37.82-.72,1-.98,1.5-2.13,2.22-5.5,2.39-8.04.02-.31,0-.78-.04-1.3-.04-.52-.08-1.11-.13-1.69-.04-.57-.08-1.12-.12-1.55-.04-.45-.08-.8-.15-.96-.31.01-.55.32-.81.61-.42-2.61-.39-4.73-.99-5.34-.23.1-.45.35-.67.65Z"/>
        <path class="st20" d="M166.41,188.45c-.53-1.85-1.14-3.91-2.16-4.49-.27.11-.43.37-.54.65-.61-1.03-1.3-2.16-2.07-3.2-.77-1.06-1.63-2.01-2.64-2.64-.24.14-.33.4-.43.66-.93-1.07-2.01-2.25-3.08-3.33-1.07-1.08-2.16-2.05-3.16-2.64-.23.22-.19.66-.15,1.09-2.08-2.06-3.94-3.47-5.35-4.02-.16.2-.15.48-.11.78-1.13-1.13-2.75-2.49-4.25-3.12h0s.04.17.13.49c.08.32.21.78.38,1.37.34,1.17.87,2.84,1.61,4.8.74,1.96,1.69,4.22,2.86,6.56,1.17,2.34,2.54,4.78,4.11,7.1,1.57,2.31,3.32,4.51,5.17,6.36,1.84,1.86,3.77,3.39,5.55,4.5.22.14.44.28.65.41.22.12.43.24.64.35.21.12.41.23.61.34.2.11.4.19.59.29.39.18.74.36,1.08.5.34.13.66.25.94.36.14.05.28.11.4.16.13.04.25.08.36.11.23.07.42.13.58.18.31.1.48.15.48.15.39-1.43.61-2.9.7-4.17.02-.31,0-.78-.04-1.3-.04-.52-.08-1.11-.13-1.69-.04-.57-.08-1.12-.12-1.55-.04-.45-.08-.8-.15-.96-.31.01-.55.32-.81.61-.42-2.61-.39-4.73-.99-5.34-.23.1-.45.35-.67.65Z"/>
        <path class="st13" d="M163.07,192.75c-.34,1.39-1.44,5.1-1.61,5.5-1.7-1.18-3.11-2.26-5.45-4.69.77-.94,1.49-2.84,2.05-4.9,1.05-3.99.95-5.77.63-8.16.16,2.92.11,4.95-1.21,8.47-.44,1.24-1.12,3.08-1.98,4.03-3.19-3.6-5.01-6.64-5.01-6.64,2.53-7.58,2.29-9.37,2.03-11.21.08.9.11,1.67.03,2.55-.14,1.3-1.25,5.13-2.47,8.02-.32-.5-.97-1.6-1.86-3.22-.89-1.64-1.67-3.33-1.67-3.33.37-.97.89-3.2.79-4.85-.04-.78-.12-1.47-.21-2.23.16,1.87.36,3.91-.75,6.7,0,0-.08-.16-.2-.44-1.26-2.83-2.3-5.43-3.22-8.46-.15-.51-.28-.93-.35-1.23-.08-.3-.13-.47-.13-.47,0,0,.05.19.13.52.08.33.2.79.35,1.35.99,3.57,2.22,6.74,3.56,9.79-.95.05-3.8-1.55-5.53-5.48,1.63,4.11,4.62,5.94,5.66,5.78,1.96,4.22,3.55,6.8,3.76,7.11-1.07.12-3.09-.11-5.16-1.03-2.37-1.09-4.62-3.45-5.74-5.2.92,1.6,2.38,3.21,3.77,4.36,2.28,1.86,5.82,2.74,7.49,2.45,1.23,1.98,3.02,4.44,4.88,6.48-1.97.63-3.99.86-5.73.74-4.44-.28-7.13-2.26-9.24-3.93,2.78,2.41,5.97,4.67,11.44,4.5,1.24-.03,2.59-.25,4.11-.69,0,0,2.44,2.68,5.79,4.86-1.84,1.48-2.71,1.77-3.73,1.99-5.02,1.14-10.18-.97-11.87-1.48,2.08.8,3.86,1.71,7.63,2.19,1.92.22,4.53.22,6.26-.56.71-.35,1.91-1.08,2.54-1.61.21.12,2.02,1.16,3.1,1.56-1.8,4-7.63,5.41-12.68,4.08,4.6,1.64,11.46.91,13.68-3.68.08.04,1.47.48,1.56.51.29.09.61.15.92.23,1.09.25.34.12,2.56.47l.13-1.26c-2.84-.37-3.64-.59-5.94-1.44.32-1.37.6-3.37.62-4.72.04-1.72-.12-4.87-.61-6.45.3,1.9.17,4.51.09,6-.13,2.14-.47,3.16-1.05,4.76,0,0-1.12-.46-3-1.61.21-.48,1.26-5.58,1.32-6.01.43-3,.47-3.26.51-3.88.14-2.57-.18-3.5-.28-3.86.08.36.19,1.46.08,3.09-.08,1.2-.51,3.51-.79,4.66Z"/>
      </g>
      <g id="_มะนาว2" data-name="มะนาว2" class="st15">
        <g>
          <path class="st10" d="M175.33,188.53l-2.84,1.13-2.24.89-23.97,9.53-4.65,1.85-23.92,9.51-2.35.94-2.84,1.13c6.91,17.31,26.54,25.75,43.86,18.87,17.32-6.89,25.8-26.5,18.94-43.83Z"/>
          <path class="st7" d="M175.33,188.53l-2.84,1.13-2.24.89-23.97,9.53-4.65,1.85-23.92,9.51-2.35.94-2.84,1.13c6.91,17.31,26.54,25.75,43.86,18.87,17.32-6.89,25.8-26.5,18.94-43.83Z"/>
        </g>
        <g id="_ครึ่งมะนาว" data-name="ครึ่งมะนาว">
          <path class="st14" d="M175.33,188.53c6.85,17.33-1.62,36.94-18.94,43.83-17.32,6.89-36.95-1.56-43.86-18.87l2.84-1.13c6.29,15.74,24.14,23.42,39.89,17.15,15.76-6.26,23.46-24.1,17.23-39.86l2.84-1.13Z"/>
          <path class="st19" d="M170.25,190.55l1.3,2.05c.39.61-.15,1.43-1.07,1.65l-23.98,5.82c-.07.02-.15.02-.22,0l-4.65,1.85c-.04.1-.11.18-.21.24l-21.11,12.78c-.81.49-1.77.29-1.92-.42l-.68-3.09-2.35.94c6.29,15.74,24.14,23.42,39.89,17.15,15.76-6.26,23.46-24.1,17.23-39.86l-2.24.89ZM133.08,227.74l-12.3-9.47c-.57-.44-.34-1.39.44-1.92l20.54-13.67c.46-.31,1.2.26,1.02.79l-7.96,23.36c-.3.89-1.17,1.36-1.74.92ZM153.57,226.61c.34.88-.02,1.79-.74,1.82l-15.51.65c-.72.03-1.16-.85-.89-1.75l6.95-23.68c.16-.53,1.09-.57,1.29-.05l8.91,23.01ZM168.4,216.27l-11.46,10.47c-.53.49-1.43.1-1.81-.77l-9.9-22.6c-.22-.51.46-1.14.95-.87l21.62,11.9c.82.45,1.13,1.39.6,1.87ZM172.51,196.94l-2.05,15.39c-.09.72-1.03,1-1.88.58l-22.11-10.95c-.5-.25-.38-1.17.17-1.28l24.21-4.78c.92-.18,1.76.33,1.66,1.05Z"/>
          <g>
            <g id="_x3C_Radial_Repeat_x3E_9" data-name="_x3C_Radial_Repeat_x3E_">
              <path class="st5" d="M144.66,203.6l8.91,23.01c.34.88-.02,1.79-.74,1.82l-15.51.65c-.72.03-1.16-.85-.89-1.75l6.95-23.68c.16-.53,1.09-.57,1.29-.05Z"/>
            </g>
            <g id="_x3C_Radial_Repeat_x3E_10" data-name="_x3C_Radial_Repeat_x3E_">
              <path class="st5" d="M142.78,203.47l-7.96,23.36c-.3.89-1.17,1.36-1.74.92l-12.3-9.47c-.57-.44-.34-1.39.44-1.92l20.54-13.67c.46-.31,1.2.26,1.02.79Z"/>
            </g>
            <path class="st5" d="M141.64,201.92c-.04.1-.11.18-.21.24l-21.11,12.78c-.81.49-1.77.29-1.92-.42l-.68-3.09,23.92-9.51Z"/>
            <path class="st5" d="M170.48,194.25l-23.98,5.82c-.07.02-.15.02-.22,0l23.97-9.53,1.3,2.05c.39.61-.15,1.43-1.07,1.65Z"/>
            <g id="_x3C_Radial_Repeat_x3E_11" data-name="_x3C_Radial_Repeat_x3E_">
              <path class="st5" d="M172.51,196.94l-2.05,15.39c-.09.72-1.03,1-1.88.58l-22.11-10.95c-.5-.25-.38-1.17.17-1.28l24.21-4.78c.92-.18,1.76.33,1.66,1.05Z"/>
            </g>
            <g id="_x3C_Radial_Repeat_x3E_12" data-name="_x3C_Radial_Repeat_x3E_">
              <path class="st5" d="M168.4,216.27l-11.46,10.47c-.53.49-1.43.1-1.81-.77l-9.9-22.6c-.22-.51.46-1.14.95-.87l21.62,11.9c.82.45,1.13,1.39.6,1.87Z"/>
            </g>
          </g>
        </g>
      </g>
      <g id="_มะนาว1" data-name="มะนาว1" class="st15">
        <g>
          <path class="st11" d="M113,167.35c-14.11-4.4-29.12,3.47-33.54,17.57l2.31.72,1.82.57,19.52,6.08,3.78,1.18,19.49,6.07,1.92.6,2.31.72c4.37-14.12-3.51-29.11-17.63-33.51Z"/>
          <path class="st8" d="M113,167.35c-14.11-4.4-29.12,3.47-33.54,17.57l2.31.72,1.82.57,19.52,6.08,3.78,1.18,19.49,6.07,1.92.6,2.31.72c4.37-14.12-3.51-29.11-17.63-33.51Z"/>
        </g>
        <g id="_ครึ่งมะนาว1" data-name="ครึ่งมะนาว">
          <path class="st5" d="M79.46,184.91c4.42-14.1,19.42-21.96,33.54-17.57,14.11,4.4,22,19.39,17.63,33.51l-2.31-.72c3.97-12.84-3.2-26.47-16.03-30.47-12.84-4-26.48,3.15-30.5,15.98l-2.31-.72Z"/>
          <path class="st19" d="M83.6,186.2l.22-1.91c.07-.57.81-.8,1.48-.48l17.68,8.37c.06.03.1.06.14.11l3.78,1.18c.08-.04.16-.06.25-.04l19.39,2.66c.74.1,1.23.7.98,1.22l-1.12,2.24,1.92.6c3.97-12.84-3.2-26.47-16.03-30.47-12.84-4-26.48,3.15-30.5,15.98l1.82.57ZM125.06,181.81l2.86,11.97c.13.56-.48,1.03-1.23.96l-19.48-1.82c-.44-.04-.61-.76-.24-.99l16.56-10.43c.63-.4,1.39-.25,1.53.3ZM111.86,172.29c.23-.71.91-1.09,1.37-.75l9.89,7.33c.46.34.29,1.1-.32,1.52l-16.09,11.13c-.36.25-.96-.19-.82-.61l5.98-18.63ZM97.56,171.27l12.29-.74c.57-.03.93.65.73,1.37l-5.17,18.87c-.12.43-.85.47-1.02.06l-7.39-18.12c-.28-.69,0-1.42.56-1.45ZM85.39,181.14l8.94-8.46c.42-.39,1.13-.1,1.45.58l8.17,17.78c.18.4-.35.91-.74.7l-17.31-9.13c-.66-.35-.92-1.08-.5-1.48Z"/>
          <g>
            <g id="_x3C_Radial_Repeat_x3E_13" data-name="_x3C_Radial_Repeat_x3E_">
              <path class="st5" d="M105.88,190.92l5.98-18.63c.23-.71.91-1.09,1.37-.75l9.89,7.33c.46.34.29,1.1-.32,1.52l-16.09,11.13c-.36.25-.96-.19-.82-.61Z"/>
            </g>
            <g id="_x3C_Radial_Repeat_x3E_14" data-name="_x3C_Radial_Repeat_x3E_">
              <path class="st5" d="M106.97,191.94l16.56-10.43c.63-.4,1.39-.25,1.53.3l2.86,11.97c.13.56-.48,1.03-1.23.96l-19.48-1.82c-.44-.04-.61-.76-.24-.99Z"/>
            </g>
            <path class="st5" d="M106.9,193.46c.08-.04.16-.06.25-.04l19.39,2.66c.74.1,1.23.7.98,1.22l-1.12,2.24-19.49-6.07Z"/>
            <path class="st5" d="M85.3,183.8l17.68,8.37c.06.03.1.06.14.11l-19.52-6.08.22-1.91c.07-.57.81-.8,1.48-.48Z"/>
            <g id="_x3C_Radial_Repeat_x3E_15" data-name="_x3C_Radial_Repeat_x3E_">
              <path class="st5" d="M85.39,181.14l8.94-8.46c.42-.39,1.13-.1,1.45.58l8.17,17.78c.18.4-.35.91-.74.7l-17.31-9.13c-.66-.35-.92-1.08-.5-1.48Z"/>
            </g>
            <g id="_x3C_Radial_Repeat_x3E_16" data-name="_x3C_Radial_Repeat_x3E_">
              <path class="st5" d="M97.56,171.27l12.29-.74c.57-.03.93.65.73,1.37l-5.17,18.87c-.12.43-.85.47-1.02.06l-7.39-18.12c-.28-.69,0-1.42.56-1.45Z"/>
            </g>
          </g>
        </g>
      </g>
      <g class="st15">
        <path class="st18" d="M88.45,192.13c-1.68,1.47-3.55,3.11-3.66,4.46.25.23.6.27.95.25-.78,1.15-1.63,2.42-2.35,3.74-.73,1.32-1.31,2.69-1.48,4.06.26.18.58.15.9.13-.67,1.5-1.38,3.21-1.99,4.86-.61,1.65-1.1,3.27-1.23,4.61.35.14.79-.13,1.22-.38-1.14,3.19-1.72,5.83-1.6,7.58.28.07.58-.07.87-.26-.63,1.74-1.27,4.1-1.2,5.99,1.83.49,4.41.06,6.3-.61-.23.3-.43.6-.39.91,1.83.16,4.77-.51,8.31-2.45-.29.53-.59,1.07-.46,1.43,1.51-.39,3.33-1.36,5.19-2.65,1.85-1.29,3.71-2.94,5.3-4.62.03.38.06.76.31.96,1.56-1.03,3.05-2.73,4.36-4.74,1.3-2.02,2.4-4.37,3.25-6.64.17.4.35.72.74.7.36-.48.68-1.13.96-1.89.29-.76.5-1.68.69-2.62.18-.96.28-2.01.35-3.05.02-.53.03-1.07.03-1.59,0-.53,0-1.04-.05-1.56.4.17.78.25,1.1.01.49-2.16-.71-6.34-3.1-10.05.43-.22.87-.42,1.03-1.14-.13-.34-.47-.81-.93-1.3-.49-.5-1.09-1.03-1.73-1.5-.32-.24-.64-.46-.96-.66-.32-.2-.65-.38-.96-.54-.61-.31-1.15-.51-1.52-.58-2.97-.54-6.86.36-9.61,1.41-.34.13-.81.38-1.34.68-.52.29-1.12.63-1.71.96-.58.32-1.13.63-1.57.88-.46.26-.8.47-.93.62.16.32.61.43,1.03.55-2.54,1.72-4.78,2.72-5.12,3.65.21.19.59.3,1.01.38Z"/>
        <path class="st20" d="M88.45,192.13c-1.68,1.47-3.55,3.11-3.66,4.46.25.23.6.27.95.25-.78,1.15-1.63,2.42-2.35,3.74-.73,1.32-1.31,2.69-1.48,4.06.26.18.58.15.9.13-.67,1.5-1.38,3.21-1.99,4.86-.61,1.65-1.1,3.27-1.23,4.61.35.14.79-.13,1.22-.38-1.14,3.19-1.72,5.83-1.6,7.58.28.07.58-.07.87-.26-.63,1.74-1.27,4.1-1.2,5.99h0s.16-.13.45-.37c.3-.24.72-.6,1.25-1.06,1.06-.93,2.56-2.3,4.25-4.04,1.69-1.74,3.6-3.84,5.5-6.21,1.89-2.38,3.78-5.01,5.44-7.79,1.65-2.78,3.11-5.68,4.16-8.53,1.05-2.85,1.71-5.62,2.01-8.03.04-.3.08-.6.11-.88.02-.29.04-.57.06-.85.02-.28.04-.54.05-.81.02-.26,0-.52,0-.76,0-.49.01-.95,0-1.38-.03-.43-.06-.82-.08-1.17-.01-.18-.02-.34-.03-.5-.02-.16-.04-.3-.06-.44-.04-.27-.07-.5-.1-.69-.05-.38-.08-.58-.08-.58-1.69.29-3.35.77-4.72,1.3-.34.13-.81.38-1.34.68-.52.29-1.12.63-1.71.96-.58.32-1.13.63-1.57.88-.46.26-.8.47-.93.62.16.32.61.43,1.03.55-2.54,1.72-4.78,2.72-5.12,3.65.21.19.59.3,1.01.38Z"/>
        <path class="st13" d="M94.6,193.53c1.63-.32,6.06-.98,6.56-1-.41,2.36-.85,4.37-2.26,8.01-1.36-.36-3.71-.18-6.14.24-4.7.85-6.52,1.83-8.88,3.33,2.99-1.59,5.15-2.54,9.48-2.87,1.52-.15,3.78-.33,5.2.11-2.22,5.11-4.53,8.51-4.53,8.51-9.19,1.05-10.96,2.17-12.77,3.35.9-.52,1.7-.93,2.66-1.27,1.43-.49,5.99-1.2,9.62-1.33-.37.58-1.21,1.8-2.48,3.53-1.28,1.74-2.68,3.38-2.68,3.38-1.2.08-3.8.63-5.48,1.54-.8.42-1.49.84-2.23,1.31,1.88-1.08,3.93-2.28,7.4-2.48,0,0-.13.16-.36.43-2.35,2.71-4.58,5.07-7.31,7.51-.46.41-.84.75-1.12.98-.27.23-.43.36-.43.36,0,0,.17-.14.48-.38.31-.24.73-.6,1.25-1.03,3.27-2.79,5.99-5.62,8.54-8.52.52.97.23,4.75-3.05,8.49,3.51-3.72,3.98-7.75,3.3-8.77,3.47-4.12,5.4-7.05,5.63-7.43.65,1.06,1.4,3.3,1.44,5.92,0,3.03-1.36,6.53-2.66,8.57,1.23-1.74,2.21-4.07,2.73-6.09.84-3.31.03-7.44-1.09-9.05,1.47-2.26,3.19-5.35,4.42-8.29,1.63,1.76,2.85,3.77,3.58,5.66,1.88,4.79,1.12,8.59.39,11.62,1.17-4.1,1.99-8.55-.86-14.21-.64-1.29-1.53-2.6-2.73-3.98,0,0,1.63-3.88,2.27-8.46,2.46,1.21,3.18,1.98,3.91,2.95,3.65,4.72,3.96,11.17,4.24,13.19-.18-2.58-.09-4.89-1.43-9.08-.7-2.12-1.98-4.87-3.65-6.3-.71-.57-2.07-1.47-2.93-1.87.02-.28.24-2.68.12-4.02,5.08-.07,9.41,5.36,10.48,11.33-.52-5.63-4.64-12.48-10.55-12.57,0-.11-.22-1.78-.23-1.89-.05-.35-.14-.71-.21-1.08-.27-1.27-.04-.41-.75-2.91l-1.38.47c1,3.17,1.16,4.12,1.39,6.94-1.6.34-3.83,1.02-5.25,1.65-1.82.8-5.05,2.5-6.47,3.79,1.85-1.25,4.65-2.38,6.25-3.03,2.31-.91,3.55-1.05,5.51-1.22,0,0,.07,1.4-.23,3.94-.6,0-6.47,1.4-6.96,1.55-3.36,1.02-3.66,1.1-4.32,1.36-2.77,1.11-3.59,1.9-3.92,2.18.34-.26,1.44-.91,3.2-1.59,1.3-.5,3.94-1.18,5.28-1.45Z"/>
      </g>
      <g id="_ฟอง" data-name="ฟอง" class="st15">
        <g id="_ฟอง1" data-name="ฟอง" class="st12">
          <path class="st6" d="M124.71,157.45c.01,3.26,2.67,5.88,5.92,5.87s5.88-2.67,5.87-5.92c-.01-3.26-2.67-5.88-5.92-5.87s-5.88,2.67-5.87,5.92Z"/>
          <path class="st6" d="M90.74,149.73c0,1.09.89,1.97,1.99,1.97,1.09,0,1.97-.89,1.97-1.99,0-1.09-.89-1.97-1.99-1.97-1.09,0-1.97.89-1.97,1.99Z"/>
          <path class="st6" d="M103.55,179.02c0,1.21.99,2.18,2.19,2.17,1.21,0,2.18-.99,2.17-2.19,0-1.21-.99-2.18-2.19-2.17-1.21,0-2.18.99-2.17,2.19Z"/>
          <path class="st6" d="M69.82,182.96c0,2.09,1.71,3.78,3.8,3.77,2.09,0,3.78-1.71,3.77-3.8,0-2.09-1.71-3.78-3.8-3.77-2.09,0-3.78,1.71-3.77,3.8Z"/>
          <path class="st6" d="M63.8,154.77c0,1.63,1.33,2.94,2.96,2.93,1.63,0,2.94-1.33,2.93-2.96,0-1.63-1.33-2.94-2.96-2.93-1.63,0-2.94,1.33-2.93,2.96Z"/>
          <path class="st6" d="M91,209.02c0,1.09.89,1.97,1.99,1.97,1.09,0,1.97-.89,1.97-1.99,0-1.09-.89-1.97-1.99-1.97-1.09,0-1.97.89-1.97,1.99Z"/>
          <path class="st6" d="M119.47,195.12c0,1.49,1.22,2.7,2.72,2.69,1.49,0,2.7-1.22,2.69-2.72,0-1.49-1.22-2.7-2.72-2.69-1.49,0-2.7,1.22-2.69,2.72Z"/>
          <path class="st6" d="M110.29,229.15c.01,3.32,2.72,6,6.04,5.99,3.32-.01,6-2.72,5.99-6.04-.01-3.32-2.72-6-6.04-5.99-3.32.01-6,2.72-5.99,6.04Z"/>
          <path class="st6" d="M73.73,210.99c0,1.04.86,1.89,1.9,1.88,1.04,0,1.89-.86,1.88-1.9,0-1.04-.86-1.89-1.9-1.88-1.04,0-1.89.86-1.88,1.9Z"/>
          <path class="st6" d="M86.54,165.65c0,1.18.96,2.13,2.14,2.12,1.18,0,2.13-.96,2.12-2.14,0-1.18-.96-2.13-2.14-2.12-1.18,0-2.13.96-2.12,2.14Z"/>
        </g>
        <g id="_ฟอง2" data-name="ฟอง" class="st12">
          <path class="st6" d="M201.14,178.07c.01,3.26,2.67,5.88,5.92,5.87s5.88-2.67,5.87-5.92c-.01-3.26-2.67-5.88-5.92-5.87s-5.88,2.67-5.87,5.92Z"/>
          <path class="st6" d="M167.17,170.35c0,1.09.89,1.97,1.99,1.97,1.09,0,1.97-.89,1.97-1.99,0-1.09-.89-1.97-1.99-1.97-1.09,0-1.97.89-1.97,1.99Z"/>
          <path class="st6" d="M179.98,199.65c0,1.21.99,2.18,2.19,2.17,1.21,0,2.18-.99,2.17-2.19,0-1.21-.99-2.18-2.19-2.17-1.21,0-2.18.99-2.17,2.19Z"/>
          <path class="st6" d="M146.25,203.58c0,2.09,1.71,3.78,3.8,3.77,2.09,0,3.78-1.71,3.77-3.8,0-2.09-1.71-3.78-3.8-3.77-2.09,0-3.78,1.71-3.77,3.8Z"/>
          <path class="st6" d="M140.23,175.39c0,1.63,1.33,2.94,2.96,2.93,1.63,0,2.94-1.33,2.93-2.96,0-1.63-1.33-2.94-2.96-2.93-1.63,0-2.94,1.33-2.93,2.96Z"/>
          <path class="st6" d="M167.43,229.65c0,1.09.89,1.97,1.99,1.97,1.09,0,1.97-.89,1.97-1.99,0-1.09-.89-1.97-1.99-1.97-1.09,0-1.97.89-1.97,1.99Z"/>
          <path class="st6" d="M195.9,215.75c0,1.49,1.22,2.7,2.72,2.69,1.49,0,2.7-1.22,2.69-2.72,0-1.49-1.22-2.7-2.72-2.69-1.49,0-2.7,1.22-2.69,2.72Z"/>
          <path class="st6" d="M186.72,249.77c.01,3.32,2.72,6,6.04,5.99s6-2.72,5.99-6.04c-.01-3.32-2.72-6-6.04-5.99-3.32.01-6,2.72-5.99,6.04Z"/>
          <path class="st6" d="M150.16,231.61c0,1.04.86,1.89,1.9,1.88,1.04,0,1.89-.86,1.88-1.9,0-1.04-.86-1.89-1.9-1.88-1.04,0-1.89.86-1.88,1.9Z"/>
          <path class="st6" d="M162.97,186.27c0,1.18.96,2.13,2.14,2.12,1.18,0,2.13-.96,2.12-2.14,0-1.18-.96-2.13-2.14-2.12-1.18,0-2.13.96-2.12,2.14Z"/>
        </g>
      </g>
    </g>
  </g>
  <path id="_ฝา" data-name="ฝา" class="st16" d="M174.89,68.57v-1.07c1.01-.19,1.77-1.08,1.77-2.14s-.76-1.95-1.77-2.14v-.62c0-2.01-1.63-3.64-3.64-3.64h-91.85c-2.01,0-3.64,1.63-3.64,3.64v.62c-1.01.19-1.77,1.08-1.77,2.14s.76,1.95,1.77,2.14v1.07c-1.01.19-1.77,1.08-1.77,2.14s.76,1.95,1.77,2.14v.76c0,2.01,1.63,3.64,3.64,3.64h91.85c2.01,0,3.64-1.63,3.64-3.64v-.76c1.01-.19,1.77-1.08,1.77-2.14s-.76-1.95-1.77-2.14Z"/>
  <g id="_หน้า" data-name="หน้า">
    <g id="_ปาก" data-name="ปาก">
      <line class="st1" x1="119.01" y1="159.97" x2="124.48" y2="165.43"/>
      <line class="st1" x1="129.94" y1="159.97" x2="124.48" y2="165.43"/>
    </g>
    <g id="_แก้ม" data-name="แก้ม">
      <circle id="_ซ้าย" data-name="ซ้าย" class="st17" cx="93.09" cy="157.3" r="9.92"/>
      <circle id="_ขวา" data-name="ขวา" class="st17" cx="157.55" cy="157.93" r="9.92"/>
    </g>
    <g id="_ตา" data-name="ตา">
      <circle id="_ซ้าย1" data-name="ซ้าย" cx="103.67" cy="149.45" r="3.99"/>
      <circle id="_ขวา1" data-name="ขวา" cx="146.76" cy="149.45" r="3.99"/>
      <circle class="st9" cx="103.77" cy="147.67" r="1.79"/>
      <circle class="st9" cx="146.87" cy="147.67" r="1.79"/>
    </g>
  </g>
</svg>