<?xml version="1.0" encoding="UTF-8"?>
<svg id="Layer_39" xmlns="http://www.w3.org/2000/svg" xmlns:xlink="http://www.w3.org/1999/xlink" version="1.1" viewBox="0 0 243.18 284.53">
  <!-- Generator: Adobe Illustrator 30.0.0, SVG Export Plug-In . SVG Version: 2.1.1 Build 123)  -->
  <defs>
    <style>
      .st0, .st1 {
        fill: none;
      }

      .st1 {
        stroke: #000;
        stroke-linecap: round;
        stroke-linejoin: round;
        stroke-width: 2.49px;
      }

      .st2 {
        fill: url(#linear-gradient);
      }

      .st3 {
        opacity: .4;
      }

      .st3, .st4 {
        fill: #fff;
      }

      .st5 {
        fill: #ffed9f;
      }

      .st6 {
        opacity: .8;
      }

      .st7 {
        opacity: .7;
      }

      .st8 {
        fill: #fff3b9;
      }

      .st9 {
        fill: #ffed03;
      }

      .st10 {
        fill: #ffe133;
      }

      .st11 {
        fill: #fcfad6;
      }

      .st12 {
        clip-path: url(#clippath);
      }
    </style>
    <clipPath id="clippath">
      <path class="st0" d="M141.18,269.51h-59.09c-13.61,0-25.2-9.88-27.37-23.31L29.93,92.28c-.79-4.93,3.01-9.4,8.01-9.4h147.41c4.99,0,8.8,4.47,8.01,9.4l-24.8,153.92c-2.16,13.43-13.76,23.31-27.37,23.31Z"/>
    </clipPath>
    <linearGradient id="linear-gradient" x1="110.42" y1="294.48" x2="110.42" y2="59.48" gradientUnits="userSpaceOnUse">
      <stop offset=".57" stop-color="#fff"/>
      <stop offset="1" stop-color="#ffe98d"/>
    </linearGradient>
  </defs>
  <polygon points="180.76 120.39 173.92 108.27 160.01 108.13 151.52 93.06 158.49 81.27 151.76 69.33 160.56 54.45 174.69 54.59 181.56 42.98 198.85 43.16 205.47 54.91 219.48 55.06 227.97 70.12 220.99 81.91 227.72 93.85 218.92 108.74 205.13 108.59 198.05 120.57 180.76 120.39"/>
  <polygon class="st4" points="224.66 70.09 217.79 57.9 203.81 57.76 203.8 57.77 197.17 46.01 183.18 45.86 176.24 57.6 176.17 57.47 162.19 57.33 155.07 69.37 161.8 81.3 154.82 93.1 161.69 105.28 175.61 105.43 182.44 117.55 196.43 117.69 203.51 105.71 217.3 105.86 224.42 93.82 217.69 81.88 224.66 70.09"/>
  <g>
    <g>
      <g id="_กรอบ" data-name="กรอบ">
        <polygon class="st8" points="196.68 93.47 182.69 93.32 175.57 105.36 182.44 117.55 196.43 117.69 203.54 105.65 196.68 93.47"/>
      </g>
      <g id="_ใน" data-name="ใน">
        <polygon class="st9" points="195.85 94.86 183.48 94.73 177.19 105.38 183.26 116.15 195.63 116.28 201.92 105.64 195.85 94.86"/>
      </g>
      <g id="_สะท้อน" data-name="สะท้อน">
        <g>
          <ellipse class="st11" cx="190.48" cy="104.3" rx="7.47" ry="9.72" transform="translate(-23.5 141.35) rotate(-38.53)"/>
          <ellipse class="st11" cx="182.55" cy="110.64" rx="1.25" ry="3.31" transform="translate(-29.18 137.79) rotate(-38.53)"/>
        </g>
      </g>
      <g id="_วิ้งๆ" data-name="วิ้งๆ">
        <rect class="st4" x="194.19" y="96.22" width="2.81" height="7.45" rx="1.4" ry="1.4" transform="translate(-23.87 108.92) rotate(-29.41)"/>
        <rect class="st4" x="197.04" y="103.7" width="2.76" height="2.8" rx="1.38" ry="1.38" transform="translate(-26.04 110.97) rotate(-29.41)"/>
      </g>
    </g>
    <g>
      <g id="_กรอบ1" data-name="กรอบ">
        <polygon class="st8" points="197.17 46.01 183.18 45.86 176.06 57.91 182.93 70.09 196.92 70.24 204.03 58.19 197.17 46.01"/>
      </g>
      <g id="_ใน1" data-name="ใน">
        <polygon class="st9" points="196.34 47.4 183.97 47.28 177.68 57.92 183.75 68.7 196.12 68.82 202.41 58.18 196.34 47.4"/>
      </g>
      <g id="_สะท้อน1" data-name="สะท้อน">
        <g>
          <ellipse class="st11" cx="190.97" cy="56.84" rx="7.47" ry="9.72" transform="translate(6.17 131.32) rotate(-38.53)"/>
          <ellipse class="st11" cx="183.04" cy="63.18" rx="1.25" ry="3.31" transform="translate(.49 127.77) rotate(-38.53)"/>
        </g>
      </g>
      <g id="_วิ้งๆ1" data-name="วิ้งๆ">
        <rect class="st4" x="194.68" y="48.76" width="2.81" height="7.45" rx="1.4" ry="1.4" transform="translate(-.5 103.04) rotate(-29.41)"/>
        <rect class="st4" x="197.53" y="56.25" width="2.76" height="2.8" rx="1.38" ry="1.38" transform="translate(-2.68 105.1) rotate(-29.41)"/>
      </g>
    </g>
    <g>
      <g id="_กรอบ2" data-name="กรอบ">
        <polygon class="st8" points="196.93 69.24 182.94 69.1 175.82 81.14 182.69 93.32 196.68 93.47 203.79 81.43 196.93 69.24"/>
      </g>
      <g id="_ใน2" data-name="ใน">
        <polygon class="st9" points="196.1 70.64 183.73 70.51 177.44 81.15 183.51 91.93 195.88 92.06 202.17 81.41 196.1 70.64"/>
      </g>
      <g id="_สะท้อน2" data-name="สะท้อน">
        <g>
          <ellipse class="st11" cx="190.73" cy="80.07" rx="7.47" ry="9.72" transform="translate(-8.36 136.23) rotate(-38.53)"/>
          <ellipse class="st11" cx="182.8" cy="86.41" rx="1.25" ry="3.31" transform="translate(-14.03 132.67) rotate(-38.53)"/>
        </g>
      </g>
      <g id="_วิ้งๆ2" data-name="วิ้งๆ">
        <rect class="st4" x="194.44" y="71.99" width="2.81" height="7.45" rx="1.4" ry="1.4" transform="translate(-11.94 105.92) rotate(-29.41)"/>
        <rect class="st4" x="197.29" y="79.48" width="2.76" height="2.8" rx="1.38" ry="1.38" transform="translate(-14.11 107.97) rotate(-29.41)"/>
      </g>
    </g>
    <g>
      <g id="_กรอบ3" data-name="กรอบ">
        <polygon class="st8" points="217.55 81.63 203.56 81.49 196.44 93.53 203.31 105.71 217.3 105.86 224.42 93.82 217.55 81.63"/>
      </g>
      <g id="_ใน3" data-name="ใน">
        <polygon class="st9" points="216.72 83.03 204.36 82.9 198.06 93.54 204.14 104.32 216.5 104.45 222.8 93.8 216.72 83.03"/>
      </g>
      <g id="_สะท้อน3" data-name="สะท้อน">
        <g>
          <ellipse class="st11" cx="211.35" cy="92.46" rx="7.47" ry="9.72" transform="translate(-11.59 151.77) rotate(-38.53)"/>
          <ellipse class="st11" cx="203.42" cy="98.8" rx="1.25" ry="3.31" transform="translate(-17.26 148.22) rotate(-38.53)"/>
        </g>
      </g>
      <g id="_วิ้งๆ3" data-name="วิ้งๆ">
        <rect class="st4" x="215.06" y="84.38" width="2.81" height="7.45" rx="1.4" ry="1.4" transform="translate(-15.37 117.64) rotate(-29.41)"/>
        <rect class="st4" x="217.91" y="91.87" width="2.76" height="2.8" rx="1.38" ry="1.38" transform="translate(-17.54 119.7) rotate(-29.41)"/>
      </g>
    </g>
    <g>
      <g id="_กรอบ4" data-name="กรอบ">
        <polygon class="st8" points="175.93 81.2 161.94 81.06 154.82 93.1 161.69 105.28 175.68 105.43 182.8 93.39 175.93 81.2"/>
      </g>
      <g id="_ใน4" data-name="ใน">
        <polygon class="st9" points="175.1 82.6 162.74 82.47 156.44 93.11 162.52 103.89 174.88 104.02 181.18 93.37 175.1 82.6"/>
      </g>
      <g id="_สะท้อน4" data-name="สะท้อน">
        <g>
          <ellipse class="st11" cx="169.73" cy="92.03" rx="7.47" ry="9.72" transform="translate(-20.38 125.76) rotate(-38.53)"/>
          <ellipse class="st11" cx="161.8" cy="98.37" rx="1.25" ry="3.31" transform="translate(-26.05 122.2) rotate(-38.53)"/>
        </g>
      </g>
      <g id="_วิ้งๆ4" data-name="วิ้งๆ">
        <rect class="st4" x="173.44" y="83.95" width="2.81" height="7.45" rx="1.4" ry="1.4" transform="translate(-20.52 97.15) rotate(-29.41)"/>
        <rect class="st4" x="176.29" y="91.44" width="2.76" height="2.8" rx="1.38" ry="1.38" transform="translate(-22.69 99.2) rotate(-29.41)"/>
      </g>
    </g>
    <g>
      <g id="_กรอบ5" data-name="กรอบ">
        <polygon class="st8" points="217.79 57.9 203.81 57.76 196.69 69.8 203.56 81.98 217.54 82.13 224.66 70.09 217.79 57.9"/>
      </g>
      <g id="_ใน5" data-name="ใน">
        <polygon class="st9" points="216.97 59.3 204.6 59.17 198.31 69.81 204.38 80.59 216.75 80.72 223.04 70.07 216.97 59.3"/>
      </g>
      <g id="_สะท้อน5" data-name="สะท้อน">
        <g>
          <ellipse class="st11" cx="211.59" cy="68.73" rx="7.47" ry="9.72" transform="translate(3.25 146.76) rotate(-38.53)"/>
          <ellipse class="st11" cx="203.67" cy="75.07" rx="1.25" ry="3.31" transform="translate(-2.42 143.2) rotate(-38.53)"/>
        </g>
      </g>
      <g id="_วิ้งๆ5" data-name="วิ้งๆ">
        <rect class="st4" x="215.3" y="60.65" width="2.81" height="7.45" rx="1.4" ry="1.4" transform="translate(-3.69 114.7) rotate(-29.41)"/>
        <rect class="st4" x="218.16" y="68.14" width="2.76" height="2.8" rx="1.38" ry="1.38" transform="translate(-5.86 116.76) rotate(-29.41)"/>
      </g>
    </g>
    <g>
      <g id="_กรอบ6" data-name="กรอบ">
        <polygon class="st8" points="176.17 57.47 162.19 57.33 155.07 69.37 161.94 81.55 175.92 81.7 183.04 69.66 176.17 57.47"/>
      </g>
      <g id="_ใน6" data-name="ใน">
        <polygon class="st9" points="175.35 58.87 162.98 58.74 156.69 69.38 162.76 80.16 175.13 80.29 181.42 69.64 175.35 58.87"/>
      </g>
      <g id="_สะท้อน6" data-name="สะท้อน">
        <g>
          <ellipse class="st11" cx="169.97" cy="68.3" rx="7.47" ry="9.72" transform="translate(-5.54 120.74) rotate(-38.53)"/>
          <ellipse class="st11" cx="162.05" cy="74.64" rx="1.25" ry="3.31" transform="translate(-11.22 117.19) rotate(-38.53)"/>
        </g>
      </g>
      <g id="_วิ้งๆ6" data-name="วิ้งๆ">
        <rect class="st4" x="173.68" y="60.22" width="2.81" height="7.45" rx="1.4" ry="1.4" transform="translate(-8.84 94.21) rotate(-29.41)"/>
        <rect class="st4" x="176.54" y="67.71" width="2.76" height="2.8" rx="1.38" ry="1.38" transform="translate(-11.01 96.27) rotate(-29.41)"/>
      </g>
    </g>
  </g>
  <path d="M82.1,272.38c-2.31,0-4.61-.26-6.84-.77-11.61-2.66-20.67-11.91-23.1-23.57-.09-.46-.18-.92-.25-1.38L30.94,116.56l-3.85-23.88v-.03s-.1-.57-.1-.57c-.06-.39-.1-.8-.12-1.2-.13-2.76.83-5.41,2.7-7.46,1.3-1.43,2.97-2.47,4.82-3,.93-.27,1.89-.4,2.87-.4h148.76c.78,0,1.56.09,2.32.26,2.4.54,4.54,1.94,6.02,3.93,1.35,1.81,2.06,3.96,2.06,6.21,0,.56-.05,1.11-.13,1.66l-24.91,154.59c-1.5,9.3-7.09,17.27-15.33,21.86-4.53,2.52-9.67,3.86-14.86,3.86h-59.09Z"/>
  <path class="st4" d="M193.55,90.41c0-1.67-.55-3.23-1.49-4.49-1.05-1.4-2.57-2.44-4.36-2.85-.54-.12-1.1-.19-1.68-.19h-.66s0,0,0,0H37.93s0,0,0,0h-.66c-.73,0-1.42.1-2.08.29-1.37.39-2.56,1.16-3.49,2.17-1.3,1.43-2.05,3.34-1.96,5.4.01.29.04.58.09.87l.1.62s0,.03,0,.04l3.84,23.82,20.96,130.1c.07.42.14.84.23,1.25,2.23,10.73,10.53,18.98,20.93,21.36,2,.46,4.08.7,6.2.7h0s0,0,0,0h59.09c4.86,0,9.46-1.27,13.47-3.5,7.21-4.02,12.51-11.18,13.9-19.81l14.68-91.11h0s1.36-8.44,1.36-8.44h0l8.87-55.04c.07-.41.1-.81.1-1.2Z"/>
  <path id="_แก้วฟ้าฐาน" data-name="แก้วฟ้าฐาน" class="st4" d="M141.18,269.51h-59.09c-13.61,0-25.2-9.88-27.37-23.31L29.82,91.62c-.74-4.58,2.8-8.73,7.44-8.73h148.76c4.64,0,8.18,4.15,7.44,8.73l-24.91,154.59c-2.16,13.43-13.76,23.31-27.37,23.31Z"/>
  <g class="st12">
    <path id="_นมใน" data-name="นมใน" class="st5" d="M186.94,148.68s-11.63-12.57-45.52-16.2c-33.89-3.63-78.4,14.25-78.4,14.25l104.2,11.73,25.29-5.31-5.56-4.47Z"/>
  </g>
  <path id="_นม" data-name="นม" class="st2" d="M184.03,150.12l-15.48,96.09c-2.16,13.43-13.76,23.31-27.36,23.31h-59.09c-13.61,0-25.2-9.88-27.37-23.31l-17.91-111.16c14.39-6.34,39.97-11.77,70.62,7.34,31.71,19.78,60.7,13.91,76.59,7.73Z"/>
  <path id="_แก้วฟ้าใส" data-name="แก้วฟ้าใส" class="st3" d="M193.35,92.28l-9.32,57.84c-15.89,6.18-44.89,12.05-76.59-7.73-30.65-19.12-56.23-13.68-70.62-7.34l-6.89-42.76c-.79-4.93,3.01-9.4,8-9.4h147.42c4.99,0,8.8,4.47,8,9.4Z"/>
  <g id="_รอยใส" data-name="รอยใส" class="st6">
    <rect class="st4" x="172.42" y="107.75" width="12.76" height="25.99" rx="6.38" ry="6.38" transform="translate(23.54 -29.06) rotate(9.94)"/>
    <circle class="st4" cx="175.13" cy="140.98" r="5.2"/>
  </g>
  <path class="st10" d="M193.46,91.62l-.77,4.75c-2.43-1.35-5.08-2.91-8.14-4.46-8.94-4.52-20.98-2.42-15.63,7.76,3.64,6.9,1.1,11.6-3.72,11.6-5.6,0-6.95-3.93-3.89-11.57,2.13-5.34-8.17-8.53-15.49-3-5.6,4.23-7.96,9.86-15.59,9.86-8.92,0-12-8.41-21.11-11.47-8.42-2.83-19.16,2.21-14.29,11.47,3.62,6.87-.43,10.88-5.6,10.88-8.09,0-9.11-6.57-5.2-13.17,4.95-8.36-8.92-11.98-18.29-8.79-9.02,3.07-11.29,7.01-24.25,8.79-3.37.47-6.66.23-9.7-.37l-1.98-12.27c-.74-4.58,2.8-8.73,7.44-8.73h148.76c4.64,0,8.18,4.15,7.44,8.73Z"/>
  <g id="_หน้า" data-name="หน้า">
    <g id="_ปาก" data-name="ปาก">
      <line class="st1" x1="103.18" y1="196.88" x2="110.38" y2="204.08"/>
      <line class="st1" x1="117.57" y1="196.88" x2="110.38" y2="204.08"/>
    </g>
    <g id="_แก้ม" data-name="แก้ม">
      <circle id="_ซ้าย" data-name="ซ้าย" class="st10" cx="69.04" cy="193.37" r="13.06"/>
      <circle id="_ขวา" data-name="ขวา" class="st10" cx="153.92" cy="194.2" r="13.06"/>
    </g>
    <g id="_ตา" data-name="ตา">
      <circle id="_ซ้าย1" data-name="ซ้าย" cx="82.97" cy="183.04" r="5.26"/>
      <circle id="_ขวา1" data-name="ขวา" cx="139.72" cy="183.04" r="5.26"/>
      <circle class="st4" cx="83.11" cy="180.69" r="2.35"/>
      <circle class="st4" cx="139.86" cy="180.69" r="2.35"/>
    </g>
  </g>
  <g id="_ควัน" data-name="ควัน" class="st7">
    <g>
      <path class="st4" d="M127.4,32.58c-.85,1.07-1.72,2.03-2.8,2.99-1.09,1.01-2.26,2.03-3.5,3.1-2.42,2.17-5.12,4.64-7.15,8.05-2.06,3.38-2.95,7.71-2.39,11.51.49,3.85,2.09,7.25,4.18,10.06,2.13,2.79,4.71,5.13,7.68,6.67-3.54-5.59-5.85-11.65-5.53-17.05.17-2.69.99-4.97,2.49-7.01,1.48-2.07,3.63-4.01,6.03-6.11,4.63-3.96,11.16-10.32,10.33-19.22-.26-2.16-1.15-4.3-2.51-5.89-1.35-1.6-2.96-2.68-4.51-3.46-3.15-1.55-6.09-2.31-8.94-4.06,1.57,3.05,4.58,5.14,6.68,7.32,2.24,2.16,3.24,4.3,2.99,6.46-.17,2.16-1.37,4.54-3.04,6.65Z"/>
      <path class="st4" d="M105.79,70.45c-2.65-3.61-4.58-7.55-5.07-11.56-.48-4,.74-7.82,3.33-10.74,2.68-3.02,6.33-5.96,8.9-9.92,1.28-1.96,2.41-4.3,2.36-6.9-.11-2.64-1.76-4.75-3.63-5.92,1.29,1.86,2.07,3.92,1.66,5.8-.36,1.88-1.57,3.54-2.89,5.1-2.76,3.15-6.18,5.65-9.44,9.15-1.58,1.89-2.85,4.15-3.46,6.61-.57,2.46-.58,5.05.07,7.4,1.23,4.74,4.37,8.59,8.16,10.95Z"/>
      <path class="st4" d="M131.3,51.07c-1.2,1.84-2,4.01-2.2,6.22-.17,2.21.11,4.41.86,6.38,1.45,3.96,4.24,7.16,7.6,9.14-2.21-3.21-3.89-6.58-4.57-10.02-.69-3.44-.12-6.77,1.67-9.48,1.8-2.72,4.85-5.11,7.47-8.11,1.32-1.5,2.54-3.24,3.24-5.24.68-2.01.69-4.21-.02-6.04-.25,4.05-2.62,6.72-5.41,9.03-2.76,2.38-6.12,4.45-8.63,8.12Z"/>
    </g>
  </g>
</svg>