<?xml version="1.0" encoding="UTF-8"?>
<svg id="Layer_19" xmlns="http://www.w3.org/2000/svg" xmlns:xlink="http://www.w3.org/1999/xlink" version="1.1" viewBox="0 0 267.9 284.53">
  <!-- Generator: Adobe Illustrator 30.0.0, SVG Export Plug-In . SVG Version: 2.1.1 Build 123)  -->
  <defs>
    <style>
      .st0, .st1, .st2 {
        fill: none;
      }

      .st3 {
        fill: #67d300;
      }

      .st4 {
        fill: #fff7c0;
      }

      .st5 {
        stroke-width: 2.63px;
      }

      .st5, .st6 {
        fill: #fff4b3;
        stroke: #ffd385;
        stroke-miterlimit: 10;
      }

      .st6 {
        stroke-width: 2.98px;
      }

      .st7 {
        fill: url(#linear-gradient);
      }

      .st8, .st9, .st10, .st11, .st12, .st13 {
        fill: #fff;
      }

      .st8, .st14 {
        opacity: .8;
      }

      .st15 {
        fill: #f7bd03;
      }

      .st1 {
        stroke: #000;
        stroke-width: 1.89px;
      }

      .st1, .st2 {
        stroke-linecap: round;
        stroke-linejoin: round;
      }

      .st16 {
        fill: #e9f9d7;
      }

      .st17 {
        fill: #ffe45c;
      }

      .st18 {
        opacity: .7;
      }

      .st19 {
        fill: #b9f91c;
      }

      .st20 {
        fill: #d5ff92;
      }

      .st10 {
        filter: url(#outer-glow-1);
      }

      .st11 {
        filter: url(#outer-glow-4);
      }

      .st12 {
        filter: url(#outer-glow-2);
      }

      .st13 {
        filter: url(#outer-glow-3);
      }

      .st2 {
        stroke: #d5ff92;
        stroke-width: 16.98px;
      }

      .st21 {
        clip-path: url(#clippath);
      }
    </style>
    <linearGradient id="linear-gradient" x1="125.32" y1="138.06" x2="125.32" y2="256.97" gradientUnits="userSpaceOnUse">
      <stop offset=".15" stop-color="#fffdae"/>
      <stop offset=".46" stop-color="#f8fa1a"/>
      <stop offset=".92" stop-color="#ffd204"/>
    </linearGradient>
    <clipPath id="clippath">
      <path id="_แก้ว2" data-name="แก้ว" class="st0" d="M168.13,76.7h-85.62c-8.03,8.03-12.53,12.53-20.56,20.56h0v123.08h0c8.03,8.03,12.53,12.53,20.56,20.56h85.62c8.03-8.03,12.53-12.53,20.56-20.56h0v-123.08h0c-8.03-8.03-12.53-12.53-20.56-20.56Z"/>
    </clipPath>
    <filter id="outer-glow-1" x="90.68" y="166.53" width="108.96" height="90.24" filterUnits="userSpaceOnUse">
      <feOffset dx="0" dy="0"/>
      <feGaussianBlur result="blur" stdDeviation="7.28"/>
      <feFlood flood-color="#fff" flood-opacity="1"/>
      <feComposite in2="blur" operator="in"/>
      <feComposite in="SourceGraphic"/>
    </filter>
    <filter id="outer-glow-2" x="90.68" y="166.53" width="108.96" height="90.24" filterUnits="userSpaceOnUse">
      <feOffset dx="0" dy="0"/>
      <feGaussianBlur result="blur1" stdDeviation="7.28"/>
      <feFlood flood-color="#fff" flood-opacity="1"/>
      <feComposite in2="blur1" operator="in"/>
      <feComposite in="SourceGraphic"/>
    </filter>
    <filter id="outer-glow-3" x="58.96" y="145.6" width="93.6" height="76.08" filterUnits="userSpaceOnUse">
      <feOffset dx="0" dy="0"/>
      <feGaussianBlur result="blur2" stdDeviation="6.81"/>
      <feFlood flood-color="#fff" flood-opacity="1"/>
      <feComposite in2="blur2" operator="in"/>
      <feComposite in="SourceGraphic"/>
    </filter>
    <filter id="outer-glow-4" x="58.96" y="145.6" width="93.6" height="76.08" filterUnits="userSpaceOnUse">
      <feOffset dx="0" dy="0"/>
      <feGaussianBlur result="blur3" stdDeviation="6.81"/>
      <feFlood flood-color="#fff" flood-opacity="1"/>
      <feComposite in2="blur3" operator="in"/>
      <feComposite in="SourceGraphic"/>
    </filter>
  </defs>
  <g id="_เส้นมะนาว" data-name="เส้นมะนาว">
    <path d="M81.42,105.09c-22.5,0-40.81-18.31-40.81-40.81s18.31-40.81,40.81-40.81,40.81,18.31,40.81,40.81-18.31,40.81-40.81,40.81Z"/>
    <circle class="st9" cx="81.42" cy="64.27" r="38.39"/>
  </g>
  <g id="_มะนาวเต็ม" data-name="มะนาวเต็ม">
    <circle class="st3" cx="81.42" cy="64.27" r="38.39"/>
    <circle class="st16" cx="81.42" cy="64.27" r="34.91"/>
    <g>
      <g id="_x3C_Radial_Repeat_x3E_">
        <path class="st19" d="M79.72,66.9l-17.27,22.08c-.66.84-.56,1.95.21,2.22l16.65,5.82c.77.27,1.54-.54,1.55-1.61l.25-28.03c0-.63-.99-.98-1.38-.48Z"/>
      </g>
      <g id="_x3C_Radial_Repeat_x3E_1" data-name="_x3C_Radial_Repeat_x3E_">
        <path class="st19" d="M78.43,65.2l-27.42,5.81c-1.05.22-1.69,1.13-1.27,1.84l9.01,15.16c.42.71,1.53.58,2.22-.24l18.21-21.31c.41-.48-.13-1.39-.75-1.26Z"/>
      </g>
      <g id="_x3C_Radial_Repeat_x3E_2" data-name="_x3C_Radial_Repeat_x3E_">
        <path class="st19" d="M78.54,63.06l-24.74-13.17c-.94-.5-2.02-.22-2.15.59l-2.84,17.41c-.13.81.8,1.42,1.85,1.25l27.65-4.63c.62-.1.79-1.15.24-1.45Z"/>
      </g>
      <g id="_x3C_Radial_Repeat_x3E_3" data-name="_x3C_Radial_Repeat_x3E_">
        <path class="st19" d="M79.99,61.49l-10.49-26c-.4-.99-1.41-1.46-2.03-.93l-13.36,11.51c-.62.54-.3,1.6.62,2.15l24.15,14.23c.54.32,1.35-.37,1.11-.96Z"/>
      </g>
      <g id="_x3C_Radial_Repeat_x3E_4" data-name="_x3C_Radial_Repeat_x3E_">
        <path class="st19" d="M82.11,61.23l8.68-26.65c.33-1.02-.14-2.03-.96-2.02l-17.63.23c-.82.01-1.26,1.03-.91,2.04l9.36,26.42c.21.6,1.27.58,1.47-.02Z"/>
      </g>
      <g id="_x3C_Radial_Repeat_x3E_5" data-name="_x3C_Radial_Repeat_x3E_">
        <path class="st19" d="M83.91,62.39l23.78-14.84c.91-.57,1.2-1.64.56-2.16l-13.65-11.16c-.64-.52-1.63-.02-2.01.98l-9.82,26.26c-.22.59.6,1.26,1.13.93Z"/>
      </g>
      <g id="_x3C_Radial_Repeat_x3E_6" data-name="_x3C_Radial_Repeat_x3E_">
        <path class="st19" d="M84.54,64.43l27.76,3.92c1.06.15,1.97-.49,1.82-1.29l-3.28-17.33c-.15-.81-1.24-1.06-2.17-.54l-24.4,13.8c-.55.31-.35,1.35.27,1.44Z"/>
      </g>
      <g id="_x3C_Radial_Repeat_x3E_7" data-name="_x3C_Radial_Repeat_x3E_">
        <path class="st19" d="M83.71,66.4l18.75,20.84c.72.8,1.82.89,2.23.18l8.62-15.39c.4-.72-.26-1.61-1.31-1.8l-27.56-5.11c-.62-.12-1.14.81-.72,1.28Z"/>
      </g>
      <g id="_x3C_Radial_Repeat_x3E_8" data-name="_x3C_Radial_Repeat_x3E_">
        <path class="st19" d="M81.81,67.37l.96,28.01c.04,1.07.82,1.86,1.59,1.57l16.49-6.24c.77-.29.83-1.4.15-2.23l-17.83-21.63c-.4-.49-1.39-.11-1.37.52Z"/>
      </g>
    </g>
  </g>
  <g id="_เส้นแก้ว" data-name="เส้นแก้ว">
    <path d="M79.39,261.07c-3.35,0-6.07-2.72-6.07-6.07v-11.02c0-2.39,1.38-4.45,3.39-5.45l-17.19-17.19v-125.09l17.19-17.19c-1.79-.88-3.08-2.63-3.34-4.68-1.11-.85-1.82-2.19-1.82-3.67,0-.99.32-1.92.86-2.68-.54-.76-.86-1.69-.86-2.68,0-1.49.71-2.83,1.84-3.68.44-2.91,2.97-5.15,6-5.15h74.35l5.85-24.52,1.24-.44c1.1-.39,2.37-.59,3.78-.59,5.12,0,10.92,2.63,11.16,2.74l1.82.84-5.4,22.05c2.6.41,4.66,2.47,5.06,5.08,1.13.85,1.84,2.2,1.84,3.68,0,.99-.32,1.92-.86,2.68.54.76.86,1.69.86,2.68,0,1.48-.7,2.82-1.82,3.67-.26,2.06-1.55,3.8-3.34,4.68l17.19,17.19v5.92h25.27c6.02,0,10.92,4.9,10.92,10.92v91.39c0,6.02-4.9,10.92-10.92,10.92h-25.27v5.93l-17.19,17.19c2.01.99,3.39,3.06,3.39,5.45v11.02c0,3.35-2.72,6.07-6.07,6.07h-91.85ZM205.46,193.58v-69.56h-14.35v69.56h14.35Z"/>
    <path class="st9" d="M216.38,104.61h-27.69v-7.35h0c-7.84-7.84-12.32-12.32-20-20h2.55c2.01,0,3.64-1.63,3.64-3.64v-.76c1.01-.19,1.77-1.08,1.77-2.14s-.76-1.95-1.77-2.14v-1.07c1.01-.19,1.77-1.08,1.77-2.14s-.76-1.95-1.77-2.14v-.62c0-2.01-1.63-3.64-3.64-3.64h-2.13l2.99-12.19,2.66-10.84s-8.28-3.8-13.12-2.07l-3.78,15.85-2.21,9.25h-76.26c-2.01,0-3.64,1.63-3.64,3.64v.62c-1.01.19-1.77,1.08-1.77,2.14s.76,1.95,1.77,2.14v1.07c-1.01.19-1.77,1.08-1.77,2.14s.76,1.95,1.77,2.14v.76c0,2.01,1.63,3.64,3.64,3.64h2.55c-7.68,7.68-12.16,12.16-20,20h0v123.08h0c7.84,7.84,12.32,12.32,20,20h-2.55c-2.01,0-3.64,1.63-3.64,3.64v11.02c0,2.01,1.63,3.64,3.64,3.64h91.85c2.01,0,3.64-1.63,3.64-3.64v-11.02c0-2.01-1.63-3.64-3.64-3.64h-2.55c7.68-7.68,12.16-12.16,20-20h0v-7.36h27.69c4.69,0,8.49-3.8,8.49-8.49v-91.39c0-4.69-3.8-8.49-8.49-8.49ZM207.89,196h-19.2v-74.41h19.2v74.41Z"/>
  </g>
  <rect id="_หูแก้ว" data-name="หูแก้ว" class="st2" x="168.36" y="113.1" width="48.02" height="91.39"/>
  <rect id="_ฐาน" data-name="ฐาน" class="st20" x="75.75" y="240.34" width="99.14" height="18.31" rx="3.64" ry="3.64"/>
  <path id="_แก้ว" data-name="แก้ว" class="st20" d="M168.13,76.7h-85.62c-8.03,8.03-12.53,12.53-20.56,20.56h0v123.08h0c8.03,8.03,12.53,12.53,20.56,20.56h85.62c8.03-8.03,12.53-12.53,20.56-20.56h0v-123.08h0c-8.03-8.03-12.53-12.53-20.56-20.56Z"/>
  <g id="_หลอด" data-name="หลอด">
    <g>
      <path class="st4" d="M172.1,46.77l2.66-10.84s-8.28-3.8-13.12-2.07l-3.78,15.85c4.86.35,9.79-.79,14.24-2.94Z"/>
      <path class="st4" d="M162.75,80.8h.99s.02-.01.03-.02l4.66-19.02c-4.52,2.13-9.42,3.63-14.32,3.69l-4.26,17.87c4.41.07,8.79-.77,12.9-2.53Z"/>
      <path class="st4" d="M155.59,114.13l4.46-18.19c-4.3,2.24-9.21,3.35-13.97,3.16l-4.3,18.01c4.74.16,9.41-1.09,13.81-2.97Z"/>
      <path class="st4" d="M147.16,148.53l4.17-17.01c-4.4,1.33-8.84,2.14-13.43,1.86l-4.21,17.65c4.69.75,9.26-.45,13.48-2.5Z"/>
      <path class="st4" d="M120.23,207.46s4.49,5.87,11.73,3.11l2.4-9.79c-4.11,2.7-8.76,4.45-13.64,4.63l-.49,2.05Z"/>
      <path class="st4" d="M129.25,169.64l-4.56,19.13c4.98-.1,9.57-1.77,13.68-4.33l4.26-17.4c-4.23,1.88-8.76,3.08-13.38,2.6Z"/>
    </g>
    <g>
      <path class="st15" d="M172.1,46.77c-4.45,2.15-9.38,3.29-14.24,2.94l-3.76,15.75c4.91-.07,9.81-1.56,14.32-3.69l3.67-14.99Z"/>
      <path class="st15" d="M142.63,167.04l4.53-18.5c-4.22,2.05-8.78,3.26-13.48,2.5l-4.44,18.6c4.61.47,9.15-.72,13.38-2.6Z"/>
      <path class="st15" d="M124.69,188.76l-3.97,16.64c4.88-.18,9.54-1.93,13.64-4.63l4-16.34c-4.11,2.56-8.7,4.23-13.68,4.33Z"/>
      <path class="st15" d="M141.78,117.11l-3.88,16.28c4.59.28,9.03-.53,13.43-1.86l4.26-17.39c-4.4,1.88-9.07,3.13-13.81,2.97Z"/>
      <path class="st15" d="M163.73,80.8h-.99c-4.12,1.76-8.5,2.61-12.9,2.53l-3.76,15.77c4.76.19,9.67-.91,13.97-3.16l3.71-15.16s-.02.01-.03.02Z"/>
    </g>
  </g>
  <path id="_แก้ว1" data-name="แก้ว" class="st8" d="M168.13,76.7h-85.62c-8.03,8.03-12.53,12.53-20.56,20.56h0v123.08h0c8.03,8.03,12.53,12.53,20.56,20.56h85.62c8.03-8.03,12.53-12.53,20.56-20.56h0v-123.08h0c-8.03-8.03-12.53-12.53-20.56-20.56Z"/>
  <path id="_น้ำ" data-name="น้ำ" class="st7" d="M61.95,156.01v64.33h0c8.03,8.03,12.53,12.53,20.56,20.56h85.62c8.03-8.03,12.53-12.53,20.56-20.56h0v-64.33H61.95Z"/>
  <g id="_ข้างในแก้ว" data-name="ข้างในแก้ว">
    <g class="st21">
      <g id="_ขิง2" data-name="ขิง2" class="st14">
        <circle class="st6" cx="165" cy="185.39" r="20.74"/>
        <circle class="st17" cx="165" cy="185.39" r="11.14"/>
      </g>
      <g id="_มะนาว2" data-name="มะนาว2" class="st18">
        <g>
          <path class="st10" d="M175.33,188.53l-2.84,1.13-2.24.89-23.97,9.53-4.65,1.85-23.92,9.51-2.35.94-2.84,1.13c6.91,17.31,26.54,25.75,43.86,18.87,17.32-6.89,25.8-26.5,18.94-43.83Z"/>
          <path class="st12" d="M175.33,188.53l-2.84,1.13-2.24.89-23.97,9.53-4.65,1.85-23.92,9.51-2.35.94-2.84,1.13c6.91,17.31,26.54,25.75,43.86,18.87,17.32-6.89,25.8-26.5,18.94-43.83Z"/>
        </g>
        <g id="_ครึ่งมะนาว" data-name="ครึ่งมะนาว">
          <path class="st3" d="M175.33,188.53c6.85,17.33-1.62,36.94-18.94,43.83-17.32,6.89-36.95-1.56-43.86-18.87l2.84-1.13c6.29,15.74,24.14,23.42,39.89,17.15,15.76-6.26,23.46-24.1,17.23-39.86l2.84-1.13Z"/>
          <path class="st16" d="M170.25,190.55l1.3,2.05c.39.61-.15,1.43-1.07,1.65l-23.98,5.82c-.07.02-.15.02-.22,0l-4.65,1.85c-.04.1-.11.18-.21.24l-21.11,12.78c-.81.49-1.77.29-1.92-.42l-.68-3.09-2.35.94c6.29,15.74,24.14,23.42,39.89,17.15,15.76-6.26,23.46-24.1,17.23-39.86l-2.24.89ZM133.08,227.74l-12.3-9.47c-.57-.44-.34-1.39.44-1.92l20.54-13.67c.46-.31,1.2.26,1.02.79l-7.96,23.36c-.3.89-1.17,1.36-1.74.92ZM153.57,226.61c.34.88-.02,1.79-.74,1.82l-15.51.65c-.72.03-1.16-.85-.89-1.75l6.95-23.68c.16-.53,1.09-.57,1.29-.05l8.91,23.01ZM168.4,216.27l-11.46,10.47c-.53.49-1.43.1-1.81-.77l-9.9-22.6c-.22-.51.46-1.14.95-.87l21.62,11.9c.82.45,1.13,1.39.6,1.87ZM172.51,196.94l-2.05,15.39c-.09.72-1.03,1-1.88.58l-22.11-10.95c-.5-.25-.38-1.17.17-1.28l24.21-4.78c.92-.18,1.76.33,1.66,1.05Z"/>
          <g>
            <g id="_x3C_Radial_Repeat_x3E_9" data-name="_x3C_Radial_Repeat_x3E_">
              <path class="st19" d="M144.66,203.6l8.91,23.01c.34.88-.02,1.79-.74,1.82l-15.51.65c-.72.03-1.16-.85-.89-1.75l6.95-23.68c.16-.53,1.09-.57,1.29-.05Z"/>
            </g>
            <g id="_x3C_Radial_Repeat_x3E_10" data-name="_x3C_Radial_Repeat_x3E_">
              <path class="st19" d="M142.78,203.47l-7.96,23.36c-.3.89-1.17,1.36-1.74.92l-12.3-9.47c-.57-.44-.34-1.39.44-1.92l20.54-13.67c.46-.31,1.2.26,1.02.79Z"/>
            </g>
            <path class="st19" d="M141.64,201.92c-.04.1-.11.18-.21.24l-21.11,12.78c-.81.49-1.77.29-1.92-.42l-.68-3.09,23.92-9.51Z"/>
            <path class="st19" d="M170.48,194.25l-23.98,5.82c-.07.02-.15.02-.22,0l23.97-9.53,1.3,2.05c.39.61-.15,1.43-1.07,1.65Z"/>
            <g id="_x3C_Radial_Repeat_x3E_11" data-name="_x3C_Radial_Repeat_x3E_">
              <path class="st19" d="M172.51,196.94l-2.05,15.39c-.09.72-1.03,1-1.88.58l-22.11-10.95c-.5-.25-.38-1.17.17-1.28l24.21-4.78c.92-.18,1.76.33,1.66,1.05Z"/>
            </g>
            <g id="_x3C_Radial_Repeat_x3E_12" data-name="_x3C_Radial_Repeat_x3E_">
              <path class="st19" d="M168.4,216.27l-11.46,10.47c-.53.49-1.43.1-1.81-.77l-9.9-22.6c-.22-.51.46-1.14.95-.87l21.62,11.9c.82.45,1.13,1.39.6,1.87Z"/>
            </g>
          </g>
        </g>
      </g>
      <g id="_มะนาว1" data-name="มะนาว1" class="st18">
        <g>
          <path class="st13" d="M113,167.35c-14.11-4.4-29.12,3.47-33.54,17.57l2.31.72,1.82.57,19.52,6.08,3.78,1.18,19.49,6.07,1.92.6,2.31.72c4.37-14.12-3.51-29.11-17.63-33.51Z"/>
          <path class="st11" d="M113,167.35c-14.11-4.4-29.12,3.47-33.54,17.57l2.31.72,1.82.57,19.52,6.08,3.78,1.18,19.49,6.07,1.92.6,2.31.72c4.37-14.12-3.51-29.11-17.63-33.51Z"/>
        </g>
        <g id="_ครึ่งมะนาว1" data-name="ครึ่งมะนาว">
          <path class="st3" d="M79.46,184.91c4.42-14.1,19.42-21.96,33.54-17.57,14.11,4.4,22,19.39,17.63,33.51l-2.31-.72c3.97-12.84-3.2-26.47-16.03-30.47-12.84-4-26.48,3.15-30.5,15.98l-2.31-.72Z"/>
          <path class="st16" d="M83.6,186.2l.22-1.91c.07-.57.81-.8,1.48-.48l17.68,8.37c.06.03.1.06.14.11l3.78,1.18c.08-.04.16-.06.25-.04l19.39,2.66c.74.1,1.23.7.98,1.22l-1.12,2.24,1.92.6c3.97-12.84-3.2-26.47-16.03-30.47-12.84-4-26.48,3.15-30.5,15.98l1.82.57ZM125.06,181.81l2.86,11.97c.13.56-.48,1.03-1.23.96l-19.48-1.82c-.44-.04-.61-.76-.24-.99l16.56-10.43c.63-.4,1.39-.25,1.53.3ZM111.86,172.29c.23-.71.91-1.09,1.37-.75l9.89,7.33c.46.34.29,1.1-.32,1.52l-16.09,11.13c-.36.25-.96-.19-.82-.61l5.98-18.63ZM97.56,171.27l12.29-.74c.57-.03.93.65.73,1.37l-5.17,18.87c-.12.43-.85.47-1.02.06l-7.39-18.12c-.28-.69,0-1.42.56-1.45ZM85.39,181.14l8.94-8.46c.42-.39,1.13-.1,1.45.58l8.17,17.78c.18.4-.35.91-.74.7l-17.31-9.13c-.66-.35-.92-1.08-.5-1.48Z"/>
          <g>
            <g id="_x3C_Radial_Repeat_x3E_13" data-name="_x3C_Radial_Repeat_x3E_">
              <path class="st19" d="M105.88,190.92l5.98-18.63c.23-.71.91-1.09,1.37-.75l9.89,7.33c.46.34.29,1.1-.32,1.52l-16.09,11.13c-.36.25-.96-.19-.82-.61Z"/>
            </g>
            <g id="_x3C_Radial_Repeat_x3E_14" data-name="_x3C_Radial_Repeat_x3E_">
              <path class="st19" d="M106.97,191.94l16.56-10.43c.63-.4,1.39-.25,1.53.3l2.86,11.97c.13.56-.48,1.03-1.23.96l-19.48-1.82c-.44-.04-.61-.76-.24-.99Z"/>
            </g>
            <path class="st19" d="M106.9,193.46c.08-.04.16-.06.25-.04l19.39,2.66c.74.1,1.23.7.98,1.22l-1.12,2.24-19.49-6.07Z"/>
            <path class="st19" d="M85.3,183.8l17.68,8.37c.06.03.1.06.14.11l-19.52-6.08.22-1.91c.07-.57.81-.8,1.48-.48Z"/>
            <g id="_x3C_Radial_Repeat_x3E_15" data-name="_x3C_Radial_Repeat_x3E_">
              <path class="st19" d="M85.39,181.14l8.94-8.46c.42-.39,1.13-.1,1.45.58l8.17,17.78c.18.4-.35.91-.74.7l-17.31-9.13c-.66-.35-.92-1.08-.5-1.48Z"/>
            </g>
            <g id="_x3C_Radial_Repeat_x3E_16" data-name="_x3C_Radial_Repeat_x3E_">
              <path class="st19" d="M97.56,171.27l12.29-.74c.57-.03.93.65.73,1.37l-5.17,18.87c-.12.43-.85.47-1.02.06l-7.39-18.12c-.28-.69,0-1.42.56-1.45Z"/>
            </g>
          </g>
        </g>
      </g>
      <g id="_ขิง1" data-name="ขิง1" class="st14">
        <circle class="st5" cx="88.32" cy="210.63" r="18.31"/>
        <circle class="st17" cx="88.32" cy="210.63" r="9.83"/>
      </g>
      <g id="_ฟอง" data-name="ฟอง" class="st18">
        <g id="_ฟอง1" data-name="ฟอง" class="st14">
          <path class="st8" d="M124.71,157.45c.01,3.26,2.67,5.88,5.92,5.87s5.88-2.67,5.87-5.92c-.01-3.26-2.67-5.88-5.92-5.87s-5.88,2.67-5.87,5.92Z"/>
          <path class="st8" d="M90.74,149.73c0,1.09.89,1.97,1.99,1.97,1.09,0,1.97-.89,1.97-1.99,0-1.09-.89-1.97-1.99-1.97-1.09,0-1.97.89-1.97,1.99Z"/>
          <path class="st8" d="M103.55,179.02c0,1.21.99,2.18,2.19,2.17,1.21,0,2.18-.99,2.17-2.19,0-1.21-.99-2.18-2.19-2.17-1.21,0-2.18.99-2.17,2.19Z"/>
          <path class="st8" d="M69.82,182.96c0,2.09,1.71,3.78,3.8,3.77,2.09,0,3.78-1.71,3.77-3.8,0-2.09-1.71-3.78-3.8-3.77-2.09,0-3.78,1.71-3.77,3.8Z"/>
          <path class="st8" d="M63.8,154.77c0,1.63,1.33,2.94,2.96,2.93,1.63,0,2.94-1.33,2.93-2.96,0-1.63-1.33-2.94-2.96-2.93-1.63,0-2.94,1.33-2.93,2.96Z"/>
          <path class="st8" d="M91,209.02c0,1.09.89,1.97,1.99,1.97,1.09,0,1.97-.89,1.97-1.99,0-1.09-.89-1.97-1.99-1.97-1.09,0-1.97.89-1.97,1.99Z"/>
          <path class="st8" d="M119.47,195.12c0,1.49,1.22,2.7,2.72,2.69,1.49,0,2.7-1.22,2.69-2.72,0-1.49-1.22-2.7-2.72-2.69-1.49,0-2.7,1.22-2.69,2.72Z"/>
          <path class="st8" d="M110.29,229.15c.01,3.32,2.72,6,6.04,5.99s6-2.72,5.99-6.04c-.01-3.32-2.72-6-6.04-5.99-3.32.01-6,2.72-5.99,6.04Z"/>
          <path class="st8" d="M73.73,210.99c0,1.04.86,1.89,1.9,1.88,1.04,0,1.89-.86,1.88-1.9,0-1.04-.86-1.89-1.9-1.88-1.04,0-1.89.86-1.88,1.9Z"/>
          <path class="st8" d="M86.54,165.65c0,1.18.96,2.13,2.14,2.12,1.18,0,2.13-.96,2.12-2.14,0-1.18-.96-2.13-2.14-2.12-1.18,0-2.13.96-2.12,2.14Z"/>
        </g>
        <g id="_ฟอง2" data-name="ฟอง" class="st14">
          <path class="st8" d="M201.14,178.07c.01,3.26,2.67,5.88,5.92,5.87s5.88-2.67,5.87-5.92c-.01-3.26-2.67-5.88-5.92-5.87s-5.88,2.67-5.87,5.92Z"/>
          <path class="st8" d="M167.17,170.35c0,1.09.89,1.97,1.99,1.97,1.09,0,1.97-.89,1.97-1.99,0-1.09-.89-1.97-1.99-1.97-1.09,0-1.97.89-1.97,1.99Z"/>
          <path class="st8" d="M179.98,199.65c0,1.21.99,2.18,2.19,2.17,1.21,0,2.18-.99,2.17-2.19,0-1.21-.99-2.18-2.19-2.17-1.21,0-2.18.99-2.17,2.19Z"/>
          <path class="st8" d="M146.25,203.58c0,2.09,1.71,3.78,3.8,3.77,2.09,0,3.78-1.71,3.77-3.8,0-2.09-1.71-3.78-3.8-3.77-2.09,0-3.78,1.71-3.77,3.8Z"/>
          <path class="st8" d="M140.23,175.39c0,1.63,1.33,2.94,2.96,2.93,1.63,0,2.94-1.33,2.93-2.96,0-1.63-1.33-2.94-2.96-2.93-1.63,0-2.94,1.33-2.93,2.96Z"/>
          <path class="st8" d="M167.43,229.65c0,1.09.89,1.97,1.99,1.97,1.09,0,1.97-.89,1.97-1.99,0-1.09-.89-1.97-1.99-1.97-1.09,0-1.97.89-1.97,1.99Z"/>
          <path class="st8" d="M195.9,215.75c0,1.49,1.22,2.7,2.72,2.69,1.49,0,2.7-1.22,2.69-2.72,0-1.49-1.22-2.7-2.72-2.69-1.49,0-2.7,1.22-2.69,2.72Z"/>
          <path class="st8" d="M186.72,249.77c.01,3.32,2.72,6,6.04,5.99s6-2.72,5.99-6.04c-.01-3.32-2.72-6-6.04-5.99-3.32.01-6,2.72-5.99,6.04Z"/>
          <path class="st8" d="M150.16,231.61c0,1.04.86,1.89,1.9,1.88,1.04,0,1.89-.86,1.88-1.9,0-1.04-.86-1.89-1.9-1.88-1.04,0-1.89.86-1.88,1.9Z"/>
          <path class="st8" d="M162.97,186.27c0,1.18.96,2.13,2.14,2.12,1.18,0,2.13-.96,2.12-2.14,0-1.18-.96-2.13-2.14-2.12-1.18,0-2.13.96-2.12,2.14Z"/>
        </g>
      </g>
    </g>
  </g>
  <path id="_ฝา" data-name="ฝา" class="st20" d="M174.89,68.57v-1.07c1.01-.19,1.77-1.08,1.77-2.14s-.76-1.95-1.77-2.14v-.62c0-2.01-1.63-3.64-3.64-3.64h-91.85c-2.01,0-3.64,1.63-3.64,3.64v.62c-1.01.19-1.77,1.08-1.77,2.14s.76,1.95,1.77,2.14v1.07c-1.01.19-1.77,1.08-1.77,2.14s.76,1.95,1.77,2.14v.76c0,2.01,1.63,3.64,3.64,3.64h91.85c2.01,0,3.64-1.63,3.64-3.64v-.76c1.01-.19,1.77-1.08,1.77-2.14s-.76-1.95-1.77-2.14Z"/>
  <g id="_หน้า" data-name="หน้า">
    <g id="_ปาก" data-name="ปาก">
      <line class="st1" x1="119.01" y1="159.97" x2="124.48" y2="165.43"/>
      <line class="st1" x1="129.94" y1="159.97" x2="124.48" y2="165.43"/>
    </g>
    <g id="_แก้ม" data-name="แก้ม">
      <g>
        <g id="_ซ้าย" data-name="ซ้าย">
          <circle class="st15" cx="93.09" cy="157.3" r="9.92"/>
        </g>
        <g id="_ขวา" data-name="ขวา">
          <circle class="st15" cx="157.55" cy="157.93" r="9.92"/>
        </g>
      </g>
    </g>
    <g id="_ตา" data-name="ตา">
      <circle id="_ซ้าย1" data-name="ซ้าย" cx="103.67" cy="149.45" r="3.99"/>
      <circle id="_ขวา1" data-name="ขวา" cx="146.76" cy="149.45" r="3.99"/>
      <circle class="st9" cx="103.77" cy="147.67" r="1.79"/>
      <circle class="st9" cx="146.87" cy="147.67" r="1.79"/>
    </g>
  </g>
</svg>