<?xml version="1.0" encoding="UTF-8"?>
<svg id="Layer_25" xmlns="http://www.w3.org/2000/svg" xmlns:xlink="http://www.w3.org/1999/xlink" version="1.1" viewBox="0 0 267.9 284.53">
  <!-- Generator: Adobe Illustrator 30.0.0, SVG Export Plug-In . SVG Version: 2.1.1 Build 123)  -->
  <defs>
    <style>
      .st0 {
        fill: url(#linear-gradient1);
      }

      .st0, .st1 {
        opacity: .8;
      }

      .st2 {
        fill: #b861e0;
      }

      .st3 {
        fill: #df92ff;
      }

      .st4 {
        fill: #f0e1d9;
      }

      .st5 {
        fill: url(#linear-gradient);
      }

      .st6 {
        fill: #c5feff;
      }

      .st7 {
        fill: none;
        stroke: #000;
        stroke-linecap: round;
        stroke-linejoin: round;
        stroke-width: 1.89px;
      }

      .st8 {
        fill: #f2e9df;
      }

      .st9 {
        fill: #fff;
      }

      .st10 {
        fill: #ff66d7;
      }

      .st11 {
        opacity: .7;
      }

      .st12 {
        fill: #ffed03;
      }

      .st13 {
        fill: #fac45e;
      }

      .st14 {
        fill: #d09;
      }

      .st15 {
        fill: #b3e84d;
      }

      .st16 {
        fill: #9cc939;
      }
    </style>
    <linearGradient id="linear-gradient" x1="131.06" y1="197.98" x2="24.68" y2="70.61" gradientUnits="userSpaceOnUse">
      <stop offset=".17" stop-color="#df92ff"/>
      <stop offset=".56" stop-color="#ffcb92"/>
    </linearGradient>
    <linearGradient id="linear-gradient1" x1="126.47" y1="71.87" x2="126.47" y2="227.26" gradientUnits="userSpaceOnUse">
      <stop offset=".57" stop-color="#fdffab"/>
      <stop offset=".86" stop-color="#dfb3ff"/>
    </linearGradient>
  </defs>
  <path id="_เส้นจาน" data-name="เส้นจาน" d="M126.47,216c-26.13,0-50.72-2.28-69.24-6.42-20.14-4.5-30.36-10.46-30.36-17.72s10.21-13.22,30.36-17.72c18.52-4.14,43.11-6.42,69.24-6.42s50.72,2.28,69.24,6.42c20.14,4.5,30.36,10.46,30.36,17.72s-10.21,13.22-30.36,17.72c-18.52,4.14-43.11,6.42-69.24,6.42Z"/>
  <ellipse id="_จาน" data-name="จาน" class="st9" cx="126.47" cy="191.85" rx="97.17" ry="21.72"/>
  <g id="_เงาจาน" data-name="เงาจาน">
    <ellipse class="st8" cx="126.47" cy="192.17" rx="57.74" ry="12.9"/>
    <g>
      <path class="st8" d="M43.24,185.18c-.55-.85-10.02,2.21-10.19,6.07-.29,6.58,26.7,12.09,26.69,12.13-.01.04-21.66-4.28-21.84-11.16-.09-3.61,5.79-6.34,5.34-7.04Z"/>
      <path class="st8" d="M205.56,199.01c.14.32,13.93-2.9,14.07-8.01.16-5.6-16.18-9.42-16.26-9.22-.07.18,13.61,3.81,13.59,8.98-.02,4.74-11.54,7.95-11.4,8.25Z"/>
      <circle class="st8" cx="45.43" cy="183.73" r=".97"/>
      <circle class="st8" cx="202.9" cy="200.23" r=".97"/>
    </g>
  </g>
  <path id="_เส้นน้ำ" data-name="เส้นน้ำ" d="M113.3,199.74c-14.93,0-29.11-4.75-41.03-13.75-11.91-8.99-20.37-21.34-24.46-35.69l-12.39-43.49h13.57c-5.81-5.68-11.04-10.34-15.07-13.92-4.06-3.61-6.51-5.79-7.54-7.2-3.76-5.12.01-10.34,2.53-12.39.15-.12.86-.68,1.94-1.25-.69-.88-.85-2.06-.42-3.1.47-1.12,1.56-1.85,2.78-1.85.14,0,.29,0,.43.03,1.02.14,1.76.63,2.31.98.11.07.22.15.33.21.37.21.74.42,1.11.63l.57.32c.12.06.24.13.37.2-.04-.31-.07-.62-.1-.92v-.07c-.03-.18-.05-.37-.07-.56-.16-1.45-.35-3.09,0-4.72.3-1.37,1.48-2.33,2.87-2.33.87,0,1.66.37,2.19.98.95-2.7,2.22-5.28,3.78-7.64.91-1.39,3.42-4.61,6.93-4.61.73,0,1.45.15,2.13.43,2.39,1.01,3.29,3.23,4.01,5.01.22.55.43,1.07.66,1.5.97,1.8,2.98,3.04,5.11,4.36.46.28.94.58,1.41.88,4.34,2.8,6.55,6.16,6.39,9.73-.08,1.74-.71,3.38-1.89,4.89,2.34,1.61,3.77,4.38,3.71,7.24-.05,2.33-1.11,4.57-2.81,6.13.47,1.47.29,2.86-.54,3.95-.73.94-1.86,1.48-3.12,1.48-.93,0-1.86-.29-2.61-.82-.99-.7-1.58-1.63-2.01-2.44-1.08-.15-2.24-.42-3.56-.82-2.33-.72-4.61-1.6-6.82-2.64-.29,1-.9,1.67-1.53,2.12-.15.1-.3.2-.45.28,2.9,4.89,6.22,10.27,10.07,15.95h3.22c.46-.28.98-.43,1.54-.43s1.08.16,1.54.43h3.77c.09-.97.5-2.35,1.92-3.38-.83-1.31-.98-2.84-.39-4.32.65-1.64,1.97-2.69,3.7-3-.09-.37-.15-.74-.16-1.1-.04-1.32.45-2.53,1.42-3.5.93-.93,2.1-1.43,3.36-1.43.25,0,.5.02.75.06.34-1.51,1.32-2.7,2.77-3.33.64-.28,1.3-.42,1.95-.42,1.08,0,2.01.36,2.79.91.19-.32.41-.61.65-.87.9-.97,2.11-1.48,3.49-1.48.94,0,2.65.26,3.87,1.93.77-.49,1.61-.74,2.51-.74.6,0,1.21.12,1.81.35,1.27.5,2.2,1.41,2.7,2.63.14.34.24.7.3,1.07.42-.11.84-.16,1.25-.16,1.26,0,2.41.49,3.34,1.42.67.67,1.69,2.06,1.37,4.11,1.51.34,2.69,1.31,3.33,2.77.55,1.26.56,2.56.04,3.78-.14.33-.32.65-.54.96,1.79,1.05,2.25,2.64,2.34,3.71h39.11s-.08-.04-.13-.06c-1.01-.51-2.05-1.03-3.03-1.77-.17,0-.35-.01-.53-.02-.17,0-.34-.01-.51-.02-.86-.04-3.15-.14-4.49-1.98l-1.4-1.94,1.86-1.39c-.26-.61-.26-1.17-.19-1.56.13-.72.52-1.32,1.16-1.8l.31-.23c.14-1.19.69-2.17,1.07-2.84.29-.52,1.07-1.91,2.69-2.25.23-.05.46-.07.69-.07.73,0,1.45.24,2.06.66.05,0,.11.02.16.03.63.13,1.19.47,1.66,1.02.66.78,1.21,1.64,1.66,2.61.81.41,1.47,1.19,1.88,2.24.96,2.51,1.4,5.1,1.75,7.76.16.22.33.44.49.66.22.3.45.62.69.96h.74c.1-.64.31-1.25.62-1.82.15-.28.33-.54.53-.77-.11-.35-.22-.71-.34-1.07-.22-.68-.44-1.38-.65-2.1-1.25-4.34-1.73-8.8-2.19-13.11l4.42-1.62c1.52,2.22,2.8,4.63,3.84,7.16.15-1.68,1.16-2.93,2.6-3.2.18-.03.37-.05.55-.05.57,0,1.58.17,2.48,1.21.21-.35.46-.65.74-.89-.02-.15-.05-.29-.07-.43-.29-1.87-.5-4.31.38-6.64.21-.56.59-1.38,1.45-1.95.55-.37,1.19-.56,1.87-.56.74,0,1.49.24,2.11.67-.08-.25-.15-.51-.21-.77-.67-2.65-.47-5.03.59-6.9.66-1.17,1.57-1.53,2.22-1.63.15-.02.29-.03.44-.03.05,0,.11,0,.16,0,.14-.15.29-.29.47-.42.57-.42,1.27-.65,1.98-.65.04,0,.07,0,.11,0,.12-.16.26-.33.41-.48.66-.68,1.5-1.05,2.36-1.05.49,0,.97.12,1.39.36.17.1.33.21.48.33.3-1.84.74-3.99,1.96-5.87.79-1.22,1.95-1.92,3.17-1.92.44,0,.86.09,1.26.27.01,0,.02.01.04.02.13-.2.28-.4.47-.59.46-.47.95-.68,1.34-.77.22-.98.61-2.11,1.39-3.11.95-1.22,2.06-1.4,2.64-1.4.07,0,.14,0,.21,0,.44.03.86.16,1.23.37.51-.74,1.15-1.46,1.91-2.14.47-.42,1.13-.94,2.01-1.23l1.48-.47,1.05,1.14c.19.21.47.58.64,1.1.41-.22.83-.43,1.26-.62.46-.2.91-.3,1.36-.3.77,0,1.48.3,2,.85.88.92,1,2.3.31,3.51-.6,1.04-1.49,1.93-2.6,2.61-.03.08-.06.16-.1.24-.46,1.02-1.35,1.83-2.49,2.3-.19.08-.38.14-.57.2.6.93.56,1.8.47,2.29-.2,1.03-.88,1.82-2.02,2.36-1.13.53-2.49,1.08-4.01,1.08-.18,0-.37,0-.55-.02-.06,0-.12-.01-.18-.02-.38.31-.78.58-1.2.83,0,.29-.02.57-.11.85-.36,1.25-1.43,1.85-1.88,2.05-.24.11-.49.22-.74.32.14.21.24.45.32.7.37,1.18-.04,2.44-1.08,3.36-.45.4-.93.71-1.43.95.14.05.28.11.41.18.66.36,1.13.93,1.36,1.64.72-1.21,1.75-2.66,3.35-3.6.23-.13.92-.54,1.83-.54.09,0,.18,0,.27.01.81.07,1.54.47,2.07,1.07.88-1.61,2.07-2.74,3.49-3.3.4-.16.79-.24,1.18-.24.49,0,.97.13,1.39.37.07.04.15.09.22.14.04,0,.09,0,.14,0s.09,0,.13,0c.59.02,1.14.22,1.6.53.07-.01.14-.02.21-.03.13-.02.27-.02.4-.02,1.05,0,1.96.48,2.48,1.29.91-.76,1.98-1.5,3.29-1.92.42-.14.85-.21,1.27-.21,1.03,0,1.94.44,2.51,1.19.05,0,.09-.01.14-.02.11-.01.22-.02.33-.02.25,0,.5.04.74.1.58-.42,1.29-.81,2.15-1.01.29-.07.57-.1.84-.1.76,0,1.48.27,2.01.77.15.14.29.3.41.47.52-.12,1.08-.19,1.67-.22.12,0,.24,0,.36,0,.6,0,1.12.09,1.61.28l1.45.56.1,1.55c0,.1,0,.25,0,.43.12.03.24.06.36.09,1.46.4,2.06,1.51,2.14,2.42.1,1.22-.62,2.32-1.85,2.8-.65.25-1.36.38-2.1.38-.22,0-.44-.01-.65-.03,0,0,0,0,0,0-.51.26-1.08.39-1.69.39-.33,0-.66-.04-.98-.12-.17.45-.45.84-.82,1.15-.52.44-1.17.67-1.88.67-.38,0-.7-.07-.91-.12-1.05-.25-2.25-.64-3.25-1.55-.17,0-.33-.02-.5-.03-.51.49-1.22.78-2.02.78-.26,0-.52-.03-.77-.09-.44,1.06-1.45,1.73-2.71,1.79-.08,0-.15,0-.23,0-.84,0-1.6-.21-2.26-.49-.58.59-1.4.93-2.3.93-.23,0-.45-.02-.68-.06-.21-.04-.41-.09-.61-.16-.75.38-1.61.58-2.51.58-.59,0-1.19-.09-1.77-.25-.22.12-.45.22-.7.3-.28.75-.86,1.4-1.63,1.79-.51.26-1.09.39-1.72.39-.12,0-.23,0-.35-.01-.21.49-.72,1.24-1.83,1.59-.61.55-1.62,1.11-3.18,1.11-.47,0-.96-.05-1.54-.15-.21-.04-.47-.08-.77-.14-.04.12-.09.24-.14.35l.26,1.11-1.86.8c-.66.28-1.35.48-2.09.59-.2.65-.61,1.21-1.18,1.63-.11.4-.3.78-.55,1.12-1.06,1.43-2.79,1.58-3.36,1.63-.57.05-1.15.07-1.73.07-.76,0-1.52-.04-2.27-.13-.87,1.66-2.55,2.59-3.29,3-.43.24-1.06.58-1.8.95.35.41.54.9.59,1.41l.91.71-.49.93h34.07l-2.27,7.97c3.42.19,6.71.81,9.8,1.85,8.42,2.84,14.41,8.49,16.88,15.9,2.47,7.41,1.07,15.52-3.95,22.85-4.74,6.92-12.21,12.35-21.05,15.3-4.62,1.54-9.34,2.33-14.01,2.33-2.92,0-5.77-.31-8.49-.93-12.81,17.35-33.16,27.65-54.79,27.65h-26.34ZM199.95,163.26c.98.1,1.98.15,2.99.15,3.63,0,7.31-.62,10.95-1.83,6.75-2.25,12.44-6.29,16.01-11.37,3.41-4.85,4.45-10.05,2.92-14.64-2.28-6.83-10.04-11.24-19.77-11.24-.17,0-.35,0-.52,0l-7.4,25.97c-1.28,4.49-3.01,8.83-5.18,12.96ZM154.73,98.03"/>
  <g id="_หูแก้ว" data-name="หูแก้ว">
    <path class="st9" d="M202.92,170.59c-3.91,0-7.72-.59-11.24-1.79-7.68-2.6-13.13-7.7-15.36-14.37-2.23-6.67-.93-14.03,3.65-20.71,4.44-6.48,11.48-11.59,19.82-14.37,8.34-2.78,17.04-2.93,24.48-.42,7.68,2.6,13.13,7.7,15.36,14.37h0c2.23,6.67.93,14.03-3.65,20.71-4.44,6.48-11.48,11.59-19.82,14.37-4.39,1.47-8.88,2.2-13.24,2.2ZM213.04,121.9c-3.79,0-7.78.63-11.75,1.96-14.97,5-24.15,18.04-20.47,29.07,1.74,5.22,6.14,9.26,12.37,11.37,6.47,2.19,14.09,2.04,21.45-.42,14.97-5,24.15-18.04,20.47-29.07h0c-2.7-8.1-11.61-12.9-22.07-12.9Z"/>
  </g>
  <path id="_พื้นหลังน้ำ" data-name="พื้นหลังน้ำ" class="st9" d="M139.64,197.31h-26.34c-29.34,0-55.12-19.46-63.15-47.68l-11.51-40.4h175.67l-11.51,40.4c-8.04,28.22-33.82,47.68-63.15,47.68Z"/>
  <g id="_ดอกใหญ่" data-name="ดอกใหญ่">
    <g>
      <path class="st9" d="M93.68,103.87s-5.11-16.48.74-16.48.94,16.48.94,16.48h-1.68Z"/>
      <path class="st9" d="M95.22,110.67s5.11,16.48-.74,16.48-.94-16.48-.94-16.48h1.68Z"/>
      <path class="st9" d="M97.85,106.5s16.48-5.11,16.48.74-16.48.94-16.48.94v-1.68Z"/>
      <path class="st9" d="M91.05,108.04s-16.48,5.11-16.48-.74,16.48-.94,16.48-.94v1.68Z"/>
    </g>
    <g>
      <path class="st9" d="M96.31,104.32s8.04-15.27,12.18-11.13c4.14,4.14-10.99,12.32-10.99,12.32l-1.19-1.19Z"/>
      <path class="st9" d="M92.59,110.22s-8.04,15.27-12.18,11.13c-4.14-4.14,10.99-12.32,10.99-12.32l1.19,1.19Z"/>
      <path class="st9" d="M97.4,109.13s15.27,8.04,11.13,12.18c-4.14,4.14-12.32-10.99-12.32-10.99l1.19-1.19Z"/>
      <path class="st9" d="M91.5,105.41s-15.27-8.04-11.13-12.18c4.14-4.14,12.32,10.99,12.32,10.99l-1.19,1.19Z"/>
    </g>
    <g>
      <path class="st9" d="M94.98,103.83s1.29-17.21,6.74-15.06c5.44,2.15-5.18,15.68-5.18,15.68l-1.56-.62Z"/>
      <path class="st9" d="M93.92,110.72s-1.29,17.21-6.74,15.06c-5.44-2.15,5.18-15.68,5.18-15.68l1.56.62Z"/>
      <path class="st9" d="M97.9,107.8s17.21,1.29,15.06,6.74c-2.15,5.44-15.68-5.18-15.68-5.18l.62-1.56Z"/>
      <path class="st9" d="M91.01,106.74s-17.21-1.29-15.06-6.74c2.15-5.44,15.68,5.18,15.68,5.18l-.62,1.56Z"/>
    </g>
    <g>
      <path class="st9" d="M97.26,105.21s13.08-11.25,15.41-5.88c2.33,5.37-14.75,7.43-14.75,7.43l-.67-1.54Z"/>
      <path class="st9" d="M91.64,109.33s-13.08,11.25-15.41,5.88c-2.33-5.37,14.75-7.43,14.75-7.43l.67,1.54Z"/>
      <path class="st9" d="M96.51,110.08s11.25,13.08,5.88,15.41c-5.37,2.33-7.43-14.75-7.43-14.75l1.54-.67Z"/>
      <path class="st9" d="M92.39,104.46s-11.25-13.08-5.88-15.41c5.37-2.33,7.43,14.75,7.43,14.75l-1.54.67Z"/>
    </g>
    <rect class="st4" x="92.44" y="93.72" width=".71" height="10.56" transform="translate(-18.97 22.05) rotate(-12.3)"/>
    <rect class="st4" x="88.79" y="93.74" width=".71" height="11.7" transform="translate(-40.24 66.07) rotate(-33.64)"/>
    <rect class="st4" x="86.86" y="97.22" width=".71" height="10.4" transform="translate(-45.88 121.97) rotate(-57.94)"/>
    <polygon class="st4" points="81.09 110.4 80.95 109.7 91.12 107.57 90.55 106.22 79.65 104.85 79.74 104.15 91.04 105.56 92.11 108.09 81.09 110.4"/>
    <rect class="st4" x="81.2" y="112.1" width="11.38" height=".71" transform="translate(-47.46 66.13) rotate(-33.29)"/>
    <rect class="st4" x="84.55" y="114.14" width="9.96" height=".71" transform="translate(-54.91 130.69) rotate(-58.37)"/>
    <rect class="st4" x="86.73" y="116.08" width="11.69" height=".71" transform="translate(-37.54 188.53) rotate(-80.5)"/>
    <rect class="st4" x="95.76" y="110.62" width=".71" height="10.29" transform="translate(-23.36 24.3) rotate(-12.86)"/>
    <rect class="st4" x="99.08" y="108.7" width=".71" height="12.26" transform="translate(-48.2 79.07) rotate(-35.49)"/>
    <rect class="st4" x="90.18" y="97.71" width="12.31" height=".71" transform="translate(-15.34 178.24) rotate(-81.18)"/>
    <rect class="st4" x="93.56" y="100.05" width="11.24" height=".71" transform="translate(-38.43 131.71) rotate(-58.17)"/>
    <rect class="st4" x="96.41" y="101.76" width="11.68" height=".71" transform="translate(-40.28 78.27) rotate(-35.46)"/>
    <rect class="st4" x="101.15" y="106.65" width=".71" height="10.54" transform="translate(-47.72 135.62) rotate(-56.82)"/>
    <rect class="st4" x="96.38" y="105.38" width="11.72" height=".71" transform="translate(-20.66 24.94) rotate(-12.64)"/>
    <rect class="st4" x="102.75" y="102.57" width=".71" height="12.76" transform="translate(-22.77 190.53) rotate(-79.53)"/>
    <path class="st13" d="M98.72,107.27c0,2.36-1.91,4.27-4.27,4.27s-4.27-1.91-4.27-4.27,1.91-4.27,4.27-4.27,4.27,1.91,4.27,4.27Z"/>
  </g>
  <g id="_ก้าน" data-name="ก้าน">
    <g id="_ก้าน1" data-name="ก้าน">
      <path class="st16" d="M167.33,174.73l-.12-1.05c-.04-.35-.08-.7-.11-1.05l-.17-2.1-.17-2.1-.09-1.05c-.03-.35-.04-.7-.06-1.05l-.21-4.2-.03-.52v-.53s-.03-1.05-.03-1.05l-.04-2.1-.02-1.05c0-.35-.02-.7,0-1.05l.03-2.1c.03-1.4,0-2.8.09-4.2l.09-2.1.05-1.05.02-.52c0-.17.03-.35.04-.52.15-2.31.36-4.61.62-6.9-.02.05-.04.09-.07.14-.49,1.07-.79,2.25-.65,3.46-.17-.58-.21-1.2-.16-1.82.05-.61.2-1.22.4-1.8.19-.52.41-1.03.66-1.52.35-2.74.78-5.47,1.3-8.19,1.04-5.49,2.45-10.91,4.27-16.19,1.03-3.02,2.19-6,3.49-8.92-.37.35-.73.7-1.09,1.06.13-.51.26-1.02.4-1.53l.05-.05.54-.54.56-.52.47-.44c.7-1.49,1.43-2.96,2.2-4.42,2.6-4.94,5.61-9.66,8.97-14.13l1.29-1.65c.43-.55.85-1.11,1.31-1.63l1.35-1.6.34-.4c.11-.14.23-.27.34-.4l.7-.78,1.4-1.56,1.45-1.51c.96-1.02,1.98-1.98,2.98-2.96l.38-.37c.13-.12.26-.24.39-.36l.78-.71.78-.71.39-.35.19-.18.2-.17,1.6-1.37c.27-.23.53-.46.8-.68l.82-.66,1.64-1.32,1.68-1.27.84-.64.86-.61,1.71-1.23-1.77,1.15-.88.57-.87.6-1.73,1.21-1.69,1.26-.85.63c-.28.21-.55.44-.83.66l-1.65,1.32-.21.17-.2.17-.4.34-.8.69-.8.69c-.13.12-.27.23-.4.35l-.39.36c-1.03.96-2.09,1.9-3.07,2.9l-1.5,1.49-1.45,1.54c-.99,1.01-1.89,2.09-2.82,3.15-.47.52-.91,1.08-1.35,1.63l-1.34,1.64-1.28,1.69-.64.84-.32.42-.3.43-1.21,1.74-.6.87c-.19.29-.38.59-.57.89-.76,1.19-1.54,2.37-2.24,3.6l-1.07,1.83c-.18.3-.34.62-.51.93l-.5.93c-2.68,4.98-4.92,10.18-6.77,15.52-1.45,4.25-2.64,8.59-3.57,12.99.04,1.56-.09,3.11-.43,4.62.08-.94.1-1.89.06-2.83-.11.53-.21,1.07-.31,1.61l-.37,2.08-.09.52c-.03.17-.05.35-.07.52l-.15,1.05-.29,2.1-.15,1.05-.11,1.05-.22,2.1-.11,1.05c-.03.35-.08.7-.09,1.05l-.26,4.22c0,.18-.02.35-.03.53v.53s-.04,1.06-.04,1.06l-.06,2.11c-.06,1.41-.02,2.82,0,4.22l.03,2.11c0,.35.02.7.04,1.06l.05,1.05.1,2.11.05,1.05.02.53.04.53.35,4.21c.03.35.05.7.09,1.05l.12,1.05.25,2.09.25,2.09c.04.35.09.7.15,1.04l.16,1.04.65,4.16-.45-4.19Z"/>
      <path class="st16" d="M176.36,102.55l-.54.54-.05.05c-.13.51-.26,1.02-.4,1.53.36-.36.72-.71,1.09-1.06,1.43-1.38,2.9-2.71,4.42-3.99,1.3-1.1,2.62-2.16,3.98-3.18.48-.36.96-.72,1.44-1.07.58-.42,1.17-.83,1.77-1.24.36-.24.71-.48,1.07-.72h0c.49-.32.98-.64,1.48-.95.24-.15.48-.3.72-.45.11-.07.23-.14.34-.21h0c.3-.19.61-.37.91-.55,1.17-.69,2.36-1.35,3.57-1.98.18-.1.36-.19.55-.28h0c.11-.06.22-.11.32-.17h0c.6-.3,1.2-.6,1.81-.88.27-.13.54-.26.81-.38h0c.14-.07.29-.13.43-.2.24-.11.48-.21.71-.32,0,0,0,0,0,0,.13-.06.26-.11.39-.17.02,0,.03-.01.05-.02.02,0,.04-.02.06-.02.05-.02.1-.04.15-.07,0,0,0,0,0,0,.08-.03.15-.07.23-.1h0c.88-.38,1.77-.73,2.66-1.07h0c.27-.11.55-.21.82-.31.19-.07.37-.14.56-.2h0c.7-.25,1.4-.49,2.11-.72h0c.48-.16.96-.3,1.44-.45,0,0,0,0,0,0,.27-.08.55-.17.83-.24.37-.11.74-.21,1.12-.32.5-.14,1.01-.27,1.51-.4l1.47-.34c.31-.07.62-.14.93-.21.12-.03.24-.05.36-.08,0,0,0,0,0,0,.06-.01.12-.02.18-.03l1.48-.29h.05s.32-.07.32-.07c.12-.03.25-.05.37-.07l.18-.03h.01s.55-.09.55-.09l1.46-.23h.04s1.29-.17,1.29-.17c0,0,0,0,0,0l.21-.03c1-.14,2.01-.21,3.01-.31h.06s0,0,0,0h.13s0-.01,0-.01l.18-.02c.13-.01.25-.02.38-.02l.76-.05h.18s.01-.01.01-.01l.57-.03.38-.02h.19s.19-.02.19-.02h.47s.96-.04.96-.04t0,0h.08c.25,0,.51-.02.76-.02h.76s1.52,0,1.52,0l.56.02h0s.37,0,.37,0h0s.28,0,.28,0c0,0,0,0,0,0h.3s.76.03.76.03h.21s0,.01,0,.01l.54.03h.23s1.29.09,1.29.09l-1.15-.12s0,0,0,0l-.36-.04-.76-.08-.44-.03h0s-.32-.02-.32-.02l-.27-.02h0s-.22-.02-.22-.02l-.44-.03-.59-.04-.89-.03-.64-.02-.76-.03c-.18,0-.35,0-.53,0-.08,0-.15,0-.23,0h-1.49s-.02,0-.02,0h-.02s-.19,0-.19,0h-.19s-.38.02-.38.02h-.13s-.62.02-.62.02h-.01s-.76.02-.76.02c-.13,0-.25,0-.38.01h-.03s-.35.03-.35.03c-.11,0-.23.02-.34.02,0,0,0,0,0,0-.9.06-1.8.11-2.7.21l-.46.05-.28.03h0s-.77.08-.77.08l-.66.09-.85.12c-.96.11-1.9.3-2.86.46h0c-.05.01-.1.02-.16.03-.04,0-.09.01-.13.02-.21.04-.43.08-.64.12h0c-.24.05-.48.1-.73.16l-1.5.32-.18.05-.56.14-.55.14-.19.05-.25.06-.49.12-.37.09-.36.1h0s0,0,0,0l-.14.04-1.05.3-.28.08-.73.22c-.18.06-.36.12-.53.18,0,0,0,0,0,0-.06.02-.13.04-.19.06-.5.17-1,.33-1.5.5-.47.16-.93.32-1.39.51l-.21.08-.4.15-.82.31c-.24.09-.47.19-.71.29l-.7.3c-.62.26-1.24.53-1.85.81-.35.16-.71.32-1.06.49-.26.12-.52.25-.77.37h0c-.38.19-.77.38-1.15.57-.79.4-1.57.82-2.35,1.25,0,0,0,0,0,0-.34.19-.68.38-1.01.57,0,0,0,0,0,0-.55.32-1.1.64-1.65.97-.33.2-.67.41-1,.61-.18.12-.37.23-.55.35-.47.3-.93.61-1.4.92-.12.08-.24.16-.37.25h0c-1.15.78-2.27,1.59-3.37,2.42h0c-1.41,1.07-2.78,2.18-4.12,3.33l-1.15,1-.29.25c-.09.08-.19.17-.28.26l-.56.52-.64.6-.47.44-.56.52Z"/>
      <path class="st16" d="M166.34,140.22c-.05.61,0,1.24.16,1.82-.14-1.21.16-2.39.65-3.46.02-.05.04-.09.07-.14.23-.49.49-.96.78-1.42.31-.5.64-1,.98-1.5,1.37-1.99,2.71-3.99,4.11-5.92.7-.97,1.43-1.92,2.18-2.85.75-.94,1.53-1.84,2.33-2.73.7-.78,1.42-1.54,2.16-2.29,1.13-.03,2.39-.33,3.39-1.1.2-.15.4-.4.28-.63-.06-.12-.19-.18-.28-.27-.15-.16-.17-.39-.22-.6-.05-.21-.15-.44-.35-.5-.07-.02-.15-.02-.22-.04-.46-.11-.56-.79-.99-.98-.39-.17-.81.15-1.08.47-.77.94-1.13,2.2-.99,3.41-.76.65-1.49,1.34-2.2,2.04-.87.85-1.68,1.75-2.48,2.67-.79.92-1.53,1.89-2.25,2.86-1.43,1.96-2.72,4.01-3.97,6.07-.35.57-.69,1.15-.99,1.75-.25.49-.47,1-.66,1.52-.2.58-.35,1.19-.4,1.8Z"/>
      <path class="st16" d="M168.17,125.09c-.03-1.13-.15-2.25-.35-3.36-.48-2.65-1.37-5.21-2.55-7.62-.6-1.2-1.25-2.37-1.95-3.51-.71-1.13-1.45-2.24-2.24-3.31-.28-.38-.57-.76-.85-1.14-.35-2.66-.74-5.34-1.7-7.85-.19-.5-.55-1.08-1.08-1.01-.1.01-.18.05-.26.09-.26.15-.43.47-.54.76-.17.46-.29.94-.35,1.42-.02.18-.05.4-.21.5-.1.06-.23.06-.34.06,0,0,0,0,0,0-.41,0-.87.05-1.12.37-.25.31-.23.8-.51,1.09-.21.21-.56.32-.61.61-.04.23.15.44.33.59,1.58,1.33,3.65,1.95,5.57,3.25.38.55.75,1.11,1.11,1.67.72,1.11,1.43,2.21,2.09,3.35.67,1.13,1.3,2.28,1.87,3.46,1.14,2.35,2.08,4.81,2.67,7.36.38,1.64.61,3.32.67,5.01.03.94.01,1.88-.06,2.83.34-1.51.48-3.06.43-4.62Z"/>
    </g>
  </g>
  <g id="_ใบ" data-name="ใบ">
    <g id="_ใบสว่าง" data-name="ใบสว่าง">
      <path class="st15" d="M166.02,152.44c.04-.22.08-.43.12-.65-.55.26-.81.48-.12.65Z"/>
      <path class="st15" d="M174.13,142.73c4.02-6.65,8.03-13.29,12.05-19.94-2.31,2.2-4.05,4.93-6.1,7.38-2.45,2.93-5.34,5.46-7.9,8.3-1.39,1.54-2.68,3.19-3.62,5.03-1.31,2.57-1.9,5.44-2.42,8.29.35-.17.83-.36,1.24-.55,1.11-.54,1.96-1.48,2.73-2.44,1.51-1.9,2.77-3.99,4.03-6.07Z"/>
      <path class="st15" d="M169.01,108.76c.11,2.87-.68,6.16,1.66,7.23,1.89-9.7-.25-20.13-5.81-28.31.46,4.27.92,8.57,2.11,12.7.8,2.77,1.93,5.49,2.05,8.37Z"/>
      <path class="st15" d="M163.61,131.08c.38.94.78,1.89,1.43,2.67.86,1.03,2.12,1.71,2.4,2.37-2.42-7.47-5.22-14.82-8.4-22.01.85,5.81,2.38,11.52,4.56,16.97Z"/>
      <path class="st15" d="M167.44,136.12s.03.09.04.13"/>
      <path class="st15" d="M145.98,126.91c4.91,8.84,10.21,18.09,19.62,25.33-2.05-6.08-4.96-11.88-8.61-17.16-2.69-3.89-6.3-7.78-11.01-8.17Z"/>
      <path class="st15" d="M156.61,129.26c.92,2.42,2.33,4.62,3.72,6.8,1.31,2.05,2.62,4.1,3.93,6.15.33.51.81,1.09,2.13,2.46-2.48-8.45-6.31-16.51-11.3-23.77.1,2.84.51,5.7,1.52,8.36Z"/>
    </g>
  </g>
  <g id="_ดอกมืด" data-name="ดอกมืด">
    <g id="_ดอกมืด1" data-name="ดอกมืด">
      <g>
        <path class="st2" d="M185.73,90.04s.02-.08.03-.13c-.34.14-.68.27-1.01.42.32-.13.65-.23.98-.29Z"/>
        <path class="st2" d="M208.45,63.41c1.02-2,2.04-3.99,3.05-5.99.18-.34.34-.8.08-1.08-.43.14-.8.42-1.14.73-2.04,1.82-3.35,4.43-1.99,6.35Z"/>
        <path class="st2" d="M210.58,67.03c.29-.14.61-.32.67-.63.06-.28-.13-.56-.34-.77-.65-.65-1.61-.98-2.53-.87-.55.07-1.07.29-1.59.51-1.45.63-2.88,1.3-4.29,2.02,2.56-.17,3.61.47,4.76.57,1.15.1,2.27-.34,3.31-.83Z"/>
        <path class="st2" d="M195.49,71.45c-.14.89-.28,1.83.79,2.3,2.21-.38,4.38-1.04,6.43-1.96.32-.15.7-.48.51-.78-1.48-.31-3.07,0-4.36.78.59-.59,1.04-1.33,1.28-2.13-1.26.1-2.25,1.06-3.13,1.97.96-1.51,1.66-3.19,2.04-4.94.13-.59.13-1.36-.41-1.6-.54-.24-1.1.27-1.42.76-1.07,1.65-1.4,3.66-1.71,5.61Z"/>
        <path class="st2" d="M196.07,76.6c-1.93.79-3.85,1.62-5.74,2.51-.1,1.27.88,1.9,1.97,2.28,1.09.38,2.34.47,3.35-.08.4-.22.79-.62.72-1.08-.07-.47-.58-.73-1.03-.88-.57-.19-1.15-.35-1.74-.46,1.34-.51,2.76-1.08,3.56-2.27-.26-.29-.73-.17-1.1-.02Z"/>
        <path class="st2" d="M187.53,82.92c.67-2.69,1.19-5.42,1.54-8.18.04-.3.07-.63-.12-.87-.24-.3-.73-.27-1.04-.04-.31.23-.48.6-.62.95-.93,2.22-1.6,4.68-1,7.01.26.99,1,2.1,1.25,1.13Z"/>
        <path class="st2" d="M184.6,93.2c.31.05.61.05.92.02-.03.68-.09,1.28-.31,1.73.34-.61.67-1.23.98-1.86.44-.12.87-.32,1.26-.57.38-.24.74-.54.93-.95.19-.41.16-.94-.17-1.25-.17-.16-.39-.25-.62-.29.11-.33.18-.67.1-1,0-.02-.01-.04-.02-.06.75-.52,1.37-1.25,1.51-2.13.02-.14.03-.28-.04-.41-.07-.13-.21-.2-.35-.25-.77-.27-1.62.07-2.34.45-1.36.71-2.61,1.62-3.71,2.68.83-2.15,2.95-3.83,3.05-6.13.01-.24-.08-.56-.32-.54-.14,0-.24.14-.32.25-1.19,1.78-2.3,3.61-3.32,5.49-1.52,2.8,1.15,4.58,2.76,4.83ZM185.76,89.91s-.02.08-.03.13c-.34.06-.66.16-.98.29.33-.15.67-.28,1.01-.42Z"/>
        <path class="st2" d="M183.45,95.37c-.45-.16-.94.03-1.37.25-1.25.64-2.35,1.55-3.22,2.65.62-.83,1.15-1.76,1.34-2.78.19-1.02.01-2.15-.65-2.95-.12-.15-.27-.29-.46-.32-.39-.06-.67.35-.82.72-.66,1.53-1.08,3.17-1.22,4.83-.07.83-.07,1.72.64,1.12,1.33-.12,2.67-.24,3.99-.49.79-.15,1.62-.38,2.12-1.01.5-.63.4-1.75-.35-2.02Z"/>
        <path class="st2" d="M177.02,110.35c1.57-.92,2.98-2.19,3.82-3.8-.45-.35-1.09-.28-1.63-.08-1.87.68-3.06,2.54-4.78,3.54,1.32-1.06,2.21-2.63,2.44-4.31.07-.52,0-1.17-.48-1.38-.59-.25-1.15.39-1.47.95-.6,1.07-1.17,2.16-1.71,3.26.02-.23,0-.46-.03-.68-.2-1.42-.61-2.8-1.2-4.11-.12-.27-.26-.55-.51-.72-.24-.17-.62-.19-.81.03-.18.21-.14.53-.08.81.5,2.44,1.12,4.85,1.86,7.23,1.27.79,3.01.19,4.58-.73Z"/>
        <path class="st2" d="M166.84,111.36c-.56-.44-1.56-.38-1.83.28-.12.29-.07.61,0,.92.71,3.05,3.84,5.31,4.31,7.36-.39-2.25-.88-4.49-1.49-6.69-.19-.69-.42-1.42-.98-1.86Z"/>
        <path class="st2" d="M178.94,111.77c-.24-.5-.9-.63-1.44-.55-.9.14-1.69.67-2.42,1.22-1.66,1.24-3.21,2.63-4.63,4.13,1.08.24,3.48-.56,5.76-1.61,1.02-.47,2.08-1.05,2.61-2.05.19-.35.3-.78.13-1.14Z"/>
        <path class="st2" d="M237.76,78.38c-.31-.12-.64-.12-.97-.11-1.97.1-3.89.97-4,2.66,1.48-.66,2.95-1.32,4.43-1.98.25-.11.55-.29.53-.57Z"/>
        <path class="st2" d="M232.15,81.68c-.34-.21-.73-.32-1.12-.43-1.1-.3-2.21-.57-3.32-.81,1.52,1.06,1.81,1.9,2.41,2.47.6.58,1.43.84,2.24,1.03.22.05.49.1.66-.05.16-.13.18-.37.16-.58-.07-.66-.46-1.28-1.03-1.63Z"/>
        <path class="st2" d="M223.59,81.3c.6-.06,1.19-.27,1.69-.62-.75-.51-1.75-.42-2.65-.31,1.23-.41,2.38-1.04,3.39-1.85.34-.27.69-.7.49-1.09-.19-.38-.74-.35-1.14-.22-1.35.44-2.45,1.42-3.5,2.37-.48.44-.99.9-.6,1.65,1.41.79,2.93,1.4,4.5,1.81.25.06.61.05.64-.21-.7-.85-1.73-1.4-2.82-1.54Z"/>
        <path class="st2" d="M219.87,82.74c-1.44-.44-2.9-.83-4.36-1.19-.63.67-.37,1.47.08,2.17.44.7,1.1,1.32,1.92,1.47.33.06.73,0,.89-.28.17-.3,0-.67-.18-.96-.23-.37-.49-.72-.77-1.05.98.32,2.04.64,3.03.34-.01-.28-.33-.43-.6-.51Z"/>
        <path class="st2" d="M216.54,77.49c-.28-.01-.54.12-.78.25-1.53.82-3.02,1.9-3.74,3.48-.3.67-.39,1.64.19,1.2,1.6-1.21,3.12-2.51,4.57-3.9.16-.15.32-.33.32-.54,0-.28-.29-.49-.56-.5Z"/>
        <path class="st2" d="M211.45,84.83c-.31-.5-.94-.7-1.52-.81-1.08-.21-2.2-.27-3.3-.18,1.44-.83,3.39-.81,4.49-2.06.11-.13.21-.35.07-.45-.08-.06-.2-.03-.29,0-1.47.46-2.93.99-4.35,1.58-2.12.88-1.43,3.09-.64,3.96.48.53,1.19.83,1.91.91.32.04.66.03.95-.11.29-.14.52-.46.47-.78-.03-.22-.18-.41-.33-.58-.44-.46-1.01-.8-1.62-.99.61.16,1.2.39,1.82.5.78.14,1.67.08,2.26-.46.07-.07.15-.15.16-.24.02-.1-.03-.21-.08-.3Z"/>
        <path class="st2" d="M204.27,87.57c-.18-.29-.54-.41-.88-.48-.99-.21-2.03-.19-3.01.03.73-.18,1.45-.47,2.02-.96.57-.49.98-1.2.97-1.95,0-.14-.02-.28-.11-.39-.19-.21-.54-.1-.79.03-1.07.56-2.04,1.29-2.88,2.16-.42.43-.82.94-.15.92.8.54,1.61,1.08,2.46,1.53.51.27,1.08.52,1.65.4.56-.13,1.02-.8.72-1.3Z"/>
        <path class="st2" d="M196.86,91.88c-1.36-.46-2.87.04-4.29-.17,1.22,0,2.44-.48,3.32-1.32.27-.26.53-.66.36-.99-.22-.41-.82-.3-1.25-.13-.82.33-1.64.68-2.44,1.06.11-.12.21-.26.29-.4.53-.89.93-1.85,1.19-2.85.05-.21.1-.43.04-.64-.06-.21-.26-.39-.47-.35-.2.04-.32.24-.41.42-.82,1.6-1.57,3.24-2.23,4.91.36,1.02,1.6,1.47,2.9,1.66,1.3.19,2.66.12,3.87-.41-.09-.4-.49-.65-.88-.78Z"/>
        <path class="st2" d="M193.74,93.77c-.57-.33-1.25-.39-1.91-.41-1.49-.05-2.99.02-4.48.22.5.63,2.21,1.26,3.97,1.71.79.2,1.65.35,2.39.03.26-.11.52-.31.59-.59.09-.39-.22-.76-.56-.96Z"/>
      </g>
    </g>
  </g>
  <g id="_ดอกสว่าง" data-name="ดอกสว่าง">
    <g id="_ดอกสว่าง1" data-name="ดอกสว่าง">
      <g>
        <path class="st3" d="M213.21,60.55c.4-.12.8-.26,1.18-.43.99-.45,1.89-1.15,2.44-2.1.11-.2.2-.47.04-.63-.16-.16-.43-.09-.63,0-1.85.81-3.53,2.03-4.99,3.57.34-.05.69-.12,1.03-.19.3-.11.61-.2.93-.23Z"/>
        <path class="st3" d="M208.29,62.58c.94.15,1.95.02,2.95-.11.54-.07,1.08-.14,1.58-.34.5-.2.97-.55,1.19-1.05.04-.08.07-.17.05-.25-.03-.18-.25-.26-.43-.28-.14-.01-.29-.01-.43,0-.32.03-.63.12-.93.23-.02,0-.04.01-.06.02-1.35.49-2.59,1.24-3.92,1.78Z"/>
        <path class="st3" d="M204.49,65.83c1.33-.48,2.36-1.7,2.61-3.08.04-.21-.03-.51-.23-.48-.09.01-.15.08-.21.15-.32.38-.64.76-.96,1.14.25-.98.51-1.97.49-2.98,0-.24-.02-.49-.13-.71-.1-.22-.31-.4-.55-.42-.31-.02-.57.22-.76.46-.69.89-.96,2.03-1.1,3.14-.15,1.18-.16,2.37.84,2.79Z"/>
        <path class="st3" d="M202.33,64.23c-.04-.17-.14-.37-.32-.35-.07,0-.13.06-.18.11-.21.21-.33.49-.42.77-.46,1.31-.48,2.73-.51,4.12.36-.08.56-.55.75-.99.48-1.17.96-2.43.68-3.66Z"/>
        <path class="st3" d="M199.9,70.35c2.6-.23,4.44-1.02,5.83-2.3.09-.08.18-.21.11-.3-.03-.04-.09-.06-.14-.08-.59-.17-1.22-.2-1.82-.07-1.6.34-2.76,1.67-3.98,2.75Z"/>
        <path class="st3" d="M195.45,73.82c1.09-.97,2.15-1.99,3.17-3.04.19-.2.39-.4.52-.65.12-.21.18-.45.25-.69.12-.43.24-.86.36-1.3.1-.35.2-.72.08-1.06-.56-.05-1.11.22-1.51.61-.4.39-.68.88-.92,1.39-.71,1.46-1.21,3.03-1.95,4.74Z"/>
        <path class="st3" d="M193.39,77.14c.27,1.13,2.3.99,4.29.62,1.05-.2,2.13-.48,2.93-1.19.24-.21.46-.52.37-.83-.14-.46-.79-.44-1.25-.32-1.88.48-3.71,1.09-5.55,1.71,1.23-.56,2.46-1.13,3.55-1.93.24-.18.51-.48.36-.75-.12-.21-.42-.22-.66-.19-1.44.2-2.77,1-3.64,2.16,0,.02-.02.04-.03.06-.11.22-.23.44-.36.66Z"/>
        <path class="st3" d="M189.83,80.78c1.58-1,2.72-2.24,3.55-3.65.13-.22.25-.43.36-.66,0-.02.02-.04.03-.06.21-.42.39-.89.31-1.36-.03-.18-.11-.36-.27-.44-.11-.06-.24-.05-.36-.03-.41.09-.71.42-.96.75-.41.53-.76,1.11-1.07,1.71.57-1.34.73-2.86.43-4.29-.05-.22-.12-.47-.32-.58-.28-.15-.62.04-.84.26-.59.6-.83,1.46-.97,2.29-.32,2-.11,4.04.09,6.05Z"/>
        <path class="st3" d="M186.44,85.25c-.5.26-1.03.5-1.59.68,1.77.2,3.59.39,5.3-.1,1.71-.49,3.3-1.82,3.54-3.58.02-.17.03-.35-.06-.5-.14-.24-.46-.3-.74-.29-.49,0-.97.12-1.41.32-.5.23-.94.58-1.37.92-1.15.91-2.31,1.83-3.62,2.52,0,.01,0,.02,0,.04-.05.11-.07.09-.07,0Z"/>
        <path class="st3" d="M184.94,80.26c.41,1.63,1.11,3.18,1.51,4.81.03-.24.1-.61.16-.96.32-2.03.65-4.06.97-6.09.06-.4.13-.8.06-1.2-.13-.73-.69-1.3-1.24-1.8-.18-.16-.39-.33-.63-.29-.22.03-.37.24-.49.43-.86,1.52-.78,3.41-.34,5.1Z"/>
        <path class="st3" d="M186.5,85.26s0-.02,0-.04c-.01-.05-.03-.1-.04-.15-.01.08-.02.14-.02.18,0,.1.01.11.07,0Z"/>
        <path class="st3" d="M179.39,89.75c.24,1.59.6,3.17,1.46,3.86.69-1.01,1.55-1.94,2.57-2.6.65-1.01,1.15-2.1,1.35-3.28.02-.15.04-.32-.06-.44-.14-.17-.41-.12-.62-.03-1.12.5-1.84,1.55-2.4,2.67.57-1.45.77-3.05.55-4.59-.08-.54-.22-1.1-.58-1.51s-1.02-.59-1.48-.29c-.27.18-.42.49-.53.79-.65,1.71-.53,3.61-.25,5.42Z"/>
        <path class="st3" d="M180.86,93.6s-.06.09-.09.14c-1.08,1.62-1.85,3.43-2.91,5.06,1.32-1.88,2.94-2.89,4.48-3.93,1.53-1.04,3.08-2.23,3.83-3.92.04-.1.09-.2.08-.31-.02-.41-.6-.5-1-.41-.65.15-1.26.42-1.82.78-1.02.65-1.88,1.59-2.57,2.6Z"/>
        <path class="st3" d="M174.7,93.3c-.22-.34-.55-.71-.95-.63-.44.08-.6.62-.63,1.06-.19,2.65,1.08,5.17,3.34,8.56.19-3.1-.08-6.38-1.76-8.99Z"/>
        <path class="st3" d="M184.39,95.72s.03-.09.05-.14c-.32.09-.63.22-.93.36-2.38,1.16-4.42,2.88-6.44,4.59.66.07,2.01-.22,3.45-.66,1.24-.88,2.56-1.63,4.01-2.12.2-.07.42-.13.63-.13.23-.19.45-.4.66-.62-.62-.23-1.16-.61-1.43-1.29Z"/>
        <path class="st3" d="M174.47,99.45c-.07-.08-.15-.15-.25-.18-.24-.05-.42.22-.5.45-.78,2.19.02,4.59.1,6.91.91-1.67,1.38-2.76,1.52-3.91.14-1.16-.09-2.41-.87-3.27Z"/>
        <path class="st3" d="M184.52,97.76c-1.44.49-2.76,1.24-4.01,2.12-1.54,1.09-2.96,2.37-4.35,3.64,1.28-.05,4.15-1.31,6.88-2.83,1.18-.66,2.47-1.56,2.59-2.91-.14-.12-.3-.16-.48-.16-.21,0-.43.06-.63.13Z"/>
        <path class="st3" d="M171.67,115.48c-.13-1.96-.33-3.91-.62-5.86-.22-1.49-.56-3.11-1.75-4.03-.21-.16-.44-.3-.7-.33-.58-.07-1.1.39-1.38.9-.82,1.51-.22,3.38.53,4.92,1.05,2.18,2.37,4.24,3.93,4.39Z"/>
        <path class="st3" d="M176.76,113.51c-1.11.19-2.01,1.02-2.73,1.89-1.16,1.4-2.07,2.99-2.98,4.57-.62-1.09-.05-2.48-.32-3.7-.2-.93-.94-1.73-1.85-2.02-.23-.07-.49-.11-.7.02-.28.18-.31.57-.3.9.06,2.14.47,4.28,1.2,6.29,1.43.81,2.93.15,4.22-.6,1.72-1,3.31-2.2,4.75-3.57.6-.57,1.21-1.27,1.17-2.1-.05-1.13-1.37-1.86-2.48-1.68Z"/>
        <path class="st3" d="M180.26,105.23c-1.67.08-3.16,1.08-4.36,2.25-1.19,1.17-2.19,2.54-3.45,3.63,2.62-.3,5.63-2.53,7.98-5.31.12-.15.25-.38.11-.51-.07-.07-.18-.07-.29-.07Z"/>
        <path class="st3" d="M188.54,93.52c.82-1.16,1.59-2.35,2.31-3.57.55-.93,1.09-2,.84-3.06-.04-.18-.11-.37-.25-.5-.29-.3-.79-.28-1.18-.12-1.15.47-1.65,1.8-1.94,3-.4,1.7-.59,3.46.22,4.25Z"/>
        <path class="st3" d="M197.32,85.58c-.11-.14-.34-.07-.49.02-1.43.87-2.07,2.59-3.08,3.93,1.27-.53,2.02-.92,2.63-1.51.6-.59,1.04-1.39,1-2.23,0-.07-.01-.15-.06-.21Z"/>
        <path class="st3" d="M240.25,81.38c-.01-.16-.2-.24-.36-.29-1.41-.38-2.9-.46-4.42-.26.22.13.44.25.66.36-.01,0-.03-.01-.04-.02-.98-.34-2.02-.48-3.01-.78.46.51,1.08.9,1.71,1.28.33.2.67.41,1.05.52s.79.13,1.14-.05c.06-.03.11-.06.14-.12.06-.12-.02-.26-.12-.35-.07-.07-.16-.14-.24-.19.28.12.56.22.86.29.76.19,1.59.21,2.32-.07.15-.06.32-.17.31-.33Z"/>
        <path class="st3" d="M232.43,79.58c-.05-.03-.12-.02-.18-.01-.35.07-.71.13-1.06.2.59-.44,1.18-.88,1.63-1.45.11-.14.21-.29.25-.46.04-.17,0-.37-.12-.49-.16-.15-.42-.14-.63-.08-.79.19-1.46.7-2.04,1.27-.62.6-1.16,1.26-.79,1.94.96.33,2.09.12,2.86-.55.11-.1.22-.3.09-.38Z"/>
        <path class="st3" d="M226.95,80.38c.8-.44,1.64-.93,2.04-1.75.05-.11.09-.27-.02-.34-.04-.03-.1-.03-.15-.02-.21.02-.4.13-.59.24-.85.53-1.51,1.32-2.15,2.09.24.12.57-.05.87-.22Z"/>
        <path class="st3" d="M229.33,82.09c-.25-.37-.6-.67-.99-.87-1.05-.53-2.3-.31-3.48-.26,1.57,1.05,2.96,1.43,4.32,1.35.08,0,.19-.03.2-.12,0-.04-.02-.08-.04-.11Z"/>
        <path class="st3" d="M224.52,80.5c.16-.07.31-.17.45-.27.26-.19.53-.38.79-.56.21-.15.44-.32.53-.56-.29-.28-.72-.38-1.12-.34-.4.03-.78.19-1.15.36-1.06.5-2.05,1.15-3.25,1.78,1.06-.05,2.11-.14,3.16-.27.2-.02.4-.05.59-.13Z"/>
        <path class="st3" d="M222.45,83.73c-1.27-.58-2.58-1.07-3.89-1.56.94.24,1.89.48,2.87.53.22,0,.5-.04.54-.26.03-.17-.13-.31-.28-.4-.9-.54-2.01-.69-3.03-.43.31-.14.62-.32.79-.62.06-.11.1-.25.05-.37-.04-.08-.11-.14-.19-.18-.27-.14-.59-.08-.88-.01-.48.12-.95.29-1.41.49.94-.49,1.73-1.28,2.22-2.23.07-.15.14-.32.08-.47-.09-.21-.36-.26-.59-.23-.6.07-1.13.44-1.58.85-1.09.98-1.89,2.22-2.69,3.44,1.34.15,2.55-.03,3.65-.44-.36.76.84,1.6,2.13,2.29.68.36,1.41.7,2.18.66.23-.01.5-.08.58-.3.13-.32-.24-.61-.56-.75Z"/>
        <path class="st3" d="M215.88,84.03c-.28-.22-.6-.38-.94-.46-.39-.1-.79-.1-1.18-.1-1.06,0-2.12-.02-3.18-.22.02-.03.03-.07.05-.1-.04.04-.07.07-.09.09-.4-.08-.8-.19-1.2-.34.9.91,1.84,1.84,3.02,2.35,1.18.5,2.68.47,3.61-.41.09-.09.18-.18.2-.31.03-.2-.12-.38-.28-.5Z"/>
        <path class="st3" d="M214.46,79.69c.22-.19.44-.39.58-.65.26-.47.2-1.04.12-1.57-.03-.17-.07-.36-.22-.45-.14-.08-.32-.04-.47.02-1.17.46-1.98,1.56-2.5,2.71-.51,1.1-.81,2.29-1.33,3.39.13-.12.33-.3.52-.47,1.1-.99,2.2-1.99,3.31-2.98Z"/>
        <path class="st3" d="M199.58,86.96c1.59-.46,2.96-.29,4.29-.18,1.33.11,2.74.14,3.93-.46.07-.04.14-.08.19-.14.18-.24-.11-.55-.38-.69-.43-.21-.9-.33-1.38-.39.82-.27,1.6-.65,2.24-1.23.08-.07.17-.16.17-.28,0-.16-.18-.25-.34-.29-.86-.23-1.73.04-2.56.41.98-.56,1.81-1.36,2.39-2.33.2-.34.38-.72.36-1.11-.02-.39-.31-.8-.7-.83-.23-.02-.46.09-.66.2-1.14.67-1.93,1.79-2.6,2.93-.58,1-1.1,2.05-.93,2.83-.04.01-.08.02-.11.03-1.34.42-2.59,1.09-3.92,1.52Z"/>
        <path class="st3" d="M197.21,88.28c1.51-1.65,2.84-3.62,3.09-5.85.03-.29.01-.65-.25-.79-.28-.15-.62.08-.83.31-1.31,1.41-1.74,3.39-2,6.32Z"/>
        <path class="st3" d="M200.58,88.77c-1.35-.09-2.74,0-4.09.08.74.55,2.92,1.14,5.15,1.53.96.17,2.09.24,2.77-.46-.02-.13-.1-.23-.2-.31.28,0,.56-.03.84-.08.2-.04.43-.11.51-.3.05-.13.02-.29-.04-.42-.26-.53-.89-.76-1.46-.89-1.86-.43-3.79-.38-5.7-.34.34.34,1.23.79,2.23,1.19Z"/>
        <path class="st3" d="M191.32,97.44c.6-.05,1.26-.17,1.61-.65.48-.66.08-1.67-.64-2.07-.71-.4-1.59-.34-2.39-.18-1.29.26-2.52.74-3.74,1.22.15-.89,1.1-1.41,1.5-2.22.31-.62.26-1.4-.13-1.97-.1-.14-.23-.28-.4-.3-.24-.03-.43.18-.58.37-.91,1.19-1.62,2.53-2.12,3.94-.02.05-.04.09-.05.14.27.68.81,1.06,1.43,1.29.39.14.81.23,1.22.29,1.42.22,2.86.27,4.29.15Z"/>
        <path class="st3" d="M198.01,91.66c-.97-.71-2.27-.82-3.47-.71-1.2.12-2.38.43-3.59.48,1.61,1.02,4.31,1.13,6.89.64.14-.03.31-.1.29-.24,0-.07-.07-.12-.13-.17Z"/>
        <path class="st3" d="M185.52,117.5c0-.26.08-.52,0-.77-.08-.24-.32-.4-.57-.47-.24-.07-.5-.07-.76-.09-.1,0-.21-.02-.29-.08-.22-.13-.24-.44-.23-.69-.32-.03-.6.22-.81.47-.14.16-.27.33-.4.5.04-.42.04-.84-.03-1.25-.02-.11-.05-.23-.13-.3-.11-.1-.29-.08-.42-.02-.5.22-.66.84-.76,1.38-.29,1.54-.58,3.07-.64,4.59.12-.18.25-.36.37-.54-.02.14-.04.28-.06.41.68-.13,1.33-.25,1.96-.33.63-.08,1.28-.13,1.85-.4s1.07-.83,1.06-1.46c0-.32-.14-.63-.14-.96Z"/>
        <path class="st3" d="M155.5,101.31c.92.52,1.61,1.36,2.48,1.74-.57-1.35-1.07-2.72-1.57-4.1.06-.27.14-.54.24-.8.11-.29.28-.61.54-.76-.42-1.21-.99-2.29-1.79-3.24-.08-.09-.16-.18-.28-.2-.14-.03-.28.06-.38.17-.04.04-.07.09-.11.13-.09-.17-.19-.34-.32-.48-.28-.32-.72-.53-1.13-.44-.51.11-.82.61-1.08,1.06-.39.7-.79,1.44-.79,2.24,0,.22.03.44-.07.63-.07.14-.2.24-.33.33l-.85.63c-.1.07-.2.16-.23.28-.02.12.04.23.11.32.59.85,1.62,1.27,2.61,1.54,1,.27,2.04.44,2.94.95Z"/>
        <path class="st3" d="M155.97,101.79c-.68-.41-1.47-.6-2.25-.75-1.55-.3-3.3-.44-4.57.51.57.78,1.66.94,2.63.98,1.89.08,3.89.01,6.98,1.63-1.04-.64-1.75-1.73-2.79-2.36Z"/>
      </g>
    </g>
  </g>
  <path id="_ช้อน" data-name="ช้อน" class="st5" d="M84.86,163.47c-8.4-10.35-4.02-22.66-4.02-22.66-20.73-31.18-49.13-51.94-52.51-56.55-3.39-4.61,2.11-9.06,2.11-9.06,0,0,5.49-4.46,9.3-.19,3.81,4.27,18.26,36.34,44.48,63.06,0,0,12.95-1.74,21.35,8.61,8.4,10.35,11.6,25.97,6.95,29.74-4.65,3.77-19.27-2.59-27.66-12.95Z"/>
  <path id="_น้ำ" data-name="น้ำ" class="st0" d="M139.64,197.31h-26.34c-29.34,0-55.12-19.46-63.15-47.68l-11.51-40.4h175.67l-11.51,40.4c-8.04,28.22-33.82,47.68-63.15,47.68Z"/>
  <g id="_ดอกเล็ก" data-name="ดอกเล็ก">
    <g class="st11">
      <g>
        <path class="st9" d="M187.87,130.02s-2.71-8.74.39-8.74.5,8.74.5,8.74h-.89Z"/>
        <path class="st9" d="M188.69,133.62s2.71,8.74-.39,8.74-.5-8.74-.5-8.74h.89Z"/>
        <path class="st9" d="M190.08,131.41s8.74-2.71,8.74.39-8.74.5-8.74.5v-.89Z"/>
        <path class="st9" d="M186.48,132.23s-8.74,2.71-8.74-.39,8.74-.5,8.74-.5v.89Z"/>
      </g>
      <g>
        <path class="st9" d="M189.26,130.26s4.26-8.1,6.46-5.9c2.19,2.19-5.83,6.53-5.83,6.53l-.63-.63Z"/>
        <path class="st9" d="M187.29,133.38s-4.26,8.1-6.46,5.9c-2.19-2.19,5.83-6.53,5.83-6.53l.63.63Z"/>
        <path class="st9" d="M189.84,132.81s8.1,4.26,5.9,6.46-6.53-5.83-6.53-5.83l.63-.63Z"/>
        <path class="st9" d="M186.72,130.83s-8.1-4.26-5.9-6.46c2.19-2.19,6.53,5.83,6.53,5.83l-.63.63Z"/>
      </g>
      <g>
        <path class="st9" d="M188.56,129.99s.69-9.12,3.57-7.99c2.89,1.14-2.74,8.31-2.74,8.31l-.83-.33Z"/>
        <path class="st9" d="M188,133.65s-.69,9.12-3.57,7.99c-2.89-1.14,2.74-8.31,2.74-8.31l.83.33Z"/>
        <path class="st9" d="M190.11,132.1s9.12.69,7.99,3.57c-1.14,2.89-8.31-2.74-8.31-2.74l.33-.83Z"/>
        <path class="st9" d="M186.45,131.54s-9.12-.69-7.99-3.57c1.14-2.89,8.31,2.74,8.31,2.74l-.33.83Z"/>
      </g>
      <g>
        <path class="st9" d="M189.77,130.73s6.94-5.97,8.17-3.12c1.24,2.85-7.82,3.94-7.82,3.94l-.35-.82Z"/>
        <path class="st9" d="M186.79,132.91s-6.94,5.97-8.17,3.12c-1.24-2.85,7.82-3.94,7.82-3.94l.35.82Z"/>
        <path class="st9" d="M189.37,133.31s5.97,6.94,3.12,8.17c-2.85,1.24-3.94-7.82-3.94-7.82l.82-.35Z"/>
        <path class="st9" d="M187.19,130.33s-5.97-6.94-3.12-8.17c2.85-1.24,3.94,7.82,3.94,7.82l-.82.35Z"/>
      </g>
      <rect class="st4" x="187.21" y="124.63" width=".38" height="5.6" transform="translate(-22.85 42.86) rotate(-12.3)"/>
      <rect class="st4" x="185.28" y="124.64" width=".38" height="6.2" transform="translate(-39.71 124.14) rotate(-33.64)"/>
      <rect class="st4" x="184.25" y="126.49" width=".38" height="5.51" transform="translate(-23 216.95) rotate(-57.94)"/>
      <polygon class="st4" points="181.2 133.48 181.12 133.11 186.51 131.98 186.21 131.26 180.43 130.54 180.48 130.16 186.47 130.91 187.04 132.26 181.2 133.48"/>
      <rect class="st4" x="181.25" y="134.38" width="6.03" height=".38" transform="translate(-43.62 123.21) rotate(-33.29)"/>
      <rect class="st4" x="183.03" y="135.46" width="5.28" height=".38" transform="translate(-27.2 222.61) rotate(-58.37)"/>
      <rect class="st4" x="184.19" y="136.49" width="6.2" height=".38" transform="translate(21.58 298.84) rotate(-80.5)"/>
      <rect class="st4" x="188.97" y="133.6" width=".38" height="5.46" transform="translate(-25.6 45.53) rotate(-12.86)"/>
      <rect class="st4" x="190.73" y="132.58" width=".38" height="6.5" transform="translate(-43.39 136.08) rotate(-35.49)"/>
      <rect class="st4" x="186.02" y="126.75" width="6.53" height=".38" transform="translate(34.83 294.53) rotate(-81.18)"/>
      <rect class="st4" x="187.8" y="127.99" width="5.96" height=".38" transform="translate(-18.74 222.67) rotate(-58.17)"/>
      <rect class="st4" x="189.32" y="128.9" width="6.19" height=".38" transform="translate(-39.2 135.58) rotate(-35.46)"/>
      <rect class="st4" x="191.83" y="131.49" width=".38" height="5.59" transform="translate(-25.46 221.5) rotate(-56.82)"/>
      <rect class="st4" x="189.3" y="130.82" width="6.22" height=".38" transform="translate(-24.01 45.28) rotate(-12.64)"/>
      <rect class="st4" x="192.68" y="129.33" width=".38" height="6.76" transform="translate(27.31 298.24) rotate(-79.53)"/>
      <path class="st13" d="M190.54,131.82c0,1.25-1.01,2.26-2.26,2.26s-2.26-1.01-2.26-2.26,1.01-2.26,2.26-2.26,2.26,1.01,2.26,2.26Z"/>
    </g>
    <g class="st11">
      <g>
        <path class="st9" d="M141.53,174.9s-2.71-8.74.39-8.74.5,8.74.5,8.74h-.89Z"/>
        <path class="st9" d="M142.34,178.51s2.71,8.74-.39,8.74-.5-8.74-.5-8.74h.89Z"/>
        <path class="st9" d="M143.74,176.3s8.74-2.71,8.74.39-8.74.5-8.74.5v-.89Z"/>
        <path class="st9" d="M140.13,177.12s-8.74,2.71-8.74-.39,8.74-.5,8.74-.5v.89Z"/>
      </g>
      <g>
        <path class="st9" d="M142.92,175.14s4.26-8.1,6.46-5.9c2.19,2.19-5.83,6.53-5.83,6.53l-.63-.63Z"/>
        <path class="st9" d="M140.95,178.27s-4.26,8.1-6.46,5.9c-2.19-2.19,5.83-6.53,5.83-6.53l.63.63Z"/>
        <path class="st9" d="M143.5,177.69s8.1,4.26,5.9,6.46c-2.19,2.19-6.53-5.83-6.53-5.83l.63-.63Z"/>
        <path class="st9" d="M140.37,175.72s-8.1-4.26-5.9-6.46c2.19-2.19,6.53,5.83,6.53,5.83l-.63.63Z"/>
      </g>
      <g>
        <path class="st9" d="M142.22,174.88s.69-9.12,3.57-7.99c2.89,1.14-2.74,8.31-2.74,8.31l-.83-.33Z"/>
        <path class="st9" d="M141.65,178.53s-.69,9.12-3.57,7.99c-2.89-1.14,2.74-8.31,2.74-8.31l.83.33Z"/>
        <path class="st9" d="M143.76,176.99s9.12.69,7.99,3.57c-1.14,2.89-8.31-2.74-8.31-2.74l.33-.83Z"/>
        <path class="st9" d="M140.11,176.43s-9.12-.69-7.99-3.57c1.14-2.89,8.31,2.74,8.31,2.74l-.33.83Z"/>
      </g>
      <g>
        <path class="st9" d="M143.43,175.61s6.94-5.97,8.17-3.12c1.24,2.85-7.82,3.94-7.82,3.94l-.35-.82Z"/>
        <path class="st9" d="M140.45,177.8s-6.94,5.97-8.17,3.12c-1.24-2.85,7.82-3.94,7.82-3.94l.35.82Z"/>
        <path class="st9" d="M143.03,178.2s5.97,6.94,3.12,8.17c-2.85,1.24-3.94-7.82-3.94-7.82l.82-.35Z"/>
        <path class="st9" d="M140.84,175.22s-5.97-6.94-3.12-8.17c2.85-1.24,3.94,7.82,3.94,7.82l-.82.35Z"/>
      </g>
      <rect class="st4" x="140.87" y="169.52" width=".38" height="5.6" transform="translate(-33.48 34.02) rotate(-12.3)"/>
      <rect class="st4" x="138.94" y="169.53" width=".38" height="6.2" transform="translate(-72.34 105.99) rotate(-33.64)"/>
      <rect class="st4" x="137.91" y="171.38" width=".38" height="5.51" transform="translate(-82.78 198.74) rotate(-57.94)"/>
      <polygon class="st4" points="134.85 178.37 134.78 178 140.17 176.87 139.87 176.15 134.09 175.42 134.14 175.05 140.13 175.8 140.69 177.14 134.85 178.37"/>
      <rect class="st4" x="134.91" y="179.27" width="6.03" height=".38" transform="translate(-75.86 105.14) rotate(-33.29)"/>
      <rect class="st4" x="136.69" y="180.35" width="5.28" height=".38" transform="translate(-87.46 204.5) rotate(-58.37)"/>
      <rect class="st4" x="137.84" y="181.38" width="6.2" height=".38" transform="translate(-61.39 290.62) rotate(-80.5)"/>
      <rect class="st4" x="142.63" y="178.48" width=".38" height="5.46" transform="translate(-36.76 36.34) rotate(-12.86)"/>
      <rect class="st4" x="144.39" y="177.47" width=".38" height="6.5" transform="translate(-78.06 117.52) rotate(-35.49)"/>
      <rect class="st4" x="139.67" y="171.64" width="6.53" height=".38" transform="translate(-48.77 286.74) rotate(-81.18)"/>
      <rect class="st4" x="141.46" y="172.88" width="5.96" height=".38" transform="translate(-78.78 204.51) rotate(-58.17)"/>
      <rect class="st4" x="142.98" y="173.79" width="6.19" height=".38" transform="translate(-73.84 117.02) rotate(-35.46)"/>
      <rect class="st4" x="145.49" y="176.38" width=".38" height="5.59" transform="translate(-84.01 203.04) rotate(-56.82)"/>
      <rect class="st4" x="142.96" y="175.71" width="6.22" height=".38" transform="translate(-34.95 36.23) rotate(-12.64)"/>
      <rect class="st4" x="146.33" y="174.22" width=".38" height="6.76" transform="translate(-54.75 289.4) rotate(-79.53)"/>
      <path class="st12" d="M144.2,176.71c0,1.25-1.01,2.26-2.26,2.26s-2.26-1.01-2.26-2.26,1.01-2.26,2.26-2.26,2.26,1.01,2.26,2.26Z"/>
    </g>
    <g class="st11">
      <g>
        <path class="st9" d="M108.53,124.19s-2.71-8.74.39-8.74.5,8.74.5,8.74h-.89Z"/>
        <path class="st9" d="M109.35,127.8s2.71,8.74-.39,8.74-.5-8.74-.5-8.74h.89Z"/>
        <path class="st9" d="M110.74,125.59s8.74-2.71,8.74.39-8.74.5-8.74.5v-.89Z"/>
        <path class="st9" d="M107.14,126.4s-8.74,2.71-8.74-.39,8.74-.5,8.74-.5v.89Z"/>
      </g>
      <g>
        <path class="st9" d="M109.92,124.43s4.26-8.1,6.46-5.9c2.19,2.19-5.83,6.53-5.83,6.53l-.63-.63Z"/>
        <path class="st9" d="M107.95,127.56s-4.26,8.1-6.46,5.9c-2.19-2.19,5.83-6.53,5.83-6.53l.63.63Z"/>
        <path class="st9" d="M110.5,126.98s8.1,4.26,5.9,6.46-6.53-5.83-6.53-5.83l.63-.63Z"/>
        <path class="st9" d="M107.38,125.01s-8.1-4.26-5.9-6.46c2.19-2.19,6.53,5.83,6.53,5.83l-.63.63Z"/>
      </g>
      <g>
        <path class="st9" d="M109.22,124.17s.69-9.12,3.57-7.99c2.89,1.14-2.74,8.31-2.74,8.31l-.83-.33Z"/>
        <path class="st9" d="M108.66,127.82s-.69,9.12-3.57,7.99c-2.89-1.14,2.74-8.31,2.74-8.31l.83.33Z"/>
        <path class="st9" d="M110.76,126.28s9.12.69,7.99,3.57c-1.14,2.89-8.31-2.74-8.31-2.74l.33-.83Z"/>
        <path class="st9" d="M107.11,125.71s-9.12-.69-7.99-3.57c1.14-2.89,8.31,2.74,8.31,2.74l-.33.83Z"/>
      </g>
      <g>
        <path class="st9" d="M110.43,124.9s6.94-5.97,8.17-3.12c1.24,2.85-7.82,3.94-7.82,3.94l-.35-.82Z"/>
        <path class="st9" d="M107.45,127.09s-6.94,5.97-8.17,3.12c-1.24-2.85,7.82-3.94,7.82-3.94l.35.82Z"/>
        <path class="st9" d="M110.03,127.49s5.97,6.94,3.12,8.17c-2.85,1.24-3.94-7.82-3.94-7.82l.82-.35Z"/>
        <path class="st9" d="M107.85,124.51s-5.97-6.94-3.12-8.17c2.85-1.24,3.94,7.82,3.94,7.82l-.82.35Z"/>
      </g>
      <rect class="st4" x="107.87" y="118.81" width=".38" height="5.6" transform="translate(-23.43 25.82) rotate(-12.3)"/>
      <rect class="st4" x="105.94" y="118.82" width=".38" height="6.2" transform="translate(-49.77 79.21) rotate(-33.64)"/>
      <rect class="st4" x="104.91" y="120.67" width=".38" height="5.51" transform="translate(-55.29 146.98) rotate(-57.94)"/>
      <polygon class="st4" points="101.86 127.66 101.78 127.29 107.17 126.16 106.87 125.44 101.09 124.71 101.14 124.34 107.13 125.09 107.7 126.43 101.86 127.66"/>
      <rect class="st4" x="101.91" y="128.56" width="6.03" height=".38" transform="translate(-53.44 78.71) rotate(-33.29)"/>
      <rect class="st4" x="103.69" y="129.64" width="5.28" height=".38" transform="translate(-59.98 152.28) rotate(-58.37)"/>
      <rect class="st4" x="104.85" y="130.67" width="6.2" height=".38" transform="translate(-38.93 215.73) rotate(-80.5)"/>
      <rect class="st4" x="109.63" y="127.77" width=".38" height="5.46" transform="translate(-26.3 27.72) rotate(-12.86)"/>
      <rect class="st4" x="111.39" y="126.76" width=".38" height="6.5" transform="translate(-54.75 88.94) rotate(-35.49)"/>
      <rect class="st4" x="106.68" y="120.93" width="6.53" height=".38" transform="translate(-26.6 211.19) rotate(-81.18)"/>
      <rect class="st4" x="108.46" y="122.17" width="5.96" height=".38" transform="translate(-51.29 152.51) rotate(-58.17)"/>
      <rect class="st4" x="109.98" y="123.08" width="6.19" height=".38" transform="translate(-50.54 88.47) rotate(-35.46)"/>
      <rect class="st4" x="112.49" y="125.66" width=".38" height="5.59" transform="translate(-56.5 152.46) rotate(-56.82)"/>
      <rect class="st4" x="109.96" y="125" width="6.22" height=".38" transform="translate(-24.65 27.78) rotate(-12.64)"/>
      <rect class="st4" x="113.34" y="123.5" width=".38" height="6.76" transform="translate(-31.88 215.46) rotate(-79.53)"/>
      <path class="st13" d="M111.2,126c0,1.25-1.01,2.26-2.26,2.26s-2.26-1.01-2.26-2.26,1.01-2.26,2.26-2.26,2.26,1.01,2.26,2.26Z"/>
    </g>
    <g class="st11">
      <g>
        <path class="st9" d="M79.66,156.22s-2.71-8.74.39-8.74.5,8.74.5,8.74h-.89Z"/>
        <path class="st9" d="M80.47,159.83s2.71,8.74-.39,8.74-.5-8.74-.5-8.74h.89Z"/>
        <path class="st9" d="M81.87,157.62s8.74-2.71,8.74.39-8.74.5-8.74.5v-.89Z"/>
        <path class="st9" d="M78.26,158.43s-8.74,2.71-8.74-.39,8.74-.5,8.74-.5v.89Z"/>
      </g>
      <g>
        <path class="st9" d="M81.05,156.46s4.26-8.1,6.46-5.9c2.19,2.19-5.83,6.53-5.83,6.53l-.63-.63Z"/>
        <path class="st9" d="M79.08,159.59s-4.26,8.1-6.46,5.9c-2.19-2.19,5.83-6.53,5.83-6.53l.63.63Z"/>
        <path class="st9" d="M81.63,159.01s8.1,4.26,5.9,6.46c-2.19,2.19-6.53-5.83-6.53-5.83l.63-.63Z"/>
        <path class="st9" d="M78.5,157.04s-8.1-4.26-5.9-6.46c2.19-2.19,6.53,5.83,6.53,5.83l-.63.63Z"/>
      </g>
      <g>
        <path class="st9" d="M80.35,156.2s.69-9.12,3.57-7.99c2.89,1.14-2.74,8.31-2.74,8.31l-.83-.33Z"/>
        <path class="st9" d="M79.78,159.85s-.69,9.12-3.57,7.99c-2.89-1.14,2.74-8.31,2.74-8.31l.83.33Z"/>
        <path class="st9" d="M81.89,158.31s9.12.69,7.99,3.57c-1.14,2.89-8.31-2.74-8.31-2.74l.33-.83Z"/>
        <path class="st9" d="M78.24,157.74s-9.12-.69-7.99-3.57c1.14-2.89,8.31,2.74,8.31,2.74l-.33.83Z"/>
      </g>
      <g>
        <path class="st9" d="M81.56,156.93s6.94-5.97,8.17-3.12c1.24,2.85-7.82,3.94-7.82,3.94l-.35-.82Z"/>
        <path class="st9" d="M78.57,159.12s-6.94,5.97-8.17,3.12c-1.24-2.85,7.82-3.94,7.82-3.94l.35.82Z"/>
        <path class="st9" d="M81.16,159.51s5.97,6.94,3.12,8.17c-2.85,1.24-3.94-7.82-3.94-7.82l.82-.35Z"/>
        <path class="st9" d="M78.97,156.53s-5.97-6.94-3.12-8.17c2.85-1.24,3.94,7.82,3.94,7.82l-.82.35Z"/>
      </g>
      <rect class="st4" x="79" y="150.84" width=".38" height="5.6" transform="translate(-30.92 20.41) rotate(-12.3)"/>
      <rect class="st4" x="77.07" y="150.85" width=".38" height="6.2" transform="translate(-72.35 68.58) rotate(-33.64)"/>
      <rect class="st4" x="76.04" y="152.69" width=".38" height="5.51" transform="translate(-95.98 137.54) rotate(-57.94)"/>
      <polygon class="st4" points="72.98 159.68 72.9 159.31 78.3 158.18 77.99 157.47 72.22 156.74 72.27 156.37 78.26 157.12 78.82 158.46 72.98 159.68"/>
      <rect class="st4" x="73.04" y="160.58" width="6.03" height=".38" transform="translate(-75.76 68.12) rotate(-33.29)"/>
      <rect class="st4" x="74.82" y="161.67" width="5.28" height=".38" transform="translate(-100.98 142.93) rotate(-58.37)"/>
      <rect class="st4" x="75.97" y="162.69" width="6.2" height=".38" transform="translate(-94.62 213.99) rotate(-80.5)"/>
      <rect class="st4" x="80.76" y="159.8" width=".38" height="5.46" transform="translate(-34.15 22.1) rotate(-12.86)"/>
      <rect class="st4" x="82.52" y="158.78" width=".38" height="6.5" transform="translate(-78.71 78.12) rotate(-35.49)"/>
      <rect class="st4" x="77.8" y="152.96" width="6.53" height=".38" transform="translate(-82.7 209.78) rotate(-81.18)"/>
      <rect class="st4" x="79.59" y="154.19" width="5.96" height=".38" transform="translate(-92.14 143.11) rotate(-58.17)"/>
      <rect class="st4" x="81.1" y="155.1" width="6.19" height=".38" transform="translate(-74.48 77.66) rotate(-35.46)"/>
      <rect class="st4" x="83.61" y="157.69" width=".38" height="5.59" transform="translate(-96.38 142.8) rotate(-56.82)"/>
      <rect class="st4" x="81.09" y="157.02" width="6.22" height=".38" transform="translate(-32.36 22.24) rotate(-12.64)"/>
      <rect class="st4" x="84.46" y="155.53" width=".38" height="6.76" transform="translate(-87 213.27) rotate(-79.53)"/>
      <path class="st13" d="M82.33,158.02c0,1.25-1.01,2.26-2.26,2.26s-2.26-1.01-2.26-2.26,1.01-2.26,2.26-2.26,2.26,1.01,2.26,2.26Z"/>
    </g>
  </g>
  <g id="_ถุงชา" data-name="ถุงชา">
    <path class="st14" d="M72.79,136.09l-5.13-4.16c-.64-.52-1.53-.5-2.15.05l-4.65,4.11c-.39.35-.62.87-.62,1.41v14.01c0,1.01.77,1.83,1.73,1.83h9.78c.95,0,1.73-.82,1.73-1.83v-13.96c0-.57-.25-1.11-.68-1.46ZM66.73,137.95c-1.09,0-1.98-.94-1.98-2.1s.89-2.1,1.98-2.1,1.98.94,1.98,2.1-.89,2.1-1.98,2.1Z"/>
    <path d="M66.86,136.04c-.32,0-.58-.27-.58-.61v-26.02c0-.34.26-.61.58-.61s.58.27.58.61v26.02c0,.34-.26.61-.58.61Z"/>
  </g>
  <g id="_หน้า" data-name="หน้า">
    <g id="_ปาก" data-name="ปาก">
      <line class="st7" x1="120.16" y1="153.25" x2="125.62" y2="158.72"/>
      <line class="st7" x1="131.09" y1="153.25" x2="125.62" y2="158.72"/>
    </g>
    <g id="_แก้ม" data-name="แก้ม" class="st1">
      <circle id="_ซ้าย" data-name="ซ้าย" class="st3" cx="94.24" cy="150.58" r="9.92"/>
      <circle id="_ขวา" data-name="ขวา" class="st3" cx="158.7" cy="151.22" r="9.92"/>
    </g>
    <g id="_ตา" data-name="ตา">
      <circle id="_ซ้าย1" data-name="ซ้าย" cx="104.81" cy="142.74" r="3.99"/>
      <circle id="_ขวา1" data-name="ขวา" cx="147.91" cy="142.74" r="3.99"/>
      <circle class="st9" cx="104.92" cy="140.95" r="1.79"/>
      <circle class="st9" cx="148.01" cy="140.95" r="1.79"/>
    </g>
  </g>
  <g id="_ผีเสื้อ" data-name="ผีเสื้อ">
    <path class="st2" d="M73.06,83.59c.05-2.18-1.17-4.35-3.06-5.44-3.11-1.79-7.02-1.21-10.36-2.27-1.15-.37-2.27-.84-3.46-1.04-1.67-.29-9.99-.41-10.81,1.37-.57,1.24-.24,2.75.52,3.88.76,1.13,1.89,1.96,3.03,2.72,3.89,2.59,8.16,4.61,12.63,5.98,1.42.44,2.94.8,4.42.85.1.2.19.39.29.59.39.81.81,1.65,1.54,2.16.73.51,1.88.56,2.42-.15.58-.75.21-1.84-.27-2.65-.12-.2-.25-.41-.37-.62.06-.03.12-.05.18-.08,1.94-1,3.25-3.11,3.3-5.29Z"/>
    <path class="st3" d="M44.33,80.68c-1.84-8.55-.1-17.82,4.72-25.12,1.38-2.09,3.78-4.25,6.09-3.28,2.03.86,2.44,3.48,3.48,5.42,1.53,2.84,4.63,4.38,7.34,6.13,2.71,1.75,5.42,4.35,5.28,7.58-.17,3.7-3.88,6.07-7.15,7.79-5.44,2.86-11.65,5.8-17.5,3.92-1.51-.49-1.92-.89-2.25-2.44Z"/>
    <g>
      <path class="st14" d="M41.69,72.53c.03-1.46-.15-2.93-.16-4.39-.01-1.44.23-2.97.03-4.4-.08-.57-.88-.6-1-.03-.31,1.43-.05,3.07.1,4.51.15,1.44.31,2.99.76,4.37.05.16.27.09.27-.06h0Z"/>
      <path class="st14" d="M40.06,73.39c-.86-.88-2.21-1.41-3.28-2.01-.57-.32-1.14-.63-1.71-.96-.56-.32-1.11-.8-1.77-.89-.66-.09-.91.68-.49,1.1.46.46,1.2.61,1.78.86.6.26,1.19.52,1.78.78,1.11.49,2.33,1.24,3.55,1.39.17.02.23-.17.13-.28h0Z"/>
      <path class="st14" d="M51.08,88.6c-1.31.93-2.79-.42-3.8-1.59-.25-.28-.47-.56-.65-.79-.05-.06-.1-.12-.14-.18-.99-1.22-1.93-2.47-2.82-3.77-.14-.2-.27-.4-.41-.6-.35-.52-.7-1.06-1.03-1.59-.23-.36-.72-1.24-1.23-2.3-.14-.28-.27-.58-.41-.88-.51-1.15-.96-2.38-1.07-3.32h0c-.03-.26-.04-.49-.01-.7.09-.76.6-1.12,1.79-.71.12.04.26.09.4.15.02,0,.05.02.07.03.83.36,1.48,1.05,2.07,1.74.04.05.09.11.15.17.18.21.43.5.71.84.72.86,1.71,2.09,2.73,3.46.19.25.38.51.56.78.93,1.3,1.83,2.68,2.52,3.98.2.38.38.75.54,1.11.83,1.86,1.06,3.44.04,4.16Z"/>
      <path class="st10" d="M51.05,84.44c-.75.48-1.49.98-2.22,1.49-.52.36-1.04.71-1.55,1.08-.25-.28-.47-.56-.65-.79.49-.44,1.03-.84,1.49-1.2.76-.61,1.56-1.17,2.39-1.69.2.38.38.75.54,1.11Z"/>
    </g>
    <path class="st6" d="M48.78,68.97c.52.99,1.58,1.58,2.64,1.95,1.34.47,2.83.65,4.18.19,2.17-.74,3.57-3.25,3.05-5.49-1.77-7.59-13.19-2.93-9.87,3.35Z"/>
    <path class="st6" d="M61.96,70.95c.28.52.83.84,1.39,1.03.71.25,1.5.34,2.21.1,1.15-.39,1.89-1.72,1.61-2.9-.94-4.02-6.98-1.55-5.22,1.77Z"/>
  </g>
</svg>