<?xml version="1.0" encoding="UTF-8"?>
<svg id="Layer_39" xmlns="http://www.w3.org/2000/svg" xmlns:xlink="http://www.w3.org/1999/xlink" version="1.1" viewBox="0 0 243.18 284.53">
  <!-- Generator: Adobe Illustrator 30.0.0, SVG Export Plug-In . SVG Version: 2.1.1 Build 123)  -->
  <defs>
    <style>
      .st0, .st1 {
        fill: none;
      }

      .st1 {
        stroke: #000;
        stroke-linecap: round;
        stroke-linejoin: round;
        stroke-width: 2.48px;
      }

      .st2 {
        fill: url(#linear-gradient);
      }

      .st3 {
        opacity: .4;
      }

      .st3, .st4 {
        fill: #fff;
      }

      .st5 {
        fill: #ddb4ab;
      }

      .st6 {
        fill: #986251;
      }

      .st7 {
        opacity: .8;
      }

      .st8 {
        opacity: .7;
      }

      .st9 {
        clip-path: url(#clippath);
      }
    </style>
    <clipPath id="clippath">
      <path class="st0" d="M150.68,270.24h-58.18c-13.4,0-24.82-9.93-26.95-23.44l-24.42-154.79c-.78-4.96,2.97-9.45,7.89-9.45h145.15c4.92,0,8.67,4.5,7.89,9.45l-24.42,154.79c-2.13,13.51-13.55,23.44-26.95,23.44Z"/>
    </clipPath>
    <linearGradient id="linear-gradient" x1="120.39" y1="295.34" x2="120.39" y2="59.01" gradientUnits="userSpaceOnUse">
      <stop offset=".54" stop-color="#fff"/>
      <stop offset="1" stop-color="#d6a99f"/>
    </linearGradient>
  </defs>
  <path d="M92.5,273.11c-2.27,0-4.54-.26-6.74-.78-11.43-2.67-20.36-11.98-22.74-23.7-.09-.46-.18-.93-.25-1.39l-20.64-130.84-3.79-24.02v-.03s-.09-.58-.09-.58c-.06-.4-.1-.8-.12-1.2-.12-2.77.82-5.44,2.66-7.5,1.28-1.44,2.92-2.48,4.74-3.01.91-.27,1.87-.4,2.83-.4h146.48c.77,0,1.54.09,2.28.26,2.36.55,4.47,1.95,5.93,3.95,1.33,1.82,2.03,3.98,2.03,6.25,0,.56-.04,1.12-.13,1.66l-24.53,155.46c-1.48,9.35-6.98,17.37-15.1,21.98-4.46,2.54-9.52,3.88-14.63,3.88h-58.18Z"/>
  <path class="st4" d="M202.25,90.12c0-1.68-.54-3.25-1.47-4.52-1.03-1.41-2.54-2.46-4.29-2.86-.53-.12-1.09-.19-1.66-.19h-.65s0,0,0,0H49.01s0,0,0,0h-.65c-.71,0-1.4.1-2.05.29-1.35.39-2.52,1.17-3.43,2.19-1.28,1.44-2.02,3.36-1.93,5.43.01.29.04.58.09.88l.1.62s0,.03,0,.04l3.78,23.96,20.64,130.84c.07.42.14.84.23,1.26,2.2,10.79,10.37,19.09,20.61,21.48,1.97.46,4.01.7,6.11.7h0s0,0,0,0h58.18c4.79,0,9.31-1.27,13.26-3.52,7.1-4.04,12.31-11.24,13.69-19.93l14.46-91.63h0s1.34-8.49,1.34-8.49h0l8.73-55.35c.06-.41.09-.81.09-1.21Z"/>
  <path id="_แก้วฟ้าฐาน" data-name="แก้วฟ้าฐาน" class="st4" d="M150.68,270.24h-58.18c-13.4,0-24.82-9.93-26.95-23.44l-24.53-155.46c-.73-4.61,2.76-8.78,7.33-8.78h146.48c4.57,0,8.05,4.18,7.33,8.78l-24.53,155.46c-2.13,13.51-13.55,23.44-26.95,23.44Z"/>
  <g class="st9">
    <path id="_นมใน" data-name="นมใน" class="st5" d="M195.74,148.71s-11.46-12.64-44.83-16.29-77.2,14.33-77.2,14.33l102.6,11.8,24.9-5.34-5.48-4.49Z"/>
  </g>
  <path id="_นม" data-name="นม" class="st2" d="M192.87,150.16l-15.25,96.63c-2.13,13.51-13.55,23.44-26.94,23.44h-58.18c-13.4,0-24.82-9.93-26.95-23.44l-17.64-111.79c14.17-6.37,39.36-11.84,69.54,7.39,31.22,19.89,59.77,13.99,75.42,7.78Z"/>
  <path id="_แก้วฟ้าใส" data-name="แก้วฟ้าใส" class="st3" d="M202.05,91.99l-9.18,58.17c-15.65,6.21-44.2,12.11-75.42-7.78-30.18-19.22-55.37-13.76-69.54-7.39l-6.79-43.01c-.78-4.96,2.97-9.45,7.88-9.45h145.16c4.92,0,8.66,4.49,7.88,9.45Z"/>
  <g id="_รอยใส" data-name="รอยใส" class="st7">
    <path class="st4" d="M185.51,133.5h0c-3.42-.61-5.7-3.94-5.1-7.43l2.25-13.11c.6-3.49,3.86-5.82,7.27-5.21h0c3.42.61,5.7,3.94,5.1,7.43l-2.25,13.11c-.6,3.49-3.86,5.82-7.27,5.21Z"/>
    <ellipse class="st4" cx="184.11" cy="140.97" rx="5.12" ry="5.23"/>
  </g>
  <path class="st6" d="M202.16,91.33l-.75,4.78c-2.39-1.36-5-2.93-8.01-4.49-8.81-4.55-20.66-2.43-15.39,7.8,3.58,6.94,1.08,11.67-3.66,11.67-5.52,0-6.84-3.96-3.83-11.64,2.1-5.37-8.05-8.57-15.25-3.02-5.51,4.25-7.83,9.91-15.35,9.91-8.78,0-11.81-8.46-20.79-11.54-8.29-2.84-18.87,2.22-14.07,11.54,3.56,6.91-.42,10.94-5.52,10.94-7.96,0-8.97-6.61-5.12-13.25,4.88-8.4-8.78-12.05-18.01-8.84-8.88,3.09-11.12,7.05-23.88,8.84-3.32.47-6.56.23-9.55-.37l-1.95-12.34c-.73-4.61,2.76-8.78,7.33-8.78h146.48c4.57,0,8.05,4.18,7.33,8.78Z"/>
  <g id="_หน้า" data-name="หน้า">
    <g id="_ปาก" data-name="ปาก">
      <line class="st1" x1="113.26" y1="197.19" x2="120.35" y2="204.43"/>
      <line class="st1" x1="127.43" y1="197.19" x2="120.35" y2="204.43"/>
    </g>
    <g id="_แก้ม" data-name="แก้ม">
      <ellipse id="_ซ้าย" data-name="ซ้าย" class="st6" cx="79.65" cy="193.66" rx="12.86" ry="13.13"/>
      <ellipse id="_ขวา" data-name="ขวา" class="st6" cx="163.23" cy="194.49" rx="12.86" ry="13.13"/>
    </g>
    <g id="_ตา" data-name="ตา">
      <ellipse id="_ซ้าย1" data-name="ซ้าย" cx="93.36" cy="183.27" rx="5.18" ry="5.29"/>
      <ellipse id="_ขวา1" data-name="ขวา" cx="149.24" cy="183.27" rx="5.18" ry="5.29"/>
      <ellipse class="st4" cx="93.5" cy="180.9" rx="2.32" ry="2.37"/>
      <ellipse class="st4" cx="149.38" cy="180.9" rx="2.32" ry="2.37"/>
    </g>
  </g>
  <g id="_ควัน" data-name="ควัน" class="st8">
    <g>
      <path class="st4" d="M137.11,31.96c-.84,1.07-1.7,2.04-2.76,3.01-1.07,1.01-2.23,2.04-3.45,3.12-2.38,2.18-5.04,4.66-7.04,8.09-2.02,3.4-2.91,7.76-2.35,11.58.48,3.87,2.06,7.29,4.12,10.12,2.1,2.81,4.64,5.15,7.57,6.71-3.49-5.62-5.76-11.71-5.45-17.14.17-2.7.98-5,2.45-7.05,1.46-2.08,3.58-4.03,5.94-6.15,4.56-3.98,10.99-10.38,10.17-19.33-.25-2.17-1.14-4.33-2.47-5.92-1.33-1.61-2.92-2.7-4.45-3.48-3.1-1.56-6-2.32-8.81-4.09,1.55,3.07,4.51,5.17,6.57,7.36,2.2,2.17,3.19,4.32,2.94,6.49-.17,2.17-1.35,4.57-2.99,6.69Z"/>
      <path class="st4" d="M115.83,70.05c-2.61-3.63-4.51-7.59-4.99-11.62-.48-4.02.73-7.86,3.28-10.8,2.64-3.04,6.23-6,8.76-9.97,1.26-1.97,2.38-4.32,2.32-6.94-.11-2.66-1.74-4.77-3.57-5.95,1.27,1.87,2.03,3.94,1.64,5.83-.35,1.89-1.54,3.56-2.84,5.13-2.71,3.16-6.08,5.68-9.3,9.21-1.55,1.9-2.8,4.17-3.41,6.65-.56,2.48-.58,5.08.07,7.45,1.21,4.77,4.3,8.64,8.03,11.02Z"/>
      <path class="st4" d="M140.95,50.55c-1.18,1.85-1.97,4.03-2.16,6.26-.17,2.22.1,4.43.85,6.42,1.42,3.98,4.17,7.2,7.48,9.19-2.18-3.23-3.83-6.62-4.5-10.07-.68-3.46-.12-6.81,1.65-9.53,1.77-2.73,4.77-5.14,7.35-8.16,1.3-1.51,2.5-3.26,3.19-5.27.67-2.02.68-4.23-.02-6.08-.24,4.07-2.58,6.76-5.33,9.08-2.72,2.39-6.02,4.47-8.5,8.17Z"/>
    </g>
  </g>
</svg>