<?xml version="1.0" encoding="UTF-8"?>
<svg id="Layer_41" xmlns="http://www.w3.org/2000/svg" xmlns:xlink="http://www.w3.org/1999/xlink" version="1.1" viewBox="0 0 190.3 266.42">
  <!-- Generator: Adobe Illustrator 30.0.0, SVG Export Plug-In . SVG Version: 2.1.1 Build 123)  -->
  <defs>
    <style>
      .st0, .st1, .st2 {
        fill: none;
      }

      .st1 {
        stroke-width: 4.03px;
      }

      .st1, .st2 {
        stroke: #000;
        stroke-linecap: round;
        stroke-linejoin: round;
      }

      .st3 {
        fill: url(#linear-gradient1);
      }

      .st4 {
        fill: url(#linear-gradient3);
      }

      .st5 {
        fill: url(#linear-gradient2);
        opacity: .62;
      }

      .st6 {
        fill: url(#linear-gradient);
      }

      .st7 {
        fill: #442e21;
      }

      .st8 {
        clip-path: url(#clippath-1);
      }

      .st9 {
        fill: #fff;
      }

      .st10 {
        fill: #edb78e;
      }

      .st2 {
        stroke-width: 1.48px;
      }

      .st11 {
        clip-path: url(#clippath);
      }
    </style>
    <linearGradient id="linear-gradient" x1="88.56" y1="31.16" x2="88.56" y2="249.09" gradientUnits="userSpaceOnUse">
      <stop offset=".17" stop-color="#c49976"/>
      <stop offset=".59" stop-color="#96590f"/>
    </linearGradient>
    <clipPath id="clippath">
      <path class="st0" d="M88.56,230.07h0c-11.9,0-22.08-8.56-24.11-20.29l-24.15-139.36h96.53l-24.15,139.36c-2.03,11.73-12.21,20.29-24.11,20.29Z"/>
    </clipPath>
    <linearGradient id="linear-gradient1" x1="89.28" y1="172.95" x2="89.28" y2="260.34" gradientUnits="userSpaceOnUse">
      <stop offset=".34" stop-color="#cc8246"/>
      <stop offset=".39" stop-color="#bf783f"/>
      <stop offset=".62" stop-color="#864c20"/>
      <stop offset=".73" stop-color="#703b14"/>
    </linearGradient>
    <linearGradient id="linear-gradient2" x1="-325.72" y1="-435.69" x2="-282.3" y2="-435.69" gradientTransform="translate(308.93 646.29) rotate(14.18)" gradientUnits="userSpaceOnUse">
      <stop offset="0" stop-color="#fff" stop-opacity="0"/>
      <stop offset="1" stop-color="#fff"/>
    </linearGradient>
    <linearGradient id="linear-gradient3" x1="88.56" y1="20.27" x2="88.56" y2="88.79" gradientUnits="userSpaceOnUse">
      <stop offset=".4" stop-color="#fff"/>
      <stop offset=".77" stop-color="#edb78e"/>
    </linearGradient>
    <clipPath id="clippath-1">
      <path id="_ครีม1" data-name="ครีม" class="st0" d="M79.97,30.97h17.17c21.9,0,39.68,17.78,39.68,39.68H40.29c0-21.9,17.78-39.68,39.68-39.68Z"/>
    </clipPath>
  </defs>
  <path d="M63.12,251.96c-4.31,0-7.82-3.51-7.82-7.82v-8.48h2.4c.1,0,.2,0,.31,0,2.11-.08,4.02-1.05,5.37-2.72,1.39-1.72,1.97-3.95,1.59-6.12l-26.65-153.77h-.42v-2.41l-.47-2.59h.55c.16-2.66.58-5.29,1.23-7.85.68-2.66,1.63-5.26,2.82-7.74,4.74-9.87,13-17.41,23.24-21.23,2.56-.96,5.24-1.66,7.95-2.1,2.23-.36,4.5-.54,6.75-.54h17.17c.77,0,1.56.02,2.37.07,5.75.32,11.28,1.78,16.41,4.35,1.19.6,2.37,1.26,3.5,1.96,4.09,2.56,7.69,5.78,10.7,9.57.79.99,1.54,2.04,2.24,3.11,2.81,4.29,4.78,8.99,5.87,13.98.32,1.48.57,2.99.73,4.49.07.63.12,1.27.16,1.91h.55l-.47,2.61v2.41h-.42l-26.65,153.77c-.38,2.17.2,4.4,1.59,6.12,1.35,1.67,3.26,2.64,5.38,2.72.1,0,.2,0,.3,0h2.4v8.48c0,4.31-3.51,7.82-7.82,7.82h-50.88Z"/>
  <path class="st9" d="M136.83,70.42h0c0-1.37-.08-2.72-.23-4.05-.15-1.44-.39-2.85-.69-4.24-1.04-4.77-2.95-9.22-5.54-13.18-.66-1.01-1.37-1.99-2.12-2.93-2.82-3.55-6.23-6.61-10.09-9.02-1.07-.67-2.17-1.29-3.3-1.85-4.7-2.35-9.94-3.8-15.48-4.1-.74-.04-1.49-.06-2.24-.06h-17.17c-2.17,0-4.3.18-6.37.51-2.59.42-5.1,1.09-7.5,1.98-9.64,3.59-17.5,10.82-21.92,20.02-1.11,2.32-2.01,4.76-2.66,7.29-.79,3.08-1.22,6.31-1.23,9.64h0v.02c0,.07,0,.14,0,.22h0s.04,0,.04,0l.69,3.99,2.18,12.6,1.18,6.78,16.43,94.8,3.11,17.96.52,2.99,2.88,16.63c1.02,5.86-3.29,11.41-9.24,11.64-.13,0-.26,0-.4,0v6.09c0,2.99,2.43,5.42,5.42,5.42h50.88c2.99,0,5.42-2.43,5.42-5.42v-6.09c-.13,0-.26,0-.4,0-5.94-.23-10.25-5.78-9.24-11.64l2.88-16.63.52-2.99,3.11-17.96,16.9-97.49,3.13-18.08.45-2.6h.04c0-.07,0-.14,0-.22v-.02Z"/>
  <path id="_ฐาน" data-name="ฐาน" class="st9" d="M109.79,226.4l27.04-155.98H40.29l27.04,155.98c1.02,5.86-3.29,11.41-9.24,11.64-.13,0-.26,0-.4,0v6.09c0,2.99,2.43,5.42,5.42,5.42h50.88c2.99,0,5.42-2.43,5.42-5.42v-6.09c-.13,0-.26,0-.4,0-5.94-.23-10.25-5.78-9.24-11.64Z"/>
  <polyline id="_หลอด" data-name="หลอด" class="st1" points="90.12 141.04 147.02 32.83 181.62 49.3"/>
  <path id="_น้ำ" data-name="น้ำ" class="st6" d="M88.56,230.07h0c-11.9,0-22.08-8.56-24.11-20.29l-24.15-139.36h96.53l-24.15,139.36c-2.03,11.73-12.21,20.29-24.11,20.29Z"/>
  <g id="_ข้างในน้ำ" data-name="ข้างในน้ำ">
    <g class="st11">
      <rect class="st3" x="37.54" y="188.83" width="103.48" height="63"/>
      <rect class="st10" x="37.54" y="72.17" width="103.48" height="19.16"/>
      <path class="st5" d="M153.05,69.3c-4.61-.36-8.91-1.66-13.36-2.72-6.11-1.46-13.16-2.54-18.28-6.92l-28.14,152.07c-2.21,11.95-.89,21.28,3,22.27l6.09,1.54c3.89.98,9.49-6.61,13.21-18.17l47.72-148.03c-3.43.17-6.85.23-10.24-.04Z"/>
      <path class="st7" d="M143.73,75.01c-2.56-.61-5.33-1.09-7.77-.09-2.94,1.21-4.71,4.38-5.07,7.54-.36,3.16.45,6.32,1.37,9.37.58,1.92,1.21,3.95.72,5.89-.51,2.02-2.32,3.65-4.38,3.95s-4.26-.74-5.33-2.53c-.76-1.27-.95-2.79-.95-4.26.01-2.56.6-5.11,1.7-7.42,1.01-2.11,2.48-4.14,2.54-6.48.1-3.93-4.15-6.92-8.08-6.73-.3.01-.61.05-.86.21-.36.23-.52.67-.59,1.09-.54,3.1,2.11,6.74.13,9.14-1.01,1.22-2.76,1.49-4.17.77-2.36-1.21-2.99-3.94-2.7-6.36.17-1.38.6-2.84.04-4.12-1.02-2.34-4.45-2.3-6.73-1.16s-4.37,3.01-6.93,3.09c-1.78.06-3.41-.76-5.03-1.59-3.11-1.58-6.69,1.07-6.1,4.51.2,1.13.59,2.23,1.17,3.23.63,1.07,1.48,2.12,1.44,3.36-.07,2.01-2.46,3.11-4.47,3.06-1.56-.04-3.16-.53-4.27-1.61s-1.65-2.83-1.07-4.28c.53-1.3,1.87-2.25,2.04-3.64.28-2.24-2.44-3.52-4.62-4.08-1.53-.39-3.14-.79-4.68-.45-1.44.32-2.71,1.26-4.17,1.47-3.09.45-5.65-2.39-8.69-3.08-3.97-.91-8.28,2.79-7.99,6.85.16,2.23,1.43,4.21,2.33,6.26s1.39,4.59.1,6.42c-1.27,1.8-3.98,2.19-5.94,1.17s-3.15-3.15-3.48-5.33.1-4.4.73-6.51c.63-2.11,1.4-4.62-.02-6.3-.97-1.15-16.23.69-16.96-.62-.06-.1-1.08-20.72-1.08-20.72l119.44,10.34-1.63,9.63Z"/>
    </g>
  </g>
  <path id="_ครีม" data-name="ครีม" class="st4" d="M79.97,30.97h17.17c21.9,0,39.68,17.78,39.68,39.68H40.29c0-21.9,17.78-39.68,39.68-39.68Z"/>
  <g id="_ซอสราด" data-name="ซอสราด">
    <g class="st8">
      <g>
        <path class="st7" d="M46.06,76.12c-.18.18-1.14.16-.97.35s1.52-1.04,1.69-.85-1.17,1.42-1,1.61,1.51-1.04,1.69-.85-1.17,1.42-1,1.61,1.52-1.04,1.69-.85.06,1.86.26,1.7c4.33-3.61,2.96-5.17,7.13-8.97s5.39-2.46,9.55-6.26,2.93-5.15,7.1-8.95,5.39-2.46,9.56-6.26,2.93-5.15,7.1-8.95,5.39-2.46,9.56-6.27c4.17-3.81,3.08-4.94,7.07-8.93.18-.18,1.14-.16.97-.35s-1.52,1.04-1.69.85,1.17-1.42,1-1.61-1.51,1.04-1.69.85,1.17-1.42,1-1.61-1.52,1.04-1.69.85-.06-1.86-.26-1.7c-4.33,3.61-2.96,5.17-7.13,8.97s-5.39,2.46-9.55,6.26c-4.16,3.8-2.93,5.15-7.1,8.95-4.16,3.8-5.39,2.46-9.56,6.26s-2.93,5.15-7.1,8.95-5.57,2.33-9.58,6.29-3.06,4.91-7.05,8.9Z"/>
        <path class="st7" d="M28.44,69.11c-.18.18-1.14.16-.97.35s1.52-1.04,1.69-.85-1.17,1.42-1,1.61,1.51-1.04,1.69-.85-1.17,1.42-1,1.61,1.52-1.04,1.69-.85.06,1.86.26,1.7c4.33-3.61,2.96-5.17,7.13-8.97s5.39-2.46,9.55-6.26,2.93-5.15,7.1-8.95c4.16-3.8,5.39-2.46,9.56-6.26s2.93-5.15,7.1-8.95,5.39-2.46,9.56-6.27c4.17-3.81,3.08-4.94,7.07-8.93.18-.18,1.14-.16.97-.35s-1.52,1.04-1.69.85,1.17-1.42,1-1.61-1.51,1.04-1.69.85,1.17-1.42,1-1.61-1.52,1.04-1.69.85-.06-1.86-.26-1.7c-4.33,3.61-2.96,5.17-7.13,8.97s-5.39,2.46-9.55,6.26c-4.16,3.8-2.93,5.15-7.1,8.95-4.16,3.8-5.39,2.46-9.56,6.26-4.16,3.8-2.93,5.15-7.1,8.95s-5.57,2.33-9.58,6.29-3.06,4.91-7.05,8.9Z"/>
        <path class="st7" d="M63.68,83.13c-.18.18-1.14.16-.97.35s1.52-1.04,1.69-.85-1.17,1.42-1,1.61,1.51-1.04,1.69-.85-1.17,1.42-1,1.61,1.52-1.04,1.69-.85.06,1.86.26,1.7c4.33-3.61,2.96-5.17,7.13-8.97s5.39-2.46,9.55-6.26,2.93-5.15,7.1-8.95,5.39-2.46,9.56-6.26,2.93-5.15,7.1-8.95,5.39-2.46,9.56-6.27c4.17-3.81,3.08-4.94,7.07-8.93.18-.18,1.14-.16.97-.35s-1.52,1.04-1.69.85,1.17-1.42,1-1.61-1.51,1.04-1.69.85,1.17-1.42,1-1.61-1.52,1.04-1.69.85-.06-1.86-.26-1.7c-4.33,3.61-2.96,5.17-7.13,8.97s-5.39,2.46-9.55,6.26c-4.16,3.8-2.93,5.15-7.1,8.95-4.16,3.8-5.39,2.46-9.56,6.26-4.16,3.8-2.93,5.15-7.1,8.95-4.17,3.81-5.57,2.33-9.58,6.29s-3.06,4.91-7.05,8.9Z"/>
        <path class="st7" d="M81.31,90.14c-.18.18-1.14.16-.97.35s1.52-1.04,1.69-.85-1.17,1.42-1,1.61,1.51-1.04,1.69-.85-1.17,1.42-1,1.61,1.52-1.04,1.69-.85.06,1.86.26,1.7c4.33-3.61,2.96-5.17,7.13-8.97s5.39-2.46,9.55-6.26,2.93-5.15,7.1-8.95c4.16-3.8,5.39-2.46,9.56-6.26s2.93-5.15,7.1-8.95,5.39-2.46,9.56-6.27,3.08-4.94,7.07-8.93c.18-.18,1.14-.16.97-.35s-1.52,1.04-1.69.85,1.17-1.42,1-1.61-1.51,1.04-1.69.85,1.17-1.42,1-1.61-1.52,1.04-1.69.85-.06-1.86-.26-1.7c-4.33,3.61-2.96,5.17-7.13,8.97s-5.39,2.46-9.55,6.26c-4.16,3.8-2.93,5.15-7.1,8.95-4.16,3.8-5.39,2.46-9.56,6.26s-2.93,5.15-7.1,8.95-5.57,2.33-9.58,6.29-3.06,4.91-7.05,8.9Z"/>
        <path class="st7" d="M98.93,97.14c-.18.18-1.14.16-.97.35s1.52-1.04,1.69-.85-1.17,1.42-1,1.61,1.51-1.04,1.69-.85-1.17,1.42-1,1.61,1.52-1.04,1.69-.85.06,1.86.26,1.7c4.33-3.61,2.96-5.17,7.13-8.97s5.39-2.46,9.55-6.26,2.93-5.15,7.1-8.95,5.39-2.46,9.56-6.26,2.93-5.15,7.1-8.95,5.39-2.46,9.56-6.27,3.08-4.94,7.07-8.93c.18-.18,1.14-.16.97-.35s-1.52,1.04-1.69.85,1.17-1.42,1-1.61-1.51,1.04-1.69.85,1.17-1.42,1-1.61-1.52,1.04-1.69.85-.06-1.86-.26-1.7c-4.33,3.61-2.96,5.17-7.13,8.97s-5.39,2.46-9.55,6.26-2.93,5.15-7.1,8.95c-4.16,3.8-5.39,2.46-9.56,6.26-4.16,3.8-2.93,5.15-7.1,8.95-4.17,3.81-5.57,2.33-9.58,6.29s-3.06,4.91-7.05,8.9Z"/>
      </g>
    </g>
  </g>
  <g id="_หน้า" data-name="หน้า">
    <g id="_ปาก" data-name="ปาก">
      <line class="st2" x1="83.61" y1="125.14" x2="87.9" y2="129.42"/>
      <line class="st2" x1="92.19" y1="125.14" x2="87.9" y2="129.42"/>
    </g>
    <g id="_แก้ม" data-name="แก้ม">
      <g>
        <g id="_ซ้าย" data-name="ซ้าย">
          <circle class="st10" cx="63.27" cy="123.04" r="7.78"/>
        </g>
        <g id="_ขวา" data-name="ขวา">
          <circle class="st10" cx="113.85" cy="123.54" r="7.78"/>
        </g>
      </g>
    </g>
    <g id="_ตา" data-name="ตา">
      <circle id="_ซ้าย1" data-name="ซ้าย" cx="71.57" cy="116.89" r="3.13"/>
      <circle id="_ขวา1" data-name="ขวา" cx="105.39" cy="116.89" r="3.13"/>
      <circle class="st9" cx="71.65" cy="115.49" r="1.4"/>
      <circle class="st9" cx="105.47" cy="115.49" r="1.4"/>
    </g>
  </g>
</svg>