<?xml version="1.0" encoding="UTF-8"?>
<svg id="Layer_41" xmlns="http://www.w3.org/2000/svg" xmlns:xlink="http://www.w3.org/1999/xlink" version="1.1" viewBox="0 0 243.18 284.53">
  <!-- Generator: Adobe Illustrator 30.0.0, SVG Export Plug-In . SVG Version: 2.1.1 Build 123)  -->
  <defs>
    <style>
      .st0, .st1, .st2, .st3 {
        fill: none;
      }

      .st4 {
        mask: url(#mask);
      }

      .st5 {
        fill: url(#linear-gradient2);
      }

      .st6 {
        fill: url(#linear-gradient1);
      }

      .st7 {
        fill: url(#linear-gradient3);
      }

      .st8 {
        fill: url(#linear-gradient4);
      }

      .st1 {
        stroke: #fff;
        stroke-width: 20.71px;
      }

      .st1, .st3 {
        stroke-miterlimit: 10;
      }

      .st9 {
        fill: #fdf1b5;
      }

      .st10 {
        fill: url(#linear-gradient);
      }

      .st2 {
        stroke: #000;
        stroke-linecap: round;
        stroke-linejoin: round;
        stroke-width: 2.02px;
      }

      .st11 {
        fill: #b7632a;
      }

      .st12 {
        mask: url(#mask-2);
      }

      .st13 {
        mask: url(#mask-3);
      }

      .st14 {
        mask: url(#mask-1);
      }

      .st3 {
        stroke: #ffe700;
        stroke-width: .37px;
      }

      .st15 {
        fill: #fff;
      }

      .st16 {
        fill: #ffd992;
      }

      .st17 {
        clip-path: url(#clippath);
      }

      .st18 {
        fill: #963d26;
      }
    </style>
    <linearGradient id="linear-gradient" x1="113.42" y1="-24.85" x2="113.42" y2="246.74" gradientUnits="userSpaceOnUse">
      <stop offset="0" stop-color="#b7632a"/>
      <stop offset=".57" stop-color="#fff"/>
    </linearGradient>
    <clipPath id="clippath">
      <path id="_น้ำ" data-name="น้ำ" class="st0" d="M46.12,88.32h134.59v142.05c0,5.74-4.66,10.4-10.4,10.4H56.52c-5.74,0-10.4-4.66-10.4-10.4V88.32h0Z"/>
    </clipPath>
    <linearGradient id="linear-gradient1" x1="18.27" y1="164.54" x2="216.14" y2="164.54" gradientUnits="userSpaceOnUse">
      <stop offset=".06" stop-color="#fff"/>
      <stop offset=".26" stop-color="#000"/>
    </linearGradient>
    <mask id="mask" x="46.12" y="88.32" width="134.59" height="152.45" maskUnits="userSpaceOnUse">
      <path id="_น้ำ1" data-name="น้ำ" class="st6" d="M46.12,88.32h134.59v142.05c0,5.74-4.66,10.4-10.4,10.4H56.52c-5.74,0-10.4-4.66-10.4-10.4V88.32h0Z"/>
    </mask>
    <linearGradient id="linear-gradient2" x1="18.27" y1="164.54" x2="216.14" y2="164.54" gradientUnits="userSpaceOnUse">
      <stop offset=".7" stop-color="#000"/>
      <stop offset=".92" stop-color="#fff"/>
    </linearGradient>
    <mask id="mask-1" x="46.12" y="88.32" width="134.59" height="152.45" maskUnits="userSpaceOnUse">
      <path id="_น้ำ3" data-name="น้ำ" class="st5" d="M46.12,88.32h134.59v142.05c0,5.74-4.66,10.4-10.4,10.4H56.52c-5.74,0-10.4-4.66-10.4-10.4V88.32h0Z"/>
    </mask>
    <linearGradient id="linear-gradient3" x1="113.42" y1="63.41" x2="113.42" y2="268.45" gradientUnits="userSpaceOnUse">
      <stop offset=".78" stop-color="#000"/>
      <stop offset=".92" stop-color="#fff"/>
    </linearGradient>
    <mask id="mask-2" x="46.12" y="88.32" width="134.59" height="152.45" maskUnits="userSpaceOnUse">
      <path id="_น้ำ5" data-name="น้ำ" class="st7" d="M46.12,88.32h134.59v142.05c0,5.74-4.66,10.4-10.4,10.4H56.52c-5.74,0-10.4-4.66-10.4-10.4V88.32h0Z"/>
    </mask>
    <linearGradient id="linear-gradient4" x1="113.42" y1="63.41" x2="113.42" y2="268.45" gradientUnits="userSpaceOnUse">
      <stop offset=".07" stop-color="#fff"/>
      <stop offset=".23" stop-color="#000"/>
    </linearGradient>
    <mask id="mask-3" x="46.12" y="88.32" width="134.59" height="152.45" maskUnits="userSpaceOnUse">
      <path id="_น้ำ7" data-name="น้ำ" class="st8" d="M46.12,88.32h134.59v142.05c0,5.74-4.66,10.4-10.4,10.4H56.52c-5.74,0-10.4-4.66-10.4-10.4V88.32h0Z"/>
    </mask>
  </defs>
  <g id="_เส้นแก้ว" data-name="เส้นแก้ว">
    <path d="M56.52,243.36c-7.16,0-12.98-5.82-12.98-12.98V85.73h97.93l-1.97-20.21c-.43-4.46,4.37-8.45,10.94-9.09.59-.06,1.18-.09,1.76-.09,5.92,0,10.33,2.84,10.73,6.9l.22,2.23,8.01-27.65c.91-3.14,4.27-5.1,8.76-5.1,1.56,0,3.17.24,4.77.7,6.34,1.84,10.33,6.65,9.08,10.95l-11.99,41.37h1.53v24.38c28.98,1.29,52.15,25.27,52.15,54.56s-23.18,53.27-52.15,54.56v11.14c0,7.16-5.82,12.98-12.98,12.98H56.52ZM183.3,193.3c14.7-1.26,26.27-13.62,26.27-28.62s-11.58-27.37-26.27-28.63v57.25Z"/>
    <path class="st15" d="M180.84,112.65s-.09,0-.13,0v-24.33h-2.38l12.95-44.67c.83-2.86-2.44-6.33-7.31-7.74-4.87-1.41-9.49-.23-10.32,2.63l-11.76,40.6-1.52-15.65c-.29-2.97-4.61-4.98-9.66-4.48-5.05.49-8.9,3.3-8.61,6.27l2.25,23.05H46.12v142.05c0,5.74,4.65,10.4,10.4,10.4h113.8c5.74,0,10.4-4.65,10.4-10.4v-13.68s.09,0,.13,0c28.69,0,52.02-23.34,52.02-52.02s-23.34-52.02-52.02-52.02ZM180.84,195.99s-.09,0-.13,0v-62.63s.09,0,.13,0c17.27,0,31.32,14.05,31.32,31.32s-14.05,31.32-31.32,31.32Z"/>
  </g>
  <circle id="_หูแก้ว" data-name="หูแก้ว" class="st1" cx="180.84" cy="164.67" r="41.67"/>
  <g>
    <g id="_ไม้" data-name="ไม้">
      <path id="_ไม้1" data-name="ไม้" class="st11" d="M153.03,160.2l-9.39-2.72c-2.28-.66-3.59-3.04-2.93-5.32l32.92-113.62,17.64,5.11-32.92,113.62c-.66,2.28-3.04,3.59-5.32,2.93Z"/>
    </g>
    <g id="_ข้างใน" data-name="ข้างใน">
      <ellipse id="_ข้างใน1" data-name="ข้างใน" class="st18" cx="182.46" cy="41.09" rx="5.4" ry="9.18" transform="translate(92.21 204.9) rotate(-73.84)"/>
    </g>
    <path id="_เส้นลายม้วน" data-name="เส้นลายม้วน" class="st3" d="M175.51,37.33c3.1-1.44,8.2-.94,11.67,1.33,3.05,2,3.29,4.84.3,6.18-2.37,1.06-6.13.4-8.28-1.36-1.62-1.32-1.51-2.97.16-3.74,1.35-.62,3.54-.35,4.95.65,1.17.83,1.2,1.95.03,2.48"/>
    <g id="_เส้นลายไม้" data-name="เส้นลายไม้">
      <g>
        <line class="st3" x1="184.53" y1="52.37" x2="179.34" y2="70.27"/>
        <line class="st3" x1="173.82" y1="58.27" x2="163.68" y2="93.28"/>
        <line class="st3" x1="172.1" y1="83.63" x2="167.21" y2="100.49"/>
        <line class="st3" x1="160.6" y1="103.91" x2="155.11" y2="122.85"/>
        <line class="st3" x1="165.29" y1="118.77" x2="158.08" y2="143.66"/>
        <line class="st3" x1="152.23" y1="140.56" x2="148.24" y2="154.31"/>
      </g>
    </g>
  </g>
  <g>
    <g id="_ไม้2" data-name="ไม้">
      <path id="_ไม้3" data-name="ไม้" class="st11" d="M167.96,185.91l-9.73.95c-2.36.23-4.46-1.5-4.69-3.86l-11.47-117.74,18.27-1.78,11.47,117.74c.23,2.36-1.5,4.46-3.86,4.69Z"/>
    </g>
    <g id="_ข้างใน2" data-name="ข้างใน">
      <ellipse id="_ข้างใน3" data-name="ข้างใน" class="st18" cx="151.21" cy="64.37" rx="9.18" ry="5.4" transform="translate(-5.53 14.97) rotate(-5.57)"/>
    </g>
    <path id="_เส้นลายม้วน1" data-name="เส้นลายม้วน" class="st3" d="M143.37,63.46c2.34-2.49,7.27-3.91,11.34-3.08,3.57.73,4.85,3.28,2.56,5.63-1.81,1.86-5.55,2.64-8.2,1.81-1.99-.63-2.5-2.19-1.23-3.53,1.02-1.08,3.16-1.63,4.84-1.23,1.39.34,1.84,1.37.95,2.29"/>
    <g id="_เส้นลายไม้1" data-name="เส้นลายไม้">
      <g>
        <line class="st3" x1="157.31" y1="74.09" x2="159.12" y2="92.63"/>
        <line class="st3" x1="149.55" y1="83.53" x2="153.09" y2="119.81"/>
        <line class="st3" x1="157.34" y1="107.73" x2="159.04" y2="125.2"/>
        <line class="st3" x1="154.16" y1="130.83" x2="156.07" y2="150.45"/>
        <line class="st3" x1="164.02" y1="142.89" x2="166.53" y2="168.69"/>
        <line class="st3" x1="159.95" y1="167.97" x2="161.34" y2="182.22"/>
      </g>
    </g>
  </g>
  <path id="_แก้ว" data-name="แก้ว" class="st10" d="M46.12,88.32h134.59v142.05c0,5.74-4.66,10.4-10.4,10.4H56.52c-5.74,0-10.4-4.66-10.4-10.4V88.32h0Z"/>
  <g id="_ลายแก้ว_x2B_ดริป" data-name="ลายแก้ว_x2B_ดริป">
    <g class="st17">
      <g id="_ลาย" data-name="ลาย">
        <rect class="st18" x="28.78" y="205.31" width="169.27" height="20.96"/>
        <rect class="st18" x="28.78" y="195.34" width="169.27" height="5.18"/>
        <rect class="st18" x="28.78" y="231.06" width="169.27" height="5.18"/>
      </g>
      <circle class="st18" cx="95.69" cy="123" r="3.24"/>
      <path class="st18" d="M42.84,97.27c.52,2.27,3.46,3.05,5.75,2.59s4.42-1.69,6.75-1.73c4.19-.07,7.73,4.58,6.55,8.6-.39,1.32-1.17,2.48-1.64,3.77-.73,2.01-.66,4.24-.25,6.34.4,2.03,1.41,4.3,3.43,4.74,2.27.5,4.29-1.67,5.1-3.85,1.45-3.92.77-8.26.17-12.4-.23-1.61-.43-3.34.33-4.79,1.14-2.19,3.93-2.82,6.38-3.21,1.43-.23,3.03-.41,4.19.46,1.34,1.01,1.66,3.16,3.24,3.73,1.85.66,3.58-1.45,5.54-1.59,2.28-.16,3.87,2.39,3.98,4.67s-.69,4.53-.58,6.81,1.72,4.83,3.99,4.66c2.02-.15,3.27-2.34,3.59-4.35.36-2.25.02-4.54,0-6.81s.32-4.7,1.79-6.43,4.35-2.42,6.05-.9c.63.56,1.04,1.35,1.68,1.91,1.55,1.34,3.98.9,5.76-.12s3.27-2.53,5.15-3.33c6.02-2.55,12.6,3.05,19.12,2.47,2.56-.23,4.93-1.4,7.42-2.06s5.42-.69,7.32,1.03c2.05,1.86,3,5.13,2.11,7.75-2.57,7.57-3.42,8.37-2.91,13.02.37,3.35,2.77,4.17,3.5,4.03,1.06-.21,2.05-.66,2.75-1.48,2.02-2.35,2.01-5.81,1.44-8.85s-1.62-6.07-1.3-9.15c.32-3.08,2.61-6.28,5.7-6.24,2.19.03,4.13,1.63,6.32,1.69,2.22.05,4.11-1.46,6.1-2.46s4.82-1.3,6.05.54c.65.97.69,2.35,1.62,3.05,1.01.77,2.58.23,3.31-.81s.84-2.38.85-3.65c.04-5.67-2.02-12.15-7.3-14.21-2.04-.8-4.28-.81-6.47-.82-41.08-.14-82.3-.27-123.07,4.74-3.68.45-7.9,1.3-9.69,4.55-1.63,2.96-.51,6.61.64,9.79"/>
    </g>
  </g>
  <g id="_ขอบขาว" data-name="ขอบขาว">
    <g class="st4">
      <path id="_น้ำ2" data-name="น้ำ" class="st15" d="M46.12,88.32h134.59v142.05c0,5.74-4.66,10.4-10.4,10.4H56.52c-5.74,0-10.4-4.66-10.4-10.4V88.32h0Z"/>
    </g>
    <g class="st14">
      <path id="_น้ำ4" data-name="น้ำ" class="st15" d="M46.12,88.32h134.59v142.05c0,5.74-4.66,10.4-10.4,10.4H56.52c-5.74,0-10.4-4.66-10.4-10.4V88.32h0Z"/>
    </g>
    <g class="st12">
      <path id="_น้ำ6" data-name="น้ำ" class="st15" d="M46.12,88.32h134.59v142.05c0,5.74-4.66,10.4-10.4,10.4H56.52c-5.74,0-10.4-4.66-10.4-10.4V88.32h0Z"/>
    </g>
    <g class="st13">
      <path id="_น้ำ8" data-name="น้ำ" class="st15" d="M46.12,88.32h134.59v142.05c0,5.74-4.66,10.4-10.4,10.4H56.52c-5.74,0-10.4-4.66-10.4-10.4V88.32h0Z"/>
    </g>
  </g>
  <g id="_หน้า" data-name="หน้า">
    <g id="_ปาก" data-name="ปาก">
      <line class="st2" x1="106.69" y1="161.6" x2="112.52" y2="167.43"/>
      <line class="st2" x1="118.35" y1="161.6" x2="112.52" y2="167.43"/>
    </g>
    <g id="_แก้ม" data-name="แก้ม">
      <g>
        <g id="_ซ้าย" data-name="ซ้าย">
          <circle class="st11" cx="79.04" cy="158.76" r="10.58"/>
        </g>
        <g id="_ขวา" data-name="ขวา">
          <circle class="st11" cx="147.8" cy="159.43" r="10.58"/>
        </g>
      </g>
    </g>
    <g id="_ตา" data-name="ตา">
      <circle id="_ซ้าย1" data-name="ซ้าย" cx="90.32" cy="150.39" r="4.26"/>
      <circle id="_ขวา1" data-name="ขวา" cx="136.29" cy="150.39" r="4.26"/>
      <circle class="st15" cx="90.43" cy="148.49" r="1.91"/>
      <circle class="st15" cx="136.4" cy="148.49" r="1.91"/>
    </g>
  </g>
  <g id="_เส้นดอก" data-name="เส้นดอก">
    <path d="M33.14,260.81c-3-6.67-3.38-14.08-1.28-20.77-3.17,1.24-6.56,1.89-10.02,1.89s-7.02-.67-10.37-2l-2.33-.93.86-2.36c2.46-6.78,7.31-12.19,13.45-15.32-6.39-2.88-11.67-8.08-14.67-14.75l-1.06-2.36,2.36-1.06c3.56-1.6,7.34-2.41,11.23-2.41,3.04,0,6.08.51,8.97,1.49-2.57-6.56-2.76-13.91-.32-20.64l.91-2.51,2.48.99c6.65,2.65,12.02,7.67,15.21,13.94,2.71-6.38,7.67-11.59,14.11-14.48l2.36-1.06,1.06,2.36c3,6.67,3.38,14.08,1.28,20.77,3.17-1.24,6.56-1.89,10.02-1.89s7.02.67,10.37,2l2.33.93-.86,2.36c-2.46,6.78-7.31,12.19-13.45,15.32,6.39,2.88,11.67,8.08,14.67,14.75l1.06,2.36-2.36,1.06c-3.56,1.6-7.34,2.41-11.23,2.41h0c-3.04,0-6.08-.51-8.97-1.49,2.57,6.56,2.76,13.91.32,20.64l-.91,2.51-2.48-.99c-6.65-2.65-12.02-7.67-15.21-13.94-2.71,6.38-7.67,11.59-14.11,14.48l-2.36,1.06-1.06-2.36Z"/>
    <path class="st15" d="M88.09,236.13c-4.08-9.09-12.53-14.79-21.58-15.62,8.97-1.16,16.95-7.17,20.3-16.39-9.12-3.63-18.91-1.65-25.73,4.29,5.4-7.32,6.75-17.42,2.67-26.51h0s0,0,0,0c-8.81,3.96-14.21,12.46-14.81,21.68-1.34-9.19-7.41-17.47-16.53-21.1h0c-3.35,9.23-1.19,19.27,4.79,26.37-7.29-5.68-17.23-7.29-26.04-3.33h0c4.08,9.09,12.53,14.79,21.58,15.62-8.97,1.16-16.95,7.17-20.3,16.39h0c9.12,3.63,18.91,1.65,25.73-4.29-5.4,7.32-6.75,17.42-2.67,26.51h0s0,0,0,0c8.81-3.96,14.21-12.46,14.81-21.68,1.34,9.19,7.41,17.48,16.53,21.1h0c3.35-9.23,1.19-19.27-4.79-26.37,7.29,5.68,17.23,7.29,26.04,3.33h0s0,0,0,0Z"/>
  </g>
  <g>
    <ellipse id="_ลึกสุดๆ" data-name="ลึกสุดๆ" class="st9" cx="49.62" cy="220.82" rx="14.03" ry="14.47" transform="translate(-85.59 39.32) rotate(-24.02)"/>
    <g id="_ข้างนอก" data-name="ข้างนอก">
      <g id="_ข้างนอก1" data-name="ข้างนอก">
        <path class="st11" d="M86.8,204.11h0c-9.12-3.63-18.91-1.65-25.73,4.29,5.4-7.32,6.75-17.42,2.67-26.51h0s0,0,0,0c-8.81,3.96-14.21,12.46-14.81,21.68-1.34-9.19-7.41-17.47-16.53-21.1h0c-3.35,9.23-1.19,19.27,4.79,26.37-7.29-5.68-17.23-7.29-26.04-3.33h0c4.08,9.09,12.53,14.79,21.58,15.62-8.97,1.16-16.95,7.17-20.3,16.39h0c9.12,3.63,18.91,1.65,25.73-4.29-5.4,7.32-6.75,17.42-2.67,26.51h0s0,0,0,0c8.81-3.96,14.21-12.46,14.81-21.68,1.34,9.19,7.41,17.48,16.53,21.1h0c3.35-9.23,1.19-19.27-4.79-26.37,7.29,5.68,17.23,7.29,26.04,3.33h0s0,0,0,0c-4.08-9.09-12.53-14.79-21.58-15.62,8.97-1.16,16.95-7.17,20.3-16.39ZM58.06,228.96c-1.93-1.51-4.09-2.77-6.46-3.71h0s0,0,0,0c-.87,2.4-1.36,4.85-1.52,7.3-.35-2.43-1.04-4.87-2.1-7.23h0c-2.29,1.03-4.35,2.37-6.15,3.95,1.43-1.94,2.62-4.11,3.49-6.51h0s0,0,0,0c-2.37-.94-4.79-1.5-7.18-1.72,2.38-.3,4.74-.95,7.04-1.98h0c-1.06-2.36-2.42-4.49-4.01-6.37,1.93,1.51,4.09,2.77,6.46,3.71h0c.87-2.4,1.36-4.85,1.52-7.3.35,2.43,1.04,4.87,2.1,7.23h0c2.29-1.03,4.35-2.37,6.15-3.95-1.43,1.94-2.62,4.11-3.49,6.51h0s0,0,0,0c2.37.94,4.79,1.5,7.18,1.72-2.38.3-4.74.95-7.04,1.98h0c1.06,2.36,2.42,4.49,4.01,6.37Z"/>
      </g>
    </g>
    <g id="_ข้างใน4" data-name="ข้างใน">
      <g id="_ข้างใน5" data-name="ข้างใน">
        <path class="st18" d="M80.07,207.14h0c-7.47-2.97-15.49-1.35-21.08,3.51,4.42-5.99,5.53-14.27,2.18-21.71h0s0,0,0,0c-7.22,3.24-11.64,10.2-12.13,17.76-1.1-7.52-6.07-14.31-13.54-17.28h0c-2.74,7.56-.97,15.78,3.92,21.6-5.97-4.65-14.11-5.97-21.33-2.73h0c3.34,7.44,10.26,12.12,17.68,12.79-7.35.95-13.88,5.87-16.62,13.42h0c7.47,2.97,15.48,1.35,21.07-3.51-4.42,5.99-5.52,14.27-2.18,21.71h0s0,0,0,0c7.22-3.24,11.64-10.2,12.13-17.76,1.1,7.52,6.07,14.31,13.54,17.28h0c2.74-7.56.97-15.78-3.92-21.6,5.97,4.65,14.11,5.97,21.33,2.73h0s0,0,0,0c-3.34-7.44-10.26-12.12-17.68-12.79,7.35-.95,13.88-5.87,16.62-13.42ZM56.54,227.48c-1.58-1.23-3.35-2.27-5.29-3.04h0s0,0,0,0c-.71,1.97-1.11,3.98-1.24,5.98-.29-1.99-.85-3.99-1.72-5.92h0c-1.88.84-3.56,1.94-5.04,3.23,1.17-1.58,2.15-3.37,2.86-5.33h0s0,0,0,0c-1.94-.77-3.92-1.23-5.88-1.4,1.95-.25,3.89-.78,5.76-1.62h0c-.87-1.94-1.98-3.68-3.28-5.22,1.58,1.23,3.35,2.27,5.29,3.04h0c.71-1.96,1.11-3.97,1.24-5.98.29,1.99.85,3.99,1.72,5.92h0c1.88-.84,3.56-1.94,5.04-3.23-1.17,1.59-2.15,3.37-2.86,5.33h0s0,0,0,0c1.94.77,3.92,1.23,5.88,1.4-1.95.25-3.89.78-5.76,1.62h0c.87,1.94,1.98,3.68,3.28,5.22Z"/>
      </g>
    </g>
    <g id="_ในมากๆ" data-name="ในมากๆ">
      <g>
        <path class="st16" d="M53.43,229.27c-1.11.5-.19,4.95,2.06,9.93,2.25,4.98,4.98,8.61,6.09,8.11,1.11-.5.19-4.95-2.06-9.93-2.25-4.98-4.98-8.61-6.09-8.11Z"/>
        <path class="st16" d="M41.13,237.76c-1.82,5.07-2.37,9.54-1.21,10s3.57-3.28,5.39-8.35c1.82-5.07,2.37-9.54,1.21-10s-3.57,3.28-5.39,8.35Z"/>
        <path class="st16" d="M41.43,224.52c-.52-1.15-4.86-.31-9.68,1.87-4.83,2.18-8.32,4.89-7.8,6.04.52,1.15,4.86.31,9.68-1.87,4.83-2.18,8.32-4.89,7.8-6.04Z"/>
        <path class="st16" d="M41.13,217.46c.42-1.17-3.3-3.72-8.3-5.7-5.01-1.98-9.41-2.63-9.83-1.46-.42,1.17,3.3,3.72,8.3,5.7,5.01,1.98,9.41,2.63,9.83,1.46Z"/>
        <path class="st16" d="M45.8,212.37c1.11-.5.19-4.95-2.06-9.93-2.25-4.98-4.98-8.61-6.09-8.11-1.11.5-.19,4.95,2.06,9.93,2.25,4.98,4.98,8.61,6.09,8.11Z"/>
        <path class="st16" d="M58.1,203.88c1.82-5.07,2.37-9.54,1.21-10-1.16-.46-3.57,3.28-5.39,8.35-1.82,5.07-2.37,9.54-1.21,10,1.16.46,3.57-3.28,5.39-8.35Z"/>
        <path class="st16" d="M65.61,211.08c-4.83,2.18-8.32,4.89-7.8,6.04s4.86.31,9.68-1.87,8.32-4.89,7.8-6.04c-.52-1.15-4.86-.31-9.68,1.87Z"/>
        <path class="st16" d="M58.11,224.18c-.42,1.17,3.3,3.72,8.3,5.7,5.01,1.98,9.41,2.63,9.83,1.46.42-1.17-3.3-3.72-8.3-5.7-5.01-1.98-9.41-2.63-9.83-1.46Z"/>
      </g>
    </g>
  </g>
</svg>