<?xml version="1.0" encoding="UTF-8"?>
<svg id="Layer_41" xmlns="http://www.w3.org/2000/svg" xmlns:xlink="http://www.w3.org/1999/xlink" version="1.1" viewBox="0 0 248.55 211.8">
  <!-- Generator: Adobe Illustrator 30.0.0, SVG Export Plug-In . SVG Version: 2.1.1 Build 123)  -->
  <defs>
    <style>
      .st0 {
        fill: #ffaeff;
      }

      .st1 {
        fill: url(#linear-gradient1);
      }

      .st1, .st2 {
        opacity: .8;
      }

      .st3 {
        fill: #b861e0;
      }

      .st4 {
        fill: #df92ff;
      }

      .st5 {
        fill: #f0e1d9;
      }

      .st6 {
        fill: url(#linear-gradient);
      }

      .st7 {
        fill: #e8b8ff;
      }

      .st8 {
        fill: #ab1bce;
      }

      .st9 {
        fill: none;
        stroke: #000;
        stroke-linecap: round;
        stroke-linejoin: round;
        stroke-width: 1.91px;
      }

      .st10 {
        fill: #f2e9df;
      }

      .st11 {
        fill: #83fff6;
      }

      .st12 {
        fill: #fff;
      }

      .st13 {
        opacity: .7;
      }

      .st14 {
        fill: #fac45e;
      }

      .st15 {
        fill: #d337d3;
      }

      .st16 {
        fill: #b3e84d;
      }

      .st17 {
        fill: #ef60d4;
      }

      .st18 {
        fill: #9cc939;
      }
    </style>
    <linearGradient id="linear-gradient" x1="255.02" y1="4321.56" x2="255.02" y2="4118.36" gradientTransform="translate(-2783.07 -3014.39) rotate(-38.95)" gradientUnits="userSpaceOnUse">
      <stop offset=".2" stop-color="#df92ff"/>
      <stop offset=".51" stop-color="#ffcb92"/>
    </linearGradient>
    <linearGradient id="linear-gradient1" x1="119.23" y1="45.84" x2="119.23" y2="202.69" gradientUnits="userSpaceOnUse">
      <stop offset=".57" stop-color="#fdffab"/>
      <stop offset=".86" stop-color="#dfb3ff"/>
    </linearGradient>
  </defs>
  <path id="_เส้นจาน" data-name="เส้นจาน" d="M119.23,191.31c-26.37,0-51.19-2.3-69.89-6.48-20.33-4.54-30.64-10.56-30.64-17.89s10.31-13.34,30.64-17.89c18.7-4.18,43.52-6.48,69.89-6.48s51.19,2.3,69.89,6.48c20.33,4.54,30.64,10.56,30.64,17.89s-10.31,13.34-30.64,17.89c-18.7,4.18-43.52,6.48-69.89,6.48Z"/>
  <ellipse id="_จาน" data-name="จาน" class="st12" cx="119.23" cy="166.95" rx="98.08" ry="21.92"/>
  <g id="_เงาจาน" data-name="เงาจาน">
    <ellipse class="st10" cx="119.23" cy="167.27" rx="58.28" ry="13.02"/>
    <g>
      <path class="st10" d="M35.23,160.21c-.56-.85-10.12,2.23-10.29,6.12-.29,6.64,26.95,12.2,26.94,12.24-.01.04-21.86-4.32-22.04-11.27-.09-3.65,5.84-6.4,5.39-7.1Z"/>
      <path class="st10" d="M199.06,174.17c.14.33,14.06-2.93,14.2-8.08.16-5.65-16.33-9.5-16.41-9.31-.08.18,13.73,3.85,13.71,9.06-.02,4.78-11.64,8.02-11.51,8.33Z"/>
      <circle class="st10" cx="37.43" cy="158.74" r=".98"/>
      <circle class="st10" cx="196.37" cy="175.4" r=".98"/>
    </g>
  </g>
  <g>
    <g id="_x3C_Radial_Repeat_x3E_">
      <path class="st12" d="M87.66,83.76c.15,0,.26.22.25.49l-.24,9.11c0,.26-.13.48-.28.47s-.26-.22-.25-.49l.24-9.11c0-.26.13-.48.28-.47Z"/>
      <circle class="st12" cx="87.52" cy="94.91" r=".43"/>
    </g>
    <g id="_x3C_Radial_Repeat_x3E_1" data-name="_x3C_Radial_Repeat_x3E_">
      <path class="st12" d="M86.63,83.66c.14.05.17.3.07.54l-3.35,8.48c-.1.25-.29.4-.42.35s-.17-.3-.07-.54l3.35-8.48c.1-.25.29-.4.42-.35Z"/>
      <circle class="st12" cx="82.68" cy="94.08" r=".43"/>
    </g>
    <g id="_x3C_Radial_Repeat_x3E_2" data-name="_x3C_Radial_Repeat_x3E_">
      <path class="st12" d="M85.69,83.2c.11.1.06.34-.12.54l-6.04,6.83c-.18.2-.41.28-.52.18s-.06-.34.12-.54l6.04-6.83c.18-.2.41-.28.52-.18Z"/>
      <circle class="st12" cx="78.41" cy="91.65" r=".43"/>
    </g>
    <g id="_x3C_Radial_Repeat_x3E_3" data-name="_x3C_Radial_Repeat_x3E_">
      <path class="st12" d="M84.96,82.46c.07.13-.06.34-.29.46l-8.01,4.35c-.23.13-.48.12-.55,0s.06-.34.29-.46l8.01-4.35c.23-.13.48-.12.55,0Z"/>
      <circle class="st12" cx="75.23" cy="87.91" r=".43"/>
    </g>
    <g id="_x3C_Radial_Repeat_x3E_4" data-name="_x3C_Radial_Repeat_x3E_">
      <path class="st12" d="M84.53,81.5c.02.15-.17.29-.44.33l-9.02,1.34c-.26.04-.49-.05-.51-.19s.17-.29.44-.33l9.02-1.34c.26-.04.49.05.51.19Z"/>
      <circle class="st12" cx="73.52" cy="83.3" r=".43"/>
    </g>
    <g id="_x3C_Radial_Repeat_x3E_5" data-name="_x3C_Radial_Repeat_x3E_">
      <path class="st12" d="M84.45,80.46c-.03.14-.26.22-.52.16l-8.93-1.82c-.26-.05-.45-.21-.42-.36s.26-.22.52-.16l8.93,1.82c.26.05.45.21.42.36Z"/>
      <circle class="st12" cx="73.49" cy="78.39" r=".43"/>
    </g>
    <g id="_x3C_Radial_Repeat_x3E_6" data-name="_x3C_Radial_Repeat_x3E_">
      <path class="st12" d="M84.73,79.46c-.08.13-.32.11-.55-.02l-7.77-4.77c-.23-.14-.35-.35-.27-.48s.32-.11.55.02l7.77,4.77c.23.14.35.35.27.48Z"/>
      <path class="st12" d="M75.58,73.76c0,.24-.19.43-.43.43s-.43-.19-.43-.43.19-.43.43-.43.43.19.43.43Z"/>
    </g>
    <g id="_x3C_Radial_Repeat_x3E_7" data-name="_x3C_Radial_Repeat_x3E_">
      <path class="st12" d="M85.34,78.61c-.12.09-.34,0-.51-.21l-5.67-7.14c-.16-.21-.21-.45-.09-.54s.34,0,.51.21l5.67,7.14c.16.21.21.45.09.54Z"/>
      <circle class="st12" cx="78.28" cy="69.98" r=".43"/>
    </g>
    <g id="_x3C_Radial_Repeat_x3E_8" data-name="_x3C_Radial_Repeat_x3E_">
      <path class="st12" d="M86.21,78.02c-.14.05-.32-.12-.4-.37l-2.89-8.65c-.08-.25-.04-.49.1-.54s.32.12.4.37l2.89,8.65c.08.25.04.49-.1.54Z"/>
      <circle class="st12" cx="82.53" cy="67.5" r=".43"/>
    </g>
    <g id="_x3C_Radial_Repeat_x3E_9" data-name="_x3C_Radial_Repeat_x3E_">
      <path class="st12" d="M87.22,77.77c-.15,0-.26-.22-.25-.49l.24-9.11c0-.26.13-.48.28-.47s.26.22.25.49l-.24,9.11c0,.26-.13.48-.28.47Z"/>
      <circle class="st12" cx="87.36" cy="66.62" r=".43"/>
    </g>
    <g id="_x3C_Radial_Repeat_x3E_10" data-name="_x3C_Radial_Repeat_x3E_">
      <path class="st12" d="M88.25,77.87c-.14-.05-.17-.3-.07-.54l3.35-8.48c.1-.25.29-.4.42-.35s.17.3.07.54l-3.35,8.48c-.1.25-.29.4-.42.35Z"/>
      <circle class="st12" cx="92.2" cy="67.44" r=".43"/>
    </g>
    <g id="_x3C_Radial_Repeat_x3E_11" data-name="_x3C_Radial_Repeat_x3E_">
      <path class="st12" d="M89.19,78.32c-.11-.1-.06-.34.12-.54l6.04-6.83c.18-.2.41-.28.52-.18s.06.34-.12.54l-6.04,6.83c-.18.2-.41.28-.52.18Z"/>
      <circle class="st12" cx="96.47" cy="69.87" r=".43"/>
    </g>
    <g id="_x3C_Radial_Repeat_x3E_12" data-name="_x3C_Radial_Repeat_x3E_">
      <path class="st12" d="M89.92,79.07c-.07-.13.06-.34.29-.46l8.01-4.35c.23-.13.48-.12.55,0s-.06.34-.29.46l-8.01,4.35c-.23.13-.48.12-.55,0Z"/>
      <circle class="st12" cx="99.65" cy="73.62" r=".43"/>
    </g>
    <g id="_x3C_Radial_Repeat_x3E_13" data-name="_x3C_Radial_Repeat_x3E_">
      <path class="st12" d="M90.35,80.02c-.02-.15.17-.29.44-.33l9.02-1.34c.26-.04.49.05.51.19s-.17.29-.44.33l-9.02,1.34c-.26.04-.49-.05-.51-.19Z"/>
      <circle class="st12" cx="101.36" cy="78.23" r=".43"/>
    </g>
    <g id="_x3C_Radial_Repeat_x3E_14" data-name="_x3C_Radial_Repeat_x3E_">
      <path class="st12" d="M90.43,81.06c.03-.14.26-.22.52-.16l8.93,1.82c.26.05.45.21.42.36s-.26.22-.52.16l-8.93-1.82c-.26-.05-.45-.21-.42-.36Z"/>
      <circle class="st12" cx="101.39" cy="83.14" r=".43"/>
    </g>
    <g id="_x3C_Radial_Repeat_x3E_15" data-name="_x3C_Radial_Repeat_x3E_">
      <path class="st12" d="M90.15,82.07c.08-.13.32-.11.55.02l7.77,4.77c.23.14.35.35.27.48s-.32.11-.55-.02l-7.77-4.77c-.23-.14-.35-.35-.27-.48Z"/>
      <circle class="st12" cx="99.73" cy="87.77" r=".43"/>
    </g>
    <g id="_x3C_Radial_Repeat_x3E_16" data-name="_x3C_Radial_Repeat_x3E_">
      <path class="st12" d="M89.54,82.91c.12-.09.34,0,.51.21l5.67,7.14c.16.21.21.45.09.54s-.34,0-.51-.21l-5.67-7.14c-.16-.21-.21-.45-.09-.54Z"/>
      <circle class="st12" cx="96.6" cy="91.55" r=".43"/>
    </g>
    <g id="_x3C_Radial_Repeat_x3E_17" data-name="_x3C_Radial_Repeat_x3E_">
      <path class="st12" d="M88.68,83.5c.14-.05.32.12.4.37l2.89,8.65c.08.25.04.49-.1.54s-.32-.12-.4-.37l-2.89-8.65c-.08-.25-.04-.49.1-.54Z"/>
      <circle class="st12" cx="92.36" cy="94.03" r=".43"/>
    </g>
  </g>
  <path d="M105.93,174.91c-15.07,0-29.39-4.8-41.41-13.88-12.02-9.08-20.56-21.53-24.69-36.02l-12.51-43.9h13.81c-5-4.95-9.72-8.91-14.09-11.81-6.62-4.39-9.98-8.78-10-13.05-.02-4.07,2.96-6.56,4.3-7.48.42-.37.99-.81,1.7-1.23-.12-.11-.24-.24-.34-.37-1.23-1.52-.99-3.75.53-4.98.63-.51,1.42-.79,2.23-.79.09,0,.18,0,.27.01.05-.54.23-1.06.52-1.53.5-.8,1.29-1.36,2.21-1.57.14-.03.29-.06.43-.07l-.2-.66c-1.83-6.03,1.6-12.43,7.63-14.25,1.08-.33,2.2-.49,3.32-.49,5.07,0,9.47,3.26,10.94,8.12l.11.37.37-.11c1.08-.33,2.2-.49,3.32-.49,5.07,0,9.47,3.26,10.94,8.12,1.44,4.75-.33,9.81-4.32,12.63-.16.37-.34.74-.54,1.08,4.11,2.77,5.31,8.35,2.65,12.57-1.7,2.71-4.63,4.32-7.83,4.32-1.74,0-3.43-.49-4.91-1.42l-.8-.5c-.31.63-.75,1.19-1.31,1.64l-.4.32c-.55.44-1.19.76-1.87.93,1.98,3.38,4.29,6.95,6.93,10.68h12.01c.2-.86.6-1.68,1.19-2.36-.76-1.28-.96-2.82-.56-4.25.41-1.46,1.4-2.65,2.68-3.34-.24-1.47.12-2.97,1.01-4.17.91-1.21,2.23-1.97,3.71-2.15.3-1.45,1.19-2.73,2.45-3.51.87-.54,1.87-.83,2.89-.83.46,0,.91.06,1.35.17.81-1.25,2.09-2.12,3.56-2.4.34-.06.69-.1,1.03-.1,1.17,0,2.26.38,3.15,1.02.9-.66,2.01-1.04,3.2-1.04.33,0,.66.03.99.09,1.47.27,2.76,1.13,3.58,2.37.45-.12.91-.18,1.39-.18,1,0,1.99.28,2.85.81,1.27.78,2.16,2.04,2.48,3.49,1.48.16,2.81.91,3.73,2.12.9,1.19,1.28,2.69,1.05,4.16,1.29.68,2.29,1.86,2.71,3.31.41,1.43.22,2.97-.52,4.25.63.73,1.06,1.6,1.25,2.53h43.26c.05-.43.23-.85.51-1.25.14-.2.31-.37.49-.52-.01-.06-.02-.11-.03-.17-.5-.43-.95-.87-1.3-1.28-1.77-2.05-1.19-3.53-.68-4.23.25-.34.57-.61.93-.8,0-.05.01-.11.02-.16-.47-.41-.89-.82-1.23-1.21-1.77-2.05-1.19-3.53-.68-4.23.33-.45.78-.78,1.3-.96-.25-.24-.47-.47-.67-.7-1.77-2.05-1.19-3.53-.68-4.23.44-.6,1.1-.99,1.86-1.1-.24-.27-.45-.54-.64-.8-1.58-2.2-.86-3.62-.29-4.28.41-.47.95-.77,1.57-.88-.05-.07-.1-.13-.15-.2-1.58-2.2-.86-3.62-.29-4.28.52-.6,1.27-.93,2.1-.93.03,0,.07,0,.1,0-.11-.18-.21-.36-.3-.54-1.25-2.4-.33-3.71.33-4.27.49-.42,1.12-.65,1.78-.65.07,0,.13,0,.2,0-1.06-2.25-.19-3.48.45-4.03.49-.42,1.12-.65,1.78-.65.15,0,.31.01.47.04,0,0,0,0,0,0-1.06-2.49-.05-3.72.65-4.24.46-.34,1.02-.52,1.61-.52.25,0,.5.03.75.1-.93-2.36.05-3.54.73-4.04.46-.34,1.02-.52,1.61-.52.48,0,.96.12,1.46.37.27-.09.54-.14.82-.15-.14-.33-.26-.65-.36-.94-.83-2.58.29-3.71,1.03-4.16.42-.25.9-.38,1.39-.38.44,0,.87.1,1.3.3-.59-2.29.45-3.33,1.15-3.75.42-.25.9-.38,1.39-.38.57,0,1.12.16,1.67.51.21-.05.43-.08.64-.08,2.26,0,3.4,2.52,3.97,4.68.14-.04.27-.08.38-.11,1.28-.35,2.53-.54,3.52-.54,2.53,0,3.28,1.35,3.49,2.16.22.82.15,1.88-.95,2.89,0,.01,0,.02,0,.03,0,.21-.03.47-.12.77.81.5,1.1,1.22,1.21,1.74.17.8.06,1.8-.99,2.7-.09.77-.59,2.22-3,2.64-.12.15-.26.29-.43.44-.09.77-.59,2.22-3,2.64-.13.48-.42.97-.96,1.44-.08.67-.47,1.86-2.16,2.43-.16.4-.43.81-.88,1.2-.07.61-.41,1.72-1.88,2.33.02.77-.25,2.15-2.28,2.96.07.82-.2,2.03-1.9,3.06.05.39.01.79-.11,1.19-.23.74-.76,1.39-1.39,1.93-.02.18-.06.36-.12.55.3.62.61,1.81-.48,3.18.11.44.11.97-.07,1.59.31.63.36,1.35.14,2.05-.14.44-.39.85-.7,1.23.08.25.12.54.11.85.1-.03.2-.06.3-.08.19-.04.39-.06.58-.06.38,0,.72.07,1.03.19.2-.23.42-.41.68-.55-.58-3.83.17-6,2.24-6.45.19-.04.39-.06.58-.06.69,0,1.27.24,1.74.6.12-.05.23-.09.34-.13-.09-.76-.14-1.47-.13-2.09.05-2.84,1.34-3.71,2.42-3.95.19-.04.38-.06.58-.06,1.07,0,1.86.57,2.45,1.3.03,0,.07,0,.1,0,.04,0,.07,0,.11,0-.25-3.91.7-6.03,2.82-6.29.11-.01.22-.02.33-.02,1.1,0,1.88.57,2.43,1.31-.06-3.35.9-5.17,2.85-5.41.11-.01.22-.02.33-.02,1.29,0,2.13.78,2.69,1.71.07,0,.15.01.22.03.38-3.49,1.58-5.26,3.58-5.26h.06c1.46.03,2.27.99,2.73,2.07.47-2.95,1.64-4.43,3.47-4.43h.06c1.48.03,2.29,1.01,2.75,2.11.06.01.12.03.18.05.1-.45.22-.86.34-1.24.68-2.04,1.78-3.08,3.26-3.08.09,0,.18,0,.26.01,1.47.14,2.21,1.18,2.58,2.31.08.02.16.05.23.08.03.01.06.02.09.04.09-.35.18-.67.28-.97.68-2.04,1.78-3.08,3.26-3.08.09,0,.17,0,.26.01,1.47.14,2.21,1.18,2.58,2.31.08.02.16.05.23.08.67.27,1.16.73,1.46,1.35.22-.83.48-1.59.75-2.23.3-.7,1.22-2.82,3.3-2.82.17,0,.34.02.51.05,1.45.28,2.09,1.38,2.36,2.53.08.03.15.07.22.1.11.06.22.12.32.19.06-.15.11-.29.17-.42.3-.7,1.22-2.82,3.3-2.82.17,0,.34.02.51.05,1.45.28,2.09,1.38,2.36,2.53.08.03.15.07.22.1.77.4,1.99,1.47,1.43,4.12-.21,1.01-.66,2.2-1.27,3.37-.08.15-.17.32-.27.5.35.16.71.33,1.08.51,1.35.68,2.58,1.47,3.45,2.21,2.15,1.83,2.01,3.39,1.51,4.38-.24.48-1,1.59-2.85,1.59h0c-.07,0-.15,0-.23,0-.07.09-.13.16-.19.23-.31.33-.69.58-1.12.73.57,1.2.26,2.14-.06,2.68-.24.42-.99,1.4-2.61,1.4-.1,0-.2,0-.31-.01-.03.04-.07.07-.1.1-.52.5-1.22.77-1.97.77-.89,0-1.79-.4-2.62-.96-.25.06-.54.1-.86.1-.1,0-.2,0-.31-.01-.03.04-.06.07-.09.09-.52.5-1.23.77-1.98.77-.95,0-1.92-.45-2.79-1.08-.42.37-1.08.72-2.05.72-.1,0-.2,0-.31-.01-.03.04-.07.07-.09.1-.52.5-1.22.77-1.97.77-.62,0-1.23-.19-1.83-.49-.41.27-.98.49-1.74.49-.1,0-.2,0-.31-.01-.03.03-.06.07-.09.09-.52.5-1.22.77-1.97.77-.46,0-.94-.1-1.44-.31-.09.02-.19.03-.29.04-.03.04-.05.08-.08.11-.54.73-1.41,1.15-2.38,1.15-.64,0-1.36-.18-2.15-.54-.29.56-1.07,1.58-2.87,1.58-.52,0-1.07-.09-1.59-.21-.37.77-1.28,1.78-3.52,1.78-.15,0-.3,0-.45-.01-.25.25-.55.47-.92.67,0,.05-.02.1-.03.14-.15.63-.75,2.03-3,2.28-.24.66-.76,1.2-1.54,1.62,0,.05-.02.1-.03.14-.16.65-.78,2.11-3.18,2.3-.22.74-.75,1.34-1.6,1.8,0,.05-.02.1-.03.14-.14.56-.63,1.77-2.38,2.18-.11.07-.24.14-.37.21.07.24.12.49.13.76.04.86-.26,1.93-1.67,2.72-.02.03-.03.05-.05.08,0,.03-.01.05-.02.08-.11.45-.44,1.28-1.42,1.82-.02.05-.03.09-.05.14h30.63l-2.29,8.05c3.45.19,6.77.81,9.89,1.87,8.49,2.87,14.55,8.57,17.04,16.05,2.5,7.48,1.08,15.67-3.99,23.07-4.78,6.98-12.33,12.47-21.25,15.45-4.67,1.56-9.42,2.35-14.14,2.35-2.94,0-5.82-.31-8.57-.94-12.93,17.51-33.47,27.91-55.3,27.91h-26.58ZM193.39,138.09c.99.1,2,.15,3.02.15,3.66,0,7.38-.62,11.05-1.85,6.81-2.27,12.55-6.35,16.16-11.47,3.45-4.9,4.49-10.14,2.95-14.77-2.3-6.89-10.13-11.35-19.96-11.35-.17,0-.35,0-.53,0l-7.47,26.21c-1.29,4.53-3.04,8.92-5.22,13.08Z"/>
  <path class="st12" d="M233.8,47.21c-1.59-.8-3.08-1.3-4.01-1.39,0-.02,0-.05,0-.07.63-.49,1.44-1.54,2.13-2.87,1.05-2.02,1.45-3.9.88-4.19-.24-.13-.62.05-1.05.46-.13.12-.35.02-.34-.16.09-1.53-.09-2.61-.52-2.69-.63-.12-1.55,1.96-2.06,4.65-.35,1.87-.42,3.53-.21,4.42-.12.04-.26-.05-.24-.19.16-1.34.05-2.3-.32-2.39-.55-.14-1.46,1.64-2.05,3.98-.02.1-.05.19-.07.29-.89-.37-1.69-.63-2.34-.76.11-.41.16-.75.12-.99.43-.54.89-1.24,1.31-2.03,1.05-2.02,1.45-3.9.88-4.19-.24-.13-.62.05-1.05.46-.13.12-.35.02-.34-.16.09-1.53-.09-2.61-.52-2.69-.63-.12-1.55,1.96-2.06,4.65-.1.52-.17,1.03-.23,1.51-.54.36-1.28,1.93-1.77,3.91-.19.76-.32,1.49-.39,2.13-.03,0-.07.01-.1.02-.15-.08-.29-.15-.44-.23-1.05-.53-2.05-.92-2.88-1.16.2-.68.27-1.26.2-1.61.24-.43.47-.92.69-1.44.86-2.11,1.09-4.01.49-4.26-.25-.1-.61.11-1,.55-.12.14-.35.05-.35-.13-.05-1.53-.33-2.59-.76-2.64-.64-.06-1.37,2.1-1.63,4.82-.04.46-.07.91-.09,1.33-.39.73-.76,2.01-.99,3.49-.14.92-.21,1.78-.2,2.5-.06-.03-.11-.06-.17-.09-.82-.41-1.61-.74-2.31-.98.44-1.26.51-2.27.13-2.45-.02,0-.03-.01-.05-.02.08-.17.15-.34.23-.52.86-2.11,1.09-4.01.49-4.26-.25-.1-.61.11-1,.55-.12.14-.35.05-.35-.13-.05-1.53-.33-2.59-.76-2.64-.64-.06-1.37,2.1-1.63,4.82-.1,1.05-.12,2.04-.06,2.85-.11.45-.2.93-.28,1.43-.16,1.04-.22,2-.19,2.77-.81-.22-1.58-.38-2.25-.47.48-1.53.54-2.79.09-2.97-.05-.02-.1-.02-.16-.02.68-2.14.75-4.01.15-4.21-.26-.08-.6.16-.96.62-.11.14-.34.08-.36-.11-.17-1.52-.52-2.56-.96-2.57-.64-.01-1.21,2.19-1.26,4.93-.03,1.45.09,2.75.3,3.66,0,.01,0,.02,0,.03-.09,1.16-.07,2.22.04,3.01-.03,0-.07-.01-.1-.02-.1,0-.19.02-.27.05-.84-.07-1.63-.08-2.33-.05.67-1.8.81-3.38.3-3.58-.19-.07-.44.06-.72.34.61-2.03.65-3.76.07-3.95-.26-.08-.6.16-.96.62-.11.14-.34.08-.36-.11-.17-1.52-.52-2.56-.96-2.57-.64-.01-1.21,2.19-1.26,4.93-.05,2.49.33,4.55.89,4.91.01.5.05.95.12,1.34,0,0,0,0,0,0-.34-.02-.62.24-.64.58-.6.07-1.16.16-1.68.27,0-.04.02-.08.03-.12.45-1.95.38-3.64-.17-3.77-.2-.05-.44.12-.68.46.2-1.84-.02-3.27-.57-3.37-.27-.05-.57.24-.86.76-.09.16-.33.12-.37-.05-.38-1.48-.89-2.46-1.32-2.41-.64.08-.88,2.34-.54,5.06.31,2.52,1.01,4.55,1.62,4.76,0,0,.01,0,.02,0,0,0,0,.01,0,.02-.03.18.08.39.32.6.02.07.04.14.07.21-.23.08-.4.29-.41.55-.01.2.08.38.22.5-.18.11-.37.23-.55.34-.14.01-.28.02-.43.04-.57.06-1.11.14-1.62.23.05-.19.11-.39.15-.59.45-1.95.38-3.64-.17-3.77-.23-.05-.51.18-.79.62-.08.12-.25.1-.31-.02.09-1.52-.14-2.65-.62-2.73-.27-.05-.57.24-.86.76-.09.16-.33.12-.37-.05-.38-1.48-.89-2.46-1.32-2.41-.64.08-.88,2.34-.54,5.06.31,2.52,1.01,4.55,1.62,4.76.02,0,.04.01.06.02.05.11.14.22.26.33.06.26.28.46.56.47.04,0,.08,0,.12,0,.06.03.13.07.2.1-.11.08-.22.16-.32.24-.72.55-1.43,1.12-2.12,1.7-.11-.12-.26-.2-.43-.21-.02,0-.03,0-.05,0,.07-.32.13-.65.18-1.01.27-1.99.04-3.66-.52-3.74-.24-.03-.49.23-.73.69-.07.14-.28.12-.33-.04-.38-1.29-.85-2.14-1.23-2.08-.15.02-.27.19-.36.47-.11.14-.21.31-.31.53-.07.17-.32.15-.38-.02-.52-1.44-1.11-2.37-1.53-2.28-.63.14-.66,2.41-.08,5.09.54,2.49,1.42,4.44,2.05,4.59.03,0,.05.01.08.02,0,0,0,0,0,0,.08.2.3.42.63.63-.76.72-1.5,1.46-2.22,2.22.11-.43.21-.9.27-1.4.27-1.99.04-3.66-.52-3.74-.24-.03-.49.23-.73.69-.07.14-.28.12-.33-.04-.38-1.29-.85-2.14-1.23-2.08-.26.04-.43.5-.5,1.22-.17.13-.33.38-.48.72-.07.17-.32.15-.38-.02-.52-1.44-1.11-2.37-1.53-2.28-.63.14-.66,2.41-.08,5.09.21.95.46,1.82.74,2.54-.18.09-.36.31-.54.65-.07.14-.28.12-.33-.04-.38-1.29-.85-2.14-1.23-2.08-.36.06-.55.93-.53,2.19-.22.07-.45.36-.65.81-.07.17-.32.15-.38-.02-.52-1.44-1.11-2.37-1.53-2.28-.63.14-.66,2.41-.08,5.09.11.52.24,1.01.38,1.48-.31-.77-.64-1.22-.92-1.17-.46.07-.64,1.43-.48,3.24,0,0,0,0-.01,0-.27-.02-.55.29-.79.83-.04.08-.11.12-.18.12.2-.38.25-.67.13-.8-.1-.1-.31-.09-.58,0-.13-.31-.26-.58-.39-.81.35-.39.5-.73.37-.93-.11-.19-.45-.23-.91-.14-.07.01-.14-.02-.17-.08.77-.55,1.22-1.09,1.06-1.37-.05-.09-.16-.15-.31-.17.11-.32.12-.56,0-.67-.06-.05-.14-.07-.24-.07.4-.6.56-1.07.39-1.25-.32-.33-1.68.48-3.03,1.8-.16.15-.31.31-.45.46.09-.87.19-1.75.3-2.64,1.52-.89,2.54-1.97,2.3-2.42.37-.36.55-.67.44-.87-.09-.17-.38-.22-.79-.17-.13.02-.21-.13-.13-.23.65-.84.97-1.53.76-1.75-.23-.23-.98.11-1.88.8.08-.49.17-.98.27-1.47.07-.05.14-.1.21-.14,0,0,0,0,.01,0,1.41-.72,2.38-1.63,2.16-2.03-.09-.17-.38-.22-.79-.17-.13.02-.21-.13-.13-.23.65-.84.97-1.53.76-1.75-.12-.13-.4-.08-.78.09,0-.1-.03-.18-.09-.24-.08-.07-.22-.08-.39-.04.04-.19.09-.38.14-.57,1.23-.69,2.04-1.49,1.84-1.86-.09-.17-.38-.22-.79-.17-.05,0-.1-.02-.13-.05.02-.08.03-.15.02-.22.64-.82.94-1.5.73-1.72-.1-.11-.32-.09-.61.02.04-.14.08-.28.12-.42,1.33-.71,2.23-1.57,2.02-1.96-.09-.17-.38-.22-.79-.17-.13.02-.21-.13-.13-.23.4-.52.68-.98.78-1.31,1.28-.44,2.17-1.05,2.05-1.44-.06-.18-.33-.29-.75-.32-.13,0-.18-.17-.09-.25.73-.64,1.16-1.21,1.1-1.5,1.2-.19,2.05-.57,2.02-.95-.02-.19-.27-.35-.66-.46-.12-.03-.14-.21-.03-.27.93-.52,1.49-1.04,1.37-1.33,0-.03-.03-.05-.05-.07.74-.08,1.24-.28,1.26-.56.02-.19-.2-.39-.57-.57-.12-.05-.11-.23.01-.27,1-.35,1.64-.76,1.58-1.07-.09-.42-1.5-.49-3.21-.18,0,0-.01-.02-.02-.03.84-.14,1.39-.4,1.4-.71,0-.17-.15-.33-.42-.48.4.1.86.18,1.35.23,1.57.15,2.88-.09,2.92-.55.02-.19-.2-.39-.57-.57-.12-.05-.11-.23.01-.27,1-.35,1.64-.76,1.58-1.07-.09-.45-1.67-.5-3.53-.11-.31.06-.61.14-.9.22-.05,0-.1.02-.15.04-.35-.03-.8-.02-1.32.04,0,0,0-.01-.01-.02.16-.33.32-.66.49-.99.13.07.29.08.43.03.02,0,.04,0,.05,0,1.8.07,3.26-.29,3.27-.81,0-.22-.25-.43-.69-.61-.04-.01-.06-.04-.08-.07.47.3,1.39.56,2.46.67,1.57.15,2.88-.09,2.92-.55.02-.19-.2-.39-.57-.57-.12-.05-.11-.23.01-.27,1-.35,1.64-.76,1.58-1.07-.09-.45-1.67-.5-3.53-.11-.36.07-.7.16-1.01.25-.01-.04-.03-.07-.06-.11-.12-.15-.33-.18-.49-.09-.31-.06-.76-.07-1.29-.02,0-.44-.06-.94-.17-1.48-.02-.11-.04-.21-.07-.31.17.04.36.08.56.12-.13.17-.14.42,0,.6.17.21.47.24.68.07.17-.14.22-.37.14-.56.18.02.37.03.56.04.5.02.97,0,1.39-.04.1.43,1.29.88,2.78,1.02,1.57.15,2.88-.09,2.92-.55.02-.19-.2-.39-.57-.57-.12-.05-.11-.23.01-.27,1-.35,1.64-.76,1.58-1.07-.09-.45-1.67-.5-3.53-.11-.56.12-1.08.26-1.53.41-.12-.09-.27-.18-.46-.25-.13-.05-.14-.25,0-.31.15-.06.29-.13.43-.19.11.03.23,0,.33-.07.05-.04.09-.1.11-.15.59-.33.92-.66.86-.9-.1-.39-1.19-.45-2.63-.2-.06-.28-.13-.56-.2-.81.12.04.24.07.37.1.01.08.04.16.1.23.17.21.47.24.68.07.05-.04.09-.09.12-.14.3.04.62.07.95.08,1.8.07,3.26-.29,3.27-.81,0-.22-.25-.43-.69-.61-.13-.05-.14-.25,0-.31,1.11-.47,1.82-.97,1.72-1.32-.14-.5-1.93-.46-4.01.1-1.35.36-2.48.85-3.08,1.29-.01-.02-.02-.03-.03-.05.12-.62.03-1.66-.26-2.8-.44-1.74-1.2-3.05-1.68-2.92-.21.05-.33.35-.38.82-.01.14-.2.19-.29.08-.75-.94-1.42-1.48-1.72-1.31-.43.26.12,1.96,1.23,3.81.77,1.28,1.6,2.28,2.19,2.7-.05.09-.17.11-.24.02-.61-.87-1.18-1.38-1.44-1.24-.39.21,0,1.73.89,3.41.04.07.07.14.11.21-.06.02-.12.04-.18.06-.04-.09-.11-.17-.2-.22-.24-.13-.54-.05-.68.19-.11.18-.21.36-.31.54-.15.07-.28.15-.4.22-.15-.3-.3-.52-.45-.64-.03-.54-.13-1.19-.3-1.88-.44-1.74-1.2-3.05-1.68-2.92-.21.05-.33.35-.38.82-.01.14-.2.19-.29.08-.75-.94-1.42-1.48-1.72-1.31-.43.26.12,1.96,1.23,3.81.22.36.44.7.66,1.01-.13.5.26,1.8,1.01,3.22.16.3.32.59.49.85-.16.3-.32.6-.48.89-.71.21-1.34.46-1.85.7-.24-.5-.5-.88-.73-1.05-.09-.38-.2-.79-.35-1.2-.6-1.69-1.47-2.92-1.94-2.76-.2.07-.3.38-.3.85,0,.14-.18.21-.28.11-.83-.87-1.55-1.35-1.83-1.14-.41.3.3,1.95,1.57,3.68.22.29.43.57.65.83.16.63.61,1.58,1.25,2.57.4.61.81,1.15,1.19,1.57-.05.01-.09.02-.14.04-.69.19-1.33.41-1.87.64-.41-.97-.89-1.6-1.21-1.5-.01,0-.02.01-.04.02-.04-.14-.09-.28-.14-.42-.6-1.69-1.47-2.92-1.94-2.76-.2.07-.3.38-.3.85,0,.14-.18.21-.28.11-.83-.87-1.55-1.35-1.83-1.14-.41.3.3,1.95,1.57,3.68.49.67,1,1.26,1.46,1.7.17.32.37.65.59.99.45.69.92,1.29,1.34,1.72-.59.29-1.13.6-1.56.9-.52-1.15-1.15-1.92-1.5-1.79-.04.01-.07.04-.1.08-.72-1.61-1.66-2.74-2.12-2.54-.2.09-.27.41-.23.87.01.14-.16.22-.27.13-.9-.81-1.65-1.23-1.91-1-.38.33.44,1.92,1.84,3.55.74.86,1.49,1.57,2.1,1.99,0,0,0,.01.01.02.55.73,1.12,1.34,1.6,1.74-.02.01-.05.03-.07.05-.06.05-.1.11-.13.17-.53.4-1,.81-1.39,1.19-.55-1.41-1.3-2.41-1.7-2.26-.15.06-.23.26-.25.58-.71-1.51-1.59-2.55-2.03-2.35-.2.09-.27.41-.23.87.01.14-.16.22-.27.13-.9-.81-1.65-1.23-1.91-1-.38.33.44,1.92,1.84,3.55,1.27,1.49,2.58,2.49,3.1,2.42.27.29.53.53.77.72,0,0,0,0,0,0-.21.17-.24.47-.07.68-.31.35-.6.7-.84,1.04-.02-.03-.03-.06-.05-.09-.76-1.38-1.69-2.33-2.08-2.12-.14.08-.19.3-.16.63-.85-1.18-1.73-1.91-2.1-1.68-.18.11-.21.44-.11.89.03.14-.13.24-.25.17-1-.67-1.81-.98-2.04-.72-.33.38.71,1.83,2.33,3.25,1.51,1.32,2.98,2.13,3.45,1.94,0,0,0,0,.01,0,0,0,0,0,0,.01.08.13.25.18.5.18.05.03.1.06.15.09-.09.17-.08.38.05.54.17.21.47.24.68.07.11-.09.17-.21.18-.34,0,0,0,0,0,0,0,0,0,0,.01,0,0,0,0,0,0,.01.03.06.1.11.18.14-.34.3-.69.65-1.04,1.03-.3.33-.58.67-.83.99-.07-.14-.14-.28-.22-.43-.76-1.38-1.69-2.33-2.08-2.12-.16.09-.21.38-.14.78.02.11-.09.19-.19.15-.75-.94-1.47-1.48-1.8-1.27-.18.11-.21.44-.11.89.03.14-.13.24-.25.17-1-.67-1.81-.98-2.04-.72-.33.38.71,1.83,2.33,3.25,1.51,1.32,2.98,2.13,3.45,1.94.02,0,.03-.01.04-.02.08.04.19.06.33.06.17.12.41.12.58-.02.03-.02.05-.04.07-.07.11-.03.23-.06.35-.1.02,0,.05,0,.07-.01.01,0,.03,0,.04-.01.15.08.41.1.74.05.01.03.03.06.05.08.13.17.38.19.54.06.1-.08.15-.2.14-.31.16-.05.32-.11.48-.17-.05.23-.11.46-.16.69-.53.4-1.13.95-1.72,1.6-.19.2-.36.41-.52.61-.17-.14-.42-.14-.6,0-.01,0-.02.02-.03.03-.13-.22-.27-.45-.42-.68-.88-1.31-1.89-2.17-2.26-1.92-.16.11-.17.39-.07.79.03.12-.1.22-.21.15-.9-.56-1.62-.81-1.81-.57-.08.09-.06.25.03.46,0,.14.04.29.1.47.04.14-.1.26-.23.19-1.06-.58-1.89-.81-2.09-.53-.3.41.88,1.76,2.62,3.02,1.62,1.17,3.16,1.85,3.61,1.62.02,0,.04-.02.05-.03,0,0,0,0,0,0,.4.21,1.45-.06,2.62-.66-.11.62-.22,1.24-.32,1.86-.44.44-.83.88-1.13,1.28-.07.08-.14.16-.2.24-.1-.07-.22-.11-.33-.09-.17-.34-.38-.71-.63-1.09-.88-1.31-1.89-2.17-2.26-1.92-.16.11-.17.39-.07.79.03.12-.1.22-.21.15-.9-.56-1.62-.81-1.81-.57-.13.16.01.52.35.97-.03.17,0,.4.09.67.04.14-.1.26-.23.19-1.06-.58-1.89-.81-2.09-.53-.3.41.88,1.76,2.62,3.02.62.45,1.23.82,1.77,1.11-.06.14-.05.37.03.66.03.12-.1.22-.21.15-.9-.56-1.62-.81-1.81-.57-.18.22.17.84.84,1.57-.09.16-.07.45.05.81.04.14-.1.26-.23.19-1.06-.58-1.89-.81-2.09-.53-.3.41.88,1.76,2.62,3.02.34.25.68.47,1,.67-.58-.29-1.02-.38-1.16-.21-.23.28.38,1.18,1.42,2.15,0,0,0,0,0,0-.17.13-.17.46-.03.9.04.14-.1.26-.23.19-1.06-.58-1.89-.81-2.09-.53-.24.33.47,1.26,1.65,2.26h-50.09c.18-.34.3-.72.33-1.13.16-1.79-1.27-3.31-3.06-3.27l-2.48.06,2.45-.42c1.77-.3,2.88-2.08,2.38-3.8-.5-1.72-2.38-2.63-4.04-1.94l-2.29.95,2.13-1.28c1.54-.92,1.93-2.97.85-4.4s-3.17-1.59-4.47-.35l-1.8,1.71,1.53-1.96c1.1-1.41.73-3.47-.8-4.41-1.53-.94-3.53-.34-4.29,1.28l-1.06,2.25.71-2.38c.52-1.72-.58-3.5-2.34-3.82-1.76-.32-3.41.96-3.54,2.75l-.17,2.48-.19-2.48c-.14-1.79-1.8-3.06-3.56-2.72-1.76.34-2.84,2.13-2.31,3.84l.73,2.37-1.07-2.24c-.78-1.62-2.78-2.2-4.3-1.25h0c-1.52.95-1.88,3.01-.76,4.42l1.54,1.95-1.81-1.7c-1.31-1.23-3.39-1.04-4.46.39h0c-1.07,1.43-.66,3.48.88,4.39l2.14,1.26-2.3-.93c-1.66-.67-3.54.25-4.02,1.98h0c-.48,1.73.64,3.49,2.41,3.78l2.45.4-2.48-.04c-1.79-.03-3.21,1.51-3.04,3.3.03.34.12.66.26.96h-15.85c-4.96-6.91-9.46-14.15-12.52-21.04l3.82,4.73c.83,1.03,2.34,1.19,3.37.36l.4-.32c1.03-.83,1.19-2.34.36-3.37l-1.36-1.68,5.95,3.74c3.17,2,7.37,1.04,9.36-2.13s1.04-7.37-2.13-9.36l-1.81-1.14,1.14-1.81c.33-.53.58-1.08.75-1.65,3.47-2.06,5.22-6.29,4-10.32h0c-1.44-4.75-6.45-7.43-11.2-5.99l-2.71.82-.82-2.71c-1.44-4.75-6.45-7.43-11.2-5.99h0c-4.75,1.44-7.43,6.45-5.99,11.2l3.49,11.51-1.7-2.11c-.38-.46-.89-.75-1.43-.85l-1.42-2.85c.29-.26.44-.66.34-1.06-.13-.59-.72-.95-1.31-.82-.59.13-.95.72-.82,1.31.13.56.66.91,1.22.83l1.28,2.57c-.43.05-.86.22-1.22.51l-.4.32c-.24.19-.43.42-.57.67l-2.02-1.56c.15-.36.11-.78-.15-1.1-.38-.47-1.07-.54-1.54-.16-.47.38-.54,1.07-.16,1.54.36.44.99.53,1.46.21l2.18,1.67c-.1.37-.1.77-.01,1.14-2.58-.22-4.59,1.35-5.3,1.98-.05.04-.1.08-.16.12-1.68,1.14-8.88,6.87,5.64,16.49,6.25,4.15,12.58,9.96,18.53,16.3h-16.37l11.62,40.78c8.11,28.48,34.13,48.12,63.74,48.12h26.58c22.06,0,42.13-10.9,54.28-28.24,3.05.84,6.28,1.27,9.59,1.27,4.39,0,8.93-.74,13.36-2.22,8.42-2.81,15.52-7.96,20.01-14.51,4.62-6.75,5.93-14.17,3.68-20.91-2.25-6.73-7.75-11.88-15.5-14.5-3.85-1.3-8.04-1.9-12.34-1.79l2.28-8h-32.84c-.08-.1-.03-.27.11-.3,1.33-.24,2.22-.62,2.2-1.02-.03-.58-2-.97-4.4-.86-1.06.05-2.02.18-2.77.37.41-.69.84-1.39,1.29-2.09.67.31,1.54.59,2.52.78,2.24.45,4.15.3,4.27-.35.05-.28-.23-.59-.74-.91-.08-.05-.11-.14-.1-.22,1.19.14,2.07,0,2.17-.4.03-.13-.02-.28-.15-.43.38-.21.58-.43.56-.64,0-.1-.07-.18-.17-.27.89-.23,1.44-.54,1.43-.85-.03-.58-2-.97-4.4-.86-.97.04-1.85.16-2.57.32,0-.07-.01-.13-.03-.19.73-.97,1.5-1.93,2.31-2.89.57.22,1.24.41,1.97.56,2.21.45,4.1.3,4.26-.33.65-.02,1.09-.17,1.15-.45.06-.24-.17-.53-.6-.83-.13-.09-.09-.31.07-.33,1.33-.24,2.22-.62,2.2-1.02-.03-.58-2-.97-4.4-.86-.66.03-1.29.09-1.85.18.69-.72,1.41-1.42,2.16-2.12.61.25,1.36.47,2.18.64.44.09.86.15,1.26.2,0,0,.01,0,.02,0,1.94.51,3.63.47,3.77-.09.06-.24-.17-.53-.6-.83-.13-.09-.09-.31.07-.33,1.33-.24,2.22-.62,2.2-1.02,0-.22-.31-.42-.81-.57.08-.1.12-.2.11-.3-.06-.63-2.15-.94-4.71-.72.58-.46,1.17-.92,1.77-1.37.05.04.11.08.17.12-.01.04-.02.08-.02.12-.01.27.19.5.46.51.16,0,.31-.06.4-.18.5.23,1.1.44,1.75.61,1.94.51,3.63.47,3.77-.09.06-.24-.17-.53-.6-.83-.06-.04-.08-.1-.08-.16.09-.06.16-.12.2-.19,1.3-.24,2.17-.62,2.15-1.01-.01-.33-.65-.59-1.64-.74.25-.09.47-.19.66-.29.21.07.43.13.66.19,1.94.51,3.63.47,3.77-.09.06-.24-.17-.53-.6-.83-.13-.09-.09-.31.07-.33.82-.15,1.47-.35,1.85-.58,1.58.67,2.94.84,3.16.37.1-.22-.07-.56-.44-.93-.11-.12-.03-.32.13-.32,1.23.01,2.13-.16,2.32-.49,1.29.84,2.43,1.2,2.72.81.15-.2.05-.56-.24-1-.09-.14.04-.32.2-.28,1.32.29,2.29.28,2.42-.09.01-.03.02-.07.02-.1.77.56,1.41.79,1.67.55.18-.17.14-.54-.06-1.03-.06-.15.09-.3.24-.24,1.25.51,2.2.67,2.4.33.28-.47-1-1.73-2.89-2.89,0-.02,0-.03,0-.05.91.58,1.65.8,1.93.51.15-.16.14-.44.01-.81.29.44.66.9,1.08,1.37,1.36,1.48,2.81,2.35,3.23,1.95.18-.17.14-.54-.06-1.03-.06-.15.09-.3.24-.24,1.25.51,2.2.67,2.4.33.29-.5-1.16-1.89-3.24-3.1-.35-.2-.7-.39-1.03-.55-.05-.04-.11-.07-.17-.09-.3-.33-.74-.7-1.29-1.08,0-.03.01-.07.02-.1,0-.1-.02-.19-.05-.27.02-.03.04-.06.06-.09.38-.08.76-.17,1.14-.25.05.05.1.1.14.15.06.18.2.33.38.39.02.02.03.03.05.05,1.64,1.59,3.34,2.49,3.79,2,.19-.2.13-.62-.14-1.16-.02-.05-.02-.09-.01-.14.19.68.84,1.71,1.76,2.72,1.36,1.48,2.81,2.35,3.23,1.95.18-.17.14-.54-.06-1.03-.06-.15.09-.3.24-.24,1.25.51,2.2.67,2.4.33.29-.5-1.16-1.89-3.24-3.1-.4-.23-.79-.44-1.17-.62.02-.05.03-.1.03-.15.01-.24-.16-.46-.39-.5-.24-.32-.66-.71-1.2-1.11.17-.2.34-.42.51-.66.24-.03.47-.07.71-.1,0,0,0,.01,0,.02-.02.34.24.63.58.64.28.01.52-.16.61-.41.16.17.32.34.5.51.45.44.91.82,1.35,1.14-.27.5.48,1.93,1.76,3.32,1.36,1.48,2.81,2.35,3.23,1.95.18-.17.14-.54-.06-1.03-.06-.15.09-.3.24-.24,1.25.51,2.2.67,2.4.33.29-.5-1.16-1.89-3.24-3.1-.63-.36-1.24-.67-1.8-.9-.03-.18-.11-.4-.22-.63-.08-.17.08-.35.26-.29.2.07.38.13.57.18.08.12.22.2.37.21.09,0,.17-.02.24-.05.84.18,1.43.16,1.57-.13.23-.45-.72-1.4-2.25-2.37.05-.08.08-.18.07-.29,0,0,0,0,0,0,.13-.23.24-.46.35-.69.08.13.17.27.27.42-.06.09-.1.19-.1.31-.02.34.24.63.58.64.08,0,.16,0,.24-.03.25.29.53.59.83.88,1.64,1.59,3.34,2.49,3.79,2,.19-.2.13-.62-.14-1.16-.08-.17.08-.35.26-.29,1.45.5,2.55.62,2.75.21.3-.59-1.44-2.07-3.88-3.3ZM204.21,96.43c.81-.05,1.61-.08,2.4-.08,10.56,0,19.55,4.85,22.28,13.02,3.72,11.14-5.55,24.3-20.66,29.34-6.33,2.11-12.85,2.53-18.68,1.24,2.85-4.81,5.13-10.05,6.71-15.62l7.95-27.91Z"/>
  <g id="_หูแก้ว" data-name="หูแก้ว">
    <path class="st12" d="M196.39,145.48c-3.95,0-7.79-.6-11.35-1.8-7.75-2.62-13.26-7.77-15.5-14.5-2.25-6.73-.94-14.16,3.68-20.91,4.48-6.54,11.59-11.7,20.01-14.51,8.42-2.81,17.19-2.96,24.71-.42,7.75,2.62,13.26,7.77,15.5,14.5h0c2.25,6.73.94,14.16-3.68,20.91-4.48,6.54-11.59,11.7-20.01,14.51-4.43,1.48-8.97,2.22-13.36,2.22ZM206.61,96.34c-3.82,0-7.85.63-11.86,1.97-15.11,5.04-24.38,18.21-20.66,29.34,1.76,5.27,6.2,9.35,12.49,11.48,6.53,2.21,14.22,2.06,21.65-.43,15.11-5.04,24.37-18.21,20.66-29.34h0c-2.73-8.18-11.72-13.02-22.28-13.02Z"/>
  </g>
  <path id="_พื้นหลังน้ำ" data-name="พื้นหลังน้ำ" class="st12" d="M132.52,172.46h-26.58c-29.61,0-55.63-19.64-63.74-48.12l-11.62-40.78h177.3l-11.62,40.78c-8.11,28.48-34.13,48.12-63.74,48.12Z"/>
  <g>
    <path class="st16" d="M159.66,118.65l.05.03s-.01-.02-.02-.03c.01,0,.02,0,.03,0l-.05-.03c-8.91-12.65-24.11-15.36-26.91-15.76l-.51-.09.05.06h0s10.34,14.26,27.37,15.82Z"/>
    <path class="st16" d="M158.5,118.59l-.05.02s.01-.02.02-.02c-.01,0-.02,0-.03,0l.05-.02c10.13-11.69,25.52-12.87,28.36-12.99l.51-.04-.05.05h0s-11.72,13.16-28.82,13Z"/>
    <path class="st16" d="M159.7,112.13l-.03.03s0-.01,0-.02c0,0-.02,0-.02,0l.03-.03c4.47-10.93,15.32-15.53,17.34-16.31l.36-.15-.02.05h0s-5.27,12.37-17.67,16.43Z"/>
    <path class="st16" d="M159.95,111.55l.03.03s0-.02,0-.02c0,0,.02,0,.02,0l-.03-.03c-4.16-11.21-14.98-16.24-17-17.1l-.36-.17.02.05h0s4.91,12.7,17.33,17.23Z"/>
    <path class="st16" d="M161.53,100.97l.02.03s0-.01,0-.02c0,0,.01,0,.02,0l-.02-.03c-1.99-8.5-9.5-12.88-10.92-13.63l-.25-.15v.04s0,0,0,0c0,0,2.4,9.65,11.14,13.75Z"/>
    <path class="st18" d="M228.42,48.76c-38.43,3.12-55.12,24.12-62.36,41.19-1.41,3.33-2.53,6.65-3.42,9.85-.24.86-.46,1.7-.66,2.54h0c-3.27,13.44-2.52,24.23-2.51,24.37.02.27-.18.51-.45.52-.02,0-.04,0-.06,0-.24-.01-.45-.2-.46-.45-.01-.15-.86-12.29,3.11-26.92-.95-6.88-1.25-13.71-.89-20.42.89-16.62,5.81-32.61,14.65-47.54.14-.24.44-.32.68-.19.23.13.31.43.18.66-13.75,23.24-16.05,46.04-13.89,64.98.78-2.54,1.7-5.14,2.81-7.75,4.67-11.03,11.56-20.08,20.5-26.89,11.15-8.51,25.52-13.53,42.7-14.92.27-.02.51.18.53.45.02.27-.18.51-.45.53Z"/>
    <g>
      <g>
        <path class="st3" d="M167.24,77.86c-.27-.02-.55.29-.79.83-.07.17-.32.15-.38-.02-.52-1.44-1.11-2.37-1.53-2.28-.63.14-.66,2.41-.08,5.09.54,2.49,1.42,4.44,2.05,4.59.03,0,.05.01.08.02.64.05,1.3-1.75,1.48-4.02.18-2.27-.19-4.15-.83-4.2Z"/>
        <path class="st3" d="M174.21,87c.05-.28-.23-.59-.74-.91-.16-.1-.12-.34.06-.38,1.49-.36,2.48-.85,2.43-1.3-.07-.66-2.33-.97-5.05-.69-2.53.26-4.57.93-4.79,1.56-.01.03-.02.05-.03.08-.12.65,1.6,1.54,3.84,2,2.24.45,4.15.3,4.27-.35Z"/>
        <path class="st3" d="M178.25,80.1c.05-.28-.23-.59-.74-.91-.16-.1-.12-.34.06-.38,1.49-.36,2.48-.85,2.43-1.3-.07-.66-2.33-.97-5.05-.69-2.53.26-4.57.93-4.79,1.56-.01.03-.02.05-.03.08-.12.65,1.6,1.54,3.84,2,2.24.45,4.15.3,4.27-.35Z"/>
        <path class="st3" d="M182.8,72.98c.05-.28-.23-.59-.74-.91-.16-.1-.12-.34.06-.38,1.49-.36,2.48-.85,2.43-1.3-.07-.66-2.33-.97-5.05-.69-2.53.26-4.57.93-4.79,1.56-.01.03-.02.05-.03.08-.12.65,1.6,1.54,3.84,2,2.24.45,4.15.3,4.27-.35Z"/>
        <path class="st3" d="M187.97,67.86c.05-.28-.23-.59-.74-.91-.16-.1-.12-.34.06-.38,1.49-.36,2.48-.85,2.43-1.3-.07-.66-2.33-.97-5.05-.69-2.53.26-4.57.93-4.79,1.56-.01.03-.02.05-.03.08-.12.65,1.6,1.54,3.84,2,2.24.45,4.15.3,4.27-.35Z"/>
        <path class="st3" d="M192.89,62.97c.05-.28-.23-.59-.74-.91-.16-.1-.12-.34.06-.38,1.49-.36,2.48-.85,2.43-1.3-.07-.66-2.33-.97-5.05-.69-2.53.26-4.57.93-4.79,1.56-.01.03-.02.05-.03.08-.12.65,1.6,1.54,3.84,2,2.24.45,4.15.3,4.27-.35Z"/>
        <path class="st3" d="M198.49,59.09c.05-.28-.23-.59-.74-.91-.16-.1-.12-.34.06-.38,1.49-.36,2.48-.85,2.43-1.3-.07-.66-2.33-.97-5.05-.69-2.53.26-4.57.93-4.79,1.56-.01.03-.02.05-.03.08-.12.65,1.6,1.54,3.84,2,2.24.45,4.15.3,4.27-.35Z"/>
        <path class="st3" d="M203.47,57.23c.1-.26-.11-.63-.56-1.03-.14-.12-.05-.36.13-.37,1.53-.07,2.59-.37,2.63-.82.06-.66-2.1-1.39-4.83-1.62-2.53-.22-4.66.06-4.99.63-.02.02-.03.05-.04.07-.24.61,1.28,1.82,3.4,2.68,2.11.87,4.02,1.07,4.26.46Z"/>
        <path class="st3" d="M208.78,55.87c.15-.23.02-.64-.33-1.12-.11-.15.02-.36.2-.33,1.51.25,2.61.17,2.74-.26.19-.63-1.77-1.79-4.39-2.58-2.43-.74-4.57-.9-5.02-.41-.02.02-.04.04-.05.06-.36.55.88,2.04,2.77,3.32,1.89,1.28,3.72,1.88,4.08,1.32Z"/>
        <path class="st3" d="M213.33,54.54c.19-.2.13-.62-.14-1.16-.08-.17.08-.35.26-.29,1.45.5,2.55.62,2.75.21.3-.59-1.44-2.07-3.88-3.3-2.27-1.15-4.35-1.67-4.87-1.27-.02.02-.04.03-.06.05-.45.48.52,2.16,2.16,3.75,1.64,1.59,3.34,2.49,3.79,2Z"/>
        <path class="st3" d="M220.03,53.18c.19-.2.13-.62-.14-1.16-.08-.17.08-.35.26-.29,1.45.5,2.55.62,2.75.21.3-.59-1.44-2.07-3.88-3.3-2.27-1.15-4.35-1.67-4.87-1.27-.02.02-.04.03-.06.05-.45.48.52,2.16,2.16,3.75,1.64,1.59,3.34,2.49,3.79,2Z"/>
        <path class="st3" d="M228.17,52.14c.19-.2.13-.62-.14-1.16-.08-.17.08-.35.26-.29,1.45.5,2.55.62,2.75.21.3-.59-1.44-2.07-3.88-3.3-2.27-1.15-4.35-1.67-4.87-1.27-.02.02-.04.03-.06.05-.45.48.52,2.16,2.16,3.75,1.64,1.59,3.34,2.49,3.79,2Z"/>
        <path class="st3" d="M234.81,51.75c.19-.2.13-.62-.14-1.16-.08-.17.08-.35.26-.29,1.45.5,2.55.62,2.75.21.3-.59-1.44-2.07-3.88-3.3-2.27-1.15-4.35-1.67-4.87-1.27-.02.02-.04.03-.06.05-.45.48.52,2.16,2.16,3.75,1.64,1.59,3.34,2.49,3.79,2Z"/>
        <path class="st3" d="M171.05,70.71c-.27-.02-.55.29-.79.83-.07.17-.32.15-.38-.02-.52-1.44-1.11-2.37-1.53-2.28-.63.14-.66,2.41-.08,5.09.54,2.49,1.42,4.44,2.05,4.59.03,0,.05.01.08.02.64.05,1.3-1.75,1.48-4.02.18-2.27-.19-4.15-.83-4.2Z"/>
        <path class="st3" d="M175.58,63.83c-.27-.02-.55.29-.79.83-.07.17-.32.15-.38-.02-.52-1.44-1.11-2.37-1.53-2.28-.63.14-.66,2.41-.08,5.09.54,2.49,1.42,4.44,2.05,4.59.03,0,.05.01.08.02.64.05,1.3-1.75,1.48-4.02.18-2.27-.19-4.15-.83-4.2Z"/>
        <path class="st3" d="M180.53,58.21c-.27-.02-.55.29-.79.83-.07.17-.32.15-.38-.02-.52-1.44-1.11-2.37-1.53-2.28-.63.14-.66,2.41-.08,5.09.54,2.49,1.42,4.44,2.05,4.59.03,0,.05.01.08.02.64.05,1.3-1.75,1.48-4.02.18-2.27-.19-4.15-.83-4.2Z"/>
        <path class="st3" d="M186.23,53.44c-.27-.05-.57.24-.86.76-.09.16-.33.12-.37-.05-.38-1.48-.89-2.46-1.32-2.41-.64.08-.88,2.34-.54,5.06.31,2.52,1.01,4.55,1.62,4.76.02.01.05.02.08.02.63.11,1.45-1.62,1.84-3.87.39-2.25.19-4.15-.44-4.26Z"/>
        <path class="st3" d="M191.84,49.32c-.27-.05-.57.24-.86.76-.09.16-.33.12-.37-.05-.38-1.48-.89-2.46-1.32-2.41-.64.08-.88,2.34-.54,5.06.31,2.52,1.01,4.55,1.62,4.76.02.01.05.02.08.02.63.11,1.45-1.62,1.84-3.87.39-2.25.19-4.15-.44-4.26Z"/>
        <path class="st3" d="M198.1,46.14c-.26-.08-.6.16-.96.62-.11.14-.34.08-.36-.11-.17-1.52-.52-2.56-.96-2.57-.64-.01-1.21,2.19-1.26,4.93-.05,2.54.35,4.65.92,4.94.02.01.05.03.07.03.61.2,1.67-1.4,2.38-3.57.7-2.17.78-4.08.17-4.28Z"/>
        <path class="st3" d="M204.35,43.78c-.26-.08-.6.16-.96.62-.11.14-.34.08-.36-.11-.17-1.52-.52-2.56-.96-2.57-.64-.01-1.21,2.19-1.26,4.93-.05,2.54.35,4.65.92,4.94.02.01.05.03.07.03.61.2,1.67-1.4,2.38-3.57.7-2.17.78-4.08.17-4.28Z"/>
        <path class="st3" d="M210.81,41.78c-.25-.1-.61.11-1,.55-.12.14-.35.05-.35-.13-.05-1.53-.33-2.59-.76-2.64-.64-.06-1.37,2.1-1.63,4.82-.24,2.53,0,4.66.55,4.99.02.02.04.03.07.04.59.24,1.77-1.27,2.64-3.38.86-2.11,1.09-4.01.49-4.26Z"/>
        <path class="st3" d="M217.52,40.17c-.25-.1-.61.11-1,.55-.12.14-.35.05-.35-.13-.05-1.53-.33-2.59-.76-2.64-.64-.06-1.37,2.1-1.63,4.82-.24,2.53,0,4.66.55,4.99.02.02.04.03.07.04.59.24,1.77-1.27,2.64-3.38.86-2.11,1.09-4.01.49-4.26Z"/>
        <path class="st3" d="M225.92,39.06c-.24-.13-.62.05-1.05.46-.13.12-.35.02-.34-.16.09-1.53-.09-2.61-.52-2.69-.63-.12-1.55,1.96-2.06,4.65-.47,2.5-.42,4.64.09,5.02.02.02.04.03.07.05.57.3,1.88-1.1,2.94-3.12,1.05-2.02,1.45-3.9.88-4.19Z"/>
        <path class="st3" d="M232.81,38.69c-.24-.13-.62.05-1.05.46-.13.12-.35.02-.34-.16.09-1.53-.09-2.61-.52-2.69-.63-.12-1.55,1.96-2.06,4.65-.47,2.5-.42,4.64.09,5.02.02.02.04.03.07.05.57.3,1.88-1.1,2.94-3.12,1.05-2.02,1.45-3.9.88-4.19Z"/>
      </g>
      <g>
        <path class="st4" d="M170.02,76.05c-.24-.03-.49.23-.73.69-.07.14-.28.12-.33-.04-.38-1.29-.85-2.14-1.23-2.08-.56.09-.7,2.09-.33,4.46.35,2.21,1.02,3.97,1.56,4.14.02,0,.04.02.07.02.56.08,1.23-1.47,1.51-3.46.27-1.99.04-3.66-.52-3.74Z"/>
        <path class="st4" d="M175.69,84.43c.06-.24-.17-.53-.6-.83-.13-.09-.09-.31.07-.33,1.33-.24,2.22-.62,2.2-1.02-.03-.58-2-.97-4.4-.86-2.24.1-4.06.59-4.28,1.12-.01.02-.02.04-.03.07-.14.56,1.33,1.44,3.27,1.95,1.94.51,3.63.47,3.77-.09Z"/>
        <path class="st4" d="M179.59,78.58c.06-.24-.17-.53-.6-.83-.13-.09-.09-.31.07-.33,1.33-.24,2.22-.62,2.2-1.02-.03-.58-2-.97-4.4-.86-2.24.1-4.06.59-4.28,1.12-.01.02-.02.04-.03.07-.14.56,1.33,1.44,3.27,1.95,1.94.51,3.63.47,3.77-.09Z"/>
        <path class="st4" d="M183.94,72.56c.06-.24-.17-.53-.6-.83-.13-.09-.09-.31.07-.33,1.33-.24,2.22-.62,2.2-1.02-.03-.58-2-.97-4.4-.86-2.24.1-4.06.59-4.28,1.12-.01.02-.02.04-.03.07-.14.56,1.33,1.44,3.27,1.95,1.94.51,3.63.47,3.77-.09Z"/>
        <path class="st4" d="M188.75,68.32c.06-.24-.17-.53-.6-.83-.13-.09-.09-.31.07-.33,1.33-.24,2.22-.62,2.2-1.02-.03-.58-2-.97-4.4-.86-2.24.1-4.06.59-4.28,1.12-.01.02-.02.04-.03.07-.14.56,1.33,1.44,3.27,1.95,1.94.51,3.63.47,3.77-.09Z"/>
        <path class="st4" d="M193.32,64.27c.06-.24-.17-.53-.6-.83-.13-.09-.09-.31.07-.33,1.33-.24,2.22-.62,2.2-1.02-.03-.58-2-.97-4.4-.86-2.24.1-4.06.59-4.28,1.12-.01.02-.02.04-.03.07-.14.56,1.33,1.44,3.27,1.95,1.94.51,3.63.47,3.77-.09Z"/>
        <path class="st4" d="M198.43,61.15c.06-.24-.17-.53-.6-.83-.13-.09-.09-.31.07-.33,1.33-.24,2.22-.62,2.2-1.02-.03-.58-2-.97-4.4-.86-2.24.1-4.06.59-4.28,1.12-.01.02-.02.04-.03.07-.14.56,1.33,1.44,3.27,1.95,1.94.51,3.63.47,3.77-.09Z"/>
        <path class="st4" d="M202.91,59.78c.1-.22-.07-.56-.44-.93-.11-.12-.03-.32.13-.32,1.35.01,2.3-.2,2.35-.59.08-.58-1.78-1.32-4.16-1.67-2.21-.32-4.1-.18-4.42.3-.01.02-.03.04-.04.06-.24.53,1.03,1.66,2.85,2.53,1.81.87,3.48,1.15,3.72.62Z"/>
        <path class="st4" d="M207.64,58.85c.15-.2.05-.56-.24-1-.09-.14.04-.32.2-.28,1.32.29,2.29.28,2.42-.09.2-.55-1.47-1.66-3.73-2.49-2.1-.77-3.97-1.02-4.39-.62-.02.02-.04.03-.05.05-.34.47.67,1.84,2.27,3.06,1.6,1.22,3.17,1.84,3.51,1.37Z"/>
        <path class="st4" d="M211.71,57.91c.18-.17.14-.54-.06-1.03-.06-.15.09-.3.24-.24,1.25.51,2.2.67,2.4.33.29-.5-1.16-1.89-3.24-3.1-1.94-1.12-3.74-1.69-4.21-1.36-.02.01-.04.03-.06.04-.42.4.34,1.93,1.7,3.41,1.36,1.48,2.81,2.35,3.23,1.95Z"/>
        <path class="st4" d="M217.66,57.06c.18-.17.14-.54-.06-1.03-.06-.15.09-.3.24-.24,1.25.51,2.2.67,2.4.33.29-.5-1.16-1.89-3.24-3.1-1.94-1.12-3.74-1.69-4.21-1.36-.02.01-.04.03-.06.04-.42.4.34,1.93,1.7,3.41,1.36,1.48,2.81,2.35,3.23,1.95Z"/>
        <path class="st4" d="M224.87,56.56c.18-.17.14-.54-.06-1.03-.06-.15.09-.3.24-.24,1.25.51,2.2.67,2.4.33.29-.5-1.16-1.89-3.24-3.1-1.94-1.12-3.74-1.69-4.21-1.36-.02.01-.04.03-.06.04-.42.4.34,1.93,1.7,3.41,1.36,1.48,2.81,2.35,3.23,1.95Z"/>
        <path class="st4" d="M230.72,56.55c.18-.17.14-.54-.06-1.03-.06-.15.09-.3.24-.24,1.25.51,2.2.67,2.4.33.29-.5-1.16-1.89-3.24-3.1-1.94-1.12-3.74-1.69-4.21-1.36-.02.01-.04.03-.06.04-.42.4.34,1.93,1.7,3.41,1.36,1.48,2.81,2.35,3.23,1.95Z"/>
        <path class="st4" d="M173.73,69.96c-.24-.03-.49.23-.73.69-.07.14-.28.12-.33-.04-.38-1.29-.85-2.14-1.23-2.08-.56.09-.7,2.09-.33,4.46.35,2.21,1.02,3.97,1.56,4.14.02,0,.04.02.07.02.56.08,1.23-1.47,1.51-3.46.27-1.99.04-3.66-.52-3.74Z"/>
        <path class="st4" d="M178.06,64.15c-.24-.03-.49.23-.73.69-.07.14-.28.12-.33-.04-.38-1.29-.85-2.14-1.23-2.08-.56.09-.7,2.09-.33,4.46.35,2.21,1.02,3.97,1.56,4.14.02,0,.04.02.07.02.56.08,1.23-1.47,1.51-3.46.27-1.99.04-3.66-.52-3.74Z"/>
        <path class="st4" d="M182.71,59.46c-.24-.03-.49.23-.73.69-.07.14-.28.12-.33-.04-.38-1.29-.85-2.14-1.23-2.08-.56.09-.7,2.09-.33,4.46.35,2.21,1.02,3.97,1.56,4.14.02,0,.04.02.07.02.56.08,1.23-1.47,1.51-3.46.27-1.99.04-3.66-.52-3.74Z"/>
        <path class="st4" d="M187.95,55.56c-.23-.05-.51.18-.79.62-.09.14-.29.09-.33-.07-.26-1.32-.65-2.21-1.04-2.18-.56.04-.89,2.01-.74,4.42.15,2.23.66,4.05,1.18,4.26.02.01.04.02.07.03.55.13,1.36-1.35,1.81-3.31.45-1.95.38-3.64-.17-3.77Z"/>
        <path class="st4" d="M193.09,52.23c-.23-.05-.51.18-.79.62-.09.14-.29.09-.33-.07-.26-1.32-.65-2.21-1.04-2.18-.56.04-.89,2.01-.74,4.42.15,2.23.66,4.05,1.18,4.26.02.01.04.02.07.03.55.13,1.36-1.35,1.81-3.31.45-1.95.38-3.64-.17-3.77Z"/>
        <path class="st4" d="M198.75,49.76c-.22-.09-.53.11-.87.5-.1.12-.3.05-.31-.11-.07-1.35-.33-2.28-.71-2.31-.56-.04-1.17,1.86-1.36,4.26-.18,2.23.07,4.1.56,4.39.02.01.04.03.06.03.52.2,1.54-1.14,2.27-3.01.73-1.87.89-3.55.37-3.75Z"/>
        <path class="st4" d="M204.36,48c-.22-.09-.53.11-.87.5-.1.12-.3.05-.31-.11-.07-1.35-.33-2.28-.71-2.31-.56-.04-1.17,1.86-1.36,4.26-.18,2.23.07,4.1.56,4.39.02.01.04.03.06.03.52.2,1.54-1.14,2.27-3.01.73-1.87.89-3.55.37-3.75Z"/>
        <path class="st4" d="M210.14,46.57c-.22-.1-.54.07-.91.43-.11.11-.31.03-.3-.13.03-1.35-.16-2.3-.54-2.35-.56-.09-1.31,1.77-1.68,4.15-.34,2.21-.24,4.09.23,4.42.02.02.04.03.06.04.51.24,1.62-1.02,2.49-2.83.87-1.81,1.16-3.47.65-3.72Z"/>
        <path class="st4" d="M216.11,45.5c-.22-.1-.54.07-.91.43-.11.11-.31.03-.3-.13.03-1.35-.16-2.3-.54-2.35-.56-.09-1.31,1.77-1.68,4.15-.34,2.21-.24,4.09.23,4.42.02.02.04.03.06.04.51.24,1.62-1.02,2.49-2.83.87-1.81,1.16-3.47.65-3.72Z"/>
        <path class="st4" d="M223.56,44.95c-.21-.12-.54.02-.94.35-.12.1-.31,0-.29-.16.16-1.34.05-2.3-.32-2.39-.55-.14-1.46,1.64-2.05,3.98-.54,2.17-.61,4.05-.18,4.42.02.02.04.03.06.04.48.29,1.71-.87,2.74-2.59,1.03-1.72,1.47-3.35.99-3.64Z"/>
        <path class="st4" d="M229.62,44.98c-.21-.12-.54.02-.94.35-.12.1-.31,0-.29-.16.16-1.34.05-2.3-.32-2.39-.55-.14-1.46,1.64-2.05,3.98-.54,2.17-.61,4.05-.18,4.42.02.02.04.03.06.04.48.29,1.71-.87,2.74-2.59,1.03-1.72,1.47-3.35.99-3.64Z"/>
      </g>
      <g>
        <circle class="st7" cx="167.17" cy="83.39" r=".61"/>
        <circle class="st7" cx="168.92" cy="85.07" r=".49"/>
        <circle class="st7" cx="169.65" cy="82.78" r=".61"/>
      </g>
      <g>
        <circle class="st7" cx="171.19" cy="76.48" r=".61"/>
        <circle class="st7" cx="172.95" cy="78.16" r=".49"/>
        <circle class="st7" cx="173.68" cy="75.87" r=".61"/>
      </g>
      <g>
        <circle class="st7" cx="175.41" cy="70.56" r=".61"/>
        <circle class="st7" cx="177.17" cy="72.24" r=".49"/>
        <circle class="st7" cx="177.9" cy="69.95" r=".61"/>
      </g>
      <g>
        <circle class="st7" cx="180.58" cy="65.43" r=".61"/>
        <circle class="st7" cx="182.33" cy="67.11" r=".49"/>
        <circle class="st7" cx="183.06" cy="64.82" r=".61"/>
      </g>
      <g>
        <circle class="st7" cx="185.66" cy="61.76" r=".61"/>
        <circle class="st7" cx="187.42" cy="63.44" r=".49"/>
        <circle class="st7" cx="188.15" cy="61.15" r=".61"/>
      </g>
      <g>
        <circle class="st7" cx="190.96" cy="58.84" r=".61"/>
        <circle class="st7" cx="192.72" cy="60.52" r=".49"/>
        <circle class="st7" cx="193.44" cy="58.23" r=".61"/>
      </g>
      <g>
        <circle class="st7" cx="195.52" cy="55.88" r=".61"/>
        <circle class="st7" cx="197.28" cy="57.56" r=".49"/>
        <circle class="st7" cx="198.01" cy="55.27" r=".61"/>
      </g>
      <g>
        <circle class="st7" cx="201.01" cy="53.95" r=".61"/>
        <circle class="st7" cx="202.77" cy="55.63" r=".49"/>
        <circle class="st7" cx="203.5" cy="53.34" r=".61"/>
      </g>
      <g>
        <circle class="st7" cx="206.99" cy="52.04" r=".61"/>
        <circle class="st7" cx="208.75" cy="53.72" r=".49"/>
        <circle class="st7" cx="209.48" cy="51.43" r=".61"/>
      </g>
      <g>
        <circle class="st7" cx="213.9" cy="51.16" r=".61"/>
        <circle class="st7" cx="215.66" cy="52.84" r=".49"/>
        <circle class="st7" cx="216.39" cy="50.55" r=".61"/>
      </g>
      <g>
        <circle class="st7" cx="220.83" cy="50.04" r=".61"/>
        <circle class="st7" cx="222.58" cy="51.72" r=".49"/>
        <circle class="st7" cx="223.31" cy="49.43" r=".61"/>
      </g>
      <g>
        <circle class="st7" cx="227.5" cy="48.9" r=".61"/>
        <circle class="st7" cx="229.26" cy="50.58" r=".49"/>
        <circle class="st7" cx="229.99" cy="48.29" r=".61"/>
      </g>
    </g>
    <g>
      <g>
        <path class="st3" d="M158.17,80.75c-.17.13-.17.46-.03.9.04.14-.1.26-.23.19-1.06-.58-1.89-.81-2.09-.53-.3.41.88,1.76,2.62,3.02,1.62,1.17,3.16,1.85,3.61,1.62.02,0,.04-.02.05-.03.4-.31-.16-1.71-1.24-3.13-1.09-1.43-2.29-2.33-2.69-2.03Z"/>
        <path class="st3" d="M167.05,82.44c-.11-.19-.45-.23-.91-.14-.14.03-.25-.14-.17-.26.69-.99,1-1.8.74-2.04-.38-.35-1.87.66-3.32,2.25-1.35,1.48-2.19,2.94-1.99,3.42,0,.02.01.04.03.06.27.44,1.75.07,3.3-.84,1.55-.91,2.59-2,2.32-2.45Z"/>
        <path class="st3" d="M165.8,76.28c-.11-.19-.45-.23-.91-.14-.14.03-.25-.14-.17-.26.69-.99,1-1.8.74-2.04-.38-.35-1.87.66-3.32,2.25-1.35,1.48-2.19,2.94-1.99,3.42,0,.02.01.04.03.06.27.44,1.75.07,3.3-.84,1.55-.91,2.59-2,2.32-2.45Z"/>
        <path class="st3" d="M164.73,69.72c-.11-.19-.45-.23-.91-.14-.14.03-.25-.14-.17-.26.69-.99,1-1.8.74-2.04-.38-.35-1.87.66-3.32,2.25-1.35,1.48-2.19,2.94-1.99,3.42,0,.02.01.04.03.06.27.44,1.75.07,3.3-.84,1.55-.91,2.59-2,2.32-2.45Z"/>
        <path class="st3" d="M165.08,64c-.11-.19-.45-.23-.91-.14-.14.03-.25-.14-.17-.26.69-.99,1-1.8.74-2.04-.38-.35-1.87.66-3.32,2.25-1.35,1.48-2.19,2.94-1.99,3.42,0,.02.01.04.03.06.27.44,1.75.07,3.3-.84,1.55-.91,2.59-2,2.32-2.45Z"/>
        <path class="st3" d="M165.39,58.56c-.11-.19-.45-.23-.91-.14-.14.03-.25-.14-.17-.26.69-.99,1-1.8.74-2.04-.38-.35-1.87.66-3.32,2.25-1.35,1.48-2.19,2.94-1.99,3.42,0,.02.01.04.03.06.27.44,1.75.07,3.3-.84,1.55-.91,2.59-2,2.32-2.45Z"/>
        <path class="st3" d="M166.64,53.35c-.11-.19-.45-.23-.91-.14-.14.03-.25-.14-.17-.26.69-.99,1-1.8.74-2.04-.38-.35-1.87.66-3.32,2.25-1.35,1.48-2.19,2.94-1.99,3.42,0,.02.01.04.03.06.27.44,1.75.07,3.3-.84,1.55-.91,2.59-2,2.32-2.45Z"/>
        <path class="st3" d="M168.59,49.64c-.08-.21-.4-.31-.87-.31-.15,0-.22-.18-.12-.28.86-.85,1.32-1.58,1.11-1.86-.31-.42-1.96.29-3.68,1.58-1.6,1.2-2.7,2.48-2.6,2.99,0,.02,0,.04.01.06.18.49,1.7.39,3.4-.21,1.69-.6,2.92-1.48,2.74-1.97Z"/>
        <path class="st3" d="M170.99,46.06c-.03-.22-.32-.38-.78-.48-.14-.03-.18-.22-.06-.3,1.02-.65,1.62-1.27,1.47-1.59-.22-.47-1.98-.12-3.93.79-1.81.84-3.15,1.87-3.16,2.39,0,.02,0,.04,0,.06.08.51,1.59.73,3.37.49,1.78-.24,3.16-.85,3.08-1.36Z"/>
        <path class="st3" d="M172.96,42.89c0-.22-.25-.43-.69-.61-.13-.05-.14-.25,0-.31,1.11-.47,1.82-.97,1.72-1.32-.14-.5-1.93-.46-4.01.1-1.93.52-3.43,1.3-3.52,1.81,0,.02,0,.04,0,.06-.01.52,1.44,1,3.23,1.07,1.8.07,3.26-.29,3.27-.81Z"/>
        <path class="st3" d="M176.17,38.58c0-.22-.25-.43-.69-.61-.13-.05-.14-.25,0-.31,1.11-.47,1.82-.97,1.72-1.32-.14-.5-1.93-.46-4.01.1-1.93.52-3.43,1.3-3.52,1.81,0,.02,0,.04,0,.06-.01.52,1.44,1,3.23,1.07,1.8.07,3.26-.29,3.27-.81Z"/>
        <path class="st3" d="M180.4,33.7c0-.22-.25-.43-.69-.61-.13-.05-.14-.25,0-.31,1.11-.47,1.82-.97,1.72-1.32-.14-.5-1.93-.46-4.01.1-1.93.52-3.43,1.3-3.52,1.81,0,.02,0,.04,0,.06-.01.52,1.44,1,3.23,1.07,1.8.07,3.26-.29,3.27-.81Z"/>
        <path class="st3" d="M184.09,29.99c0-.22-.25-.43-.69-.61-.13-.05-.14-.25,0-.31,1.11-.47,1.82-.97,1.72-1.32-.14-.5-1.93-.46-4.01.1-1.93.52-3.43,1.3-3.52,1.81,0,.02,0,.04,0,.06-.01.52,1.44,1,3.23,1.07,1.8.07,3.26-.29,3.27-.81Z"/>
        <path class="st3" d="M156.65,74.55c-.17.13-.17.46-.03.9.04.14-.1.26-.23.19-1.06-.58-1.89-.81-2.09-.53-.3.41.88,1.76,2.62,3.02,1.62,1.17,3.16,1.85,3.61,1.62.02,0,.04-.02.05-.03.4-.31-.16-1.71-1.24-3.13-1.09-1.43-2.29-2.33-2.69-2.03Z"/>
        <path class="st3" d="M155.7,68.14c-.17.13-.17.46-.03.9.04.14-.1.26-.23.19-1.06-.58-1.89-.81-2.09-.53-.3.41.88,1.76,2.62,3.02,1.62,1.17,3.16,1.85,3.61,1.62.02,0,.04-.02.05-.03.4-.31-.16-1.71-1.24-3.13-1.09-1.43-2.29-2.33-2.69-2.03Z"/>
        <path class="st3" d="M155.65,62.25c-.17.13-.17.46-.03.9.04.14-.1.26-.23.19-1.06-.58-1.89-.81-2.09-.53-.3.41.88,1.76,2.62,3.02,1.62,1.17,3.16,1.85,3.61,1.62.02,0,.04-.02.05-.03.4-.31-.16-1.71-1.24-3.13-1.09-1.43-2.29-2.33-2.69-2.03Z"/>
        <path class="st3" d="M156.49,56.46c-.18.11-.21.44-.11.89.03.14-.13.24-.25.17-1-.67-1.81-.98-2.04-.72-.33.38.71,1.83,2.33,3.25,1.51,1.32,2.98,2.13,3.45,1.94.02,0,.04-.01.06-.03.43-.27,0-1.72-.95-3.23-.95-1.52-2.07-2.53-2.5-2.27Z"/>
        <path class="st3" d="M157.62,51.1c-.18.11-.21.44-.11.89.03.14-.13.24-.25.17-1-.67-1.81-.98-2.04-.72-.33.38.71,1.83,2.33,3.25,1.51,1.32,2.98,2.13,3.45,1.94.02,0,.04-.01.06-.03.43-.27,0-1.72-.95-3.23-.95-1.52-2.07-2.53-2.5-2.27Z"/>
        <path class="st3" d="M159.62,45.96c-.2.09-.27.41-.23.87.01.14-.16.22-.27.13-.9-.81-1.65-1.23-1.91-1-.38.33.44,1.92,1.84,3.55,1.3,1.52,2.64,2.54,3.13,2.41.02,0,.04,0,.06-.02.46-.2.25-1.7-.48-3.34-.72-1.64-1.68-2.8-2.15-2.6Z"/>
        <path class="st3" d="M162.05,41.29c-.2.09-.27.41-.23.87.01.14-.16.22-.27.13-.9-.81-1.65-1.23-1.91-1-.38.33.44,1.92,1.84,3.55,1.3,1.52,2.64,2.54,3.13,2.41.02,0,.04,0,.06-.02.46-.2.25-1.7-.48-3.34-.72-1.64-1.68-2.8-2.15-2.6Z"/>
        <path class="st3" d="M164.79,36.73c-.2.07-.3.38-.3.85,0,.14-.18.21-.28.11-.83-.87-1.55-1.35-1.83-1.14-.41.3.3,1.95,1.57,3.68,1.18,1.61,2.44,2.73,2.94,2.64.02,0,.04,0,.06-.01.47-.17.37-1.67-.23-3.36-.6-1.69-1.47-2.92-1.94-2.76Z"/>
        <path class="st3" d="M167.87,32.27c-.2.07-.3.38-.3.85,0,.14-.18.21-.28.11-.83-.87-1.55-1.35-1.83-1.14-.41.3.3,1.95,1.57,3.68,1.18,1.61,2.44,2.73,2.94,2.64.02,0,.04,0,.06-.01.47-.17.37-1.67-.23-3.36-.6-1.69-1.47-2.92-1.94-2.76Z"/>
        <path class="st3" d="M172.22,27.21c-.21.05-.33.35-.38.82-.01.14-.2.19-.29.08-.75-.94-1.42-1.48-1.72-1.31-.43.26.12,1.96,1.23,3.81,1.03,1.71,2.18,2.94,2.69,2.9.02,0,.04,0,.06,0,.49-.12.53-1.63.08-3.37-.44-1.74-1.2-3.05-1.68-2.92Z"/>
        <path class="st3" d="M176.06,23.38c-.21.05-.33.35-.38.82-.01.14-.2.19-.29.08-.75-.94-1.42-1.48-1.72-1.31-.43.26.12,1.96,1.23,3.81,1.03,1.71,2.18,2.94,2.69,2.9.02,0,.04,0,.06,0,.49-.12.53-1.63.08-3.37-.44-1.74-1.2-3.05-1.68-2.92Z"/>
      </g>
      <g>
        <path class="st4" d="M158.85,78.22c-.16.11-.17.39-.07.79.03.12-.1.22-.21.15-.9-.56-1.62-.81-1.81-.57-.28.34.68,1.59,2.15,2.79,1.36,1.11,2.68,1.79,3.09,1.6.02,0,.03-.01.05-.02.37-.25-.05-1.51-.93-2.82-.88-1.31-1.89-2.17-2.26-1.92Z"/>
        <path class="st4" d="M166.57,80.17c-.09-.17-.38-.22-.79-.17-.13.02-.21-.13-.13-.23.65-.84.97-1.53.76-1.75-.32-.33-1.68.48-3.03,1.8-1.26,1.23-2.07,2.47-1.92,2.91,0,.02.01.04.02.05.22.4,1.53.15,2.94-.57,1.41-.72,2.38-1.63,2.16-2.03Z"/>
        <path class="st4" d="M165.78,74.69c-.09-.17-.38-.22-.79-.17-.13.02-.21-.13-.13-.23.65-.84.97-1.53.76-1.75-.32-.33-1.68.48-3.03,1.8-1.26,1.23-2.07,2.47-1.92,2.91,0,.02.01.04.02.05.22.4,1.53.15,2.94-.57,1.41-.72,2.38-1.63,2.16-2.03Z"/>
        <path class="st4" d="M165.18,68.87c-.09-.17-.38-.22-.79-.17-.13.02-.21-.13-.13-.23.65-.84.97-1.53.76-1.75-.32-.33-1.68.48-3.03,1.8-1.26,1.23-2.07,2.47-1.92,2.91,0,.02.01.04.02.05.22.4,1.53.15,2.94-.57,1.41-.72,2.38-1.63,2.16-2.03Z"/>
        <path class="st4" d="M165.77,63.87c-.09-.17-.38-.22-.79-.17-.13.02-.21-.13-.13-.23.65-.84.97-1.53.76-1.75-.32-.33-1.68.48-3.03,1.8-1.26,1.23-2.07,2.47-1.92,2.91,0,.02.01.04.02.05.22.4,1.53.15,2.94-.57,1.41-.72,2.38-1.63,2.16-2.03Z"/>
        <path class="st4" d="M166.33,59.1c-.09-.17-.38-.22-.79-.17-.13.02-.21-.13-.13-.23.65-.84.97-1.53.76-1.75-.32-.33-1.68.48-3.03,1.8-1.26,1.23-2.07,2.47-1.92,2.91,0,.02.01.04.02.05.22.4,1.53.15,2.94-.57,1.41-.72,2.38-1.63,2.16-2.03Z"/>
        <path class="st4" d="M167.69,54.58c-.09-.17-.38-.22-.79-.17-.13.02-.21-.13-.13-.23.65-.84.97-1.53.76-1.75-.32-.33-1.68.48-3.03,1.8-1.26,1.23-2.07,2.47-1.92,2.91,0,.02.01.04.02.05.22.4,1.53.15,2.94-.57,1.41-.72,2.38-1.63,2.16-2.03Z"/>
        <path class="st4" d="M169.59,51.43c-.06-.18-.33-.29-.75-.32-.13,0-.18-.17-.09-.25.8-.7,1.24-1.32,1.07-1.58-.25-.38-1.74.16-3.32,1.2-1.47.97-2.5,2.04-2.43,2.49,0,.02,0,.04,0,.06.14.44,1.48.43,3-.01,1.52-.44,2.64-1.15,2.51-1.59Z"/>
        <path class="st4" d="M171.88,48.4c-.02-.19-.27-.35-.66-.46-.12-.03-.14-.21-.03-.27.93-.52,1.49-1.04,1.37-1.33-.17-.43-1.73-.2-3.49.49-1.64.65-2.87,1.48-2.89,1.94,0,.02,0,.04,0,.06.04.45,1.36.73,2.93.61,1.58-.12,2.82-.59,2.78-1.04Z"/>
        <path class="st4" d="M173.77,45.72c.02-.19-.2-.39-.57-.57-.12-.05-.11-.23.01-.27,1-.35,1.64-.76,1.58-1.07-.09-.45-1.67-.5-3.53-.11-1.72.36-3.08.97-3.18,1.41,0,.02-.01.04-.01.06-.04.46,1.21.95,2.79,1.1,1.57.15,2.88-.09,2.92-.55Z"/>
        <path class="st4" d="M176.81,42.1c.02-.19-.2-.39-.57-.57-.12-.05-.11-.23.01-.27,1-.35,1.64-.76,1.58-1.07-.09-.45-1.67-.5-3.53-.11-1.72.36-3.08.97-3.18,1.41,0,.02-.01.04-.01.06-.04.46,1.21.95,2.79,1.1,1.57.15,2.88-.09,2.92-.55Z"/>
        <path class="st4" d="M180.78,38.02c.02-.19-.2-.39-.57-.57-.12-.05-.11-.23.01-.27,1-.35,1.64-.76,1.58-1.07-.09-.45-1.67-.5-3.53-.11-1.72.36-3.08.97-3.18,1.41,0,.02-.01.04-.01.06-.04.46,1.21.95,2.79,1.1,1.57.15,2.88-.09,2.92-.55Z"/>
        <path class="st4" d="M184.21,34.95c.02-.19-.2-.39-.57-.57-.12-.05-.11-.23.01-.27,1-.35,1.64-.76,1.58-1.07-.09-.45-1.67-.5-3.53-.11-1.72.36-3.08.97-3.18,1.41,0,.02-.01.04-.01.06-.04.46,1.21.95,2.79,1.1,1.57.15,2.88-.09,2.92-.55Z"/>
        <path class="st4" d="M157.83,72.7c-.16.11-.17.39-.07.79.03.12-.1.22-.21.15-.9-.56-1.62-.81-1.81-.57-.28.34.68,1.59,2.15,2.79,1.36,1.11,2.68,1.79,3.09,1.6.02,0,.03-.01.05-.02.37-.25-.05-1.51-.93-2.82-.88-1.31-1.89-2.17-2.26-1.92Z"/>
        <path class="st4" d="M157.32,67.03c-.16.11-.17.39-.07.79.03.12-.1.22-.21.15-.9-.56-1.62-.81-1.81-.57-.28.34.68,1.59,2.15,2.79,1.36,1.11,2.68,1.79,3.09,1.6.02,0,.03-.01.05-.02.37-.25-.05-1.51-.93-2.82-.88-1.31-1.89-2.17-2.26-1.92Z"/>
        <path class="st4" d="M157.58,61.84c-.16.11-.17.39-.07.79.03.12-.1.22-.21.15-.9-.56-1.62-.81-1.81-.57-.28.34.68,1.59,2.15,2.79,1.36,1.11,2.68,1.79,3.09,1.6.02,0,.03-.01.05-.02.37-.25-.05-1.51-.93-2.82-.88-1.31-1.89-2.17-2.26-1.92Z"/>
        <path class="st4" d="M158.61,56.8c-.16.09-.21.38-.14.78.02.12-.12.21-.23.13-.85-.64-1.54-.95-1.75-.74-.31.32.53,1.65,1.89,2.97,1.26,1.23,2.51,2.03,2.93,1.88.02,0,.04-.01.05-.02.39-.21.09-1.51-.67-2.89-.76-1.38-1.69-2.33-2.08-2.12Z"/>
        <path class="st4" d="M159.88,52.15c-.16.09-.21.38-.14.78.02.12-.12.21-.23.13-.85-.64-1.54-.95-1.75-.74-.31.32.53,1.65,1.89,2.97,1.26,1.23,2.51,2.03,2.93,1.88.02,0,.04-.01.05-.02.39-.21.09-1.51-.67-2.89-.76-1.38-1.69-2.33-2.08-2.12Z"/>
        <path class="st4" d="M161.9,47.74c-.18.07-.26.34-.25.75,0,.13-.15.19-.24.1-.75-.75-1.39-1.16-1.63-.98-.35.27.29,1.71,1.44,3.21,1.07,1.4,2.19,2.37,2.63,2.28.02,0,.04,0,.05-.01.42-.16.3-1.48-.25-2.96-.55-1.48-1.34-2.55-1.75-2.39Z"/>
        <path class="st4" d="M164.27,43.76c-.18.07-.26.34-.25.75,0,.13-.15.19-.24.1-.75-.75-1.39-1.16-1.63-.98-.35.27.29,1.71,1.44,3.21,1.07,1.4,2.19,2.37,2.63,2.28.02,0,.04,0,.05-.01.42-.16.3-1.48-.25-2.96-.55-1.48-1.34-2.55-1.75-2.39Z"/>
        <path class="st4" d="M166.91,39.89c-.18.05-.28.32-.31.73,0,.13-.17.18-.25.08-.69-.81-1.3-1.26-1.55-1.1-.37.24.16,1.72,1.19,3.31.96,1.48,2.01,2.52,2.45,2.47.02,0,.04,0,.05,0,.43-.12.41-1.45-.03-2.97-.44-1.52-1.14-2.64-1.57-2.52Z"/>
        <path class="st4" d="M169.85,36.13c-.18.05-.28.32-.31.73,0,.13-.17.18-.25.08-.69-.81-1.3-1.26-1.55-1.1-.37.24.16,1.72,1.19,3.31.96,1.48,2.01,2.52,2.45,2.47.02,0,.04,0,.05,0,.43-.12.41-1.45-.03-2.97-.44-1.52-1.14-2.64-1.57-2.52Z"/>
        <path class="st4" d="M173.92,31.91c-.18.04-.31.29-.37.7-.02.12-.18.16-.25.06-.61-.87-1.18-1.38-1.44-1.24-.39.21,0,1.73.89,3.41.82,1.56,1.77,2.7,2.21,2.68.02,0,.04,0,.06,0,.44-.08.54-1.41.24-2.96-.3-1.55-.9-2.74-1.33-2.65Z"/>
        <path class="st4" d="M177.49,28.74c-.18.04-.31.29-.37.7-.02.12-.18.16-.25.06-.61-.87-1.18-1.38-1.44-1.24-.39.21,0,1.73.89,3.41.82,1.56,1.77,2.7,2.21,2.68.02,0,.04,0,.06,0,.44-.08.54-1.41.24-2.96-.3-1.55-.9-2.74-1.33-2.65Z"/>
      </g>
      <g>
        <circle class="st7" cx="161.03" cy="84.02" r=".48"/>
        <circle class="st7" cx="162.94" cy="84.09" r=".39"/>
        <circle class="st7" cx="162.16" cy="82.36" r=".48"/>
      </g>
      <g>
        <circle class="st7" cx="159.76" cy="77.86" r=".48"/>
        <circle class="st7" cx="161.67" cy="77.92" r=".39"/>
        <circle class="st7" cx="160.9" cy="76.2" r=".48"/>
      </g>
      <g>
        <circle class="st7" cx="159.13" cy="72.18" r=".48"/>
        <circle class="st7" cx="161.04" cy="72.24" r=".39"/>
        <circle class="st7" cx="160.27" cy="70.51" r=".48"/>
      </g>
      <g>
        <circle class="st7" cx="159.46" cy="66.46" r=".48"/>
        <circle class="st7" cx="161.37" cy="66.52" r=".39"/>
        <circle class="st7" cx="160.6" cy="64.8" r=".48"/>
      </g>
      <g>
        <circle class="st7" cx="160.52" cy="61.64" r=".48"/>
        <circle class="st7" cx="162.43" cy="61.7" r=".39"/>
        <circle class="st7" cx="161.66" cy="59.98" r=".48"/>
      </g>
      <g>
        <circle class="st7" cx="162.1" cy="57.15" r=".48"/>
        <circle class="st7" cx="164.01" cy="57.21" r=".39"/>
        <circle class="st7" cx="163.23" cy="55.49" r=".48"/>
      </g>
      <g>
        <circle class="st7" cx="163.22" cy="53.02" r=".48"/>
        <circle class="st7" cx="165.13" cy="53.08" r=".39"/>
        <circle class="st7" cx="164.35" cy="51.36" r=".48"/>
      </g>
      <g>
        <circle class="st7" cx="165.42" cy="49" r=".48"/>
        <circle class="st7" cx="167.34" cy="49.07" r=".39"/>
        <circle class="st7" cx="166.56" cy="47.34" r=".48"/>
      </g>
      <g>
        <circle class="st7" cx="167.93" cy="44.75" r=".48"/>
        <circle class="st7" cx="169.84" cy="44.82" r=".39"/>
        <circle class="st7" cx="169.07" cy="43.09" r=".48"/>
      </g>
      <g>
        <circle class="st7" cx="171.52" cy="40.61" r=".48"/>
        <circle class="st7" cx="173.43" cy="40.68" r=".39"/>
        <circle class="st7" cx="172.66" cy="38.95" r=".48"/>
      </g>
      <g>
        <circle class="st7" cx="174.99" cy="36.32" r=".48"/>
        <circle class="st7" cx="176.9" cy="36.39" r=".39"/>
        <circle class="st7" cx="176.13" cy="34.66" r=".48"/>
      </g>
      <g>
        <circle class="st7" cx="178.31" cy="32.15" r=".48"/>
        <circle class="st7" cx="180.22" cy="32.22" r=".39"/>
        <circle class="st7" cx="179.44" cy="30.49" r=".48"/>
      </g>
    </g>
  </g>
  <g>
    <path class="st6" d="M77.29,111.88c-1.13.13-2.26-.27-3.04-1.11-10.82-11.6-29.15-32.85-36.28-51.02-6.26-15.95-13.53-10.45-15.04-9.11-.05.04-.1.08-.16.12-1.68,1.14-8.88,6.87,5.64,16.49,16.36,10.85,33.3,33.17,42.41,46.21.66.94.82,2.14.44,3.23-1.95,5.66-3.36,16.67,8.82,27.37,8.99,7.89,15.64,10.22,19.97,10.63,4.1.39,7.79-2.6,8.27-6.69.51-4.32-.38-11.32-6.21-21.76-7.87-14.08-18.86-15.07-24.82-14.37Z"/>
    <g>
      <path class="st17" d="M61.02,63.83h0c2-3.17,1.04-7.37-2.13-9.36l-1.81-1.14,1.14-1.81c2-3.17,1.04-7.37-2.13-9.36h0c-3.17-2-7.37-1.04-9.36,2.13l-8.36,13.3h0s0,0,0,0l13.3,8.36c3.17,2,7.37,1.04,9.36-2.13Z"/>
      <g>
        <path class="st0" d="M62.96,39.56h0c-1.44-4.75-6.45-7.43-11.2-5.99l-2.71.82-.82-2.71c-1.44-4.75-6.45-7.43-11.2-5.99h0c-4.75,1.44-7.43,6.45-5.99,11.2l6.02,19.9h0s0,0,0,0l19.9-6.02c4.75-1.44,7.43-6.45,5.99-11.2Z"/>
        <path class="st11" d="M44.37,30.14h0c-1.74-.78-3.78,0-4.56,1.74l-.44.99-.99-.44c-1.74-.78-3.78,0-4.56,1.74h0c-.78,1.74,0,3.78,1.74,4.56l7.29,3.26h0s0,0,0,0l3.26-7.29c.78-1.74,0-3.78-1.74-4.56Z"/>
        <path class="st11" d="M56.46,39.16h0c-1.16-.52-2.52,0-3.03,1.16l-.3.66-.66-.3c-1.16-.52-2.52,0-3.03,1.16h0c-.52,1.16,0,2.52,1.16,3.03l4.85,2.17h0s0,0,0,0l2.17-4.85c.52-1.16,0-2.52-1.16-3.03Z"/>
      </g>
      <rect class="st15" x="35.23" y="43.04" width="5.3" height="27.45" rx="2.39" ry="2.39" transform="translate(-27.26 36.44) rotate(-38.95)"/>
      <g>
        <rect class="st15" x="28.94" y="43.89" width=".62" height="8.02" transform="translate(-26.55 41.9) rotate(-52.45)"/>
        <circle class="st15" cx="25.46" cy="44.95" r="1.09"/>
      </g>
      <g>
        <rect class="st15" x="31.05" y="42.08" width=".62" height="8.02" transform="translate(-17.23 18.77) rotate(-26.42)"/>
        <circle class="st15" cx="29.25" cy="41.77" r="1.09"/>
      </g>
      <circle class="st8" cx="30.81" cy="48.84" r=".94"/>
      <g>
        <circle cx="29.69" cy="48.75" r=".78"/>
        <circle class="st12" cx="29.37" cy="48.67" r=".39"/>
      </g>
    </g>
  </g>
  <g id="_ดอกใหญ่" data-name="ดอกใหญ่">
    <path class="st12" d="M104.64,79.16l-2.48.06,2.45-.42c1.77-.3,2.88-2.08,2.38-3.8s-2.38-2.63-4.04-1.94l-2.29.95,2.13-1.28c1.54-.92,1.93-2.97.85-4.4-1.09-1.43-3.17-1.59-4.47-.35l-1.8,1.71,1.53-1.96c1.1-1.41.73-3.47-.8-4.41-1.53-.94-3.53-.34-4.29,1.28l-1.06,2.25.71-2.38c.52-1.72-.58-3.5-2.34-3.82-1.76-.32-3.41.96-3.54,2.75l-.17,2.48-.19-2.48c-.14-1.79-1.8-3.06-3.56-2.72-1.76.34-2.84,2.13-2.31,3.84l.73,2.37-1.07-2.24c-.78-1.62-2.78-2.2-4.3-1.25h0c-1.52.95-1.88,3.01-.76,4.42l1.54,1.95-1.81-1.7c-1.31-1.23-3.39-1.04-4.46.39h0c-1.07,1.43-.66,3.48.88,4.39l2.14,1.26-2.3-.93c-1.66-.67-3.54.25-4.02,1.98h0c-.48,1.73.64,3.49,2.41,3.78l2.45.4-2.48-.04c-1.79-.03-3.21,1.51-3.04,3.3.17,1.78,1.86,3.02,3.61,2.65l2.43-.51-2.33.86c-1.68.62-2.45,2.57-1.64,4.17h0c.81,1.6,2.82,2.15,4.33,1.17l2.08-1.35-1.86,1.64c-1.34,1.19-1.35,3.28-.02,4.48,1.33,1.2,3.41.98,4.46-.47l1.45-2.01-1.14,2.21c-.82,1.59-.08,3.55,1.6,4.19s3.53-.32,3.98-2.05l.62-2.4-.27,2.47c-.19,1.78,1.21,3.33,3,3.33,1.79,0,3.18-1.57,2.97-3.35l-.29-2.47.64,2.4c.47,1.73,2.33,2.67,4,2.02,1.67-.65,2.4-2.61,1.56-4.2l-1.16-2.2,1.47,2c1.06,1.45,3.14,1.65,4.46.44h0c1.32-1.21,1.29-3.3-.06-4.48l-1.87-1.63,2.09,1.34c1.51.97,3.52.4,4.32-1.2.79-1.61.01-3.55-1.67-4.16l-2.34-.84,2.43.49c1.76.36,3.43-.9,3.59-2.68.16-1.79-1.27-3.31-3.06-3.27Z"/>
    <g>
      <g id="_x3C_Radial_Repeat_x3E_18" data-name="_x3C_Radial_Repeat_x3E_">
        <path class="st5" d="M87.66,83.76c.15,0,.26.22.25.49l-.24,9.11c0,.26-.13.48-.28.47s-.26-.22-.25-.49l.24-9.11c0-.26.13-.48.28-.47Z"/>
        <circle class="st5" cx="87.52" cy="94.91" r=".43"/>
      </g>
      <g id="_x3C_Radial_Repeat_x3E_19" data-name="_x3C_Radial_Repeat_x3E_">
        <path class="st5" d="M86.63,83.66c.14.05.17.3.07.54l-3.35,8.48c-.1.25-.29.4-.42.35s-.17-.3-.07-.54l3.35-8.48c.1-.25.29-.4.42-.35Z"/>
        <circle class="st5" cx="82.68" cy="94.08" r=".43"/>
      </g>
      <g id="_x3C_Radial_Repeat_x3E_20" data-name="_x3C_Radial_Repeat_x3E_">
        <path class="st5" d="M85.69,83.2c.11.1.06.34-.12.54l-6.04,6.83c-.18.2-.41.28-.52.18s-.06-.34.12-.54l6.04-6.83c.18-.2.41-.28.52-.18Z"/>
        <circle class="st5" cx="78.41" cy="91.65" r=".43"/>
      </g>
      <g id="_x3C_Radial_Repeat_x3E_21" data-name="_x3C_Radial_Repeat_x3E_">
        <path class="st5" d="M84.96,82.46c.07.13-.06.34-.29.46l-8.01,4.35c-.23.13-.48.12-.55,0s.06-.34.29-.46l8.01-4.35c.23-.13.48-.12.55,0Z"/>
        <circle class="st5" cx="75.23" cy="87.91" r=".43"/>
      </g>
      <g id="_x3C_Radial_Repeat_x3E_22" data-name="_x3C_Radial_Repeat_x3E_">
        <path class="st5" d="M84.53,81.5c.02.15-.17.29-.44.33l-9.02,1.34c-.26.04-.49-.05-.51-.19s.17-.29.44-.33l9.02-1.34c.26-.04.49.05.51.19Z"/>
        <circle class="st5" cx="73.52" cy="83.3" r=".43"/>
      </g>
      <g id="_x3C_Radial_Repeat_x3E_23" data-name="_x3C_Radial_Repeat_x3E_">
        <path class="st5" d="M84.45,80.46c-.03.14-.26.22-.52.16l-8.93-1.82c-.26-.05-.45-.21-.42-.36s.26-.22.52-.16l8.93,1.82c.26.05.45.21.42.36Z"/>
        <circle class="st5" cx="73.49" cy="78.39" r=".43"/>
      </g>
      <g id="_x3C_Radial_Repeat_x3E_24" data-name="_x3C_Radial_Repeat_x3E_">
        <path class="st5" d="M84.73,79.46c-.08.13-.32.11-.55-.02l-7.77-4.77c-.23-.14-.35-.35-.27-.48s.32-.11.55.02l7.77,4.77c.23.14.35.35.27.48Z"/>
        <path class="st5" d="M75.58,73.76c0,.24-.19.43-.43.43s-.43-.19-.43-.43.19-.43.43-.43.43.19.43.43Z"/>
      </g>
      <g id="_x3C_Radial_Repeat_x3E_25" data-name="_x3C_Radial_Repeat_x3E_">
        <path class="st5" d="M85.34,78.61c-.12.09-.34,0-.51-.21l-5.67-7.14c-.16-.21-.21-.45-.09-.54s.34,0,.51.21l5.67,7.14c.16.21.21.45.09.54Z"/>
        <circle class="st5" cx="78.28" cy="69.98" r=".43"/>
      </g>
      <g id="_x3C_Radial_Repeat_x3E_26" data-name="_x3C_Radial_Repeat_x3E_">
        <path class="st5" d="M86.21,78.02c-.14.05-.32-.12-.4-.37l-2.89-8.65c-.08-.25-.04-.49.1-.54s.32.12.4.37l2.89,8.65c.08.25.04.49-.1.54Z"/>
        <circle class="st5" cx="82.53" cy="67.5" r=".43"/>
      </g>
      <g id="_x3C_Radial_Repeat_x3E_27" data-name="_x3C_Radial_Repeat_x3E_">
        <path class="st5" d="M87.22,77.77c-.15,0-.26-.22-.25-.49l.24-9.11c0-.26.13-.48.28-.47s.26.22.25.49l-.24,9.11c0,.26-.13.48-.28.47Z"/>
        <circle class="st5" cx="87.36" cy="66.62" r=".43"/>
      </g>
      <g id="_x3C_Radial_Repeat_x3E_28" data-name="_x3C_Radial_Repeat_x3E_">
        <path class="st5" d="M88.25,77.87c-.14-.05-.17-.3-.07-.54l3.35-8.48c.1-.25.29-.4.42-.35s.17.3.07.54l-3.35,8.48c-.1.25-.29.4-.42.35Z"/>
        <circle class="st5" cx="92.2" cy="67.44" r=".43"/>
      </g>
      <g id="_x3C_Radial_Repeat_x3E_29" data-name="_x3C_Radial_Repeat_x3E_">
        <path class="st5" d="M89.19,78.32c-.11-.1-.06-.34.12-.54l6.04-6.83c.18-.2.41-.28.52-.18s.06.34-.12.54l-6.04,6.83c-.18.2-.41.28-.52.18Z"/>
        <circle class="st5" cx="96.47" cy="69.87" r=".43"/>
      </g>
      <g id="_x3C_Radial_Repeat_x3E_30" data-name="_x3C_Radial_Repeat_x3E_">
        <path class="st5" d="M89.92,79.07c-.07-.13.06-.34.29-.46l8.01-4.35c.23-.13.48-.12.55,0s-.06.34-.29.46l-8.01,4.35c-.23.13-.48.12-.55,0Z"/>
        <circle class="st5" cx="99.65" cy="73.62" r=".43"/>
      </g>
      <g id="_x3C_Radial_Repeat_x3E_31" data-name="_x3C_Radial_Repeat_x3E_">
        <path class="st5" d="M90.35,80.02c-.02-.15.17-.29.44-.33l9.02-1.34c.26-.04.49.05.51.19s-.17.29-.44.33l-9.02,1.34c-.26.04-.49-.05-.51-.19Z"/>
        <circle class="st5" cx="101.36" cy="78.23" r=".43"/>
      </g>
      <g id="_x3C_Radial_Repeat_x3E_32" data-name="_x3C_Radial_Repeat_x3E_">
        <path class="st5" d="M90.43,81.06c.03-.14.26-.22.52-.16l8.93,1.82c.26.05.45.21.42.36s-.26.22-.52.16l-8.93-1.82c-.26-.05-.45-.21-.42-.36Z"/>
        <circle class="st5" cx="101.39" cy="83.14" r=".43"/>
      </g>
      <g id="_x3C_Radial_Repeat_x3E_33" data-name="_x3C_Radial_Repeat_x3E_">
        <path class="st5" d="M90.15,82.07c.08-.13.32-.11.55.02l7.77,4.77c.23.14.35.35.27.48s-.32.11-.55-.02l-7.77-4.77c-.23-.14-.35-.35-.27-.48Z"/>
        <circle class="st5" cx="99.73" cy="87.77" r=".43"/>
      </g>
      <g id="_x3C_Radial_Repeat_x3E_34" data-name="_x3C_Radial_Repeat_x3E_">
        <path class="st5" d="M89.54,82.91c.12-.09.34,0,.51.21l5.67,7.14c.16.21.21.45.09.54s-.34,0-.51-.21l-5.67-7.14c-.16-.21-.21-.45-.09-.54Z"/>
        <circle class="st5" cx="96.6" cy="91.55" r=".43"/>
      </g>
      <g id="_x3C_Radial_Repeat_x3E_35" data-name="_x3C_Radial_Repeat_x3E_">
        <path class="st5" d="M88.68,83.5c.14-.05.32.12.4.37l2.89,8.65c.08.25.04.49-.1.54s-.32-.12-.4-.37l-2.89-8.65c-.08-.25-.04-.49.1-.54Z"/>
        <circle class="st5" cx="92.36" cy="94.03" r=".43"/>
      </g>
    </g>
    <circle class="st14" cx="87.44" cy="80.76" r="4.7"/>
  </g>
  <path id="_น้ำ" data-name="น้ำ" class="st1" d="M132.52,172.46h-26.58c-29.61,0-55.63-19.64-63.74-48.12l-11.62-40.78h177.3l-11.62,40.78c-8.11,28.48-34.13,48.12-63.74,48.12Z"/>
  <g id="_ดอกเล็ก" data-name="ดอกเล็ก" class="st13">
    <g id="_ดอกใหญ่1" data-name="ดอกใหญ่">
      <path class="st12" d="M109.24,100.25l-1.18.03,1.17-.2c.84-.14,1.37-.99,1.14-1.81s-1.14-1.25-1.93-.93l-1.09.45,1.02-.61c.73-.44.92-1.42.4-2.1-.52-.68-1.51-.76-2.13-.17l-.86.82.73-.93c.53-.67.35-1.66-.38-2.1-.73-.45-1.68-.16-2.05.61l-.5,1.07.34-1.13c.25-.82-.27-1.67-1.12-1.82-.84-.15-1.63.46-1.69,1.31l-.08,1.18-.09-1.18c-.07-.85-.86-1.46-1.7-1.3-.84.16-1.35,1.02-1.1,1.83l.35,1.13-.51-1.07c-.37-.77-1.33-1.05-2.05-.6h0c-.73.45-.9,1.44-.36,2.11l.74.93-.86-.81c-.62-.59-1.62-.5-2.13.19h0c-.51.68-.32,1.66.42,2.1l1.02.6-1.1-.44c-.79-.32-1.69.12-1.92.94h0c-.23.82.31,1.66,1.15,1.8l1.17.19-1.18-.02c-.86-.01-1.53.72-1.45,1.57.08.85.89,1.44,1.72,1.27l1.16-.24-1.11.41c-.8.3-1.17,1.23-.78,1.99h0c.38.76,1.35,1.02,2.06.56l.99-.65-.89.78c-.64.57-.65,1.56-.01,2.14.63.57,1.63.47,2.13-.23l.69-.96-.54,1.05c-.39.76-.04,1.69.76,2s1.69-.15,1.9-.98l.3-1.15-.13,1.18c-.09.85.58,1.59,1.43,1.59.86,0,1.52-.75,1.42-1.6l-.14-1.18.31,1.14c.22.83,1.11,1.28,1.91.96.8-.31,1.14-1.25.75-2l-.55-1.05.7.96c.51.69,1.5.79,2.13.21h0c.63-.58.62-1.58-.03-2.14l-.89-.78,1,.64c.72.46,1.68.19,2.06-.57.38-.77,0-1.69-.8-1.98l-1.11-.4,1.16.23c.84.17,1.64-.43,1.71-1.28.08-.85-.61-1.58-1.46-1.56Z"/>
      <g>
        <g id="_x3C_Radial_Repeat_x3E_36" data-name="_x3C_Radial_Repeat_x3E_">
          <path class="st5" d="M101.14,102.44c.07,0,.12.11.12.23l-.12,4.35c0,.13-.06.23-.13.23s-.12-.11-.12-.23l.12-4.35c0-.13.06-.23.13-.23Z"/>
          <circle class="st5" cx="101.07" cy="107.76" r=".2"/>
        </g>
        <g id="_x3C_Radial_Repeat_x3E_37" data-name="_x3C_Radial_Repeat_x3E_">
          <path class="st5" d="M100.64,102.39c.07.03.08.14.03.26l-1.6,4.05c-.05.12-.14.19-.2.17s-.08-.14-.03-.26l1.6-4.05c.05-.12.14-.19.2-.17Z"/>
          <circle class="st5" cx="98.76" cy="107.37" r=".2"/>
        </g>
        <g id="_x3C_Radial_Repeat_x3E_38" data-name="_x3C_Radial_Repeat_x3E_">
          <path class="st5" d="M100.2,102.18c.05.05.03.16-.06.26l-2.88,3.26c-.08.09-.19.13-.25.09s-.03-.16.06-.26l2.88-3.26c.08-.09.19-.13.25-.09Z"/>
          <circle class="st5" cx="96.72" cy="106.21" r=".2"/>
        </g>
        <g id="_x3C_Radial_Repeat_x3E_39" data-name="_x3C_Radial_Repeat_x3E_">
          <path class="st5" d="M99.85,101.82c.03.06-.03.16-.14.22l-3.82,2.07c-.11.06-.23.06-.26,0s.03-.16.14-.22l3.82-2.07c.11-.06.23-.06.26,0Z"/>
          <circle class="st5" cx="95.21" cy="104.42" r=".2"/>
        </g>
        <g id="_x3C_Radial_Repeat_x3E_40" data-name="_x3C_Radial_Repeat_x3E_">
          <path class="st5" d="M99.64,101.37c.01.07-.08.14-.21.16l-4.3.64c-.13.02-.23-.02-.25-.09s.08-.14.21-.16l4.3-.64c.13-.02.23.02.25.09Z"/>
          <circle class="st5" cx="94.39" cy="102.22" r=".2"/>
        </g>
        <g id="_x3C_Radial_Repeat_x3E_41" data-name="_x3C_Radial_Repeat_x3E_">
          <path class="st5" d="M99.61,100.87c-.01.07-.13.1-.25.08l-4.26-.87c-.12-.03-.21-.1-.2-.17s.13-.1.25-.08l4.26.87c.12.03.21.1.2.17Z"/>
          <circle class="st5" cx="94.38" cy="99.88" r=".2"/>
        </g>
        <g id="_x3C_Radial_Repeat_x3E_42" data-name="_x3C_Radial_Repeat_x3E_">
          <path class="st5" d="M99.74,100.39c-.04.06-.15.05-.26-.01l-3.71-2.27c-.11-.07-.17-.17-.13-.23s.15-.05.26.01l3.71,2.27c.11.07.17.17.13.23Z"/>
          <circle class="st5" cx="95.17" cy="97.67" r=".2"/>
        </g>
        <g id="_x3C_Radial_Repeat_x3E_43" data-name="_x3C_Radial_Repeat_x3E_">
          <path class="st5" d="M100.03,99.99c-.05.04-.16,0-.24-.1l-2.71-3.41c-.08-.1-.1-.21-.04-.26s.16,0,.24.1l2.71,3.41c.08.1.1.21.04.26Z"/>
          <circle class="st5" cx="96.66" cy="95.87" r=".2"/>
        </g>
        <g id="_x3C_Radial_Repeat_x3E_44" data-name="_x3C_Radial_Repeat_x3E_">
          <path class="st5" d="M100.44,99.71c-.07.02-.15-.06-.19-.18l-1.38-4.13c-.04-.12-.02-.24.05-.26s.15.06.19.18l1.38,4.13c.04.12.02.24-.05.26Z"/>
          <circle class="st5" cx="98.69" cy="94.68" r=".2"/>
        </g>
        <g id="_x3C_Radial_Repeat_x3E_45" data-name="_x3C_Radial_Repeat_x3E_">
          <path class="st5" d="M100.93,99.58c-.07,0-.12-.11-.12-.23l.12-4.35c0-.13.06-.23.13-.23s.12.11.12.23l-.12,4.35c0,.13-.06.23-.13.23Z"/>
          <circle class="st5" cx="100.99" cy="94.26" r=".2"/>
        </g>
        <g id="_x3C_Radial_Repeat_x3E_46" data-name="_x3C_Radial_Repeat_x3E_">
          <path class="st5" d="M101.42,99.63c-.07-.03-.08-.14-.03-.26l1.6-4.05c.05-.12.14-.19.2-.17s.08.14.03.26l-1.6,4.05c-.05.12-.14.19-.2.17Z"/>
          <circle class="st5" cx="103.31" cy="94.66" r=".2"/>
        </g>
        <g id="_x3C_Radial_Repeat_x3E_47" data-name="_x3C_Radial_Repeat_x3E_">
          <path class="st5" d="M101.87,99.85c-.05-.05-.03-.16.06-.26l2.88-3.26c.08-.09.19-.13.25-.09s.03.16-.06.26l-2.88,3.26c-.08.09-.19.13-.25.09Z"/>
          <circle class="st5" cx="105.34" cy="95.82" r=".2"/>
        </g>
        <g id="_x3C_Radial_Repeat_x3E_48" data-name="_x3C_Radial_Repeat_x3E_">
          <path class="st5" d="M102.22,100.21c-.03-.06.03-.16.14-.22l3.82-2.07c.11-.06.23-.06.26,0s-.03.16-.14.22l-3.82,2.07c-.11.06-.23.06-.26,0Z"/>
          <circle class="st5" cx="106.86" cy="97.61" r=".2"/>
        </g>
        <g id="_x3C_Radial_Repeat_x3E_49" data-name="_x3C_Radial_Repeat_x3E_">
          <path class="st5" d="M102.42,100.66c-.01-.07.08-.14.21-.16l4.3-.64c.13-.02.23.02.25.09s-.08.14-.21.16l-4.3.64c-.13.02-.23-.02-.25-.09Z"/>
          <circle class="st5" cx="107.67" cy="99.8" r=".2"/>
        </g>
        <g id="_x3C_Radial_Repeat_x3E_50" data-name="_x3C_Radial_Repeat_x3E_">
          <path class="st5" d="M102.46,101.16c.01-.07.13-.1.25-.08l4.26.87c.12.03.21.1.2.17s-.13.1-.25.08l-4.26-.87c-.12-.03-.21-.1-.2-.17Z"/>
          <circle class="st5" cx="107.69" cy="102.15" r=".2"/>
        </g>
        <g id="_x3C_Radial_Repeat_x3E_51" data-name="_x3C_Radial_Repeat_x3E_">
          <path class="st5" d="M102.32,101.64c.04-.06.15-.05.26.01l3.71,2.27c.11.07.17.17.13.23s-.15.05-.26-.01l-3.71-2.27c-.11-.07-.17-.17-.13-.23Z"/>
          <circle class="st5" cx="106.9" cy="104.36" r=".2"/>
        </g>
        <g id="_x3C_Radial_Repeat_x3E_52" data-name="_x3C_Radial_Repeat_x3E_">
          <path class="st5" d="M102.03,102.04c.05-.04.16,0,.24.1l2.71,3.41c.08.1.1.21.04.26s-.16,0-.24-.1l-2.71-3.41c-.08-.1-.1-.21-.04-.26Z"/>
          <circle class="st5" cx="105.4" cy="106.16" r=".2"/>
        </g>
        <g id="_x3C_Radial_Repeat_x3E_53" data-name="_x3C_Radial_Repeat_x3E_">
          <path class="st5" d="M101.62,102.32c.07-.02.15.06.19.18l1.38,4.13c.04.12.02.24-.05.26s-.15-.06-.19-.18l-1.38-4.13c-.04-.12-.02-.24.05-.26Z"/>
          <circle class="st5" cx="103.38" cy="107.34" r=".2"/>
        </g>
      </g>
      <circle class="st14" cx="101.03" cy="101.01" r="2.24"/>
    </g>
    <g id="_ดอกใหญ่2" data-name="ดอกใหญ่">
      <path class="st12" d="M80.34,133.8l-1.18.03,1.17-.2c.84-.14,1.37-.99,1.14-1.81s-1.14-1.25-1.93-.93l-1.09.45,1.02-.61c.73-.44.92-1.42.4-2.1-.52-.68-1.51-.76-2.13-.17l-.86.82.73-.93c.53-.67.35-1.66-.38-2.1-.73-.45-1.68-.16-2.05.61l-.5,1.07.34-1.13c.25-.82-.27-1.67-1.12-1.82-.84-.15-1.63.46-1.69,1.31l-.08,1.18-.09-1.18c-.07-.85-.86-1.46-1.7-1.3-.84.16-1.35,1.02-1.1,1.83l.35,1.13-.51-1.07c-.37-.77-1.33-1.05-2.05-.6h0c-.73.45-.9,1.44-.36,2.11l.74.93-.86-.81c-.62-.59-1.62-.5-2.13.19h0c-.51.68-.32,1.66.42,2.1l1.02.6-1.1-.44c-.79-.32-1.69.12-1.92.94h0c-.23.82.31,1.66,1.15,1.8l1.17.19-1.18-.02c-.86-.01-1.53.72-1.45,1.57.08.85.89,1.44,1.72,1.27l1.16-.24-1.11.41c-.8.3-1.17,1.23-.78,1.99h0c.38.76,1.35,1.02,2.06.56l.99-.65-.89.78c-.64.57-.65,1.56-.01,2.14.63.57,1.63.47,2.13-.23l.69-.96-.54,1.05c-.39.76-.04,1.69.76,2s1.69-.15,1.9-.98l.3-1.15-.13,1.18c-.09.85.58,1.59,1.43,1.59.86,0,1.52-.75,1.42-1.6l-.14-1.18.31,1.14c.22.83,1.11,1.28,1.91.96.8-.31,1.14-1.25.75-2l-.55-1.05.7.96c.51.69,1.5.79,2.13.21h0c.63-.58.62-1.58-.03-2.14l-.89-.78,1,.64c.72.46,1.68.19,2.06-.57.38-.77,0-1.69-.8-1.98l-1.11-.4,1.16.23c.84.17,1.64-.43,1.71-1.28.08-.85-.61-1.58-1.46-1.56Z"/>
      <g>
        <g id="_x3C_Radial_Repeat_x3E_54" data-name="_x3C_Radial_Repeat_x3E_">
          <path class="st5" d="M72.24,135.99c.07,0,.12.11.12.23l-.12,4.35c0,.13-.06.23-.13.23s-.12-.11-.12-.23l.12-4.35c0-.13.06-.23.13-.23Z"/>
          <circle class="st5" cx="72.17" cy="141.32" r=".2"/>
        </g>
        <g id="_x3C_Radial_Repeat_x3E_55" data-name="_x3C_Radial_Repeat_x3E_">
          <path class="st5" d="M71.75,135.95c.07.03.08.14.03.26l-1.6,4.05c-.05.12-.14.19-.2.17s-.08-.14-.03-.26l1.6-4.05c.05-.12.14-.19.2-.17Z"/>
          <circle class="st5" cx="69.86" cy="140.92" r=".2"/>
        </g>
        <g id="_x3C_Radial_Repeat_x3E_56" data-name="_x3C_Radial_Repeat_x3E_">
          <path class="st5" d="M71.3,135.73c.05.05.03.16-.06.26l-2.88,3.26c-.08.09-.19.13-.25.09s-.03-.16.06-.26l2.88-3.26c.08-.09.19-.13.25-.09Z"/>
          <circle class="st5" cx="67.83" cy="139.76" r=".2"/>
        </g>
        <g id="_x3C_Radial_Repeat_x3E_57" data-name="_x3C_Radial_Repeat_x3E_">
          <path class="st5" d="M70.95,135.37c.03.06-.03.16-.14.22l-3.82,2.07c-.11.06-.23.06-.26,0s.03-.16.14-.22l3.82-2.07c.11-.06.23-.06.26,0Z"/>
          <circle class="st5" cx="66.31" cy="137.97" r=".2"/>
        </g>
        <g id="_x3C_Radial_Repeat_x3E_58" data-name="_x3C_Radial_Repeat_x3E_">
          <path class="st5" d="M70.75,134.92c.01.07-.08.14-.21.16l-4.3.64c-.13.02-.23-.02-.25-.09s.08-.14.21-.16l4.3-.64c.13-.02.23.02.25.09Z"/>
          <circle class="st5" cx="65.49" cy="135.78" r=".2"/>
        </g>
        <g id="_x3C_Radial_Repeat_x3E_59" data-name="_x3C_Radial_Repeat_x3E_">
          <path class="st5" d="M70.71,134.42c-.01.07-.13.1-.25.08l-4.26-.87c-.12-.03-.21-.1-.2-.17s.13-.1.25-.08l4.26.87c.12.03.21.1.2.17Z"/>
          <circle class="st5" cx="65.48" cy="133.43" r=".2"/>
        </g>
        <g id="_x3C_Radial_Repeat_x3E_60" data-name="_x3C_Radial_Repeat_x3E_">
          <path class="st5" d="M70.84,133.94c-.04.06-.15.05-.26-.01l-3.71-2.27c-.11-.07-.17-.17-.13-.23s.15-.05.26.01l3.71,2.27c.11.07.17.17.13.23Z"/>
          <circle class="st5" cx="66.27" cy="131.22" r=".2"/>
        </g>
        <g id="_x3C_Radial_Repeat_x3E_61" data-name="_x3C_Radial_Repeat_x3E_">
          <path class="st5" d="M71.13,133.54c-.05.04-.16,0-.24-.1l-2.71-3.41c-.08-.1-.1-.21-.04-.26s.16,0,.24.1l2.71,3.41c.08.1.1.21.04.26Z"/>
          <circle class="st5" cx="67.77" cy="129.42" r=".2"/>
        </g>
        <g id="_x3C_Radial_Repeat_x3E_62" data-name="_x3C_Radial_Repeat_x3E_">
          <path class="st5" d="M71.55,133.26c-.07.02-.15-.06-.19-.18l-1.38-4.13c-.04-.12-.02-.24.05-.26s.15.06.19.18l1.38,4.13c.04.12.02.24-.05.26Z"/>
          <circle class="st5" cx="69.79" cy="128.24" r=".2"/>
        </g>
        <g id="_x3C_Radial_Repeat_x3E_63" data-name="_x3C_Radial_Repeat_x3E_">
          <path class="st5" d="M72.03,133.14c-.07,0-.12-.11-.12-.23l.12-4.35c0-.13.06-.23.13-.23s.12.11.12.23l-.12,4.35c0,.13-.06.23-.13.23Z"/>
          <circle class="st5" cx="72.1" cy="127.81" r=".2"/>
        </g>
        <g id="_x3C_Radial_Repeat_x3E_64" data-name="_x3C_Radial_Repeat_x3E_">
          <path class="st5" d="M72.52,133.19c-.07-.03-.08-.14-.03-.26l1.6-4.05c.05-.12.14-.19.2-.17s.08.14.03.26l-1.6,4.05c-.05.12-.14.19-.2.17Z"/>
          <circle class="st5" cx="74.41" cy="128.21" r=".2"/>
        </g>
        <g id="_x3C_Radial_Repeat_x3E_65" data-name="_x3C_Radial_Repeat_x3E_">
          <path class="st5" d="M72.97,133.4c-.05-.05-.03-.16.06-.26l2.88-3.26c.08-.09.19-.13.25-.09s.03.16-.06.26l-2.88,3.26c-.08.09-.19.13-.25.09Z"/>
          <circle class="st5" cx="76.44" cy="129.37" r=".2"/>
        </g>
        <g id="_x3C_Radial_Repeat_x3E_66" data-name="_x3C_Radial_Repeat_x3E_">
          <path class="st5" d="M73.32,133.76c-.03-.06.03-.16.14-.22l3.82-2.07c.11-.06.23-.06.26,0s-.03.16-.14.22l-3.82,2.07c-.11.06-.23.06-.26,0Z"/>
          <circle class="st5" cx="77.96" cy="131.16" r=".2"/>
        </g>
        <g id="_x3C_Radial_Repeat_x3E_67" data-name="_x3C_Radial_Repeat_x3E_">
          <path class="st5" d="M73.52,134.21c-.01-.07.08-.14.21-.16l4.3-.64c.13-.02.23.02.25.09s-.08.14-.21.16l-4.3.64c-.13.02-.23-.02-.25-.09Z"/>
          <circle class="st5" cx="78.78" cy="133.35" r=".2"/>
        </g>
        <g id="_x3C_Radial_Repeat_x3E_68" data-name="_x3C_Radial_Repeat_x3E_">
          <path class="st5" d="M73.56,134.71c.01-.07.13-.1.25-.08l4.26.87c.12.03.21.1.2.17s-.13.1-.25.08l-4.26-.87c-.12-.03-.21-.1-.2-.17Z"/>
          <circle class="st5" cx="78.79" cy="135.7" r=".2"/>
        </g>
        <g id="_x3C_Radial_Repeat_x3E_69" data-name="_x3C_Radial_Repeat_x3E_">
          <path class="st5" d="M73.43,135.19c.04-.06.15-.05.26.01l3.71,2.27c.11.07.17.17.13.23s-.15.05-.26-.01l-3.71-2.27c-.11-.07-.17-.17-.13-.23Z"/>
          <path class="st5" d="M77.8,137.91c0-.11.09-.2.2-.2s.2.09.2.2-.09.2-.2.2-.2-.09-.2-.2Z"/>
        </g>
        <g id="_x3C_Radial_Repeat_x3E_70" data-name="_x3C_Radial_Repeat_x3E_">
          <path class="st5" d="M73.14,135.59c.05-.04.16,0,.24.1l2.71,3.41c.08.1.1.21.04.26s-.16,0-.24-.1l-2.71-3.41c-.08-.1-.1-.21-.04-.26Z"/>
          <circle class="st5" cx="76.5" cy="139.71" r=".2"/>
        </g>
        <g id="_x3C_Radial_Repeat_x3E_71" data-name="_x3C_Radial_Repeat_x3E_">
          <path class="st5" d="M72.72,135.87c.07-.02.15.06.19.18l1.38,4.13c.04.12.02.24-.05.26s-.15-.06-.19-.18l-1.38-4.13c-.04-.12-.02-.24.05-.26Z"/>
          <circle class="st5" cx="74.48" cy="140.89" r=".2"/>
        </g>
      </g>
      <circle class="st14" cx="72.14" cy="134.57" r="2.24"/>
    </g>
    <g id="_ดอกใหญ่3" data-name="ดอกใหญ่">
      <path class="st12" d="M142.06,151.68l-1.18.03,1.17-.2c.84-.14,1.37-.99,1.14-1.81s-1.14-1.25-1.93-.93l-1.09.45,1.02-.61c.73-.44.92-1.42.4-2.1-.52-.68-1.51-.76-2.13-.17l-.86.82.73-.93c.53-.67.35-1.66-.38-2.1-.73-.45-1.68-.16-2.05.61l-.5,1.07.34-1.13c.25-.82-.27-1.67-1.12-1.82-.84-.15-1.63.46-1.69,1.31l-.08,1.18-.09-1.18c-.07-.85-.86-1.46-1.7-1.3-.84.16-1.35,1.02-1.1,1.83l.35,1.13-.51-1.07c-.37-.77-1.33-1.05-2.05-.6h0c-.73.45-.9,1.44-.36,2.11l.74.93-.86-.81c-.62-.59-1.62-.5-2.13.19h0c-.51.68-.32,1.66.42,2.1l1.02.6-1.1-.44c-.79-.32-1.69.12-1.92.94h0c-.23.82.31,1.66,1.15,1.8l1.17.19-1.18-.02c-.86-.01-1.53.72-1.45,1.57.08.85.89,1.44,1.72,1.27l1.16-.24-1.11.41c-.8.3-1.17,1.23-.78,1.99h0c.38.76,1.35,1.02,2.06.56l.99-.65-.89.78c-.64.57-.65,1.56-.01,2.14.63.57,1.63.47,2.13-.23l.69-.96-.54,1.05c-.39.76-.04,1.69.76,2s1.69-.15,1.9-.98l.3-1.15-.13,1.18c-.09.85.58,1.59,1.43,1.59.86,0,1.52-.75,1.42-1.6l-.14-1.18.31,1.14c.22.83,1.11,1.28,1.91.96.8-.31,1.14-1.25.75-2l-.55-1.05.7.96c.51.69,1.5.79,2.13.21h0c.63-.58.62-1.58-.03-2.14l-.89-.78,1,.64c.72.46,1.68.19,2.06-.57.38-.77,0-1.69-.8-1.98l-1.11-.4,1.16.23c.84.17,1.64-.43,1.71-1.28.08-.85-.61-1.58-1.46-1.56Z"/>
      <g>
        <g id="_x3C_Radial_Repeat_x3E_72" data-name="_x3C_Radial_Repeat_x3E_">
          <path class="st5" d="M133.96,153.87c.07,0,.12.11.12.23l-.12,4.35c0,.13-.06.23-.13.23s-.12-.11-.12-.23l.12-4.35c0-.13.06-.23.13-.23Z"/>
          <circle class="st5" cx="133.89" cy="159.19" r=".2"/>
        </g>
        <g id="_x3C_Radial_Repeat_x3E_73" data-name="_x3C_Radial_Repeat_x3E_">
          <path class="st5" d="M133.46,153.82c.07.03.08.14.03.26l-1.6,4.05c-.05.12-.14.19-.2.17s-.08-.14-.03-.26l1.6-4.05c.05-.12.14-.19.2-.17Z"/>
          <circle class="st5" cx="131.58" cy="158.8" r=".2"/>
        </g>
        <g id="_x3C_Radial_Repeat_x3E_74" data-name="_x3C_Radial_Repeat_x3E_">
          <path class="st5" d="M133.01,153.61c.05.05.03.16-.06.26l-2.88,3.26c-.08.09-.19.13-.25.09s-.03-.16.06-.26l2.88-3.26c.08-.09.19-.13.25-.09Z"/>
          <circle class="st5" cx="129.54" cy="157.64" r=".2"/>
        </g>
        <g id="_x3C_Radial_Repeat_x3E_75" data-name="_x3C_Radial_Repeat_x3E_">
          <path class="st5" d="M132.66,153.25c.03.06-.03.16-.14.22l-3.82,2.07c-.11.06-.23.06-.26,0s.03-.16.14-.22l3.82-2.07c.11-.06.23-.06.26,0Z"/>
          <circle class="st5" cx="128.02" cy="155.85" r=".2"/>
        </g>
        <g id="_x3C_Radial_Repeat_x3E_76" data-name="_x3C_Radial_Repeat_x3E_">
          <path class="st5" d="M132.46,152.8c.01.07-.08.14-.21.16l-4.3.64c-.13.02-.23-.02-.25-.09s.08-.14.21-.16l4.3-.64c.13-.02.23.02.25.09Z"/>
          <circle class="st5" cx="127.21" cy="153.65" r=".2"/>
        </g>
        <g id="_x3C_Radial_Repeat_x3E_77" data-name="_x3C_Radial_Repeat_x3E_">
          <path class="st5" d="M132.42,152.3c-.01.07-.13.1-.25.08l-4.26-.87c-.12-.03-.21-.1-.2-.17s.13-.1.25-.08l4.26.87c.12.03.21.1.2.17Z"/>
          <circle class="st5" cx="127.19" cy="151.31" r=".2"/>
        </g>
        <g id="_x3C_Radial_Repeat_x3E_78" data-name="_x3C_Radial_Repeat_x3E_">
          <path class="st5" d="M132.56,151.82c-.04.06-.15.05-.26-.01l-3.71-2.27c-.11-.07-.17-.17-.13-.23s.15-.05.26.01l3.71,2.27c.11.07.17.17.13.23Z"/>
          <circle class="st5" cx="127.98" cy="149.1" r=".2"/>
        </g>
        <g id="_x3C_Radial_Repeat_x3E_79" data-name="_x3C_Radial_Repeat_x3E_">
          <path class="st5" d="M132.85,151.42c-.05.04-.16,0-.24-.1l-2.71-3.41c-.08-.1-.1-.21-.04-.26s.16,0,.24.1l2.71,3.41c.08.1.1.21.04.26Z"/>
          <circle class="st5" cx="129.48" cy="147.3" r=".2"/>
        </g>
        <g id="_x3C_Radial_Repeat_x3E_80" data-name="_x3C_Radial_Repeat_x3E_">
          <path class="st5" d="M133.26,151.14c-.07.02-.15-.06-.19-.18l-1.38-4.13c-.04-.12-.02-.24.05-.26s.15.06.19.18l1.38,4.13c.04.12.02.24-.05.26Z"/>
          <circle class="st5" cx="131.5" cy="146.11" r=".2"/>
        </g>
        <g id="_x3C_Radial_Repeat_x3E_81" data-name="_x3C_Radial_Repeat_x3E_">
          <path class="st5" d="M133.74,151.01c-.07,0-.12-.11-.12-.23l.12-4.35c0-.13.06-.23.13-.23s.12.11.12.23l-.12,4.35c0,.13-.06.23-.13.23Z"/>
          <circle class="st5" cx="133.81" cy="145.69" r=".2"/>
        </g>
        <g id="_x3C_Radial_Repeat_x3E_82" data-name="_x3C_Radial_Repeat_x3E_">
          <path class="st5" d="M134.24,151.06c-.07-.03-.08-.14-.03-.26l1.6-4.05c.05-.12.14-.19.2-.17s.08.14.03.26l-1.6,4.05c-.05.12-.14.19-.2.17Z"/>
          <circle class="st5" cx="136.12" cy="146.09" r=".2"/>
        </g>
        <g id="_x3C_Radial_Repeat_x3E_83" data-name="_x3C_Radial_Repeat_x3E_">
          <path class="st5" d="M134.69,151.28c-.05-.05-.03-.16.06-.26l2.88-3.26c.08-.09.19-.13.25-.09s.03.16-.06.26l-2.88,3.26c-.08.09-.19.13-.25.09Z"/>
          <circle class="st5" cx="138.16" cy="147.25" r=".2"/>
        </g>
        <g id="_x3C_Radial_Repeat_x3E_84" data-name="_x3C_Radial_Repeat_x3E_">
          <path class="st5" d="M135.03,151.64c-.03-.06.03-.16.14-.22l3.82-2.07c.11-.06.23-.06.26,0s-.03.16-.14.22l-3.82,2.07c-.11.06-.23.06-.26,0Z"/>
          <circle class="st5" cx="139.68" cy="149.03" r=".2"/>
        </g>
        <g id="_x3C_Radial_Repeat_x3E_85" data-name="_x3C_Radial_Repeat_x3E_">
          <path class="st5" d="M135.24,152.09c-.01-.07.08-.14.21-.16l4.3-.64c.13-.02.23.02.25.09s-.08.14-.21.16l-4.3.64c-.13.02-.23-.02-.25-.09Z"/>
          <circle class="st5" cx="140.49" cy="151.23" r=".2"/>
        </g>
        <g id="_x3C_Radial_Repeat_x3E_86" data-name="_x3C_Radial_Repeat_x3E_">
          <path class="st5" d="M135.28,152.59c.01-.07.13-.1.25-.08l4.26.87c.12.03.21.1.2.17s-.13.1-.25.08l-4.26-.87c-.12-.03-.21-.1-.2-.17Z"/>
          <circle class="st5" cx="140.5" cy="153.58" r=".2"/>
        </g>
        <g id="_x3C_Radial_Repeat_x3E_87" data-name="_x3C_Radial_Repeat_x3E_">
          <path class="st5" d="M135.14,153.06c.04-.06.15-.05.26.01l3.71,2.27c.11.07.17.17.13.23s-.15.05-.26-.01l-3.71-2.27c-.11-.07-.17-.17-.13-.23Z"/>
          <circle class="st5" cx="139.71" cy="155.78" r=".2"/>
        </g>
        <g id="_x3C_Radial_Repeat_x3E_88" data-name="_x3C_Radial_Repeat_x3E_">
          <path class="st5" d="M134.85,153.47c.05-.04.16,0,.24.1l2.71,3.41c.08.1.1.21.04.26s-.16,0-.24-.1l-2.71-3.41c-.08-.1-.1-.21-.04-.26Z"/>
          <circle class="st5" cx="138.22" cy="157.59" r=".2"/>
        </g>
        <g id="_x3C_Radial_Repeat_x3E_89" data-name="_x3C_Radial_Repeat_x3E_">
          <path class="st5" d="M134.44,153.75c.07-.02.15.06.19.18l1.38,4.13c.04.12.02.24-.05.26s-.15-.06-.19-.18l-1.38-4.13c-.04-.12-.02-.24.05-.26Z"/>
          <circle class="st5" cx="136.19" cy="158.77" r=".2"/>
        </g>
      </g>
      <circle class="st14" cx="133.85" cy="152.44" r="2.24"/>
    </g>
    <g id="_ดอกใหญ่4" data-name="ดอกใหญ่">
      <path class="st12" d="M189.57,107.11l-1.18.03,1.17-.2c.84-.14,1.37-.99,1.14-1.81s-1.14-1.25-1.93-.93l-1.09.45,1.02-.61c.73-.44.92-1.42.4-2.1-.52-.68-1.51-.76-2.13-.17l-.86.82.73-.93c.53-.67.35-1.66-.38-2.1-.73-.45-1.68-.16-2.05.61l-.5,1.07.34-1.13c.25-.82-.27-1.67-1.12-1.82-.84-.15-1.63.46-1.69,1.31l-.08,1.18-.09-1.18c-.07-.85-.86-1.46-1.7-1.3-.84.16-1.35,1.02-1.1,1.83l.35,1.13-.51-1.07c-.37-.77-1.33-1.05-2.05-.6h0c-.73.45-.9,1.44-.36,2.11l.74.93-.86-.81c-.62-.59-1.62-.5-2.13.19h0c-.51.68-.32,1.66.42,2.1l1.02.6-1.1-.44c-.79-.32-1.69.12-1.92.94h0c-.23.82.31,1.66,1.15,1.8l1.17.19-1.18-.02c-.86-.01-1.53.72-1.45,1.57.08.85.89,1.44,1.72,1.27l1.16-.24-1.11.41c-.8.3-1.17,1.23-.78,1.99h0c.38.76,1.35,1.02,2.06.56l.99-.65-.89.78c-.64.57-.65,1.56-.01,2.14.63.57,1.63.47,2.13-.23l.69-.96-.54,1.05c-.39.76-.04,1.69.76,2s1.69-.15,1.9-.98l.3-1.15-.13,1.18c-.09.85.58,1.59,1.43,1.59.86,0,1.52-.75,1.42-1.6l-.14-1.18.31,1.14c.22.83,1.11,1.28,1.91.96.8-.31,1.14-1.25.75-2l-.55-1.05.7.96c.51.69,1.5.79,2.13.21h0c.63-.58.62-1.58-.03-2.14l-.89-.78,1,.64c.72.46,1.68.19,2.06-.57.38-.77,0-1.69-.8-1.98l-1.11-.4,1.16.23c.84.17,1.64-.43,1.71-1.28.08-.85-.61-1.58-1.46-1.56Z"/>
      <g>
        <g id="_x3C_Radial_Repeat_x3E_90" data-name="_x3C_Radial_Repeat_x3E_">
          <path class="st5" d="M181.47,109.3c.07,0,.12.11.12.23l-.12,4.35c0,.13-.06.23-.13.23s-.12-.11-.12-.23l.12-4.35c0-.13.06-.23.13-.23Z"/>
          <circle class="st5" cx="181.4" cy="114.62" r=".2"/>
        </g>
        <g id="_x3C_Radial_Repeat_x3E_91" data-name="_x3C_Radial_Repeat_x3E_">
          <path class="st5" d="M180.97,109.25c.07.03.08.14.03.26l-1.6,4.05c-.05.12-.14.19-.2.17s-.08-.14-.03-.26l1.6-4.05c.05-.12.14-.19.2-.17Z"/>
          <circle class="st5" cx="179.09" cy="114.23" r=".2"/>
        </g>
        <g id="_x3C_Radial_Repeat_x3E_92" data-name="_x3C_Radial_Repeat_x3E_">
          <path class="st5" d="M180.52,109.03c.05.05.03.16-.06.26l-2.88,3.26c-.08.09-.19.13-.25.09s-.03-.16.06-.26l2.88-3.26c.08-.09.19-.13.25-.09Z"/>
          <circle class="st5" cx="177.05" cy="113.07" r=".2"/>
        </g>
        <g id="_x3C_Radial_Repeat_x3E_93" data-name="_x3C_Radial_Repeat_x3E_">
          <path class="st5" d="M180.17,108.68c.03.06-.03.16-.14.22l-3.82,2.07c-.11.06-.23.06-.26,0s.03-.16.14-.22l3.82-2.07c.11-.06.23-.06.26,0Z"/>
          <circle class="st5" cx="175.53" cy="111.28" r=".2"/>
        </g>
        <g id="_x3C_Radial_Repeat_x3E_94" data-name="_x3C_Radial_Repeat_x3E_">
          <path class="st5" d="M179.97,108.22c.01.07-.08.14-.21.16l-4.3.64c-.13.02-.23-.02-.25-.09s.08-.14.21-.16l4.3-.64c.13-.02.23.02.25.09Z"/>
          <circle class="st5" cx="174.72" cy="109.08" r=".2"/>
        </g>
        <g id="_x3C_Radial_Repeat_x3E_95" data-name="_x3C_Radial_Repeat_x3E_">
          <path class="st5" d="M179.93,107.73c-.01.07-.13.1-.25.08l-4.26-.87c-.12-.03-.21-.1-.2-.17s.13-.1.25-.08l4.26.87c.12.03.21.1.2.17Z"/>
          <circle class="st5" cx="174.7" cy="106.74" r=".2"/>
        </g>
        <g id="_x3C_Radial_Repeat_x3E_96" data-name="_x3C_Radial_Repeat_x3E_">
          <path class="st5" d="M180.07,107.25c-.04.06-.15.05-.26-.01l-3.71-2.27c-.11-.07-.17-.17-.13-.23s.15-.05.26.01l3.71,2.27c.11.07.17.17.13.23Z"/>
          <circle class="st5" cx="175.49" cy="104.53" r=".2"/>
        </g>
        <g id="_x3C_Radial_Repeat_x3E_97" data-name="_x3C_Radial_Repeat_x3E_">
          <path class="st5" d="M180.36,106.84c-.05.04-.16,0-.24-.1l-2.71-3.41c-.08-.1-.1-.21-.04-.26s.16,0,.24.1l2.71,3.41c.08.1.1.21.04.26Z"/>
          <circle class="st5" cx="176.99" cy="102.73" r=".2"/>
        </g>
        <g id="_x3C_Radial_Repeat_x3E_98" data-name="_x3C_Radial_Repeat_x3E_">
          <path class="st5" d="M180.77,106.56c-.07.02-.15-.06-.19-.18l-1.38-4.13c-.04-.12-.02-.24.05-.26s.15.06.19.18l1.38,4.13c.04.12.02.24-.05.26Z"/>
          <circle class="st5" cx="179.01" cy="101.54" r=".2"/>
        </g>
        <g id="_x3C_Radial_Repeat_x3E_99" data-name="_x3C_Radial_Repeat_x3E_">
          <path class="st5" d="M181.25,106.44c-.07,0-.12-.11-.12-.23l.12-4.35c0-.13.06-.23.13-.23s.12.11.12.23l-.12,4.35c0,.13-.06.23-.13.23Z"/>
          <circle class="st5" cx="181.32" cy="101.12" r=".2"/>
        </g>
        <g id="_x3C_Radial_Repeat_x3E_100" data-name="_x3C_Radial_Repeat_x3E_">
          <path class="st5" d="M181.75,106.49c-.07-.03-.08-.14-.03-.26l1.6-4.05c.05-.12.14-.19.2-.17s.08.14.03.26l-1.6,4.05c-.05.12-.14.19-.2.17Z"/>
          <circle class="st5" cx="183.63" cy="101.52" r=".2"/>
        </g>
        <g id="_x3C_Radial_Repeat_x3E_101" data-name="_x3C_Radial_Repeat_x3E_">
          <path class="st5" d="M182.2,106.71c-.05-.05-.03-.16.06-.26l2.88-3.26c.08-.09.19-.13.25-.09s.03.16-.06.26l-2.88,3.26c-.08.09-.19.13-.25.09Z"/>
          <circle class="st5" cx="185.67" cy="102.68" r=".2"/>
        </g>
        <g id="_x3C_Radial_Repeat_x3E_102" data-name="_x3C_Radial_Repeat_x3E_">
          <path class="st5" d="M182.54,107.06c-.03-.06.03-.16.14-.22l3.82-2.07c.11-.06.23-.06.26,0s-.03.16-.14.22l-3.82,2.07c-.11.06-.23.06-.26,0Z"/>
          <circle class="st5" cx="187.19" cy="104.46" r=".2"/>
        </g>
        <g id="_x3C_Radial_Repeat_x3E_103" data-name="_x3C_Radial_Repeat_x3E_">
          <path class="st5" d="M182.75,107.52c-.01-.07.08-.14.21-.16l4.3-.64c.13-.02.23.02.25.09s-.08.14-.21.16l-4.3.64c-.13.02-.23-.02-.25-.09Z"/>
          <circle class="st5" cx="188" cy="106.66" r=".2"/>
        </g>
        <g id="_x3C_Radial_Repeat_x3E_104" data-name="_x3C_Radial_Repeat_x3E_">
          <path class="st5" d="M182.79,108.01c.01-.07.13-.1.25-.08l4.26.87c.12.03.21.1.2.17s-.13.1-.25.08l-4.26-.87c-.12-.03-.21-.1-.2-.17Z"/>
          <circle class="st5" cx="188.01" cy="109.01" r=".2"/>
        </g>
        <g id="_x3C_Radial_Repeat_x3E_105" data-name="_x3C_Radial_Repeat_x3E_">
          <path class="st5" d="M182.65,108.49c.04-.06.15-.05.26.01l3.71,2.27c.11.07.17.17.13.23s-.15.05-.26-.01l-3.71-2.27c-.11-.07-.17-.17-.13-.23Z"/>
          <circle class="st5" cx="187.22" cy="111.21" r=".2"/>
        </g>
        <g id="_x3C_Radial_Repeat_x3E_106" data-name="_x3C_Radial_Repeat_x3E_">
          <path class="st5" d="M182.36,108.9c.05-.04.16,0,.24.1l2.71,3.41c.08.1.1.21.04.26s-.16,0-.24-.1l-2.71-3.41c-.08-.1-.1-.21-.04-.26Z"/>
          <circle class="st5" cx="185.73" cy="113.02" r=".2"/>
        </g>
        <g id="_x3C_Radial_Repeat_x3E_107" data-name="_x3C_Radial_Repeat_x3E_">
          <path class="st5" d="M181.95,109.18c.07-.02.15.06.19.18l1.38,4.13c.04.12.02.24-.05.26s-.15-.06-.19-.18l-1.38-4.13c-.04-.12-.02-.24.05-.26Z"/>
          <circle class="st5" cx="183.7" cy="114.2" r=".2"/>
        </g>
      </g>
      <circle class="st14" cx="181.36" cy="107.87" r="2.24"/>
    </g>
  </g>
  <g id="_หน้า" data-name="หน้า">
    <g id="_ปาก" data-name="ปาก">
      <line class="st9" x1="112.86" y1="127.98" x2="118.38" y2="133.5"/>
      <line class="st9" x1="123.89" y1="127.98" x2="118.38" y2="133.5"/>
    </g>
    <g id="_แก้ม" data-name="แก้ม" class="st2">
      <circle id="_ซ้าย" data-name="ซ้าย" class="st4" cx="86.69" cy="125.29" r="10.01"/>
      <circle id="_ขวา" data-name="ขวา" class="st4" cx="151.76" cy="125.93" r="10.01"/>
    </g>
    <g id="_ตา" data-name="ตา">
      <circle id="_ซ้าย1" data-name="ซ้าย" cx="97.37" cy="117.37" r="4.03"/>
      <circle id="_ขวา1" data-name="ขวา" cx="140.87" cy="117.37" r="4.03"/>
      <circle class="st12" cx="97.48" cy="115.57" r="1.8"/>
      <circle class="st12" cx="140.97" cy="115.57" r="1.8"/>
    </g>
  </g>
  <g id="_ถุงชา" data-name="ถุงชา">
    <path class="st15" d="M67.22,108.51l-3.23-2.88c-.51-.45-1.16-.7-1.84-.7s-1.33.25-1.84.7l-3.23,2.88c-.59.52-.93,1.28-.93,2.07v13.38c0,1.53,1.24,2.77,2.77,2.77h6.47c1.53,0,2.77-1.24,2.77-2.77v-13.38c0-.79-.34-1.54-.93-2.07ZM62.15,110.74c-1.08,0-1.96-.88-1.96-1.96s.88-1.96,1.96-1.96,1.96.88,1.96,1.96-.88,1.96-1.96,1.96Z"/>
    <path d="M62.15,108.78c-.27,0-.49-.22-.49-.49v-24.24c0-.27.22-.49.49-.49s.49.22.49.49v24.24c0,.27-.22.49-.49.49Z"/>
  </g>
</svg>