<?xml version="1.0" encoding="UTF-8"?>
<svg id="Layer_39" xmlns="http://www.w3.org/2000/svg" xmlns:xlink="http://www.w3.org/1999/xlink" version="1.1" viewBox="0 0 267.9 284.53">
  <!-- Generator: Adobe Illustrator 30.0.0, SVG Export Plug-In . SVG Version: 2.1.1 Build 123)  -->
  <defs>
    <style>
      .st0 {
        stroke-width: 4.08px;
      }

      .st0, .st1, .st2 {
        fill: none;
        stroke-linecap: round;
        stroke-linejoin: round;
      }

      .st0, .st2 {
        stroke: #000;
      }

      .st3 {
        fill: url(#radial-gradient9);
      }

      .st3, .st4, .st5, .st6, .st7, .st8, .st9, .st10, .st11 {
        stroke-miterlimit: 10;
      }

      .st3, .st4, .st8 {
        stroke: #e821ab;
        stroke-width: .6px;
      }

      .st4 {
        fill: url(#radial-gradient8);
      }

      .st1 {
        stroke: #ffa227;
        stroke-width: 2.61px;
      }

      .st5 {
        fill: url(#radial-gradient5);
      }

      .st5, .st6, .st7 {
        stroke: #e8b921;
        stroke-width: .51px;
      }

      .st6 {
        fill: url(#radial-gradient7);
      }

      .st7 {
        fill: url(#radial-gradient6);
      }

      .st12 {
        fill: url(#linear-gradient1);
        opacity: .9;
      }

      .st13 {
        fill: #c7eaff;
      }

      .st8 {
        fill: url(#radial-gradient10);
      }

      .st14 {
        fill: url(#linear-gradient);
      }

      .st15 {
        fill: #fff255;
      }

      .st16, .st17 {
        fill: #fff;
      }

      .st16, .st18 {
        opacity: .8;
      }

      .st9 {
        fill: url(#radial-gradient12);
      }

      .st9, .st10, .st11 {
        stroke: #1fea93;
        stroke-width: .39px;
      }

      .st10 {
        fill: url(#radial-gradient11);
      }

      .st11 {
        fill: url(#radial-gradient13);
      }

      .st19 {
        fill: url(#radial-gradient);
      }

      .st19, .st20, .st21, .st22, .st23, .st24 {
        opacity: .7;
      }

      .st2 {
        stroke-width: 1.89px;
      }

      .st25 {
        fill: #ffa227;
      }

      .st26 {
        fill: #5497f7;
      }

      .st21 {
        fill: url(#radial-gradient4);
      }

      .st22 {
        fill: url(#radial-gradient2);
      }

      .st23 {
        fill: url(#radial-gradient3);
      }

      .st24 {
        fill: url(#radial-gradient1);
      }
    </style>
    <linearGradient id="linear-gradient" x1="131.46" y1="274.55" x2="131.46" y2="221.19" gradientUnits="userSpaceOnUse">
      <stop offset=".03" stop-color="#fff"/>
      <stop offset=".55" stop-color="#ccfaff"/>
      <stop offset=".92" stop-color="#5497f7"/>
    </linearGradient>
    <linearGradient id="linear-gradient1" x1="132.01" y1="48.4" x2="132.01" y2="240.1" gradientUnits="userSpaceOnUse">
      <stop offset=".03" stop-color="#fff"/>
      <stop offset=".55" stop-color="#ccfaff"/>
      <stop offset=".92" stop-color="#5497f7"/>
    </linearGradient>
    <radialGradient id="radial-gradient" cx="249.22" cy="2124.77" fx="249.22" fy="2124.77" r="30.85" gradientTransform="translate(-149.51 -1944.52)" gradientUnits="userSpaceOnUse">
      <stop offset="0" stop-color="#ccfaff"/>
      <stop offset="1" stop-color="#fff"/>
    </radialGradient>
    <radialGradient id="radial-gradient1" cx="64.84" cy="-344.71" fx="64.84" fy="-344.71" r="30.85" gradientTransform="translate(70.76 472.25)" xlink:href="#radial-gradient"/>
    <radialGradient id="radial-gradient2" cx="-1306.25" cy="-2775.63" fx="-1306.25" fy="-2775.63" r="30.85" gradientTransform="translate(1493.75 2928.56)" xlink:href="#radial-gradient"/>
    <radialGradient id="radial-gradient3" cx="161.24" cy="2783.57" fx="161.24" fy="2783.57" r="19.84" gradientTransform="translate(-.42 -2598.76)" xlink:href="#radial-gradient"/>
    <radialGradient id="radial-gradient4" cx="-922.11" cy="-1986.63" fx="-922.11" fy="-1986.63" r="19.84" gradientTransform="translate(995.99 2129.21)" xlink:href="#radial-gradient"/>
    <radialGradient id="radial-gradient5" cx="-421.18" cy="4878.65" fx="-421.18" fy="4878.65" r="34.75" gradientTransform="translate(-2574.51 -3961.21) rotate(-37.75)" gradientUnits="userSpaceOnUse">
      <stop offset="0" stop-color="#fff"/>
      <stop offset=".86" stop-color="#ff6"/>
    </radialGradient>
    <radialGradient id="radial-gradient6" cx="-431.02" cy="4899.81" fx="-431.02" fy="4899.81" r="7.62" gradientTransform="translate(-2574.51 -3961.21) rotate(-37.75)" gradientUnits="userSpaceOnUse">
      <stop offset="0" stop-color="#fff"/>
      <stop offset="1" stop-color="#efd259"/>
    </radialGradient>
    <radialGradient id="radial-gradient7" cx="-412.35" cy="4899.96" fx="-412.35" fy="4899.96" xlink:href="#radial-gradient6"/>
    <radialGradient id="radial-gradient8" cx="-2275.58" cy="-3550.32" fx="-2275.58" fy="-3550.32" r="40.44" gradientTransform="translate(-304.06 4358.01) rotate(39.18)" gradientUnits="userSpaceOnUse">
      <stop offset="0" stop-color="#fff"/>
      <stop offset=".86" stop-color="#fb66ff"/>
    </radialGradient>
    <radialGradient id="radial-gradient9" cx="-2287.03" cy="-3525.71" fx="-2287.03" fy="-3525.71" r="8.87" gradientTransform="translate(-304.06 4358.01) rotate(39.18)" gradientUnits="userSpaceOnUse">
      <stop offset="0" stop-color="#fff"/>
      <stop offset=".86" stop-color="#ff66d7"/>
    </radialGradient>
    <radialGradient id="radial-gradient10" cx="-2265.29" cy="-3525.53" fx="-2265.29" fy="-3525.53" r="8.87" gradientTransform="translate(-304.06 4358.01) rotate(39.18)" gradientUnits="userSpaceOnUse">
      <stop offset="0" stop-color="#fff"/>
      <stop offset=".86" stop-color="#ff66d7"/>
    </radialGradient>
    <radialGradient id="radial-gradient11" cx="-653.28" cy="-1853.57" fx="-653.28" fy="-1853.57" r="26.6" gradientTransform="translate(165.58 2074.15) rotate(18.76)" gradientUnits="userSpaceOnUse">
      <stop offset="0" stop-color="#fff"/>
      <stop offset=".86" stop-color="#64ffaa"/>
    </radialGradient>
    <radialGradient id="radial-gradient12" cx="-660.82" cy="-1837.38" fx="-660.82" fy="-1837.38" r="5.83" gradientTransform="translate(165.58 2074.15) rotate(18.76)" gradientUnits="userSpaceOnUse">
      <stop offset="0" stop-color="#fff"/>
      <stop offset="1" stop-color="#57f2ba"/>
    </radialGradient>
    <radialGradient id="radial-gradient13" cx="-646.52" cy="-1837.26" fx="-646.52" fy="-1837.26" r="5.83" xlink:href="#radial-gradient12"/>
  </defs>
  <path d="M131.46,261.17c-16.72,0-32.47-1.75-44.35-4.93-13.02-3.49-19.91-8.35-19.91-14.05,0-4.92,4.91-9.1,14.61-12.44,7.24-2.5,17.02-4.41,27.93-5.5-10.79-.81-21.01-3.84-30.45-9.04-10.36-5.7-19.39-13.94-26.1-23.83-6.71-9.88-11.05-21.3-12.54-33.03-1.59-12.52-.02-24.93,4.65-36.91l21.7-55.57h5.01l-1.35-7.05c-5.47,1.96-7.62,3.74-7.8,3.89l-1.57,1.58-1.66-1.5c-2.45-2.09-5.16-3.15-8.03-3.15-3.04,0-5.24,1.2-5.26,1.21l-4.53,2.6.95-5.14c1.62-8.88,5.66-16.27,12.03-21.96,3.86-3.45,7.76-5.5,10.3-6.59l-.38-1.96c-.19-.98.02-1.97.58-2.8.56-.82,1.41-1.38,2.38-1.57.23-.04.47-.07.7-.07,1.79,0,3.33,1.27,3.66,3.03l.31,1.62c.9-.07,1.95-.13,3.09-.13,4.78,0,9.42.86,13.77,2.56,5.94,2.31,11.18,6.13,15.58,11.35l3.36,3.99h-5.22c-.3,0-7.65.19-10.56,8.29l-.76,2.11-2.09-.58c-.12-.02-.86-.16-2.27-.16-1.89,0-4.97.24-9.41,1.27l1.75,9.14h117.41l21.7,55.57c4.69,12.01,6.25,24.45,4.64,37-1.51,11.76-5.87,23.2-12.63,33.09-6.76,9.89-15.83,18.12-26.23,23.8-9.57,5.22-19.93,8.23-30.86,8.96,10.73,1.1,20.32,2.99,27.46,5.46,9.69,3.34,14.61,7.53,14.61,12.44,0,5.71-6.88,10.57-19.91,14.05-11.88,3.18-27.63,4.93-44.35,4.93Z"/>
  <path class="st17" d="M148.35,222.04c51.47,0,86.84-51.77,68.11-99.72l-21.1-54.03h-117.76l-2.57-13.36s.02,0,.03,0c10.48-2.79,15.03-1.67,15.03-1.67,3.55-9.9,12.84-9.89,12.84-9.89-12.12-14.38-27.51-13.45-32.55-12.68l-.74-3.83c-.14-.71-.82-1.17-1.53-1.03-.71.14-1.17.82-1.03,1.53l.76,3.94c-3.81,1.33-19.13,7.85-22.7,27.46,0,0,8.05-4.62,16.06,2.2,0,0,2.84-2.7,11.32-5.3l2.43,12.64h-6.29l-21.1,54.03c-18.68,47.84,16.47,99.47,67.75,99.72v4.16c-26.32,1.9-45.68,8.34-45.68,15.99,0,9.15,27.68,16.56,61.83,16.56s61.83-7.42,61.83-16.56c0-7.65-19.37-14.09-45.68-15.99v-4.16h.74Z"/>
  <g id="_ฐาน" data-name="ฐาน">
    <g>
      <path class="st17" d="M147.61,226.2v-15.2h-32.3v15.2c-26.32,1.9-45.68,8.34-45.68,15.99,0,9.15,27.68,16.56,61.83,16.56s61.83-7.42,61.83-16.56c0-7.65-19.37-14.09-45.68-15.99Z"/>
      <path class="st14" d="M143.74,230.97v-13.35h-24.57v13.35c-19.42,1.23-33.68,5.29-33.68,10.11,0,5.79,20.58,10.49,45.96,10.49s45.96-4.7,45.96-10.49c0-4.82-14.26-8.88-33.68-10.11Z"/>
    </g>
    <g>
      <path class="st13" d="M81.22,235.01c-.27-.37-7.84,2.6-8,6.62-.24,5.82,15.14,10.02,15.18,9.94.03-.08-12.86-3.74-12.97-9.39-.08-3.92,6.05-6.83,5.8-7.18Z"/>
      <path class="st13" d="M175.62,233.08c.06-.17,14.72,2.14,14.91,8,.15,4.75-9.3,8.41-9.39,8.28-.08-.12,8.28-3.72,8-8-.33-5.28-13.59-8.11-13.53-8.28Z"/>
      <g>
        <ellipse class="st13" cx="92.68" cy="252.81" rx=".69" ry="1.79" transform="translate(-175.81 273.27) rotate(-74.23)"/>
        <ellipse class="st13" cx="96.26" cy="253.66" rx=".52" ry=".49" transform="translate(-169.22 197.73) rotate(-57.32)"/>
      </g>
      <g>
        <ellipse class="st13" cx="171.78" cy="232.24" rx=".69" ry="1.79" transform="translate(-85.91 362.78) rotate(-80.38)"/>
        <ellipse class="st13" cx="168.13" cy="231.79" rx=".52" ry=".49" transform="translate(-114.34 278.71) rotate(-63.48)"/>
      </g>
    </g>
  </g>
  <path id="_พื้นหลังน้ำ" data-name="พื้นหลังน้ำ" class="st17" d="M148.35,222.04h-32.67c-51.47,0-86.84-51.77-68.11-99.72l21.1-54.03h126.7l21.1,54.03c18.72,47.95-16.64,99.72-68.11,99.72Z"/>
  <polyline class="st0" points="163.22 175.95 180.17 48.44 227.86 35.53"/>
  <g>
    <line class="st1" x1="68.37" y1="27.09" x2="103.49" y2="210.02"/>
    <circle class="st25" cx="103.49" cy="210.02" r="4.74" transform="translate(-17.62 9.64) rotate(-4.92)"/>
    <g>
      <path class="st25" d="M68.7,31s-19.48,5.3-23.56,27.74c0,0,8.05-4.62,16.06,2.2l7.5-29.94Z"/>
      <path class="st25" d="M68.7,31s19.53-5.09,34.23,12.36c0,0-9.28,0-12.84,9.89l-21.39-22.25Z"/>
      <path class="st15" d="M68.7,31s-11.72,14.11-7.5,29.94c0,0,3.39-3.24,13.87-6.02,10.48-2.79,15.03-1.67,15.03-1.67-4.21-15.83-21.39-22.25-21.39-22.25Z"/>
    </g>
  </g>
  <path id="_น้ำ" data-name="น้ำ" class="st12" d="M148.35,222.04h-32.67c-51.47,0-86.84-51.77-68.11-99.72l21.1-54.03h126.7l21.1,54.03c18.72,47.95-16.64,99.72-68.11,99.72Z"/>
  <g id="_น้ำแข๊ง" data-name="น้ำแข๊ง">
    <rect class="st19" x="79.29" y="160.76" width="40.85" height="39" rx="6.58" ry="6.58" transform="translate(-45.88 34.53) rotate(-16.02)"/>
    <rect class="st24" x="115.17" y="108.03" width="40.85" height="39" rx="6.58" ry="6.58" transform="translate(10.37 -10.19) rotate(4.48)"/>
    <rect class="st22" x="167.07" y="133.43" width="40.85" height="39" rx="6.58" ry="6.58" transform="translate(97.56 -71.69) rotate(28.98)"/>
    <rect class="st23" x="147.69" y="172.28" width="26.27" height="25.07" rx="4.23" ry="4.23" transform="translate(-52.02 63.49) rotate(-19.29)"/>
    <rect class="st21" x="60.74" y="130.05" width="26.27" height="25.07" rx="4.23" ry="4.23" transform="translate(57.63 -17.18) rotate(21.58)"/>
  </g>
  <g class="st20">
    <path class="st5" d="M90.33,142.54l-1.1.84-1.75-2.3c-1.19-1.56-2.66-2.79-4.29-3.65.87-2.03.65-4.46-.78-6.35-2.12-2.79-6.1-3.33-8.89-1.2-2.27,1.73-3.05,4.68-2.12,7.22-.85.39-1.67.88-2.44,1.47l-2.55,1.95c-.75.57-1.41,1.2-2,1.88-2.2-1.56-5.25-1.59-7.51.13-2.79,2.12-3.33,6.1-1.2,8.89,1.41,1.86,3.65,2.71,5.82,2.45.4,1.82,1.19,3.58,2.39,5.16l1.75,2.3-1.02.78c-2.76,2.1-3.3,6.05-1.19,8.82,2.1,2.76,6.05,3.3,8.82,1.19l1.02-.78,2.87,3.76c2.66,3.5,7.66,4.17,11.15,1.51l10.92-8.31c3.5-2.66,4.17-7.66,1.51-11.15l-2.87-3.76,1.1-.84c2.76-2.1,3.3-6.05,1.19-8.82s-6.05-3.3-8.82-1.19Z"/>
    <g>
      <circle class="st7" cx="84.13" cy="177.08" r="7.62"/>
      <circle class="st6" cx="98.99" cy="165.77" r="7.62"/>
    </g>
    <g>
      <circle cx="69.39" cy="151.15" r="2.11"/>
      <path d="M76.1,150.35l.21-.67c.07-.24-.21-.44-.41-.29l-.91.69c-.2.15-.09.48.17.47l.7-.02c.11,0,.21-.08.24-.19Z"/>
      <path d="M78.34,150.4c-.64.49-1.55.4-2.08-.19-.02-.04-.05-.07-.08-.11-.12-.16-.36-.2-.52-.07,0,0,0,0,0,0,0,0,0,0,0,0-.16.12-.2.36-.07.52.03.04.06.07.09.1.42.67.27,1.57-.37,2.06-.16.12-.2.36-.07.52s.36.2.52.07c.64-.48.95-1.24.9-1.98.7.25,1.51.15,2.15-.34.16-.12.2-.36.07-.52s-.36-.2-.52-.07Z"/>
      <circle cx="78.46" cy="144.24" r="2.11"/>
    </g>
    <g id="_เงาใส" data-name="เงาใส">
      <ellipse class="st17" cx="100.37" cy="161.84" rx="2.34" ry="2.33" transform="translate(-81.55 218.17) rotate(-75.4)"/>
      <circle class="st17" cx="99.14" cy="166.57" r="1.09" transform="translate(-87.03 220.52) rotate(-75.4)"/>
      <ellipse class="st17" cx="85.35" cy="173.27" rx="2.34" ry="2.33" transform="translate(-103.84 212.19) rotate(-75.4)"/>
      <circle class="st17" cx="84.13" cy="178" r="1.09" transform="translate(-109.33 214.54) rotate(-75.4)"/>
      <ellipse class="st17" cx="61.33" cy="144.83" rx="1.87" ry="3.74" transform="translate(-94.28 167.68) rotate(-75.4)"/>
      <circle class="st17" cx="60.33" cy="148.68" r="1.09" transform="translate(-98.76 169.59) rotate(-75.4)"/>
      <ellipse class="st17" cx="78.13" cy="132.04" rx="1.87" ry="3.74" transform="translate(-69.34 174.37) rotate(-75.4)"/>
      <circle class="st17" cx="77.13" cy="135.9" r="1.09" transform="translate(-73.82 176.28) rotate(-75.4)"/>
      <circle class="st17" cx="69.28" cy="150.27" r=".64"/>
      <circle class="st17" cx="78.35" cy="143.36" r=".64"/>
    </g>
  </g>
  <g class="st20">
    <path class="st4" d="M191.2,178.08l-1.24-1.03,2.14-2.59c1.46-1.76,2.46-3.75,3.01-5.82,2.53.45,5.23-.43,6.99-2.56,2.6-3.14,2.16-7.79-.98-10.4-2.55-2.12-6.11-2.22-8.75-.5-.67-.86-1.44-1.66-2.31-2.38l-2.88-2.38c-.84-.7-1.73-1.29-2.66-1.78,1.19-2.91.42-6.37-2.13-8.48-3.14-2.6-7.79-2.16-10.4.98-1.73,2.09-2.12,4.86-1.25,7.24-1.96.93-3.75,2.29-5.22,4.07l-2.14,2.59-1.15-.95c-3.11-2.58-7.73-2.15-10.31.97s-2.15,7.73.97,10.31l1.15.95-3.51,4.24c-3.26,3.94-2.72,9.78,1.22,13.04l12.3,10.19c3.94,3.26,9.78,2.72,13.04-1.22l3.51-4.24,1.24,1.03c3.11,2.58,7.73,2.15,10.31-.97s2.15-7.73-.97-10.31Z"/>
    <g>
      <circle class="st3" cx="150.41" cy="180.15" r="8.87"/>
      <circle class="st8" cx="167.15" cy="194.01" r="8.87"/>
    </g>
    <g>
      <circle cx="175.93" cy="156.6" r="2.46"/>
      <path d="M178.6,164l.82.06c.3.02.44-.35.22-.54l-1.03-.85c-.23-.19-.57.03-.49.31l.21.79c.03.13.14.22.28.23Z"/>
      <path d="M179.13,166.56c-.72-.6-.86-1.65-.33-2.41.04-.04.07-.07.11-.11.15-.18.13-.46-.06-.61,0,0,0,0,0,0,0,0,0,0,0,0-.18-.15-.46-.13-.61.06-.03.04-.06.08-.09.12-.65.66-1.7.72-2.43.12-.18-.15-.46-.13-.61.06s-.13.46.06.61c.72.59,1.65.75,2.48.5-.09.86.23,1.75.95,2.34.18.15.46.13.61-.06s.13-.46-.06-.61Z"/>
      <circle cx="186.15" cy="165.07" r="2.46"/>
    </g>
    <g id="_เงาใส1" data-name="เงาใส">
      <ellipse class="st17" cx="171.97" cy="194.54" rx="2.71" ry="2.72" transform="translate(-27.08 361.27) rotate(-88.48)"/>
      <circle class="st17" cx="166.29" cy="194.39" r="1.27" transform="translate(-32.46 355.45) rotate(-88.48)"/>
      <ellipse class="st17" cx="155.05" cy="180.53" rx="2.71" ry="2.72" transform="translate(-29.53 330.72) rotate(-88.48)"/>
      <circle class="st17" cx="149.37" cy="180.38" r="1.27" transform="translate(-34.92 324.91) rotate(-88.48)"/>
      <ellipse class="st17" cx="180.97" cy="145.81" rx="4.35" ry="2.17" transform="translate(30.39 322.84) rotate(-88.48)"/>
      <circle class="st17" cx="176.34" cy="145.69" r="1.27" transform="translate(26.01 318.09) rotate(-88.48)"/>
      <ellipse class="st17" cx="199.89" cy="161.48" rx="4.35" ry="2.17" transform="translate(33.14 357.01) rotate(-88.48)"/>
      <circle class="st17" cx="195.26" cy="161.36" r="1.27" transform="translate(28.76 352.26) rotate(-88.48)"/>
      <circle class="st17" cx="176.9" cy="156.25" r=".74"/>
      <circle class="st17" cx="187.12" cy="164.72" r=".74"/>
    </g>
  </g>
  <g class="st20">
    <path class="st10" d="M155.5,111.23l-1-.35.73-2.08c.5-1.42.65-2.88.52-4.28,1.67-.3,3.13-1.47,3.72-3.18.88-2.53-.45-5.3-2.99-6.18-2.06-.72-4.27.03-5.51,1.7-.61-.37-1.27-.69-1.97-.94l-2.32-.81c-.68-.24-1.36-.4-2.05-.48.06-2.06-1.2-4.02-3.26-4.74-2.53-.88-5.3.45-6.18,2.99-.59,1.69-.19,3.48.89,4.75-.99,1.02-1.78,2.27-2.28,3.71l-.73,2.08-.92-.32c-2.51-.88-5.26.45-6.13,2.96s.45,5.26,2.96,6.13l.92.32-1.19,3.42c-1.11,3.18.57,6.65,3.75,7.76l9.92,3.46c3.18,1.11,6.65-.57,7.76-3.75l1.19-3.42,1,.35c2.51.88,5.26-.45,6.13-2.96s-.45-5.26-2.96-6.13Z"/>
    <g>
      <circle class="st9" cx="130.84" cy="121.86" r="5.83"/>
      <circle class="st11" cx="144.33" cy="126.57" r="5.83"/>
    </g>
    <g>
      <circle cx="141.16" cy="101.5" r="1.62"/>
      <path d="M144.51,105.44l.52-.15c.19-.06.19-.32,0-.38l-.83-.29c-.18-.06-.34.15-.23.31l.31.44c.05.07.14.1.22.08Z"/>
      <path d="M145.42,106.9c-.58-.2-.91-.82-.76-1.41.01-.03.03-.06.04-.09.05-.15-.03-.31-.18-.36,0,0,0,0,0,0,0,0,0,0,0,0-.15-.05-.31.03-.36.18-.01.03-.02.07-.03.1-.25.55-.88.84-1.47.63-.15-.05-.31.03-.36.18s.03.31.18.36c.58.2,1.19.08,1.64-.26.14.55.55,1.03,1.12,1.23.15.05.31-.03.36-.18s-.03-.31-.18-.36Z"/>
      <circle cx="149.4" cy="104.37" r="1.62"/>
    </g>
    <g id="_เงาใส2" data-name="เงาใส">
      <circle class="st17" cx="147.42" cy="125.79" r="1.79" transform="translate(-32.79 54.51) rotate(-18.89)"/>
      <circle class="st17" cx="143.89" cy="127" r=".84" transform="translate(-33.37 53.43) rotate(-18.89)"/>
      <circle class="st17" cx="133.78" cy="121.03" r="1.79" transform="translate(-31.98 49.84) rotate(-18.89)"/>
      <circle class="st17" cx="130.25" cy="122.25" r=".84" transform="translate(-32.57 48.76) rotate(-18.89)"/>
      <ellipse class="st17" cx="141.79" cy="93.69" rx="1.43" ry="2.86" transform="translate(-22.7 50.96) rotate(-18.89)"/>
      <circle class="st17" cx="138.91" cy="94.68" r=".84" transform="translate(-23.17 50.08) rotate(-18.89)"/>
      <ellipse class="st17" cx="157.05" cy="99.01" rx="1.43" ry="2.86" transform="translate(-23.6 56.19) rotate(-18.89)"/>
      <circle class="st17" cx="154.17" cy="100" r=".84" transform="translate(-24.07 55.31) rotate(-18.89)"/>
      <circle class="st17" cx="141.68" cy="101.06" r=".49"/>
      <circle class="st17" cx="149.92" cy="103.93" r=".49"/>
    </g>
  </g>
  <g id="_ฟอง" data-name="ฟอง" class="st18">
    <path class="st16" d="M162.58,108.15c.02,4.26,3.49,7.7,7.74,7.68,4.26-.02,7.7-3.49,7.68-7.74-.02-4.26-3.49-7.69-7.74-7.68-4.26.02-7.69,3.49-7.68,7.74Z"/>
    <path class="st16" d="M118.15,98.05c0,1.43,1.17,2.58,2.6,2.57,1.43,0,2.58-1.17,2.57-2.6,0-1.43-1.17-2.58-2.6-2.57-1.43,0-2.58,1.17-2.57,2.6Z"/>
    <path class="st16" d="M134.91,136.36c0,1.58,1.29,2.85,2.87,2.84,1.58,0,2.85-1.29,2.84-2.87,0-1.58-1.29-2.85-2.87-2.84-1.58,0-2.85,1.29-2.84,2.87Z"/>
    <path class="st16" d="M90.8,141.5c.01,2.73,2.24,4.94,4.97,4.93,2.73-.01,4.94-2.24,4.93-4.97-.01-2.73-2.24-4.94-4.97-4.93-2.73.01-4.94,2.24-4.93,4.97Z"/>
    <path class="st16" d="M82.93,104.64c0,2.13,1.74,3.85,3.87,3.84,2.13,0,3.85-1.74,3.84-3.87,0-2.13-1.74-3.85-3.87-3.84-2.13,0-3.85,1.74-3.84,3.87Z"/>
    <path class="st16" d="M118.49,175.59c0,1.43,1.17,2.58,2.6,2.57,1.43,0,2.58-1.17,2.57-2.6,0-1.43-1.17-2.58-2.6-2.57-1.43,0-2.58,1.17-2.57,2.6Z"/>
    <path class="st16" d="M155.73,157.41c0,1.95,1.6,3.53,3.55,3.52,1.95,0,3.53-1.6,3.52-3.55,0-1.95-1.6-3.53-3.55-3.52-1.95,0-3.53,1.6-3.52,3.55Z"/>
    <path class="st16" d="M143.73,201.91c.02,4.34,3.56,7.85,7.9,7.83s7.85-3.56,7.83-7.9c-.02-4.34-3.56-7.85-7.9-7.83-4.34.02-7.85,3.56-7.83,7.9Z"/>
    <path class="st16" d="M95.91,178.17c0,1.37,1.12,2.47,2.48,2.46,1.37,0,2.47-1.12,2.46-2.48,0-1.37-1.12-2.47-2.48-2.46-1.37,0-2.47,1.12-2.46,2.48Z"/>
    <path class="st16" d="M112.67,118.87c0,1.54,1.26,2.78,2.8,2.78,1.54,0,2.78-1.26,2.78-2.8,0-1.54-1.26-2.78-2.8-2.78-1.54,0-2.78,1.26-2.78,2.8Z"/>
  </g>
  <g>
    <g id="_ปาก" data-name="ปาก">
      <line class="st2" x1="125.15" y1="147.25" x2="130.62" y2="152.71"/>
      <line class="st2" x1="136.08" y1="147.25" x2="130.62" y2="152.71"/>
    </g>
    <g id="_แก้ม" data-name="แก้ม" class="st18">
      <g>
        <g id="_ซ้าย" data-name="ซ้าย">
          <circle class="st26" cx="99.23" cy="144.58" r="9.92"/>
        </g>
        <g id="_ขวา" data-name="ขวา">
          <circle class="st26" cx="163.69" cy="145.21" r="9.92"/>
        </g>
      </g>
    </g>
    <g id="_ตา" data-name="ตา">
      <circle id="_ซ้าย1" data-name="ซ้าย" cx="109.81" cy="136.74" r="3.99"/>
      <circle id="_ขวา1" data-name="ขวา" cx="152.9" cy="136.74" r="3.99"/>
      <circle class="st17" cx="109.91" cy="134.95" r="1.79"/>
      <circle class="st17" cx="153.01" cy="134.95" r="1.79"/>
    </g>
  </g>
</svg>