<?xml version="1.0" encoding="UTF-8"?>
<svg id="Layer_41" xmlns="http://www.w3.org/2000/svg" xmlns:xlink="http://www.w3.org/1999/xlink" version="1.1" viewBox="0 0 243.18 284.53">
  <!-- Generator: Adobe Illustrator 30.0.0, SVG Export Plug-In . SVG Version: 2.1.1 Build 123)  -->
  <defs>
    <style>
      .st0, .st1, .st2 {
        fill: none;
      }

      .st3 {
        mask: url(#mask);
      }

      .st4 {
        fill: url(#linear-gradient2);
      }

      .st5 {
        fill: url(#linear-gradient1);
      }

      .st6 {
        fill: url(#linear-gradient9);
      }

      .st7 {
        fill: url(#linear-gradient3);
      }

      .st8 {
        fill: url(#linear-gradient6);
      }

      .st9 {
        fill: url(#linear-gradient8);
      }

      .st10 {
        fill: url(#linear-gradient7);
      }

      .st11 {
        fill: url(#linear-gradient5);
      }

      .st12 {
        fill: url(#linear-gradient4);
      }

      .st13 {
        fill: url(#linear-gradient10);
      }

      .st1 {
        stroke: #fff;
        stroke-miterlimit: 10;
        stroke-width: 19.52px;
      }

      .st14 {
        fill: #5b1e0a;
      }

      .st15 {
        fill: url(#linear-gradient);
      }

      .st16 {
        mask: url(#mask-2);
      }

      .st17 {
        mask: url(#mask-3);
      }

      .st18 {
        mask: url(#mask-1);
      }

      .st2 {
        stroke: #000;
        stroke-linecap: round;
        stroke-linejoin: round;
        stroke-width: 1.9px;
      }

      .st19 {
        fill: #ecdac1;
      }

      .st20 {
        clip-path: url(#clippath-1);
      }

      .st21 {
        fill: #fff;
      }

      .st22 {
        fill: #fefefe;
      }

      .st23 {
        clip-path: url(#clippath);
      }

      .st24 {
        fill: #963d26;
      }
    </style>
    <linearGradient id="linear-gradient" x1="111.46" y1="6.22" x2="111.46" y2="262.29" gradientUnits="userSpaceOnUse">
      <stop offset="0" stop-color="#5b1e0a"/>
      <stop offset=".57" stop-color="#fff"/>
    </linearGradient>
    <clipPath id="clippath">
      <path id="_น้ำ" data-name="น้ำ" class="st0" d="M48.01,112.92h126.9v133.93c0,5.41-4.39,9.8-9.8,9.8H57.81c-5.41,0-9.8-4.39-9.8-9.8V112.92h0Z"/>
    </clipPath>
    <linearGradient id="linear-gradient1" x1="21.75" y1="184.79" x2="208.31" y2="184.79" gradientUnits="userSpaceOnUse">
      <stop offset=".06" stop-color="#fff"/>
      <stop offset=".26" stop-color="#000"/>
    </linearGradient>
    <mask id="mask" x="48.01" y="112.92" width="126.9" height="143.74" maskUnits="userSpaceOnUse">
      <path id="_น้ำ1" data-name="น้ำ" class="st5" d="M48.01,112.92h126.9v133.93c0,5.41-4.39,9.8-9.8,9.8H57.81c-5.41,0-9.8-4.39-9.8-9.8V112.92h0Z"/>
    </mask>
    <linearGradient id="linear-gradient2" x1="21.75" y1="184.79" x2="208.31" y2="184.79" gradientUnits="userSpaceOnUse">
      <stop offset=".7" stop-color="#000"/>
      <stop offset=".92" stop-color="#fff"/>
    </linearGradient>
    <mask id="mask-1" x="48.01" y="112.92" width="126.9" height="143.74" maskUnits="userSpaceOnUse">
      <path id="_น้ำ3" data-name="น้ำ" class="st4" d="M48.01,112.92h126.9v133.93c0,5.41-4.39,9.8-9.8,9.8H57.81c-5.41,0-9.8-4.39-9.8-9.8V112.92h0Z"/>
    </mask>
    <linearGradient id="linear-gradient3" x1="111.46" y1="89.44" x2="111.46" y2="282.75" gradientUnits="userSpaceOnUse">
      <stop offset=".78" stop-color="#000"/>
      <stop offset=".92" stop-color="#fff"/>
    </linearGradient>
    <mask id="mask-2" x="48.01" y="112.92" width="126.9" height="143.74" maskUnits="userSpaceOnUse">
      <path id="_น้ำ5" data-name="น้ำ" class="st7" d="M48.01,112.92h126.9v133.93c0,5.41-4.39,9.8-9.8,9.8H57.81c-5.41,0-9.8-4.39-9.8-9.8V112.92h0Z"/>
    </mask>
    <linearGradient id="linear-gradient4" x1="111.46" y1="89.44" x2="111.46" y2="282.75" gradientUnits="userSpaceOnUse">
      <stop offset=".07" stop-color="#fff"/>
      <stop offset=".23" stop-color="#000"/>
    </linearGradient>
    <mask id="mask-3" x="48.01" y="112.92" width="126.9" height="143.74" maskUnits="userSpaceOnUse">
      <path id="_น้ำ7" data-name="น้ำ" class="st12" d="M48.01,112.92h126.9v133.93c0,5.41-4.39,9.8-9.8,9.8H57.81c-5.41,0-9.8-4.39-9.8-9.8V112.92h0Z"/>
    </mask>
    <linearGradient id="linear-gradient5" x1="312.28" y1="-99.51" x2="40.63" y2="172.14" gradientUnits="userSpaceOnUse">
      <stop offset=".79" stop-color="#ecdac1"/>
      <stop offset="1" stop-color="#cc9a75"/>
    </linearGradient>
    <clipPath id="clippath-1">
      <path class="st0" d="M103.64,27.88c-.97.02-1.61,1.22-1.23,2.3,1.47,4.17,3.54,13.27-3.94,18.15-9.77,6.38-31.04,11.42-36.38,31.06-.14.52-.5.9-.94,1.01-4.12,1.08-24.28,7.71-19.48,32.65,5.34,27.74,128.15,30.06,138.37-.92,7.62-23.11-9.5-29.75-13.69-29.67-.64.01-1.18-.55-1.28-1.32-.56-4.11-3.93-16.19-24.37-21.98-.41-.12-.76-.47-.91-.95-1.54-4.82-11.03-30.86-36.15-30.32Z"/>
    </clipPath>
    <linearGradient id="linear-gradient6" x1="138.27" y1="96.21" x2="12.45" y2="103.24" gradientUnits="userSpaceOnUse">
      <stop offset=".65" stop-color="#ecdac1"/>
      <stop offset=".96" stop-color="#cc9a75"/>
    </linearGradient>
    <linearGradient id="linear-gradient7" x1="122.87" y1="94.48" x2="194.4" y2="143.12" gradientUnits="userSpaceOnUse">
      <stop offset=".57" stop-color="#ecdac1"/>
      <stop offset=".8" stop-color="#cc9a75"/>
    </linearGradient>
    <linearGradient id="linear-gradient8" x1="112.65" y1="99.42" x2="180.79" y2="124.61" gradientUnits="userSpaceOnUse">
      <stop offset=".54" stop-color="#ecdac1"/>
      <stop offset=".8" stop-color="#cc9a75"/>
    </linearGradient>
    <linearGradient id="linear-gradient9" x1="92.29" y1="45.73" x2="157.93" y2="86.58" gradientUnits="userSpaceOnUse">
      <stop offset=".58" stop-color="#ecdac1"/>
      <stop offset=".8" stop-color="#cc9a75"/>
    </linearGradient>
    <linearGradient id="linear-gradient10" x1="130.33" y1="41.39" x2="69.24" y2="102.48" xlink:href="#linear-gradient5"/>
  </defs>
  <path d="M57.81,259.1c-6.75,0-12.24-5.49-12.24-12.24V110.48h131.78v22.99c27.32,1.22,49.17,23.82,49.17,51.44s-21.85,50.22-49.17,51.44v10.51c0,6.75-5.49,12.24-12.24,12.24H57.81ZM177.35,211.9c13.86-1.19,24.77-12.84,24.77-26.99s-10.91-25.81-24.77-26.99v53.98Z"/>
  <path class="st21" d="M175.03,135.86s-.08,0-.12,0v-22.94H48.01v133.93c0,5.41,4.39,9.8,9.8,9.8h107.29c5.41,0,9.8-4.39,9.8-9.8v-12.9s.08,0,.12,0c27.05,0,49.05-22,49.05-49.05s-22-49.05-49.05-49.05ZM175.03,214.44s-.08,0-.12,0v-59.05s.08,0,.12,0c16.28,0,29.53,13.25,29.53,29.53s-13.25,29.53-29.53,29.53Z"/>
  <circle id="_หูแก้ว" data-name="หูแก้ว" class="st1" cx="175.03" cy="184.91" r="39.29"/>
  <path id="_แก้ว" data-name="แก้ว" class="st15" d="M48.01,112.92h126.9v133.93c0,5.41-4.39,9.8-9.8,9.8H57.81c-5.41,0-9.8-4.39-9.8-9.8V112.92h0Z"/>
  <g id="_ลายแก้ว" data-name="ลายแก้ว">
    <g class="st23">
      <rect class="st14" x="31.66" y="223.22" width="159.6" height="19.77"/>
      <rect class="st14" x="31.66" y="213.83" width="159.6" height="4.88"/>
      <rect class="st14" x="31.66" y="247.51" width="159.6" height="4.88"/>
    </g>
  </g>
  <g id="_ขอบขาว" data-name="ขอบขาว">
    <g class="st3">
      <path id="_น้ำ2" data-name="น้ำ" class="st21" d="M48.01,112.92h126.9v133.93c0,5.41-4.39,9.8-9.8,9.8H57.81c-5.41,0-9.8-4.39-9.8-9.8V112.92h0Z"/>
    </g>
    <g class="st18">
      <path id="_น้ำ4" data-name="น้ำ" class="st21" d="M48.01,112.92h126.9v133.93c0,5.41-4.39,9.8-9.8,9.8H57.81c-5.41,0-9.8-4.39-9.8-9.8V112.92h0Z"/>
    </g>
    <g class="st16">
      <path id="_น้ำ6" data-name="น้ำ" class="st21" d="M48.01,112.92h126.9v133.93c0,5.41-4.39,9.8-9.8,9.8H57.81c-5.41,0-9.8-4.39-9.8-9.8V112.92h0Z"/>
    </g>
    <g class="st17">
      <path id="_น้ำ8" data-name="น้ำ" class="st21" d="M48.01,112.92h126.9v133.93c0,5.41-4.39,9.8-9.8,9.8H57.81c-5.41,0-9.8-4.39-9.8-9.8V112.92h0Z"/>
    </g>
  </g>
  <g id="_หน้า" data-name="หน้า">
    <g id="_ปาก" data-name="ปาก">
      <line class="st2" x1="105.12" y1="182.02" x2="110.61" y2="187.52"/>
      <line class="st2" x1="116.11" y1="182.02" x2="110.61" y2="187.52"/>
    </g>
    <g id="_แก้ม" data-name="แก้ม">
      <circle id="_ซ้าย" data-name="ซ้าย" class="st24" cx="79.04" cy="179.34" r="9.97"/>
      <circle id="_ขวา" data-name="ขวา" class="st24" cx="143.88" cy="179.97" r="9.97"/>
    </g>
    <g id="_ตา" data-name="ตา">
      <circle id="_ซ้าย1" data-name="ซ้าย" cx="89.68" cy="171.45" r="4.02"/>
      <circle id="_ขวา1" data-name="ขวา" cx="133.03" cy="171.45" r="4.02"/>
      <circle class="st21" cx="89.79" cy="169.65" r="1.8"/>
      <circle class="st21" cx="133.13" cy="169.65" r="1.8"/>
    </g>
  </g>
  <path d="M110.19,137.05c-12.54,0-24.82-1.06-35.49-3.08-8.11-1.53-15.03-3.55-20.57-6.01-8.76-3.89-13.76-8.75-14.85-14.45-.83-4.33-.99-8.41-.48-12.14,1.86-13.62,12.06-19.67,17.97-22.06,1.24-.5,2.31-.85,3.12-1.09.26-.9.56-1.8.9-2.69.98-2.57,2.29-5.01,3.88-7.26,6.33-8.93,16.25-13.75,24.23-17.62,3.11-1.51,6.05-2.94,8.24-4.36,5.91-3.86,4.4-11.24,2.97-15.3-.46-1.32-.28-2.78.5-3.91.7-1.01,1.78-1.61,2.97-1.64.28,0,.55,0,.82,0,16.81,0,26.9,11.07,32.4,20.35,2.84,4.79,4.46,9.14,5.15,11.19,8.54,2.51,15.14,6.37,19.62,11.48,3.97,4.53,5.33,8.98,5.8,11.62,1.93.23,4.9,1.15,7.88,3.17,2.65,1.78,6.18,5.05,7.99,10.47,1.82,5.45,1.52,11.9-.88,19.18-1.83,5.56-6.76,10.32-14.63,14.16-6.84,3.33-15.72,5.9-26.4,7.64-7.74,1.26-16.11,2.02-24.88,2.27-2.07.06-4.17.09-6.25.09Z"/>
  <path class="st11" d="M173.89,85.26c-2.88-1.94-5.79-2.76-7.33-2.81-.07,0-.14,0-.21,0-.64.01-1.18-.55-1.28-1.32-.29-2.17-1.37-6.56-5.33-11.07-3.54-4.04-9.39-8.18-19.04-10.91-.04-.01-.08-.03-.11-.04-.36-.15-.66-.47-.8-.91-.55-1.73-2.13-6.19-5.08-11.17-5.28-8.91-14.96-19.5-31.07-19.15-.97.02-1.61,1.22-1.23,2.3,1.47,4.17,3.54,13.27-3.94,18.15-7.92,5.17-23.39,9.46-31.81,21.35-1.42,2.01-2.64,4.24-3.59,6.72-.37.96-.69,1.95-.97,2.98-.06.2-.15.39-.26.54-.18.23-.41.4-.68.47-.73.19-1.96.56-3.47,1.17-5.54,2.24-14.78,7.78-16.47,20.13-.45,3.28-.37,7.04.46,11.35.98,5.1,5.94,9.35,13.45,12.68,5.5,2.44,12.36,4.4,20.03,5.84,12.43,2.35,26.98,3.36,41.22,2.95,8.46-.24,16.82-.98,24.56-2.24,19.85-3.23,35.71-9.85,39.11-20.15,4.95-15.02-.54-23.08-6.15-26.86Z"/>
  <g id="_ครีมใหม่" data-name="ครีมใหม่">
    <path class="st22" d="M103.64,27.88c-.97.02-1.61,1.22-1.23,2.3,1.47,4.17,3.54,13.27-3.94,18.15-9.77,6.38-31.04,11.42-36.38,31.06-.14.52-.5.9-.94,1.01-4.12,1.08-24.28,7.71-19.48,32.65,5.34,27.74,128.15,30.06,138.37-.92,7.62-23.11-9.5-29.75-13.69-29.67-.64.01-1.18-.55-1.28-1.32-.56-4.11-3.93-16.19-24.37-21.98-.41-.12-.76-.47-.91-.95-1.54-4.82-11.03-30.86-36.15-30.32Z"/>
    <g class="st20">
      <path class="st19" d="M59.21,77.92s-9.91,14.33,17.92,14.33c27.83,0,29.35-2.31,29.35-2.31h-19.82l-28.21-16.18.76,4.16Z"/>
      <path class="st8" d="M102.67,80.23s27.21,7.71,39.78-9.46c.79-1.08,2.48-.87,2.98.37,1.95,4.87.97,16.41-38.94,29.95-52.98,17.97-82.91-2.37-83.77-27.34l23.92,61.95s1.52-8.78,1.91-8.78,33.92-4.62,73.57-27.74c39.64-23.11,28-38.55,18.48-37.47-.18.02-16.95,16.5-16.95,16.5l-20.96,2.02Z"/>
      <path class="st10" d="M159.46,95.95s12.96-9.25,9.53,1.39-12.58,27.69-45.36,45.97c-32.78,18.29,68.61-21.93,68.61-21.93l-10.27-44.06-11.46,2.45s16.26,21.26-.23,32.82c-.83.58-1.86-.38-1.35-1.25,3.28-5.62,7.56-17.21-4.9-26.94l-4.57,11.56Z"/>
      <path class="st9" d="M158.32,63.12s8.39,24.96-11.82,37.91-9.91,15.26-94.53,36.52l45.74,4.16s73.95-22.65,68.61-61.95c-5.34-39.29-8-16.64-8-16.64Z"/>
      <path class="st6" d="M112.2,33.08s8.77,10.17,6.1,19.42c-2.09,7.23-10.46,13.04-14.02,15.24-1.94,1.2-3.73,2.73-5.25,4.63-3.13,3.9-5.29,9.58,7.84,10.18,20.2.92,35.83-8.32,33.54-25.43-2.29-17.1-7.24-16.64-7.24-16.64,0,0,8.39,23.58-8.77,33.75-17.15,10.17-16.77-.92-8.39-6.01s8-21.27,4.57-25.89c-3.43-4.62-8.39-9.25-8.39-9.25Z"/>
      <path class="st13" d="M104.95,31.23s6.48,12.48-3.05,20.34c-9.01,7.43-28.24,15.69-29.02,26.34-.08,1.06-.9,1.8-1.74,1.51-2.38-.84-6.06-3.64-3.92-13.05,0,0-14.48,15.26,3.43,22.19,17.92,6.93,47.65,2.77,52.98-2.31,0,0-32.02,6.93-40.79-.92-4.6-4.13-3.95-8.76-2.3-12.23,1.4-2.94,3.61-5.19,6.18-6.54,5.35-2.8,18.12-9.89,20.51-14.98,3.05-6.47,4.96-12.94-2.29-20.34Z"/>
    </g>
  </g>
  <g id="_เกล้ด" data-name="เกล้ด">
    <rect class="st24" x="54.84" y="93.76" width="2.93" height="11.23" transform="translate(-21.7 15.95) rotate(-13.54)"/>
    <rect class="st24" x="87.41" y="114.74" width="2.27" height="7.04" transform="translate(81.22 -29.29) rotate(33.98)"/>
    <rect class="st24" x="114.7" y="89.59" width="1.86" height="8.53" transform="translate(-25.1 45.14) rotate(-19.97)"/>
    <rect class="st24" x="146.11" y="108.16" width="2.93" height="11.23" transform="translate(54.81 -47.84) rotate(22.51)"/>
    <rect class="st24" x="147.33" y="69.61" width="2.93" height="11.23" transform="translate(-17.93 76.04) rotate(-27.1)"/>
    <rect class="st24" x="83.04" y="76.37" width="2.56" height="7.39" transform="translate(6.16 -6.02) rotate(4.25)"/>
    <rect class="st24" x="169.91" y="92.97" width="2.56" height="7.39" transform="translate(7.63 -12.41) rotate(4.25)"/>
    <rect class="st24" x="125.99" y="59.24" width="2.67" height="9.37" transform="translate(69.92 -66.47) rotate(39.58)"/>
    <rect class="st24" x="95.34" y="51.47" width="3.66" height="6.68" transform="translate(57.2 -49.34) rotate(39.58)"/>
    <rect class="st24" x="113.9" y="35.93" width="2.93" height="11.23" transform="translate(-6.26 57.11) rotate(-27.1)"/>
  </g>
</svg>