<?xml version="1.0" encoding="UTF-8"?>
<svg id="Layer_25" xmlns="http://www.w3.org/2000/svg" xmlns:xlink="http://www.w3.org/1999/xlink" version="1.1" viewBox="0 0 267.9 284.53">
  <!-- Generator: Adobe Illustrator 30.0.0, SVG Export Plug-In . SVG Version: 2.1.1 Build 123)  -->
  <defs>
    <style>
      .st0 {
        fill: #211f1c;
      }

      .st1 {
        fill: #f0e1d9;
      }

      .st2 {
        fill: #ddd4c5;
      }

      .st3 {
        fill: #cbe000;
      }

      .st4 {
        fill: #0c0b0b;
      }

      .st5 {
        fill: none;
        stroke: #000;
        stroke-linecap: round;
        stroke-linejoin: round;
        stroke-width: 1.89px;
      }

      .st6 {
        fill: #f2e9df;
      }

      .st7 {
        fill: url(#linear-gradient);
      }

      .st7, .st8 {
        opacity: .8;
      }

      .st9, .st10 {
        fill: #c98a45;
      }

      .st11 {
        fill: #fff;
      }

      .st10 {
        opacity: .71;
      }

      .st12 {
        opacity: .62;
      }

      .st12, .st13 {
        fill: #e5a251;
      }

      .st14 {
        opacity: .7;
      }

      .st15 {
        fill: #fff3b9;
      }

      .st16 {
        fill: #ffed03;
      }

      .st17 {
        fill: #fac45e;
      }

      .st18 {
        fill: #ffe133;
      }

      .st19 {
        fill: #fcfad6;
      }

      .st20 {
        fill: #f4b664;
      }

      .st21 {
        fill: #ffc033;
      }
    </style>
    <linearGradient id="linear-gradient" x1="131.12" y1="73.78" x2="131.12" y2="229.18" gradientUnits="userSpaceOnUse">
      <stop offset=".57" stop-color="#fdffab"/>
      <stop offset=".86" stop-color="#ffed03"/>
    </linearGradient>
  </defs>
  <g class="st14">
    <g>
      <path class="st11" d="M192.52,131.93s-2.71-8.74.39-8.74.5,8.74.5,8.74h-.89Z"/>
      <path class="st11" d="M193.34,135.54s2.71,8.74-.39,8.74-.5-8.74-.5-8.74h.89Z"/>
      <path class="st11" d="M194.74,133.33s8.74-2.71,8.74.39-8.74.5-8.74.5v-.89Z"/>
      <path class="st11" d="M191.13,134.14s-8.74,2.71-8.74-.39,8.74-.5,8.74-.5v.89Z"/>
    </g>
    <g>
      <path class="st11" d="M193.92,132.17s4.26-8.1,6.46-5.9c2.19,2.19-5.83,6.53-5.83,6.53l-.63-.63Z"/>
      <path class="st11" d="M191.95,135.3s-4.26,8.1-6.46,5.9c-2.19-2.19,5.83-6.53,5.83-6.53l.63.63Z"/>
      <path class="st11" d="M194.5,134.72s8.1,4.26,5.9,6.46-6.53-5.83-6.53-5.83l.63-.63Z"/>
      <path class="st11" d="M191.37,132.75s-8.1-4.26-5.9-6.46c2.19-2.19,6.53,5.83,6.53,5.83l-.63.63Z"/>
    </g>
    <g>
      <path class="st11" d="M193.21,131.91s.69-9.12,3.57-7.99c2.89,1.14-2.74,8.31-2.74,8.31l-.83-.33Z"/>
      <path class="st11" d="M192.65,135.56s-.69,9.12-3.57,7.99c-2.89-1.14,2.74-8.31,2.74-8.31l.83.33Z"/>
      <path class="st11" d="M194.76,134.02s9.12.69,7.99,3.57c-1.14,2.89-8.31-2.74-8.31-2.74l.33-.83Z"/>
      <path class="st11" d="M191.11,133.45s-9.12-.69-7.99-3.57c1.14-2.89,8.31,2.74,8.31,2.74l-.33.83Z"/>
    </g>
    <g>
      <path class="st11" d="M194.42,132.64s6.94-5.97,8.17-3.12c1.24,2.85-7.82,3.94-7.82,3.94l-.35-.82Z"/>
      <path class="st11" d="M191.44,134.83s-6.94,5.97-8.17,3.12c-1.24-2.85,7.82-3.94,7.82-3.94l.35.82Z"/>
      <path class="st11" d="M194.03,135.23s5.97,6.94,3.12,8.17c-2.85,1.24-3.94-7.82-3.94-7.82l.82-.35Z"/>
      <path class="st11" d="M191.84,132.24s-5.97-6.94-3.12-8.17c2.85-1.24,3.94,7.82,3.94,7.82l-.82.35Z"/>
    </g>
    <rect class="st1" x="191.87" y="126.55" width=".38" height="5.6" transform="translate(-23.15 43.9) rotate(-12.3)"/>
    <rect class="st1" x="189.93" y="126.56" width=".38" height="6.2" transform="translate(-39.99 127.04) rotate(-33.64)"/>
    <rect class="st1" x="188.91" y="128.41" width=".38" height="5.51" transform="translate(-22.44 221.8) rotate(-57.94)"/>
    <polygon class="st1" points="185.85 135.39 185.77 135.03 191.16 133.9 190.86 133.18 185.09 132.45 185.13 132.08 191.13 132.83 191.69 134.17 185.85 135.39"/>
    <rect class="st1" x="185.91" y="136.29" width="6.03" height=".38" transform="translate(-43.91 126.08) rotate(-33.29)"/>
    <rect class="st1" x="187.68" y="137.38" width="5.28" height=".38" transform="translate(-26.62 227.49) rotate(-58.37)"/>
    <rect class="st1" x="188.84" y="138.4" width="6.2" height=".38" transform="translate(23.58 305.03) rotate(-80.5)"/>
    <rect class="st1" x="193.63" y="135.51" width=".38" height="5.46" transform="translate(-25.91 46.61) rotate(-12.86)"/>
    <rect class="st1" x="195.39" y="134.49" width=".38" height="6.5" transform="translate(-43.63 139.14) rotate(-35.49)"/>
    <rect class="st1" x="190.67" y="128.67" width="6.53" height=".38" transform="translate(36.87 300.75) rotate(-81.18)"/>
    <rect class="st1" x="192.46" y="129.91" width="5.96" height=".38" transform="translate(-18.17 227.53) rotate(-58.17)"/>
    <rect class="st1" x="193.97" y="130.82" width="6.19" height=".38" transform="translate(-39.45 138.63) rotate(-35.46)"/>
    <rect class="st1" x="196.48" y="133.4" width=".38" height="5.59" transform="translate(-24.95 226.27) rotate(-56.82)"/>
    <rect class="st1" x="193.96" y="132.73" width="6.22" height=".38" transform="translate(-24.31 46.35) rotate(-12.64)"/>
    <rect class="st1" x="197.33" y="131.24" width=".38" height="6.76" transform="translate(29.24 304.39) rotate(-79.53)"/>
    <path class="st17" d="M195.2,133.74c0,1.25-1.01,2.26-2.26,2.26s-2.26-1.01-2.26-2.26,1.01-2.26,2.26-2.26,2.26,1.01,2.26,2.26Z"/>
  </g>
  <g>
    <path id="_เส้นจาน" data-name="เส้นจาน" d="M131.12,217.91c-26.13,0-50.72-2.28-69.24-6.42-20.14-4.5-30.36-10.46-30.36-17.72s10.21-13.22,30.36-17.72c18.52-4.14,43.11-6.42,69.24-6.42s50.72,2.28,69.24,6.42c20.14,4.5,30.36,10.46,30.36,17.72s-10.21,13.22-30.36,17.72c-18.52,4.14-43.11,6.42-69.24,6.42Z"/>
    <ellipse id="_จาน" data-name="จาน" class="st11" cx="131.12" cy="193.77" rx="97.17" ry="21.72"/>
    <g id="_เงาจาน" data-name="เงาจาน">
      <ellipse class="st6" cx="131.12" cy="194.09" rx="57.74" ry="12.9"/>
      <g>
        <path class="st6" d="M47.9,187.1c-.55-.85-10.02,2.21-10.19,6.07-.29,6.58,26.7,12.09,26.69,12.13-.01.04-21.66-4.28-21.84-11.16-.09-3.61,5.79-6.34,5.34-7.04Z"/>
        <path class="st6" d="M210.22,200.93c.14.32,13.93-2.9,14.07-8.01.16-5.6-16.18-9.42-16.26-9.22-.07.18,13.61,3.81,13.59,8.98-.02,4.74-11.54,7.95-11.4,8.25Z"/>
        <circle class="st6" cx="50.08" cy="185.64" r=".97"/>
        <circle class="st6" cx="207.55" cy="202.14" r=".97"/>
      </g>
    </g>
    <path id="_เส้นน้ำ" data-name="เส้นน้ำ" d="M117.95,201.66c-14.93,0-29.11-4.75-41.03-13.75-11.91-8.99-20.37-21.34-24.46-35.69l-12.39-43.49h15.69l-21.92-27.31c-1.4-1.74-1.12-4.3.62-5.7l2.84-2.28c.72-.58,1.62-.89,2.54-.89,1.24,0,2.39.55,3.16,1.52l5.04,6.27c0-.05.02-.11.03-.16l.03-.15c.05-.23.1-.44.15-.64,0-.02.01-.05.02-.07.05-.2.12-.43.2-.67l.05-.15c.15-.44.33-.87.53-1.28.02-.04.03-.08.05-.11h0c.59-1.19,1.37-2.24,2.32-3.13,2.05-1.93,4.72-2.99,7.73-3.07-.2-.42-.29-.89-.28-1.36.02-.81.36-1.55.95-2.11.56-.53,1.3-.82,2.07-.82.36,0,.71.06,1.04.18.14-.02.28-.03.42-.03.91,0,1.76.4,2.33,1.1.76.93.88,2.17.4,3.19,0,.09,0,.19-.02.28.93-.5,1.9-.89,2.92-1.15.99-.25,2.01-.38,3.02-.38,3.77,0,7.18,1.78,9.02,4.69,1.73,1.4,2.91,3.31,3.33,5.42.54,2.68-.11,5.42-1.85,7.71-1.55,2.05-3.81,3.51-6.41,4.17,0,.01,0,.03-.01.04-.17.57-.37,1.12-.62,1.65l2.62,8.41c.06-.29.15-.59.26-.88.65-1.64,1.97-2.69,3.7-3-.09-.37-.15-.74-.16-1.1-.04-1.32.45-2.53,1.42-3.5.93-.93,2.1-1.43,3.36-1.43.25,0,.5.02.74.06.44-2.02,1.9-2.95,2.78-3.33.64-.28,1.3-.42,1.95-.42,1.08,0,2.01.36,2.79.91.19-.32.41-.61.65-.87.9-.97,2.11-1.48,3.49-1.48.94,0,2.65.26,3.87,1.93.77-.49,1.61-.74,2.51-.74.6,0,1.21.12,1.81.35,1.27.5,2.2,1.41,2.7,2.63.14.34.24.7.3,1.07.42-.11.84-.16,1.25-.16,1.26,0,2.41.49,3.34,1.42.67.67,1.69,2.06,1.37,4.11,1.51.34,2.69,1.31,3.33,2.77.55,1.26.56,2.57.04,3.78-.14.33-.32.65-.54.96,1.79,1.05,2.25,2.64,2.34,3.71h32.71l5.07-5.71-3.66-11.02,9.74-10.96,11.73,2.41,7.59-8.55,14.36,2.95,3.6,10.85,11.63,2.39,4.62,13.91-3.31,3.72h6.69l-2.27,7.97c3.42.19,6.71.81,9.8,1.85,8.42,2.84,14.41,8.49,16.88,15.9,2.47,7.41,1.07,15.52-3.95,22.85-4.74,6.92-12.21,12.35-21.05,15.3-4.62,1.54-9.34,2.33-14.01,2.33-2.92,0-5.77-.31-8.49-.93-12.81,17.35-33.16,27.65-54.79,27.65h-26.34ZM204.6,165.18c.98.1,1.98.15,2.99.15,3.63,0,7.31-.62,10.95-1.83,6.75-2.25,12.44-6.29,16.01-11.37,3.41-4.85,4.45-10.05,2.92-14.64-2.28-6.83-10.04-11.24-19.77-11.24-.17,0-.35,0-.52,0l-7.4,25.97c-1.28,4.49-3.01,8.83-5.18,12.96ZM76.82,108.73c.09-.97.5-2.35,1.92-3.38-.57-.91-.82-1.91-.73-2.94l-8.57-3.24c-.54.21-1.11.39-1.68.52-.92.21-1.88.31-2.85.31-.38,0-.76-.02-1.14-.05l6.82,8.5c.29-.1.61-.15.92-.15.55,0,1.08.16,1.54.43h3.77Z"/>
    <g id="_หูแก้ว" data-name="หูแก้ว">
      <path class="st11" d="M207.57,172.5c-3.91,0-7.72-.59-11.24-1.79-7.68-2.6-13.13-7.7-15.36-14.37s-.93-14.03,3.65-20.71c4.44-6.48,11.48-11.59,19.82-14.37,8.34-2.78,17.04-2.93,24.48-.42,7.68,2.6,13.13,7.7,15.36,14.37h0c2.23,6.67.93,14.03-3.65,20.71-4.44,6.48-11.48,11.59-19.82,14.37-4.39,1.47-8.88,2.2-13.24,2.2ZM217.7,123.82c-3.79,0-7.78.63-11.75,1.96-14.97,5-24.15,18.04-20.47,29.07,1.74,5.22,6.14,9.26,12.37,11.37,6.47,2.19,14.09,2.04,21.45-.42,14.97-5,24.15-18.04,20.47-29.07h0c-2.7-8.1-11.61-12.9-22.07-12.9Z"/>
    </g>
    <path id="_พื้นหลังน้ำ" data-name="พื้นหลังน้ำ" class="st11" d="M144.29,199.23h-26.34c-29.34,0-55.12-19.46-63.15-47.68l-11.51-40.4h175.67l-11.51,40.4c-8.04,28.22-33.82,47.68-63.15,47.68Z"/>
    <g>
      <path class="st13" d="M41.11,75.59l60.56,75.45-5.37,4.31-60.56-75.45c-.56-.7-.45-1.72.25-2.29l2.84-2.28c.7-.56,1.72-.45,2.29.25Z"/>
      <ellipse class="st9" cx="108.26" cy="164.56" rx="13.3" ry="19.72" transform="translate(-79.17 103.99) rotate(-38.75)"/>
      <path class="st20" d="M107.01,184.63c2.46.92,4.94,1.38,7.31,1.34l13.35-10.72c.55-2.3.64-4.82.27-7.43l-20.93,16.8Z"/>
      <path class="st20" d="M104.28,183.41l23.06-18.51c-.54-2.01-1.33-4.03-2.38-6l-26.01,20.88c1.7,1.46,3.5,2.67,5.34,3.63Z"/>
      <path class="st10" d="M93.84,146.35l-2.9,2.33,3.66,4.56,2.9-2.33,1.7,2.11,2.47-1.98-60.56-75.45c-.56-.7-1.59-.81-2.29-.25l-1.2.97,56.22,70.05Z"/>
      <path class="st20" d="M94.93,175.64c.66.82,1.34,1.59,2.05,2.31l26.6-21.35c-.55-.85-1.16-1.69-1.81-2.5-.79-.98-1.62-1.89-2.48-2.74l-26.5,21.27c.64,1.03,1.35,2.03,2.14,3.01Z"/>
      <path class="st20" d="M88.71,161.44l20.55-16.49c-2.43-.85-4.88-1.26-7.2-1.17l-12.94,10.38c-.58,2.25-.72,4.73-.41,7.28Z"/>
      <path class="st20" d="M89.26,164.41c.49,1.96,1.22,3.94,2.21,5.88l25.83-20.73c-1.68-1.38-3.46-2.53-5.27-3.43l-22.77,18.28Z"/>
      <path class="st12" d="M121.2,180.44l6.46-5.19c.55-2.3.64-4.82.27-7.43l-6.46,5.19c.37,2.6.28,5.12-.27,7.43Z"/>
      <path class="st12" d="M127.34,164.91c-.54-2.01-1.33-4.03-2.38-6l-6.46,5.19c1.05,1.97,1.85,3.99,2.38,6l6.46-5.19Z"/>
      <path class="st12" d="M117.12,161.79l6.46-5.19c-.55-.85-1.16-1.69-1.81-2.5-.79-.98-1.62-1.89-2.48-2.74l-6.46,5.19c.86.85,1.69,1.76,2.48,2.74.66.82,1.26,1.65,1.81,2.5Z"/>
      <path class="st12" d="M102.79,150.14l6.46-5.19c-2.43-.85-4.88-1.26-7.2-1.17l-6.46,5.19c2.32-.08,4.77.32,7.2,1.17Z"/>
      <path class="st12" d="M117.3,149.56c-1.68-1.38-3.46-2.53-5.27-3.43l-6.46,5.19c1.81.9,3.58,2.05,5.27,3.43l6.46-5.19Z"/>
    </g>
    <g>
      <path class="st2" d="M73.34,87.24c-5.81,1.49-11.53-2.82-12.03-4.75-.58-2.26,2.51-8.47,8.26-9.94,4.62-1.18,9.2,1.15,10.24,5.2,1.04,4.06-1.86,8.3-6.48,9.48Z"/>
      <g>
        <path class="st0" d="M60.7,74.62c1.35-1.27,1.9-3.28,1.38-5.06-.11-.36-.68-.23-.57.13.47,1.59,0,3.36-1.21,4.5-.28.26.13.69.4.43h0Z"/>
        <circle class="st0" cx="61.88" cy="69.64" r=".59"/>
      </g>
      <polygon class="st0" points="69.37 96.54 74.47 98.47 72.85 93.26 69.37 96.54"/>
      <path class="st18" d="M71.34,95.15c-1.17,1.1-2.58,1.81-4.12,2.16-1.57.36-3.27.33-4.98-.05-1.17-.26-2.34-.69-3.48-1.29-1.02-.53-2-1.19-2.93-1.98-.46-.39-.91-.82-1.34-1.28-.34-.36-.66-.73-.96-1.11-.75-.95-1.37-1.95-1.87-2.98-2.24-4.65-1.84-9.8,1.41-12.87,3.25-3.06,8.42-3.15,12.93-.64,1,.56,1.96,1.24,2.86,2.04.36.32.71.66,1.06,1.03.43.46.83.93,1.2,1.42.73.97,1.34,2,1.81,3.04.53,1.17.89,2.36,1.08,3.55.28,1.73.2,3.43-.25,4.98-.44,1.52-1.24,2.88-2.41,3.98Z"/>
      <g>
        <path class="st0" d="M68.86,77.16l-15.33,14.44c-.75-.95-1.37-1.95-1.87-2.98l14.34-13.5c1,.56,1.96,1.24,2.86,2.04Z"/>
        <path class="st0" d="M72.92,82.64l-14.15,13.33c-1.02-.53-2-1.19-2.93-1.98l15.28-14.39c.73.97,1.34,2,1.81,3.04Z"/>
        <path class="st0" d="M73.75,91.17l-6.53,6.15c-1.57.36-3.27.33-4.98-.05l11.76-11.07c.28,1.73.2,3.43-.25,4.98Z"/>
      </g>
      <g>
        <path class="st0" d="M61.84,74.66c1.43-1.18,2.1-3.15,1.7-4.96-.08-.37-.65-.24-.57.13.36,1.62-.25,3.35-1.53,4.4-.29.24.11.67.4.43h0Z"/>
        <circle class="st0" cx="63.34" cy="69.79" r=".59"/>
      </g>
      <g>
        <path class="st21" d="M52.45,86c.2.42.43.83.67,1.24l-1.46,1.38c-1.72-3.57-1.89-7.43-.4-10.42-.47,2.45-.06,5.2,1.19,7.8Z"/>
        <path class="st21" d="M56.54,91.25c.39.33.8.65,1.21.93l-1.91,1.8c-.46-.39-.91-.82-1.34-1.28-.34-.36-.66-.73-.96-1.11l1.69-1.59c.42.45.86.86,1.31,1.25Z"/>
        <path class="st21" d="M62.81,94.46c.71.16,1.41.26,2.11.29l-2.68,2.52c-1.17-.26-2.34-.69-3.48-1.29l2.2-2.07c.61.23,1.22.42,1.84.56Z"/>
        <path class="st21" d="M71.34,95.15c-1.17,1.1-2.58,1.81-4.12,2.16l6.53-6.15c-.44,1.52-1.24,2.88-2.41,3.98Z"/>
      </g>
      <g>
        <path class="st4" d="M55.23,90l-1.69,1.59c-.75-.95-1.37-1.95-1.87-2.98l1.46-1.38c.34.57.73,1.13,1.16,1.67.29.37.61.74.94,1.09Z"/>
        <path class="st4" d="M60.97,93.9l-2.2,2.07c-1.02-.53-2-1.19-2.93-1.98l1.91-1.8c.54.38,1.09.71,1.65,1.01.51.27,1.04.51,1.56.71Z"/>
        <path class="st4" d="M73.75,91.17l-6.53,6.15c-1.57.36-3.27.33-4.98-.05l2.68-2.52c.95.04,1.88-.04,2.76-.24,1.51-.34,2.89-1.04,4.03-2.12s1.92-2.41,2.36-3.9c.03-.11.06-.23.09-.35,0,.05,0,.11,0,.16,0,.39-.03.79-.07,1.18-.03.24-.05.49-.11.72,0,0,0,0,0,0-.06.32-.14.64-.23.96Z"/>
      </g>
      <circle class="st0" cx="56.69" cy="77.71" r="1.71"/>
      <path class="st11" d="M75.03,89.56c-5.88,1.2-11.38-3.39-11.77-5.34-.46-2.29,2.93-8.33,8.75-9.52,4.67-.95,9.13,1.61,9.96,5.71.83,4.1-2.27,8.2-6.94,9.15Z"/>
      <g>
        <circle class="st11" cx="56.71" cy="77.04" r=".48"/>
        <circle class="st11" cx="56.94" cy="78.31" r=".3"/>
      </g>
    </g>
    <g>
      <g>
        <g id="_กรอบ" data-name="กรอบ">
          <polygon class="st15" points="188.97 119.36 177.35 116.97 169.48 125.83 173.22 137.08 184.83 139.47 192.7 130.61 188.97 119.36"/>
        </g>
        <g id="_ใน" data-name="ใน">
          <polygon class="st16" points="188.05 120.38 177.79 118.27 170.82 126.11 174.13 136.06 184.4 138.17 191.36 130.33 188.05 120.38"/>
        </g>
        <g id="_สะท้อน" data-name="สะท้อน">
          <g>
            <ellipse class="st19" cx="182.05" cy="127.36" rx="6.33" ry="8.24" transform="translate(-38.24 98.45) rotate(-27.5)"/>
            <ellipse class="st19" cx="174.43" cy="131.35" rx="1.06" ry="2.8" transform="translate(-40.94 95.38) rotate(-27.5)"/>
          </g>
        </g>
        <g id="_วิ้งๆ" data-name="วิ้งๆ">
          <rect class="st11" x="185.82" y="121.41" width="2.38" height="6.32" rx="1.19" ry="1.19" transform="translate(-29.74 65.33) rotate(-18.38)"/>
          <rect class="st11" x="187.36" y="128.13" width="2.34" height="2.38" rx="1.17" ry="1.17" transform="translate(-31.16 66.05) rotate(-18.38)"/>
        </g>
      </g>
      <g>
        <g id="_กรอบ1" data-name="กรอบ">
          <polygon class="st15" points="197.07 79.95 185.45 77.57 177.58 86.43 181.32 97.68 192.93 100.07 200.81 91.2 197.07 79.95"/>
        </g>
        <g id="_ใน1" data-name="ใน">
          <polygon class="st16" points="196.16 80.98 185.89 78.87 178.93 86.71 182.23 96.65 192.5 98.76 199.46 90.93 196.16 80.98"/>
        </g>
        <g id="_สะท้อน1" data-name="สะท้อน">
          <g>
            <ellipse class="st19" cx="190.15" cy="87.96" rx="6.33" ry="8.24" transform="translate(-19.13 97.74) rotate(-27.5)"/>
            <ellipse class="st19" cx="182.53" cy="91.95" rx="1.06" ry="2.8" transform="translate(-21.83 94.67) rotate(-27.5)"/>
          </g>
        </g>
        <g id="_วิ้งๆ1" data-name="วิ้งๆ">
          <rect class="st11" x="193.92" y="82" width="2.38" height="6.32" rx="1.19" ry="1.19" transform="translate(-16.9 65.87) rotate(-18.38)"/>
          <rect class="st11" x="195.46" y="88.73" width="2.34" height="2.38" rx="1.17" ry="1.17" transform="translate(-18.32 66.59) rotate(-18.38)"/>
        </g>
      </g>
      <g>
        <g id="_กรอบ2" data-name="กรอบ">
          <polygon class="st15" points="193.1 99.24 181.49 96.85 173.61 105.72 177.35 116.97 188.97 119.36 196.84 110.49 193.1 99.24"/>
        </g>
        <g id="_ใน2" data-name="ใน">
          <polygon class="st16" points="192.19 100.27 181.92 98.16 174.96 105.99 178.26 115.94 188.53 118.05 195.49 110.22 192.19 100.27"/>
        </g>
        <g id="_สะท้อน2" data-name="สะท้อน">
          <g>
            <ellipse class="st19" cx="186.19" cy="107.25" rx="6.33" ry="8.24" transform="translate(-28.48 98.09) rotate(-27.5)"/>
            <ellipse class="st19" cx="178.57" cy="111.23" rx="1.06" ry="2.8" transform="translate(-31.19 95.02) rotate(-27.5)"/>
          </g>
        </g>
        <g id="_วิ้งๆ2" data-name="วิ้งๆ">
          <rect class="st11" x="189.96" y="101.29" width="2.38" height="6.32" rx="1.19" ry="1.19" transform="translate(-23.19 65.6) rotate(-18.38)"/>
          <rect class="st11" x="191.49" y="108.02" width="2.34" height="2.38" rx="1.17" ry="1.17" transform="translate(-24.61 66.32) rotate(-18.38)"/>
        </g>
      </g>
      <g>
        <g id="_กรอบ3" data-name="กรอบ">
          <polygon class="st15" points="208.25 112.89 196.64 110.5 188.76 119.37 192.5 130.62 204.11 133.01 211.99 124.14 208.25 112.89"/>
        </g>
        <g id="_ใน3" data-name="ใน">
          <polygon class="st16" points="207.34 113.92 197.07 111.81 190.11 119.64 193.41 129.59 203.68 131.7 210.64 123.87 207.34 113.92"/>
        </g>
        <g id="_สะท้อน3" data-name="สะท้อน">
          <g>
            <ellipse class="st19" cx="201.33" cy="120.9" rx="6.33" ry="8.24" transform="translate(-33.08 106.63) rotate(-27.5)"/>
            <ellipse class="st19" cx="193.71" cy="124.89" rx="1.06" ry="2.8" transform="translate(-35.78 103.56) rotate(-27.5)"/>
          </g>
        </g>
        <g id="_วิ้งๆ3" data-name="วิ้งๆ">
          <rect class="st11" x="205.1" y="114.94" width="2.38" height="6.32" rx="1.19" ry="1.19" transform="translate(-26.72 71.08) rotate(-18.38)"/>
          <rect class="st11" x="206.64" y="121.67" width="2.34" height="2.38" rx="1.17" ry="1.17" transform="translate(-28.14 71.8) rotate(-18.38)"/>
        </g>
      </g>
      <g>
        <g id="_กรอบ4" data-name="กรอบ">
          <polygon class="st15" points="173.69 105.79 162.08 103.4 154.21 112.26 157.94 123.51 169.56 125.9 177.43 117.04 173.69 105.79"/>
        </g>
        <g id="_ใน4" data-name="ใน">
          <polygon class="st16" points="172.78 106.81 162.51 104.7 155.55 112.54 158.86 122.49 169.12 124.6 176.09 116.76 172.78 106.81"/>
        </g>
        <g id="_สะท้อน4" data-name="สะท้อน">
          <g>
            <ellipse class="st19" cx="166.78" cy="113.79" rx="6.33" ry="8.24" transform="translate(-33.7 89.87) rotate(-27.5)"/>
            <ellipse class="st19" cx="159.16" cy="117.78" rx="1.06" ry="2.8" transform="translate(-36.4 86.8) rotate(-27.5)"/>
          </g>
        </g>
        <g id="_วิ้งๆ4" data-name="วิ้งๆ">
          <rect class="st11" x="170.55" y="107.84" width="2.38" height="6.32" rx="1.19" ry="1.19" transform="translate(-26.24 59.82) rotate(-18.38)"/>
          <rect class="st11" x="172.09" y="114.56" width="2.34" height="2.38" rx="1.17" ry="1.17" transform="translate(-27.66 60.54) rotate(-18.38)"/>
        </g>
      </g>
      <g>
        <g id="_กรอบ5" data-name="กรอบ">
          <polygon class="st15" points="212.3 93.19 200.69 90.8 192.81 99.67 196.55 110.92 208.16 113.31 216.04 104.44 212.3 93.19"/>
        </g>
        <g id="_ใน5" data-name="ใน">
          <polygon class="st16" points="211.39 94.22 201.12 92.11 194.16 99.94 197.46 109.89 207.73 112 214.69 104.17 211.39 94.22"/>
        </g>
        <g id="_สะท้อน5" data-name="สะท้อน">
          <g>
            <ellipse class="st19" cx="205.38" cy="101.2" rx="6.33" ry="8.24" transform="translate(-23.52 106.27) rotate(-27.5)"/>
            <ellipse class="st19" cx="197.76" cy="105.18" rx="1.06" ry="2.8" transform="translate(-26.22 103.2) rotate(-27.5)"/>
          </g>
        </g>
        <g id="_วิ้งๆ5" data-name="วิ้งๆ">
          <rect class="st11" x="209.16" y="95.24" width="2.38" height="6.32" rx="1.19" ry="1.19" transform="translate(-20.3 71.35) rotate(-18.38)"/>
          <rect class="st11" x="210.69" y="101.97" width="2.34" height="2.38" rx="1.17" ry="1.17" transform="translate(-21.72 72.07) rotate(-18.38)"/>
        </g>
      </g>
      <g>
        <g id="_กรอบ6" data-name="กรอบ">
          <polygon class="st15" points="177.74 86.09 166.13 83.7 158.26 92.56 162 103.81 173.61 106.2 181.48 97.34 177.74 86.09"/>
        </g>
        <g id="_ใน6" data-name="ใน">
          <polygon class="st16" points="176.83 87.11 166.56 85 159.6 92.84 162.91 102.79 173.18 104.9 180.14 97.06 176.83 87.11"/>
        </g>
        <g id="_สะท้อน6" data-name="สะท้อน">
          <g>
            <ellipse class="st19" cx="170.83" cy="94.09" rx="6.33" ry="8.24" transform="translate(-24.15 89.51) rotate(-27.5)"/>
            <ellipse class="st19" cx="163.21" cy="98.08" rx="1.06" ry="2.8" transform="translate(-26.85 86.44) rotate(-27.5)"/>
          </g>
        </g>
        <g id="_วิ้งๆ6" data-name="วิ้งๆ">
          <rect class="st11" x="174.6" y="88.14" width="2.38" height="6.32" rx="1.19" ry="1.19" transform="translate(-19.82 60.09) rotate(-18.38)"/>
          <rect class="st11" x="176.14" y="94.86" width="2.34" height="2.38" rx="1.17" ry="1.17" transform="translate(-21.24 60.81) rotate(-18.38)"/>
        </g>
      </g>
    </g>
    <g>
      <g>
        <path class="st11" d="M98.33,105.79s-5.11-16.48.74-16.48.94,16.48.94,16.48h-1.68Z"/>
        <path class="st11" d="M99.88,112.59s5.11,16.48-.74,16.48-.94-16.48-.94-16.48h1.68Z"/>
        <path class="st11" d="M102.5,108.42s16.48-5.11,16.48.74-16.48.94-16.48.94v-1.68Z"/>
        <path class="st11" d="M95.71,109.96s-16.48,5.11-16.48-.74,16.48-.94,16.48-.94v1.68Z"/>
      </g>
      <g>
        <path class="st11" d="M100.96,106.24s8.04-15.27,12.18-11.13c4.14,4.14-10.99,12.32-10.99,12.32l-1.19-1.19Z"/>
        <path class="st11" d="M97.25,112.14s-8.04,15.27-12.18,11.13c-4.14-4.14,10.99-12.32,10.99-12.32l1.19,1.19Z"/>
        <path class="st11" d="M102.05,111.05s15.27,8.04,11.13,12.18c-4.14,4.14-12.32-10.99-12.32-10.99l1.19-1.19Z"/>
        <path class="st11" d="M96.16,107.33s-15.27-8.04-11.13-12.18c4.14-4.14,12.32,10.99,12.32,10.99l-1.19,1.19Z"/>
      </g>
      <g>
        <path class="st11" d="M99.64,105.74s1.29-17.21,6.74-15.06c5.44,2.15-5.18,15.68-5.18,15.68l-1.56-.62Z"/>
        <path class="st11" d="M98.57,112.63s-1.29,17.21-6.74,15.06c-5.44-2.15,5.18-15.68,5.18-15.68l1.56.62Z"/>
        <path class="st11" d="M102.55,109.72s17.21,1.29,15.06,6.74c-2.15,5.44-15.68-5.18-15.68-5.18l.62-1.56Z"/>
        <path class="st11" d="M95.66,108.66s-17.21-1.29-15.06-6.74c2.15-5.44,15.68,5.18,15.68,5.18l-.62,1.56Z"/>
      </g>
      <g>
        <path class="st11" d="M101.92,107.13s13.08-11.25,15.41-5.88c2.33,5.37-14.75,7.43-14.75,7.43l-.67-1.54Z"/>
        <path class="st11" d="M96.29,111.25s-13.08,11.25-15.41,5.88c-2.33-5.37,14.75-7.43,14.75-7.43l.67,1.54Z"/>
        <path class="st11" d="M101.17,112s11.25,13.08,5.88,15.41c-5.37,2.33-7.43-14.75-7.43-14.75l1.54-.67Z"/>
        <path class="st11" d="M97.04,106.38s-11.25-13.08-5.88-15.41c5.37-2.33,7.43,14.75,7.43,14.75l-1.54.67Z"/>
      </g>
      <rect class="st1" x="97.09" y="95.63" width=".71" height="10.56" transform="translate(-19.27 23.09) rotate(-12.3)"/>
      <rect class="st1" x="93.45" y="95.65" width=".71" height="11.7" transform="translate(-40.52 68.97) rotate(-33.64)"/>
      <rect class="st1" x="91.51" y="99.13" width=".71" height="10.4" transform="translate(-45.32 126.81) rotate(-57.94)"/>
      <polygon class="st1" points="85.75 112.32 85.6 111.62 95.77 109.49 95.2 108.13 84.31 106.77 84.4 106.06 95.7 107.48 96.76 110.01 85.75 112.32"/>
      <rect class="st1" x="85.85" y="114.01" width="11.38" height=".71" transform="translate(-47.75 69) rotate(-33.29)"/>
      <rect class="st1" x="89.2" y="116.06" width="9.96" height=".71" transform="translate(-54.33 135.56) rotate(-58.37)"/>
      <rect class="st1" x="91.39" y="117.99" width="11.69" height=".71" transform="translate(-35.54 194.72) rotate(-80.5)"/>
      <rect class="st1" x="100.41" y="112.54" width=".71" height="10.29" transform="translate(-23.67 25.39) rotate(-12.86)"/>
      <rect class="st1" x="103.73" y="110.62" width=".71" height="12.26" transform="translate(-48.44 82.12) rotate(-35.49)"/>
      <rect class="st1" x="94.84" y="99.63" width="12.31" height=".71" transform="translate(-13.29 184.46) rotate(-81.18)"/>
      <rect class="st1" x="98.21" y="101.96" width="11.24" height=".71" transform="translate(-37.86 136.57) rotate(-58.17)"/>
      <rect class="st1" x="101.07" y="103.68" width="11.68" height=".71" transform="translate(-40.53 81.32) rotate(-35.46)"/>
      <rect class="st1" x="105.8" y="108.56" width=".71" height="10.54" transform="translate(-47.21 140.38) rotate(-56.82)"/>
      <rect class="st1" x="101.04" y="107.3" width="11.72" height=".71" transform="translate(-20.97 26) rotate(-12.64)"/>
      <rect class="st1" x="107.4" y="104.49" width=".71" height="12.76" transform="translate(-20.85 196.68) rotate(-79.53)"/>
      <path class="st17" d="M103.38,109.19c0,2.36-1.91,4.27-4.27,4.27s-4.27-1.91-4.27-4.27,1.91-4.27,4.27-4.27,4.27,1.91,4.27,4.27Z"/>
    </g>
    <path id="_น้ำ" data-name="น้ำ" class="st7" d="M144.29,199.23h-26.34c-29.34,0-55.12-19.46-63.15-47.68l-11.51-40.4h175.67l-11.51,40.4c-8.04,28.22-33.82,47.68-63.15,47.68Z"/>
    <g class="st14">
      <g>
        <path class="st11" d="M146.18,176.82s-2.71-8.74.39-8.74.5,8.74.5,8.74h-.89Z"/>
        <path class="st11" d="M147,180.42s2.71,8.74-.39,8.74-.5-8.74-.5-8.74h.89Z"/>
        <path class="st11" d="M148.39,178.21s8.74-2.71,8.74.39-8.74.5-8.74.5v-.89Z"/>
        <path class="st11" d="M144.79,179.03s-8.74,2.71-8.74-.39,8.74-.5,8.74-.5v.89Z"/>
      </g>
      <g>
        <path class="st11" d="M147.58,177.06s4.26-8.1,6.46-5.9c2.19,2.19-5.83,6.53-5.83,6.53l-.63-.63Z"/>
        <path class="st11" d="M145.6,180.19s-4.26,8.1-6.46,5.9c-2.19-2.19,5.83-6.53,5.83-6.53l.63.63Z"/>
        <path class="st11" d="M148.15,179.61s8.1,4.26,5.9,6.46-6.53-5.83-6.53-5.83l.63-.63Z"/>
        <path class="st11" d="M145.03,177.64s-8.1-4.26-5.9-6.46,6.53,5.83,6.53,5.83l-.63.63Z"/>
      </g>
      <g>
        <path class="st11" d="M146.87,176.8s.69-9.12,3.57-7.99c2.89,1.14-2.74,8.31-2.74,8.31l-.83-.33Z"/>
        <path class="st11" d="M146.31,180.45s-.69,9.12-3.57,7.99c-2.89-1.14,2.74-8.31,2.74-8.31l.83.33Z"/>
        <path class="st11" d="M148.42,178.9s9.12.69,7.99,3.57c-1.14,2.89-8.31-2.74-8.31-2.74l.33-.83Z"/>
        <path class="st11" d="M144.76,178.34s-9.12-.69-7.99-3.57c1.14-2.89,8.31,2.74,8.31,2.74l-.33.83Z"/>
      </g>
      <g>
        <path class="st11" d="M148.08,177.53s6.94-5.97,8.17-3.12c1.24,2.85-7.82,3.94-7.82,3.94l-.35-.82Z"/>
        <path class="st11" d="M145.1,179.71s-6.94,5.97-8.17,3.12c-1.24-2.85,7.82-3.94,7.82-3.94l.35.82Z"/>
        <path class="st11" d="M147.68,180.11s5.97,6.94,3.12,8.17c-2.85,1.24-3.94-7.82-3.94-7.82l.82-.35Z"/>
        <path class="st11" d="M145.5,177.13s-5.97-6.94-3.12-8.17c2.85-1.24,3.94,7.82,3.94,7.82l-.82.35Z"/>
      </g>
      <rect class="st1" x="145.52" y="171.44" width=".38" height="5.6" transform="translate(-33.78 35.06) rotate(-12.3)"/>
      <rect class="st1" x="143.59" y="171.45" width=".38" height="6.2" transform="translate(-72.62 108.88) rotate(-33.64)"/>
      <rect class="st1" x="142.57" y="173.29" width=".38" height="5.51" transform="translate(-82.22 203.58) rotate(-57.94)"/>
      <polygon class="st1" points="139.51 180.28 139.43 179.91 144.82 178.78 144.52 178.06 138.74 177.34 138.79 176.97 144.78 177.72 145.35 179.06 139.51 180.28"/>
      <rect class="st1" x="139.56" y="181.18" width="6.03" height=".38" transform="translate(-76.15 108.01) rotate(-33.29)"/>
      <rect class="st1" x="141.34" y="182.27" width="5.28" height=".38" transform="translate(-86.88 209.37) rotate(-58.37)"/>
      <rect class="st1" x="142.5" y="183.29" width="6.2" height=".38" transform="translate(-59.39 296.81) rotate(-80.5)"/>
      <rect class="st1" x="147.28" y="180.4" width=".38" height="5.46" transform="translate(-37.07 37.42) rotate(-12.86)"/>
      <rect class="st1" x="149.04" y="179.38" width=".38" height="6.5" transform="translate(-78.31 120.58) rotate(-35.49)"/>
      <rect class="st1" x="144.33" y="173.56" width="6.53" height=".38" transform="translate(-46.72 292.96) rotate(-81.18)"/>
      <rect class="st1" x="146.12" y="174.79" width="5.96" height=".38" transform="translate(-78.21 209.37) rotate(-58.17)"/>
      <rect class="st1" x="147.63" y="175.7" width="6.19" height=".38" transform="translate(-74.09 120.07) rotate(-35.46)"/>
      <rect class="st1" x="150.14" y="178.29" width=".38" height="5.59" transform="translate(-83.5 207.8) rotate(-56.82)"/>
      <rect class="st1" x="147.62" y="177.62" width="6.22" height=".38" transform="translate(-35.26 37.29) rotate(-12.64)"/>
      <rect class="st1" x="150.99" y="176.13" width=".38" height="6.76" transform="translate(-52.82 295.55) rotate(-79.53)"/>
      <path class="st16" d="M148.85,178.62c0,1.25-1.01,2.26-2.26,2.26s-2.26-1.01-2.26-2.26,1.01-2.26,2.26-2.26,2.26,1.01,2.26,2.26Z"/>
    </g>
    <g class="st14">
      <g>
        <path class="st11" d="M113.18,126.11s-2.71-8.74.39-8.74.5,8.74.5,8.74h-.89Z"/>
        <path class="st11" d="M114,129.71s2.71,8.74-.39,8.74-.5-8.74-.5-8.74h.89Z"/>
        <path class="st11" d="M115.39,127.5s8.74-2.71,8.74.39-8.74.5-8.74.5v-.89Z"/>
        <path class="st11" d="M111.79,128.32s-8.74,2.71-8.74-.39,8.74-.5,8.74-.5v.89Z"/>
      </g>
      <g>
        <path class="st11" d="M114.58,126.35s4.26-8.1,6.46-5.9c2.19,2.19-5.83,6.53-5.83,6.53l-.63-.63Z"/>
        <path class="st11" d="M112.61,129.48s-4.26,8.1-6.46,5.9c-2.19-2.19,5.83-6.53,5.83-6.53l.63.63Z"/>
        <path class="st11" d="M115.16,128.9s8.1,4.26,5.9,6.46-6.53-5.83-6.53-5.83l.63-.63Z"/>
        <path class="st11" d="M112.03,126.93s-8.1-4.26-5.9-6.46,6.53,5.83,6.53,5.83l-.63.63Z"/>
      </g>
      <g>
        <path class="st11" d="M113.87,126.09s.69-9.12,3.57-7.99c2.89,1.14-2.74,8.31-2.74,8.31l-.83-.33Z"/>
        <path class="st11" d="M113.31,129.74s-.69,9.12-3.57,7.99c-2.89-1.14,2.74-8.31,2.74-8.31l.83.33Z"/>
        <path class="st11" d="M115.42,128.19s9.12.69,7.99,3.57c-1.14,2.89-8.31-2.74-8.31-2.74l.33-.83Z"/>
        <path class="st11" d="M111.77,127.63s-9.12-.69-7.99-3.57c1.14-2.89,8.31,2.74,8.31,2.74l-.33.83Z"/>
      </g>
      <g>
        <path class="st11" d="M115.08,126.82s6.94-5.97,8.17-3.12c1.24,2.85-7.82,3.94-7.82,3.94l-.35-.82Z"/>
        <path class="st11" d="M112.1,129s-6.94,5.97-8.17,3.12c-1.24-2.85,7.82-3.94,7.82-3.94l.35.82Z"/>
        <path class="st11" d="M114.68,129.4s5.97,6.94,3.12,8.17c-2.85,1.24-3.94-7.82-3.94-7.82l.82-.35Z"/>
        <path class="st11" d="M112.5,126.42s-5.97-6.94-3.12-8.17c2.85-1.24,3.94,7.82,3.94,7.82l-.82.35Z"/>
      </g>
      <rect class="st1" x="112.53" y="120.73" width=".38" height="5.6" transform="translate(-23.74 26.86) rotate(-12.3)"/>
      <rect class="st1" x="110.59" y="120.74" width=".38" height="6.2" transform="translate(-50.05 82.11) rotate(-33.64)"/>
      <rect class="st1" x="109.57" y="122.58" width=".38" height="5.51" transform="translate(-54.73 151.82) rotate(-57.94)"/>
      <polygon class="st1" points="106.51 129.57 106.43 129.2 111.82 128.07 111.52 127.35 105.75 126.63 105.79 126.26 111.78 127.01 112.35 128.35 106.51 129.57"/>
      <rect class="st1" x="106.56" y="130.47" width="6.03" height=".38" transform="translate(-53.73 81.58) rotate(-33.29)"/>
      <rect class="st1" x="108.34" y="131.56" width="5.28" height=".38" transform="translate(-59.39 157.16) rotate(-58.37)"/>
      <rect class="st1" x="109.5" y="132.58" width="6.2" height=".38" transform="translate(-36.93 221.92) rotate(-80.5)"/>
      <rect class="st1" x="114.29" y="129.69" width=".38" height="5.46" transform="translate(-26.6 28.81) rotate(-12.86)"/>
      <rect class="st1" x="116.04" y="128.67" width=".38" height="6.5" transform="translate(-55 91.99) rotate(-35.49)"/>
      <rect class="st1" x="111.33" y="122.84" width="6.53" height=".38" transform="translate(-24.55 217.41) rotate(-81.18)"/>
      <rect class="st1" x="113.12" y="124.08" width="5.96" height=".38" transform="translate(-50.72 157.37) rotate(-58.17)"/>
      <rect class="st1" x="114.63" y="124.99" width="6.19" height=".38" transform="translate(-50.79 91.52) rotate(-35.46)"/>
      <rect class="st1" x="117.14" y="127.58" width=".38" height="5.59" transform="translate(-56 157.22) rotate(-56.82)"/>
      <rect class="st1" x="114.62" y="126.91" width="6.22" height=".38" transform="translate(-24.96 28.84) rotate(-12.64)"/>
      <rect class="st1" x="117.99" y="125.42" width=".38" height="6.76" transform="translate(-29.96 221.6) rotate(-79.53)"/>
      <path class="st17" d="M115.86,127.91c0,1.25-1.01,2.26-2.26,2.26s-2.26-1.01-2.26-2.26,1.01-2.26,2.26-2.26,2.26,1.01,2.26,2.26Z"/>
    </g>
    <g class="st14">
      <g>
        <path class="st11" d="M84.31,158.14s-2.71-8.74.39-8.74.5,8.74.5,8.74h-.89Z"/>
        <path class="st11" d="M85.13,161.74s2.71,8.74-.39,8.74-.5-8.74-.5-8.74h.89Z"/>
        <path class="st11" d="M86.52,159.53s8.74-2.71,8.74.39-8.74.5-8.74.5v-.89Z"/>
        <path class="st11" d="M82.92,160.35s-8.74,2.71-8.74-.39,8.74-.5,8.74-.5v.89Z"/>
      </g>
      <g>
        <path class="st11" d="M85.7,158.38s4.26-8.1,6.46-5.9c2.19,2.19-5.83,6.53-5.83,6.53l-.63-.63Z"/>
        <path class="st11" d="M83.73,161.5s-4.26,8.1-6.46,5.9c-2.19-2.19,5.83-6.53,5.83-6.53l.63.63Z"/>
        <path class="st11" d="M86.28,160.93s8.1,4.26,5.9,6.46-6.53-5.83-6.53-5.83l.63-.63Z"/>
        <path class="st11" d="M83.16,158.95s-8.1-4.26-5.9-6.46,6.53,5.83,6.53,5.83l-.63.63Z"/>
      </g>
      <g>
        <path class="st11" d="M85,158.11s.69-9.12,3.57-7.99c2.89,1.14-2.74,8.31-2.74,8.31l-.83-.33Z"/>
        <path class="st11" d="M84.44,161.77s-.69,9.12-3.57,7.99c-2.89-1.14,2.74-8.31,2.74-8.31l.83.33Z"/>
        <path class="st11" d="M86.54,160.22s9.12.69,7.99,3.57c-1.14,2.89-8.31-2.74-8.31-2.74l.33-.83Z"/>
        <path class="st11" d="M82.89,159.66s-9.12-.69-7.99-3.57c1.14-2.89,8.31,2.74,8.31,2.74l-.33.83Z"/>
      </g>
      <g>
        <path class="st11" d="M86.21,158.85s6.94-5.97,8.17-3.12c1.24,2.85-7.82,3.94-7.82,3.94l-.35-.82Z"/>
        <path class="st11" d="M83.23,161.03s-6.94,5.97-8.17,3.12c-1.24-2.85,7.82-3.94,7.82-3.94l.35.82Z"/>
        <path class="st11" d="M85.81,161.43s5.97,6.94,3.12,8.17c-2.85,1.24-3.94-7.82-3.94-7.82l.82-.35Z"/>
        <path class="st11" d="M83.63,158.45s-5.97-6.94-3.12-8.17c2.85-1.24,3.94,7.82,3.94,7.82l-.82.35Z"/>
      </g>
      <rect class="st1" x="83.65" y="152.75" width=".38" height="5.6" transform="translate(-31.22 21.44) rotate(-12.3)"/>
      <rect class="st1" x="81.72" y="152.77" width=".38" height="6.2" transform="translate(-72.63 71.48) rotate(-33.64)"/>
      <rect class="st1" x="80.69" y="154.61" width=".38" height="5.51" transform="translate(-95.42 142.38) rotate(-57.94)"/>
      <polygon class="st1" points="77.64 161.6 77.56 161.23 82.95 160.1 82.65 159.38 76.87 158.66 76.92 158.28 82.91 159.03 83.48 160.38 77.64 161.6"/>
      <rect class="st1" x="77.69" y="162.5" width="6.03" height=".38" transform="translate(-76.05 70.99) rotate(-33.29)"/>
      <rect class="st1" x="79.47" y="163.58" width="5.28" height=".38" transform="translate(-100.4 147.81) rotate(-58.37)"/>
      <rect class="st1" x="80.63" y="164.61" width="6.2" height=".38" transform="translate(-92.63 220.18) rotate(-80.5)"/>
      <rect class="st1" x="85.41" y="161.72" width=".38" height="5.46" transform="translate(-34.46 23.18) rotate(-12.86)"/>
      <rect class="st1" x="87.17" y="160.7" width=".38" height="6.5" transform="translate(-78.95 81.18) rotate(-35.49)"/>
      <rect class="st1" x="82.46" y="154.87" width="6.53" height=".38" transform="translate(-80.65 216) rotate(-81.18)"/>
      <rect class="st1" x="84.24" y="156.11" width="5.96" height=".38" transform="translate(-91.57 147.97) rotate(-58.17)"/>
      <rect class="st1" x="85.76" y="157.02" width="6.19" height=".38" transform="translate(-74.72 80.71) rotate(-35.46)"/>
      <rect class="st1" x="88.27" y="159.61" width=".38" height="5.59" transform="translate(-95.88 147.56) rotate(-56.82)"/>
      <rect class="st1" x="85.74" y="158.94" width="6.22" height=".38" transform="translate(-32.67 23.3) rotate(-12.64)"/>
      <rect class="st1" x="89.12" y="157.45" width=".38" height="6.76" transform="translate(-85.08 219.42) rotate(-79.53)"/>
      <path class="st17" d="M86.98,159.94c0,1.25-1.01,2.26-2.26,2.26s-2.26-1.01-2.26-2.26,1.01-2.26,2.26-2.26,2.26,1.01,2.26,2.26Z"/>
    </g>
    <path class="st3" d="M77.45,138.01l-5.13-4.16c-.64-.52-1.53-.5-2.15.05l-4.65,4.11c-.39.35-.62.87-.62,1.41v14.01c0,1.01.77,1.83,1.73,1.83h9.78c.95,0,1.73-.82,1.73-1.83v-13.96c0-.57-.25-1.11-.68-1.46ZM71.38,139.87c-1.09,0-1.98-.94-1.98-2.1s.89-2.1,1.98-2.1,1.98.94,1.98,2.1-.89,2.1-1.98,2.1Z"/>
    <path d="M71.51,137.96c-.32,0-.58-.27-.58-.61v-26.02c0-.34.26-.61.58-.61s.58.27.58.61v26.02c0,.34-.26.61-.58.61Z"/>
    <g>
      <g id="_ปาก" data-name="ปาก">
        <line class="st5" x1="124.81" y1="155.17" x2="130.28" y2="160.63"/>
        <line class="st5" x1="135.74" y1="155.17" x2="130.28" y2="160.63"/>
      </g>
      <g id="_แก้ม" data-name="แก้ม" class="st8">
        <circle id="_ซ้าย" data-name="ซ้าย" class="st16" cx="98.89" cy="152.5" r="9.92"/>
        <circle id="_ขวา" data-name="ขวา" class="st16" cx="163.35" cy="153.13" r="9.92"/>
      </g>
      <g id="_ตา" data-name="ตา">
        <circle id="_ซ้าย1" data-name="ซ้าย" cx="109.47" cy="144.66" r="3.99"/>
        <circle id="_ขวา1" data-name="ขวา" cx="152.56" cy="144.66" r="3.99"/>
        <circle class="st11" cx="109.57" cy="142.87" r="1.79"/>
        <circle class="st11" cx="152.67" cy="142.87" r="1.79"/>
      </g>
    </g>
  </g>
</svg>