<?xml version="1.0" encoding="UTF-8"?>
<svg id="Layer_41" xmlns="http://www.w3.org/2000/svg" xmlns:xlink="http://www.w3.org/1999/xlink" version="1.1" viewBox="0 0 248.55 279.75">
  <!-- Generator: Adobe Illustrator 30.0.0, SVG Export Plug-In . SVG Version: 2.1.1 Build 123)  -->
  <defs>
    <style>
      .st0, .st1 {
        fill: none;
      }

      .st2 {
        fill: url(#linear-gradient);
      }

      .st3 {
        opacity: .4;
      }

      .st3, .st4 {
        fill: #fff;
      }

      .st1 {
        stroke: #000;
        stroke-linecap: round;
        stroke-linejoin: round;
        stroke-width: 2.37px;
      }

      .st5 {
        fill: #ddb4ab;
      }

      .st6 {
        fill: #986251;
      }

      .st7 {
        opacity: .7;
      }

      .st8 {
        clip-path: url(#clippath);
      }
    </style>
    <clipPath id="clippath">
      <path class="st0" d="M155.73,257.28h-56.33c-12.97,0-24.03-9.42-26.09-22.22l-23.64-146.74c-.76-4.7,2.87-8.96,7.63-8.96h140.53c4.76,0,8.39,4.26,7.63,8.96l-23.64,146.74c-2.06,12.81-13.12,22.22-26.09,22.22Z"/>
    </clipPath>
    <linearGradient id="linear-gradient" x1="126.4" y1="281.08" x2="126.4" y2="57.05" gradientUnits="userSpaceOnUse">
      <stop offset=".54" stop-color="#fff"/>
      <stop offset="1" stop-color="#d6a99f"/>
    </linearGradient>
  </defs>
  <path d="M99.4,260.01c-2.2,0-4.39-.25-6.52-.74-11.06-2.53-19.71-11.35-22.02-22.47-.09-.44-.17-.88-.24-1.31l-19.98-124.03-3.67-22.77v-.03s-.09-.55-.09-.55c-.06-.37-.1-.76-.12-1.14-.12-2.63.8-5.15,2.58-7.11,1.24-1.37,2.83-2.35,4.59-2.86.89-.25,1.81-.38,2.74-.38h141.82c.75,0,1.49.08,2.21.25,2.29.52,4.33,1.85,5.74,3.75,1.29,1.73,1.97,3.78,1.97,5.92,0,.53-.04,1.06-.13,1.58l-23.75,147.37c-1.43,8.87-6.76,16.46-14.62,20.84-4.32,2.41-9.22,3.68-14.17,3.68h-56.33Z"/>
  <path class="st4" d="M205.65,86.54c0-1.59-.52-3.08-1.42-4.28-1-1.34-2.45-2.33-4.16-2.72-.51-.12-1.05-.18-1.6-.18h-.63s0,0,0,0H57.29s0,0,0,0h-.63c-.69,0-1.36.1-1.99.28-1.3.37-2.44,1.1-3.32,2.07-1.24,1.36-1.96,3.19-1.87,5.15.01.27.04.55.09.83l.1.59s0,.03,0,.04l3.66,22.71,19.99,124.03c.06.4.14.8.22,1.19,2.13,10.23,10.04,18.09,19.96,20.36,1.91.44,3.89.67,5.91.67h0s0,0,0,0h56.33c4.63,0,9.02-1.21,12.84-3.33,6.88-3.83,11.92-10.66,13.25-18.89l14-86.86h0s1.3-8.04,1.3-8.04h0l8.45-52.47c.06-.39.09-.77.09-1.15Z"/>
  <path id="_แก้วฟ้าฐาน" data-name="แก้วฟ้าฐาน" class="st4" d="M155.73,257.28h-56.33c-12.97,0-24.03-9.42-26.09-22.22l-23.75-147.37c-.7-4.37,2.67-8.33,7.09-8.33h141.82c4.42,0,7.8,3.96,7.09,8.33l-23.75,147.37c-2.06,12.81-13.12,22.22-26.09,22.22Z"/>
  <g class="st8">
    <path id="_นมใน" data-name="นมใน" class="st5" d="M199.35,142.08s-11.09-11.98-43.4-15.45-74.74,13.58-74.74,13.58l99.34,11.18,24.11-5.06-5.3-4.26Z"/>
  </g>
  <path id="_นม" data-name="นม" class="st2" d="M196.57,143.45l-14.76,91.6c-2.06,12.8-13.12,22.22-26.09,22.22h-56.33c-12.98,0-24.03-9.42-26.09-22.22l-17.08-105.98c13.71-6.04,38.11-11.22,67.32,7,30.23,18.85,57.87,13.26,73.02,7.37Z"/>
  <path id="_แก้วฟ้าใส" data-name="แก้วฟ้าใส" class="st3" d="M205.46,88.85l-8.89,55.14c-15.15,5.89-42.79,11.48-73.02-7.37-29.22-18.22-53.61-13.04-67.32-7l-6.57-40.77c-.76-4.7,2.87-8.96,7.63-8.96h140.54c4.76,0,8.39,4.26,7.63,8.96Z"/>
  <g>
    <path class="st6" d="M205.65,86.12c-1.69-.37-3.59-.64-5.73-.77-17.72-1.09-14.07,5.24-11.97,16.04,1.71,8.79-13.85,8.52-9.48-1.58,3.13-7.23-7.07-11.07-15.18-9.75-9.66,1.57-19.11,14.94-31,12.35-11.9-2.58-19.48-15.42-33.48-11.94-14,3.49-2.79,11.06-7.03,20.53-3.91,8.73-27.11,3.82-20.67-9.82,5.41-11.46-1.62-12.65-20.82-8.96l-.73-4.53c-.7-4.37,2.67-8.33,7.09-8.33h141.82c3.89,0,6.96,3.05,7.17,6.76Z"/>
    <circle class="st6" cx="182.7" cy="116.87" r="4.5"/>
  </g>
  <g id="_หน้า" data-name="หน้า">
    <g id="_ปาก" data-name="ปาก">
      <line class="st1" x1="119.5" y1="188.03" x2="126.36" y2="194.9"/>
      <line class="st1" x1="133.22" y1="188.03" x2="126.36" y2="194.9"/>
    </g>
    <g id="_แก้ม" data-name="แก้ม">
      <circle id="_ซ้าย" data-name="ซ้าย" class="st6" cx="86.95" cy="184.69" r="12.45"/>
      <circle id="_ขวา" data-name="ขวา" class="st6" cx="167.87" cy="185.48" r="12.45"/>
    </g>
    <g id="_ตา" data-name="ตา">
      <circle id="_ซ้าย1" data-name="ซ้าย" cx="100.23" cy="174.84" r="5.01"/>
      <circle id="_ขวา1" data-name="ขวา" cx="154.33" cy="174.84" r="5.01"/>
      <circle class="st4" cx="100.37" cy="172.6" r="2.24"/>
      <circle class="st4" cx="154.46" cy="172.6" r="2.24"/>
    </g>
  </g>
  <g id="_ควัน" data-name="ควัน" class="st7">
    <path class="st4" d="M141.64,13.77c.89,1.85,1.06,4.01,1,6.04-.24,4.89-2.31,9.56-5.1,13.52-.66.99-1.76,2.27-2.5,3.22-3.7,4.33-6.29,9.61-6.1,15.33.18,6.16,2.9,11.88,6.1,17.13-3.59-1.98-6.49-5.05-8.65-8.54-3.97-6.53-4.29-14.22-.83-21.02,1.33-2.62,3.1-4.93,5.08-6.91.81-.88,1.79-1.78,2.58-2.66,0,0,1.22-1.35,1.22-1.35.18-.2,1.26-1.56,1.43-1.75,1.36-1.82,2.63-3.72,3.62-5.77,1.09-2.27,1.94-4.7,2.15-7.23h0Z"/>
    <path class="st4" d="M120.97,23.68c.73,1.53.87,3.28.82,4.95-.2,4.01-1.89,7.84-4.19,11.09-.54.82-1.44,1.86-2.05,2.64-3.74,4.32-5.83,9.66-4.72,15.38.77,4.06,2.54,7.69,4.73,11.26-2.95-1.63-5.33-4.15-7.1-7.01-3.25-5.34-3.53-11.69-.68-17.25,1.09-2.15,2.54-4.04,4.17-5.67,1.07-1.1,2.11-2.13,3.12-3.29,2.89-3.44,5.47-7.53,5.9-12.11h0Z"/>
    <path class="st4" d="M152.99,32.4c.59,1.23.7,2.65.66,4-.16,3.24-1.53,6.33-3.38,8.96-.43.66-1.16,1.5-1.66,2.13-3.02,3.49-4.71,7.8-3.81,12.42.62,3.27,2.05,6.21,3.82,9.09-2.38-1.31-4.3-3.35-5.73-5.66-2.62-4.31-2.85-9.44-.55-13.93.88-1.73,2.05-3.27,3.37-4.58.86-.89,1.7-1.72,2.52-2.66,2.33-2.78,4.41-6.08,4.77-9.78h0Z"/>
  </g>
</svg>