<?xml version="1.0" encoding="UTF-8"?>
<svg id="Layer_41" xmlns="http://www.w3.org/2000/svg" xmlns:xlink="http://www.w3.org/1999/xlink" version="1.1" viewBox="0 0 248.55 279.75">
  <!-- Generator: Adobe Illustrator 30.0.0, SVG Export Plug-In . SVG Version: 2.1.1 Build 123)  -->
  <defs>
    <style>
      .st0 {
        stroke-width: 4.01px;
      }

      .st0, .st1 {
        fill: none;
        stroke: #000;
        stroke-linecap: round;
        stroke-linejoin: round;
      }

      .st2 {
        fill: url(#radial-gradient9);
      }

      .st2, .st3, .st4, .st5, .st6, .st7, .st8, .st9, .st10 {
        stroke-miterlimit: 10;
      }

      .st2, .st3, .st7 {
        stroke: #e821ab;
        stroke-width: .59px;
      }

      .st3 {
        fill: url(#radial-gradient8);
      }

      .st4 {
        fill: url(#radial-gradient5);
      }

      .st4, .st5, .st6 {
        stroke: #e8b921;
        stroke-width: .51px;
      }

      .st5 {
        fill: url(#radial-gradient7);
      }

      .st6 {
        fill: url(#radial-gradient6);
      }

      .st11 {
        fill: url(#linear-gradient1);
        opacity: .9;
      }

      .st12 {
        fill: #c7eaff;
      }

      .st7 {
        fill: url(#radial-gradient10);
      }

      .st13 {
        fill: url(#linear-gradient);
      }

      .st14, .st15 {
        fill: #fff;
      }

      .st14, .st16 {
        opacity: .8;
      }

      .st17 {
        fill: #faff17;
      }

      .st8 {
        fill: url(#radial-gradient11);
      }

      .st8, .st9, .st10 {
        stroke: #1fea93;
        stroke-width: .39px;
      }

      .st9 {
        fill: url(#radial-gradient13);
      }

      .st10 {
        fill: url(#radial-gradient12);
      }

      .st18 {
        fill: url(#radial-gradient);
      }

      .st18, .st19, .st20, .st21, .st22, .st23 {
        opacity: .7;
      }

      .st1 {
        stroke-width: 1.86px;
      }

      .st24 {
        fill: #ffc215;
      }

      .st25 {
        fill: #5497f7;
      }

      .st20 {
        fill: url(#radial-gradient4);
      }

      .st21 {
        fill: url(#radial-gradient2);
      }

      .st22 {
        fill: url(#radial-gradient3);
      }

      .st23 {
        fill: url(#radial-gradient1);
      }
    </style>
    <linearGradient id="linear-gradient" x1="125.11" y1="278.59" x2="125.11" y2="226.16" gradientUnits="userSpaceOnUse">
      <stop offset=".03" stop-color="#fff"/>
      <stop offset=".55" stop-color="#ccfaff"/>
      <stop offset=".92" stop-color="#5497f7"/>
    </linearGradient>
    <linearGradient id="linear-gradient1" x1="125.65" y1="56.4" x2="125.65" y2="244.74" gradientUnits="userSpaceOnUse">
      <stop offset=".03" stop-color="#fff"/>
      <stop offset=".55" stop-color="#ccfaff"/>
      <stop offset=".92" stop-color="#5497f7"/>
    </linearGradient>
    <radialGradient id="radial-gradient" cx="246.89" cy="2136.79" fx="246.89" fy="2136.79" r="30.31" gradientTransform="translate(-152.96 -1950.85)" gradientUnits="userSpaceOnUse">
      <stop offset="0" stop-color="#ccfaff"/>
      <stop offset="1" stop-color="#fff"/>
    </radialGradient>
    <radialGradient id="radial-gradient1" cx="57.23" cy="-339.63" fx="57.23" fy="-339.63" gradientTransform="translate(71.95 473.77)" xlink:href="#radial-gradient"/>
    <radialGradient id="radial-gradient2" cx="-1323.24" cy="-2776.91" fx="-1323.24" fy="-2776.91" gradientTransform="translate(1503.4 2936)" xlink:href="#radial-gradient"/>
    <radialGradient id="radial-gradient3" cx="158.4" cy="2796.55" fx="158.4" fy="2796.55" r="19.49" gradientTransform="translate(-4.44 -2606.13)" xlink:href="#radial-gradient"/>
    <radialGradient id="radial-gradient4" cx="-934.38" cy="-1987.05" fx="-934.38" fy="-1987.05" r="19.49" gradientTransform="translate(1002.91 2135.98)" xlink:href="#radial-gradient"/>
    <radialGradient id="radial-gradient5" cx="-421.86" cy="4900.86" fx="-421.86" fy="4900.86" r="34.14" gradientTransform="translate(-2593 -3973.05) rotate(-37.75)" gradientUnits="userSpaceOnUse">
      <stop offset="0" stop-color="#fff"/>
      <stop offset=".86" stop-color="#ff6"/>
    </radialGradient>
    <radialGradient id="radial-gradient6" cx="-431.53" cy="4921.64" fx="-431.53" fy="4921.64" r="7.49" gradientTransform="translate(-2593 -3973.05) rotate(-37.75)" gradientUnits="userSpaceOnUse">
      <stop offset="0" stop-color="#fff"/>
      <stop offset="1" stop-color="#efd259"/>
    </radialGradient>
    <radialGradient id="radial-gradient7" cx="-413.18" cy="4921.79" fx="-413.18" fy="4921.79" r="7.49" xlink:href="#radial-gradient6"/>
    <radialGradient id="radial-gradient8" cx="-2296.68" cy="-3553.29" fx="-2296.68" fy="-3553.29" r="39.73" gradientTransform="translate(-296.69 4379.54) rotate(39.18)" gradientUnits="userSpaceOnUse">
      <stop offset="0" stop-color="#fff"/>
      <stop offset=".86" stop-color="#fb66ff"/>
    </radialGradient>
    <radialGradient id="radial-gradient9" cx="-2307.93" cy="-3529.11" fx="-2307.93" fy="-3529.11" r="8.72" gradientTransform="translate(-296.69 4379.54) rotate(39.18)" gradientUnits="userSpaceOnUse">
      <stop offset="0" stop-color="#fff"/>
      <stop offset=".86" stop-color="#ff66d7"/>
    </radialGradient>
    <radialGradient id="radial-gradient10" cx="-2286.57" cy="-3528.94" fx="-2286.57" fy="-3528.94" r="8.72" gradientTransform="translate(-296.69 4379.54) rotate(39.18)" gradientUnits="userSpaceOnUse">
      <stop offset="0" stop-color="#fff"/>
      <stop offset=".86" stop-color="#ff66d7"/>
    </radialGradient>
    <radialGradient id="radial-gradient11" cx="-665.46" cy="-1852.31" fx="-665.46" fy="-1852.31" r="26.13" gradientTransform="translate(170.96 2083.81) rotate(18.76)" gradientUnits="userSpaceOnUse">
      <stop offset="0" stop-color="#fff"/>
      <stop offset=".86" stop-color="#64ffaa"/>
    </radialGradient>
    <radialGradient id="radial-gradient12" cx="-672.86" cy="-1836.41" fx="-672.86" fy="-1836.41" r="5.73" gradientTransform="translate(170.96 2083.81) rotate(18.76)" gradientUnits="userSpaceOnUse">
      <stop offset="0" stop-color="#fff"/>
      <stop offset="1" stop-color="#57f2ba"/>
    </radialGradient>
    <radialGradient id="radial-gradient13" cx="-658.82" cy="-1836.29" fx="-658.82" fy="-1836.29" r="5.73" xlink:href="#radial-gradient12"/>
  </defs>
  <path d="M125.11,265.44c-16.43,0-31.9-1.72-43.57-4.85-12.8-3.43-19.56-8.2-19.56-13.81,0-4.83,4.83-8.94,14.35-12.23,7.12-2.45,16.72-4.34,27.44-5.41-10.6-.8-20.64-3.77-29.92-8.88-10.18-5.6-19.05-13.7-25.64-23.41-6.6-9.71-10.86-20.93-12.32-32.45-1.56-12.3-.02-24.5,4.57-36.26l21.32-54.6h5.44l-.93-1.05c-2.29-2.6-5.58-4.1-9.03-4.1-.79,0-1.59.08-2.37.23-1.61.32-3.1.95-4.44,1.87l-5.13,3.51,1.74-7.17c1.58-6.5,5.09-12.47,10.15-17.26,4.13-3.91,9.21-6.89,14.5-8.55l-.36-1.78c-.4-2,.9-3.95,2.9-4.35.24-.05.48-.07.72-.07,1.76,0,3.28,1.25,3.62,2.97l.36,1.82c.98-.08,1.97-.12,2.96-.12,4.35,0,8.65.76,12.78,2.26,6.78,2.45,12.52,6.7,16.6,12.28l4.35,5.95-6.08-1.28c-.81-.17-1.63-.26-2.46-.26s-1.58.08-2.36.23c-3.86.77-7.11,3.41-8.68,6.98l-.32.91c-.04.11-.07.22-.11.33l-1.04,3.36-2.74-2.21c-2.26-1.82-5.02-2.93-7.89-3.17l1.72,8.64h103.8l21.32,54.6c4.61,11.8,6.14,24.03,4.56,36.35-1.48,11.55-5.77,22.79-12.41,32.51-6.64,9.72-15.55,17.8-25.77,23.38-9.4,5.13-19.58,8.08-30.32,8.8,10.54,1.08,19.97,2.94,26.98,5.36,9.52,3.28,14.35,7.4,14.35,12.23,0,5.61-6.76,10.38-19.56,13.81-11.67,3.13-27.14,4.85-43.57,4.85ZM78.19,73.55l-1.46-7.36c-2.7,1.24-4.94,3.28-6.46,5.91l-.03.05-.36,1.39h8.32Z"/>
  <path class="st15" d="M141.7,226.99c50.57,0,85.32-50.86,66.92-97.97l-20.73-53.08h-104.12l-2.66-13.37c4.54-.46,8.92.95,12.28,3.66.04-.14.09-.28.14-.42l-.03-.03c1.63-4.67,5.61-8.38,10.8-9.41,1.97-.39,3.93-.36,5.78.03l-.69-.94c-3.99-5.46-9.51-9.28-15.49-11.45-5.5-1.99-11.38-2.58-16.84-1.75l-.79-3.97c-.14-.71-.83-1.17-1.54-1.03-.71.14-1.17.83-1.03,1.54l.79,3.96c-11.3,2.7-22.01,11.93-25.1,24.66l-.27,1.13c1.56-1.07,3.36-1.84,5.33-2.24,5.23-1.04,10.36.89,13.65,4.63l.02-.09c-.23-1.5-1.91-14.38,6.59-26.98v.02c-8.43,12.57-6.76,25.4-6.53,26.9l-.02.09s.03.04.05.05c2.18-3.79,5.82-6.71,10.33-7.89l2.57,12.9h-17.68l-20.73,53.08c-18.35,47,16.18,97.73,66.56,97.97v4.09c-25.86,1.87-44.88,8.19-44.88,15.71,0,8.99,27.2,16.27,60.75,16.27s60.75-7.29,60.75-16.27c0-7.52-19.03-13.84-44.88-15.71v-4.09h.73Z"/>
  <g id="_ฐาน" data-name="ฐาน">
    <g>
      <path class="st15" d="M140.98,231.08v-14.94h-31.73v14.94c-25.86,1.87-44.88,8.19-44.88,15.71,0,8.99,27.2,16.27,60.75,16.27s60.75-7.29,60.75-16.27c0-7.52-19.03-13.84-44.88-15.71Z"/>
      <path class="st13" d="M137.18,235.77v-13.12h-24.14v13.12c-19.08,1.2-33.09,5.2-33.09,9.93,0,5.69,20.22,10.31,45.15,10.31s45.15-4.61,45.15-10.31c0-4.74-14.01-8.73-33.09-9.93Z"/>
    </g>
    <g>
      <path class="st12" d="M75.75,239.73c-.27-.37-7.7,2.55-7.86,6.51-.23,5.71,14.88,9.84,14.92,9.76.03-.07-12.63-3.67-12.75-9.22-.08-3.86,5.94-6.71,5.7-7.05Z"/>
      <path class="st12" d="M168.5,237.84c.06-.17,14.47,2.1,14.64,7.86.15,4.67-9.14,8.26-9.22,8.14-.08-.12,8.13-3.66,7.86-7.86-.33-5.19-13.35-7.97-13.29-8.14Z"/>
      <g>
        <ellipse class="st12" cx="87.01" cy="257.23" rx=".68" ry="1.76" transform="translate(-184.19 271.03) rotate(-74.23)"/>
        <ellipse class="st12" cx="90.52" cy="258.05" rx=".51" ry=".48" transform="translate(-175.56 194.93) rotate(-57.32)"/>
      </g>
      <g>
        <ellipse class="st12" cx="164.72" cy="237.01" rx=".68" ry="1.76" transform="translate(-96.49 359.8) rotate(-80.38)"/>
        <ellipse class="st12" cx="161.14" cy="236.57" rx=".51" ry=".48" transform="translate(-122.49 275.1) rotate(-63.48)"/>
      </g>
    </g>
  </g>
  <path id="_พื้นหลังน้ำ" data-name="พื้นหลังน้ำ" class="st15" d="M141.7,226.99h-32.1c-50.57,0-85.32-50.86-66.92-97.97l20.73-53.08h124.48l20.73,53.08c18.4,47.11-16.35,97.97-66.92,97.97Z"/>
  <polyline class="st0" points="156.31 181.71 172.97 56.44 219.82 43.75"/>
  <g id="_ไม้ร้ม" data-name="ไม้ร้ม">
    <g>
      <path class="st24" d="M108.49,206.75c-.71.14-1.4-.32-1.54-1.03L73.7,38.79c-.14-.71.32-1.4,1.03-1.54s1.4.32,1.54,1.03l33.25,166.93c.14.71-.32,1.4-1.03,1.54Z"/>
      <circle class="st24" cx="108.3" cy="205.51" r="4.89"/>
    </g>
    <g>
      <path class="st24" d="M110.08,56.39c-1.85-.39-3.81-.42-5.78-.03-5.23,1.04-9.23,4.79-10.84,9.5l-.06-.07c-.37-1.51-3.98-14.9-17.78-23.26l.4.52-.4-.52c-9.54,13-7.75,26.74-7.51,28.29l-.02.09c-3.29-3.74-8.42-5.67-13.65-4.63-1.97.39-3.77,1.17-5.33,2.24l.27-1.13c3.19-13.15,14.52-22.57,26.23-24.9,5.86-1.17,12.3-.66,18.29,1.51,5.98,2.17,11.49,5.99,15.49,11.45l.69.94Z"/>
      <path class="st17" d="M93.53,65.81c-.05.14-.09.28-.14.42-3.76-3.03-8.78-4.44-13.89-3.42-4.96.99-8.97,4.05-11.31,8.11-.02-.02-.03-.04-.05-.05l.02-.09c-.24-1.55-2.02-15.29,7.51-28.29l.4.52-.4-.52c13.8,8.36,17.41,21.75,17.78,23.26l.06.07Z"/>
    </g>
  </g>
  <path id="_น้ำ" data-name="น้ำ" class="st11" d="M141.7,226.99h-32.1c-50.57,0-85.32-50.86-66.92-97.97l20.73-53.08h124.48l20.73,53.08c18.4,47.11-16.35,97.97-66.92,97.97Z"/>
  <g id="_น้ำแข๊ง" data-name="น้ำแข๊ง">
    <rect class="st18" x="73.85" y="166.78" width="40.14" height="38.31" rx="6.46" ry="6.46" transform="translate(-47.67 33.15) rotate(-16.02)"/>
    <rect class="st23" x="109.11" y="114.98" width="40.14" height="38.31" rx="6.46" ry="6.46" transform="translate(10.86 -9.67) rotate(4.48)"/>
    <rect class="st21" x="160.1" y="139.93" width="40.14" height="38.31" rx="6.46" ry="6.46" transform="translate(99.63 -67.37) rotate(28.98)"/>
    <rect class="st22" x="141.06" y="178.1" width="25.81" height="24.63" rx="4.15" ry="4.15" transform="translate(-54.25 61.54) rotate(-19.29)"/>
    <rect class="st20" x="55.63" y="136.61" width="25.81" height="24.63" rx="4.15" ry="4.15" transform="translate(59.59 -14.77) rotate(21.58)"/>
  </g>
  <g class="st19">
    <path class="st4" d="M84.7,148.89l-1.08.82-1.72-2.25c-1.17-1.54-2.62-2.74-4.21-3.59.86-2,.64-4.38-.77-6.24-2.09-2.74-6-3.27-8.73-1.18-2.23,1.7-2.99,4.6-2.08,7.1-.83.39-1.64.87-2.4,1.45l-2.51,1.91c-.73.56-1.39,1.18-1.97,1.85-2.16-1.53-5.16-1.56-7.38.13-2.74,2.09-3.27,6-1.18,8.73,1.39,1.82,3.59,2.67,5.71,2.41.39,1.79,1.17,3.52,2.35,5.07l1.72,2.25-1,.76c-2.72,2.07-3.24,5.95-1.17,8.66s5.95,3.24,8.66,1.17l1-.76,2.81,3.7c2.62,3.44,7.52,4.1,10.96,1.48l10.73-8.17c3.44-2.62,4.1-7.52,1.48-10.96l-2.81-3.7,1.08-.82c2.72-2.07,3.24-5.95,1.17-8.66s-5.95-3.24-8.66-1.17Z"/>
    <g>
      <circle class="st6" cx="78.61" cy="182.82" r="7.49"/>
      <circle class="st5" cx="93.21" cy="171.7" r="7.49"/>
    </g>
    <g>
      <circle cx="64.13" cy="157.34" r="2.07"/>
      <path d="M70.72,156.55l.2-.66c.07-.24-.2-.43-.4-.28l-.89.68c-.2.15-.09.47.16.46l.69-.02c.11,0,.21-.08.24-.18Z"/>
      <path d="M72.92,156.61c-.63.48-1.52.39-2.04-.19-.02-.04-.05-.07-.07-.11-.12-.16-.35-.19-.51-.07,0,0,0,0,0,0,0,0,0,0,0,0-.16.12-.19.35-.07.51.03.04.06.07.08.1.42.66.27,1.54-.36,2.02-.16.12-.19.35-.07.51s.35.19.51.07c.62-.48.93-1.21.88-1.94.69.24,1.48.14,2.11-.33.16-.12.19-.35.07-.51s-.35-.19-.51-.07Z"/>
      <circle cx="73.04" cy="150.55" r="2.07"/>
    </g>
    <g id="_เงาใส" data-name="เงาใส">
      <ellipse class="st15" cx="94.56" cy="167.85" rx="2.3" ry="2.29" transform="translate(-91.7 217.05) rotate(-75.4)"/>
      <circle class="st15" cx="93.36" cy="172.49" r="1.08" transform="translate(-97.09 219.36) rotate(-75.4)"/>
      <ellipse class="st15" cx="79.81" cy="179.08" rx="2.3" ry="2.29" transform="translate(-113.6 211.17) rotate(-75.4)"/>
      <circle class="st15" cx="78.61" cy="183.72" r="1.08" transform="translate(-118.99 213.48) rotate(-75.4)"/>
      <ellipse class="st15" cx="56.21" cy="151.14" rx="1.83" ry="3.68" transform="translate(-104.21 167.44) rotate(-75.4)"/>
      <circle class="st15" cx="55.23" cy="154.92" r="1.07" transform="translate(-108.61 169.32) rotate(-75.4)"/>
      <ellipse class="st15" cx="72.72" cy="138.57" rx="1.83" ry="3.68" transform="translate(-79.71 174.01) rotate(-75.4)"/>
      <circle class="st15" cx="71.73" cy="142.36" r="1.07" transform="translate(-84.11 175.89) rotate(-75.4)"/>
      <circle class="st15" cx="64.02" cy="156.48" r=".63"/>
      <circle class="st15" cx="72.94" cy="149.69" r=".63"/>
    </g>
  </g>
  <g class="st19">
    <path class="st3" d="M183.8,183.8l-1.22-1.01,2.1-2.54c1.43-1.73,2.42-3.69,2.96-5.72,2.49.44,5.14-.43,6.87-2.51,2.56-3.09,2.13-7.66-.96-10.21-2.51-2.08-6-2.18-8.59-.49-.66-.84-1.42-1.63-2.27-2.34l-2.83-2.34c-.83-.68-1.7-1.27-2.62-1.75,1.17-2.86.41-6.25-2.09-8.33-3.09-2.56-7.66-2.13-10.21.96-1.7,2.06-2.08,4.77-1.23,7.11-1.92.92-3.68,2.25-5.13,4l-2.1,2.54-1.13-.93c-3.06-2.53-7.59-2.11-10.13.95-2.53,3.06-2.11,7.59.95,10.13l1.13.93-3.45,4.16c-3.21,3.87-2.67,9.61,1.2,12.81l12.08,10.01c3.87,3.21,9.61,2.67,12.81-1.2l3.45-4.16,1.22,1.01c3.06,2.53,7.59,2.11,10.13-.95,2.53-3.06,2.11-7.59-.95-10.13Z"/>
    <g>
      <circle class="st2" cx="143.73" cy="185.83" r="8.72"/>
      <circle class="st7" cx="160.18" cy="199.46" r="8.72"/>
    </g>
    <g>
      <circle cx="168.8" cy="162.7" r="2.41"/>
      <path d="M171.43,169.97l.8.05c.29.02.44-.34.21-.53l-1.01-.83c-.22-.19-.56.02-.48.31l.2.78c.03.12.14.22.27.22Z"/>
      <path d="M171.95,172.48c-.71-.59-.84-1.62-.33-2.37.03-.04.07-.07.1-.11.15-.18.13-.45-.06-.6,0,0,0,0,0,0,0,0,0,0,0,0-.18-.15-.45-.13-.6.06-.03.04-.06.08-.09.12-.64.65-1.67.71-2.39.12-.18-.15-.45-.13-.6.06s-.13.45.06.6c.7.58,1.62.73,2.44.49-.09.85.23,1.72.93,2.3.18.15.45.13.6-.06s.13-.45-.06-.6Z"/>
      <circle cx="178.84" cy="171.02" r="2.41"/>
    </g>
    <g id="_เงาใส1" data-name="เงาใส">
      <ellipse class="st15" cx="164.91" cy="199.97" rx="2.67" ry="2.67" transform="translate(-39.38 359.5) rotate(-88.48)"/>
      <circle class="st15" cx="159.33" cy="199.83" r="1.25" transform="translate(-44.67 353.79) rotate(-88.48)"/>
      <ellipse class="st15" cx="148.29" cy="186.21" rx="2.67" ry="2.67" transform="translate(-41.79 329.49) rotate(-88.48)"/>
      <circle class="st15" cx="142.71" cy="186.07" r="1.25" transform="translate(-47.09 323.78) rotate(-88.48)"/>
      <ellipse class="st15" cx="173.75" cy="152.1" rx="4.28" ry="2.13" transform="translate(17.09 321.75) rotate(-88.48)"/>
      <circle class="st15" cx="169.2" cy="151.98" r="1.25" transform="translate(12.78 317.08) rotate(-88.48)"/>
      <ellipse class="st15" cx="192.34" cy="167.5" rx="4.28" ry="2.13" transform="translate(19.79 355.32) rotate(-88.48)"/>
      <circle class="st15" cx="187.79" cy="167.38" r="1.25" transform="translate(15.48 350.65) rotate(-88.48)"/>
      <circle class="st15" cx="169.75" cy="162.35" r=".73"/>
      <circle class="st15" cx="179.8" cy="170.67" r=".73"/>
    </g>
  </g>
  <g class="st19">
    <path class="st8" d="M148.73,118.13l-.98-.34.71-2.05c.49-1.4.64-2.83.51-4.21,1.64-.3,3.07-1.44,3.66-3.12.87-2.49-.45-5.21-2.93-6.08-2.02-.71-4.2.03-5.41,1.67-.6-.37-1.25-.68-1.94-.92l-2.28-.79c-.67-.23-1.34-.39-2.01-.48.06-2.03-1.18-3.95-3.2-4.65-2.49-.87-5.21.45-6.08,2.93-.58,1.66-.19,3.42.87,4.67-.97,1.01-1.75,2.23-2.24,3.64l-.71,2.05-.91-.32c-2.47-.86-5.16.44-6.02,2.91s.44,5.16,2.91,6.02l.91.32-1.17,3.36c-1.09,3.12.56,6.53,3.68,7.62l9.74,3.4c3.12,1.09,6.53-.56,7.62-3.68l1.17-3.36.98.34c2.47.86,5.16-.44,6.02-2.91.86-2.47-.44-5.16-2.91-6.02Z"/>
    <g>
      <circle class="st10" cx="124.5" cy="128.57" r="5.73"/>
      <circle class="st9" cx="137.76" cy="133.19" r="5.73"/>
    </g>
    <g>
      <circle cx="134.64" cy="108.56" r="1.59"/>
      <path d="M137.93,112.44l.51-.15c.18-.05.19-.31,0-.38l-.81-.28c-.18-.06-.34.14-.23.3l.3.43c.05.07.14.1.22.08Z"/>
      <path d="M138.83,113.87c-.57-.2-.89-.81-.74-1.38.01-.03.03-.06.04-.09.05-.15-.03-.31-.17-.36,0,0,0,0,0,0,0,0,0,0,0,0-.15-.05-.31.03-.36.17-.01.03-.02.06-.03.1-.24.54-.87.82-1.44.62-.15-.05-.31.03-.36.17s.03.31.17.36c.57.2,1.17.08,1.61-.26.14.54.54,1.01,1.1,1.21.15.05.31-.03.36-.17s-.03-.31-.17-.36Z"/>
      <circle cx="142.74" cy="111.39" r="1.59"/>
    </g>
    <g id="_เงาใส2" data-name="เงาใส">
      <circle class="st15" cx="140.79" cy="132.42" r="1.76" transform="translate(-35.29 52.72) rotate(-18.89)"/>
      <circle class="st15" cx="137.32" cy="133.62" r=".82" transform="translate(-35.87 51.66) rotate(-18.89)"/>
      <circle class="st15" cx="127.39" cy="127.75" r="1.76" transform="translate(-34.5 48.13) rotate(-18.89)"/>
      <circle class="st15" cx="123.92" cy="128.95" r=".82" transform="translate(-35.08 47.07) rotate(-18.89)"/>
      <ellipse class="st15" cx="135.26" cy="100.89" rx="1.4" ry="2.81" transform="translate(-25.38 49.23) rotate(-18.89)"/>
      <circle class="st15" cx="132.43" cy="101.86" r=".82" transform="translate(-25.85 48.37) rotate(-18.89)"/>
      <ellipse class="st15" cx="150.25" cy="106.12" rx="1.4" ry="2.81" transform="translate(-26.27 54.37) rotate(-18.89)"/>
      <circle class="st15" cx="147.42" cy="107.09" r=".82" transform="translate(-26.73 53.5) rotate(-18.89)"/>
      <circle class="st15" cx="135.15" cy="108.13" r=".48"/>
      <circle class="st15" cx="143.25" cy="110.95" r=".48"/>
    </g>
  </g>
  <g id="_ฟอง" data-name="ฟอง" class="st16">
    <path class="st14" d="M155.69,115.09c.02,4.18,3.42,7.56,7.61,7.54s7.56-3.43,7.54-7.61c-.02-4.18-3.42-7.56-7.61-7.54-4.18.02-7.56,3.42-7.54,7.61Z"/>
    <path class="st14" d="M112.04,105.17c0,1.4,1.15,2.53,2.55,2.53,1.4,0,2.53-1.15,2.53-2.55,0-1.4-1.15-2.53-2.55-2.53-1.4,0-2.53,1.15-2.53,2.55Z"/>
    <path class="st14" d="M128.5,142.81c0,1.55,1.27,2.8,2.82,2.79,1.55,0,2.8-1.27,2.79-2.82,0-1.55-1.27-2.8-2.82-2.79-1.55,0-2.8,1.27-2.79,2.82Z"/>
    <path class="st14" d="M85.16,147.87c.01,2.68,2.2,4.85,4.88,4.84,2.68-.01,4.85-2.2,4.84-4.88-.01-2.68-2.2-4.85-4.88-4.84-2.68.01-4.85,2.2-4.84,4.88Z"/>
    <path class="st14" d="M77.43,111.65c0,2.09,1.71,3.78,3.8,3.77,2.09,0,3.78-1.71,3.77-3.8,0-2.09-1.71-3.78-3.8-3.77-2.09,0-3.78,1.71-3.77,3.8Z"/>
    <path class="st14" d="M112.37,181.36c0,1.4,1.15,2.53,2.55,2.53,1.4,0,2.53-1.15,2.53-2.55,0-1.4-1.15-2.53-2.55-2.53-1.4,0-2.53,1.15-2.53,2.55Z"/>
    <path class="st14" d="M148.95,163.5c0,1.92,1.57,3.47,3.49,3.46,1.92,0,3.47-1.57,3.46-3.49,0-1.92-1.57-3.47-3.49-3.46-1.92,0-3.47,1.57-3.46,3.49Z"/>
    <path class="st14" d="M137.17,207.22c.02,4.27,3.49,7.71,7.76,7.69,4.27-.02,7.71-3.49,7.69-7.76-.02-4.27-3.49-7.71-7.76-7.69-4.27.02-7.71,3.49-7.69,7.76Z"/>
    <path class="st14" d="M90.18,183.89c0,1.34,1.1,2.43,2.44,2.42,1.34,0,2.43-1.1,2.42-2.44,0-1.34-1.1-2.43-2.44-2.42-1.34,0-2.43,1.1-2.42,2.44Z"/>
    <path class="st14" d="M106.65,125.63c0,1.51,1.24,2.73,2.75,2.73,1.51,0,2.73-1.24,2.73-2.75,0-1.51-1.24-2.73-2.75-2.73-1.51,0-2.73,1.24-2.73,2.75Z"/>
  </g>
  <g>
    <g id="_ปาก" data-name="ปาก">
      <line class="st1" x1="118.92" y1="153.51" x2="124.29" y2="158.88"/>
      <line class="st1" x1="129.65" y1="153.51" x2="124.29" y2="158.88"/>
    </g>
    <g id="_แก้ม" data-name="แก้ม" class="st16">
      <g>
        <g id="_ซ้าย" data-name="ซ้าย">
          <circle class="st25" cx="93.45" cy="150.89" r="9.74"/>
        </g>
        <g id="_ขวา" data-name="ขวา">
          <circle class="st25" cx="156.78" cy="151.51" r="9.74"/>
        </g>
      </g>
    </g>
    <g id="_ตา" data-name="ตา">
      <circle id="_ซ้าย1" data-name="ซ้าย" cx="103.84" cy="143.18" r="3.92"/>
      <circle id="_ขวา1" data-name="ขวา" cx="146.18" cy="143.18" r="3.92"/>
      <circle class="st15" cx="103.94" cy="141.43" r="1.76"/>
      <circle class="st15" cx="146.28" cy="141.43" r="1.76"/>
    </g>
  </g>
</svg>