<?xml version="1.0" encoding="UTF-8"?>
<svg id="Layer_37" xmlns="http://www.w3.org/2000/svg" xmlns:xlink="http://www.w3.org/1999/xlink" version="1.1" viewBox="0 0 267.9 284.53">
  <!-- Generator: Adobe Illustrator 30.0.0, SVG Export Plug-In . SVG Version: 2.1.1 Build 123)  -->
  <defs>
    <style>
      .st0 {
        fill: #ef59dd;
      }

      .st1 {
        stroke-width: 4.08px;
      }

      .st1, .st2 {
        fill: none;
        stroke: #000;
        stroke-linecap: round;
        stroke-linejoin: round;
      }

      .st3 {
        fill: url(#linear-gradient1);
      }

      .st3, .st4 {
        opacity: .9;
      }

      .st5 {
        fill: #6f9;
      }

      .st6, .st7 {
        fill: #fff;
      }

      .st6, .st8 {
        opacity: .8;
      }

      .st9 {
        fill: url(#radial-gradient);
      }

      .st9, .st10, .st11, .st12, .st13, .st14 {
        opacity: .7;
      }

      .st2 {
        stroke-width: 1.89px;
      }

      .st4 {
        fill: url(#linear-gradient);
      }

      .st15 {
        fill: #d10f3d;
      }

      .st11 {
        fill: url(#radial-gradient4);
      }

      .st12 {
        fill: url(#radial-gradient2);
      }

      .st13 {
        fill: url(#radial-gradient3);
      }

      .st14 {
        fill: url(#radial-gradient1);
      }

      .st16 {
        fill: url(#linear-gradient7);
      }

      .st16, .st17 {
        stroke-width: .39px;
      }

      .st16, .st17, .st18, .st19, .st20, .st21 {
        stroke: #d3316f;
        stroke-miterlimit: 10;
      }

      .st17 {
        fill: url(#linear-gradient6);
      }

      .st18 {
        fill: url(#linear-gradient3);
      }

      .st18, .st19 {
        stroke-width: .56px;
      }

      .st19 {
        fill: url(#linear-gradient2);
      }

      .st22 {
        fill: #ffcafb;
      }

      .st20 {
        fill: url(#linear-gradient5);
      }

      .st20, .st21 {
        stroke-width: .49px;
      }

      .st21 {
        fill: url(#linear-gradient4);
      }

      .st23 {
        fill: #fcdc94;
      }
    </style>
    <linearGradient id="linear-gradient" x1="131.46" y1="274.15" x2="131.46" y2="220.79" gradientUnits="userSpaceOnUse">
      <stop offset=".03" stop-color="#fff"/>
      <stop offset=".55" stop-color="#ffcfff"/>
      <stop offset=".92" stop-color="#ef59dd"/>
    </linearGradient>
    <linearGradient id="linear-gradient1" x1="132.01" y1="48" x2="132.01" y2="239.7" xlink:href="#linear-gradient"/>
    <radialGradient id="radial-gradient" cx="249.34" cy="2124.38" fx="249.34" fy="2124.38" r="30.85" gradientTransform="translate(-149.62 -1944.53)" gradientUnits="userSpaceOnUse">
      <stop offset="0" stop-color="#ffd2fd"/>
      <stop offset="1" stop-color="#fff"/>
    </radialGradient>
    <radialGradient id="radial-gradient1" cx="64.81" cy="-345.12" fx="64.81" fy="-345.12" r="30.85" gradientTransform="translate(70.79 472.25)" gradientUnits="userSpaceOnUse">
      <stop offset="0" stop-color="#ffd2fd"/>
      <stop offset="1" stop-color="#fff"/>
    </radialGradient>
    <radialGradient id="radial-gradient2" cx="-1306.45" cy="-2775.98" fx="-1306.45" fy="-2775.98" r="30.85" gradientTransform="translate(1493.94 2928.51)" gradientUnits="userSpaceOnUse">
      <stop offset="0" stop-color="#ffd2fd"/>
      <stop offset="1" stop-color="#fff"/>
    </radialGradient>
    <radialGradient id="radial-gradient3" cx="161.38" cy="2783.19" fx="161.38" fy="2783.19" r="19.84" gradientTransform="translate(-.55 -2598.78)" xlink:href="#radial-gradient2"/>
    <radialGradient id="radial-gradient4" cx="-922.26" cy="-1987" fx="-922.26" fy="-1987" r="19.84" gradientTransform="translate(996.14 2129.18)" xlink:href="#radial-gradient2"/>
    <linearGradient id="linear-gradient2" x1="-351.25" y1="-828.03" x2="-313.09" y2="-887.46" gradientTransform="translate(356.57 1084.82) rotate(9.39)" gradientUnits="userSpaceOnUse">
      <stop offset="0" stop-color="#f276e4" stop-opacity=".9"/>
      <stop offset="1" stop-color="#f80c39"/>
    </linearGradient>
    <linearGradient id="linear-gradient3" x1="-329.41" y1="-867.09" x2="-303.77" y2="-892.87" gradientTransform="translate(356.57 1084.82) rotate(9.39)" gradientUnits="userSpaceOnUse">
      <stop offset=".31" stop-color="#96cb49"/>
      <stop offset=".77" stop-color="#f488e9" stop-opacity=".9"/>
    </linearGradient>
    <linearGradient id="linear-gradient4" x1="-2363.39" y1="8433.16" x2="-2330.08" y2="8381.29" gradientTransform="translate(-7262.95 -4540.08) rotate(-72.99)" xlink:href="#linear-gradient2"/>
    <linearGradient id="linear-gradient5" x1="-2344.32" y1="8399.07" x2="-2321.94" y2="8376.56" gradientTransform="translate(-7262.95 -4540.08) rotate(-72.99)" xlink:href="#linear-gradient3"/>
    <linearGradient id="linear-gradient6" x1="382.86" y1="1005.62" x2="409.42" y2="964.26" gradientTransform="translate(-343.83 -837.22) rotate(-5.38)" xlink:href="#linear-gradient2"/>
    <linearGradient id="linear-gradient7" x1="398.06" y1="978.43" x2="415.91" y2="960.49" gradientTransform="translate(-343.83 -837.22) rotate(-5.38)" xlink:href="#linear-gradient3"/>
  </defs>
  <path d="M131.46,260.77c-16.72,0-32.47-1.75-44.35-4.93-13.02-3.49-19.91-8.35-19.91-14.05,0-4.92,4.91-9.1,14.61-12.44,7.24-2.5,17.02-4.41,27.93-5.5-10.79-.81-21.01-3.84-30.45-9.04-10.36-5.7-19.39-13.94-26.1-23.83-6.71-9.88-11.05-21.3-12.54-33.03-1.59-12.52-.02-24.93,4.65-36.91l21.7-55.57h4.73l-2.94-12.72c-1.31,2.46-3.16,4.74-5.78,4.74-.16,0-.31,0-.46-.03-2.13,3.26-3.67,4.51-5.37,4.51-.61,0-1.19-.18-1.68-.51-2.36,2.43-3.63,2.98-4.79,2.98-.92,0-1.76-.42-2.3-1.14-.93-1.25-.62-2.94-.36-3.84l.02-.05c1.85-5.74,5.08-9.53,8.49-12.03-.1-.1-.2-.21-.28-.31-.06-.07-.11-.14-.16-.21-1.34.22-2.44.32-3.34.32-2.29,0-3.72-.77-4.25-2.28-.06-.18-.11-.35-.13-.53-2.94-.07-5.6-.52-6.13-2.82-.36-1.56.6-3.07,2.57-4.03l.05-.02c3.36-1.55,6.79-2.33,10.21-2.33,5.88,0,10.63,2.25,13.85,4.45,2.01-5.36,6.97-13.69,18.62-15.78h.05c.08-.02.53-.09,1.06-.09,2.53,0,3.25,1.52,3.44,2.18.57,1.94-1.05,3.46-1.66,4.04-.49.46-1.1.96-1.84,1.51.12.25.21.52.26.81.4,2.31-1.62,3.96-5.18,5.65,0,.21-.03.43-.07.66,4.96.12,9.62,1.82,13.84,5.03l.04.03c1.6,1.27,2.23,2.81,1.75,4.2-.27.77-1.09,2.06-3.59,2.06-.8,0-1.84-.12-3.12-.37-.03.07-.05.13-.09.2-.26.54-1.08,1.8-3.16,1.8-.77,0-2.08-.15-4.84-1.25-.75.66-1.78,1.09-3.07,1.09-1.55,0-3.41-.62-5.65-1.88l3.69,15.93h117.62l21.7,55.57c4.69,12.01,6.25,24.45,4.64,37-1.51,11.76-5.87,23.2-12.63,33.09-6.76,9.89-15.83,18.12-26.23,23.8-9.57,5.22-19.93,8.23-30.85,8.96,10.73,1.1,20.32,2.99,27.46,5.46,9.69,3.34,14.61,7.53,14.61,12.44,0,5.71-6.88,10.57-19.91,14.05-11.88,3.18-27.63,4.93-44.35,4.93Z"/>
  <path class="st7" d="M148.35,221.63c51.47,0,86.84-51.77,68.11-99.72l-21.1-54.03h-117.9l-4.92-21.25c1.52.34,2.91-.09,2.91-.09,7.84,5.04,7.99.72,7.99.72,10.46,4.74,5.85-.93,5.85-.93,11.46,3.06,6.68-.75,6.68-.75-8.35-6.36-16.71-4.77-21.61-2.83.3-.42.45-.73.45-.73,9.01-2.37,5.93-5.4,5.93-5.4,10.57-4.5,3.27-4.94,3.27-4.94,10.01-6.37,3.96-5.43,3.96-5.43-13.26,2.38-16.88,13.62-17.75,17.47-3.13-2.8-12.38-9.5-24.34-4,0,0-5.5,2.68,6.35,2.19,0,0-5.74,4.53,5.51,2.18,0,0-.79,4.25,7.95,1.04,0,0,.3.17.79.35-5.14,1.21-12.9,4.69-16.12,14.68,0,0-1.74,5.87,5.91-3.2,0,0-.54,7.29,5.33-2.58,0,0,2.6,3.46,6.15-5.16,0,0,1.32-.42,2.36-1.51l4.67,20.18h-6.12l-21.1,54.03c-18.68,47.84,16.47,99.47,67.75,99.72v4.16c-26.32,1.9-45.68,8.34-45.68,15.99,0,9.15,27.68,16.56,61.83,16.56s61.83-7.42,61.83-16.56c0-7.65-19.37-14.09-45.68-15.99v-4.16h.74Z"/>
  <g id="_ฐาน" data-name="ฐาน">
    <g>
      <path class="st7" d="M147.61,225.79v-15.2h-32.3v15.2c-26.32,1.9-45.68,8.34-45.68,15.99,0,9.15,27.68,16.56,61.83,16.56s61.83-7.42,61.83-16.56c0-7.65-19.37-14.09-45.68-15.99Z"/>
      <path class="st4" d="M143.74,230.57v-13.35h-24.57v13.35c-19.42,1.23-33.68,5.29-33.68,10.11,0,5.79,20.58,10.49,45.96,10.49s45.96-4.7,45.96-10.49c0-4.82-14.26-8.88-33.68-10.11Z"/>
    </g>
    <g>
      <path class="st22" d="M81.22,234.61c-.27-.37-7.84,2.6-8,6.62-.24,5.82,15.14,10.02,15.18,9.94.03-.08-12.86-3.74-12.97-9.39-.08-3.92,6.05-6.83,5.8-7.18Z"/>
      <path class="st22" d="M175.62,232.67c.06-.17,14.72,2.14,14.91,8,.15,4.75-9.3,8.41-9.39,8.28-.08-.12,8.28-3.72,8-8-.33-5.28-13.59-8.11-13.53-8.28Z"/>
      <g>
        <ellipse class="st22" cx="92.68" cy="252.41" rx=".69" ry="1.79" transform="translate(-175.42 272.98) rotate(-74.23)"/>
        <ellipse class="st22" cx="96.26" cy="253.25" rx=".52" ry=".49" transform="translate(-168.88 197.55) rotate(-57.32)"/>
      </g>
      <g>
        <ellipse class="st22" cx="171.78" cy="231.84" rx=".69" ry="1.79" transform="translate(-85.51 362.45) rotate(-80.38)"/>
        <ellipse class="st22" cx="168.13" cy="231.38" rx=".52" ry=".49" transform="translate(-113.98 278.49) rotate(-63.48)"/>
      </g>
    </g>
  </g>
  <path id="_พื้นหลังน้ำ" data-name="พื้นหลังน้ำ" class="st7" d="M148.35,221.63h-32.67c-51.47,0-86.84-51.77-68.11-99.72l21.1-54.03h126.7l21.1,54.03c18.72,47.95-16.64,99.72-68.11,99.72Z"/>
  <path class="st5" d="M113.84,209.86c-.31-2.3-2.22-4-4.46-4.11L72.55,46.63c1.52.34,2.91-.09,2.91-.09,7.84,5.04,7.99.72,7.99.72,10.46,4.74,5.85-.93,5.85-.93,11.46,3.06,6.68-.75,6.68-.75-8.35-6.36-16.71-4.77-21.61-2.83.3-.42.45-.73.45-.73,9.01-2.37,5.93-5.4,5.93-5.4,10.57-4.5,3.27-4.94,3.27-4.94,10.01-6.37,3.96-5.43,3.96-5.43-13.26,2.38-16.88,13.62-17.75,17.47-3.13-2.8-12.38-9.5-24.34-4,0,0-5.5,2.68,6.35,2.19,0,0-5.74,4.53,5.51,2.18,0,0-.79,4.25,7.95,1.04,0,0,.3.17.79.35-5.14,1.21-12.9,4.69-16.12,14.68,0,0-1.74,5.87,5.91-3.2,0,0-.54,7.29,5.33-2.58,0,0,2.6,3.46,6.15-5.16,0,0,1.32-.42,2.36-1.51l36.72,158.64c-1.66.92-2.67,2.78-2.4,4.77.34,2.6,2.73,4.42,5.33,4.08,2.6-.34,4.42-2.73,4.08-5.33Z"/>
  <polyline id="_หลอด" data-name="หลอด" class="st1" points="163.22 175.55 180.17 48.04 227.86 35.13"/>
  <path id="_น้ำ" data-name="น้ำ" class="st3" d="M148.35,221.63h-32.67c-51.47,0-86.84-51.77-68.11-99.72l21.1-54.03h126.7l21.1,54.03c18.72,47.95-16.64,99.72-68.11,99.72Z"/>
  <g id="_น้ำแข๊ง" data-name="น้ำแข๊ง">
    <rect class="st9" x="79.29" y="160.35" width="40.85" height="39" rx="6.58" ry="6.58" transform="translate(-45.77 34.51) rotate(-16.02)"/>
    <rect class="st14" x="115.17" y="107.63" width="40.85" height="39" rx="6.58" ry="6.58" transform="translate(10.34 -10.2) rotate(4.48)"/>
    <rect class="st12" x="167.07" y="133.03" width="40.85" height="39" rx="6.58" ry="6.58" transform="translate(97.36 -71.74) rotate(28.98)"/>
    <rect class="st13" x="147.69" y="171.88" width="26.27" height="25.07" rx="4.23" ry="4.23" transform="translate(-51.88 63.47) rotate(-19.29)"/>
    <rect class="st11" x="60.74" y="129.64" width="26.27" height="25.07" rx="4.23" ry="4.23" transform="translate(57.48 -17.21) rotate(21.58)"/>
  </g>
  <g class="st10">
    <g>
      <path class="st19" d="M193.8,175.57c1.9,6.24.92,12.66-3.15,16.91-10.39,10.85-32.43,14.53-38.38,8.84-5.95-5.69-3.23-27.87,7.16-38.73,4.07-4.25,10.44-5.52,16.76-3.89l17.61,16.86Z"/>
      <path class="st18" d="M195.62,177.45c-1.75-2.02-3.78-3.77-6.03-5.2,1.02,2.65.81,5.62-.56,8.11-.17.28-.53.37-.8.2-.14-.08-.24-.22-.27-.37-.54-2.36-1.48-4.6-2.79-6.64-.83.91-1.72,1.77-2.67,2.55-.31.25-.77.19-1.01-.12-.13-.16-.18-.36-.15-.56.41-2.26.17-4.6-.67-6.74h0c-2.63-2.52-6.72-3.51-8.84-3.93-.32-.06-.53-.36-.47-.68.03-.16.12-.3.25-.39,2.43-1.48,5.38-1.81,8.08-.91-1.53-2.19-3.37-4.14-5.46-5.8-.25-.19-.29-.53-.11-.78.12-.15.3-.24.49-.22,2.54.27,7.45,1.55,11.67,7.05,1.96-1.82,4.31-3.15,6.87-3.9,1.12-.18,2.18.59,2.35,1.71.16,1.02-.46,2-1.44,2.29-1.75.59-3.36,1.52-4.75,2.73,3.85,2.58,6.48,6.61,7.28,11.17.04.3-.17.58-.48.63-.19.03-.38-.05-.5-.2Z"/>
      <g>
        <path class="st15" d="M165.38,168.28c-.79.82-2.8,1.59-3.62.81s-.14-2.83.65-3.65,2.09-.85,2.91-.06c.82.79.85,2.09.06,2.91Z"/>
        <path class="st15" d="M172.1,176.14c-.79.82-2.8,1.59-3.62.81s-.14-2.83.65-3.65,2.09-.85,2.91-.06.85,2.09.06,2.91Z"/>
        <path class="st15" d="M179.53,183.26c-.79.82-2.8,1.59-3.62.81s-.14-2.83.65-3.65,2.09-.85,2.91-.06c.82.79.85,2.09.06,2.91Z"/>
        <path class="st15" d="M187.68,189.63c-.79.82-2.8,1.59-3.62.81s-.14-2.83.65-3.65,2.09-.85,2.91-.06.85,2.09.06,2.91Z"/>
        <path class="st15" d="M160.53,179.3c-.78.82-2.8,1.59-3.62.81s-.13-2.84.65-3.65,2.09-.85,2.91-.06.85,2.09.06,2.91Z"/>
        <path class="st15" d="M167.99,187.87c-.78.82-2.8,1.59-3.62.81s-.13-2.84.65-3.65,2.09-.85,2.91-.06.85,2.09.06,2.91Z"/>
        <path class="st15" d="M157.87,191.01c-.78.82-2.8,1.59-3.62.81s-.13-2.84.65-3.65c.79-.82,2.09-.85,2.91-.06s.85,2.09.06,2.91Z"/>
        <path class="st15" d="M165.3,198.12c-.78.82-2.8,1.59-3.62.81s-.13-2.84.65-3.65,2.09-.85,2.91-.06.85,2.09.06,2.91Z"/>
        <path class="st15" d="M176.88,194.96c-.78.82-2.8,1.59-3.62.81s-.13-2.84.65-3.65,2.09-.85,2.91-.06.85,2.09.06,2.91Z"/>
      </g>
      <g>
        <path class="st23" d="M162.07,168.77c-.54-.52-.06-2.27.66-3.02.62-.64,1.64-.66,2.28-.05.64.62.67,1.64.05,2.28-.72.75-2.45,1.31-2.99.79Z"/>
        <path class="st23" d="M168.79,176.63c-.54-.52-.06-2.27.66-3.02.62-.64,1.64-.66,2.28-.05s.66,1.64.05,2.28c-.72.75-2.45,1.31-2.99.79Z"/>
        <path class="st23" d="M176.22,183.74c-.54-.52-.06-2.27.66-3.02.62-.64,1.64-.66,2.28-.05s.66,1.64.05,2.28c-.72.75-2.45,1.31-2.99.79Z"/>
        <path class="st23" d="M184.36,190.12c-.54-.52-.06-2.27.66-3.02.62-.64,1.64-.66,2.28-.05s.66,1.64.05,2.28c-.72.75-2.45,1.31-2.99.79Z"/>
        <path class="st23" d="M157.21,179.79c-.54-.52-.06-2.27.66-3.02.62-.64,1.64-.66,2.28-.05s.66,1.64.05,2.28c-.72.75-2.45,1.31-2.99.79Z"/>
        <path class="st23" d="M164.68,188.36c-.54-.52-.06-2.27.66-3.02.62-.64,1.64-.66,2.28-.05.64.62.66,1.64.05,2.28-.72.75-2.45,1.31-2.99.79Z"/>
        <path class="st23" d="M154.56,191.49c-.54-.52-.06-2.27.66-3.02.62-.64,1.64-.67,2.28-.05s.66,1.64.05,2.28c-.72.75-2.45,1.31-2.99.79Z"/>
        <path class="st23" d="M161.99,198.61c-.54-.52-.06-2.27.66-3.02.62-.64,1.64-.67,2.28-.05s.66,1.64.05,2.28c-.72.75-2.45,1.31-2.99.79Z"/>
        <path class="st23" d="M173.56,195.44c-.54-.52-.06-2.27.66-3.02.62-.64,1.64-.66,2.28-.05s.66,1.64.05,2.28c-.72.75-2.45,1.31-2.99.79Z"/>
      </g>
    </g>
  </g>
  <g class="st10">
    <g>
      <path class="st21" d="M85.04,141.18c5.62-.93,11.06.67,14.26,4.69,8.19,10.24,8.82,29.74,3.21,34.23s-24.49-.43-32.68-10.68c-3.21-4.01-3.57-9.67-1.42-14.95l16.63-13.29Z"/>
      <path class="st20" d="M86.88,139.83c-1.95,1.28-3.7,2.83-5.2,4.61,2.41-.57,4.96-.05,6.95,1.42.22.18.26.5.08.72-.09.11-.22.18-.36.19-2.1.2-4.15.75-6.07,1.64.69.82,1.33,1.7,1.9,2.61.18.3.08.68-.22.86-.15.09-.33.11-.5.06-1.91-.61-3.96-.68-5.91-.2h0c-2.48,1.98-3.82,5.41-4.43,7.19-.09.27-.37.42-.64.33-.13-.04-.24-.14-.3-.26-1-2.27-.95-4.87.15-7.1-2.07,1.07-3.97,2.44-5.65,4.05-.19.19-.5.19-.69,0-.12-.12-.17-.29-.13-.45.53-2.17,2.2-6.26,7.45-9.28-1.35-1.9-2.23-4.09-2.58-6.4-.02-.99.76-1.81,1.75-1.84.9-.02,1.68.63,1.82,1.51.31,1.58.93,3.08,1.81,4.43,2.67-3.03,6.47-4.84,10.51-5.01.27,0,.49.22.49.49,0,.17-.09.32-.23.41Z"/>
      <g>
        <path class="st15" d="M75.45,164.93c.62.78,1.05,2.61.28,3.23s-2.47-.21-3.09-.98-.49-1.91.28-2.52,1.91-.49,2.52.28Z"/>
        <path class="st15" d="M83.03,160.03c.62.78,1.05,2.61.28,3.23s-2.47-.21-3.09-.98-.49-1.91.28-2.52,1.91-.49,2.52.28Z"/>
        <path class="st15" d="M90.04,154.42c.62.78,1.05,2.61.28,3.23s-2.47-.21-3.09-.98-.49-1.91.28-2.52,1.91-.49,2.52.28Z"/>
        <path class="st15" d="M96.5,148.11c.62.78,1.05,2.61.28,3.23s-2.47-.21-3.09-.98-.49-1.91.28-2.52,1.91-.49,2.52.28Z"/>
        <path class="st15" d="M84.43,170.41c.62.77,1.05,2.61.28,3.23s-2.47-.21-3.09-.98-.49-1.91.28-2.52,1.91-.49,2.52.28Z"/>
        <path class="st15" d="M92.7,164.94c.62.77,1.05,2.61.28,3.23s-2.47-.21-3.09-.98-.49-1.91.28-2.52,1.91-.49,2.52.28Z"/>
        <path class="st15" d="M94.24,174.06c.62.77,1.05,2.61.28,3.23s-2.47-.21-3.09-.98-.49-1.91.28-2.52,1.91-.49,2.52.28Z"/>
        <path class="st15" d="M101.26,168.45c.62.77,1.05,2.61.28,3.23s-2.47-.21-3.09-.98-.49-1.91.28-2.52,1.91-.49,2.52.28Z"/>
        <path class="st15" d="M99.86,158.07c.62.77,1.05,2.61.28,3.23s-2.47-.21-3.09-.98-.49-1.91.28-2.52,1.91-.49,2.52.28Z"/>
      </g>
      <g>
        <path class="st23" d="M75.49,167.86c-.51.41-1.97-.21-2.54-.92-.48-.61-.39-1.49.22-1.98s1.49-.39,1.98.22c.57.71.85,2.27.34,2.68Z"/>
        <path class="st23" d="M83.07,162.95c-.51.41-1.97-.21-2.54-.92-.48-.61-.39-1.49.22-1.98s1.49-.39,1.98.22c.57.71.85,2.27.34,2.68Z"/>
        <path class="st23" d="M90.08,157.34c-.51.41-1.97-.21-2.54-.92-.48-.61-.39-1.49.22-1.98s1.49-.39,1.98.22c.57.71.85,2.27.34,2.68Z"/>
        <path class="st23" d="M96.54,151.04c-.51.41-1.97-.21-2.54-.92-.48-.61-.39-1.49.22-1.98s1.49-.39,1.98.22c.57.71.85,2.27.34,2.68Z"/>
        <path class="st23" d="M84.46,173.33c-.51.41-1.97-.21-2.54-.92-.48-.61-.39-1.49.22-1.98s1.49-.39,1.98.22c.57.71.85,2.27.34,2.68Z"/>
        <path class="st23" d="M92.74,167.87c-.51.41-1.97-.21-2.54-.92-.48-.61-.39-1.49.22-1.98s1.49-.39,1.98.22c.57.71.85,2.27.34,2.68Z"/>
        <path class="st23" d="M94.28,176.98c-.51.41-1.97-.21-2.54-.92-.48-.61-.39-1.49.22-1.98s1.49-.39,1.98.22c.57.71.85,2.27.34,2.68Z"/>
        <path class="st23" d="M101.29,171.38c-.51.41-1.97-.21-2.54-.92-.48-.61-.39-1.49.22-1.98s1.49-.39,1.98.22c.57.71.85,2.27.34,2.68Z"/>
        <path class="st23" d="M99.9,161c-.51.41-1.97-.21-2.54-.92-.48-.61-.39-1.49.22-1.98s1.49-.39,1.98.22c.57.71.85,2.27.34,2.68Z"/>
      </g>
    </g>
  </g>
  <g class="st10">
    <g>
      <path class="st17" d="M158.18,95.87c2.39,3.86,2.86,8.36.88,11.94-5.07,9.15-19.25,15.54-24.26,12.76-5.01-2.78-7.12-18.19-2.05-27.33,1.98-3.58,6.05-5.57,10.59-5.59l14.85,8.22Z"/>
      <path class="st16" d="M159.73,96.82c-1.53-1.05-3.21-1.87-4.98-2.43,1.16,1.61,1.55,3.64,1.06,5.56-.06.22-.29.34-.5.28-.11-.03-.2-.1-.25-.2-.78-1.49-1.82-2.83-3.05-3.98-.4.76-.85,1.49-1.35,2.19-.17.22-.48.27-.7.1-.11-.08-.18-.21-.2-.35-.13-1.6-.7-3.13-1.65-4.42h0c-2.22-1.23-5.15-1.17-6.65-1.08-.22.02-.42-.15-.44-.37,0-.11.03-.22.1-.3,1.37-1.43,3.3-2.18,5.28-2.05-1.42-1.2-3-2.19-4.7-2.93-.2-.08-.29-.31-.21-.51.05-.12.16-.21.29-.23,1.76-.27,5.29-.28,9.11,2.67.99-1.57,2.34-2.89,3.93-3.85.72-.32,1.57.01,1.89.73.29.66.05,1.43-.56,1.8-1.07.71-1.99,1.62-2.71,2.68,3.05,1.05,5.53,3.3,6.88,6.23.08.2-.01.42-.21.51-.12.05-.26.03-.37-.04Z"/>
      <g>
        <path class="st15" d="M137.76,96.02c-.38.69-1.6,1.57-2.29,1.19s-.6-1.88-.21-2.57,1.25-.94,1.95-.56.94,1.25.56,1.95Z"/>
        <path class="st15" d="M143.67,100.11c-.38.69-1.6,1.57-2.29,1.19s-.6-1.88-.21-2.57,1.25-.94,1.95-.56.94,1.25.56,1.95Z"/>
        <path class="st15" d="M149.94,103.58c-.38.69-1.6,1.57-2.29,1.19s-.6-1.88-.21-2.57,1.25-.94,1.95-.56.94,1.25.56,1.95Z"/>
        <path class="st15" d="M156.55,106.42c-.38.69-1.6,1.57-2.29,1.19s-.6-1.88-.21-2.57,1.25-.94,1.95-.56.94,1.25.56,1.95Z"/>
        <path class="st15" d="M136.44,104.29c-.38.69-1.6,1.57-2.29,1.19s-.59-1.88-.21-2.57,1.25-.94,1.95-.56.94,1.25.56,1.95Z"/>
        <path class="st15" d="M142.99,108.74c-.38.69-1.6,1.57-2.29,1.19s-.59-1.88-.21-2.57,1.25-.94,1.95-.56.94,1.25.56,1.95Z"/>
        <path class="st15" d="M136.73,112.64c-.38.69-1.6,1.57-2.29,1.19s-.59-1.88-.21-2.57,1.25-.94,1.95-.56.94,1.25.56,1.95Z"/>
        <path class="st15" d="M143,116.11c-.38.69-1.6,1.57-2.29,1.19s-.59-1.88-.21-2.57,1.25-.94,1.95-.56.94,1.25.56,1.95Z"/>
        <path class="st15" d="M150.23,111.93c-.38.69-1.6,1.57-2.29,1.19s-.59-1.88-.21-2.57,1.25-.94,1.95-.56.94,1.25.56,1.95Z"/>
      </g>
      <g>
        <path class="st23" d="M135.61,96.93c-.46-.25-.44-1.52-.09-2.15.3-.54.98-.74,1.53-.44s.74.98.44,1.53c-.35.64-1.42,1.32-1.87,1.06Z"/>
        <path class="st23" d="M141.53,101.03c-.46-.25-.44-1.52-.09-2.15.3-.54.98-.74,1.53-.44s.74.98.44,1.53c-.35.64-1.42,1.32-1.87,1.06Z"/>
        <path class="st23" d="M147.79,104.5c-.46-.25-.44-1.52-.09-2.15.3-.54.98-.74,1.53-.44s.74.98.44,1.53c-.35.64-1.42,1.32-1.87,1.06Z"/>
        <path class="st23" d="M154.41,107.34c-.46-.25-.44-1.52-.09-2.15.3-.54.98-.74,1.53-.44s.74.98.44,1.53c-.35.64-1.42,1.32-1.87,1.06Z"/>
        <path class="st23" d="M134.3,105.21c-.46-.25-.44-1.52-.09-2.15.3-.54.98-.74,1.53-.44s.74.98.44,1.53c-.35.64-1.42,1.32-1.87,1.06Z"/>
        <path class="st23" d="M140.85,109.65c-.46-.25-.44-1.52-.09-2.15.3-.54.98-.74,1.53-.44s.74.98.44,1.53c-.35.64-1.42,1.32-1.87,1.06Z"/>
        <path class="st23" d="M134.59,113.56c-.46-.25-.44-1.52-.09-2.15.3-.54.98-.74,1.53-.44s.74.98.44,1.53c-.35.64-1.42,1.32-1.87,1.06Z"/>
        <path class="st23" d="M140.86,117.03c-.46-.25-.44-1.52-.09-2.15.3-.54.98-.74,1.53-.44s.74.98.44,1.53c-.35.64-1.42,1.32-1.87,1.06Z"/>
        <path class="st23" d="M148.08,112.84c-.46-.25-.44-1.52-.09-2.15.3-.54.98-.74,1.53-.44s.74.98.44,1.53c-.35.64-1.42,1.32-1.87,1.06Z"/>
      </g>
    </g>
  </g>
  <g id="_ฟอง" data-name="ฟอง" class="st8">
    <path class="st6" d="M162.58,107.74c.02,4.26,3.49,7.7,7.74,7.68,4.26-.02,7.7-3.49,7.68-7.74-.02-4.26-3.49-7.69-7.74-7.68-4.26.02-7.69,3.49-7.68,7.74Z"/>
    <path class="st6" d="M118.15,97.65c0,1.43,1.17,2.58,2.6,2.57,1.43,0,2.58-1.17,2.57-2.6,0-1.43-1.17-2.58-2.6-2.57-1.43,0-2.58,1.17-2.57,2.6Z"/>
    <path class="st6" d="M134.91,135.96c0,1.58,1.29,2.85,2.87,2.84,1.58,0,2.85-1.29,2.84-2.87,0-1.58-1.29-2.85-2.87-2.84-1.58,0-2.85,1.29-2.84,2.87Z"/>
    <path class="st6" d="M90.8,141.1c.01,2.73,2.24,4.94,4.97,4.93,2.73-.01,4.94-2.24,4.93-4.97-.01-2.73-2.24-4.94-4.97-4.93-2.73.01-4.94,2.24-4.93,4.97Z"/>
    <path class="st6" d="M82.93,104.24c0,2.13,1.74,3.85,3.87,3.84,2.13,0,3.85-1.74,3.84-3.87,0-2.13-1.74-3.85-3.87-3.84-2.13,0-3.85,1.74-3.84,3.87Z"/>
    <path class="st6" d="M118.49,175.19c0,1.43,1.17,2.58,2.6,2.57,1.43,0,2.58-1.17,2.57-2.6,0-1.43-1.17-2.58-2.6-2.57-1.43,0-2.58,1.17-2.57,2.6Z"/>
    <path class="st6" d="M155.73,157.01c0,1.95,1.6,3.53,3.55,3.52,1.95,0,3.53-1.6,3.52-3.55,0-1.95-1.6-3.53-3.55-3.52-1.95,0-3.53,1.6-3.52,3.55Z"/>
    <path class="st6" d="M143.73,201.51c.02,4.34,3.56,7.85,7.9,7.83s7.85-3.56,7.83-7.9c-.02-4.34-3.56-7.85-7.9-7.83-4.34.02-7.85,3.56-7.83,7.9Z"/>
    <path class="st6" d="M95.91,177.76c0,1.37,1.12,2.47,2.48,2.46,1.37,0,2.47-1.12,2.46-2.48,0-1.37-1.12-2.47-2.48-2.46-1.37,0-2.47,1.12-2.46,2.48Z"/>
    <path class="st6" d="M112.67,118.46c0,1.54,1.26,2.78,2.8,2.78,1.54,0,2.78-1.26,2.78-2.8,0-1.54-1.26-2.78-2.8-2.78-1.54,0-2.78,1.26-2.78,2.8Z"/>
  </g>
  <g>
    <g id="_ปาก" data-name="ปาก">
      <line class="st2" x1="125.15" y1="146.84" x2="130.62" y2="152.31"/>
      <line class="st2" x1="136.08" y1="146.84" x2="130.62" y2="152.31"/>
    </g>
    <g id="_แก้ม" data-name="แก้ม" class="st8">
      <g>
        <g id="_ซ้าย" data-name="ซ้าย">
          <circle class="st0" cx="99.23" cy="144.18" r="9.92"/>
        </g>
        <g id="_ขวา" data-name="ขวา">
          <circle class="st0" cx="163.69" cy="144.81" r="9.92"/>
        </g>
      </g>
    </g>
    <g id="_ตา" data-name="ตา">
      <circle id="_ซ้าย1" data-name="ซ้าย" cx="109.81" cy="136.33" r="3.99"/>
      <circle id="_ขวา1" data-name="ขวา" cx="152.9" cy="136.33" r="3.99"/>
      <circle class="st7" cx="109.91" cy="134.55" r="1.79"/>
      <circle class="st7" cx="153.01" cy="134.55" r="1.79"/>
    </g>
  </g>
</svg>