<?xml version="1.0" encoding="UTF-8"?>
<svg id="Layer_41" xmlns="http://www.w3.org/2000/svg" xmlns:xlink="http://www.w3.org/1999/xlink" version="1.1" viewBox="0 0 248.55 279.75">
  <!-- Generator: Adobe Illustrator 30.0.0, SVG Export Plug-In . SVG Version: 2.1.1 Build 123)  -->
  <defs>
    <style>
      .st0, .st1 {
        fill: none;
      }

      .st2 {
        fill: url(#linear-gradient);
      }

      .st3 {
        opacity: .4;
      }

      .st3, .st4 {
        fill: #fff;
      }

      .st1 {
        stroke: #000;
        stroke-linecap: round;
        stroke-linejoin: round;
        stroke-width: 2.33px;
      }

      .st5 {
        fill: #ffed9f;
      }

      .st6 {
        opacity: .7;
      }

      .st7 {
        fill: #fff3b9;
      }

      .st8 {
        fill: #ffed03;
      }

      .st9 {
        fill: #ffe133;
      }

      .st10 {
        fill: #fcfad6;
      }

      .st11 {
        clip-path: url(#clippath);
      }
    </style>
    <clipPath id="clippath">
      <path class="st0" d="M150.9,256.41h-55.15c-12.7,0-23.52-9.22-25.55-21.76l-23.15-143.67c-.74-4.6,2.81-8.78,7.47-8.78h137.6c4.66,0,8.22,4.17,7.47,8.78l-23.15,143.67c-2.02,12.54-12.84,21.76-25.55,21.76Z"/>
    </clipPath>
    <linearGradient id="linear-gradient" x1="122.19" y1="279.72" x2="122.19" y2="60.37" gradientUnits="userSpaceOnUse">
      <stop offset=".57" stop-color="#fff"/>
      <stop offset="1" stop-color="#ffe98d"/>
    </linearGradient>
  </defs>
  <polygon points="187.84 117.22 181.46 105.91 168.47 105.77 160.54 91.71 167.05 80.7 160.77 69.56 168.99 55.67 182.18 55.8 188.58 44.97 204.72 45.13 210.91 56.1 223.98 56.23 231.9 70.3 225.4 81.31 231.68 92.45 223.46 106.34 210.59 106.21 203.98 117.39 187.84 117.22"/>
  <polygon class="st4" points="228.82 70.27 222.41 58.89 209.35 58.76 209.34 58.77 203.15 47.79 190.1 47.66 183.62 58.61 183.56 58.49 170.5 58.35 163.86 69.59 170.14 80.74 163.63 91.74 170.04 103.12 183.03 103.25 189.41 114.57 202.46 114.7 209.07 103.52 221.95 103.65 228.59 92.41 222.31 81.27 228.82 70.27"/>
  <g>
    <g>
      <g id="_กรอบ" data-name="กรอบ">
        <polygon class="st7" points="202.7 92.09 189.64 91.95 183 103.19 189.41 114.57 202.46 114.7 209.11 103.46 202.7 92.09"/>
      </g>
      <g id="_ใน" data-name="ใน">
        <polygon class="st8" points="201.93 93.39 190.38 93.27 184.51 103.21 190.18 113.27 201.72 113.39 207.6 103.45 201.93 93.39"/>
      </g>
      <g id="_สะท้อน" data-name="สะท้อน">
        <g>
          <ellipse class="st10" cx="196.91" cy="102.2" rx="6.97" ry="9.08" transform="translate(-20.79 144.9) rotate(-38.53)"/>
          <ellipse class="st10" cx="189.51" cy="108.12" rx="1.17" ry="3.09" transform="translate(-26.09 141.58) rotate(-38.53)"/>
        </g>
      </g>
      <g id="_วิ้งๆ" data-name="วิ้งๆ">
        <rect class="st4" x="200.37" y="94.65" width="2.62" height="6.96" rx="1.31" ry="1.31" transform="translate(-22.2 111.68) rotate(-29.41)"/>
        <rect class="st4" x="203.04" y="101.64" width="2.57" height="2.62" rx="1.29" ry="1.29" transform="translate(-24.22 113.59) rotate(-29.41)"/>
      </g>
    </g>
    <g>
      <g id="_กรอบ1" data-name="กรอบ">
        <polygon class="st7" points="203.15 47.79 190.1 47.66 183.45 58.89 189.86 70.27 202.92 70.4 209.57 59.16 203.15 47.79"/>
      </g>
      <g id="_ใน1" data-name="ใน">
        <polygon class="st8" points="202.38 49.09 190.84 48.97 184.97 58.91 190.63 68.97 202.18 69.09 208.05 59.15 202.38 49.09"/>
      </g>
      <g id="_สะท้อน1" data-name="สะท้อน">
        <g>
          <ellipse class="st10" cx="197.37" cy="57.9" rx="6.97" ry="9.08" transform="translate(6.9 135.54) rotate(-38.53)"/>
          <ellipse class="st10" cx="189.97" cy="63.82" rx="1.17" ry="3.09" transform="translate(1.6 132.22) rotate(-38.53)"/>
        </g>
      </g>
      <g id="_วิ้งๆ1" data-name="วิ้งๆ">
        <rect class="st4" x="200.83" y="50.35" width="2.62" height="6.96" rx="1.31" ry="1.31" transform="translate(-.39 106.19) rotate(-29.41)"/>
        <rect class="st4" x="203.49" y="57.35" width="2.57" height="2.62" rx="1.29" ry="1.29" transform="translate(-2.41 108.11) rotate(-29.41)"/>
      </g>
    </g>
    <g>
      <g id="_กรอบ2" data-name="กรอบ">
        <polygon class="st7" points="202.93 69.48 189.87 69.34 183.23 80.58 189.64 91.95 202.7 92.09 209.34 80.85 202.93 69.48"/>
      </g>
      <g id="_ใน2" data-name="ใน">
        <polygon class="st8" points="202.16 70.78 190.62 70.66 184.74 80.6 190.41 90.65 201.95 90.77 207.83 80.83 202.16 70.78"/>
      </g>
      <g id="_สะท้อน2" data-name="สะท้อน">
        <g>
          <ellipse class="st10" cx="197.14" cy="79.59" rx="6.97" ry="9.08" transform="translate(-6.66 140.12) rotate(-38.53)"/>
          <ellipse class="st10" cx="189.74" cy="85.5" rx="1.17" ry="3.09" transform="translate(-11.95 136.8) rotate(-38.53)"/>
        </g>
      </g>
      <g id="_วิ้งๆ2" data-name="วิ้งๆ">
        <rect class="st4" x="200.61" y="72.04" width="2.62" height="6.96" rx="1.31" ry="1.31" transform="translate(-11.06 108.88) rotate(-29.41)"/>
        <rect class="st4" x="203.27" y="79.03" width="2.57" height="2.62" rx="1.29" ry="1.29" transform="translate(-13.09 110.8) rotate(-29.41)"/>
      </g>
    </g>
    <g>
      <g id="_กรอบ3" data-name="กรอบ">
        <polygon class="st7" points="222.18 81.04 209.12 80.91 202.48 92.15 208.89 103.52 221.95 103.65 228.59 92.41 222.18 81.04"/>
      </g>
      <g id="_ใน3" data-name="ใน">
        <polygon class="st8" points="221.41 82.34 209.87 82.22 203.99 92.16 209.66 102.22 221.2 102.34 227.08 92.4 221.41 82.34"/>
      </g>
      <g id="_สะท้อน3" data-name="สะท้อน">
        <g>
          <ellipse class="st10" cx="216.39" cy="91.15" rx="6.97" ry="9.08" transform="translate(-9.67 154.63) rotate(-38.53)"/>
          <ellipse class="st10" cx="208.99" cy="97.07" rx="1.17" ry="3.09" transform="translate(-14.97 151.31) rotate(-38.53)"/>
        </g>
      </g>
      <g id="_วิ้งๆ3" data-name="วิ้งๆ">
        <rect class="st4" x="219.85" y="83.61" width="2.62" height="6.96" rx="1.31" ry="1.31" transform="translate(-14.26 119.82) rotate(-29.41)"/>
        <rect class="st4" x="222.52" y="90.6" width="2.57" height="2.62" rx="1.29" ry="1.29" transform="translate(-16.29 121.74) rotate(-29.41)"/>
      </g>
    </g>
    <g>
      <g id="_กรอบ4" data-name="กรอบ">
        <polygon class="st7" points="183.33 80.64 170.27 80.5 163.63 91.74 170.04 103.12 183.1 103.25 189.74 92.01 183.33 80.64"/>
      </g>
      <g id="_ใน4" data-name="ใน">
        <polygon class="st8" points="182.56 81.94 171.02 81.82 165.14 91.76 170.81 101.82 182.35 101.94 188.23 92 182.56 81.94"/>
      </g>
      <g id="_สะท้อน4" data-name="สะท้อน">
        <g>
          <ellipse class="st10" cx="177.54" cy="90.75" rx="6.97" ry="9.08" transform="translate(-17.88 130.34) rotate(-38.53)"/>
          <ellipse class="st10" cx="170.14" cy="96.67" rx="1.17" ry="3.09" transform="translate(-23.17 127.02) rotate(-38.53)"/>
        </g>
      </g>
      <g id="_วิ้งๆ4" data-name="วิ้งๆ">
        <rect class="st4" x="181.01" y="83.2" width="2.62" height="6.96" rx="1.31" ry="1.31" transform="translate(-19.07 100.69) rotate(-29.41)"/>
        <rect class="st4" x="183.67" y="90.19" width="2.57" height="2.62" rx="1.29" ry="1.29" transform="translate(-21.1 102.61) rotate(-29.41)"/>
      </g>
    </g>
    <g>
      <g id="_กรอบ5" data-name="กรอบ">
        <polygon class="st7" points="222.41 58.89 209.35 58.76 202.71 70 209.12 81.37 222.17 81.5 228.82 70.27 222.41 58.89"/>
      </g>
      <g id="_ใน5" data-name="ใน">
        <polygon class="st8" points="221.64 60.19 210.1 60.07 204.22 70.01 209.89 80.07 221.43 80.19 227.31 70.25 221.64 60.19"/>
      </g>
      <g id="_สะท้อน5" data-name="สะท้อน">
        <g>
          <ellipse class="st10" cx="216.62" cy="69" rx="6.97" ry="9.08" transform="translate(4.18 149.95) rotate(-38.53)"/>
          <ellipse class="st10" cx="209.22" cy="74.92" rx="1.17" ry="3.09" transform="translate(-1.12 146.63) rotate(-38.53)"/>
        </g>
      </g>
      <g id="_วิ้งๆ5" data-name="วิ้งๆ">
        <rect class="st4" x="220.08" y="61.46" width="2.62" height="6.96" rx="1.31" ry="1.31" transform="translate(-3.36 117.08) rotate(-29.41)"/>
        <rect class="st4" x="222.75" y="68.45" width="2.57" height="2.62" rx="1.29" ry="1.29" transform="translate(-5.38 119) rotate(-29.41)"/>
      </g>
    </g>
    <g>
      <g id="_กรอบ6" data-name="กรอบ">
        <polygon class="st7" points="183.56 58.49 170.5 58.35 163.86 69.59 170.27 80.97 183.33 81.1 189.97 69.86 183.56 58.49"/>
      </g>
      <g id="_ใน6" data-name="ใน">
        <polygon class="st8" points="182.79 59.79 171.25 59.67 165.37 69.61 171.04 79.67 182.58 79.79 188.46 69.85 182.79 59.79"/>
      </g>
      <g id="_สะท้อน6" data-name="สะท้อน">
        <g>
          <ellipse class="st10" cx="177.77" cy="68.6" rx="6.97" ry="9.08" transform="translate(-4.03 125.67) rotate(-38.53)"/>
          <ellipse class="st10" cx="170.37" cy="74.52" rx="1.17" ry="3.09" transform="translate(-9.33 122.34) rotate(-38.53)"/>
        </g>
      </g>
      <g id="_วิ้งๆ6" data-name="วิ้งๆ">
        <rect class="st4" x="181.23" y="61.05" width="2.62" height="6.96" rx="1.31" ry="1.31" transform="translate(-8.17 97.95) rotate(-29.41)"/>
        <rect class="st4" x="183.9" y="68.04" width="2.57" height="2.62" rx="1.29" ry="1.29" transform="translate(-10.19 99.87) rotate(-29.41)"/>
      </g>
    </g>
  </g>
  <path d="M95.74,259.09c-2.15,0-4.3-.24-6.39-.72-10.83-2.48-19.3-11.12-21.56-22-.09-.43-.17-.86-.24-1.29l-19.57-121.44-3.59-22.29v-.03s-.09-.53-.09-.53c-.06-.37-.1-.74-.11-1.12-.12-2.57.78-5.05,2.52-6.96,1.22-1.34,2.77-2.3,4.5-2.8.87-.25,1.77-.37,2.68-.37h138.85c.73,0,1.46.08,2.16.24,2.24.51,4.24,1.81,5.62,3.67,1.26,1.69,1.93,3.7,1.92,5.8,0,.52-.04,1.04-.12,1.55l-23.25,144.29c-1.4,8.68-6.62,16.12-14.31,20.4-4.23,2.36-9.03,3.6-13.87,3.6h-55.15Z"/>
  <path class="st4" d="M199.78,89.24c0-1.56-.51-3.01-1.39-4.2-.98-1.31-2.4-2.28-4.07-2.66-.5-.11-1.03-.18-1.57-.18h-.62s0,0,0,0H54.52s0,0,0,0h-.62c-.68,0-1.33.09-1.94.27-1.28.36-2.39,1.08-3.26,2.03-1.21,1.33-1.92,3.12-1.83,5.04.01.27.04.54.08.81l.09.58s0,.03,0,.04l3.58,22.24,19.57,121.44c.06.39.13.78.22,1.17,2.08,10.01,9.83,17.72,19.54,19.94,1.87.43,3.81.65,5.79.65h0s0,0,0,0h55.15c4.54,0,8.83-1.18,12.57-3.26,6.73-3.75,11.67-10.43,12.97-18.49l13.7-85.04h0s1.27-7.88,1.27-7.88h0l8.28-51.37c.06-.38.09-.75.09-1.12Z"/>
  <path id="_แก้วฟ้าฐาน" data-name="แก้วฟ้าฐาน" class="st4" d="M150.9,256.41h-55.15c-12.7,0-23.52-9.22-25.55-21.76l-23.25-144.29c-.69-4.28,2.61-8.15,6.94-8.15h138.86c4.33,0,7.63,3.88,6.94,8.15l-23.25,144.29c-2.02,12.54-12.84,21.76-25.55,21.76Z"/>
  <g class="st11">
    <path id="_นมใน" data-name="นมใน" class="st5" d="M193.61,143.62s-10.86-11.73-42.49-15.12c-31.63-3.39-73.18,13.3-73.18,13.3l97.26,10.95,23.61-4.95-5.19-4.17Z"/>
  </g>
  <path id="_นม" data-name="นม" class="st2" d="M190.89,144.97l-14.45,89.69c-2.02,12.54-12.84,21.76-25.54,21.76h-55.15c-12.7,0-23.53-9.22-25.55-21.76l-16.72-103.76c13.43-5.92,37.31-10.99,65.92,6.86,29.6,18.46,56.66,12.98,71.49,7.22Z"/>
  <path id="_แก้วฟ้าใส" data-name="แก้วฟ้าใส" class="st3" d="M199.59,90.98l-8.7,53.99c-14.84,5.77-41.9,11.24-71.49-7.22-28.61-17.84-52.49-12.77-65.92-6.86l-6.43-39.92c-.74-4.6,2.81-8.77,7.47-8.77h137.61c4.66,0,8.21,4.17,7.47,8.77Z"/>
  <g id="_หน้า" data-name="หน้า">
    <g id="_ปาก" data-name="ปาก">
      <line class="st1" x1="115.42" y1="188.62" x2="122.14" y2="195.33"/>
      <line class="st1" x1="128.86" y1="188.62" x2="122.14" y2="195.33"/>
    </g>
    <g id="_แก้ม" data-name="แก้ม">
      <circle id="_ซ้าย" data-name="ซ้าย" class="st9" cx="83.56" cy="185.34" r="12.19"/>
      <circle id="_ขวา" data-name="ขวา" class="st9" cx="162.79" cy="186.12" r="12.19"/>
    </g>
    <g id="_ตา" data-name="ตา">
      <circle id="_ซ้าย1" data-name="ซ้าย" cx="96.56" cy="175.7" r="4.91"/>
      <circle id="_ขวา1" data-name="ขวา" cx="149.53" cy="175.7" r="4.91"/>
      <circle class="st4" cx="96.69" cy="173.5" r="2.2"/>
      <circle class="st4" cx="149.66" cy="173.5" r="2.2"/>
    </g>
  </g>
  <g id="_ควัน" data-name="ควัน" class="st6">
    <path class="st4" d="M137.11,20.67c.87,1.81,1.04,3.92.98,5.91-.24,4.78-2.26,9.36-4.99,13.24-.65.97-1.73,2.22-2.45,3.15-3.63,4.24-6.16,9.41-5.97,15.01.18,6.03,2.84,11.63,5.98,16.77-3.51-1.94-6.36-4.95-8.47-8.36-3.88-6.39-4.2-13.93-.81-20.58,1.31-2.56,3.03-4.83,4.97-6.77.8-.86,1.75-1.74,2.52-2.61,0,0,1.19-1.32,1.19-1.32.17-.2,1.24-1.53,1.4-1.72,1.33-1.78,2.58-3.64,3.54-5.65,1.07-2.22,1.9-4.6,2.1-7.08h0Z"/>
    <path class="st4" d="M116.87,30.36c.72,1.5.85,3.21.81,4.85-.2,3.92-1.85,7.68-4.1,10.86-.53.8-1.41,1.82-2.01,2.59-3.67,4.23-5.71,9.46-4.62,15.06.75,3.97,2.48,7.53,4.63,11.02-2.88-1.59-5.22-4.06-6.95-6.86-3.18-5.23-3.45-11.45-.67-16.89,1.07-2.1,2.49-3.96,4.08-5.55,1.04-1.08,2.06-2.08,3.05-3.22,2.83-3.37,5.35-7.37,5.78-11.85h0Z"/>
    <path class="st4" d="M148.22,38.91c.58,1.21.69,2.59.65,3.92-.16,3.17-1.5,6.2-3.31,8.77-.42.65-1.14,1.47-1.62,2.09-2.96,3.42-4.61,7.64-3.73,12.16.61,3.21,2.01,6.08,3.74,8.9-2.33-1.29-4.21-3.28-5.61-5.54-2.57-4.22-2.79-9.24-.54-13.64.87-1.7,2.01-3.2,3.3-4.48.84-.87,1.67-1.68,2.46-2.6,2.28-2.72,4.32-5.95,4.67-9.57h0Z"/>
  </g>
  <g>
    <path class="st9" d="M199.77,88.83c-1.65-.36-3.52-.63-5.61-.75-17.35-1.07-13.77,5.13-11.72,15.71,1.67,8.61-13.56,8.34-9.28-1.55,3.06-7.08-6.92-10.84-14.86-9.55-9.46,1.53-18.71,14.63-30.35,12.09-11.65-2.53-19.07-15.1-32.78-11.69-13.71,3.42-2.73,10.83-6.88,20.1-3.83,8.55-26.54,3.74-20.24-9.62,5.3-11.22-1.59-12.39-20.38-8.78l-.71-4.43c-.69-4.28,2.61-8.16,6.94-8.16h138.86c3.81,0,6.81,2.99,7.02,6.62Z"/>
    <circle class="st9" cx="177.3" cy="118.93" r="4.41"/>
  </g>
</svg>