<?xml version="1.0" encoding="UTF-8"?>
<svg id="Layer_41" xmlns="http://www.w3.org/2000/svg" xmlns:xlink="http://www.w3.org/1999/xlink" version="1.1" viewBox="0 0 248.55 279.75">
  <!-- Generator: Adobe Illustrator 30.0.0, SVG Export Plug-In . SVG Version: 2.1.1 Build 123)  -->
  <defs>
    <style>
      .st0 {
        fill: #ef59dd;
      }

      .st1 {
        stroke-width: 4.05px;
      }

      .st1, .st2 {
        fill: none;
        stroke: #000;
        stroke-linecap: round;
        stroke-linejoin: round;
      }

      .st3 {
        stroke-width: .34px;
      }

      .st3, .st4, .st5 {
        fill: #fcdc94;
        stroke: #d10f3d;
      }

      .st3, .st4, .st5, .st6, .st7, .st8, .st9, .st10, .st11 {
        stroke-miterlimit: 10;
      }

      .st4 {
        stroke-width: .24px;
      }

      .st5 {
        stroke-width: .3px;
      }

      .st12 {
        fill: url(#linear-gradient1);
      }

      .st12, .st13, .st14 {
        opacity: .9;
      }

      .st15, .st16 {
        fill: #fff;
      }

      .st15, .st17 {
        opacity: .8;
      }

      .st18 {
        fill: #faff17;
      }

      .st19 {
        fill: url(#radial-gradient);
      }

      .st19, .st20, .st21, .st22, .st23, .st24 {
        opacity: .7;
      }

      .st25 {
        fill: #9aff17;
      }

      .st2 {
        stroke-width: 1.88px;
      }

      .st13 {
        fill: url(#linear-gradient);
      }

      .st6 {
        fill: url(#linear-gradient3);
      }

      .st6, .st7 {
        stroke-width: .38px;
      }

      .st6, .st7, .st8, .st9, .st10, .st11 {
        stroke: #d3316f;
      }

      .st7 {
        fill: url(#linear-gradient2);
      }

      .st21 {
        fill: url(#radial-gradient4);
      }

      .st22 {
        fill: url(#radial-gradient2);
      }

      .st23 {
        fill: url(#radial-gradient3);
      }

      .st24 {
        fill: url(#radial-gradient1);
      }

      .st8 {
        fill: url(#linear-gradient7);
      }

      .st8, .st9 {
        stroke-width: .54px;
      }

      .st9 {
        fill: url(#linear-gradient6);
      }

      .st26 {
        fill: #ffcafb;
      }

      .st10 {
        fill: url(#linear-gradient5);
      }

      .st10, .st11 {
        stroke-width: .47px;
      }

      .st11 {
        fill: url(#linear-gradient4);
      }
    </style>
    <linearGradient id="linear-gradient" x1="125.09" y1="279.27" x2="125.09" y2="226.37" gradientUnits="userSpaceOnUse">
      <stop offset=".03" stop-color="#fff"/>
      <stop offset=".55" stop-color="#ffcfff"/>
      <stop offset=".92" stop-color="#ef59dd"/>
    </linearGradient>
    <linearGradient id="linear-gradient1" x1="125.64" y1="55.06" x2="125.64" y2="245.12" xlink:href="#linear-gradient"/>
    <radialGradient id="radial-gradient" cx="246.63" cy="2136.55" fx="246.63" fy="2136.55" r="30.59" gradientTransform="translate(-153.02 -1950.77)" gradientUnits="userSpaceOnUse">
      <stop offset="0" stop-color="#ffd2fd"/>
      <stop offset="1" stop-color="#fff"/>
    </radialGradient>
    <radialGradient id="radial-gradient1" cx="57.19" cy="-340.26" fx="57.19" fy="-340.26" r="30.59" gradientTransform="translate(72 473.77)" gradientUnits="userSpaceOnUse">
      <stop offset="0" stop-color="#ffd2fd"/>
      <stop offset="1" stop-color="#fff"/>
    </radialGradient>
    <radialGradient id="radial-gradient2" cx="-1323.01" cy="-2777.49" fx="-1323.01" fy="-2777.49" r="30.59" gradientTransform="translate(1503.65 2936.18)" gradientUnits="userSpaceOnUse">
      <stop offset="0" stop-color="#ffd2fd"/>
      <stop offset="1" stop-color="#fff"/>
    </radialGradient>
    <radialGradient id="radial-gradient3" cx="158.67" cy="2796.52" fx="158.67" fy="2796.52" r="19.67" gradientTransform="translate(-4.46 -2606.22)" xlink:href="#radial-gradient2"/>
    <radialGradient id="radial-gradient4" cx="-935.06" cy="-1987.31" fx="-935.06" fy="-1987.31" r="19.67" gradientTransform="translate(1003.06 2135.75)" xlink:href="#radial-gradient2"/>
    <linearGradient id="linear-gradient2" x1="-2165.65" y1="-3140.21" x2="-2165.65" y2="-3174.37" gradientTransform="translate(253.92 3938.72) rotate(32.68)" gradientUnits="userSpaceOnUse">
      <stop offset="0" stop-color="#f276e4" stop-opacity=".9"/>
      <stop offset="1" stop-color="#f80c39"/>
    </linearGradient>
    <linearGradient id="linear-gradient3" x1="-2165.65" y1="-3159.89" x2="-2165.65" y2="-3191.13" gradientTransform="translate(253.92 3938.72) rotate(32.68)" gradientUnits="userSpaceOnUse">
      <stop offset=".31" stop-color="#96cb49"/>
      <stop offset=".74" stop-color="#f488e9" stop-opacity=".9"/>
    </linearGradient>
    <linearGradient id="linear-gradient4" x1="337.47" y1="4927.65" x2="337.47" y2="4885.54" gradientTransform="translate(-3212.36 -3481.57) rotate(-38.13)" xlink:href="#linear-gradient2"/>
    <linearGradient id="linear-gradient5" x1="337.47" y1="4903.39" x2="337.47" y2="4864.88" gradientTransform="translate(-3212.36 -3481.57) rotate(-38.13)" xlink:href="#linear-gradient3"/>
    <linearGradient id="linear-gradient6" x1="-3530.2" y1="-3641.42" x2="-3530.2" y2="-3689.94" gradientTransform="translate(66.93 5278.08) rotate(45)" xlink:href="#linear-gradient2"/>
    <linearGradient id="linear-gradient7" x1="-3530.2" y1="-3669.37" x2="-3530.2" y2="-3713.73" gradientTransform="translate(66.93 5278.08) rotate(45)" xlink:href="#linear-gradient3"/>
  </defs>
  <path d="M125.09,266.01c-16.58,0-32.19-1.74-43.97-4.89-12.91-3.46-19.74-8.28-19.74-13.93,0-4.87,4.87-9.02,14.48-12.34,7.18-2.48,16.87-4.38,27.69-5.46-10.7-.8-20.83-3.81-30.19-8.96-10.27-5.66-19.22-13.82-25.88-23.62-6.66-9.8-10.96-21.12-12.43-32.75-1.57-12.41-.02-24.72,4.61-36.59l21.52-55.1h3.92l-.09-.1c-2.31-2.63-5.63-4.13-9.11-4.13-.8,0-1.6.08-2.39.24-1.62.32-3.13.96-4.49,1.88l-5.17,3.54,1.75-7.23c1.59-6.56,5.13-12.58,10.24-17.41,4.17-3.95,9.3-6.96,14.63-8.62l-.36-1.8c-.4-2.02.91-3.98,2.93-4.38.24-.05.49-.07.73-.07,1.77,0,3.31,1.26,3.66,3l.37,1.83c.99-.08,1.99-.12,2.99-.12,4.39,0,8.73.77,12.9,2.28,6.84,2.48,12.63,6.76,16.75,12.39l4.39,6.01-6.14-1.29c-.81-.17-1.65-.26-2.48-.26s-1.6.08-2.39.24c-3.89.77-7.17,3.44-8.75,7.05l-.32.92c-.04.11-.07.22-.11.34l-1.05,3.4-2.76-2.23c-2.28-1.84-5.07-2.96-7.96-3.2l1.54,7.75h105.65l21.52,55.1c4.65,11.9,6.2,24.24,4.6,36.68-1.49,11.66-5.82,23-12.52,32.81-6.7,9.81-15.69,17.97-26.01,23.6-9.49,5.18-19.75,8.16-30.59,8.88,10.63,1.09,20.15,2.97,27.23,5.41,9.61,3.31,14.48,7.46,14.48,12.34,0,5.66-6.83,10.48-19.74,13.93-11.78,3.15-27.39,4.89-43.97,4.89ZM76.83,72.37l-1.29-6.46c-2.72,1.25-4.99,3.31-6.52,5.97l-.03.06-.11.44h7.95Z"/>
  <path class="st16" d="M141.83,227.21c51.03,0,86.09-51.33,67.53-98.86l-20.92-53.57h-105.98l-2.49-12.53c4.58-.47,9,.96,12.39,3.7.04-.14.09-.28.14-.42l-.03-.03c1.64-4.71,5.66-8.45,10.9-9.5,1.99-.4,3.96-.37,5.83.03l-.69-.95c-4.03-5.51-9.59-9.36-15.63-11.55-5.55-2.01-11.49-2.6-17-1.77l-.8-4.01c-.14-.72-.84-1.18-1.56-1.04-.72.14-1.18.84-1.04,1.56l.8,3.99c-11.41,2.72-22.21,12.04-25.33,24.88l-.28,1.14c1.57-1.08,3.39-1.86,5.37-2.26,5.28-1.05,10.46.9,13.78,4.67l.02-.1c-.23-1.52-1.92-14.51,6.65-27.22v.02c-8.51,12.68-6.82,25.63-6.59,27.14l-.02.1s.03.04.05.05c2.2-3.82,5.88-6.77,10.42-7.96l2.4,12.06h-16.93l-20.92,53.57c-18.52,47.43,16.33,98.62,67.17,98.86v4.13c-26.09,1.89-45.29,8.27-45.29,15.85,0,9.07,27.45,16.42,61.3,16.42s61.3-7.35,61.3-16.42c0-7.58-19.2-13.97-45.29-15.85v-4.12h.73Z"/>
  <g id="_ฐาน" data-name="ฐาน">
    <g>
      <path class="st16" d="M141.1,231.33v-15.07h-32.02v15.07c-26.09,1.89-45.29,8.27-45.29,15.85,0,9.07,27.45,16.42,61.3,16.42s61.3-7.35,61.3-16.42c0-7.58-19.2-13.97-45.29-15.85Z"/>
      <path class="st13" d="M137.27,236.07v-13.24h-24.36v13.24c-19.25,1.22-33.39,5.24-33.39,10.02,0,5.74,20.4,10.4,45.57,10.4s45.57-4.66,45.57-10.4c0-4.78-14.14-8.81-33.39-10.02Z"/>
    </g>
    <g>
      <path class="st26" d="M75.28,240.07c-.27-.37-7.77,2.58-7.94,6.57-.23,5.77,15.01,9.93,15.05,9.85.03-.08-12.75-3.7-12.86-9.3-.08-3.89,6-6.77,5.75-7.12Z"/>
      <path class="st26" d="M168.88,238.15c.06-.17,14.6,2.12,14.78,7.94.15,4.71-9.22,8.34-9.3,8.21-.08-.12,8.2-3.69,7.94-7.94-.33-5.24-13.47-8.05-13.41-8.21Z"/>
      <g>
        <ellipse class="st26" cx="86.64" cy="257.72" rx=".68" ry="1.78" transform="translate(-184.93 271.04) rotate(-74.23)"/>
        <ellipse class="st26" cx="90.19" cy="258.56" rx=".52" ry=".49" transform="translate(-176.14 194.88) rotate(-57.32)"/>
      </g>
      <g>
        <ellipse class="st26" cx="165.06" cy="237.32" rx=".68" ry="1.78" transform="translate(-96.51 360.39) rotate(-80.38)"/>
        <ellipse class="st26" cx="161.44" cy="236.87" rx=".52" ry=".49" transform="translate(-122.59 275.54) rotate(-63.48)"/>
      </g>
    </g>
  </g>
  <path id="_พื้นหลังน้ำ" data-name="พื้นหลังน้ำ" class="st16" d="M141.83,227.21h-32.39c-51.03,0-86.09-51.33-67.53-98.86l20.92-53.57h125.61l20.92,53.57c18.56,47.54-16.5,98.86-67.53,98.86Z"/>
  <polyline id="_หลอด" data-name="หลอด" class="st1" points="156.57 181.52 173.39 55.1 220.66 42.3"/>
  <g id="_ไม้ร้ม" data-name="ไม้ร้ม">
    <g class="st14">
      <path class="st25" d="M107.59,207.74c-.72.14-1.41-.32-1.56-1.04L72.49,38.26c-.14-.72.32-1.41,1.04-1.56s1.41.32,1.56,1.04l33.55,168.45c.14.72-.32,1.41-1.04,1.56Z"/>
      <circle class="st25" cx="107.4" cy="206.49" r="4.93"/>
    </g>
    <g>
      <path class="st25" d="M109.2,56.02c-1.87-.39-3.84-.42-5.83-.03-5.28,1.05-9.32,4.84-10.94,9.59l-.06-.07c-.37-1.52-4.02-15.04-17.94-23.47l.4.53-.4-.53c-9.62,13.12-7.82,26.98-7.58,28.55l-.02.1c-3.32-3.77-8.5-5.72-13.78-4.67-1.99.4-3.8,1.18-5.37,2.26l.28-1.14c3.22-13.26,14.65-22.78,26.47-25.13,5.91-1.18,12.42-.66,18.45,1.52,6.04,2.19,11.6,6.04,15.63,11.55l.69.95Z"/>
      <path class="st18" d="M92.49,65.52c-.05.14-.09.28-.14.42-3.79-3.06-8.86-4.48-14.01-3.45s-9.05,4.09-11.41,8.19c-.02-.02-.03-.04-.05-.05l.02-.1c-.24-1.57-2.04-15.43,7.58-28.55l.4.53-.4-.53c13.92,8.43,17.57,21.94,17.94,23.47l.06.07Z"/>
    </g>
  </g>
  <path id="_น้ำ" data-name="น้ำ" class="st12" d="M141.83,227.21h-32.39c-51.03,0-86.09-51.33-67.53-98.86l20.92-53.57h125.61l20.92,53.57c18.56,47.54-16.5,98.86-67.53,98.86Z"/>
  <g id="_น้ำแข๊ง" data-name="น้ำแข๊ง">
    <rect class="st19" x="73.37" y="166.45" width="40.5" height="38.66" rx="6.52" ry="6.52" transform="translate(-47.64 33.06) rotate(-16.02)"/>
    <rect class="st24" x="108.94" y="114.18" width="40.5" height="38.66" rx="6.52" ry="6.52" transform="translate(10.81 -9.68) rotate(4.48)"/>
    <rect class="st22" x="160.39" y="139.36" width="40.5" height="38.66" rx="6.52" ry="6.52" transform="translate(99.49 -67.65) rotate(28.98)"/>
    <rect class="st23" x="141.18" y="177.88" width="26.04" height="24.86" rx="4.19" ry="4.19" transform="translate(-54.2 61.61) rotate(-19.29)"/>
    <rect class="st21" x="54.98" y="136.01" width="26.04" height="24.86" rx="4.19" ry="4.19" transform="translate(59.37 -14.61) rotate(21.58)"/>
  </g>
  <g class="st20">
    <g>
      <path class="st7" d="M132.91,127.11c3.45-1.09,7.88-2.66,12.06-4.68,9.53-4.6,10.67-17.96,2.04-23.5l-4.37-2.8c-8.63-5.54-20.3,1.07-20.51,11.65-.09,4.64.33,9.32.78,12.91.29,2.32,1.56,4.36,3.48,5.59h0c1.92,1.23,4.3,1.53,6.53.83Z"/>
      <path class="st6" d="M155.09,106.49c-1.87-5.03-6.03-8.13-7.68-9.19l2.45-3.83c.61-.95.33-2.22-.62-2.83s-2.22-.33-2.83.62l-2.45,3.83c-1.66-1.05-6.21-3.55-11.56-3.15-.76.06-.82.94-.08,1.23,1.41.55,3.29,1.33,5.09,2.21-1.08.18-2.23.55-3.35,1.22-.51.3-.32,1.15.26,1.19,2.02.12,5.3.43,7.39,1.28-.76,1.15-1.5,2.88-1.15,5.02.07.46.8.63,1.01.24.59-1.07,1.53-2.65,2.57-3.82,1.82,1.34,3.77,4.67,4.83,6.68.27.52,1.13.34,1.19-.26.14-1.3,0-2.49-.29-3.55,1.55,1.27,3.04,2.66,4.13,3.71.57.55,1.35.13,1.08-.59Z"/>
    </g>
    <g>
      <g>
        <path class="st4" d="M129.57,102.58c.29-.12.67-.28,1.02-.48.81-.46.98-1.64.3-2.08l-.34-.22c-.68-.44-1.68.21-1.76,1.14-.03.41-.03.82-.01,1.13.01.2.1.37.25.47h0c.15.1.35.11.53.04Z"/>
        <path class="st4" d="M135.44,106.49c.29-.12.67-.28,1.02-.48.81-.46.98-1.64.3-2.08l-.34-.22c-.68-.44-1.68.21-1.76,1.14-.03.41-.03.82-.01,1.13.01.2.1.37.25.47h0c.15.1.35.11.53.04Z"/>
        <path class="st4" d="M141.38,110.3c.29-.12.67-.28,1.02-.48.81-.46.98-1.64.3-2.08l-.34-.22c-.68-.44-1.68.21-1.76,1.14-.03.41-.03.82-.01,1.13.01.2.1.37.25.47h0c.15.1.35.11.53.04Z"/>
        <path class="st4" d="M147.32,114.11c.29-.12.67-.28,1.02-.48.81-.46.98-1.64.3-2.08l-.34-.22c-.68-.44-1.68.21-1.76,1.14-.03.41-.03.82-.01,1.13.01.2.1.37.25.47h0c.15.1.35.11.53.04Z"/>
      </g>
      <g>
        <path class="st4" d="M128.38,110.96c.29-.12.67-.28,1.02-.48.81-.46.98-1.64.3-2.08l-.34-.22c-.68-.44-1.68.21-1.76,1.14-.03.41-.03.82-.01,1.13.01.2.1.37.25.47h0c.15.1.35.11.53.04Z"/>
        <path class="st4" d="M134.32,114.77c.29-.12.67-.28,1.02-.48.81-.46.98-1.64.3-2.08l-.34-.22c-.68-.44-1.68.21-1.76,1.14-.03.41-.03.82-.01,1.13.01.2.1.37.25.47h0c.15.1.35.11.53.04Z"/>
        <path class="st4" d="M140.26,118.58c.29-.12.67-.28,1.02-.48.81-.46.98-1.64.3-2.08l-.34-.22c-.68-.44-1.68.21-1.76,1.14-.03.41-.03.82-.01,1.13.01.2.1.37.25.47h0c.15.1.35.11.53.04Z"/>
      </g>
      <g>
        <path class="st4" d="M127.26,119.24c.29-.12.67-.28,1.02-.48.81-.46.98-1.64.3-2.08l-.34-.22c-.68-.44-1.68.21-1.76,1.14-.03.41-.03.82-.01,1.13.01.2.1.37.25.47h0c.15.1.35.11.53.04Z"/>
        <path class="st4" d="M133.2,123.05c.29-.12.67-.28,1.02-.48.81-.46.98-1.64.3-2.08l-.34-.22c-.68-.44-1.68.21-1.76,1.14-.03.41-.03.82-.01,1.13.01.2.1.37.25.47h0c.15.1.35.11.53.04Z"/>
      </g>
    </g>
  </g>
  <g class="st20">
    <g>
      <path class="st11" d="M99.19,179.03c.13-4.46.09-10.26-.56-15.94-1.49-12.97-16.59-19.7-26.54-11.9l-5.04,3.95c-9.95,7.81-6.99,24.08,5.26,28.61,5.37,1.99,10.99,3.4,15.35,4.33,2.82.6,5.71-.05,7.92-1.78h0c2.21-1.74,3.53-4.38,3.61-7.27Z"/>
      <path class="st10" d="M84.16,144.85c-6.61.13-11.91,3.73-13.82,5.22l-3.46-4.41c-.86-1.1-2.44-1.29-3.54-.43s-1.29,2.44-.43,3.54l3.46,4.41c-1.9,1.5-6.65,5.79-8.35,12.19-.24.91.76,1.34,1.4.59,1.22-1.42,2.89-3.29,4.64-5.03-.23,1.34-.26,2.82.06,4.4.15.72,1.21.84,1.49.17.96-2.31,2.65-6,4.48-8.09,1.03,1.36,2.75,2.91,5.38,3.37.56.1,1.05-.68.69-1.08-1.01-1.12-2.47-2.86-3.41-4.54,2.29-1.58,6.97-2.49,9.74-2.92.71-.11.85-1.18.18-1.49-1.46-.69-2.9-1.01-4.26-1.1,2.11-1.29,4.32-2.46,5.99-3.31.87-.44.7-1.52-.24-1.5Z"/>
    </g>
    <g>
      <g>
        <path class="st5" d="M69.27,172.98c-.02-.39-.06-.89-.15-1.39-.21-1.13-1.51-1.81-2.29-1.2l-.4.31c-.78.62-.44,2.04.62,2.51.46.21.94.36,1.31.47.24.07.48.03.65-.11h0c.17-.14.27-.36.26-.61Z"/>
        <path class="st5" d="M76.2,167.72c-.02-.39-.06-.89-.15-1.39-.21-1.13-1.51-1.81-2.29-1.2l-.4.31c-.78.62-.44,2.04.62,2.51.46.21.94.36,1.31.47.24.07.48.03.65-.11h0c.17-.14.27-.36.26-.61Z"/>
        <path class="st5" d="M83.05,162.35c-.02-.39-.06-.89-.15-1.39-.21-1.13-1.51-1.81-2.29-1.2l-.4.31c-.78.62-.44,2.04.62,2.51.46.21.94.36,1.31.47.24.07.48.03.65-.11h0c.17-.14.27-.36.26-.61Z"/>
        <path class="st5" d="M89.89,156.98c-.02-.39-.06-.89-.15-1.39-.21-1.13-1.51-1.81-2.29-1.2l-.4.31c-.78.62-.44,2.04.62,2.51.46.21.94.36,1.31.47.24.07.48.03.65-.11h0c.17-.14.27-.36.26-.61Z"/>
      </g>
      <g>
        <path class="st5" d="M78.55,177.76c-.02-.39-.06-.89-.15-1.39-.21-1.13-1.51-1.81-2.29-1.2l-.4.31c-.78.62-.44,2.04.62,2.51.46.21.94.36,1.31.47.24.07.48.03.65-.11h0c.17-.14.27-.36.26-.61Z"/>
        <path class="st5" d="M85.39,172.39c-.02-.39-.06-.89-.15-1.39-.21-1.13-1.51-1.81-2.29-1.2l-.4.31c-.78.62-.44,2.04.62,2.51.46.21.94.36,1.31.47.24.07.48.03.65-.11h0c.17-.14.27-.36.26-.61Z"/>
        <path class="st5" d="M92.24,167.02c-.02-.39-.06-.89-.15-1.39-.21-1.13-1.51-1.81-2.29-1.2l-.4.31c-.78.62-.44,2.04.62,2.51.46.21.94.36,1.31.47.24.07.48.03.65-.11h0c.17-.14.27-.36.26-.61Z"/>
      </g>
      <g>
        <path class="st5" d="M87.74,182.42c-.02-.39-.06-.89-.15-1.39-.21-1.13-1.51-1.81-2.29-1.2l-.4.31c-.78.62-.44,2.04.62,2.51.46.21.94.36,1.31.47.24.07.48.03.65-.11h0c.17-.14.27-.36.26-.61Z"/>
        <path class="st5" d="M94.58,177.05c-.02-.39-.06-.89-.15-1.39-.21-1.13-1.51-1.81-2.29-1.2l-.4.31c-.78.62-.44,2.04.62,2.51.46.21.94.36,1.31.47.24.07.48.03.65-.11h0c.17-.14.27-.36.26-.61Z"/>
      </g>
    </g>
  </g>
  <g class="st20">
    <g>
      <path class="st9" d="M154.39,210.11c5.12-.46,11.74-1.31,18.15-2.84,14.62-3.5,20.25-21.69,9.95-31.99l-5.22-5.22c-10.3-10.3-28.5-4.67-31.99,9.95-1.53,6.41-2.38,13.04-2.84,18.15-.3,3.31.84,6.52,3.13,8.81h0c2.29,2.29,5.5,3.43,8.81,3.13Z"/>
      <path class="st8" d="M191.41,188.22c-1.06-7.54-5.91-13.1-7.87-15.09l4.56-4.56c1.13-1.13,1.13-2.97,0-4.11s-2.97-1.13-4.11,0l-4.56,4.56c-1.98-1.96-7.54-6.81-15.09-7.87-1.08-.15-1.42,1.05-.49,1.68,1.79,1.2,4.16,2.85,6.39,4.61-1.56-.08-3.26.09-5.02.67-.8.27-.79,1.5,0,1.73,2.77.78,7.23,2.21,9.86,4.01-1.41,1.37-2.95,3.54-3.12,6.61-.04.66.92,1.11,1.33.64,1.14-1.31,2.93-3.21,4.72-4.52,2.12,2.41,3.81,7.62,4.68,10.73.22.8,1.46.81,1.73,0,.58-1.76.75-3.46.67-5.02,1.76,2.23,3.41,4.61,4.61,6.39.63.94,1.83.59,1.68-.49Z"/>
    </g>
    <g>
      <g>
        <path class="st3" d="M157.18,175.06c.44-.07,1.01-.19,1.56-.36,1.27-.39,1.86-1.98,1.05-2.79l-.41-.41c-.81-.81-2.4-.22-2.79,1.05-.17.56-.29,1.13-.36,1.56-.05.28.03.55.21.73h0c.18.18.45.26.73.21Z"/>
        <path class="st3" d="M164.15,182.27c.44-.07,1.01-.19,1.56-.36,1.27-.39,1.86-1.98,1.05-2.79l-.41-.41c-.81-.81-2.4-.22-2.79,1.05-.17.56-.29,1.13-.36,1.56-.05.28.03.55.21.73h0c.18.18.45.26.73.21Z"/>
        <path class="st3" d="M171.23,189.35c.44-.07,1.01-.19,1.56-.36,1.27-.39,1.86-1.98,1.05-2.79l-.41-.41c-.81-.81-2.4-.22-2.79,1.05-.17.56-.29,1.13-.36,1.56-.05.28.03.55.21.73h0c.18.18.45.26.73.21Z"/>
        <path class="st3" d="M178.32,196.44c.44-.07,1.01-.19,1.56-.36,1.27-.39,1.86-1.98,1.05-2.79l-.41-.41c-.81-.81-2.4-.22-2.79,1.05-.17.56-.29,1.13-.36,1.56-.05.28.03.55.21.73h0c.18.18.45.26.73.21Z"/>
      </g>
      <g>
        <path class="st3" d="M153,186.33c.44-.07,1.01-.19,1.56-.36,1.27-.39,1.86-1.98,1.05-2.79l-.41-.41c-.81-.81-2.4-.22-2.79,1.05-.17.56-.29,1.13-.36,1.56-.05.28.03.55.21.73h0c.18.18.45.26.73.21Z"/>
        <path class="st3" d="M160.08,193.42c.44-.07,1.01-.19,1.56-.36,1.27-.39,1.86-1.98,1.05-2.79l-.41-.41c-.81-.81-2.4-.22-2.79,1.05-.17.56-.29,1.13-.36,1.56-.05.28.03.55.21.73h0c.18.18.45.26.73.21Z"/>
        <path class="st3" d="M167.17,200.5c.44-.07,1.01-.19,1.56-.36,1.27-.39,1.86-1.98,1.05-2.79l-.41-.41c-.81-.81-2.4-.22-2.79,1.05-.17.56-.29,1.13-.36,1.56-.05.28.03.55.21.73h0c.18.18.45.26.73.21Z"/>
      </g>
      <g>
        <path class="st3" d="M148.93,197.49c.44-.07,1.01-.19,1.56-.36,1.27-.39,1.86-1.98,1.05-2.79l-.41-.41c-.81-.81-2.4-.22-2.79,1.05-.17.56-.29,1.13-.36,1.56-.05.28.03.55.21.73h0c.18.18.45.26.73.21Z"/>
        <path class="st3" d="M156.02,204.57c.44-.07,1.01-.19,1.56-.36,1.27-.39,1.86-1.98,1.05-2.79l-.41-.41c-.81-.81-2.4-.22-2.79,1.05-.17.56-.29,1.13-.36,1.56-.05.28.03.55.21.73h0c.18.18.45.26.73.21Z"/>
      </g>
    </g>
  </g>
  <g id="_ฟอง" data-name="ฟอง" class="st17">
    <path class="st15" d="M155.95,114.29c.02,4.22,3.46,7.63,7.68,7.61s7.63-3.46,7.61-7.68c-.02-4.22-3.46-7.63-7.68-7.61-4.22.02-7.63,3.46-7.61,7.68Z"/>
    <path class="st15" d="M111.9,104.28c0,1.42,1.16,2.56,2.57,2.55,1.42,0,2.56-1.16,2.55-2.57,0-1.42-1.16-2.56-2.57-2.55-1.42,0-2.56,1.16-2.55,2.57Z"/>
    <path class="st15" d="M128.51,142.27c0,1.56,1.28,2.83,2.84,2.82,1.56,0,2.83-1.28,2.82-2.84,0-1.56-1.28-2.83-2.84-2.82-1.56,0-2.83,1.28-2.82,2.84Z"/>
    <path class="st15" d="M84.78,147.37c.01,2.71,2.22,4.9,4.93,4.88,2.71-.01,4.9-2.22,4.88-4.93-.01-2.71-2.22-4.9-4.93-4.88-2.71.01-4.9,2.22-4.88,4.93Z"/>
    <path class="st15" d="M76.97,110.82c0,2.11,1.73,3.81,3.84,3.81,2.11,0,3.81-1.73,3.81-3.84,0-2.11-1.73-3.81-3.84-3.81-2.11,0-3.81,1.73-3.81,3.84Z"/>
    <path class="st15" d="M112.23,181.16c0,1.42,1.16,2.56,2.57,2.55,1.42,0,2.56-1.16,2.55-2.57,0-1.42-1.16-2.56-2.57-2.55-1.42,0-2.56,1.16-2.55,2.57Z"/>
    <path class="st15" d="M149.15,163.14c0,1.94,1.59,3.5,3.52,3.49,1.94,0,3.5-1.59,3.49-3.52,0-1.94-1.59-3.5-3.52-3.49-1.94,0-3.5,1.59-3.49,3.52Z"/>
    <path class="st15" d="M137.25,207.25c.02,4.31,3.53,7.78,7.83,7.76,4.31-.02,7.78-3.53,7.76-7.83-.02-4.31-3.53-7.78-7.83-7.76-4.31.02-7.78,3.53-7.76,7.83Z"/>
    <path class="st15" d="M89.84,183.71c0,1.35,1.11,2.45,2.46,2.44,1.35,0,2.45-1.11,2.44-2.46,0-1.35-1.11-2.45-2.46-2.44-1.35,0-2.45,1.11-2.44,2.46Z"/>
    <path class="st15" d="M106.46,124.92c0,1.53,1.25,2.76,2.78,2.75,1.53,0,2.76-1.25,2.75-2.78,0-1.53-1.25-2.76-2.78-2.75-1.53,0-2.76,1.25-2.75,2.78Z"/>
  </g>
  <g>
    <g id="_ปาก" data-name="ปาก">
      <line class="st2" x1="118.84" y1="153.06" x2="124.26" y2="158.48"/>
      <line class="st2" x1="129.67" y1="153.06" x2="124.26" y2="158.48"/>
    </g>
    <g id="_แก้ม" data-name="แก้ม" class="st17">
      <g>
        <g id="_ซ้าย" data-name="ซ้าย">
          <circle class="st0" cx="93.14" cy="150.42" r="9.83"/>
        </g>
        <g id="_ขวา" data-name="ขวา">
          <circle class="st0" cx="157.04" cy="151.04" r="9.83"/>
        </g>
      </g>
    </g>
    <g id="_ตา" data-name="ตา">
      <circle id="_ซ้าย1" data-name="ซ้าย" cx="103.62" cy="142.64" r="3.96"/>
      <circle id="_ขวา1" data-name="ขวา" cx="146.35" cy="142.64" r="3.96"/>
      <circle class="st16" cx="103.73" cy="140.87" r="1.77"/>
      <circle class="st16" cx="146.45" cy="140.87" r="1.77"/>
    </g>
  </g>
</svg>